<svg xmlns="http://www.w3.org/2000/svg" viewBox="0 0 626.46 142.62"><defs><style>.cls-1{fill:#244b8e;}.cls-2{fill:#1e3f77;}.cls-3{fill:#2b63ad;}.cls-4{fill:#fff;}.cls-5{fill:#274a98;}.cls-6{fill:#cfecfe;}</style></defs><title>Asset 1</title><g id="Layer_2" data-name="Layer 2"><g id="OBJECTS"><polygon class="cls-1" points="626.46 142.62 0 142.62 56.3 116.5 74.37 108.13 228.61 36.56 323.25 48.91 332.42 50.1 430.86 62.93 432.83 63.19 486.96 73.48 522.11 90.92 533.14 96.38 555.06 107.25 626.46 142.62"/><path class="cls-2" d="M626.46,142.62H393.59c-23.77-12.68-16-30.21-23.77-30.21-3.54,0-4.58-12.77,0-18L353.69,78c20.61-7.84,49.24-13.38,77.17-15.08l2,.26L487,73.48l35.15,17.44,11,5.46,21.92,10.87Z"/><path class="cls-3" d="M369.82,112.41c-13.75,3.21-22.11-22.63-34.82-12.8-4.67,3.61-14.88-5.72-21.77-6.32-5.38-.46-14.79,7.54-19,4.67-6.33-4.33.29-13.8-6.23-8.37-2.16,1.78-24.29,15.35-26.87,16-4.44,1.14,7.53-15,3.82-16-17.24-4.7-13,16-31.1,17-11.24.61-14.4-6.49-16.76-13.42-2.45-7.15-9.91,9.52-18,11.41-5.72,1.32-12.14,7-18.63,5.33-5.82-1.48-6.45-5.82-13.58-6-16.54-.34-31.26,12.84-47.23,14.47,5.65-3.28,23.92-16.49,23.31-22.8-10.31-3.45-32.3,4.09-42.47,8.13C87.17,109,71.69,115.2,56.3,116.5l18.07-8.37L228.61,36.57,341.79,59.21S355.17,71.49,362.18,78C370,85.31,369.82,112.41,369.82,112.41Z"/><path class="cls-4" d="M487,73.48a173.88,173.88,0,0,1-19.64,0c-6.24-.29-14.86-3.22-20.81-1.23,2.7,1.3,7,2.4,7.48,5.71-5-.46-10-3.76-15.18-4.79-3.66-.73-8.91-.82-13-2.19a9.73,9.73,0,0,1,3.35,3.27C418,71.76,405.09,62.84,393.6,63.74c2.19,1.33,6.1,3,7.56,5.25-3.43-1.23-7.5-.67-11.21-1.5-4.1-.91-8.09-2.71-12.15-3.32a17.18,17.18,0,0,1,4.89,5.7,44.75,44.75,0,0,1-12-2c-2.89-.78-5.76-1.68-8.64-2.37-9-2.18-14.75-5.84-20.23-6.29h0a12.38,12.38,0,0,0-8.1,2.17c-12.32,8-26.47,8.36-38.16,10.84-4.66,1-15.94,5.62-20.22,4.81,6.93-3.91,14.1-11.06,13-13.71-3.29-.5-14.79,9.56-20.14,10.18,1.21-2.36,2.82-5,3-7.57-11.8,4.18-13.51,14.72-17,15.71C251.13,75,246,65.81,241,64.7c-8.12-1.81-7.22,3.9-31.59,10.83.74-2.53,12.15-10.18,18.05-13.85-12.64,6.63-27.55,13-33.7,11.74,1.09-2.5.34-2.85,1.82-4.67-3-1.81-20.54,7-29.8,7.08,7-5.64,12.33-7.83,16-11.74-10.64,3.29-16.82,7-26,7.1,8.5-5.29,45.11-26.95,59.95-34.62,18.06-9.33,33.51-14.1,52-22.53,5.59-2.53,36.53-14,40.08-14a45.81,45.81,0,0,1,6.3.44,49.39,49.39,0,0,1,12.32,3.47c9.45,4,16.41,9.87,21.1,12.23,12.91,6.46,24.31,13.8,38.26,18.5,7.34,2.47,13.53,7,20.84,9.59,8.94,3.21,17,7.54,25.78,11.29,5,2.15,9.43,4.88,14.67,6.52,5.89,1.85,11.83,2.92,17.79,4.48C471.76,68.32,481.37,69.05,487,73.48Z"/><path class="cls-5" d="M508.34,97.44c1.51,3.87,5.6,7.21,10,8.37-6.25,2.68-23.52-3-31-3.6-7.1-.6-29.66-7.59-35-4.08,2.12,4.79,8.57,8.81,12.71,11.73-5,4.79-17.82-3-23.95-4.17.44,14.62-34.54-4.28-41.38-8.48a42.53,42.53,0,0,0,.54,11.69c-8.56-2.41-14.11-14.1-22.77-15-2.83-.31-5.94,11.5-7.64,18.52-5.28-5-2.57-22.33-6.22-27.1-5.9-7.73-16.12-8-22.07-15.54-2.85-3.64,2.17-6.67.26-10.56l91,4L487,73.48l35.15,17.44,11,5.46,21.92,10.87C539.78,108.59,519.39,104.07,508.34,97.44Z"/><path class="cls-6" d="M487,73.48a173.88,173.88,0,0,1-19.64,0c-6.24-.29-14.86-3.22-20.81-1.23,2.7,1.3,7,2.4,7.48,5.71-5-.46-10-3.76-15.18-4.79-3.66-.73-8.91-.82-13-2.19a9.73,9.73,0,0,1,3.35,3.27C418,71.76,405.09,62.84,393.6,63.74c2.19,1.33,6.1,3,7.56,5.25-3.43-1.23-7.5-.67-11.21-1.5-4.1-.91-8.09-2.71-12.15-3.32a17.18,17.18,0,0,1,4.89,5.7,44.75,44.75,0,0,1-12-2c-2.89-.78-5.76-1.68-8.64-2.37-9-2.18-14.75-5.84-20.23-6.29h0c-1.15-25.77-26.92-17.35-13.91-28.1,7.4-6.11-11.15-8.71-16.87-17.2-.66-1,4.64-12.36,3.1-13.47a49.39,49.39,0,0,1,12.32,3.47c9.45,4,16.41,9.87,21.1,12.23,12.91,6.46,24.31,13.8,38.26,18.5,7.34,2.47,13.53,7,20.84,9.59,8.94,3.21,17,7.54,25.78,11.29,5,2.15,9.43,4.88,14.67,6.52,5.89,1.85,11.83,2.92,17.79,4.48C471.76,68.32,481.37,69.05,487,73.48Z"/></g></g></svg>