<svg xmlns="http://www.w3.org/2000/svg" viewBox="0 0 111.5 147.99"><defs><style>.cls-1{fill:#f0f4ed;}.cls-2{fill:#d13434;}.cls-3{fill:#e8c478;}.cls-4{fill:#3e3f3a;}.cls-5,.cls-6{fill:none;stroke-miterlimit:10;}.cls-5{stroke:#3e3f3a;stroke-width:1.18px;}.cls-6{stroke:#e8c478;stroke-width:0.79px;}.cls-7{fill:#403c3d;}</style></defs><title>Asset 3</title><g id="Layer_2" data-name="Layer 2"><g id="OBJECTS"><ellipse class="cls-1" cx="67.92" cy="90.6" rx="36.18" ry="57.18" transform="translate(-11.41 9.8) rotate(-7.62)"/><path class="cls-2" d="M94.62,54.31c.8,5.95-11.59,19-28.71,21.26s-32.49-7-33.29-13S45.91,56.31,63,54,93.83,48.35,94.62,54.31Z"/><path class="cls-3" d="M73.44,84.89a6,6,0,1,1-6.72-5.13A6,6,0,0,1,73.44,84.89Z"/><path class="cls-4" d="M69.16,86.06a1.58,1.58,0,1,1-1.78-1.36A1.59,1.59,0,0,1,69.16,86.06Z"/><line class="cls-5" x1="67.59" y1="86.26" x2="68.31" y2="91.61"/><path class="cls-6" d="M68.41,78.47a1.84,1.84,0,1,1-2.07-1.58A1.85,1.85,0,0,1,68.41,78.47Z"/><path class="cls-6" d="M66.36,74.7c.3,2.2.39,4,.22,4S66,77,65.74,74.79s-.39-4-.22-4S66.07,72.51,66.36,74.7Z"/><path class="cls-1" d="M34.13,101.85c-2.15.28-5.61-3.43-9.34-8.85-.68-1-1.38-2-2.07-3.14a183,183,0,0,1-9.11-16.33C13,72.39,12.5,71.27,12,70.18c-1.33-2.83-2.45-5.44-3.27-7.59h0A24.86,24.86,0,0,1,7.27,57.8a9.84,9.84,0,0,1,0-3c.83-4.72,5.78-5.68,11.38-4.7a8.52,8.52,0,0,1,3.74,1.67l.12.09c4.22,3.26,6.77,10,10.58,14.39C44.41,79.26,40.81,101,34.13,101.85Z"/><path class="cls-1" d="M21.88,54.58c-2.73,6.79-10.79,8.26-16.64,8.13s-6.49-9.4-3.36-13.14c3.3-3.94,7-5.87,13-5.74S23.7,50.06,21.88,54.58Z"/><path class="cls-4" d="M6.51,52.08c1.17,1.68,1.94,3.31,2.85,4.84a23.55,23.55,0,0,0,1.43,2.19,13,13,0,0,0,1.9,2,4.53,4.53,0,0,1-3-.89,7.63,7.63,0,0,1-2.06-2.33,9.41,9.41,0,0,1-1.08-2.82A7.61,7.61,0,0,1,6.51,52.08Z"/><path class="cls-4" d="M18.3,59.74c-.28-1-.41-2-.68-2.84a14.08,14.08,0,0,0-.92-2.48,20.23,20.23,0,0,0-3.19-4.53,5.55,5.55,0,0,1,2.92,1.17,6.63,6.63,0,0,1,2,2.5,6.73,6.73,0,0,1,.68,3.16,6.92,6.92,0,0,1-.22,1.58A6.84,6.84,0,0,1,18.3,59.74Z"/><path class="cls-4" d="M8.72,62.59a1.94,1.94,0,0,0,.9,0,2,2,0,0,0,.72-.38,4.6,4.6,0,0,0,.56-.61,3.36,3.36,0,0,0,.4-.7l.16-.38.55.07A7.19,7.19,0,0,0,16.33,60a3.51,3.51,0,0,0,1.32-1.38,5,5,0,0,0,.54-1.92l.06-1,.89,0a3.22,3.22,0,0,0,2.66-.84,3,3,0,0,0,.59-1.43,8.5,8.5,0,0,0,.08-1.84,4.61,4.61,0,0,1,.76,1.82A3.42,3.42,0,0,1,23,55.63a3.35,3.35,0,0,1-1.72,1.6,5.67,5.67,0,0,1-2.12.46l.95-1a5.83,5.83,0,0,1-.2,1.49,5.6,5.6,0,0,1-.55,1.38,5,5,0,0,1-2.16,2.1,6.46,6.46,0,0,1-2.81.61,10.56,10.56,0,0,1-2.66-.41l.71-.31a4.76,4.76,0,0,1-.79.77,3,3,0,0,1-.94.54A2.1,2.1,0,0,1,9.64,63,1.79,1.79,0,0,1,8.72,62.59Z"/><path class="cls-3" d="M27.28,92.05a7.64,7.64,0,0,1-2.49,1c-.68-1-1.38-2-2.07-3.14a183,183,0,0,1-9.11-16.33C13,72.39,12.5,71.27,12,70.18A8.47,8.47,0,0,1,13.47,69c4.73-2.82,11.65,0,15.47,6.4S32,89.22,27.28,92.05Z"/><path class="cls-7" d="M25.48,89.06a5.82,5.82,0,0,1-2.76.8,183,183,0,0,1-9.11-16.33A5.75,5.75,0,0,1,15.27,72c3.5-2.09,8.62,0,11.44,4.73S29,87,25.48,89.06Z"/><path class="cls-1" d="M94.39,56.61s13.23,16.74,16.55,24.87-9.28,16.09-9.28,16.09L82.29,80.62Z"/><ellipse class="cls-3" cx="77.55" cy="115.63" rx="24.29" ry="18.46" transform="translate(-51.7 167.39) rotate(-77.97)"/><path class="cls-4" d="M70.37,95.17A71.69,71.69,0,0,1,77.17,98c2.22,1,4.39,2.17,6.53,3.35S88,103.8,90,105.1a71.22,71.22,0,0,1,6,4.22,72.8,72.8,0,0,1-6.8-2.86c-2.21-1-4.38-2.17-6.53-3.35s-4.25-2.42-6.32-3.73A70.57,70.57,0,0,1,70.37,95.17Z"/><path class="cls-4" d="M68.28,100.27a72.8,72.8,0,0,1,6.8,2.86c2.21,1.05,4.38,2.17,6.53,3.35s4.25,2.41,6.32,3.72A70.57,70.57,0,0,1,94,114.41a69.11,69.11,0,0,1-6.8-2.85c-2.22-1.06-4.39-2.18-6.53-3.36s-4.26-2.41-6.33-3.72A72.74,72.74,0,0,1,68.28,100.27Z"/><path class="cls-4" d="M66.18,105.36a72.8,72.8,0,0,1,6.8,2.86q3.31,1.59,6.53,3.35t6.33,3.72a72.86,72.86,0,0,1,6,4.22,72.8,72.8,0,0,1-6.8-2.86q-3.32-1.58-6.53-3.35t-6.33-3.72A72.86,72.86,0,0,1,66.18,105.36Z"/><path class="cls-4" d="M64.08,110.46a72.8,72.8,0,0,1,6.8,2.86q3.32,1.58,6.53,3.35t6.33,3.72a72.86,72.86,0,0,1,6.05,4.22,72.8,72.8,0,0,1-6.8-2.86q-3.31-1.57-6.53-3.35t-6.32-3.73A70.57,70.57,0,0,1,64.08,110.46Z"/><path class="cls-4" d="M62,115.56a71.69,71.69,0,0,1,6.8,2.86c2.22,1,4.39,2.17,6.53,3.35s4.26,2.41,6.33,3.72a68.89,68.89,0,0,1,6,4.21,70.15,70.15,0,0,1-6.8-2.85c-2.21-1.06-4.38-2.18-6.53-3.36s-4.25-2.41-6.32-3.72A72.89,72.89,0,0,1,62,115.56Z"/><path class="cls-4" d="M59.89,120.65a72.8,72.8,0,0,1,6.8,2.86c2.21,1.06,4.38,2.18,6.53,3.35s4.25,2.42,6.32,3.72a73,73,0,0,1,6.06,4.22,70.61,70.61,0,0,1-6.8-2.86c-2.22-1.05-4.39-2.17-6.53-3.35s-4.26-2.42-6.33-3.72A71.22,71.22,0,0,1,59.89,120.65Z"/><path class="cls-1" d="M94.5,99.9c-7.24,1-12.51-5.27-15.3-10.42s4.94-10.29,9.74-9.43c5.06.91,8.58,3.2,11.41,8.41S99.34,99.24,94.5,99.9Z"/><path class="cls-4" d="M90.15,86a24.86,24.86,0,0,1-2.71,4.8c-.5.73-1,1.44-1.54,2.16l-1.64,2.24a5.94,5.94,0,0,1,.26-2.93,10.45,10.45,0,0,1,1.29-2.59,11.63,11.63,0,0,1,1.89-2.13A8.5,8.5,0,0,1,90.15,86Z"/><path class="cls-4" d="M88.25,99.36c.76-.76,1.51-1.33,2.13-2a13.32,13.32,0,0,0,1.69-2,20.15,20.15,0,0,0,2.36-5,5.55,5.55,0,0,1,.43,3.12,6.91,6.91,0,0,1-3.57,5.17,6.16,6.16,0,0,1-1.47.58A7,7,0,0,1,88.25,99.36Z"/><path class="cls-4" d="M79.25,84.71a11.71,11.71,0,0,0,1.06,6A8.58,8.58,0,0,0,82.09,93a7.51,7.51,0,0,0,2.41,1.52l.26.1.14.32a10.13,10.13,0,0,0,1,1.93,4.09,4.09,0,0,0,1.37,1.35,2.39,2.39,0,0,0,1.64.3,4.35,4.35,0,0,0,1.7-.68l.9-.64.52.91a4.58,4.58,0,0,0,2,2.13,2.8,2.8,0,0,0,2.59-.87,15,15,0,0,0,2.36-2.63c.72-1,1.4-2,2-3.07a18.85,18.85,0,0,1-1.32,3.51,13,13,0,0,1-2.12,3.21A6,6,0,0,1,96,101.68a3.38,3.38,0,0,1-2.36.26,4.49,4.49,0,0,1-2-1.2,8.35,8.35,0,0,1-1.25-1.65l1.43.27a6.17,6.17,0,0,1-1.24.73,4.87,4.87,0,0,1-1.38.39,4.31,4.31,0,0,1-2.9-.64,5.78,5.78,0,0,1-1.82-2.08,11.58,11.58,0,0,1-.87-2.38l.4.42a8.6,8.6,0,0,1-2.71-2A8.7,8.7,0,0,1,79.59,91,10.92,10.92,0,0,1,79.25,84.71Z"/><path class="cls-1" d="M45.25,24.33c2.28,8.36-1.2,16.58-7.75,18.36s-13.72-3.54-16-11.89-5.66-20.07,2-22S43,16,45.25,24.33Z"/><path class="cls-2" d="M41.53,24.66c1.6,5.86-.84,11.63-5.44,12.88s-9.62-2.48-11.21-8.34S19.64,15.3,25,13.94,39.94,18.8,41.53,24.66Z"/><path class="cls-1" d="M72.38,20.7c0,8.66,5.51,15.68,12.31,15.68S97,29.36,97,20.7,97.19-.14,89.3,0,72.38,12,72.38,20.7Z"/><path class="cls-2" d="M75.08,20.22c0,6.76,4.3,12.24,9.61,12.24S94.3,27,94.3,20.22s1.08-16.4-5.08-16.29S75.08,13.46,75.08,20.22Z"/><path class="cls-1" d="M96.15,37.76c2.12,15.87-11.68,30.81-30.83,33.37S28.92,62.9,26.8,47C25.32,36,31.58,25.38,42,19.1c0,0,0,0,0,0,.4-.24.82-.48,1.24-.71a41.54,41.54,0,0,1,29.57-3.95l1.38.36h0C85.86,18.12,94.67,26.71,96.15,37.76Z"/><path class="cls-3" d="M74.62,16.74C75.57,23.87,68.7,28,59.7,29.16S43,28.22,42.06,21.09a10.23,10.23,0,0,1-.08-2h0c.4-.24.81-.48,1.23-.71a41.58,41.58,0,0,1,29.58-3.95l1.38.36h0A10.63,10.63,0,0,1,74.62,16.74Z"/><path class="cls-7" d="M72.9,15c.65,4.83-5.46,9.64-13.65,10.73S43.9,23.81,43.25,19a5.85,5.85,0,0,1,0-.59,41.58,41.58,0,0,1,29.58-3.95A3.71,3.71,0,0,1,72.9,15Z"/><path class="cls-4" d="M39.48,42.43a6.24,6.24,0,0,1,7.67-5,10.48,10.48,0,0,1,2.37.87l1,.66a6.25,6.25,0,0,1,1,.72,18,18,0,0,1,1.71,1.67,21.75,21.75,0,0,1,1.4,1.91c-.72-.36-1.37-.77-2-1.17S51.29,41.4,50.67,41s-1.31-.64-2-1l-1-.35a3.87,3.87,0,0,0-1-.27,6,6,0,0,0-3.86.29A9.62,9.62,0,0,0,39.48,42.43Z"/><path class="cls-4" d="M82.71,36.65a9.58,9.58,0,0,0-4-1.74,6,6,0,0,0-3.81.73,4.47,4.47,0,0,0-.88.53l-.86.59c-.54.48-1.1.94-1.63,1.45s-1.08,1-1.58,1.61a21.5,21.5,0,0,1-1.65,1.66,22.85,22.85,0,0,1,.85-2.21,17.89,17.89,0,0,1,1.21-2.06,6.81,6.81,0,0,1,.75-1l.82-.91A10.27,10.27,0,0,1,74,33.89a6.25,6.25,0,0,1,8.7,2.76Z"/><path class="cls-2" d="M66.57,48.08c.14,1.07-1.54,3-3.9,3.28s-4.47-1.07-4.62-2.14,1.65-2.18,4-2.5S66.43,47,66.57,48.08Z"/><path class="cls-2" d="M51,59.29c1.37-.25,2.69-.49,4-.79a19.61,19.61,0,0,0,3.68-1.22A6.94,6.94,0,0,0,61.53,55a7.57,7.57,0,0,0,1.14-3.67A5.86,5.86,0,0,1,63,53.45a5.53,5.53,0,0,1-.5,2.16,6.58,6.58,0,0,1-3.22,3,11.93,11.93,0,0,1-4.14,1A12.86,12.86,0,0,1,51,59.29Z"/><path class="cls-2" d="M76,56a12.59,12.59,0,0,1-3.91,1.43,11.71,11.71,0,0,1-4.26.1,6.58,6.58,0,0,1-3.9-2.06,5.53,5.53,0,0,1-1.05-2,6.08,6.08,0,0,1-.2-2.11,7.72,7.72,0,0,0,2.07,3.24A7.08,7.08,0,0,0,68.07,56a19.06,19.06,0,0,0,3.87.2C73.27,56.19,74.61,56.07,76,56Z"/><path class="cls-4" d="M83.47,42.36a8.39,8.39,0,0,1,1.93-2.55A10.63,10.63,0,0,1,88.05,38a8.52,8.52,0,0,1,3.17-.85,5,5,0,0,1,3.17.85,14.43,14.43,0,0,0-2.89.68,23.53,23.53,0,0,0-2.6,1.1C87.16,40.59,85.49,41.56,83.47,42.36Z"/><path class="cls-4" d="M85.16,44.62a7.2,7.2,0,0,1,2.52-1,10.66,10.66,0,0,1,2.64-.21,9.36,9.36,0,0,1,2.62.46,6.68,6.68,0,0,1,2.4,1.29,19.18,19.18,0,0,1-2.62.24c-.84,0-1.66,0-2.48,0s-1.65-.11-2.49-.21A16.34,16.34,0,0,1,85.16,44.62Z"/><path class="cls-4" d="M40.25,48.14c-2.16-.24-4-.74-5.92-1.06a24.44,24.44,0,0,0-2.8-.38,14.29,14.29,0,0,0-3,.1,5,5,0,0,1,2.83-1.65,8.42,8.42,0,0,1,3.28,0,10.57,10.57,0,0,1,3,1A8.38,8.38,0,0,1,40.25,48.14Z"/><path class="cls-4" d="M39.2,50.76A14.84,14.84,0,0,1,36.85,52c-.78.32-1.56.61-2.35.86s-1.57.47-2.38.67a18,18,0,0,1-2.6.46,6.9,6.9,0,0,1,2-1.88,10.58,10.58,0,0,1,2.41-1.13,10.1,10.1,0,0,1,2.61-.48A7.12,7.12,0,0,1,39.2,50.76Z"/></g></g></svg>