<svg xmlns="http://www.w3.org/2000/svg" viewBox="0 0 188.51 111.98"><defs><style>.cls-1{fill:#e8c478;}.cls-2{fill:#f0f4ed;}.cls-3{fill:#d13434;}</style></defs><title>Asset 2</title><g id="Layer_2" data-name="Layer 2"><g id="OBJECTS"><path class="cls-1" d="M88.84,107.35a6.5,6.5,0,1,1-4.35-8.1A6.5,6.5,0,0,1,88.84,107.35Z"/><rect class="cls-1" x="45.33" y="14.28" width="2.36" height="105.49" transform="translate(-33.28 50.01) rotate(-43.21)"/><rect class="cls-1" x="56.51" y="6.25" width="2.36" height="105.49" transform="translate(-21.03 34.27) rotate(-28.21)"/><rect class="cls-1" x="69.39" y="1.38" width="2.36" height="105.49" transform="translate(-10.5 17.55) rotate(-13.21)"/><rect class="cls-1" x="31.53" y="51.58" width="105.49" height="2.36" transform="translate(28.89 135.32) rotate(-88.2)"/><rect class="cls-1" x="45.11" y="53.8" width="105.49" height="2.36" transform="translate(16.95 132.78) rotate(-73.21)"/><rect class="cls-1" x="57.66" y="59.47" width="105.49" height="2.36" transform="translate(0.69 122.53) rotate(-58.21)"/><rect class="cls-1" x="68.3" y="68.13" width="105.65" height="2.36" transform="translate(-14.62 101.71) rotate(-43.2)"/><rect class="cls-1" x="76.33" y="79.28" width="105.85" height="2.36" transform="translate(-22.68 70.61) rotate(-28.19)"/><rect class="cls-1" x="81.22" y="92.18" width="106.11" height="2.36" transform="translate(-17.79 33.18) rotate(-13.22)"/><polygon class="cls-1" points="82.33 107.68 0 39.7 1.5 37.88 83.07 105.23 188.26 94.12 188.51 96.47 82.33 107.68"/><path class="cls-2" d="M188.39,95.3l-66.6,7A39.31,39.31,0,0,0,51.87,81L.75,38.79A106.29,106.29,0,0,1,188.39,95.3Z"/><circle class="cls-3" cx="103.22" cy="37.42" r="25.56" transform="translate(15.12 102.94) rotate(-56.56)"/></g></g></svg>