<svg xmlns="http://www.w3.org/2000/svg" viewBox="0 0 170.67 20.2"><defs><style>.cls-1{fill:#f5f5f5;}</style></defs><title>Asset 4</title><g id="Layer_2" data-name="Layer 2"><g id="illustrations"><path class="cls-1" d="M7.06.19h.72l.84,5.07H8.05l-.14-1H7l-.13,1H6.3Zm0,3.62h.78l-.4-2.68h0Z"/><path class="cls-1" d="M9.33.19h.59V1h.47v.44H9.92V4.56a.23.23,0,0,0,.08.21,1,1,0,0,0,.39,0v.47H10a.71.71,0,0,1-.54-.15.81.81,0,0,1-.12-.51V1.41H8.94V1h.39Z"/><path class="cls-1" d="M13.51.94h.54l-.61,4.32h-.7L12.13.94h.55L13,3.37l.1,1h.05l.09-1Z"/><path class="cls-1" d="M14.53,2.28a1.72,1.72,0,0,1,.29-1.14A.88.88,0,0,1,15.5.89a.75.75,0,0,1,.82.56,3.24,3.24,0,0,1,.09.85v.82H15.12V4a1.62,1.62,0,0,0,.09.7.32.32,0,0,0,.28.14.26.26,0,0,0,.26-.16,1,1,0,0,0,.07-.35V3.64h.58v.18a3.15,3.15,0,0,1-.1,1,.76.76,0,0,1-.29.4.9.9,0,0,1-.48.12,1.46,1.46,0,0,1-.47-.07.79.79,0,0,1-.27-.2,1,1,0,0,1-.18-.38,3.49,3.49,0,0,1-.08-.86Zm1.29-.11a2.88,2.88,0,0,0,0-.56.42.42,0,0,0-.09-.16.19.19,0,0,0-.18-.08.31.31,0,0,0-.33.22,1.93,1.93,0,0,0-.07.6v.53h.7Z"/><path class="cls-1" d="M18.49.89a2,2,0,0,1,0,.37v.13a.8.8,0,0,0-.74.36V5.26h-.6V.94h.6v.48A.68.68,0,0,1,18,1,.71.71,0,0,1,18.49.89Z"/><path class="cls-1" d="M19,2.3c0-.7.16-1.14.48-1.31a1,1,0,0,1,.46-.1.81.81,0,0,1,.86.54,2.71,2.71,0,0,1,.11.87V3.83A2,2,0,0,1,20.62,5a.88.88,0,0,1-.71.29.81.81,0,0,1-.86-.58,3.1,3.1,0,0,1-.1-.9Zm1.32-.12c0-.41-.06-.66-.17-.75a.36.36,0,0,0-.19-.05.28.28,0,0,0-.3.21,1.86,1.86,0,0,0-.07.59V4c0,.43.06.68.18.77a.28.28,0,0,0,.18.06h0a.27.27,0,0,0,.29-.22A1.92,1.92,0,0,0,20.27,4Z"/><path class="cls-1" d="M23,2.28a1.66,1.66,0,0,1,.3-1.14A.84.84,0,0,1,24,.89a.75.75,0,0,1,.82.56,3.24,3.24,0,0,1,.09.85v.82H23.61V4a1.62,1.62,0,0,0,.09.7.33.33,0,0,0,.29.14.25.25,0,0,0,.25-.16.84.84,0,0,0,.07-.35V3.64h.58v.18a3.15,3.15,0,0,1-.1,1,.76.76,0,0,1-.29.4.9.9,0,0,1-.48.12,1.39,1.39,0,0,1-.46-.07.75.75,0,0,1-.28-.2,1,1,0,0,1-.18-.38A3.49,3.49,0,0,1,23,3.8Zm1.29-.11a2.88,2.88,0,0,0,0-.56.6.6,0,0,0-.08-.16A.23.23,0,0,0,24,1.37a.32.32,0,0,0-.33.22,1.93,1.93,0,0,0-.07.6v.53h.7Z"/><path class="cls-1" d="M25.59,2.3c0-.7.16-1.14.48-1.31a1,1,0,0,1,.46-.1.81.81,0,0,1,.86.54,2.71,2.71,0,0,1,.11.87V3.83A2,2,0,0,1,27.26,5a.88.88,0,0,1-.71.29.81.81,0,0,1-.86-.58,3.1,3.1,0,0,1-.1-.9Zm1.32-.12c0-.41-.06-.66-.17-.75a.36.36,0,0,0-.19-.05.28.28,0,0,0-.3.21,1.86,1.86,0,0,0-.07.59V4c0,.43.06.68.18.77a.28.28,0,0,0,.18.06h0a.27.27,0,0,0,.29-.22A1.92,1.92,0,0,0,26.91,4Z"/><path class="cls-1" d="M30,4.27c0,.69-.31,1-.92,1a.83.83,0,0,1-.7-.29,1.6,1.6,0,0,1-.23-.95V3.74h.57v.32c0,.5.11.75.34.75a.32.32,0,0,0,.27-.12.83.83,0,0,0,.08-.42A1.23,1.23,0,0,0,29,3.38l-.15-.15-.16-.14a1.63,1.63,0,0,1-.56-1.19,1.07,1.07,0,0,1,.24-.76A.91.91,0,0,1,29,.89a.89.89,0,0,1,.49.12c.27.17.4.58.4,1.22v.21h-.56v-.3a1.58,1.58,0,0,0-.07-.56A.28.28,0,0,0,29,1.39a.31.31,0,0,0-.26.12.6.6,0,0,0-.09.38,1.15,1.15,0,0,0,.39.81l.31.29A1.73,1.73,0,0,1,30,4.27Z"/><path class="cls-1" d="M32,2.28a1.66,1.66,0,0,1,.29-1.14A.86.86,0,0,1,33,.89a.75.75,0,0,1,.81.56,2.82,2.82,0,0,1,.1.85v.82H32.57V4a1.62,1.62,0,0,0,.09.7.31.31,0,0,0,.28.14.27.27,0,0,0,.26-.16,1,1,0,0,0,.06-.35c0-.13,0-.24,0-.32V3.64h.57v.18a3.6,3.6,0,0,1-.09,1,.82.82,0,0,1-.29.4.94.94,0,0,1-.49.12,1.44,1.44,0,0,1-.46-.07.75.75,0,0,1-.28-.2,1.5,1.5,0,0,1-.18-.38A3.61,3.61,0,0,1,32,3.8Zm1.29-.11a2,2,0,0,0,0-.56.6.6,0,0,0-.08-.16A.23.23,0,0,0,33,1.37a.32.32,0,0,0-.33.22,2.36,2.36,0,0,0-.06.6v.53h.7Z"/><path class="cls-1" d="M34.71.19h.59V1h.47v.44H35.3V4.56a.23.23,0,0,0,.08.21,1,1,0,0,0,.39,0v.47h-.4a.68.68,0,0,1-.53-.15.74.74,0,0,1-.13-.51V1.41h-.39V1h.39Z"/><path class="cls-1" d="M37.81,2.19a1.57,1.57,0,0,1,.24-1,.91.91,0,0,1,.7-.26.82.82,0,0,1,.65.22,1.13,1.13,0,0,1,.25.7c0,.14,0,.31,0,.51V5.26h-.59V4.88a.61.61,0,0,1-.2.29.62.62,0,0,1-.39.12c-.49,0-.73-.38-.74-1.14V3.73A1,1,0,0,1,38,3.09a2.91,2.91,0,0,1,1.12-.6V2.16A1.65,1.65,0,0,0,39,1.49a.35.35,0,0,0-.28-.11.26.26,0,0,0-.26.17,2,2,0,0,0-.07.61v.15h-.58Zm1.27.69a2.92,2.92,0,0,0-.49.25.6.6,0,0,0-.18.21.93.93,0,0,0-.06.39v.4a1.34,1.34,0,0,0,.07.53.22.22,0,0,0,.22.16.4.4,0,0,0,.28-.1.49.49,0,0,0,.16-.2Z"/><path class="cls-1" d="M40.41,2.36a2.79,2.79,0,0,1,.09-.83,1,1,0,0,1,.19-.38.83.83,0,0,1,.68-.26.82.82,0,0,1,.65.22,1.18,1.18,0,0,1,.24.67c0,.13,0,.28,0,.45v.3H41.7V2.15a2.92,2.92,0,0,0,0-.53.51.51,0,0,0-.28-.23.33.33,0,0,0-.34.29,2,2,0,0,0,0,.49V4a2.13,2.13,0,0,0,.07.62.26.26,0,0,0,.26.17.32.32,0,0,0,.28-.12A1.46,1.46,0,0,0,41.7,4V3.6h.58v.28A2,2,0,0,1,42.05,5a.89.89,0,0,1-.71.27.83.83,0,0,1-.88-.81,4.58,4.58,0,0,1-.05-.7Z"/><path class="cls-1" d="M42.94,2.36A3.27,3.27,0,0,1,43,1.53a1.2,1.2,0,0,1,.2-.38A.83.83,0,0,1,43.9.89a.82.82,0,0,1,.65.22,1.18,1.18,0,0,1,.24.67c0,.13,0,.28,0,.45v.3h-.58V2.15a2.92,2.92,0,0,0,0-.53.51.51,0,0,0-.28-.23.33.33,0,0,0-.34.29,2,2,0,0,0,0,.49V4a1.83,1.83,0,0,0,.07.62.25.25,0,0,0,.26.17.32.32,0,0,0,.28-.12A1.46,1.46,0,0,0,44.23,4V3.6h.58v.28A2,2,0,0,1,44.58,5a.89.89,0,0,1-.71.27A.83.83,0,0,1,43,4.5a4.58,4.58,0,0,1-.05-.7Z"/><path class="cls-1" d="M46.88.94h.6V5.26h-.6V4.82a.7.7,0,0,1-.23.35.66.66,0,0,1-.45.14.61.61,0,0,1-.49-.23,1.12,1.12,0,0,1-.2-.72V.94h.59V4.29c0,.34.12.51.37.51a.37.37,0,0,0,.31-.14.63.63,0,0,0,.1-.38Z"/><path class="cls-1" d="M50,4.27c0,.69-.31,1-.93,1A.8.8,0,0,1,48.42,5a1.52,1.52,0,0,1-.24-.95V3.74h.58v.32q0,.75.33.75a.29.29,0,0,0,.27-.12.74.74,0,0,0,.08-.42A1.23,1.23,0,0,0,49,3.38l-.15-.15-.15-.14a1.63,1.63,0,0,1-.56-1.19,1.07,1.07,0,0,1,.24-.76.9.9,0,0,1,.69-.25.91.91,0,0,1,.49.12c.26.17.4.58.4,1.22v.21H49.4v-.3a1.58,1.58,0,0,0-.07-.56.26.26,0,0,0-.25-.19.32.32,0,0,0-.27.12.6.6,0,0,0-.09.38,1.12,1.12,0,0,0,.4.81l.31.29A1.76,1.76,0,0,1,50,4.27Z"/><path class="cls-1" d="M50.63,2.19a1.57,1.57,0,0,1,.24-1,.89.89,0,0,1,.7-.26.82.82,0,0,1,.65.22,1.13,1.13,0,0,1,.25.7c0,.14,0,.31,0,.51V5.26H51.9V4.88a.61.61,0,0,1-.2.29.65.65,0,0,1-.39.12c-.49,0-.73-.38-.74-1.14V3.73a1.06,1.06,0,0,1,.2-.64,3,3,0,0,1,1.12-.6V2.16a1.48,1.48,0,0,0-.08-.67.31.31,0,0,0-.27-.11.25.25,0,0,0-.26.17,2,2,0,0,0-.07.61v.15h-.58Zm1.26.69a3.14,3.14,0,0,0-.48.25.6.6,0,0,0-.18.21.93.93,0,0,0-.06.39v.4a1.62,1.62,0,0,0,.06.53.23.23,0,0,0,.23.16.4.4,0,0,0,.28-.1.46.46,0,0,0,.15-.2Z"/><path class="cls-1" d="M53.88,1.39A.64.64,0,0,1,54.12,1a.67.67,0,0,1,.44-.15.61.61,0,0,1,.61.44A.89.89,0,0,1,55.46,1,.81.81,0,0,1,55.9.88a.63.63,0,0,1,.52.25,1.2,1.2,0,0,1,.17.72V5.26H56V1.83c0-.29-.12-.44-.35-.44a.38.38,0,0,0-.42.4V5.26h-.59V1.83c0-.29-.11-.44-.34-.44a.4.4,0,0,0-.32.14.57.57,0,0,0-.11.36V5.26h-.59V.94h.59Z"/><path class="cls-1" d="M58.79,2.28a1.72,1.72,0,0,1,.29-1.14.88.88,0,0,1,.68-.25.76.76,0,0,1,.82.56,3.24,3.24,0,0,1,.09.85v.82H59.38V4a1.62,1.62,0,0,0,.09.7.31.31,0,0,0,.28.14A.26.26,0,0,0,60,4.66a1,1,0,0,0,.07-.35V3.64h.58v.18a3.15,3.15,0,0,1-.1,1,.76.76,0,0,1-.29.4.9.9,0,0,1-.48.12,1.46,1.46,0,0,1-.47-.07.79.79,0,0,1-.27-.2,1,1,0,0,1-.18-.38,3.49,3.49,0,0,1-.08-.86Zm1.29-.11a2.88,2.88,0,0,0,0-.56A.42.42,0,0,0,60,1.45a.19.19,0,0,0-.18-.08.31.31,0,0,0-.33.22,1.93,1.93,0,0,0-.07.6v.53h.7Z"/><path class="cls-1" d="M61.53.19h.59V1h.46v.44h-.46V4.56c0,.11,0,.18.07.21a1.12,1.12,0,0,0,.4,0v.47h-.41a.68.68,0,0,1-.53-.15.81.81,0,0,1-.12-.51V1.41h-.4V1h.4Z"/><path class="cls-1" d="M64.44,5.42h.14c.1,0,.15-.07.15-.19V.94h.59V5.2a.73.73,0,0,1-.14.49.51.51,0,0,1-.34.17h-.22a.43.43,0,0,1-.2,0V5.42ZM64.72,0h.6V.54h-.6Z"/><path class="cls-1" d="M67.51.94h.59V5.26h-.59V4.82a.79.79,0,0,1-.24.35.64.64,0,0,1-.45.14.62.62,0,0,1-.49-.23,1.12,1.12,0,0,1-.2-.72V.94h.59V4.29c0,.34.13.51.37.51a.37.37,0,0,0,.31-.14.63.63,0,0,0,.11-.38Z"/><path class="cls-1" d="M70.66,4.27c0,.69-.31,1-.92,1A.83.83,0,0,1,69,5a1.6,1.6,0,0,1-.23-.95V3.74h.57v.32c0,.5.11.75.34.75A.32.32,0,0,0,70,4.69a.83.83,0,0,0,.08-.42,1.23,1.23,0,0,0-.43-.89l-.15-.15-.16-.14a1.63,1.63,0,0,1-.56-1.19A1,1,0,0,1,69,1.14,1.05,1.05,0,0,1,70.19,1c.27.17.4.58.4,1.22v.21H70v-.3A1.58,1.58,0,0,0,70,1.58a.28.28,0,0,0-.26-.19.31.31,0,0,0-.26.12.6.6,0,0,0-.09.38,1.15,1.15,0,0,0,.39.81l.31.29A1.73,1.73,0,0,1,70.66,4.27Z"/><path class="cls-1" d="M71.36.19H72V1h.47v.44H72V4.56a.23.23,0,0,0,.08.21,1,1,0,0,0,.39,0v.47H72c-.28,0-.45,0-.53-.15a.74.74,0,0,1-.13-.51V1.41H71V1h.39Z"/><path class="cls-1" d="M73,2.3c0-.7.16-1.14.48-1.31a1,1,0,0,1,.46-.1.8.8,0,0,1,.86.54,2.68,2.68,0,0,1,.12.87V3.83A2,2,0,0,1,74.62,5a.88.88,0,0,1-.71.29.81.81,0,0,1-.86-.58,3.49,3.49,0,0,1-.1-.9Zm1.32-.12c0-.41,0-.66-.17-.75a.36.36,0,0,0-.19-.05.29.29,0,0,0-.3.21,2.2,2.2,0,0,0-.07.59V4c0,.43.06.68.18.77a.28.28,0,0,0,.18.06h0a.29.29,0,0,0,.3-.22A2.34,2.34,0,0,0,74.27,4Z"/><path class="cls-1" d="M78.35.14h.59V5.26h-.59V4.89a.58.58,0,0,1-.59.4c-.4,0-.63-.26-.7-.78a5.57,5.57,0,0,1,0-.63V2.24a1.79,1.79,0,0,1,.26-1.1.67.67,0,0,1,.57-.25.52.52,0,0,1,.29.09.64.64,0,0,1,.21.25Zm0,2.09a2,2,0,0,0-.07-.65.29.29,0,0,0-.29-.2.3.3,0,0,0-.3.2,2.18,2.18,0,0,0-.07.67V4c0,.43,0,.68.16.77a.3.3,0,0,0,.2,0,.31.31,0,0,0,.21-.07c.11-.09.16-.35.16-.77Z"/><path class="cls-1" d="M81.13.94h.6V5.26h-.6V4.82a.7.7,0,0,1-.23.35.66.66,0,0,1-.45.14A.62.62,0,0,1,80,5.08a1.12,1.12,0,0,1-.2-.72V.94h.59V4.29c0,.34.12.51.37.51A.37.37,0,0,0,81,4.66a.63.63,0,0,0,.1-.38Z"/><path class="cls-1" d="M82.5,2.3c0-.7.16-1.14.49-1.31a.93.93,0,0,1,.45-.1.8.8,0,0,1,.86.54,2.68,2.68,0,0,1,.12.87V3.83A1.9,1.9,0,0,1,84.17,5a.88.88,0,0,1-.7.29.8.8,0,0,1-.86-.58,3.05,3.05,0,0,1-.11-.9Zm1.32-.12c0-.41,0-.66-.17-.75a.36.36,0,0,0-.19-.05.29.29,0,0,0-.3.21,2.27,2.27,0,0,0-.06.59V4c0,.43.05.68.17.77a.28.28,0,0,0,.18.06h0a.29.29,0,0,0,.3-.22A2.34,2.34,0,0,0,83.82,4Z"/><path class="cls-1" d="M87.9.14h.6V5.26h-.6V4.89a.57.57,0,0,1-.59.4c-.4,0-.63-.26-.7-.78a5.78,5.78,0,0,1,0-.63V2.24a1.8,1.8,0,0,1,.25-1.1A.67.67,0,0,1,87.4.89a.53.53,0,0,1,.3.09.55.55,0,0,1,.2.25Zm0,2.09a2,2,0,0,0-.08-.65.29.29,0,0,0-.29-.2.28.28,0,0,0-.29.2,1.86,1.86,0,0,0-.08.67V4c0,.43,0,.68.17.77a.27.27,0,0,0,.19,0,.3.3,0,0,0,.21-.07c.11-.09.17-.35.17-.77Z"/><path class="cls-1" d="M89.27,2.3c0-.7.16-1.14.49-1.31a.93.93,0,0,1,.45-.1.8.8,0,0,1,.86.54,2.68,2.68,0,0,1,.12.87V3.83A1.9,1.9,0,0,1,90.94,5a.88.88,0,0,1-.7.29.8.8,0,0,1-.86-.58,3.05,3.05,0,0,1-.11-.9Zm1.32-.12c0-.41,0-.66-.17-.75a.36.36,0,0,0-.19-.05.29.29,0,0,0-.3.21,2.2,2.2,0,0,0-.07.59V4c0,.43.06.68.18.77a.28.28,0,0,0,.18.06h0a.29.29,0,0,0,.3-.22A2.34,2.34,0,0,0,90.59,4Z"/><path class="cls-1" d="M92,.14h.59V5.26H92Z"/><path class="cls-1" d="M93.34,2.3c0-.7.16-1.14.48-1.31a1,1,0,0,1,.46-.1.8.8,0,0,1,.86.54,2.68,2.68,0,0,1,.12.87V3.83A2,2,0,0,1,95,5a.88.88,0,0,1-.71.29.81.81,0,0,1-.86-.58,3.49,3.49,0,0,1-.1-.9Zm1.32-.12c0-.41-.06-.66-.17-.75a.36.36,0,0,0-.19-.05.29.29,0,0,0-.3.21,1.86,1.86,0,0,0-.07.59V4c0,.43.06.68.18.77a.28.28,0,0,0,.18.06h0a.29.29,0,0,0,.3-.22A2.34,2.34,0,0,0,94.66,4Z"/><path class="cls-1" d="M97.36.89a2,2,0,0,1,0,.37v.13a.8.8,0,0,0-.74.36V5.26H96V.94h.6v.48A.68.68,0,0,1,96.89,1,.71.71,0,0,1,97.36.89Z"/><path class="cls-1" d="M97.84,2.28a1.72,1.72,0,0,1,.29-1.14.88.88,0,0,1,.68-.25.76.76,0,0,1,.82.56,3.24,3.24,0,0,1,.09.85v.82H98.43V4a1.62,1.62,0,0,0,.09.7.31.31,0,0,0,.28.14.26.26,0,0,0,.26-.16,1,1,0,0,0,.07-.35V3.64h.58v.18a3.15,3.15,0,0,1-.1,1,.76.76,0,0,1-.29.4.9.9,0,0,1-.48.12,1.46,1.46,0,0,1-.47-.07A.71.71,0,0,1,98.1,5a1,1,0,0,1-.18-.38,3.49,3.49,0,0,1-.08-.86Zm1.29-.11a2.88,2.88,0,0,0,0-.56A.42.42,0,0,0,99,1.45a.19.19,0,0,0-.18-.08.31.31,0,0,0-.33.22,1.93,1.93,0,0,0-.07.6v.53h.7Z"/><path class="cls-1" d="M102.19,4.27c0,.69-.31,1-.92,1a.83.83,0,0,1-.7-.29,1.6,1.6,0,0,1-.23-.95V3.74h.57v.32c0,.5.11.75.34.75a.32.32,0,0,0,.27-.12.83.83,0,0,0,.08-.42,1.23,1.23,0,0,0-.43-.89L101,3.23l-.16-.14a1.63,1.63,0,0,1-.56-1.19,1,1,0,0,1,.25-.76.88.88,0,0,1,.68-.25.89.89,0,0,1,.49.12c.27.17.4.58.4,1.22v.21h-.56v-.3a1.58,1.58,0,0,0-.07-.56.27.27,0,0,0-.25-.19.32.32,0,0,0-.27.12.6.6,0,0,0-.09.38,1.15,1.15,0,0,0,.39.81l.31.29A1.73,1.73,0,0,1,102.19,4.27Z"/><path class="cls-1" d="M104.17,2.28a1.72,1.72,0,0,1,.29-1.14.88.88,0,0,1,.68-.25.75.75,0,0,1,.81.56,2.82,2.82,0,0,1,.1.85v.82h-1.29V4a1.62,1.62,0,0,0,.09.7.31.31,0,0,0,.28.14.27.27,0,0,0,.26-.16,1.36,1.36,0,0,0,.07-.35V3.64H106v.18a3.6,3.6,0,0,1-.09,1,.76.76,0,0,1-.29.4.91.91,0,0,1-.49.12,1.44,1.44,0,0,1-.46-.07.84.84,0,0,1-.28-.2,1.24,1.24,0,0,1-.17-.38,3.06,3.06,0,0,1-.08-.86Zm1.29-.11a2,2,0,0,0,0-.56.4.4,0,0,0-.08-.16.21.21,0,0,0-.19-.08.3.3,0,0,0-.32.22,1.93,1.93,0,0,0-.07.6v.53h.7Z"/><path class="cls-1" d="M106.91.19h.58V1H108v.44h-.47V4.56a.23.23,0,0,0,.08.21,1.05,1.05,0,0,0,.4,0v.47h-.41a.68.68,0,0,1-.53-.15.75.75,0,0,1-.12-.51V1.41h-.4V1h.4Z"/><path class="cls-1" d="M109.94,2.28a1.72,1.72,0,0,1,.29-1.14.88.88,0,0,1,.68-.25.75.75,0,0,1,.82.56,3.24,3.24,0,0,1,.09.85v.82h-1.29V4a1.62,1.62,0,0,0,.09.7.31.31,0,0,0,.28.14.26.26,0,0,0,.26-.16,1,1,0,0,0,.07-.35V3.64h.58v.18a3.15,3.15,0,0,1-.1,1,.76.76,0,0,1-.29.4.91.91,0,0,1-.49.12,1.44,1.44,0,0,1-.46-.07.71.71,0,0,1-.27-.2,1,1,0,0,1-.18-.38,3.49,3.49,0,0,1-.08-.86Zm1.29-.11a2.88,2.88,0,0,0,0-.56.42.42,0,0,0-.09-.16.19.19,0,0,0-.18-.08.31.31,0,0,0-.33.22,1.93,1.93,0,0,0-.07.6v.53h.7Z"/><path class="cls-1" d="M112.57,2.19a1.57,1.57,0,0,1,.24-1,.89.89,0,0,1,.7-.26.82.82,0,0,1,.65.22,1.13,1.13,0,0,1,.25.7c0,.14,0,.31,0,.51V5.26h-.59V4.88a.61.61,0,0,1-.2.29.65.65,0,0,1-.39.12c-.49,0-.73-.38-.74-1.14V3.73a1,1,0,0,1,.21-.64,2.85,2.85,0,0,1,1.11-.6V2.16a1.48,1.48,0,0,0-.08-.67.31.31,0,0,0-.27-.11.26.26,0,0,0-.26.17,2,2,0,0,0-.07.61v.15h-.58Zm1.26.69a3.14,3.14,0,0,0-.48.25.6.6,0,0,0-.18.21.93.93,0,0,0-.06.39v.4a1.62,1.62,0,0,0,.06.53.23.23,0,0,0,.23.16.4.4,0,0,0,.28-.1.46.46,0,0,0,.15-.2Z"/><path class="cls-1" d="M118,.89s0,.12,0,.37v.13a.81.81,0,0,0-.74.36V5.26h-.59V.94h.59v.48a.69.69,0,0,1,.27-.39A.71.71,0,0,1,118,.89Z"/><path class="cls-1" d="M118.49,2.28a1.66,1.66,0,0,1,.29-1.14.86.86,0,0,1,.68-.25.75.75,0,0,1,.81.56,2.86,2.86,0,0,1,.09.85v.82h-1.28V4a1.62,1.62,0,0,0,.09.7.31.31,0,0,0,.28.14.27.27,0,0,0,.26-.16,1,1,0,0,0,.06-.35c0-.13,0-.24,0-.32V3.64h.57v.18a3.6,3.6,0,0,1-.09,1,.76.76,0,0,1-.29.4.94.94,0,0,1-.49.12,1.39,1.39,0,0,1-.46-.07.75.75,0,0,1-.28-.2,1.5,1.5,0,0,1-.18-.38,3.61,3.61,0,0,1-.07-.86Zm1.29-.11a2,2,0,0,0,0-.56.6.6,0,0,0-.08-.16.23.23,0,0,0-.19-.08.32.32,0,0,0-.33.22,2.36,2.36,0,0,0-.06.6v.53h.7Z"/><path class="cls-1" d="M121.12.14h.59V1.28a.54.54,0,0,1,.2-.28.55.55,0,0,1,.34-.11.66.66,0,0,1,.69.52,3.36,3.36,0,0,1,.1.85V3.92A2.12,2.12,0,0,1,122.82,5a.6.6,0,0,1-.52.25.59.59,0,0,1-.59-.4v.37h-.59Zm1.33,2.05a2.46,2.46,0,0,0,0-.54,1.14,1.14,0,0,0-.09-.19.22.22,0,0,0-.18-.08.53.53,0,0,0-.2,0c-.16.07-.23.33-.23.78V3.94a2.07,2.07,0,0,0,.08.67.28.28,0,0,0,.3.2.28.28,0,0,0,.29-.2,2.57,2.57,0,0,0,.07-.69Z"/><path class="cls-1" d="M125.16.94h.59V5.26h-.59V4.82a.65.65,0,0,1-.24.35.64.64,0,0,1-.45.14.6.6,0,0,1-.48-.23,1.07,1.07,0,0,1-.2-.72V.94h.58V4.29c0,.34.13.51.37.51a.39.39,0,0,0,.32-.14.63.63,0,0,0,.1-.38Z"/><path class="cls-1" d="M127.18,1.39a.7.7,0,0,1,.24-.36.67.67,0,0,1,.44-.15.61.61,0,0,1,.61.44.84.84,0,0,1,.3-.32.77.77,0,0,1,.43-.12.61.61,0,0,1,.52.25,1.19,1.19,0,0,1,.18.72V5.26h-.59V1.83c0-.29-.12-.44-.35-.44a.38.38,0,0,0-.42.4V5.26H128V1.83c0-.29-.11-.44-.34-.44a.4.4,0,0,0-.32.14.57.57,0,0,0-.11.36V5.26h-.58V.94h.58Z"/><path class="cls-1" d="M130.78,4.69h.5v.57h-.5Z"/><path class="cls-1" d="M133.62,1.76a1.81,1.81,0,0,1-.05-.43,1.71,1.71,0,0,1,.2-.88.85.85,0,0,1,.78-.32.79.79,0,0,1,.87.7,5.41,5.41,0,0,1,.05.77v.3h-.57V1.56a2.4,2.4,0,0,0-.05-.65.41.41,0,0,0-.12-.22.27.27,0,0,0-.18,0,.33.33,0,0,0-.31.15.89.89,0,0,0-.1.47.91.91,0,0,0,.09.46,1.78,1.78,0,0,0,.21.27l.14.15.35.37A2.07,2.07,0,0,1,135.55,4a2,2,0,0,1-.21,1,1,1,0,0,1-1.64-.26,3.12,3.12,0,0,1-.1-.89V3.3h.57v.51a2.69,2.69,0,0,0,.08.78.31.31,0,0,0,.3.21.35.35,0,0,0,.3-.1.52.52,0,0,0,.1-.31c0-.14,0-.3,0-.47a1.38,1.38,0,0,0-.46-1l-.33-.33A2.1,2.1,0,0,1,133.62,1.76Z"/><path class="cls-1" d="M136.3.19h.59V1h.46v.44h-.46V4.56c0,.11,0,.18.07.21a1.12,1.12,0,0,0,.4,0v.47H137a.68.68,0,0,1-.53-.15.81.81,0,0,1-.12-.51V1.41h-.4V1h.4Z"/><path class="cls-1" d="M137.89,2.28a1.66,1.66,0,0,1,.29-1.14.86.86,0,0,1,.68-.25.75.75,0,0,1,.81.56,2.82,2.82,0,0,1,.1.85v.82h-1.29V4a1.62,1.62,0,0,0,.09.7.31.31,0,0,0,.28.14.27.27,0,0,0,.26-.16,1,1,0,0,0,.06-.35c0-.13,0-.24,0-.32V3.64h.58v.18a3.5,3.5,0,0,1-.1,1,.76.76,0,0,1-.29.4.91.91,0,0,1-.49.12,1.44,1.44,0,0,1-.46-.07.75.75,0,0,1-.28-.2,1.24,1.24,0,0,1-.17-.38,3.06,3.06,0,0,1-.08-.86Zm1.29-.11a2,2,0,0,0,0-.56.6.6,0,0,0-.08-.16.21.21,0,0,0-.19-.08.3.3,0,0,0-.32.22,1.93,1.93,0,0,0-.07.6v.53h.7Z"/><path class="cls-1" d="M140.62.19h.59V1h.47v.44h-.47V4.56a.23.23,0,0,0,.08.21,1,1,0,0,0,.39,0v.47h-.4a.68.68,0,0,1-.53-.15.74.74,0,0,1-.13-.51V1.41h-.39V1h.39Z"/><path class="cls-1" d="M143.66,2.36a3.27,3.27,0,0,1,.08-.83,1.21,1.21,0,0,1,.19-.38.87.87,0,0,1,.69-.26.82.82,0,0,1,.65.22,1.18,1.18,0,0,1,.24.67c0,.13,0,.28,0,.45v.3H145V2.15a2.92,2.92,0,0,0,0-.53.51.51,0,0,0-.28-.23.33.33,0,0,0-.34.29,2,2,0,0,0-.05.49V4a1.83,1.83,0,0,0,.07.62.25.25,0,0,0,.26.17.32.32,0,0,0,.28-.12A1.46,1.46,0,0,0,145,4V3.6h.58v.28A2,2,0,0,1,145.3,5a.89.89,0,0,1-.71.27.83.83,0,0,1-.88-.81,3.58,3.58,0,0,1-.05-.7Z"/><path class="cls-1" d="M146.26.14h.59V5.26h-.59Z"/><path class="cls-1" d="M147.7,0h.6V.54h-.6Zm0,.94h.59V5.26h-.59Z"/><path class="cls-1" d="M149.24.19h.59V1h.47v.44h-.47V4.56a.23.23,0,0,0,.08.21,1,1,0,0,0,.39,0v.47h-.4a.68.68,0,0,1-.53-.15.74.74,0,0,1-.13-.51V1.41h-.39V1h.39Z"/><path class="cls-1" d="M150.89,2.19a1.56,1.56,0,0,1,.25-1,.87.87,0,0,1,.69-.26.85.85,0,0,1,.66.22,1.2,1.2,0,0,1,.25.7c0,.14,0,.31,0,.51V5.26h-.59V4.88a.64.64,0,0,1-.21.29.6.6,0,0,1-.38.12c-.49,0-.73-.38-.74-1.14V3.73a1.06,1.06,0,0,1,.2-.64,3,3,0,0,1,1.12-.6V2.16a1.48,1.48,0,0,0-.08-.67.31.31,0,0,0-.27-.11.25.25,0,0,0-.26.17,1.72,1.72,0,0,0-.07.61v.15h-.59Zm1.27.69a3.14,3.14,0,0,0-.48.25.6.6,0,0,0-.18.21.77.77,0,0,0-.07.39v.4a1.55,1.55,0,0,0,.07.53.23.23,0,0,0,.23.16.38.38,0,0,0,.27-.1.49.49,0,0,0,.16-.2Z"/><path class="cls-1" d="M155,.14h.59V3l.85-2.05H157l-.91,2.13,1,2.19h-.61l-.88-2.1v2.1H155Z"/><path class="cls-1" d="M157.49,2.19a1.57,1.57,0,0,1,.24-1,.91.91,0,0,1,.7-.26.82.82,0,0,1,.65.22,1.13,1.13,0,0,1,.25.7,3.86,3.86,0,0,1,0,.51V5.26h-.59V4.88a.55.55,0,0,1-.2.29.6.6,0,0,1-.38.12c-.49,0-.74-.38-.74-1.14V3.73a1,1,0,0,1,.2-.64,2.91,2.91,0,0,1,1.12-.6V2.16a1.65,1.65,0,0,0-.08-.67.33.33,0,0,0-.28-.11.26.26,0,0,0-.26.17,2.09,2.09,0,0,0-.06.61v.15h-.59Zm1.27.69a3.14,3.14,0,0,0-.48.25.54.54,0,0,0-.19.21.93.93,0,0,0-.06.39v.4a1.34,1.34,0,0,0,.07.53.22.22,0,0,0,.22.16.4.4,0,0,0,.28-.1.49.49,0,0,0,.16-.2Z"/><path class="cls-1" d="M161.88,4.27c0,.69-.31,1-.92,1a.81.81,0,0,1-.7-.29,1.52,1.52,0,0,1-.24-.95V3.74h.58v.32c0,.5.11.75.34.75a.32.32,0,0,0,.27-.12.83.83,0,0,0,.08-.42,1.27,1.27,0,0,0-.43-.89,2,2,0,0,1-.15-.15l-.16-.14A1.63,1.63,0,0,1,160,1.9a1.07,1.07,0,0,1,.24-.76.9.9,0,0,1,.69-.25.91.91,0,0,1,.49.12c.26.17.4.58.4,1.22v.21h-.56v-.3a1.54,1.54,0,0,0-.08-.56.26.26,0,0,0-.25-.19.32.32,0,0,0-.27.12.61.61,0,0,0-.08.38,1.15,1.15,0,0,0,.39.81l.31.29A1.73,1.73,0,0,1,161.88,4.27Z"/><path class="cls-1" d="M163.73.14h.6V5.26h-.6V4.89a.57.57,0,0,1-.59.4c-.4,0-.63-.26-.7-.78a5.78,5.78,0,0,1,0-.63V2.24a1.8,1.8,0,0,1,.25-1.1.67.67,0,0,1,.57-.25.53.53,0,0,1,.3.09.55.55,0,0,1,.2.25Zm0,2.09a2,2,0,0,0-.08-.65.29.29,0,0,0-.29-.2.28.28,0,0,0-.29.2,2.12,2.12,0,0,0-.08.67V4c0,.43.06.68.17.77a.27.27,0,0,0,.19,0,.28.28,0,0,0,.21-.07c.11-.09.17-.35.17-.77Z"/><path class="cls-1" d="M3.74,8a.5.5,0,0,1,.53.37V8h.59v3.92a.92.92,0,0,1-.58,1,1.16,1.16,0,0,1-.47.08,1.32,1.32,0,0,1-.87-.28l.21-.4a1.17,1.17,0,0,0,.66.21.41.41,0,0,0,.35-.14.68.68,0,0,0,.11-.4v-.41a.46.46,0,0,1-.22.28.72.72,0,0,1-.35.08.58.58,0,0,1-.59-.37,2.41,2.41,0,0,1-.16-1V9.34C3,8.42,3.21,8,3.74,8Zm.53,1.3a1.85,1.85,0,0,0-.08-.62.28.28,0,0,0-.26-.19.31.31,0,0,0-.27.11.63.63,0,0,0-.1.28,2.43,2.43,0,0,0,0,.41V10.6a2.09,2.09,0,0,0,.08.66.32.32,0,0,0,.31.2.24.24,0,0,0,.19-.07c.1-.09.15-.36.15-.8Z"/><path class="cls-1" d="M7,8h.59v4.32H7v-.44a.76.76,0,0,1-.24.36.69.69,0,0,1-.45.14.63.63,0,0,1-.49-.24,1.09,1.09,0,0,1-.2-.72V8h.59v3.36c0,.34.12.51.37.51a.35.35,0,0,0,.31-.15A.61.61,0,0,0,7,11.35Z"/><path class="cls-1" d="M8.47,7.21h.59V8.36a.53.53,0,0,1,.2-.29A.62.62,0,0,1,9.6,8a.67.67,0,0,1,.69.53,3.3,3.3,0,0,1,.1.85V11a2.1,2.1,0,0,1-.22,1.11.6.6,0,0,1-.52.26.59.59,0,0,1-.59-.4v.36H8.47ZM9.8,9.26a2.46,2.46,0,0,0,0-.54,1.72,1.72,0,0,0-.09-.19.22.22,0,0,0-.19-.07.5.5,0,0,0-.19,0c-.15.06-.23.32-.23.77V11a2.15,2.15,0,0,0,.08.68.3.3,0,0,0,.3.2.29.29,0,0,0,.29-.2A2.68,2.68,0,0,0,9.8,11Z"/><path class="cls-1" d="M11.1,9.35a1.76,1.76,0,0,1,.29-1.14A.9.9,0,0,1,12.07,8a.77.77,0,0,1,.82.56,3.27,3.27,0,0,1,.09.86v.81H11.69v.86a1.59,1.59,0,0,0,.09.7.31.31,0,0,0,.28.14.25.25,0,0,0,.26-.16,1.28,1.28,0,0,0,.07-.35v-.67H13v.19a3.36,3.36,0,0,1-.1,1,.74.74,0,0,1-.29.4.91.91,0,0,1-.49.12,1.2,1.2,0,0,1-.46-.07.73.73,0,0,1-.28-.19,1.44,1.44,0,0,1-.18-.39,3.51,3.51,0,0,1-.07-.85Zm1.29-.11a1.88,1.88,0,0,0,0-.55.67.67,0,0,0-.08-.17.21.21,0,0,0-.19-.07.29.29,0,0,0-.32.21,2,2,0,0,0-.07.6v.53h.7Z"/><path class="cls-1" d="M15.06,8s0,.13,0,.37v.13a.81.81,0,0,0-.74.36v3.51h-.59V8h.59v.48a.69.69,0,0,1,.27-.39A.77.77,0,0,1,15.06,8Z"/><path class="cls-1" d="M16.3,8a.5.5,0,0,1,.53.37V8h.59v3.92a.93.93,0,0,1-.58,1,1.16,1.16,0,0,1-.47.08,1.32,1.32,0,0,1-.87-.28l.21-.4a1.17,1.17,0,0,0,.66.21.41.41,0,0,0,.35-.14.68.68,0,0,0,.11-.4v-.41a.5.5,0,0,1-.22.28.72.72,0,0,1-.35.08.6.6,0,0,1-.6-.37,2.6,2.6,0,0,1-.16-1V9.34C15.5,8.42,15.77,8,16.3,8Zm.53,1.3a1.85,1.85,0,0,0-.08-.62.28.28,0,0,0-.26-.19.31.31,0,0,0-.27.11.53.53,0,0,0-.1.28,2.43,2.43,0,0,0,0,.41V10.6a1.83,1.83,0,0,0,.08.66.31.31,0,0,0,.31.2.24.24,0,0,0,.19-.07c.1-.09.15-.36.15-.8Z"/><path class="cls-1" d="M19.57,8a2.12,2.12,0,0,1,0,.37v.13a.81.81,0,0,0-.74.36v3.51h-.59V8h.59v.48a.73.73,0,0,1,.26-.39A.79.79,0,0,1,19.57,8Z"/><path class="cls-1" d="M20.05,9.35a1.76,1.76,0,0,1,.29-1.14A.91.91,0,0,1,21,8a.76.76,0,0,1,.82.56,3.27,3.27,0,0,1,.09.86v.81H20.64v.86a1.59,1.59,0,0,0,.09.7.32.32,0,0,0,.28.14.25.25,0,0,0,.26-.16,1,1,0,0,0,.07-.35v-.67h.58v.19a3,3,0,0,1-.1,1,.69.69,0,0,1-.29.4.9.9,0,0,1-.48.12,1.23,1.23,0,0,1-.47-.07.77.77,0,0,1-.27-.19,1,1,0,0,1-.18-.39,3.4,3.4,0,0,1-.08-.85Zm1.29-.11a2.67,2.67,0,0,0,0-.55.46.46,0,0,0-.09-.17s-.09-.07-.18-.07a.31.31,0,0,0-.33.21,2,2,0,0,0-.07.6v.53h.7Z"/><path class="cls-1" d="M23.27,8.47a.7.7,0,0,1,.26-.36A.74.74,0,0,1,24,8a.58.58,0,0,1,.47.23,1.15,1.15,0,0,1,.18.7v3.44h-.59V8.89a.54.54,0,0,0-.1-.33.38.38,0,0,0-.28-.11.42.42,0,0,0-.3.13.5.5,0,0,0-.12.37v3.38h-.59V8h.59Z"/><path class="cls-1" d="M25.39,11.66h.74v.65l-.29,1h-.3l.21-1h-.36Z"/><path class="cls-1" d="M28.84,8.47a.63.63,0,0,1,.25-.36A.76.76,0,0,1,29.57,8a.58.58,0,0,1,.47.23,1.15,1.15,0,0,1,.18.7v3.44h-.59V8.89a.48.48,0,0,0-.1-.33.38.38,0,0,0-.28-.11.42.42,0,0,0-.3.13.54.54,0,0,0-.11.37v3.38h-.59V8h.59Z"/><path class="cls-1" d="M31,9.38c0-.71.16-1.14.48-1.32a1.08,1.08,0,0,1,.46-.1.81.81,0,0,1,.86.54,2.74,2.74,0,0,1,.11.88V10.9a2,2,0,0,1-.24,1.2.88.88,0,0,1-.71.28.81.81,0,0,1-.86-.57,3.13,3.13,0,0,1-.1-.91Zm1.32-.12c0-.41-.06-.66-.17-.75a.29.29,0,0,0-.19-.06.28.28,0,0,0-.3.21,1.89,1.89,0,0,0-.07.6v1.81c0,.42.06.68.18.77a.35.35,0,0,0,.18.05h0a.27.27,0,0,0,.29-.21,2,2,0,0,0,.07-.61Z"/><path class="cls-1" d="M36.83,11.34q0,1-.93,1.05a.81.81,0,0,1-.69-.3,1.51,1.51,0,0,1-.24-.95v-.33h.58v.33q0,.75.33.75a.3.3,0,0,0,.27-.13.73.73,0,0,0,.09-.42,1.25,1.25,0,0,0-.44-.89l-.15-.14-.15-.15A1.63,1.63,0,0,1,34.94,9a1.09,1.09,0,0,1,.24-.77A.9.9,0,0,1,35.87,8a.83.83,0,0,1,.49.13c.26.17.4.57.4,1.22v.21h-.57v-.3a1.65,1.65,0,0,0-.07-.57.25.25,0,0,0-.25-.18.31.31,0,0,0-.27.11.6.6,0,0,0-.09.38,1.16,1.16,0,0,0,.4.81l.31.29A1.78,1.78,0,0,1,36.83,11.34Z"/><path class="cls-1" d="M37.36,9.35a1.7,1.7,0,0,1,.29-1.14A.9.9,0,0,1,38.33,8a.76.76,0,0,1,.81.56,2.85,2.85,0,0,1,.1.86v.81H38v.86a1.59,1.59,0,0,0,.09.7.31.31,0,0,0,.28.14.25.25,0,0,0,.26-.16,1,1,0,0,0,.06-.35c0-.13,0-.23,0-.32v-.35h.57v.19a3.46,3.46,0,0,1-.09,1,.74.74,0,0,1-.29.4.94.94,0,0,1-.49.12,1.2,1.2,0,0,1-.46-.07.73.73,0,0,1-.28-.19,1.44,1.44,0,0,1-.18-.39,3.51,3.51,0,0,1-.07-.85Zm1.29-.11a1.88,1.88,0,0,0,0-.55.67.67,0,0,0-.08-.17.22.22,0,0,0-.19-.07.29.29,0,0,0-.32.21,2,2,0,0,0-.07.6v.53h.7Z"/><path class="cls-1" d="M40,9.26a1.53,1.53,0,0,1,.25-1A.9.9,0,0,1,40.92,8a.86.86,0,0,1,.66.22,1.23,1.23,0,0,1,.25.7c0,.14,0,.31,0,.51v2.94h-.6V12a.53.53,0,0,1-.2.28.55.55,0,0,1-.38.13c-.49,0-.74-.38-.74-1.15V10.8a1,1,0,0,1,.2-.63,2.73,2.73,0,0,1,1.12-.6V9.23a1.55,1.55,0,0,0-.08-.66.29.29,0,0,0-.27-.12.25.25,0,0,0-.26.17,1.79,1.79,0,0,0-.07.62v.15H40Zm1.27.69a3.14,3.14,0,0,0-.48.25.6.6,0,0,0-.18.21.79.79,0,0,0-.07.4v.4a1.6,1.6,0,0,0,.07.53.23.23,0,0,0,.23.15.42.42,0,0,0,.27-.09.46.46,0,0,0,.16-.21Z"/><path class="cls-1" d="M44.2,7.26h.59v.79h.47v.44h-.47v3.15a.23.23,0,0,0,.08.21,1.29,1.29,0,0,0,.39,0v.47h-.4a.71.71,0,0,1-.54-.15.84.84,0,0,1-.12-.52V8.49h-.39V8.05h.39Z"/><path class="cls-1" d="M45.85,9.26a1.59,1.59,0,0,1,.24-1,.94.94,0,0,1,.7-.26.82.82,0,0,1,.65.22,1.16,1.16,0,0,1,.25.7,3.86,3.86,0,0,1,0,.51v2.94h-.59V12a.59.59,0,0,1-.2.28.55.55,0,0,1-.38.13c-.49,0-.74-.38-.74-1.15V10.8a1,1,0,0,1,.2-.63,2.66,2.66,0,0,1,1.12-.6V9.23A1.55,1.55,0,0,0,47,8.57a.32.32,0,0,0-.28-.12.26.26,0,0,0-.26.17,2.17,2.17,0,0,0-.06.62v.15h-.59Zm1.27.69a3.14,3.14,0,0,0-.48.25.63.63,0,0,0-.19.21,1,1,0,0,0-.06.4v.4a1.37,1.37,0,0,0,.07.53.22.22,0,0,0,.22.15A.45.45,0,0,0,47,11.8a.46.46,0,0,0,.16-.21Z"/><path class="cls-1" d="M48.52,7.21h.59v2.86L50,8h.59l-.91,2.14,1,2.18H50l-.88-2.1v2.1h-.59Z"/><path class="cls-1" d="M51,7.08h.59v.54H51ZM51,8h.59v4.32H51Z"/><path class="cls-1" d="M53,8.46a.68.68,0,0,1,.68-.5.6.6,0,0,1,.61.44.82.82,0,0,1,.29-.32A.81.81,0,0,1,55.06,8a.62.62,0,0,1,.52.24,1.32,1.32,0,0,1,.17.72v3.41h-.59V8.91c0-.3-.11-.44-.34-.44a.38.38,0,0,0-.42.4v3.46h-.59V8.9c0-.29-.12-.43-.34-.43a.39.39,0,0,0-.32.13A.58.58,0,0,0,53,9v3.36h-.59V8H53Z"/><path class="cls-1" d="M56.56,9.26a1.58,1.58,0,0,1,.25-1A.9.9,0,0,1,57.5,8a.85.85,0,0,1,.66.22,1.23,1.23,0,0,1,.25.7c0,.14,0,.31,0,.51v2.94h-.6V12a.53.53,0,0,1-.2.28.55.55,0,0,1-.38.13c-.49,0-.74-.38-.74-1.15V10.8a1,1,0,0,1,.2-.63,2.73,2.73,0,0,1,1.12-.6V9.23a1.4,1.4,0,0,0-.08-.66.29.29,0,0,0-.27-.12.25.25,0,0,0-.26.17,1.79,1.79,0,0,0-.07.62v.15h-.59Zm1.27.69a3.14,3.14,0,0,0-.48.25.6.6,0,0,0-.18.21.92.92,0,0,0-.07.4v.4a1.6,1.6,0,0,0,.07.53.23.23,0,0,0,.23.15.4.4,0,0,0,.27-.09.46.46,0,0,0,.16-.21Z"/><path class="cls-1" d="M59.34,7.26h.58v.79h.47v.44h-.47v3.15a.23.23,0,0,0,.08.21,1.33,1.33,0,0,0,.4,0v.47H60a.68.68,0,0,1-.53-.15.84.84,0,0,1-.12-.52V8.49h-.4V8.05h.4Z"/><path class="cls-1" d="M61,9.26a1.59,1.59,0,0,1,.24-1,.91.91,0,0,1,.7-.26.84.84,0,0,1,.65.22,1.23,1.23,0,0,1,.25.7c0,.14,0,.31,0,.51v2.94h-.59V12a.66.66,0,0,1-.2.28.59.59,0,0,1-.39.13c-.49,0-.73-.38-.74-1.15V10.8a1,1,0,0,1,.2-.63,2.73,2.73,0,0,1,1.12-.6V9.23a1.4,1.4,0,0,0-.08-.66.29.29,0,0,0-.27-.12.25.25,0,0,0-.26.17,1.79,1.79,0,0,0-.07.62v.15H61Zm1.26.69a3.14,3.14,0,0,0-.48.25.6.6,0,0,0-.18.21,1,1,0,0,0-.06.4v.4a1.66,1.66,0,0,0,.06.53.24.24,0,0,0,.23.15.45.45,0,0,0,.28-.09.51.51,0,0,0,.15-.21Z"/><path class="cls-1" d="M66.82,11.34c0,.7-.31,1.05-.93,1.05a.81.81,0,0,1-.69-.3,1.51,1.51,0,0,1-.24-.95v-.33h.57v.33c0,.5.12.75.34.75a.3.3,0,0,0,.27-.13.74.74,0,0,0,.08-.42,1.23,1.23,0,0,0-.43-.89l-.15-.14-.15-.15A1.63,1.63,0,0,1,64.93,9a1.09,1.09,0,0,1,.24-.77A.9.9,0,0,1,65.86,8a.83.83,0,0,1,.49.13c.26.17.4.57.4,1.22v.21h-.57v-.3a1.65,1.65,0,0,0-.07-.57.25.25,0,0,0-.25-.18.31.31,0,0,0-.27.11A.6.6,0,0,0,65.5,9a1.12,1.12,0,0,0,.4.81l.31.29A1.78,1.78,0,0,1,66.82,11.34Z"/><path class="cls-1" d="M67.41,9.26a1.59,1.59,0,0,1,.24-1,.93.93,0,0,1,.7-.26.82.82,0,0,1,.65.22,1.16,1.16,0,0,1,.25.7c0,.14,0,.31,0,.51v2.94h-.59V12a.59.59,0,0,1-.2.28.59.59,0,0,1-.39.13c-.49,0-.73-.38-.74-1.15V10.8a1,1,0,0,1,.21-.63,2.6,2.6,0,0,1,1.11-.6V9.23a1.4,1.4,0,0,0-.08-.66.29.29,0,0,0-.27-.12.25.25,0,0,0-.26.17,2.08,2.08,0,0,0-.07.62v.15h-.58Zm1.26.69a3.14,3.14,0,0,0-.48.25.6.6,0,0,0-.18.21,1,1,0,0,0-.06.4v.4a1.66,1.66,0,0,0,.06.53.24.24,0,0,0,.23.15.45.45,0,0,0,.28-.09.43.43,0,0,0,.15-.21Z"/><path class="cls-1" d="M70.66,8.47a.7.7,0,0,1,.26-.36A.74.74,0,0,1,71.4,8a.58.58,0,0,1,.47.23,1.15,1.15,0,0,1,.18.7v3.44h-.59V8.89a.54.54,0,0,0-.1-.33.38.38,0,0,0-.28-.11.42.42,0,0,0-.3.13.5.5,0,0,0-.12.37v3.38h-.59V8h.59Z"/><path class="cls-1" d="M72.8,9.43a2.74,2.74,0,0,1,.08-.82,1.11,1.11,0,0,1,.19-.38A.87.87,0,0,1,73.76,8a.84.84,0,0,1,.65.23,1.15,1.15,0,0,1,.24.66c0,.13,0,.28,0,.46v.3h-.58V9.23a2.85,2.85,0,0,0,0-.53.51.51,0,0,0-.28-.23.33.33,0,0,0-.35.28,2.13,2.13,0,0,0,0,.49v1.84a1.79,1.79,0,0,0,.07.62.25.25,0,0,0,.26.18.34.34,0,0,0,.28-.13,1.4,1.4,0,0,0,.09-.66v-.42h.58V11a1.89,1.89,0,0,1-.24,1.16.88.88,0,0,1-.71.27.83.83,0,0,1-.88-.8,5,5,0,0,1,0-.71Z"/><path class="cls-1" d="M75.5,7.26h.58v.79h.47v.44h-.47v3.15a.23.23,0,0,0,.08.21,1.38,1.38,0,0,0,.4,0v.47h-.41a.68.68,0,0,1-.53-.15.84.84,0,0,1-.12-.52V8.49h-.4V8.05h.4Z"/><path class="cls-1" d="M78.5,8h.59v4.32H78.5v-.44a.76.76,0,0,1-.24.36.69.69,0,0,1-.45.14.6.6,0,0,1-.48-.24,1,1,0,0,1-.21-.72V8h.59v3.36c0,.34.13.51.37.51a.35.35,0,0,0,.31-.15.61.61,0,0,0,.11-.38Z"/><path class="cls-1" d="M81.65,11.34c0,.7-.31,1.05-.92,1.05a.84.84,0,0,1-.7-.3,1.58,1.58,0,0,1-.23-.95v-.33h.57v.33c0,.5.11.75.34.75a.32.32,0,0,0,.27-.13.83.83,0,0,0,.08-.42,1.23,1.23,0,0,0-.43-.89l-.15-.14a2,2,0,0,1-.15-.15A1.59,1.59,0,0,1,79.77,9,1.09,1.09,0,0,1,80,8.21.89.89,0,0,1,80.69,8a.81.81,0,0,1,.49.13c.27.17.4.57.4,1.22v.21H81v-.3A1.65,1.65,0,0,0,81,8.65a.26.26,0,0,0-.25-.18.31.31,0,0,0-.27.11.6.6,0,0,0-.09.38,1.15,1.15,0,0,0,.39.81l.31.29A1.74,1.74,0,0,1,81.65,11.34Z"/><path class="cls-1" d="M83.63,9.35a1.76,1.76,0,0,1,.29-1.14A.9.9,0,0,1,84.6,8a.77.77,0,0,1,.82.56,3.27,3.27,0,0,1,.09.86v.81H84.22v.86a1.59,1.59,0,0,0,.09.7.31.31,0,0,0,.28.14.25.25,0,0,0,.26-.16,1.28,1.28,0,0,0,.07-.35v-.67h.58v.19a3.36,3.36,0,0,1-.1,1,.69.69,0,0,1-.29.4.91.91,0,0,1-.49.12,1.2,1.2,0,0,1-.46-.07.82.82,0,0,1-.28-.19,1.21,1.21,0,0,1-.17-.39,3,3,0,0,1-.08-.85Zm1.29-.11a2.67,2.67,0,0,0,0-.55.68.68,0,0,0-.09-.17.21.21,0,0,0-.19-.07.29.29,0,0,0-.32.21,2,2,0,0,0-.07.6v.53h.7Z"/><path class="cls-1" d="M88,11.34c0,.7-.31,1.05-.92,1.05a.83.83,0,0,1-.7-.3,1.51,1.51,0,0,1-.23-.95v-.33h.57v.33c0,.5.11.75.34.75a.32.32,0,0,0,.27-.13.83.83,0,0,0,.08-.42,1.23,1.23,0,0,0-.43-.89l-.15-.14-.16-.15A1.63,1.63,0,0,1,86.09,9a1.09,1.09,0,0,1,.24-.77A.9.9,0,0,1,87,8a.81.81,0,0,1,.49.13c.27.17.4.57.4,1.22v.21h-.56v-.3a1.61,1.61,0,0,0-.08-.57A.25.25,0,0,0,87,8.47a.29.29,0,0,0-.26.11.6.6,0,0,0-.09.38,1.15,1.15,0,0,0,.39.81l.31.29A1.74,1.74,0,0,1,88,11.34Z"/><path class="cls-1" d="M88.68,7.26h.59v.79h.46v.44h-.46v3.15a.23.23,0,0,0,.08.21,1.29,1.29,0,0,0,.39,0v.47h-.41a.7.7,0,0,1-.53-.15.84.84,0,0,1-.12-.52V8.49h-.4V8.05h.4Z"/><path class="cls-1" d="M91.77,7.26h.6v4.58h.93v.49H91.77Z"/><path class="cls-1" d="M93.76,9.38c0-.71.16-1.14.49-1.32A1.06,1.06,0,0,1,94.7,8a.8.8,0,0,1,.86.54,2.71,2.71,0,0,1,.12.88V10.9a1.93,1.93,0,0,1-.25,1.2.88.88,0,0,1-.71.28.81.81,0,0,1-.86-.57,3.52,3.52,0,0,1-.1-.91Zm1.32-.12c0-.41-.06-.66-.17-.75a.29.29,0,0,0-.19-.06.29.29,0,0,0-.3.21,2.23,2.23,0,0,0-.07.6v1.81c0,.42.06.68.18.77a.35.35,0,0,0,.18.05h0a.29.29,0,0,0,.3-.21,2.44,2.44,0,0,0,.06-.61Z"/><path class="cls-1" d="M97.78,8a2.12,2.12,0,0,1,0,.37v.13a.8.8,0,0,0-.74.36v3.51h-.59V8h.59v.48a.68.68,0,0,1,.26-.39A.79.79,0,0,1,97.78,8Z"/><path class="cls-1" d="M98.26,9.35a1.76,1.76,0,0,1,.29-1.14A.91.91,0,0,1,99.23,8a.76.76,0,0,1,.82.56,3.27,3.27,0,0,1,.09.86v.81H98.85v.86a1.59,1.59,0,0,0,.09.7.32.32,0,0,0,.28.14.25.25,0,0,0,.26-.16,1,1,0,0,0,.07-.35v-.67h.58v.19a3,3,0,0,1-.1,1,.69.69,0,0,1-.29.4.9.9,0,0,1-.48.12,1.23,1.23,0,0,1-.47-.07.77.77,0,0,1-.27-.19,1,1,0,0,1-.18-.39,3.4,3.4,0,0,1-.08-.85Zm1.29-.11a2.67,2.67,0,0,0,0-.55.46.46,0,0,0-.09-.17s-.09-.07-.18-.07a.31.31,0,0,0-.33.21,2,2,0,0,0-.07.6v.53h.7Z"/><path class="cls-1" d="M101.48,8.46a.72.72,0,0,1,.24-.36.7.7,0,0,1,.44-.14.58.58,0,0,1,.6.44.93.93,0,0,1,.3-.32A.81.81,0,0,1,103.5,8a.62.62,0,0,1,.52.24,1.24,1.24,0,0,1,.17.72v3.41h-.59V8.91c0-.3-.11-.44-.34-.44a.38.38,0,0,0-.42.4v3.46h-.59V8.9c0-.29-.12-.43-.34-.43a.39.39,0,0,0-.32.13.58.58,0,0,0-.11.37v3.36h-.59V8h.59Z"/><path class="cls-1" d="M106.46,7.08h.6v.54h-.6Zm0,.93h.59v4.32h-.59Z"/><path class="cls-1" d="M108.49,8.37a.62.62,0,0,1,.25-.3.69.69,0,0,1,.34-.09.63.63,0,0,1,.66.53,4,4,0,0,1,.08.86v1.56a2.09,2.09,0,0,1-.22,1.16.71.71,0,0,1-.61.29.52.52,0,0,1-.29-.09.72.72,0,0,1-.21-.25v1.08h-.59V8h.59Zm.74.89V9.05a.92.92,0,0,0,0-.33,1.44,1.44,0,0,0-.07-.16.26.26,0,0,0-.22-.1.34.34,0,0,0-.22,0c-.13.08-.19.33-.19.75V11a2,2,0,0,0,.08.66.3.3,0,0,0,.3.2.29.29,0,0,0,.29-.2,2.22,2.22,0,0,0,.07-.68Z"/><path class="cls-1" d="M112.32,11.34q0,1-.93,1.05a.81.81,0,0,1-.69-.3,1.51,1.51,0,0,1-.24-.95v-.33H111v.33c0,.5.11.75.34.75a.29.29,0,0,0,.26-.13.74.74,0,0,0,.08-.42,1.26,1.26,0,0,0-.42-.89l-.15-.14c-.08-.08-.14-.12-.16-.15A1.63,1.63,0,0,1,110.43,9a1.09,1.09,0,0,1,.24-.77.9.9,0,0,1,.69-.25.83.83,0,0,1,.49.13c.26.17.4.57.4,1.22v.21h-.56v-.3a1.61,1.61,0,0,0-.08-.57.25.25,0,0,0-.25-.18.31.31,0,0,0-.27.11A.6.6,0,0,0,111,9a1.16,1.16,0,0,0,.4.81l.31.29A1.74,1.74,0,0,1,112.32,11.34Z"/><path class="cls-1" d="M114.26,8h.59v4.32h-.59v-.44a.7.7,0,0,1-.24.36.69.69,0,0,1-.45.14.6.6,0,0,1-.48-.24,1,1,0,0,1-.21-.72V8h.59v3.36c0,.34.13.51.37.51a.35.35,0,0,0,.31-.15.61.61,0,0,0,.11-.38Z"/><path class="cls-1" d="M116.28,8.46A.67.67,0,0,1,117,8a.58.58,0,0,1,.61.44.93.93,0,0,1,.3-.32A.81.81,0,0,1,118.3,8a.62.62,0,0,1,.52.24,1.24,1.24,0,0,1,.17.72v3.41h-.59V8.91c0-.3-.11-.44-.34-.44a.38.38,0,0,0-.42.4v3.46h-.59V8.9c0-.29-.12-.43-.34-.43a.39.39,0,0,0-.32.13.58.58,0,0,0-.11.37v3.36h-.59V8h.59Z"/><path class="cls-1" d="M122.52,7.21h.59v5.12h-.59V12a.59.59,0,0,1-.6.4c-.39,0-.63-.26-.69-.79a3.77,3.77,0,0,1,0-.63V9.32a1.86,1.86,0,0,1,.25-1.11A.73.73,0,0,1,122,8a.47.47,0,0,1,.3.1.61.61,0,0,1,.21.24Zm0,2.1a2.11,2.11,0,0,0-.07-.66.3.3,0,0,0-.3-.19.28.28,0,0,0-.29.2,2,2,0,0,0-.08.66v1.75c0,.42.06.68.17.76a.29.29,0,0,0,.19.06.28.28,0,0,0,.21-.07,1.16,1.16,0,0,0,.17-.78Z"/><path class="cls-1" d="M123.89,9.38c0-.71.16-1.14.48-1.32a1.06,1.06,0,0,1,.45-.1.82.82,0,0,1,.87.54,3,3,0,0,1,.11.88V10.9a2,2,0,0,1-.24,1.2.89.89,0,0,1-.71.28.8.8,0,0,1-.86-.57,3.13,3.13,0,0,1-.1-.91Zm1.32-.12q0-.62-.18-.75a.26.26,0,0,0-.18-.06.28.28,0,0,0-.3.21,1.89,1.89,0,0,0-.07.6v1.81c0,.42.06.68.18.77a.29.29,0,0,0,.17.05h0a.27.27,0,0,0,.29-.21,2,2,0,0,0,.07-.61Z"/><path class="cls-1" d="M126.58,7.21h.59v5.12h-.59Z"/><path class="cls-1" d="M128,9.38c0-.71.16-1.14.49-1.32a1.06,1.06,0,0,1,.45-.1.8.8,0,0,1,.86.54,2.71,2.71,0,0,1,.12.88V10.9a1.93,1.93,0,0,1-.25,1.2.87.87,0,0,1-.7.28.8.8,0,0,1-.86-.57,3.08,3.08,0,0,1-.11-.91Zm1.33-.12q0-.62-.18-.75a.29.29,0,0,0-.19-.06.29.29,0,0,0-.3.21,2.3,2.3,0,0,0-.06.6v1.81c0,.42,0,.68.17.77a.35.35,0,0,0,.18.05h0a.28.28,0,0,0,.3-.21,2.37,2.37,0,0,0,.07-.61Z"/><path class="cls-1" d="M132,8a1.53,1.53,0,0,1,0,.37v.13a.81.81,0,0,0-.74.36v3.51h-.59V8h.59v.48a.73.73,0,0,1,.26-.39A.79.79,0,0,1,132,8Z"/><path class="cls-1" d="M135.68,11.34c0,.7-.31,1.05-.92,1.05a.84.84,0,0,1-.7-.3,1.58,1.58,0,0,1-.23-.95v-.33h.57v.33c0,.5.12.75.34.75a.32.32,0,0,0,.27-.13.83.83,0,0,0,.08-.42,1.23,1.23,0,0,0-.43-.89l-.15-.14a2,2,0,0,1-.15-.15A1.59,1.59,0,0,1,133.8,9a1.09,1.09,0,0,1,.24-.77.89.89,0,0,1,.68-.25.79.79,0,0,1,.49.13c.27.17.4.57.4,1.22v.21h-.56v-.3a1.65,1.65,0,0,0-.07-.57.26.26,0,0,0-.25-.18.31.31,0,0,0-.27.11.6.6,0,0,0-.09.38,1.15,1.15,0,0,0,.39.81l.31.29A1.74,1.74,0,0,1,135.68,11.34Z"/><path class="cls-1" d="M136.29,7.08h.59v.54h-.59Zm0,.93h.59v4.32h-.59Z"/><path class="cls-1" d="M137.83,7.26h.59v.79h.46v.44h-.46v3.15c0,.11,0,.18.08.21a1.29,1.29,0,0,0,.39,0v.47h-.41a.68.68,0,0,1-.53-.15.84.84,0,0,1-.12-.52V8.49h-.4V8.05h.4Z"/><path class="cls-1" d="M140.93,9.26a1.59,1.59,0,0,1,.24-1,.9.9,0,0,1,.69-.26.85.85,0,0,1,.66.22,1.23,1.23,0,0,1,.25.7c0,.14,0,.31,0,.51v2.94h-.6V12a.53.53,0,0,1-.2.28.55.55,0,0,1-.38.13c-.49,0-.74-.38-.74-1.15V10.8a1,1,0,0,1,.2-.63,2.73,2.73,0,0,1,1.12-.6V9.23a1.4,1.4,0,0,0-.08-.66.29.29,0,0,0-.27-.12.25.25,0,0,0-.26.17,1.79,1.79,0,0,0-.07.62v.15h-.58Zm1.26.69a3.14,3.14,0,0,0-.48.25.6.6,0,0,0-.18.21.79.79,0,0,0-.07.4v.4a1.6,1.6,0,0,0,.07.53.23.23,0,0,0,.23.15.42.42,0,0,0,.27-.09.46.46,0,0,0,.16-.21Z"/><path class="cls-1" d="M144.18,8.46a.72.72,0,0,1,.24-.36.69.69,0,0,1,.43-.14.58.58,0,0,1,.61.44.93.93,0,0,1,.3-.32.8.8,0,0,1,.43-.12.63.63,0,0,1,.53.24,1.32,1.32,0,0,1,.17.72v3.41h-.59V8.91c0-.3-.11-.44-.34-.44a.38.38,0,0,0-.42.4v3.46h-.6V8.9c0-.29-.11-.43-.33-.43a.38.38,0,0,0-.32.13.58.58,0,0,0-.11.37v3.36h-.59V8h.59Z"/><path class="cls-1" d="M147.64,9.35a1.69,1.69,0,0,1,.3-1.14.87.87,0,0,1,.67-.25.76.76,0,0,1,.82.56,3.27,3.27,0,0,1,.09.86v.81h-1.29v.86a1.59,1.59,0,0,0,.09.7.33.33,0,0,0,.29.14.24.24,0,0,0,.25-.16.81.81,0,0,0,.07-.35v-.67h.58v.19a3,3,0,0,1-.1,1,.69.69,0,0,1-.29.4.9.9,0,0,1-.48.12,1.17,1.17,0,0,1-.46-.07.73.73,0,0,1-.28-.19,1,1,0,0,1-.18-.39,3.4,3.4,0,0,1-.08-.85Zm1.29-.11a2.67,2.67,0,0,0,0-.55.67.67,0,0,0-.08-.17.22.22,0,0,0-.19-.07.31.31,0,0,0-.33.21,2.35,2.35,0,0,0-.07.6v.53h.7Z"/><path class="cls-1" d="M150.38,7.26H151v.79h.46v.44H151v3.15c0,.11,0,.18.08.21a1.29,1.29,0,0,0,.39,0v.47H151a.68.68,0,0,1-.53-.15.84.84,0,0,1-.12-.52V8.49H150V8.05h.4Z"/><path class="cls-1" d="M152.1,11.76h.5v.57h-.5Z"/><path class="cls-1" d="M154.1,7.26h.71l.84,5.07h-.56l-.14-1H154l-.13,1h-.57Zm0,3.62h.77l-.4-2.68h0Z"/><path class="cls-1" d="M156.37,7.26H157v.79h.47v.44H157v3.15a.23.23,0,0,0,.08.21,1.33,1.33,0,0,0,.4,0v.47H157a.68.68,0,0,1-.53-.15.84.84,0,0,1-.12-.52V8.49H156V8.05h.4Z"/><path class="cls-1" d="M160.54,8h.55l-.62,4.32h-.69L159.16,8h.55l.31,2.44.11,1h.05l.08-1Z"/><path class="cls-1" d="M161.56,9.35a1.69,1.69,0,0,1,.3-1.14.9.9,0,0,1,.68-.25.76.76,0,0,1,.81.56,2.85,2.85,0,0,1,.1.86v.81h-1.29v.86a1.59,1.59,0,0,0,.09.7.31.31,0,0,0,.28.14.25.25,0,0,0,.26-.16,1,1,0,0,0,.06-.35c0-.13,0-.23,0-.32v-.35h.57v.19a3.46,3.46,0,0,1-.09,1,.74.74,0,0,1-.29.4.94.94,0,0,1-.49.12,1.17,1.17,0,0,1-.46-.07.73.73,0,0,1-.28-.19,1,1,0,0,1-.18-.39,3.4,3.4,0,0,1-.08-.85Zm1.3-.11a2.37,2.37,0,0,0,0-.55.67.67,0,0,0-.08-.17.22.22,0,0,0-.19-.07.31.31,0,0,0-.33.21,2.41,2.41,0,0,0-.06.6v.53h.7Z"/><path class="cls-1" d="M165.52,8a1.53,1.53,0,0,1,0,.37v.13a.81.81,0,0,0-.74.36v3.51h-.59V8h.59v.48a.73.73,0,0,1,.26-.39A.82.82,0,0,1,165.52,8Z"/><path class="cls-1" d="M166,9.38c0-.71.16-1.14.49-1.32a1.06,1.06,0,0,1,.45-.1.8.8,0,0,1,.86.54,2.71,2.71,0,0,1,.12.88V10.9a1.93,1.93,0,0,1-.25,1.2.86.86,0,0,1-.7.28.8.8,0,0,1-.86-.57,3.08,3.08,0,0,1-.11-.91Zm1.33-.12q0-.62-.18-.75a.29.29,0,0,0-.19-.06.29.29,0,0,0-.3.21,2.3,2.3,0,0,0-.06.6v1.81c0,.42.06.68.18.77a.29.29,0,0,0,.17.05h0a.29.29,0,0,0,.3-.21,2.37,2.37,0,0,0,.07-.61Z"/><path class="cls-1" d="M0,16.43a1.72,1.72,0,0,1,.29-1.14A.88.88,0,0,1,1,15a.76.76,0,0,1,.82.56,3.19,3.19,0,0,1,.09.85v.82H.59v.86a1.62,1.62,0,0,0,.09.7A.31.31,0,0,0,1,19a.25.25,0,0,0,.26-.17.94.94,0,0,0,.07-.34v-.67h.58V18a3.15,3.15,0,0,1-.1,1,.76.76,0,0,1-.29.4.9.9,0,0,1-.48.12,1.46,1.46,0,0,1-.47-.07.71.71,0,0,1-.27-.2,1,1,0,0,1-.18-.39A3.34,3.34,0,0,1,0,18Zm1.29-.11a2.88,2.88,0,0,0,0-.56.56.56,0,0,0-.09-.17A.22.22,0,0,0,1,15.52a.31.31,0,0,0-.33.22,1.93,1.93,0,0,0-.07.6v.53h.7Z"/><path class="cls-1" d="M2.57,16.45c0-.7.16-1.14.48-1.31A.93.93,0,0,1,3.5,15a.82.82,0,0,1,.87.54,3,3,0,0,1,.11.87V18a2,2,0,0,1-.24,1.19.9.9,0,0,1-.71.29.8.8,0,0,1-.86-.58,3.1,3.1,0,0,1-.1-.9Zm1.32-.12q0-.61-.18-.75a.32.32,0,0,0-.18-.05.28.28,0,0,0-.3.21,1.86,1.86,0,0,0-.07.59v1.81c0,.43.06.68.18.77a.26.26,0,0,0,.18.06h0a.27.27,0,0,0,.29-.22,1.92,1.92,0,0,0,.07-.61Z"/><path class="cls-1" d="M7,18.42c0,.7-.31,1-.92,1a.82.82,0,0,1-.7-.29,1.54,1.54,0,0,1-.24-1v-.32H5.7v.32c0,.5.11.75.34.75a.32.32,0,0,0,.27-.12.83.83,0,0,0,.08-.42A1.27,1.27,0,0,0,6,17.53l-.15-.15-.16-.14a1.63,1.63,0,0,1-.56-1.19,1.07,1.07,0,0,1,.24-.76A.9.9,0,0,1,6,15a.91.91,0,0,1,.49.12c.26.17.4.58.4,1.22v.21H6.35v-.3a1.54,1.54,0,0,0-.08-.56A.25.25,0,0,0,6,15.54a.29.29,0,0,0-.26.12.6.6,0,0,0-.1.38,1.16,1.16,0,0,0,.4.81l.31.29A1.73,1.73,0,0,1,7,18.42Z"/><path class="cls-1" d="M9,16.43a1.66,1.66,0,0,1,.3-1.14A.86.86,0,0,1,9.93,15a.75.75,0,0,1,.81.56,3.19,3.19,0,0,1,.09.85v.82H9.55v.86a1.62,1.62,0,0,0,.09.7.3.3,0,0,0,.28.14.24.24,0,0,0,.25-.17.77.77,0,0,0,.07-.34c0-.13,0-.24,0-.32v-.35h.57V18a3.6,3.6,0,0,1-.09,1,.83.83,0,0,1-.3.4.9.9,0,0,1-.48.12,1.39,1.39,0,0,1-.46-.07.75.75,0,0,1-.28-.2A1,1,0,0,1,9,18.8,3.34,3.34,0,0,1,9,18Zm1.3-.11a2.56,2.56,0,0,0,0-.56.89.89,0,0,0-.08-.17.26.26,0,0,0-.19-.07.32.32,0,0,0-.33.22,2.29,2.29,0,0,0-.07.6v.53h.71Z"/><path class="cls-1" d="M11.69,14.34h.59v.78h.47v.44h-.47v3.15c0,.12,0,.18.08.21a1,1,0,0,0,.39,0v.47h-.4a.71.71,0,0,1-.54-.15.82.82,0,0,1-.12-.52v-3.2H11.3v-.44h.39Z"/><path class="cls-1" d="M14.79,16.34a1.59,1.59,0,0,1,.24-1,.89.89,0,0,1,.7-.26.82.82,0,0,1,.65.22,1.13,1.13,0,0,1,.25.7c0,.14,0,.31,0,.51v2.94h-.59V19a.61.61,0,0,1-.2.29.65.65,0,0,1-.39.12c-.49,0-.73-.38-.74-1.14v-.42a1.06,1.06,0,0,1,.2-.64,3,3,0,0,1,1.12-.6v-.33a1.48,1.48,0,0,0-.08-.67.31.31,0,0,0-.27-.11.24.24,0,0,0-.26.17,1.72,1.72,0,0,0-.07.61v.15h-.58Zm1.26.69a2.42,2.42,0,0,0-.48.25.6.6,0,0,0-.18.21.93.93,0,0,0-.06.39v.4a1.62,1.62,0,0,0,.06.53.25.25,0,0,0,.23.16.45.45,0,0,0,.28-.1.46.46,0,0,0,.15-.2Z"/><path class="cls-1" d="M17.39,16.5a3.24,3.24,0,0,1,.08-.82,1.21,1.21,0,0,1,.19-.38.9.9,0,0,1,.69-.26.82.82,0,0,1,.65.22,1.18,1.18,0,0,1,.24.67c0,.13,0,.28,0,.45v.3h-.58V16.3a2.92,2.92,0,0,0,0-.53.51.51,0,0,0-.28-.23.34.34,0,0,0-.35.29,2.81,2.81,0,0,0,0,.49v1.83a1.75,1.75,0,0,0,.07.62.25.25,0,0,0,.26.18.32.32,0,0,0,.28-.12,1.46,1.46,0,0,0,.09-.66v-.42h.58V18A2,2,0,0,1,19,19.18a.88.88,0,0,1-.71.28.84.84,0,0,1-.89-.81,4.72,4.72,0,0,1,0-.7Z"/><path class="cls-1" d="M19.92,16.5a3.24,3.24,0,0,1,.08-.82,1.21,1.21,0,0,1,.19-.38.9.9,0,0,1,.69-.26.84.84,0,0,1,.65.22,1.18,1.18,0,0,1,.24.67c0,.13,0,.28,0,.45v.3h-.58V16.3a2.92,2.92,0,0,0,0-.53.51.51,0,0,0-.28-.23.34.34,0,0,0-.35.29,2.08,2.08,0,0,0,0,.49v1.83a1.75,1.75,0,0,0,.07.62.25.25,0,0,0,.26.18.32.32,0,0,0,.28-.12,1.46,1.46,0,0,0,.09-.66v-.42h.58V18a2,2,0,0,1-.23,1.15.88.88,0,0,1-.71.28.84.84,0,0,1-.89-.81,4.72,4.72,0,0,1,0-.7Z"/><path class="cls-1" d="M23.86,15.09h.59v4.32h-.59V19a.72.72,0,0,1-.24.36.69.69,0,0,1-.45.13.59.59,0,0,1-.48-.23,1.07,1.07,0,0,1-.2-.72V15.09h.58v3.35c0,.34.13.51.38.51a.38.38,0,0,0,.31-.14.65.65,0,0,0,.1-.38Z"/><path class="cls-1" d="M27,18.42c0,.7-.31,1-.93,1a.83.83,0,0,1-.7-.29,1.61,1.61,0,0,1-.23-1v-.32h.57v.32c0,.5.12.75.34.75a.29.29,0,0,0,.27-.12.74.74,0,0,0,.08-.42,1.23,1.23,0,0,0-.43-.89l-.15-.15-.15-.14a1.59,1.59,0,0,1-.56-1.19,1.07,1.07,0,0,1,.24-.76.89.89,0,0,1,.68-.25.93.93,0,0,1,.5.12c.26.17.39.58.39,1.22v.21h-.56v-.3a1.58,1.58,0,0,0-.07-.56.25.25,0,0,0-.25-.19.32.32,0,0,0-.27.12.6.6,0,0,0-.09.38,1.12,1.12,0,0,0,.4.81l.31.29A1.76,1.76,0,0,1,27,18.42Z"/><path class="cls-1" d="M27.6,16.34a1.58,1.58,0,0,1,.25-1,.87.87,0,0,1,.69-.26.85.85,0,0,1,.66.22,1.2,1.2,0,0,1,.25.7c0,.14,0,.31,0,.51v2.94h-.6V19a.55.55,0,0,1-.2.29.6.6,0,0,1-.38.12c-.49,0-.74-.38-.74-1.14v-.42a1.06,1.06,0,0,1,.2-.64,3,3,0,0,1,1.12-.6v-.33a1.48,1.48,0,0,0-.08-.67.31.31,0,0,0-.27-.11.24.24,0,0,0-.26.17,1.72,1.72,0,0,0-.07.61v.15H27.6Zm1.27.69a2.42,2.42,0,0,0-.48.25.6.6,0,0,0-.18.21.9.9,0,0,0-.07.39v.4a1.55,1.55,0,0,0,.07.53.25.25,0,0,0,.23.16.41.41,0,0,0,.27-.1.49.49,0,0,0,.16-.2Z"/><path class="cls-1" d="M30.86,15.54a.7.7,0,0,1,.67-.51.59.59,0,0,1,.61.44.92.92,0,0,1,.3-.32.8.8,0,0,1,.43-.12.61.61,0,0,1,.52.25,1.19,1.19,0,0,1,.18.72v3.41H33V16c0-.29-.11-.44-.34-.44a.38.38,0,0,0-.42.4v3.47h-.59V16c0-.29-.12-.44-.34-.44a.39.39,0,0,0-.32.14.57.57,0,0,0-.11.36v3.37h-.59V15.09h.59Z"/><path class="cls-1" d="M35.77,16.43a1.72,1.72,0,0,1,.29-1.14.86.86,0,0,1,.68-.25.76.76,0,0,1,.82.56,3.19,3.19,0,0,1,.09.85v.82H36.36v.86a1.62,1.62,0,0,0,.09.7.31.31,0,0,0,.28.14A.25.25,0,0,0,37,18.8a1.21,1.21,0,0,0,.07-.34v-.67h.58V18a3.5,3.5,0,0,1-.1,1,.76.76,0,0,1-.29.4.91.91,0,0,1-.49.12,1.44,1.44,0,0,1-.46-.07.64.64,0,0,1-.27-.2,1,1,0,0,1-.18-.39,2.93,2.93,0,0,1-.08-.85Zm1.29-.11a2.88,2.88,0,0,0,0-.56.91.91,0,0,0-.09-.17.24.24,0,0,0-.19-.07.3.3,0,0,0-.32.22,1.93,1.93,0,0,0-.07.6v.53h.7Z"/><path class="cls-1" d="M38.5,14.34h.59v.78h.47v.44h-.47v3.15c0,.12,0,.18.08.21a1.05,1.05,0,0,0,.4,0v.47h-.41a.68.68,0,0,1-.53-.15.82.82,0,0,1-.13-.52v-3.2h-.39v-.44h.39Z"/><path class="cls-1" d="M40.23,18.84h.5v.57h-.5Z"/><path class="cls-1" d="M43.07,15.91a1.84,1.84,0,0,1,0-.44,1.7,1.7,0,0,1,.2-.87.83.83,0,0,1,.78-.32.78.78,0,0,1,.86.71,4,4,0,0,1,.06.76v.3h-.57v-.34a2.4,2.4,0,0,0-.05-.65.41.41,0,0,0-.12-.22.27.27,0,0,0-.18-.05.36.36,0,0,0-.32.15,1,1,0,0,0-.09.47.91.91,0,0,0,.09.46,1,1,0,0,0,.21.27l.14.15.34.37A2,2,0,0,1,45,18.11a2,2,0,0,1-.21,1,1,1,0,0,1-1.64-.26A3.07,3.07,0,0,1,43,18v-.52h.58V18a2.74,2.74,0,0,0,.08.78A.31.31,0,0,0,44,19a.35.35,0,0,0,.3-.11.52.52,0,0,0,.1-.31c0-.14,0-.3,0-.47a1.38,1.38,0,0,0-.46-1l-.33-.33A2.1,2.1,0,0,1,43.07,15.91Z"/><path class="cls-1" d="M45.75,14.34h.58v.78h.47v.44h-.47v3.15c0,.12,0,.18.08.21a1.09,1.09,0,0,0,.4,0v.47H46.4a.68.68,0,0,1-.53-.15.82.82,0,0,1-.12-.52v-3.2h-.4v-.44h.4Z"/><path class="cls-1" d="M47.33,16.43a1.66,1.66,0,0,1,.3-1.14.86.86,0,0,1,.68-.25.75.75,0,0,1,.81.56,3.13,3.13,0,0,1,.1.85v.82H47.93v.86a1.62,1.62,0,0,0,.09.7.31.31,0,0,0,.28.14.26.26,0,0,0,.26-.17.93.93,0,0,0,.06-.34c0-.13,0-.24,0-.32v-.35h.57V18a3.6,3.6,0,0,1-.09,1,.82.82,0,0,1-.29.4.94.94,0,0,1-.49.12,1.44,1.44,0,0,1-.46-.07.75.75,0,0,1-.28-.2,1,1,0,0,1-.18-.39,3.34,3.34,0,0,1-.08-.85Zm1.3-.11a2.56,2.56,0,0,0,0-.56.89.89,0,0,0-.08-.17.26.26,0,0,0-.19-.07.32.32,0,0,0-.33.22,2.36,2.36,0,0,0-.06.6v.53h.7Z"/><path class="cls-1" d="M50.07,14.34h.59v.78h.47v.44h-.47v3.15c0,.12,0,.18.08.21a1,1,0,0,0,.39,0v.47h-.4c-.28,0-.45-.05-.53-.15a.76.76,0,0,1-.13-.52v-3.2h-.39v-.44h.39Z"/><path class="cls-1" d="M54.89,18.42c0,.7-.31,1-.92,1a.83.83,0,0,1-.7-.29,1.61,1.61,0,0,1-.23-1v-.32h.57v.32c0,.5.11.75.34.75a.32.32,0,0,0,.27-.12.83.83,0,0,0,.08-.42,1.23,1.23,0,0,0-.43-.89l-.15-.15-.16-.14A1.63,1.63,0,0,1,53,16.05a1,1,0,0,1,.25-.76,1.05,1.05,0,0,1,1.17-.13c.27.17.4.58.4,1.22v.21h-.56v-.3a1.58,1.58,0,0,0-.07-.56.26.26,0,0,0-.25-.19.32.32,0,0,0-.27.12.6.6,0,0,0-.09.38,1.15,1.15,0,0,0,.39.81l.31.29A1.73,1.73,0,0,1,54.89,18.42Z"/><path class="cls-1" d="M55.42,16.43a1.66,1.66,0,0,1,.3-1.14.84.84,0,0,1,.67-.25.75.75,0,0,1,.82.56,3.19,3.19,0,0,1,.09.85v.82H56v.86a1.62,1.62,0,0,0,.09.7.32.32,0,0,0,.28.14.25.25,0,0,0,.26-.17.94.94,0,0,0,.07-.34v-.67h.58V18a3.15,3.15,0,0,1-.1,1,.76.76,0,0,1-.29.4.9.9,0,0,1-.48.12,1.46,1.46,0,0,1-.47-.07.79.79,0,0,1-.27-.2,1,1,0,0,1-.18-.39,3.34,3.34,0,0,1-.08-.85Zm1.29-.11a2.88,2.88,0,0,0,0-.56.56.56,0,0,0-.09-.17.22.22,0,0,0-.18-.07.32.32,0,0,0-.33.22,1.93,1.93,0,0,0-.07.6v.53h.7Z"/><path class="cls-1" d="M58.05,16.34a1.59,1.59,0,0,1,.24-1A.91.91,0,0,1,59,15a.82.82,0,0,1,.65.22,1.13,1.13,0,0,1,.25.7,3.86,3.86,0,0,1,0,.51v2.94h-.59V19a.58.58,0,0,1-.59.41c-.49,0-.73-.38-.74-1.14v-.42a1,1,0,0,1,.21-.64,2.83,2.83,0,0,1,1.12-.6v-.33a1.65,1.65,0,0,0-.08-.67.35.35,0,0,0-.28-.11.25.25,0,0,0-.26.17,2,2,0,0,0-.07.61v.15h-.58Zm1.27.69a2.6,2.6,0,0,0-.49.25.6.6,0,0,0-.18.21.93.93,0,0,0-.06.39v.4a1.34,1.34,0,0,0,.07.53.23.23,0,0,0,.22.16.45.45,0,0,0,.28-.1.49.49,0,0,0,.16-.2Z"/><path class="cls-1" d="M62.27,14.34h.59v.78h.46v.44h-.46v3.15c0,.12,0,.18.07.21a1.12,1.12,0,0,0,.4,0v.47h-.41a.68.68,0,0,1-.53-.15.82.82,0,0,1-.12-.52v-3.2h-.4v-.44h.4Z"/><path class="cls-1" d="M63.92,16.34a1.59,1.59,0,0,1,.24-1,.89.89,0,0,1,.7-.26.82.82,0,0,1,.65.22,1.13,1.13,0,0,1,.25.7c0,.14,0,.31,0,.51v2.94h-.59V19a.61.61,0,0,1-.2.29.65.65,0,0,1-.39.12c-.49,0-.73-.38-.74-1.14v-.42a1.06,1.06,0,0,1,.2-.64,3,3,0,0,1,1.12-.6v-.33a1.48,1.48,0,0,0-.08-.67.31.31,0,0,0-.27-.11.24.24,0,0,0-.26.17,1.72,1.72,0,0,0-.07.61v.15h-.58Zm1.26.69a2.42,2.42,0,0,0-.48.25.6.6,0,0,0-.18.21.93.93,0,0,0-.06.39v.4a1.62,1.62,0,0,0,.06.53.25.25,0,0,0,.23.16.45.45,0,0,0,.28-.1.46.46,0,0,0,.15-.2Z"/><path class="cls-1" d="M66.58,14.29h.59v2.85L68,15.09h.6l-.91,2.13,1,2.19h-.6l-.89-2.1v2.1h-.59Z"/><path class="cls-1" d="M69.08,14.15h.59v.54h-.59Zm0,.94h.59v4.32h-.59Z"/><path class="cls-1" d="M71.11,15.54a.7.7,0,0,1,.67-.51.6.6,0,0,1,.61.44.84.84,0,0,1,.3-.32.77.77,0,0,1,.43-.12.61.61,0,0,1,.52.25,1.19,1.19,0,0,1,.18.72v3.41h-.59V16c0-.29-.12-.44-.35-.44a.37.37,0,0,0-.41.4v3.47h-.6V16c0-.29-.11-.44-.34-.44a.38.38,0,0,0-.31.14.52.52,0,0,0-.11.36v3.37h-.59V15.09h.59Z"/><path class="cls-1" d="M74.63,16.34a1.59,1.59,0,0,1,.24-1,.91.91,0,0,1,.7-.26.82.82,0,0,1,.65.22,1.13,1.13,0,0,1,.25.7,3.86,3.86,0,0,1,0,.51v2.94H75.9V19a.58.58,0,0,1-.59.41c-.48,0-.73-.38-.74-1.14v-.42a1,1,0,0,1,.21-.64,2.91,2.91,0,0,1,1.12-.6v-.33a1.65,1.65,0,0,0-.08-.67.35.35,0,0,0-.28-.11.25.25,0,0,0-.26.17,2.09,2.09,0,0,0-.06.61v.15h-.59ZM75.9,17a2.6,2.6,0,0,0-.49.25.6.6,0,0,0-.18.21.93.93,0,0,0-.06.39v.4a1.34,1.34,0,0,0,.07.53.23.23,0,0,0,.22.16.45.45,0,0,0,.28-.1.49.49,0,0,0,.16-.2Z"/><path class="cls-1" d="M77.4,14.34H78v.78h.46v.44H78v3.15c0,.12,0,.18.08.21a1,1,0,0,0,.39,0v.47h-.4a.71.71,0,0,1-.54-.15.82.82,0,0,1-.12-.52v-3.2H77v-.44h.39Z"/><path class="cls-1" d="M79.05,16.34a1.59,1.59,0,0,1,.24-1A.91.91,0,0,1,80,15a.82.82,0,0,1,.65.22,1.13,1.13,0,0,1,.25.7,3.86,3.86,0,0,1,0,.51v2.94h-.59V19a.58.58,0,0,1-.59.41c-.48,0-.73-.38-.73-1.14v-.42a1,1,0,0,1,.2-.64,2.91,2.91,0,0,1,1.12-.6v-.33a1.65,1.65,0,0,0-.08-.67.35.35,0,0,0-.28-.11.25.25,0,0,0-.26.17,2.09,2.09,0,0,0-.06.61v.15h-.59Zm1.27.69a2.42,2.42,0,0,0-.48.25.63.63,0,0,0-.19.21.93.93,0,0,0-.06.39v.4a1.34,1.34,0,0,0,.07.53.23.23,0,0,0,.22.16.45.45,0,0,0,.28-.1.49.49,0,0,0,.16-.2Z"/><path class="cls-1" d="M84.88,18.42c0,.7-.31,1-.92,1a.83.83,0,0,1-.7-.29,1.61,1.61,0,0,1-.23-1v-.32h.57v.32c0,.5.11.75.34.75a.32.32,0,0,0,.27-.12.83.83,0,0,0,.08-.42,1.23,1.23,0,0,0-.43-.89l-.15-.15-.16-.14A1.63,1.63,0,0,1,83,16.05a1.07,1.07,0,0,1,.24-.76.93.93,0,0,1,.69-.25.89.89,0,0,1,.49.12c.27.17.4.58.4,1.22v.21h-.56v-.3a1.58,1.58,0,0,0-.07-.56.26.26,0,0,0-.25-.19.32.32,0,0,0-.27.12.6.6,0,0,0-.09.38,1.15,1.15,0,0,0,.39.81l.31.29A1.73,1.73,0,0,1,84.88,18.42Z"/><path class="cls-1" d="M85.47,16.34a1.53,1.53,0,0,1,.25-1,1.07,1.07,0,0,1,1.35,0,1.2,1.2,0,0,1,.24.7,3.68,3.68,0,0,1,0,.51v2.94h-.6V19a.55.55,0,0,1-.2.29.6.6,0,0,1-.38.12c-.49,0-.74-.38-.74-1.14v-.42a1,1,0,0,1,.2-.64,3,3,0,0,1,1.12-.6v-.33a1.65,1.65,0,0,0-.08-.67.33.33,0,0,0-.28-.11.25.25,0,0,0-.26.17,2.09,2.09,0,0,0-.06.61v.15h-.59Zm1.27.69a2.42,2.42,0,0,0-.48.25.76.76,0,0,0-.19.21.93.93,0,0,0-.06.39v.4a1.34,1.34,0,0,0,.07.53.24.24,0,0,0,.23.16.45.45,0,0,0,.27-.1.49.49,0,0,0,.16-.2Z"/><path class="cls-1" d="M88.73,15.55a.74.74,0,0,1,.25-.37.76.76,0,0,1,.48-.15.55.55,0,0,1,.47.24,1.11,1.11,0,0,1,.18.69v3.45h-.59V16a.45.45,0,0,0-.1-.33.38.38,0,0,0-.28-.11.38.38,0,0,0-.29.12.51.51,0,0,0-.12.37v3.39h-.59V15.09h.59Z"/><path class="cls-1" d="M90.86,16.5a2.76,2.76,0,0,1,.09-.82,1,1,0,0,1,.19-.38.87.87,0,0,1,.68-.26.82.82,0,0,1,.65.22,1.18,1.18,0,0,1,.24.67c0,.13,0,.28,0,.45v.3h-.58V16.3a2.92,2.92,0,0,0,0-.53.49.49,0,0,0-.27-.23.33.33,0,0,0-.35.29,2,2,0,0,0,0,.49v1.83a2,2,0,0,0,.07.62.26.26,0,0,0,.26.18.32.32,0,0,0,.28-.12,1.46,1.46,0,0,0,.09-.66v-.42h.58V18a1.87,1.87,0,0,1-.23,1.15.85.85,0,0,1-.71.28.83.83,0,0,1-.88-.81,4.58,4.58,0,0,1,0-.7Z"/><path class="cls-1" d="M93.56,14.34h.59v.78h.47v.44h-.47v3.15c0,.12,0,.18.08.21a1,1,0,0,0,.39,0v.47h-.4a.71.71,0,0,1-.54-.15.82.82,0,0,1-.12-.52v-3.2h-.39v-.44h.39Z"/><path class="cls-1" d="M96.57,15.09h.59v4.32h-.59V19a.88.88,0,0,1-.24.36.69.69,0,0,1-.45.13.62.62,0,0,1-.49-.23,1.12,1.12,0,0,1-.2-.72V15.09h.59v3.35c0,.34.12.51.37.51a.37.37,0,0,0,.31-.14.66.66,0,0,0,.11-.38Z"/><path class="cls-1" d="M99.72,18.42c0,.7-.31,1-.92,1a.82.82,0,0,1-.7-.29,1.54,1.54,0,0,1-.23-1v-.32h.57v.32c0,.5.11.75.34.75a.32.32,0,0,0,.27-.12.83.83,0,0,0,.08-.42,1.27,1.27,0,0,0-.43-.89,1,1,0,0,1-.15-.15l-.16-.14a1.63,1.63,0,0,1-.56-1.19,1.07,1.07,0,0,1,.24-.76.9.9,0,0,1,.69-.25.91.91,0,0,1,.49.12c.26.17.4.58.4,1.22v.21h-.56v-.3a1.54,1.54,0,0,0-.08-.56.24.24,0,0,0-.25-.19.32.32,0,0,0-.27.12.6.6,0,0,0-.09.38,1.16,1.16,0,0,0,.4.81l.31.29A1.73,1.73,0,0,1,99.72,18.42Z"/><path class="cls-1" d="M101.69,16.43a1.66,1.66,0,0,1,.3-1.14.85.85,0,0,1,.67-.25.75.75,0,0,1,.82.56,3.19,3.19,0,0,1,.09.85v.82h-1.28v.86a1.62,1.62,0,0,0,.09.7.31.31,0,0,0,.28.14.25.25,0,0,0,.25-.17.77.77,0,0,0,.07-.34v-.67h.58V18a3.6,3.6,0,0,1-.09,1,.83.83,0,0,1-.3.4.9.9,0,0,1-.48.12,1.39,1.39,0,0,1-.46-.07.75.75,0,0,1-.28-.2,1,1,0,0,1-.18-.39,3.34,3.34,0,0,1-.08-.85Zm1.29-.11a2.88,2.88,0,0,0,0-.56.89.89,0,0,0-.08-.17.26.26,0,0,0-.19-.07.32.32,0,0,0-.33.22,2.29,2.29,0,0,0-.07.6v.53h.7Z"/><path class="cls-1" d="M106.05,18.42c0,.7-.31,1-.93,1a.8.8,0,0,1-.69-.29,1.54,1.54,0,0,1-.24-1v-.32h.57v.32c0,.5.12.75.34.75a.29.29,0,0,0,.27-.12.74.74,0,0,0,.08-.42,1.23,1.23,0,0,0-.43-.89l-.15-.15-.15-.14a1.63,1.63,0,0,1-.56-1.19,1.07,1.07,0,0,1,.24-.76.9.9,0,0,1,.69-.25.91.91,0,0,1,.49.12c.26.17.39.58.39,1.22v.21h-.56v-.3a1.58,1.58,0,0,0-.07-.56.25.25,0,0,0-.25-.19.32.32,0,0,0-.27.12.6.6,0,0,0-.09.38,1.12,1.12,0,0,0,.4.81l.31.29A1.76,1.76,0,0,1,106.05,18.42Z"/><path class="cls-1" d="M106.75,14.34h.58v.78h.47v.44h-.47v3.15c0,.12,0,.18.08.21a1.05,1.05,0,0,0,.4,0v.47h-.41a.68.68,0,0,1-.53-.15.82.82,0,0,1-.12-.52v-3.2h-.4v-.44h.4Z"/><path class="cls-1" d="M109.84,14.34h.59v4.57h.94v.5h-1.53Z"/><path class="cls-1" d="M111.83,16.45c0-.7.16-1.14.48-1.31a.93.93,0,0,1,.45-.1.8.8,0,0,1,.86.54,2.68,2.68,0,0,1,.12.87V18a2,2,0,0,1-.24,1.19.9.9,0,0,1-.71.29.8.8,0,0,1-.86-.58,3.1,3.1,0,0,1-.1-.9Zm1.32-.12q0-.61-.18-.75a.32.32,0,0,0-.18-.05.3.3,0,0,0-.31.21,2.27,2.27,0,0,0-.06.59v1.81c0,.43.06.68.18.77a.24.24,0,0,0,.17.06h0a.27.27,0,0,0,.29-.22,1.92,1.92,0,0,0,.07-.61Z"/><path class="cls-1" d="M115.84,15a1.46,1.46,0,0,1,0,.37v.13a.81.81,0,0,0-.74.36v3.51h-.59V15.09h.59v.48a.69.69,0,0,1,.27-.39A.7.7,0,0,1,115.84,15Z"/><path class="cls-1" d="M116.33,16.43a1.66,1.66,0,0,1,.29-1.14.86.86,0,0,1,.68-.25.75.75,0,0,1,.81.56,2.82,2.82,0,0,1,.09.85v.82h-1.28v.86a1.62,1.62,0,0,0,.09.7.31.31,0,0,0,.28.14.26.26,0,0,0,.26-.17.93.93,0,0,0,.06-.34c0-.13,0-.24,0-.32v-.35h.57V18a3.6,3.6,0,0,1-.09,1,.82.82,0,0,1-.29.4.94.94,0,0,1-.49.12,1.39,1.39,0,0,1-.46-.07.75.75,0,0,1-.28-.2,1.44,1.44,0,0,1-.18-.39,3.46,3.46,0,0,1-.07-.85Zm1.29-.11a2,2,0,0,0,0-.56.89.89,0,0,0-.08-.17.26.26,0,0,0-.19-.07.32.32,0,0,0-.33.22,2.36,2.36,0,0,0-.06.6v.53h.7Z"/><path class="cls-1" d="M119.55,15.54a.7.7,0,0,1,.67-.51.6.6,0,0,1,.61.44.84.84,0,0,1,.3-.32.8.8,0,0,1,.43-.12.61.61,0,0,1,.52.25,1.19,1.19,0,0,1,.18.72v3.41h-.59V16c0-.29-.12-.44-.34-.44a.38.38,0,0,0-.42.4v3.47h-.6V16c0-.29-.11-.44-.34-.44a.38.38,0,0,0-.31.14.57.57,0,0,0-.11.36v3.37H119V15.09h.59Z"/><path class="cls-1" d="M124.53,14.15h.59v.54h-.59Zm0,.94h.59v4.32h-.59Z"/><path class="cls-1" d="M126.56,15.45a.6.6,0,0,1,.24-.3.64.64,0,0,1,.35-.1.63.63,0,0,1,.65.54,3.3,3.3,0,0,1,.09.85V18a2.16,2.16,0,0,1-.22,1.16.71.71,0,0,1-.61.3.45.45,0,0,1-.29-.1.61.61,0,0,1-.21-.24V20.2H126V15.09h.59Zm.74.89v-.22a1.13,1.13,0,0,0,0-.32.46.46,0,0,0-.08-.16.25.25,0,0,0-.22-.11.36.36,0,0,0-.22.06q-.18.12-.18.75v1.77a1.74,1.74,0,0,0,.08.65.28.28,0,0,0,.29.2.27.27,0,0,0,.29-.2,2.07,2.07,0,0,0,.08-.67Z"/><path class="cls-1" d="M130.38,18.42c0,.7-.31,1-.92,1a.83.83,0,0,1-.7-.29,1.54,1.54,0,0,1-.23-1v-.32h.57v.32c0,.5.11.75.34.75a.32.32,0,0,0,.27-.12.83.83,0,0,0,.08-.42,1.23,1.23,0,0,0-.43-.89l-.15-.15-.16-.14a1.63,1.63,0,0,1-.56-1.19,1,1,0,0,1,.25-.76,1.05,1.05,0,0,1,1.17-.13c.27.17.4.58.4,1.22v.21h-.56v-.3a1.86,1.86,0,0,0-.07-.56.26.26,0,0,0-.26-.19.31.31,0,0,0-.26.12.6.6,0,0,0-.09.38,1.15,1.15,0,0,0,.39.81l.31.29A1.73,1.73,0,0,1,130.38,18.42Z"/><path class="cls-1" d="M132.33,15.09h.59v4.32h-.59V19a.88.88,0,0,1-.24.36.69.69,0,0,1-.45.13.62.62,0,0,1-.49-.23,1.12,1.12,0,0,1-.2-.72V15.09h.59v3.35c0,.34.12.51.37.51a.37.37,0,0,0,.31-.14.66.66,0,0,0,.11-.38Z"/><path class="cls-1" d="M134.35,15.54a.64.64,0,0,1,.24-.36A.63.63,0,0,1,135,15a.6.6,0,0,1,.61.44.84.84,0,0,1,.3-.32.77.77,0,0,1,.43-.12.61.61,0,0,1,.52.25,1.19,1.19,0,0,1,.18.72v3.41h-.59V16c0-.29-.12-.44-.35-.44a.37.37,0,0,0-.41.4v3.47h-.6V16c0-.29-.11-.44-.34-.44a.38.38,0,0,0-.31.14.57.57,0,0,0-.11.36v3.37h-.59V15.09h.59Z"/><path class="cls-1" d="M140.58,14.29h.6v5.12h-.6V19a.58.58,0,0,1-.59.4c-.4,0-.63-.26-.7-.78a5.85,5.85,0,0,1,0-.64V16.39a1.8,1.8,0,0,1,.25-1.1.67.67,0,0,1,.57-.25.5.5,0,0,1,.29.09.63.63,0,0,1,.21.25Zm0,2.09a2,2,0,0,0-.08-.65.29.29,0,0,0-.29-.2.3.3,0,0,0-.3.2,2.14,2.14,0,0,0-.07.67v1.74c0,.43.05.68.17.77a.27.27,0,0,0,.19.05.31.31,0,0,0,.21-.07c.11-.09.17-.35.17-.77Z"/><path class="cls-1" d="M142,16.45c0-.7.16-1.14.48-1.31a1,1,0,0,1,.46-.1.8.8,0,0,1,.86.54,2.68,2.68,0,0,1,.12.87V18a2,2,0,0,1-.25,1.19.88.88,0,0,1-.71.29.79.79,0,0,1-.85-.58A3.05,3.05,0,0,1,142,18Zm1.32-.12c0-.41-.05-.66-.17-.75a.36.36,0,0,0-.19-.05.28.28,0,0,0-.3.21,1.86,1.86,0,0,0-.07.59v1.81c0,.43.06.68.18.77a.28.28,0,0,0,.18.06h0a.29.29,0,0,0,.3-.22,2.34,2.34,0,0,0,.06-.61Z"/><path class="cls-1" d="M144.65,14.29h.59v5.12h-.59Z"/><path class="cls-1" d="M146,16.45c0-.7.16-1.14.48-1.31A1,1,0,0,1,147,15a.81.81,0,0,1,.86.54,2.71,2.71,0,0,1,.11.87V18a2,2,0,0,1-.24,1.19.88.88,0,0,1-.71.29.81.81,0,0,1-.86-.58,3.1,3.1,0,0,1-.1-.9Zm1.32-.12c0-.41-.06-.66-.17-.75a.36.36,0,0,0-.19-.05.28.28,0,0,0-.3.21,2.2,2.2,0,0,0-.07.59v1.81c0,.43.06.68.18.77A.28.28,0,0,0,147,19h0a.27.27,0,0,0,.29-.22,1.92,1.92,0,0,0,.07-.61Z"/><path class="cls-1" d="M150,15a2,2,0,0,1,0,.37v.13a.79.79,0,0,0-.74.36v3.51h-.6V15.09h.6v.48a.64.64,0,0,1,.26-.39A.71.71,0,0,1,150,15Z"/><path class="cls-1" d="M153.75,18.42c0,.7-.31,1-.92,1a.82.82,0,0,1-.7-.29,1.54,1.54,0,0,1-.23-1v-.32h.57v.32c0,.5.11.75.34.75a.29.29,0,0,0,.26-.12.73.73,0,0,0,.09-.42,1.23,1.23,0,0,0-.43-.89,1,1,0,0,1-.15-.15l-.16-.14a1.63,1.63,0,0,1-.56-1.19,1.07,1.07,0,0,1,.24-.76.9.9,0,0,1,.69-.25.91.91,0,0,1,.49.12c.26.17.4.58.4,1.22v.21h-.56v-.3a1.54,1.54,0,0,0-.08-.56.25.25,0,0,0-.25-.19.32.32,0,0,0-.27.12.6.6,0,0,0-.09.38,1.16,1.16,0,0,0,.4.81l.31.29A1.73,1.73,0,0,1,153.75,18.42Z"/><path class="cls-1" d="M154.35,14.15h.6v.54h-.6Zm0,.94h.59v4.32h-.59Z"/><path class="cls-1" d="M155.89,14.34h.59v.78H157v.44h-.47v3.15c0,.12,0,.18.08.21a1,1,0,0,0,.39,0v.47h-.4a.68.68,0,0,1-.53-.15.76.76,0,0,1-.13-.52v-3.2h-.39v-.44h.39Z"/><path class="cls-1" d="M159,16.34a1.59,1.59,0,0,1,.24-1,.89.89,0,0,1,.7-.26.82.82,0,0,1,.65.22,1.13,1.13,0,0,1,.25.7,3.86,3.86,0,0,1,0,.51v2.94h-.59V19a.58.58,0,0,1-.59.41c-.49,0-.73-.38-.74-1.14v-.42a1,1,0,0,1,.21-.64,2.83,2.83,0,0,1,1.12-.6v-.33a1.65,1.65,0,0,0-.08-.67.35.35,0,0,0-.28-.11.25.25,0,0,0-.26.17,2.09,2.09,0,0,0-.06.61v.15H159Zm1.27.69a2.6,2.6,0,0,0-.49.25.6.6,0,0,0-.18.21.93.93,0,0,0-.06.39v.4a1.34,1.34,0,0,0,.07.53.23.23,0,0,0,.22.16.45.45,0,0,0,.28-.1.49.49,0,0,0,.16-.2Z"/><path class="cls-1" d="M162.25,15.54a.68.68,0,0,1,.23-.36.67.67,0,0,1,.44-.15.6.6,0,0,1,.61.44.84.84,0,0,1,.3-.32.77.77,0,0,1,.43-.12.61.61,0,0,1,.52.25A1.19,1.19,0,0,1,165,16v3.41h-.59V16c0-.29-.12-.44-.35-.44a.38.38,0,0,0-.42.4v3.47H163V16c0-.29-.11-.44-.34-.44a.37.37,0,0,0-.31.14.52.52,0,0,0-.11.36v3.37h-.59V15.09h.59Z"/><path class="cls-1" d="M165.71,16.43a1.72,1.72,0,0,1,.29-1.14.86.86,0,0,1,.68-.25.76.76,0,0,1,.82.56,3.19,3.19,0,0,1,.09.85v.82H166.3v.86a1.62,1.62,0,0,0,.09.7.31.31,0,0,0,.28.14.26.26,0,0,0,.26-.17.93.93,0,0,0,.06-.34c0-.13,0-.24,0-.32v-.35h.58V18a3.5,3.5,0,0,1-.1,1,.82.82,0,0,1-.29.4.94.94,0,0,1-.49.12,1.44,1.44,0,0,1-.46-.07.75.75,0,0,1-.28-.2,1.19,1.19,0,0,1-.18-.39,3.46,3.46,0,0,1-.07-.85Zm1.29-.11a2,2,0,0,0,0-.56.89.89,0,0,0-.08-.17.26.26,0,0,0-.19-.07.3.3,0,0,0-.32.22,1.93,1.93,0,0,0-.07.6v.53h.7Z"/><path class="cls-1" d="M168.44,14.34H169v.78h.47v.44H169v3.15c0,.12,0,.18.08.21a1,1,0,0,0,.39,0v.47h-.4a.68.68,0,0,1-.53-.15.76.76,0,0,1-.13-.52v-3.2h-.39v-.44h.39Z"/><path class="cls-1" d="M170.17,18.84h.5v.57h-.5Z"/></g></g></svg>