<svg xmlns="http://www.w3.org/2000/svg" viewBox="0 0 123.63 24.14"><defs><style>.cls-1{fill:#dc4437;}</style></defs><title>Asset 1</title><g id="Layer_2" data-name="Layer 2"><g id="illustrations"><path class="cls-1" d="M42.87,10.56a2,2,0,0,1-1.68.73,2.15,2.15,0,0,1-1.68-.65,2.73,2.73,0,0,1-.6-1.91v-2h1.63V8.65c0,.61.1,1,.29,1.11a.58.58,0,0,0,.33.09.49.49,0,0,0,.51-.31,3,3,0,0,0,.12-1V.13h1.68V8.47A3.23,3.23,0,0,1,42.87,10.56Z"/><path class="cls-1" d="M44.56,11.17l1.57-11h2.22l1.68,11H48.46l-.26-2H46.42l-.24,2ZM48,7.85l-.74-5.54h0l-.68,5.54Z"/><path class="cls-1" d="M51.18,11.17V.13h2.53a1.88,1.88,0,0,1,1.76.78A4.61,4.61,0,0,1,56,3.24v.23A5.21,5.21,0,0,1,55.5,6a1.8,1.8,0,0,1-1.73.85h-.91v4.35Zm1.68-5.74h.58A.67.67,0,0,0,54.13,5a4.87,4.87,0,0,0,.16-1.56V3.24a4.19,4.19,0,0,0-.17-1.4.65.65,0,0,0-.67-.42h-.59Z"/><path class="cls-1" d="M56.42,11.17,58,.13h2.22l1.68,11H60.32l-.26-2H58.27l-.23,2Zm3.46-3.32-.74-5.54h0l-.67,5.54Z"/><path class="cls-1" d="M63,11.17V.13h1.32L66.7,6.75l-.12-3V.13h1.51v11H66.9L64.5,4.31l.09,2.9v4Z"/><path class="cls-1" d="M69.75,11.17V.13h3.7V1.58h-2V4.79h1.91V6.21H71.43V9.72h2.09v1.45Z"/><path class="cls-1" d="M74.64,8.07v-1h1.6V8.19a3.93,3.93,0,0,0,.15,1.3.6.6,0,0,0,.59.37.57.57,0,0,0,.58-.31,2.65,2.65,0,0,0,.14-1,2.89,2.89,0,0,0-.25-1.22,4.67,4.67,0,0,0-.8-1.08l-.82-.84A5.11,5.11,0,0,1,75,4.18a3.32,3.32,0,0,1-.32-1.48,3.27,3.27,0,0,1,.53-2A2.18,2.18,0,0,1,77,0a1.85,1.85,0,0,1,1.74.77A4.6,4.6,0,0,1,79.16,3v.68H77.62V2.93a3.42,3.42,0,0,0-.14-1.15A.53.53,0,0,0,77,1.43a.65.65,0,0,0-.57.26,1.52,1.52,0,0,0-.17.79,1.69,1.69,0,0,0,.18.84,4.08,4.08,0,0,0,.63.81l.91,1a5.75,5.75,0,0,1,1,1.5,4,4,0,0,1,.35,1.66,4,4,0,0,1-.52,2.28,2.07,2.07,0,0,1-1.82.74,2,2,0,0,1-1.82-.82A4.61,4.61,0,0,1,74.64,8.07Z"/><path class="cls-1" d="M80.54,11.17V.13h3.7V1.58h-2V4.79h1.92V6.21H82.22V9.72h2.09v1.45Z"/><path class="cls-1" d="M0,24V13H1.32L3.66,19.6l-.12-3V13H5.05V24H3.86l-2.4-6.85.09,2.9v4Z"/><path class="cls-1" d="M6.2,24,7.78,13H10l1.67,11H10.1l-.26-2H8.06l-.24,2ZM9.66,20.7l-.74-5.55h0L8.22,20.7Z"/><path class="cls-1" d="M13.27,24V14.43H12V13h4.21v1.45H14.94V24Z"/><path class="cls-1" d="M21.34,23.42a2.22,2.22,0,0,1-1.85.72,2.26,2.26,0,0,1-1.86-.72,3.6,3.6,0,0,1-.58-2.24V13h1.68v8.18a4.07,4.07,0,0,0,.08,1.06,1.9,1.9,0,0,0,.2.34.6.6,0,0,0,.48.15.6.6,0,0,0,.52-.21A1,1,0,0,0,20.2,22a6,6,0,0,0,0-.81V13h1.68v8.21A3.53,3.53,0,0,1,21.34,23.42Z"/><path class="cls-1" d="M25.73,18.83l-.54,0V24H23.51V13h2.78a2,2,0,0,1,1.29.34,1.64,1.64,0,0,1,.56,1,8.06,8.06,0,0,1,.14,1.64,4.06,4.06,0,0,1-.22,1.53,1.17,1.17,0,0,1-.79.71,1,1,0,0,1,.8.77,10.76,10.76,0,0,1,.23,2.79A18.87,18.87,0,0,0,28.36,24H26.68c0-.08-.06-1.4-.06-4a1.8,1.8,0,0,0-.18-1A.87.87,0,0,0,25.73,18.83ZM25.2,17.5h.67a.65.65,0,0,0,.47-.15.8.8,0,0,0,.22-.49,7,7,0,0,0,.06-1.07v-.07a3,3,0,0,0-.15-1.18c-.11-.18-.34-.27-.7-.27H25.2Z"/><path class="cls-1" d="M29.85,24V13h3.7v1.44h-2v3.21h1.92v1.42H31.53v3.51h2.09V24Z"/><path class="cls-1" d="M36.76,24l1.58-11h2.22l1.67,11H40.66l-.26-2H38.62l-.24,2Zm3.46-3.31-.74-5.55h0l-.68,5.55Z"/><path class="cls-1" d="M43.39,24V13H44.7L47,19.6l-.12-3V13h1.51V24H47.24l-2.4-6.85.09,2.9v4Z"/><path class="cls-1" d="M50.08,24V13h2.48a2.09,2.09,0,0,1,1.77.71,3.51,3.51,0,0,1,.54,2.12v5a4.29,4.29,0,0,1-.55,2.45A2.11,2.11,0,0,1,52.5,24Zm1.68-1.3h.56a.77.77,0,0,0,.67-.3,2.07,2.07,0,0,0,.21-1.11V15.85A2.58,2.58,0,0,0,53,14.63a.76.76,0,0,0-.72-.36h-.5Z"/><path class="cls-1" d="M58.19,24l1.58-11H62l1.67,11H62.09l-.26-2H60.05l-.24,2Zm3.46-3.31-.74-5.55h0l-.68,5.55Z"/><path class="cls-1" d="M67,18.83l-.53,0V24H64.81V13h2.78a2,2,0,0,1,1.29.34,1.65,1.65,0,0,1,.57,1,8.16,8.16,0,0,1,.13,1.64,4.31,4.31,0,0,1-.21,1.53,1.2,1.2,0,0,1-.79.71,1,1,0,0,1,.79.77,10.76,10.76,0,0,1,.23,2.79A18.87,18.87,0,0,0,69.66,24H68c0-.08-.06-1.4-.06-4a1.8,1.8,0,0,0-.18-1A.86.86,0,0,0,67,18.83ZM66.5,17.5h.67a.67.67,0,0,0,.48-.15.86.86,0,0,0,.21-.49,7,7,0,0,0,.06-1.07v-.07a3,3,0,0,0-.15-1.18c-.1-.18-.33-.27-.7-.27H66.5Z"/><path class="cls-1" d="M75.24,23.37a2.46,2.46,0,0,1-3.62-.05A3.88,3.88,0,0,1,71,21v-4.8c0-1.65.43-2.67,1.29-3.08a2.55,2.55,0,0,1,1.16-.23c1.55,0,2.32,1,2.32,2.94V17.3H74.16V15.89A3.54,3.54,0,0,0,74,14.67a.55.55,0,0,0-.56-.37.58.58,0,0,0-.58.39,3.22,3.22,0,0,0-.17,1.19V21a3.74,3.74,0,0,0,.16,1.27.58.58,0,0,0,.57.39.56.56,0,0,0,.57-.39A3.63,3.63,0,0,0,74.16,21V19.44h1.65V21A4,4,0,0,1,75.24,23.37Z"/><path class="cls-1" d="M77.18,24V13h1.68v4.46h1.5V13H82V24H80.36V18.88h-1.5V24Z"/><path class="cls-1" d="M83.76,24V13h1.68V24Z"/><path class="cls-1" d="M87.72,24V14.43H86.43V13h4.21v1.45H89.4V24Z"/><path class="cls-1" d="M91.57,24V13h3.7v1.44h-2v3.21h1.92v1.42H93.25v3.51h2.09V24Z"/><path class="cls-1" d="M100.77,23.37a2.08,2.08,0,0,1-1.79.77,2.13,2.13,0,0,1-1.83-.82,4,4,0,0,1-.6-2.36v-4.8c0-1.65.43-2.67,1.29-3.08A2.54,2.54,0,0,1,99,12.85c1.55,0,2.33,1,2.33,2.94V17.3H99.7V15.89a3.54,3.54,0,0,0-.15-1.22A.55.55,0,0,0,99,14.3a.59.59,0,0,0-.59.39,3.49,3.49,0,0,0-.16,1.19V21a3.5,3.5,0,0,0,.16,1.27.56.56,0,0,0,.57.39.58.58,0,0,0,.57-.39A3.88,3.88,0,0,0,99.7,21V19.44h1.65V21A3.9,3.9,0,0,1,100.77,23.37Z"/><path class="cls-1" d="M103.28,24V14.43H102V13h4.2v1.45H105V24Z"/><path class="cls-1" d="M111.35,23.42a2.75,2.75,0,0,1-3.71,0,3.53,3.53,0,0,1-.58-2.24V13h1.68v8.18a4.07,4.07,0,0,0,.08,1.06,1.9,1.9,0,0,0,.2.34.6.6,0,0,0,.48.15.62.62,0,0,0,.52-.21,1.08,1.08,0,0,0,.19-.53q0-.32,0-.81V13h1.69v8.21A3.6,3.6,0,0,1,111.35,23.42Z"/><path class="cls-1" d="M115.74,18.83l-.54,0V24h-1.68V13h2.78a2,2,0,0,1,1.29.34,1.69,1.69,0,0,1,.56,1,8.16,8.16,0,0,1,.13,1.64,4.31,4.31,0,0,1-.21,1.53,1.17,1.17,0,0,1-.79.71,1,1,0,0,1,.8.77,10.91,10.91,0,0,1,.22,2.79,15.59,15.59,0,0,0,.07,2.28h-1.68c0-.08-.07-1.4-.07-4a1.93,1.93,0,0,0-.17-1A.89.89,0,0,0,115.74,18.83Zm-.53-1.33h.67a.65.65,0,0,0,.47-.15.86.86,0,0,0,.21-.49,7,7,0,0,0,.06-1.07v-.07a3,3,0,0,0-.15-1.18q-.15-.27-.69-.27h-.57Z"/><path class="cls-1" d="M119.85,24V13h3.7v1.44h-2v3.21h1.92v1.42h-1.92v3.51h2.1V24Z"/></g></g></svg>