<svg xmlns="http://www.w3.org/2000/svg" viewBox="0 0 46.72 71.9"><defs><style>.cls-1{fill:silver;}</style></defs><title>Asset 25</title><g id="Layer_2" data-name="Layer 2"><g id="illustrations"><path class="cls-1" d="M34.05,18.6h.05V12.77H24.18a12.63,12.63,0,0,0,2.2-6.72c0-5.46-2.11-6-3-6s-3,.59-3,6.05a12.54,12.54,0,0,0,2.2,6.72H12.62V18.6h.05c-.41.17-.81.35-1.2.55C4.61,22.54,0,28.79,0,35.93,0,43.47,5.12,50,12.62,53.24V59h1.55v7.16H18V59h2.73V71.9h5.67V59h1.93v7.16h3.86V59H34.1V53.23A23.86,23.86,0,0,0,40,49.58a18,18,0,0,0,6.68-13.65C46.72,28.38,41.57,21.84,34.05,18.6ZM21.68,6.05c0-3.25.85-4.71,1.68-4.71S25,2.8,25,6.05a11.18,11.18,0,0,1-1.68,5.51A11.18,11.18,0,0,1,21.68,6.05ZM24,53.19H22.69V18.6H24ZM7.37,35.86A21.17,21.17,0,0,1,16.18,18.6h2.55a19.88,19.88,0,0,0,.11,34.59H16.27A21.19,21.19,0,0,1,7.37,35.86ZM30.45,53.19H27.87A19.88,19.88,0,0,0,28,18.6h2.54a21.31,21.31,0,0,1-.08,34.59Z"/></g></g></svg>