<svg xmlns="http://www.w3.org/2000/svg" viewBox="0 0 90.9 105.06"><defs><style>.cls-1{fill:#d3362d;}.cls-2{fill:#ba2f28;}.cls-3{fill:#f55d51;}.cls-4{fill:#ed9c98;}.cls-5{fill:#404040;}.cls-6{fill:#505050;}.cls-7{fill:#e3ddcf;}.cls-8{fill:#d1c9b6;}.cls-9{fill:#f8f7f3;}.cls-10{fill:#eae6db;}.cls-11{fill:#303030;}.cls-12{fill:#dc4437;}.cls-13{fill:#f9b256;}</style></defs><title>Asset 12</title><g id="Layer_2" data-name="Layer 2"><g id="illustrations"><path class="cls-1" d="M75.37,78.09A15.55,15.55,0,0,1,59.82,93.64H32.12A15.56,15.56,0,0,1,16.56,78.09h0A15.56,15.56,0,0,1,32.12,62.54h27.7A15.55,15.55,0,0,1,75.37,78.09Z"/><path class="cls-2" d="M28.59,90.78a6,6,0,0,1-6,6h0a6,6,0,0,1-6-6V78.29a6,6,0,0,1,6-6h0a6,6,0,0,1,6,6Z"/><path class="cls-2" d="M75.37,90.78a6,6,0,0,1-6,6h0a6,6,0,0,1-6-6V78.29a6,6,0,0,1,6-6h0a6,6,0,0,1,6,6Z"/><path class="cls-1" d="M90.9,105.06H0c1.11-7.47,5.85-14.19,13-19.25a51.83,51.83,0,0,1,19.09-8.15l.61-.13a64.48,64.48,0,0,1,12.78-1.27,62.57,62.57,0,0,1,13,1.34c.58.11,1.16.24,1.74.37a51.2,51.2,0,0,1,17.88,8C85.13,91,89.8,97.64,90.9,105.06Z"/><path class="cls-3" d="M61.79,85.22c0,9.19-7,16.63-15.72,16.63H46l-.72,0c-8.3-.45-14.9-7.71-14.9-16.61a17.13,17.13,0,0,1,1.72-7.56l.61-.13a64.48,64.48,0,0,1,12.78-1.27,62.57,62.57,0,0,1,13,1.34l0-.07c.55.12,1.1.23,1.66.38,0,0,0,0,0,.06A17.43,17.43,0,0,1,61.79,85.22Z"/><path class="cls-4" d="M47.71,105.06h-15L13,85.81a51.83,51.83,0,0,1,19.09-8.15l.61-.13L45.59,101.2l.37.65Z"/><path class="cls-4" d="M78.22,85.81l-.12.12L58.52,105.06h-15l1.76-3.23.35-.63L58.48,77.6l0-.07c.55.12,1.1.23,1.66.38A51.4,51.4,0,0,1,78.22,85.81Z"/><path class="cls-5" d="M36.25,16c2,3.41-.74,8.61-6,11.61s-11.11,2.69-13-.72.74-8.6,6-11.61S34.31,12.64,36.25,16Z"/><path class="cls-5" d="M55.68,16c-2,3.41.74,8.61,6,11.61s11.11,2.69,13.05-.72-.74-8.6-6-11.61S57.62,12.64,55.68,16Z"/><path class="cls-5" d="M77.21,53.67c.35,2-4.73,4.55-11.36,5.73q-1.53.27-3,.42c-5.27.54-9.38-.2-9.68-1.87-.22-1.21,1.61-2.64,4.56-3.84H34.17c2.95,1.2,4.78,2.63,4.56,3.84-.17.93-1.5,1.57-3.58,1.87a30.19,30.19,0,0,1-9.06-.42c-6.63-1.18-11.72-3.74-11.37-5.73l0-.07A32.19,32.19,0,0,1,46,13.26a28.11,28.11,0,0,1,3.06.16A32.23,32.23,0,0,1,78.22,45.51a31.54,31.54,0,0,1-1,8.07A.36.36,0,0,1,77.21,53.67Z"/><path class="cls-6" d="M77.21,53.67c.35,2-4.73,4.55-11.36,5.73q-1.53.27-3,.42c-2.05-.3-3.41-.94-3.58-1.87-.2-1.21,1.61-2.64,4.57-3.84H40.28c3,1.2,4.77,2.63,4.57,3.84-.31,1.69-4.42,2.41-9.7,1.87-.95-.1-1.93-.24-2.95-.42-6.63-1.18-11.73-3.74-11.37-5.73a.21.21,0,0,1,0-.07A32.24,32.24,0,0,1,49,13.42,32.23,32.23,0,0,1,78.22,45.51a31.54,31.54,0,0,1-1,8.07A.36.36,0,0,1,77.21,53.67Z"/><path class="cls-7" d="M53.18,64.11v14A7.24,7.24,0,0,1,53,79.6h0a7.21,7.21,0,0,1-14.27-1.49v-14a8.24,8.24,0,0,1,0-.85A7.2,7.2,0,0,1,46,56.89a7.24,7.24,0,0,1,7.21,7.22Z"/><path class="cls-8" d="M61.8,40.28v15a16.89,16.89,0,0,1-6,13A13.77,13.77,0,0,1,53.18,70v6.43a13.66,13.66,0,0,1-2.12.16,15.35,15.35,0,0,1-11.19-4.87c-.39-.41-.77-.86-1.12-1.31-.17-.21-.33-.45-.5-.68a17.06,17.06,0,0,1-3-9.74V45a16.53,16.53,0,0,1,11-15.84,14.67,14.67,0,0,1,4.79-.78,15.1,15.1,0,0,1,7.67,2.09A16.9,16.9,0,0,1,61.8,40.28Z"/><path class="cls-9" d="M66.28,19.46C66.28,26.36,57,32,45.45,32s-20.83-5.6-20.83-12.5S34,7,45.45,7,66.28,12.56,66.28,19.46Z"/><path class="cls-1" d="M28.71,14.68a1.3,1.3,0,0,1-.6-.15L12,5.86a1.29,1.29,0,0,1,1.22-2.27l16.09,8.67a1.29,1.29,0,0,1-.62,2.42Z"/><path class="cls-1" d="M31.37,12.88a1.29,1.29,0,0,1-.86-.33L19,2.25a1.28,1.28,0,0,1-.1-1.82,1.27,1.27,0,0,1,1.81-.1l11.55,10.3a1.29,1.29,0,0,1-.86,2.25Z"/><path class="cls-7" d="M61.8,40.28v15a16.89,16.89,0,0,1-6,13A13.77,13.77,0,0,1,53.18,70a15.07,15.07,0,0,1-14.43,0,3.87,3.87,0,0,1-.5-.27A16.73,16.73,0,0,1,34.79,67a17,17,0,0,1-4.64-11.74v-15a16.53,16.53,0,0,1,11-15.84A14.94,14.94,0,0,1,46,23.66a15.43,15.43,0,0,1,11.19,4.87,13.38,13.38,0,0,1,1.57,2A16.9,16.9,0,0,1,61.8,40.28Z"/><path class="cls-10" d="M61.8,40.28v15a16.89,16.89,0,0,1-6,13,15.15,15.15,0,0,1-4.75.76,15.43,15.43,0,0,1-11.2-4.87,17,17,0,0,1-4.63-11.75v-15a16.92,16.92,0,0,1,6-13A14.94,14.94,0,0,1,46,23.66a15.43,15.43,0,0,1,11.19,4.87A17,17,0,0,1,61.8,40.28Z"/><path class="cls-11" d="M62.55,24.63A10.93,10.93,0,0,1,51.62,35.57H40.33A10.94,10.94,0,0,1,29.38,24.63a10.78,10.78,0,0,1,3.21-7.72q.39-.39.81-.75a10.93,10.93,0,0,1,6.93-2.46H51.62A10.93,10.93,0,0,1,62.55,24.63Z"/><path class="cls-5" d="M62.55,24.63a11,11,0,0,1-.95,4.47,10.91,10.91,0,0,1-6.93,2.47H43.38A10.94,10.94,0,0,1,32.45,20.62a10.71,10.71,0,0,1,.95-4.46,10.93,10.93,0,0,1,6.93-2.46H51.62A10.93,10.93,0,0,1,62.55,24.63Z"/><path class="cls-12" d="M59.79,24.59c.42,1.21.27,2.36-.47,2.88s-1.87.26-2.86-.56c-.55,1.16-1.47,1.87-2.37,1.71s-1.5-1.15-1.63-2.42c-1.2.42-2.35.27-2.87-.47s-.26-1.87.55-2.86c-1.15-.55-1.86-1.48-1.7-2.37s1.14-1.51,2.41-1.63c-.42-1.2-.27-2.36.48-2.87s1.87-.26,2.86.55c.55-1.15,1.47-1.86,2.36-1.7s1.51,1.14,1.63,2.42c1.21-.43,2.36-.28,2.88.47s.26,1.87-.55,2.86c1.15.55,1.86,1.47,1.7,2.36S61.06,24.47,59.79,24.59Z"/><path class="cls-1" d="M58,23.8a1.49,1.49,0,0,1-.28,1.75A1.49,1.49,0,0,1,56,25.21c-.34.7-.9,1.14-1.44,1s-.92-.7-1-1.47a1.49,1.49,0,0,1-1.75-.29,1.49,1.49,0,0,1,.34-1.75c-.71-.34-1.14-.9-1-1.44s.69-.92,1.47-1a1.49,1.49,0,0,1,.29-1.76,1.49,1.49,0,0,1,1.75.34c.33-.7.89-1.14,1.44-1s.92.7,1,1.48a1.51,1.51,0,0,1,1.76.28,1.51,1.51,0,0,1-.34,1.75c.7.34,1.13.9,1,1.44S58.77,23.72,58,23.8Z"/><path class="cls-13" d="M56.16,22.62a.41.41,0,1,1-.67.46c-.11.24-.29.38-.47.34s-.3-.22-.32-.48c-.25.09-.48.06-.58-.09a.5.5,0,0,1,.11-.57c-.23-.12-.37-.3-.34-.48a.5.5,0,0,1,.48-.32.51.51,0,0,1,.1-.58A.5.5,0,0,1,55,21c.11-.23.3-.37.47-.34s.3.23.33.49a.47.47,0,0,1,.57.09c.11.15.06.37-.11.57.23.12.37.3.34.48A.49.49,0,0,1,56.16,22.62Z"/></g></g></svg>