<svg xmlns="http://www.w3.org/2000/svg" viewBox="0 0 67.61 62.41"><defs><style>.cls-1{fill:silver;}</style></defs><title>Asset 26</title><g id="Layer_2" data-name="Layer 2"><g id="illustrations"><path class="cls-1" d="M16.66,23.28a2.21,2.21,0,0,0,1.39.5H20.8v3a6.94,6.94,0,0,0-4.14-1.11,9.52,9.52,0,0,0-2.21.25c-1.51.36-2.54,1.08-2.54,1.9,0,1.15,2,2.09,4.55,2.13a1.94,1.94,0,0,0-.52,1.27c0,1.91,3.44,3.47,7.68,3.47l.42,0a4.32,4.32,0,0,0,1,.13h8.31v9.32l-1.95,0-.55,0A8,8,0,0,0,25,47H49.51v-2.8a13.13,13.13,0,0,0,2.13.17c3.16,0,5.77-1.07,6.16-2.45a1.26,1.26,0,0,0,.05-.33c2.47-.29,4.4-1.18,4.93-2.32a1.7,1.7,0,0,0,.14-.63c0-1.18-1.47-2.2-3.61-2.71a1.21,1.21,0,0,0,.26-.52.69.69,0,0,0,0-.2c0-1.19-2.13-2.15-4.75-2.15a7.8,7.8,0,0,0-3.67.8,1.69,1.69,0,0,0-1.07,1.35h-.6v-.46a8.08,8.08,0,0,0-6.28-7.86v-1.2h1.61a10.19,10.19,0,0,0,4.85,1.06,9.67,9.67,0,0,0,5.15-1.24h0c2.53,0,4.6-.89,4.74-2a.57.57,0,0,0,0-.13c0-.79-1-1.49-2.38-1.85h0a9.86,9.86,0,0,0-4.58,0h0V17.23h.08a.86.86,0,0,0,.45.15h4.51a.77.77,0,0,0,.51-.2,12.44,12.44,0,0,0,3.11.38c2.92,0,5.37-.91,6-2.14h0a1.48,1.48,0,0,0,.17-.67c0-1.55-2.78-2.81-6.21-2.81a10,10,0,0,0-5,1.13h0a3.62,3.62,0,0,0-.63.49h-3V12.17a.68.68,0,0,0,0-.15c4.35-.35,7.68-2,7.82-4.09a.57.57,0,0,0,0-.13.51.51,0,0,0,0-.13h0c2.62,0,4.74-1,4.74-2.15a1.08,1.08,0,0,0-.21-.63A2.61,2.61,0,0,0,63.76,4,1.65,1.65,0,0,0,64,3.15a1.39,1.39,0,0,0-.09-.5,1.77,1.77,0,0,0-.34-.59C62.62.87,60.07,0,57.06,0s-5.38.81-6.42,2a1.73,1.73,0,0,0-.53,1.2,1.36,1.36,0,0,0,.08.39,19.67,19.67,0,0,0-3,.33,1.47,1.47,0,0,0,.22-.6V3.15c0-1.55-2.78-2.81-6.21-2.81A9.52,9.52,0,0,0,36,1.66a1.92,1.92,0,0,0-1,1.49,1.71,1.71,0,0,0,.69,1.27,18.48,18.48,0,0,0-7.51,2.05s0,0,0-.06c0-1.19-2.13-2.15-4.75-2.15a7.43,7.43,0,0,0-3.93,1h0a1.52,1.52,0,0,0-.81,1.2.38.38,0,0,0,0,.1c-.67-.06-1.35-.1-2.06-.1A14.69,14.69,0,0,0,9.13,8.16a3.07,3.07,0,0,0-1.71,2.42,2,2,0,0,0,.19.83A19.4,19.4,0,0,0,5.54,12C2.17,13.16,0,15,0,17.05c0,3.51,6.29,6.34,14.05,6.34C14.94,23.39,15.82,23.35,16.66,23.28Zm17.09,2.44H28.09V17.3c0-.05,0-.09,0-.14s0-.08,0-.11a3.53,3.53,0,0,0-1-2.37A13.31,13.31,0,0,0,30,14.1a19.84,19.84,0,0,0,4,1v2a2.42,2.42,0,0,0,.05.47,3,3,0,0,0-.05.53,2.78,2.78,0,0,0,2.78,2.78h.16a3.21,3.21,0,0,0-.33,1.41v4.44A4.56,4.56,0,0,0,33.75,25.72Zm9-6.76a2.74,2.74,0,0,0-2.63-3.66h-.05a19.62,19.62,0,0,0,6.71-1.66V19Z"/><path class="cls-1" d="M49.2,49.28H8.06c.26,5.18,7,9.64,16.73,11.78a61,61,0,0,0,13,1.35c1.15,0,2.27,0,3.38-.08a59.1,59.1,0,0,0,9.66-1.27c9.72-2.14,16.47-6.6,16.74-11.78Z"/></g></g></svg>