<svg xmlns="http://www.w3.org/2000/svg" viewBox="0 0 156.46 24.14"><defs><style>.cls-1{fill:#303030;}</style></defs><title>Asset 2</title><g id="Layer_2" data-name="Layer 2"><g id="illustrations"><path class="cls-1" d="M59.36,10.56a2,2,0,0,1-1.68.73A2.15,2.15,0,0,1,56,10.64a2.73,2.73,0,0,1-.6-1.91v-2H57V8.65c0,.61.09,1,.29,1.11a.58.58,0,0,0,.33.09.48.48,0,0,0,.5-.31,3,3,0,0,0,.12-1V.13H60V8.47A3.23,3.23,0,0,1,59.36,10.56Z"/><path class="cls-1" d="M61.05,11.17l1.57-11h2.22l1.67,11H65l-.27-2H62.9l-.24,2Zm3.46-3.32-.74-5.54h0l-.67,5.54Z"/><path class="cls-1" d="M67.67,11.17V.13H70.2A1.88,1.88,0,0,1,72,.91a4.72,4.72,0,0,1,.5,2.33v.23A5.34,5.34,0,0,1,72,6a1.81,1.81,0,0,1-1.73.85h-.91v4.35Zm1.68-5.74h.58A.67.67,0,0,0,70.62,5a4.91,4.91,0,0,0,.16-1.56V3.24a4.47,4.47,0,0,0-.17-1.4.65.65,0,0,0-.67-.42h-.59Z"/><path class="cls-1" d="M72.91,11.17l1.57-11H76.7l1.67,11H76.81l-.27-2H74.76l-.24,2Zm3.46-3.32-.74-5.54h0l-.67,5.54Z"/><path class="cls-1" d="M79.53,11.17V.13h1.32l2.33,6.62-.12-3V.13h1.52v11H83.39L81,4.31l.1,2.9v4Z"/><path class="cls-1" d="M86.23,11.17V.13h3.7V1.58h-2V4.79h1.92V6.21H87.91V9.72H90v1.45Z"/><path class="cls-1" d="M91.13,8.06v-1h1.59V8.19a3.58,3.58,0,0,0,.16,1.3.59.59,0,0,0,.59.37A.55.55,0,0,0,94,9.55a2.46,2.46,0,0,0,.14-1,2.74,2.74,0,0,0-.25-1.22,4.33,4.33,0,0,0-.79-1.08l-.82-.84a5.16,5.16,0,0,1-.89-1.23,3.32,3.32,0,0,1-.31-1.48,3.3,3.3,0,0,1,.52-2A2.22,2.22,0,0,1,93.46,0,1.87,1.87,0,0,1,95.2.77,4.6,4.6,0,0,1,95.65,3v.68H94.1V2.93A3.18,3.18,0,0,0,94,1.78a.52.52,0,0,0-.53-.35.63.63,0,0,0-.56.26,1.52,1.52,0,0,0-.17.79,1.81,1.81,0,0,0,.17.84,4.66,4.66,0,0,0,.64.81l.91,1a5.75,5.75,0,0,1,1,1.5,4,4,0,0,1,.35,1.66,4,4,0,0,1-.52,2.28,2.07,2.07,0,0,1-1.83.74,2,2,0,0,1-1.81-.82A4.62,4.62,0,0,1,91.13,8.06Z"/><path class="cls-1" d="M97,11.17V.13h3.71V1.58h-2V4.79h1.92V6.21H98.71V9.72h2.09v1.45Z"/><path class="cls-1" d="M0,24V13H1.32L3.66,19.6l-.12-3V13H5.05V24H3.86L1.45,17.16l.1,2.9v4Z"/><path class="cls-1" d="M6.2,24,7.78,13H10l1.67,11H10.1l-.26-2H8.06l-.24,2ZM9.66,20.7l-.74-5.55h0L8.22,20.7Z"/><path class="cls-1" d="M13.27,24V14.43H12V13h4.21v1.45H14.94V24Z"/><path class="cls-1" d="M17.18,24V13h1.68V24Z"/><path class="cls-1" d="M24.74,23.34a2.13,2.13,0,0,1-1.85.8,2.18,2.18,0,0,1-1.86-.8,4.08,4.08,0,0,1-.59-2.41v-5c0-2,.82-3,2.48-3a2.12,2.12,0,0,1,1.84.78,3.82,3.82,0,0,1,.56,2.26v5A4.06,4.06,0,0,1,24.74,23.34Zm-2.46-1a.58.58,0,0,0,.6.38.59.59,0,0,0,.61-.39A4.57,4.57,0,0,0,23.63,21V15.8a3.18,3.18,0,0,0-.15-1.14.55.55,0,0,0-.57-.36.63.63,0,0,0-.61.36,2.9,2.9,0,0,0-.17,1.14V21A4.16,4.16,0,0,0,22.28,22.3Z"/><path class="cls-1" d="M26.84,24V13h1.32L30.5,19.6l-.12-3V13h1.51V24H30.7l-2.4-6.85.09,2.9v4Z"/><path class="cls-1" d="M33,24l1.58-11h2.22l1.67,11H36.94l-.26-2H34.9l-.24,2Zm3.47-3.31-.74-5.55h0l-.68,5.55Z"/><path class="cls-1" d="M39.67,24V13h1.68v9.6h2.12V24Z"/><path class="cls-1" d="M47.3,24V14.43H46V13h4.21v1.45H49V24Z"/><path class="cls-1" d="M53.37,18.83l-.54,0V24H51.15V13h2.78a2,2,0,0,1,1.29.34,1.72,1.72,0,0,1,.56,1,7.89,7.89,0,0,1,.14,1.63,4.27,4.27,0,0,1-.22,1.53,1.17,1.17,0,0,1-.79.71,1,1,0,0,1,.8.77,10.91,10.91,0,0,1,.22,2.79A15.59,15.59,0,0,0,56,24H54.32c0-.08-.07-1.4-.07-4a1.82,1.82,0,0,0-.17-1A.89.89,0,0,0,53.37,18.83Zm-.53-1.33h.67a.65.65,0,0,0,.47-.15.86.86,0,0,0,.21-.49,7,7,0,0,0,.06-1.07v-.07a3,3,0,0,0-.15-1.18q-.15-.27-.69-.27h-.57Z"/><path class="cls-1" d="M57,24l1.58-11h2.22l1.67,11H60.88l-.26-2H58.84l-.24,2Zm3.46-3.31-.74-5.55h0L59,20.7Z"/><path class="cls-1" d="M63.6,24V13h2.48a2.07,2.07,0,0,1,1.76.71,3.44,3.44,0,0,1,.55,2.12v5a4.28,4.28,0,0,1-.56,2.45A2.08,2.08,0,0,1,66,24Zm1.68-1.3h.55a.76.76,0,0,0,.67-.3,2.07,2.07,0,0,0,.21-1.11V15.85a2.58,2.58,0,0,0-.21-1.22.77.77,0,0,0-.73-.36h-.49Z"/><path class="cls-1" d="M70,24V13h1.68V24Z"/><path class="cls-1" d="M73.93,24V14.43H72.64V13h4.21v1.45H75.61V24Z"/><path class="cls-1" d="M77.84,24V13h1.68V24Z"/><path class="cls-1" d="M85.4,23.34a2.12,2.12,0,0,1-1.84.8,2.19,2.19,0,0,1-1.87-.8,4.08,4.08,0,0,1-.59-2.41v-5c0-2,.83-3,2.48-3a2.11,2.11,0,0,1,1.84.78A3.82,3.82,0,0,1,86,15.88v5A4.06,4.06,0,0,1,85.4,23.34Zm-2.46-1a.67.67,0,0,0,1.21,0A4.57,4.57,0,0,0,84.29,21V15.8a3.48,3.48,0,0,0-.14-1.14.58.58,0,0,0-.58-.36.6.6,0,0,0-.6.36,2.69,2.69,0,0,0-.18,1.14V21A4.16,4.16,0,0,0,82.94,22.3Z"/><path class="cls-1" d="M87.5,24V13h1.32l2.34,6.62-.12-3V13h1.51V24H91.36L89,17.16l.09,2.9v4Z"/><path class="cls-1" d="M94,20.91v-1h1.59V21a3.58,3.58,0,0,0,.16,1.3.58.58,0,0,0,.59.37.56.56,0,0,0,.57-.3,2.52,2.52,0,0,0,.14-1,2.7,2.7,0,0,0-.25-1.21A4.22,4.22,0,0,0,96,19.1l-.82-.84A5,5,0,0,1,94.29,17,3.32,3.32,0,0,1,94,15.54a3.24,3.24,0,0,1,.52-2,2.21,2.21,0,0,1,1.82-.67,1.86,1.86,0,0,1,1.74.78,4.56,4.56,0,0,1,.45,2.26v.68H97v-.79a3.22,3.22,0,0,0-.14-1.15.52.52,0,0,0-.53-.35.61.61,0,0,0-.56.27,1.41,1.41,0,0,0-.17.79,1.7,1.7,0,0,0,.17.84,4.67,4.67,0,0,0,.64.8l.9,1a5.69,5.69,0,0,1,1,1.49,4,4,0,0,1,.34,1.66,4,4,0,0,1-.52,2.29,2.07,2.07,0,0,1-1.82.74,2,2,0,0,1-1.81-.83A4.61,4.61,0,0,1,94,20.91Z"/><path class="cls-1" d="M101.68,24l1.58-11h2.22l1.67,11h-1.57l-.26-2h-1.78l-.24,2Zm3.47-3.31-.74-5.55h0l-.68,5.55Z"/><path class="cls-1" d="M108.31,24V13h1.31L112,19.6l-.12-3V13h1.51V24h-1.19l-2.4-6.85.1,2.9v4Z"/><path class="cls-1" d="M115,24V13h2.48a2.09,2.09,0,0,1,1.77.71,3.51,3.51,0,0,1,.55,2.12v5a4.29,4.29,0,0,1-.55,2.45,2.1,2.1,0,0,1-1.82.77Zm1.68-1.3h.56a.76.76,0,0,0,.67-.3,2.07,2.07,0,0,0,.21-1.11V15.85a2.46,2.46,0,0,0-.21-1.22.75.75,0,0,0-.72-.36h-.5Z"/><path class="cls-1" d="M123.61,24V13h3.79v1.46h-2.11v2.93h2v1.47h-2V24Z"/><path class="cls-1" d="M128.61,24V13h1.68v9.6h2.12V24Z"/><path class="cls-1" d="M132.88,24l1.57-11h2.22l1.68,11h-1.57l-.26-2h-1.79l-.23,2Zm3.46-3.31-.74-5.55h0l-.67,5.55Z"/><path class="cls-1" d="M140.52,24l-1.71-11h1.6l.72,5,.45,3.51h0L142,18l.6-5h1.57L142.6,24Z"/><path class="cls-1" d="M149.51,23.34a2.13,2.13,0,0,1-1.85.8,2.17,2.17,0,0,1-1.86-.8,4,4,0,0,1-.59-2.41v-5c0-2,.82-3,2.47-3a2.13,2.13,0,0,1,1.85.78,3.82,3.82,0,0,1,.56,2.26v5A4.13,4.13,0,0,1,149.51,23.34Zm-2.46-1a.58.58,0,0,0,.6.38.59.59,0,0,0,.61-.39A4.57,4.57,0,0,0,148.4,21V15.8a3.18,3.18,0,0,0-.15-1.14.56.56,0,0,0-.57-.36.63.63,0,0,0-.61.36,2.9,2.9,0,0,0-.17,1.14V21A4.16,4.16,0,0,0,147.05,22.3Z"/><path class="cls-1" d="M153.83,18.83l-.54,0V24h-1.68V13h2.78a2,2,0,0,1,1.29.34,1.66,1.66,0,0,1,.56,1,7.89,7.89,0,0,1,.14,1.63,4.06,4.06,0,0,1-.22,1.53,1.17,1.17,0,0,1-.79.71,1,1,0,0,1,.8.77,10.76,10.76,0,0,1,.23,2.79,18.87,18.87,0,0,0,.06,2.28h-1.68c0-.08-.06-1.4-.06-4a1.8,1.8,0,0,0-.18-1A.87.87,0,0,0,153.83,18.83Zm-.53-1.33H154a.65.65,0,0,0,.47-.15.8.8,0,0,0,.21-.49,5.7,5.7,0,0,0,.07-1.07v-.07a2.91,2.91,0,0,0-.16-1.18q-.15-.27-.69-.27h-.57Z"/></g></g></svg>