<svg xmlns="http://www.w3.org/2000/svg" viewBox="0 0 109.73 48.99"><defs><style>.cls-1{fill:#ba2f28;}.cls-2{fill:#dc4437;}.cls-3{fill:#9d6c4e;}.cls-4{fill:#bd8c6d;}.cls-5{fill:#d3362d;}.cls-6{fill:#582a1a;}.cls-7{fill:#292929;}.cls-8{fill:#404040;}.cls-9{fill:#eae6db;}.cls-10{fill:#5f9653;}.cls-11{fill:#f9b256;}.cls-12{fill:#303030;}.cls-13{fill:#606060;}.cls-14{fill:#e8721b;}.cls-15{fill:#64a74a;}</style></defs><title>Asset 14</title><g id="Layer_2" data-name="Layer 2"><g id="illustrations"><path class="cls-1" d="M1.31,33.12,47,18.27a1.93,1.93,0,0,1,1.94.46,2,2,0,0,1,.46.76,1.88,1.88,0,0,1-1.22,2.39L2.49,36.74a1.92,1.92,0,0,1-2.4-1.22A2.05,2.05,0,0,1,0,34.64a2.18,2.18,0,0,1,.18-.58A1.92,1.92,0,0,1,1.31,33.12Z"/><path class="cls-2" d="M1.31,33.12,47,18.27a1.93,1.93,0,0,1,1.94.46,1.88,1.88,0,0,1-1.29,1.53L2,35.11A1.91,1.91,0,0,1,0,34.64a2.18,2.18,0,0,1,.18-.58A1.92,1.92,0,0,1,1.31,33.12Z"/><path class="cls-1" d="M5.79,27.81,51.52,13a1.91,1.91,0,0,1,1.93.47,1.82,1.82,0,0,1,.46.75,1.9,1.9,0,0,1-1.22,2.4L7,31.42a1.9,1.9,0,0,1-2.46-2.1,1.81,1.81,0,0,1,.18-.57A1.92,1.92,0,0,1,5.79,27.81Z"/><path class="cls-2" d="M53.45,13.42a1.77,1.77,0,0,1-.18.58,1.92,1.92,0,0,1-1.1.95L51.9,15,6.43,29.8a1.88,1.88,0,0,1-1.91-.46,0,0,0,0,1,0,0,1.9,1.9,0,0,1,.18-.57,1.92,1.92,0,0,1,1.11-.94h0l22.09-7.18L51.52,13A1.91,1.91,0,0,1,53.45,13.42Z"/><path class="cls-3" d="M109.73,16.11v7a1.51,1.51,0,0,1-.83,1.35L65.43,46.75l-4,2.07a1.63,1.63,0,0,1-.62.17H60.7a1.33,1.33,0,0,1-.28,0l-.17,0L20,36.37a1.5,1.5,0,0,1-1.07-1.45V27.51A1.51,1.51,0,0,1,20,26.06L53.29,15.77,68.61,11a1.74,1.74,0,0,1,.45-.06h.14l39.15,3.61A1.52,1.52,0,0,1,109.73,16.11Z"/><path class="cls-4" d="M108.61,13.88,69.46,3.24a1.39,1.39,0,0,0-.4-.06,1.61,1.61,0,0,0-.64.14L19.77,25.75A1.52,1.52,0,0,0,20,28.58L60.25,41.12a1.37,1.37,0,0,0,.45.07,1.49,1.49,0,0,0,.69-.16L108.9,16.7a1.52,1.52,0,0,0-.29-2.82Z"/><path d="M63.87,2.91v10.5h0c.1,1.62,4.34,2.92,9.55,2.92S82.89,15,83,13.41h0V2.91Z"/><path d="M50.3,8.1V18.6h0c.1,1.62,4.33,2.92,9.55,2.92s9.46-1.3,9.56-2.92h0V8.1Z"/><path d="M36.72,14.81v10.5h0c.1,1.61,4.34,2.92,9.56,2.92s9.46-1.31,9.56-2.92h0V14.81Z"/><path class="cls-5" d="M108,32.49v0c0,.05,0,.1,0,.15a14.53,14.53,0,0,1-2.54,8A12.39,12.39,0,0,1,95.24,46c-6.9,0-12.52-5.77-12.72-13.37v-.17c0-.43.47-.83,1.2-1.19,2-1,6.43-1.72,11.52-1.72C102.16,29.58,107.79,30.87,108,32.49Z"/><path class="cls-2" d="M108,32.49v0c0,.05,0,.1,0,.15a14.53,14.53,0,0,1-2.54,8,12.29,12.29,0,0,1-9,3.94c-6.87,0-12.47-5.71-12.72-13.25,2-1,6.43-1.72,11.52-1.72C102.16,29.58,107.79,30.87,108,32.49Z"/><path class="cls-1" d="M108,32.57s0,0,0,.09a1.33,1.33,0,0,1-.69.89,5.74,5.74,0,0,1-1.14.57,24.49,24.49,0,0,1-6.27,1.23c-1.43.13-3,.21-4.62.21l-1.19,0c-4.32-.09-8-.69-10-1.55a4.77,4.77,0,0,1-.91-.49,1.37,1.37,0,0,1-.63-.84v-.17c.06-.46.56-.9,1.4-1.29,1.85-.84,5.39-1.45,9.57-1.59.57,0,1.16,0,1.76,0,.93,0,1.84,0,2.71.06,4.54.24,8.19,1,9.5,2.07a1.18,1.18,0,0,1,.51.78v0S108,32.55,108,32.57Z"/><path class="cls-6" d="M106.13,34.12a24.49,24.49,0,0,1-6.27,1.23c-1.43.13-3,.21-4.62.21l-1.19,0c-4.32-.09-8-.69-10-1.55,1.22-1.15,5.67-2,11-2C100.53,32,105.11,32.91,106.13,34.12Z"/><path class="cls-7" d="M55.86,14.87v10.5h0a1.57,1.57,0,0,1-.75,1.11,12.19,12.19,0,0,1-5.72,1.4c-6.2,0-11.23-4.51-11.23-10.07a8.72,8.72,0,0,1,.49-2.94Z"/><path class="cls-7" d="M69.43,8V18.5h0a1.61,1.61,0,0,1-.76,1.12A12.3,12.3,0,0,1,63,21c-6.21,0-11.24-4.52-11.24-10.08A8.92,8.92,0,0,1,52.2,8Z"/><path class="cls-7" d="M83,3.18v10.5h0a1.58,1.58,0,0,1-.76,1.11,12.16,12.16,0,0,1-5.71,1.41c-6.21,0-11.24-4.52-11.24-10.08a9,9,0,0,1,.49-2.94Z"/><path class="cls-8" d="M55.86,14.87c0,1.64-4.29,3-9.57,3s-9.57-1.33-9.57-3,4.29-3,9.57-3S55.86,13.23,55.86,14.87Z"/><path class="cls-9" d="M55.21,14.75c0,1.39-4,2.51-9,2.51s-9-1.12-9-2.51,4-2.51,9-2.51S55.21,13.37,55.21,14.75Z"/><path class="cls-2" d="M50.3,14.37c0,.63-1.83,1.14-4.08,1.14s-4.07-.51-4.07-1.14,1.82-1.13,4.07-1.13S50.3,13.75,50.3,14.37Z"/><path class="cls-10" d="M55.67,33.24a2,2,0,0,1-.06.34c-.71,3.05-4.42,1.94-8.9.88s-8-1.66-7.31-4.71a5.14,5.14,0,0,1,3.79-3.5,10.9,10.9,0,0,1,5.61-.1C53.11,27.17,56.1,30.28,55.67,33.24Z"/><path class="cls-8" d="M69.43,8.16c0,1.64-4.28,3-9.57,3s-9.56-1.34-9.56-3,4.28-3,9.56-3S69.43,6.52,69.43,8.16Z"/><path class="cls-9" d="M68.79,8.05c0,1.38-4,2.51-9,2.51s-9-1.13-9-2.51,4-2.51,9-2.51S68.79,6.66,68.79,8.05Z"/><path class="cls-11" d="M63.87,7.67c0,.62-1.83,1.13-4.08,1.13s-4.07-.51-4.07-1.13,1.82-1.14,4.07-1.14S63.87,7,63.87,7.67Z"/><path class="cls-8" d="M83,3c0,1.65-4.28,3-9.57,3s-9.56-1.33-9.56-3,4.28-3,9.56-3S83,1.33,83,3Z"/><path class="cls-9" d="M82.36,2.86c0,1.39-4,2.51-9,2.51s-9-1.12-9-2.51,4-2.51,9-2.51S82.36,1.47,82.36,2.86Z"/><path class="cls-10" d="M77.44,2.48c0,.63-1.82,1.14-4.07,1.14s-4.08-.51-4.08-1.14,1.82-1.14,4.08-1.14S77.44,1.85,77.44,2.48Z"/><path class="cls-12" d="M81.59,7.66v10.5h0c.1,1.61,4.33,2.91,9.55,2.91s9.46-1.3,9.56-2.91h0V7.66Z"/><path class="cls-12" d="M68,14.37V24.86h0c.11,1.62,4.34,2.92,9.56,2.92s9.46-1.3,9.56-2.92h0V14.37Z"/><path class="cls-12" d="M73.58,21.08v10.5h0a1.62,1.62,0,0,1-.76,1.11c-1.46,1.05-4.85,1.8-8.81,1.8-5.21,0-9.45-1.3-9.55-2.91h0V21.08Z"/><path class="cls-8" d="M73.58,21.08v10.5h0a1.62,1.62,0,0,1-.76,1.11,12.18,12.18,0,0,1-5.71,1.4c-6.21,0-11.24-4.51-11.24-10.07a8.72,8.72,0,0,1,.49-2.94Z"/><path class="cls-8" d="M87.15,14.13v10.5h0a1.62,1.62,0,0,1-.76,1.11,12.15,12.15,0,0,1-5.71,1.4c-6.21,0-11.24-4.51-11.24-10.07a9,9,0,0,1,.49-2.94Z"/><path class="cls-8" d="M100.72,7.62v10.5h0a1.56,1.56,0,0,1-.75,1.11,12.23,12.23,0,0,1-5.72,1.41C88,20.64,83,16.12,83,10.56a9,9,0,0,1,.49-2.94Z"/><path class="cls-13" d="M73.57,21.13c0,1.65-4.28,3-9.56,3s-9.57-1.33-9.57-3,4.29-3,9.57-3S73.57,19.49,73.57,21.13Z"/><path class="cls-9" d="M72.93,21c0,1.38-4,2.51-9,2.51s-9-1.13-9-2.51,4-2.51,9-2.51S72.93,19.63,72.93,21Z"/><path class="cls-11" d="M68,20.64c0,.63-1.82,1.13-4.07,1.13s-4.08-.5-4.08-1.13,1.83-1.14,4.08-1.14S68,20,68,20.64Z"/><path class="cls-13" d="M87.15,14.42c0,1.65-4.29,3-9.57,3S68,16.07,68,14.42s4.29-3,9.57-3S87.15,12.78,87.15,14.42Z"/><path class="cls-9" d="M86.51,14.31c0,1.39-4,2.51-9,2.51s-9-1.12-9-2.51,4-2.51,9-2.51S86.51,12.92,86.51,14.31Z"/><path class="cls-14" d="M81.59,13.93c0,.63-1.83,1.14-4.08,1.14s-4.07-.51-4.07-1.14,1.82-1.14,4.07-1.14S81.59,13.3,81.59,13.93Z"/><path class="cls-13" d="M100.72,7.72c0,1.64-4.28,3-9.57,3s-9.56-1.33-9.56-3,4.28-3,9.56-3S100.72,6.07,100.72,7.72Z"/><path class="cls-9" d="M100.08,7.6c0,1.39-4,2.51-9,2.51s-9-1.12-9-2.51,4-2.51,9-2.51S100.08,6.22,100.08,7.6Z"/><path class="cls-11" d="M95.16,7.22c0,.63-1.83,1.14-4.08,1.14S87,7.85,87,7.22s1.82-1.14,4.07-1.14S95.16,6.59,95.16,7.22Z"/><path class="cls-15" d="M55.67,33.24A33.48,33.48,0,0,1,50,32.16c-4.47-1.06-8-1.66-7.32-4.7a3.94,3.94,0,0,1,.51-1.21,10.9,10.9,0,0,1,5.61-.1C53.11,27.17,56.1,30.28,55.67,33.24Z"/></g></g></svg>