<svg xmlns="http://www.w3.org/2000/svg" viewBox="0 0 78.88 70.47"><defs><style>.cls-1{fill:#404040;}.cls-2{fill:#505050;}.cls-3{fill:#606060;}</style></defs><title>Asset 15</title><g id="Layer_2" data-name="Layer 2"><g id="illustrations"><path class="cls-1" d="M4.79,37A23.75,23.75,0,0,1,24.47,0H40A23.74,23.74,0,0,1,60.24,36.16l-3.22-2A20,20,0,0,0,40,3.78H24.47A20,20,0,0,0,7.92,34.89Z"/><path class="cls-1" d="M50.1,62.91c0,4.18-8.54,7.56-19.07,7.56S12,67.09,12,62.91,20.51,55.35,31,55.35,50.1,58.73,50.1,62.91Z"/><path class="cls-2" d="M62.7,43.21c0,6-2.9,11.59-7.69,15.82-5.74,5.08-14.21,8.29-23.67,8.29C14,67.32,0,56.53,0,43.21,0,34.74,5.7,27.28,14.3,23a38.16,38.16,0,0,1,17-3.88C48.66,19.12,62.7,29.9,62.7,43.21Z"/><path class="cls-3" d="M62.7,43.21c0,6-2.9,11.59-7.69,15.82a38.1,38.1,0,0,1-17,3.88C20.66,62.91,6.62,52.12,6.62,38.8c0-6,2.9-11.57,7.68-15.8a38.16,38.16,0,0,1,17-3.88C48.66,19.12,62.7,29.9,62.7,43.21Z"/><path class="cls-1" d="M50.1,23.21a3.91,3.91,0,0,1-1.29,2.72c-2.76,2.84-9.68,4.84-17.77,4.84C20.51,30.77,12,27.38,12,23.21c0-1.46,1-2.82,2.86-4C18.2,17.09,24.2,15.65,31,15.65,41.56,15.65,50.1,19,50.1,23.21Z"/><path class="cls-2" d="M50.1,23.21a3.91,3.91,0,0,1-1.29,2.72c-3.36,2.15-9.36,3.58-16.21,3.58-10.52,0-19-3.39-19-7.56a3.89,3.89,0,0,1,1.28-2.72C18.2,17.09,24.2,15.65,31,15.65,41.56,15.65,50.1,19,50.1,23.21Z"/><path class="cls-1" d="M78.88,32.2c-.11.44-.22.88-.36,1.31A23.51,23.51,0,0,1,56.74,49.8c-.06,0-.11,0-.19,0l-.11,0-.52,0v-.11c-1.7-.54-3-3.17-3-6.35A8.68,8.68,0,0,1,54.51,38a2.68,2.68,0,0,1,2-1.13,2.19,2.19,0,0,1,.76.15c5.31-.1,11.5-1,13.9-4.86Z"/><path class="cls-2" d="M78.88,32.2c-.11.44-.22.88-.36,1.31A23.58,23.58,0,0,1,58.16,46.34l-.19,0h-.63v-.1c-1.7-.54-3-3.16-3-6.35A11.42,11.42,0,0,1,54.51,38a2.68,2.68,0,0,1,2-1.13,2.19,2.19,0,0,1,.76.15c5.31-.1,11.5-1,13.9-4.86Z"/><path class="cls-1" d="M35.76,16.28c0,1.3-1.9,2.36-4.25,2.36s-4.26-1.06-4.26-2.36,1.91-2.36,4.26-2.36S35.76,15,35.76,16.28Z"/></g></g></svg>