<svg xmlns="http://www.w3.org/2000/svg" viewBox="0 0 55.08 56.2"><defs><style>.cls-1{fill:#ba2f28;}.cls-2{fill:#d3362d;}.cls-3{fill:#dc4437;}.cls-4{fill:#eae6db;}.cls-5{fill:#f8f7f3;}.cls-6{fill:#e3ddcf;}.cls-7{fill:#ad7c5e;}.cls-8{fill:#cd9c7d;}</style></defs><title>Asset 16</title><g id="Layer_2" data-name="Layer 2"><g id="illustrations"><path class="cls-1" d="M41.15,52.7c0,.41-.31.81-.89,1.18-2.09,1.35-7.62,2.32-14.12,2.32-8.29,0-15-1.57-15-3.5,0-.79,1.08-1.5,2.92-2.09a43.71,43.71,0,0,1,12.08-1.43C34.43,49.18,41.15,50.76,41.15,52.7Z"/><path class="cls-2" d="M41.15,52.7c0,.41-.31.81-.89,1.18a43.25,43.25,0,0,1-12.07,1.43c-8.29,0-15-1.58-15-3.51,0-.41.31-.81.88-1.19a43.71,43.71,0,0,1,12.08-1.43C34.43,49.18,41.15,50.76,41.15,52.7Z"/><path class="cls-2" d="M52.31,31.58v0c0,.09,0,.17,0,.26a22.69,22.69,0,0,1-5.23,13.84,26.93,26.93,0,0,1-20.92,9.45C12,55.17.43,45.12,0,31.88v-.3c.09-.74,1-1.44,2.47-2.07,4.18-1.77,13.21-3,23.67-3C40.37,26.52,52,28.77,52.31,31.58Z"/><path class="cls-3" d="M52.31,31.58v0c0,.09,0,.17,0,.26a22.69,22.69,0,0,1-5.23,13.84,27.38,27.38,0,0,1-18.46,6.87c-14.1,0-25.6-9.94-26.13-23.08,4.18-1.77,13.21-3,23.67-3C40.37,26.52,52,28.77,52.31,31.58Z"/><path class="cls-1" d="M52.31,31.59v.13a.92.92,0,0,1,0,.16c-.08.54-.57,1.06-1.42,1.54a12,12,0,0,1-2,.89,56.73,56.73,0,0,1-13.21,2.26c-2.94.23-6.14.35-9.49.35-.82,0-1.63,0-2.44,0C15,36.74,7.53,35.73,3.41,34.29a11.8,11.8,0,0,1-2.11-.95A2.41,2.41,0,0,1,0,31.88c0-.06,0-.11,0-.16a.34.34,0,0,1,0-.1v0c.1-.81,1.12-1.57,2.87-2.24A29.75,29.75,0,0,1,7.7,28a92.27,92.27,0,0,1,14.84-1.47c1.18,0,2.39-.05,3.61-.05,1.92,0,3.78,0,5.57.12A87.93,87.93,0,0,1,44.53,28a20,20,0,0,1,6.71,2.22A2.07,2.07,0,0,1,52.31,31.59Z"/><path class="cls-4" d="M48.85,34.31a56.73,56.73,0,0,1-13.21,2.26c-2.94.23-6.14.35-9.49.35-.82,0-1.63,0-2.44,0A100.66,100.66,0,0,1,9.4,35.71a38.27,38.27,0,0,1-6-1.42C3.49,32,5.06,29.8,7.7,28c4.12-2.77,10.84-4.57,18.43-4.57,1.05,0,2.08,0,3.08.1C35.5,24,41,25.64,44.53,28,47.19,29.79,48.78,32,48.85,34.31Z"/><path class="cls-5" d="M48.85,34.31a56.73,56.73,0,0,1-13.21,2.26c-2.94.23-6.14.35-9.49.35-.82,0-1.63,0-2.44,0A100.66,100.66,0,0,1,9.4,35.71c.11-2.61,1.69-5,4.28-7,3.59-2.75,9.15-4.67,15.53-5.12C35.5,24,41,25.64,44.53,28,47.19,29.79,48.78,32,48.85,34.31Z"/><path class="cls-4" d="M32.64,32.82c.35.62-.33,1.67-1.51,2.35s-2.44.74-2.79.13.32-1.67,1.51-2.35S32.28,32.21,32.64,32.82Z"/><path class="cls-4" d="M44.33,34.28c-.26.66-1.5.79-2.77.29s-2.1-1.44-1.84-2.1,1.5-.79,2.77-.29S44.59,33.62,44.33,34.28Z"/><path class="cls-4" d="M17.57,31.22c.32.63-.4,1.65-1.62,2.27s-2.47.62-2.79,0,.4-1.65,1.62-2.27S17.25,30.59,17.57,31.22Z"/><path class="cls-4" d="M28.57,31c.28.65-.5,1.62-1.75,2.17s-2.5.48-2.78-.17.49-1.62,1.74-2.17S28.28,30.36,28.57,31Z"/><path class="cls-4" d="M37,30.51c-.26.66-1.5.8-2.78.3s-2.1-1.43-1.85-2.09,1.5-.79,2.78-.3S37.24,29.85,37,30.51Z"/><path class="cls-4" d="M23.31,29.32c-.25.66-1.49.79-2.77.3s-2.1-1.43-1.85-2.09,1.5-.8,2.78-.3S23.57,28.66,23.31,29.32Z"/><path class="cls-4" d="M23.14,35.13c-.25.66-1.49.79-2.77.3s-2.1-1.43-1.85-2.09,1.5-.8,2.78-.3S23.4,34.47,23.14,35.13Z"/><path class="cls-6" d="M14.92,28.15c.27.65-.53,1.61-1.79,2.14s-2.51.43-2.78-.23.52-1.61,1.78-2.14S14.64,27.49,14.92,28.15Z"/><path class="cls-6" d="M10.33,33.93c-.26.66-1.5.79-2.78.3s-2.1-1.43-1.84-2.09,1.49-.79,2.77-.3S10.58,33.27,10.33,33.93Z"/><path class="cls-7" d="M45.06,2.3,35.13,29.51l-.76,2.07a1.9,1.9,0,0,1-1.1.35h-1a1.89,1.89,0,0,1-1.36-.76l1.11-3,9.86-27a1.73,1.73,0,0,1,2.2-1,1.91,1.91,0,0,1,.66.44A1.86,1.86,0,0,1,45,1,1.65,1.65,0,0,1,45.06,2.3Z"/><path class="cls-8" d="M45.06,2.3,35.13,29.51l-.76,2.07a1.9,1.9,0,0,1-1.1.35h-1l1.39-3.81L43.3,1.65A1.72,1.72,0,0,1,44.71.54,1.86,1.86,0,0,1,45,1,1.65,1.65,0,0,1,45.06,2.3Z"/><path class="cls-7" d="M54.81,7,40.38,29.69,39,31.85a1.77,1.77,0,0,1-.52.08h-1a1.77,1.77,0,0,1-.61-.16,1.81,1.81,0,0,1-.74-.6,1.63,1.63,0,0,1-.32-.61l1.55-2.44L51.93,5.16a1.72,1.72,0,0,1,2.91,0,1.64,1.64,0,0,1,.2.5A1.75,1.75,0,0,1,54.81,7Z"/><path class="cls-8" d="M54.81,7,40.38,29.69,39,31.85a1.77,1.77,0,0,1-.52.08h-1a1.77,1.77,0,0,1-.61-.16l2.26-3.58L53.23,6a1.71,1.71,0,0,1,1.61-.78,1.64,1.64,0,0,1,.2.5A1.75,1.75,0,0,1,54.81,7Z"/></g></g></svg>