<svg xmlns="http://www.w3.org/2000/svg" xmlns:xlink="http://www.w3.org/1999/xlink" viewBox="0 0 505.72 175.06"><defs><style>.cls-1{fill:none;}.cls-2{isolation:isolate;}.cls-3{clip-path:url(#clip-path);}.cls-4{fill:#f19b2c;}.cls-5{fill:#64a74a;}.cls-6{fill:#5f9653;}.cls-7{fill:#ad7c5e;}.cls-8{fill:#9d6c4e;}.cls-9{fill:#d53d33;}.cls-10{fill:#455556;}.cls-11{fill:#354546;}.cls-12{fill:#f8f7f3;}.cls-13{fill:#d5e5e6;mix-blend-mode:multiply;}.cls-14{fill:#c3bbab;}.cls-15{fill:#aaa193;}.cls-16{fill:#d3362d;}.cls-17{fill:#eca402;}.cls-18{fill:#dc4437;}.cls-19{fill:#dcd5c3;}.cls-20{fill:#a69b88;}.cls-21{fill:#91877a;}.cls-22{fill:#857a6e;}.cls-23{fill:#b51f18;}.cls-24{fill:#c52e25;}.cls-25{fill:#5f534a;}.cls-26{fill:#53463e;}.cls-27{fill:#6c6056;}.cls-28{fill:#b7ae9f;}.cls-29{fill:#fdac9e;}.cls-30{fill:#fd8c7f;}.cls-31{fill:#eae6db;}.cls-32{fill:#cd9c7d;}.cls-33{fill:#582a1a;}.cls-34{fill:#feccbd;}.cls-35{fill:#fff;}</style><clipPath id="clip-path" transform="translate(0 -33.57)"><rect class="cls-1" x="11.59" width="449.33" height="225"/></clipPath></defs><title>Asset 7</title><g class="cls-2"><g id="Layer_2" data-name="Layer 2"><g id="illustrations"><g class="cls-3"><path class="cls-4" d="M67.19,72.49a16.36,16.36,0,0,1-12.28-9.57V61.06a.6.6,0,0,0-1.19,0v2.13c-4.86,10.38-16.07,9.64-16.07,9.64s.47,1,3.88,1.92l.74.18v25.78H40.36v3.17H66.77v-3.17h-1V75.07l.12,0c.48-.09.92-.2,1.32-.3,3.42-.88,3.88-1.92,3.88-1.92A17.26,17.26,0,0,1,67.19,72.49ZM62.87,94.36H45.19V94H62.87Zm-2,3.18h-.92v.79h-.51v-.79h-.88v-.72h.88V96h.51v.8h.92Zm0,.47v.32H60.4V98Zm-2.31,0h.41v.32h-.41Zm-1.1-3.18h1.51v.72h-.88v.79h-.63Zm2.49.72h-.51v-.72h.51Zm-1,.47v.32h-.41V96Zm1.46.32V96h.44v.32Zm0-.79v-.72h1.51v1.51h-.6v-.79Zm-5.67,2h-.91v.79h-.51v-.79h-.88v-.72h.88V96h.51v.8h.91Zm0,.47v.32H54.3V98Zm-2.3,0h.41v.32h-.41Zm-1.1-3.18h1.51v.72H52v.79h-.62Zm2.49.72h-.51v-.72h.51Zm-1,.47v.32h-.41V96Zm1.46.32V96h.43v.32Zm0-.79v-.72h1.51v1.51h-.6v-.79Zm-5.71,2h-.91v.79h-.51v-.79h-.89v-.72h.89V96h.51v.8h.91Zm0,.47v.32h-.43V98Zm-2.31,0h.41v.32h-.41Zm1.4-2.46h-.51v-.72h.51Zm-1,0h-.88v.79h-.62V94.83h1.5Zm0,.47v.32h-.41V96Zm1.47.32V96h.43v.32Zm0-.79v-.72h1.51v1.51h-.6v-.79Zm-3,1.27h.62v.72h-.62Zm0,1.19h.62v.79h.88v.72h-1.5Zm2,.79h.51v.72h-.51Zm1,0h.91V98h.6v1.51H48.16Zm.91-1.26v-.72h1.07v-2h.71v2H52v.72h-1.1v2h-.71v-2Zm2.26.47H52v.79h.89v.72H51.33Zm2,.79h.51v.72h-.51Zm1,0h.91V98h.6v1.51H54.3Zm.91-1.26v-.72h1.07v-2H57v2h1.11v.72H57v2h-.67v-2Zm2.22.47h.63v.79h.88v.72H57.43Zm2,.79h.51v.72h-.51Zm1,0h.91V98h.6v1.51H60.4Zm.91-1.26v-.72h1.07v-2h.49v4.69h-.49v-2ZM63.1,78.05V93.53H45V75.39c1.08.15,2.32.28,3.75.37,1.62.11,3.48.17,5.61.18h.13c2.13,0,4-.07,5.61-.18,1.13-.07,2.15-.17,3.05-.28ZM54.21,63.79h0l-.06.22A2.25,2.25,0,0,0,54.21,63.79ZM63.1,73.4l-.51-.24L62,72.85l0,0c-.2-.11-.41-.22-.6-.34l-.29-.18A17.19,17.19,0,0,0,63.1,73.4Zm-2.44-1.32-.45-.32-.08-.05h0ZM60,71.63l-.31-.23-.06-.05Zm-4.71-5.72a2.87,2.87,0,0,1-.18-.4l-.05-.11C55.15,65.57,55.23,65.74,55.31,65.91ZM55,65.17a.17.17,0,0,0,0,0v0ZM47.8,72.26q-.48.3-1,.57Q47.32,72.56,47.8,72.26ZM45,73.7h0A0,0,0,0,0,45,73.7Zm.24,27V100H62.87v.72Z" transform="translate(0 -33.57)"/><rect class="cls-4" x="37.46" y="71.42" width="31.83" height="3.18"/><path class="cls-4" d="M117.52,100.07c-.76.18-1.58.34-2.47.49v21.83h-4.31V101.14A159.35,159.35,0,0,1,91,101.7,148.71,148.71,0,0,1,69.86,101v21.42H65V100.18c-.91-.2-1.73-.41-2.48-.63v22.84H58.62v5.23h61.46v-5.23h-2.56Zm-17,4.45h5.64V116.9h-5.64Zm-25.46,0h5.64V116.9H75.09Zm11.43,17.87V104.52h4.16v17.87Zm4.86,0V104.52h4.16v17.87Z" transform="translate(0 -33.57)"/><path class="cls-4" d="M108,82.56h-.12V65.5c-3,.88-8.06,1.48-16.86,1.28-8.86.2-14-.4-16.92-1.29V82.56H74s-11.36,13.14-19,6.73A6.3,6.3,0,0,0,58,94.19c2,1.36,5.54,2.63,11.85,3.41,1.41.17,3,.33,4.64.44,4.41.32,9.83.44,16.53.28,6.91.16,12.47,0,17-.31,1-.07,1.89-.15,2.76-.25,7.23-.75,11.15-2.11,13.31-3.57a6.25,6.25,0,0,0,2.92-4.9C119.37,95.7,108,82.56,108,82.56Zm-9.13-12h4.47v9.8H98.88Zm-6.69,0h4.47v9.8H92.19Zm-6.53,0h4.47v9.8H85.66Zm-7,0h4.47v9.8H78.71Z" transform="translate(0 -33.57)"/><path class="cls-4" d="M71.5,62.33a9.37,9.37,0,0,0,2.61,1.17,34.06,34.06,0,0,0,7.15,1.12c2.6.18,5.81.25,9.77.16,4.09.1,7.37,0,10-.18a33.56,33.56,0,0,0,6.84-1.09,9.57,9.57,0,0,0,2.67-1.18,3.7,3.7,0,0,0,1.72-2.89c-4.49,3.79-11.21-4-11.21-4h-4L91,45.4,85,55.46H81s-6.71,7.77-11.21,4A3.72,3.72,0,0,0,71.5,62.33ZM91,49.63l3.5,5.83h-7Z" transform="translate(0 -33.57)"/><path class="cls-4" d="M456.75,88.25c-.76.17-1.59.33-2.48.49v21.83H450V89.32a157.83,157.83,0,0,1-19.72.55,147.42,147.42,0,0,1-21.16-.72v21.42h-4.85V88.35c-.91-.19-1.73-.4-2.48-.62v22.84h-3.92v5.23h61.47v-5.23h-2.56Zm-17,4.45h5.64v12.37h-5.64Zm-25.46,0H420v12.37h-5.64Zm11.43,17.87V92.7h4.15v17.87Zm4.86,0V92.7h4.16v17.87Z" transform="translate(0 -33.57)"/><path class="cls-4" d="M447.24,70.74h-.12V53.68c-3,.88-8.06,1.48-16.87,1.28-8.85.2-13.94-.41-16.91-1.3V70.74h-.07s-11.36,13.13-19,6.73a6.28,6.28,0,0,0,2.92,4.9c2,1.36,5.55,2.63,11.86,3.41,1.4.17,2.94.32,4.64.44,4.4.32,9.83.43,16.52.28,6.92.16,12.48,0,17-.31,1-.07,1.88-.16,2.76-.25,7.22-.76,11.15-2.11,13.3-3.57a6.3,6.3,0,0,0,2.93-4.9C458.6,83.87,447.24,70.74,447.24,70.74Zm-9.13-12h4.46v9.81h-4.46Zm-6.69,0h4.47v9.81h-4.47Zm-6.53,0h4.47v9.81h-4.47Zm-6.95,0h4.46v9.81h-4.46Z" transform="translate(0 -33.57)"/><path class="cls-4" d="M410.72,50.51a9.47,9.47,0,0,0,2.62,1.16,33.4,33.4,0,0,0,7.14,1.12c2.61.19,5.82.26,9.77.17,4.1.09,7.38,0,10-.18a32.75,32.75,0,0,0,6.84-1.1,9.44,9.44,0,0,0,2.67-1.17,3.7,3.7,0,0,0,1.72-2.89c-4.5,3.79-11.21-4-11.21-4h-4l-6.06-10.07L424.2,43.64h-4s-6.71,7.77-11.21,4A3.7,3.7,0,0,0,410.72,50.51ZM430.25,37.8l3.51,5.84h-7Z" transform="translate(0 -33.57)"/><path class="cls-4" d="M344.12,138.63a2,2,0,0,0,1.55,1h3.06v6.22a5.52,5.52,0,0,0-4.61-2.27,6.32,6.32,0,0,0-2.46.5,4.38,4.38,0,0,0-2.85,3.88c0,2.34,2.25,4.26,5.08,4.35a6.12,6.12,0,0,0-.58,2.58c0,3.9,3.84,7.07,8.57,7.07.16,0,.31,0,.47,0a2.79,2.79,0,0,0,1.14.26h9.26v19l-2.18.09-.61,0c-2.65.12-5,2.32-6.59,5.71h27.38V181.3a8,8,0,0,0,2.38.36c3.52,0,6.44-2.18,6.87-5a4.91,4.91,0,0,0,.05-.67,6.92,6.92,0,0,0,5.49-4.73,5.49,5.49,0,0,0,.16-1.29,6.19,6.19,0,0,0-4-5.51,3.74,3.74,0,0,0,.31-1.07,2.75,2.75,0,0,0,0-.4c0-2.42-2.37-4.38-5.29-4.38a5.68,5.68,0,0,0-4.09,1.62,3.83,3.83,0,0,0-1.2,2.76h-.67v-.93c0-7.82-3-14.35-7-16V143.6h1.79a7.5,7.5,0,0,0,5.42,2.16,7.39,7.39,0,0,0,5.74-2.52h0c2.82,0,5.13-1.83,5.28-4.13a2.09,2.09,0,0,0,0-.25,4.27,4.27,0,0,0-2.65-3.77h0a6.16,6.16,0,0,0-2.64-.58,6.23,6.23,0,0,0-2.47.5h0l-.05,0V126.3h.1a.69.69,0,0,0,.49.3h5a.75.75,0,0,0,.58-.4,8,8,0,0,0,3.46.77c3.26,0,6-1.85,6.73-4.35,0,0,0,0,0,0a5.27,5.27,0,0,0,.19-1.37c0-3.17-3.1-5.73-6.93-5.73a7.49,7.49,0,0,0-5.55,2.3h0a6.83,6.83,0,0,0-.71,1h-3.39V116c0-.1,0-.2,0-.3,4.85-.71,8.56-4.15,8.72-8.32v-.28c0-.08,0-.17,0-.26h0c2.92,0,5.3-1.95,5.3-4.37a3.52,3.52,0,0,0-.24-1.29,4,4,0,0,0-1.32-1.8,5.35,5.35,0,0,0,.29-1.75,4.84,4.84,0,0,0-.1-1,5.48,5.48,0,0,0-.37-1.19A8.43,8.43,0,0,0,382,95.17a5.36,5.36,0,0,0-.59,2.44,5.29,5.29,0,0,0,.08.8,12.31,12.31,0,0,0-3.32.67,4.7,4.7,0,0,0,.24-1.23v-.24c0-3.15-3.1-5.72-6.92-5.72a7.32,7.32,0,0,0-5.87,2.7,4.83,4.83,0,0,0-.3,5.62,14.36,14.36,0,0,0-8.37,4.17s0-.08,0-.13c0-2.42-2.37-4.37-5.3-4.37a5.7,5.7,0,0,0-4.38,1.92h0a3.81,3.81,0,0,0-.91,2.45,1.92,1.92,0,0,0,0,.22,12.35,12.35,0,0,0-2.29-.22,11.05,11.05,0,0,0-8.4,3.57,7.51,7.51,0,0,0-1.91,4.93,7.4,7.4,0,0,0,.21,1.7,17.19,17.19,0,0,0-2.3,1.19c-3.76,2.37-6.18,6.1-6.18,10.29,0,7.15,7,12.93,15.66,12.93A18.66,18.66,0,0,0,344.12,138.63Zm19.06,5h-6.31V126.46a2.83,2.83,0,0,0,0-.3c0-.08,0-.15,0-.23a10.93,10.93,0,0,0-1.14-4.83,9.46,9.46,0,0,0,3.22-1.17,14.94,14.94,0,0,0,4.48,2.06v4c0,.33,0,.65.05,1s-.05.7-.05,1.07c0,3.12,1.39,5.66,3.1,5.66h.18a11.42,11.42,0,0,0-.37,2.89v9A4,4,0,0,0,363.18,143.6Zm10.05-13.77a11.31,11.31,0,0,0,.17-1.78c0-3.14-1.39-5.68-3.11-5.68h-.05a14.63,14.63,0,0,0,7.48-3.39v10.85Z" transform="translate(0 -33.57)"/><path class="cls-4" d="M18.58,148.51a2,2,0,0,0,1.55,1H23.2v6.22a5.5,5.5,0,0,0-4.62-2.27,6.14,6.14,0,0,0-2.46.5,4.37,4.37,0,0,0-2.84,3.88c0,2.34,2.25,4.25,5.08,4.35a6,6,0,0,0-.59,2.57c0,3.91,3.84,7.07,8.58,7.07l.46,0a3,3,0,0,0,1.14.25h9.26v19l-2.17.08-.62,0c-2.64.12-5,2.32-6.59,5.71H55.21v-5.71a8.06,8.06,0,0,0,2.38.36c3.53,0,6.44-2.18,6.87-5a5.19,5.19,0,0,0,.05-.68,6.93,6.93,0,0,0,5.5-4.73,5.37,5.37,0,0,0,.15-1.29,6.21,6.21,0,0,0-4-5.51,3.86,3.86,0,0,0,.3-1.07,2.56,2.56,0,0,0,0-.39c0-2.42-2.38-4.38-5.3-4.38a5.68,5.68,0,0,0-4.09,1.62,3.84,3.84,0,0,0-1.2,2.76h-.67V172c0-7.81-3-14.35-7-16v-2.45H50a7.56,7.56,0,0,0,5.42,2.16,7.39,7.39,0,0,0,5.74-2.52h0c2.82,0,5.13-1.83,5.28-4.13a1.06,1.06,0,0,0,0-.25A4.27,4.27,0,0,0,63.81,145v0a6.27,6.27,0,0,0-2.64-.58,6.35,6.35,0,0,0-2.46.5h-.05v-8.69h.09a.67.67,0,0,0,.5.31h5a.73.73,0,0,0,.58-.41,8,8,0,0,0,3.46.77c3.26,0,6-1.85,6.73-4.35h0a5.13,5.13,0,0,0,.19-1.36c0-3.17-3.1-5.73-6.93-5.73a7.47,7.47,0,0,0-5.55,2.3h0a5,5,0,0,0-.71,1H58.66v-2.85c0-.1,0-.2,0-.3,4.85-.71,8.57-4.15,8.72-8.32a2.62,2.62,0,0,0,0-.28c0-.09,0-.17,0-.26h0c2.92,0,5.29-2,5.29-4.38a3.6,3.6,0,0,0-.24-1.29,4.06,4.06,0,0,0-1.32-1.79,5.44,5.44,0,0,0,.29-1.75,4.93,4.93,0,0,0-.1-1,5.57,5.57,0,0,0-.37-1.18,8.43,8.43,0,0,0-14.45-.24,4.82,4.82,0,0,0-.5,3.25,12.38,12.38,0,0,0-3.33.67,4.7,4.7,0,0,0,.24-1.24,1.77,1.77,0,0,0,0-.23c0-3.16-3.1-5.72-6.93-5.72a7.36,7.36,0,0,0-5.87,2.69,4.94,4.94,0,0,0-1.06,3,4.88,4.88,0,0,0,.77,2.6,14.3,14.3,0,0,0-8.38,4.17.53.53,0,0,0,0-.13c0-2.43-2.37-4.37-5.29-4.37a5.68,5.68,0,0,0-4.38,1.92h0a3.81,3.81,0,0,0-.91,2.45c0,.07,0,.14,0,.21a12.27,12.27,0,0,0-2.29-.21,11.07,11.07,0,0,0-8.4,3.57,7.48,7.48,0,0,0-1.9,4.93,7.39,7.39,0,0,0,.2,1.7,16.1,16.1,0,0,0-2.3,1.19C2.42,127.89,0,131.62,0,135.82c0,7.14,7,12.93,15.67,12.93A18.53,18.53,0,0,0,18.58,148.51Zm19.06,5H31.33V136.34c0-.1,0-.2,0-.3s0-.15,0-.22A10.93,10.93,0,0,0,30.19,131a9.74,9.74,0,0,0,3.23-1.18,14.41,14.41,0,0,0,4.47,2.06v4a7.61,7.61,0,0,0,.06,1,9,9,0,0,0-.06,1.06c0,3.13,1.39,5.67,3.1,5.67h.18a11.42,11.42,0,0,0-.37,2.89v9A4,4,0,0,0,37.64,153.49Zm10-13.77a10.35,10.35,0,0,0,.17-1.79c0-3.14-1.39-5.67-3.11-5.67h0a14.68,14.68,0,0,0,7.48-3.39v10.85Z" transform="translate(0 -33.57)"/><path class="cls-4" d="M436.2,94.46c8.65,0,15.67-4.56,15.67-10.21,0-3.31-2.43-6.25-6.18-8.12a17.7,17.7,0,0,0-2.31-.94,4.41,4.41,0,0,0,.21-1.34,5.31,5.31,0,0,0-1.91-3.9,12.6,12.6,0,0,0-8.39-2.82,15.64,15.64,0,0,0-2.3.18,1.13,1.13,0,0,0,0-.18,2.67,2.67,0,0,0-.91-1.93h0a6.43,6.43,0,0,0-4.38-1.51c-2.93,0-5.3,1.53-5.3,3.44,0,0,0,.08,0,.11A16,16,0,0,0,412.07,64a3.19,3.19,0,0,0-.3-4.44,8.21,8.21,0,0,0-5.87-2.13c-3.82,0-6.92,2-6.92,4.51v.19a3.54,3.54,0,0,0,.24,1,15.16,15.16,0,0,0-3.32-.52,3.4,3.4,0,0,0,.09-.64A3.56,3.56,0,0,0,395.4,60c-1.16-1.83-3.93-3.13-7.17-3.13s-6.2,1.39-7.29,3.32a3.69,3.69,0,0,0-.37.93,3.59,3.59,0,0,0-.1.81,3.26,3.26,0,0,0,.3,1.38,3.39,3.39,0,0,0-1.33,1.42,2.3,2.3,0,0,0-.23,1c0,1.91,2.37,3.46,5.29,3.46h0c0,.07,0,.13,0,.2a1.55,1.55,0,0,0,0,.22c.15,3.29,3.87,6,8.71,6.57,0,.08,0,.16,0,.24v2.25h-3.39a4.79,4.79,0,0,0-.71-.8h0A8.55,8.55,0,0,0,383.55,76c-3.83,0-6.93,2-6.93,4.52a3.13,3.13,0,0,0,.2,1.08h0c.74,2,3.47,3.43,6.73,3.43a9.73,9.73,0,0,0,3.46-.61.78.78,0,0,0,.58.32h5a.74.74,0,0,0,.5-.24h.09V91.4h0a7.75,7.75,0,0,0-2.47-.39,7.61,7.61,0,0,0-2.64.45h0c-1.58.58-2.65,1.7-2.65,3a1.34,1.34,0,0,0,0,.2c.15,1.81,2.46,3.26,5.28,3.26h0a8.34,8.34,0,0,0,5.74,2,8.71,8.71,0,0,0,5.41-1.7h1.79v1.93c-4,1.31-7,6.47-7,12.64v.74H396a2.78,2.78,0,0,0-1.21-2.18,6.52,6.52,0,0,0-4.09-1.27c-2.92,0-5.29,1.54-5.29,3.45a1.09,1.09,0,0,0,0,.31,2.4,2.4,0,0,0,.3.85c-2.4.82-4,2.46-4,4.35a3.45,3.45,0,0,0,.16,1c.59,1.83,2.74,3.26,5.49,3.73a3.07,3.07,0,0,0,0,.53c.44,2.22,3.35,3.94,6.87,3.94a10.08,10.08,0,0,0,2.38-.28v4.51H424c-1.6-2.68-3.94-4.41-6.59-4.51l-.61,0-2.18-.07v-15h9.26a3.7,3.7,0,0,0,1.15-.2l.46,0c4.73,0,8.57-2.5,8.57-5.58a4,4,0,0,0-.58-2c2.83-.08,5.08-1.59,5.08-3.44,0-1.33-1.15-2.48-2.84-3.06a7.74,7.74,0,0,0-2.46-.39,6.09,6.09,0,0,0-4.62,1.79V95.08h3.06a2.07,2.07,0,0,0,1.55-.8A25.29,25.29,0,0,0,436.2,94.46Zm-25.14,5.35V92.68a7.33,7.33,0,0,0-.37-2.29h.18c1.71,0,3.1-2,3.1-4.47a7.58,7.58,0,0,0-.05-.84,6.33,6.33,0,0,0,.05-.76V81.14a16.61,16.61,0,0,0,4.48-1.63,11.28,11.28,0,0,0,3.23.93,7.11,7.11,0,0,0-1.15,3.81c0,.06,0,.12,0,.18s0,.16,0,.24V98.21h-6.3A4.23,4.23,0,0,0,411.06,99.81ZM399.68,87.33V78.76a16.54,16.54,0,0,0,7.49,2.68h-.06c-1.72,0-3.11,2-3.11,4.48a6.4,6.4,0,0,0,.18,1.41Z" transform="translate(0 -33.57)"/><path class="cls-4" d="M288.15,151.51a1.81,1.81,0,0,0,1.17.43h2.32v2.58a5.82,5.82,0,0,0-3.49-.94,8.22,8.22,0,0,0-1.86.2c-1.28.31-2.15.91-2.15,1.61,0,1,1.7,1.76,3.84,1.8a1.65,1.65,0,0,0-.44,1.07c0,1.62,2.9,2.93,6.49,2.93l.35,0a3.43,3.43,0,0,0,.86.11h7v7.87l-1.65,0h-.46a6.82,6.82,0,0,0-5,2.37h20.72v-2.37a10.41,10.41,0,0,0,1.8.15c2.67,0,4.88-.9,5.2-2.07a.86.86,0,0,0,0-.28c2.09-.24,3.72-1,4.16-2a1.25,1.25,0,0,0,.12-.54c0-1-1.24-1.85-3.05-2.28a1.07,1.07,0,0,0,.23-.45.41.41,0,0,0,0-.16c0-1-1.79-1.81-4-1.81a6.45,6.45,0,0,0-3.1.67,1.43,1.43,0,0,0-.91,1.14h-.51v-.38a6.81,6.81,0,0,0-5.29-6.64v-1h1.35a8.72,8.72,0,0,0,4.1.89,8.06,8.06,0,0,0,4.34-1.05h0c2.13,0,3.88-.75,4-1.71a.34.34,0,0,0,0-.1c0-.67-.81-1.26-2-1.56h0a8.16,8.16,0,0,0-2-.24,8.29,8.29,0,0,0-1.87.21h0v-3.59h.07a.69.69,0,0,0,.38.12h3.8a.68.68,0,0,0,.44-.16,10.52,10.52,0,0,0,2.62.31c2.47,0,4.53-.76,5.09-1.8h0a1.25,1.25,0,0,0,.14-.56c0-1.32-2.34-2.38-5.24-2.38a8.39,8.39,0,0,0-4.2,1h0a3.36,3.36,0,0,0-.53.41h-2.57v-1.18s0-.08,0-.12c3.67-.3,6.48-1.72,6.6-3.45v-.11s0-.07,0-.11h0c2.21,0,4-.81,4-1.81a.92.92,0,0,0-.18-.54,2.31,2.31,0,0,0-1-.74,1.41,1.41,0,0,0,.22-.73,1.2,1.2,0,0,0-.08-.42,1.63,1.63,0,0,0-.28-.49c-.82-1-3-1.74-5.51-1.74s-4.55.68-5.43,1.64a1.51,1.51,0,0,0-.44,1,1.28,1.28,0,0,0,.06.34,16.35,16.35,0,0,0-2.51.27,1.36,1.36,0,0,0,.18-.51v-.1c0-1.3-2.34-2.36-5.24-2.36a8,8,0,0,0-4.44,1.11,1.6,1.6,0,0,0-.8,1.25,1.46,1.46,0,0,0,.58,1.08,15.52,15.52,0,0,0-6.34,1.73s0,0,0-.06c0-1-1.8-1.8-4-1.8a6.3,6.3,0,0,0-3.32.79h0a1.28,1.28,0,0,0-.69,1s0,.06,0,.09c-.56-.05-1.14-.09-1.73-.09a12.44,12.44,0,0,0-6.36,1.48,2.61,2.61,0,0,0-1.44,2.05,1.59,1.59,0,0,0,.16.7,17.12,17.12,0,0,0-1.75.49c-2.84,1-4.67,2.53-4.67,4.26,0,3,5.31,5.36,11.85,5.36C286.7,151.61,287.44,151.58,288.15,151.51Zm14.42,2.07H297.8v-7.11s0-.08,0-.12,0-.06,0-.1a3,3,0,0,0-.86-2,11.47,11.47,0,0,0,2.44-.48,17,17,0,0,0,3.38.85v1.67a1.75,1.75,0,0,0,.05.4,2.12,2.12,0,0,0-.05.44,2.35,2.35,0,0,0,2.35,2.35h.14a2.67,2.67,0,0,0-.28,1.19v3.75A3.81,3.81,0,0,0,302.57,153.58Zm7.61-5.71a2.55,2.55,0,0,0,.13-.74,2.35,2.35,0,0,0-2.35-2.35h0a16.7,16.7,0,0,0,5.66-1.4v4.49Z" transform="translate(0 -33.57)"/><path class="cls-4" d="M160.08,156.88a1.89,1.89,0,0,0,1.18.42h2.31v2.58a5.82,5.82,0,0,0-3.49-.94,8.22,8.22,0,0,0-1.86.2c-1.28.31-2.15.91-2.15,1.61,0,1,1.7,1.76,3.84,1.8a1.65,1.65,0,0,0-.44,1.07c0,1.62,2.91,2.93,6.49,2.93l.35,0a3.49,3.49,0,0,0,.86.11h7v7.87l-1.64,0h-.47a6.84,6.84,0,0,0-5,2.37h20.73v-2.37a10.24,10.24,0,0,0,1.8.15c2.66,0,4.87-.9,5.19-2.07a1.26,1.26,0,0,0,0-.28c2.08-.24,3.71-1,4.15-1.95a1.25,1.25,0,0,0,.12-.54c0-1-1.23-1.85-3.05-2.28a1,1,0,0,0,.23-.45.41.41,0,0,0,0-.16c0-1-1.79-1.81-4-1.81a6.51,6.51,0,0,0-3.1.67,1.43,1.43,0,0,0-.91,1.14h-.5v-.38a6.82,6.82,0,0,0-5.3-6.64v-1h1.35a8.75,8.75,0,0,0,4.1.89,8.2,8.2,0,0,0,4.35-1h0c2.13,0,3.88-.76,4-1.72a.34.34,0,0,0,0-.1c0-.67-.81-1.26-2-1.56h0a8.18,8.18,0,0,0-2-.24,8.29,8.29,0,0,0-1.87.21h0v-3.6h.07a.71.71,0,0,0,.38.12h3.8a.68.68,0,0,0,.44-.16,10.58,10.58,0,0,0,2.62.31c2.47,0,4.53-.76,5.09-1.8h0a1.27,1.27,0,0,0,.15-.56c0-1.31-2.35-2.38-5.25-2.38a8.39,8.39,0,0,0-4.2,1h0a3,3,0,0,0-.54.41h-2.57v-1.18s0-.08,0-.12c3.67-.29,6.48-1.72,6.6-3.45a.37.37,0,0,0,0-.11.43.43,0,0,0,0-.11h0c2.2,0,4-.81,4-1.81a.92.92,0,0,0-.18-.54,2.31,2.31,0,0,0-1-.74,1.32,1.32,0,0,0,.22-.73,1.2,1.2,0,0,0-.07-.42,1.47,1.47,0,0,0-.29-.49c-.82-1-3-1.74-5.51-1.74s-4.55.68-5.42,1.64a1.48,1.48,0,0,0-.45,1,1.28,1.28,0,0,0,.07.34,16.35,16.35,0,0,0-2.52.27A1.08,1.08,0,0,0,186,140a.31.31,0,0,0,0-.1c0-1.3-2.35-2.36-5.25-2.36a8,8,0,0,0-4.44,1.11,1.62,1.62,0,0,0-.8,1.25,1.46,1.46,0,0,0,.58,1.08,15.57,15.57,0,0,0-6.34,1.73s0,0,0-.06c0-1-1.79-1.8-4-1.8a6.26,6.26,0,0,0-3.31.79h0a1.31,1.31,0,0,0-.69,1,.24.24,0,0,0,0,.09c-.56-.05-1.14-.09-1.74-.09a12.38,12.38,0,0,0-6.35,1.48,2.6,2.6,0,0,0-1.45,2,1.74,1.74,0,0,0,.16.7,16.24,16.24,0,0,0-1.74.49c-2.85,1-4.68,2.53-4.68,4.27,0,3,5.31,5.35,11.85,5.35C158.63,157,159.37,156.94,160.08,156.88Zm14.43,2.06h-4.78v-7.11s0-.08,0-.12,0-.06,0-.09a3,3,0,0,0-.86-2,11.47,11.47,0,0,0,2.44-.48,17,17,0,0,0,3.39.85v1.67a1.75,1.75,0,0,0,0,.4,2.12,2.12,0,0,0,0,.44,2.35,2.35,0,0,0,2.34,2.35h.14a2.68,2.68,0,0,0-.28,1.2v3.74A3.8,3.8,0,0,0,174.51,158.94Zm7.6-5.71a2.26,2.26,0,0,0,.13-.74,2.35,2.35,0,0,0-2.35-2.35h0a16.35,16.35,0,0,0,5.66-1.4v4.49Z" transform="translate(0 -33.57)"/><path class="cls-5" d="M449.23,195a13.65,13.65,0,0,1-13.64,13.65H36.44A13.65,13.65,0,0,1,22.8,195h0a13.64,13.64,0,0,1,13.64-13.64H435.59A13.64,13.64,0,0,1,449.23,195Z" transform="translate(0 -33.57)"/><path class="cls-6" d="M193.56,192.07a5.64,5.64,0,0,1-5.64,5.65H99.67A5.65,5.65,0,0,1,94,192.07h0a5.65,5.65,0,0,1,5.64-5.64h88.25a5.64,5.64,0,0,1,5.64,5.64Z" transform="translate(0 -33.57)"/><path class="cls-7" d="M59.05,118.45a2.45,2.45,0,0,1-2.45,2.45H49.42A2.45,2.45,0,0,1,47,118.45h0A2.45,2.45,0,0,1,49.42,116H56.6a2.45,2.45,0,0,1,2.45,2.45Z" transform="translate(0 -33.57)"/><path class="cls-7" d="M106,98a2.63,2.63,0,0,1-1.49,2.38,2.8,2.8,0,0,1-1.15.26h-7v8.07a4.18,4.18,0,0,1-2.76,3.94,4,4,0,0,1-1.43.25c-.12,0-.23,0-.34,0s-.23,0-.35,0H82.84v1.73A11.66,11.66,0,0,1,91.9,126v18.4c0,3.51-1.57,4.43-4,4.55,0,.59,0,1.17,0,1.78.14,5.71,2,10.42-2.07,11.51a7.44,7.44,0,0,1-1.84.23l-18.38.45A11.65,11.65,0,1,1,65,139.61l.79,0,2.82-.06V126.07h-12A6.58,6.58,0,0,1,50,119.49a6.49,6.49,0,0,1,.44-2.34V110.1h-4a3.22,3.22,0,0,1,0-6.43h4v-2.92a5.26,5.26,0,0,1,5.27-5.27,4.34,4.34,0,0,1,1,.1,5.25,5.25,0,0,1,4.3,5.17V112.9h8.16a6.55,6.55,0,0,1,4.1,1.44v-6.4a4.74,4.74,0,0,1,.47-2h-.23a4,4,0,0,1-4-4,4.54,4.54,0,0,1,.07-.75,3.94,3.94,0,0,1-.07-.69V90.26a3.23,3.23,0,1,1,6.45,0v7.6h2.43a4,4,0,0,1,3.8,5.28H88V93.33a4.19,4.19,0,0,1,4.19-4.19,3.88,3.88,0,0,1,1.09.15,4.2,4.2,0,0,1,3.1,4v2h7A2.64,2.64,0,0,1,106,98Z" transform="translate(0 -33.57)"/><path class="cls-7" d="M99.61,129.28A2.64,2.64,0,0,1,97,131.92H89.53a2.64,2.64,0,0,1-2.64-2.64h0a2.64,2.64,0,0,1,2.64-2.64H97a2.64,2.64,0,0,1,2.64,2.64Z" transform="translate(0 -33.57)"/><path class="cls-8" d="M85.37,149.27a8,8,0,0,1-8,8h0a8,8,0,0,1-8-8V130.45a8,8,0,0,1,8-8h0a8,8,0,0,1,8,8Z" transform="translate(0 -33.57)"/><path class="cls-8" d="M55.4,116.06A2.39,2.39,0,0,1,53,118.45h0a2.39,2.39,0,0,1-2.39-2.39V103.51a2.4,2.4,0,0,1,2.39-2.4h0a2.4,2.4,0,0,1,2.39,2.4Z" transform="translate(0 -33.57)"/><path class="cls-8" d="M92.19,108a2,2,0,0,1-2,2h0a2,2,0,0,1-2-2V91.36a2,2,0,0,1,2-2h0a2,2,0,0,1,2,2Z" transform="translate(0 -33.57)"/><path class="cls-8" d="M104.82,99.66a1.2,1.2,0,0,1-1.19,1.2H97.12a1.19,1.19,0,0,1-1.19-1.2h0a1.19,1.19,0,0,1,1.19-1.19h6.51a1.19,1.19,0,0,1,1.19,1.19Z" transform="translate(0 -33.57)"/><path class="cls-8" d="M73.68,100.74a1.36,1.36,0,0,1-1.36,1.36h0A1.36,1.36,0,0,1,71,100.74V96a1.35,1.35,0,0,1,1.36-1.35h0A1.35,1.35,0,0,1,73.68,96Z" transform="translate(0 -33.57)"/><path class="cls-6" d="M61,100.38a5.34,5.34,0,0,1-1.74,3.71c-3.15,3.22-10.26,5.45-18.54,5.45-11.19,0-20.27-4.09-20.27-9.16,0-3,3.13-5.61,8-7.29a38.52,38.52,0,0,1,12.28-1.87C51.91,91.22,61,95.33,61,100.38Z" transform="translate(0 -33.57)"/><path class="cls-5" d="M61,100.38a5.34,5.34,0,0,1-1.74,3.71A38.29,38.29,0,0,1,47,106c-11.2,0-20.28-4.1-20.28-9.16a5.32,5.32,0,0,1,1.74-3.71,38.52,38.52,0,0,1,12.28-1.87C51.91,91.22,61,95.33,61,100.38Z" transform="translate(0 -33.57)"/><path class="cls-6" d="M107.63,87a1.34,1.34,0,0,1,0,.2c-.23,3.32-6.28,6-13.69,6-7.56,0-13.68-2.77-13.68-6.19a3.47,3.47,0,0,1,1-2.36c2.06-2.25,6.95-3.82,12.64-3.82C101.49,80.85,107.63,83.62,107.63,87Z" transform="translate(0 -33.57)"/><path class="cls-5" d="M107.63,87a1.34,1.34,0,0,1,0,.2C105.56,89.47,100.67,91,95,91c-7.56,0-13.7-2.77-13.7-6.19a1.09,1.09,0,0,1,0-.18c2.06-2.25,6.95-3.82,12.64-3.82C101.49,80.85,107.63,83.62,107.63,87Z" transform="translate(0 -33.57)"/><path class="cls-6" d="M57.8,91a3,3,0,0,1-.29,1.28c-1.31,2.71-6.64,4.75-13,4.75-7.36,0-13.33-2.7-13.33-6,0-1.3.91-2.5,2.47-3.49C36,86,40,85,44.48,85,51.84,85,57.8,87.72,57.8,91Z" transform="translate(0 -33.57)"/><path class="cls-5" d="M57.8,91a3,3,0,0,1-.29,1.28c-2.42,1.53-6.38,2.54-10.88,2.54-7.36,0-13.32-2.7-13.32-6a2.82,2.82,0,0,1,.31-1.29C36,86,40,85,44.48,85,51.84,85,57.8,87.72,57.8,91Z" transform="translate(0 -33.57)"/><path class="cls-6" d="M92.72,90a4,4,0,0,1-.59,2.07C90.12,95.48,83.23,98,75,98c-9.76,0-17.67-3.58-17.67-8,0-1.64,1.08-3.16,3-4.42C63.48,83.44,68.9,82,75,82,84.81,82,92.72,85.6,92.72,90Z" transform="translate(0 -33.57)"/><path class="cls-5" d="M92.72,90a4,4,0,0,1-.59,2.07c-3.17,2.15-8.59,3.57-14.74,3.57-9.77,0-17.68-3.57-17.68-8a4,4,0,0,1,.61-2.07C63.48,83.44,68.9,82,75,82,84.81,82,92.72,85.6,92.72,90Z" transform="translate(0 -33.57)"/><path class="cls-6" d="M68.34,92.05a1.43,1.43,0,0,1,0,.29C68,95,63.16,97.07,57.24,97.07c-6.12,0-11.09-2.26-11.09-5a3.13,3.13,0,0,1,1.29-2.35C49.3,88.11,53,87,57.24,87,63.38,87,68.34,89.28,68.34,92.05Z" transform="translate(0 -33.57)"/><path class="cls-5" d="M68.34,92.05a1.43,1.43,0,0,1,0,.29C66.45,94,62.76,95,58.51,95c-6.13,0-11.09-2.26-11.09-5a1.67,1.67,0,0,1,0-.31C49.3,88.11,53,87,57.24,87,63.38,87,68.34,89.28,68.34,92.05Z" transform="translate(0 -33.57)"/><path class="cls-6" d="M65.63,120.91a2.66,2.66,0,0,1-.39,1.34h0c-1.29,2.11-5.59,3.67-10.7,3.67-6.12,0-11.09-2.25-11.09-5a2.85,2.85,0,0,1,.75-1.83,8,8,0,0,1,3.29-2h0a12,12,0,0,1,1.63-.51,20,20,0,0,1,2.2-.42c.23,0,.45-.06.67-.08a21,21,0,0,1,2.54-.14C60.66,115.89,65.63,118.13,65.63,120.91Z" transform="translate(0 -33.57)"/><path class="cls-6" d="M117.82,97.07a2.08,2.08,0,0,1-.25,1h0c-1,1.77-4.49,3.09-8.71,3.09-4.95,0-9-1.82-9-4.05a3.05,3.05,0,0,1,1.78-2.43h0A14.44,14.44,0,0,1,108.85,93C113.81,93,117.82,94.82,117.82,97.07Z" transform="translate(0 -33.57)"/><path class="cls-5" d="M117.82,97.07a2.08,2.08,0,0,1-.25,1h0a14.49,14.49,0,0,1-7.18,1.63c-5,0-9-1.81-9-4.06a2.08,2.08,0,0,1,.25-1h0A14.44,14.44,0,0,1,108.85,93C113.81,93,117.82,94.82,117.82,97.07Z" transform="translate(0 -33.57)"/><path class="cls-6" d="M88.89,80.32a1,1,0,0,1,0,.17c-.2,2.16-4.13,3.88-9,3.88s-9-1.82-9-4.05a2.73,2.73,0,0,1,1.37-2.14,13.6,13.6,0,0,1,7.59-1.91C84.88,76.27,88.89,78.09,88.89,80.32Z" transform="translate(0 -33.57)"/><path class="cls-5" d="M88.89,80.32a1,1,0,0,1,0,.17,13.82,13.82,0,0,1-7.6,1.89c-5,0-9-1.81-9-4a.71.71,0,0,1,0-.15,13.6,13.6,0,0,1,7.59-1.91C84.88,76.27,88.89,78.09,88.89,80.32Z" transform="translate(0 -33.57)"/><path class="cls-6" d="M101.13,110.37v.06a2.29,2.29,0,0,1-.11.58,3.45,3.45,0,0,1-1.43,1.63,14,14,0,0,1-7.43,1.79c-5,0-9-1.82-9-4.06,0-1.08,1-2.07,2.5-2.79a15.42,15.42,0,0,1,6.47-1.26,18.24,18.24,0,0,1,3.22.27c.35.07.7.13,1,.21h0C99.22,107.48,101.13,108.83,101.13,110.37Z" transform="translate(0 -33.57)"/><path class="cls-6" d="M103.94,135.81a2.09,2.09,0,0,1-.07.51c-.56,2-4.33,3.54-8.89,3.54-5,0-9-1.81-9-4.05,0-1,.84-2,2.23-2.67A15.16,15.16,0,0,1,95,131.75C99.93,131.75,103.94,133.57,103.94,135.81Z" transform="translate(0 -33.57)"/><path class="cls-5" d="M103.94,135.81a2.09,2.09,0,0,1-.07.51,15.23,15.23,0,0,1-6.75,1.39c-5,0-9-1.81-9-4.05a1.93,1.93,0,0,1,.08-.52A15.16,15.16,0,0,1,95,131.75C99.93,131.75,103.94,133.57,103.94,135.81Z" transform="translate(0 -33.57)"/><path class="cls-6" d="M51.33,116a.41.41,0,0,1,0,.11.45.45,0,0,1,0,.11c-.17,1.19-1.85,2.19-4.18,2.63a13.81,13.81,0,0,1-2.65.24h-.29c-3.66-.06-6.57-1.42-6.57-3.08,0-1.19,1.49-2.22,3.68-2.75a14.27,14.27,0,0,1,3.18-.35c2.74,0,5.11.73,6.2,1.79A1.8,1.8,0,0,1,51.33,116Z" transform="translate(0 -33.57)"/><path class="cls-5" d="M50.68,114.69a7.32,7.32,0,0,0-2.85,1.87,3.54,3.54,0,0,0-.34.48h0a2.6,2.6,0,0,0-.39,1.34,2.56,2.56,0,0,0,0,.47c.54,2.54,5.28,4.54,11,4.54a20.74,20.74,0,0,0,7.05-1.14h0a2.66,2.66,0,0,0,.39-1.34c0-2.78-5-5-11.1-5A21,21,0,0,0,52,116Z" transform="translate(0 -33.57)"/><path class="cls-5" d="M50.68,114.69c-1.09-1.06-3.46-1.79-6.2-1.79a14.27,14.27,0,0,0-3.18.35.89.89,0,0,0,0,.22c0,1.66,2.91,3,6.56,3.09h.3c.34,0,.67,0,1,0a12.16,12.16,0,0,0,2.19-.31A6.75,6.75,0,0,0,52,116Z" transform="translate(0 -33.57)"/><path class="cls-6" d="M114.48,83.74c0,1.72-3.07,3.11-6.85,3.11-3,0-5.51-.86-6.46-2.06a1.68,1.68,0,0,1-.4-1.05,1.92,1.92,0,0,1,.79-1.44l.15-.12a10.2,10.2,0,0,1,5.92-1.54,14,14,0,0,1,3.08.34,8.76,8.76,0,0,1,1.75.58,3.81,3.81,0,0,1,1.71,1.27A1.54,1.54,0,0,1,114.48,83.74Z" transform="translate(0 -33.57)"/><path class="cls-6" d="M112.84,80.32a2.28,2.28,0,0,1-.38,1.24c-.75,1.21-2.61,2.21-5,2.78a20,20,0,0,1-4.62.51c-.54,0-1.09,0-1.62-.06-4.77-.35-8.41-2.22-8.41-4.47a2.54,2.54,0,0,1,.76-1.73c1.5-1.65,5.09-2.82,9.27-2.82,4.34,0,8,1.25,9.44,3a2.75,2.75,0,0,1,.48.84A2.24,2.24,0,0,1,112.84,80.32Z" transform="translate(0 -33.57)"/><path class="cls-5" d="M114.17,82.83a10.21,10.21,0,0,1-5.91,1.54c-.29,0-.57,0-.85,0-2.59-.14-4.74-.94-5.59-2a.36.36,0,0,1-.11-.14,1.57,1.57,0,0,1-.3-.9c0-1.72,3.06-3.1,6.85-3.1a13.19,13.19,0,0,1,4,.57,2.75,2.75,0,0,1,.48.84,2.24,2.24,0,0,1,.13.73,2.28,2.28,0,0,1-.38,1.24A3.81,3.81,0,0,1,114.17,82.83Z" transform="translate(0 -33.57)"/><path class="cls-5" d="M112.71,79.59a6.41,6.41,0,0,1-2,1.39,17.49,17.49,0,0,1-7.27,1.4c-.55,0-1.1,0-1.62-.06l-.26,0c-4.13-.34-7.36-1.83-8-3.71,1.5-1.65,5.09-2.82,9.27-2.82,4.34,0,8,1.25,9.44,3A2.75,2.75,0,0,1,112.71,79.59Z" transform="translate(0 -33.57)"/><path class="cls-6" d="M61.12,85a.27.27,0,0,1,0,.13c-.14,1.66-3.14,3-6.84,3s-6.84-1.39-6.84-3.1a2.17,2.17,0,0,1,1.17-1.73h0a10.73,10.73,0,0,1,5.66-1.36C58.05,81.93,61.12,83.31,61.12,85Z" transform="translate(0 -33.57)"/><path class="cls-5" d="M61.12,85a.27.27,0,0,1,0,.13,10.79,10.79,0,0,1-5.67,1.36c-3.78,0-6.85-1.39-6.85-3.1a.49.49,0,0,1,0-.12h0a10.73,10.73,0,0,1,5.66-1.36C58.05,81.93,61.12,83.31,61.12,85Z" transform="translate(0 -33.57)"/><path class="cls-6" d="M111.25,131.59a2.4,2.4,0,0,1-.2.91c-.94,2-4.88,3.51-9.6,3.51-5.39,0-9.78-2-9.78-4.42A3.34,3.34,0,0,1,93.6,129a15.82,15.82,0,0,1,7.85-1.79C106.86,127.16,111.25,129.15,111.25,131.59Z" transform="translate(0 -33.57)"/><path class="cls-5" d="M111.25,131.59a2.4,2.4,0,0,1-.2.91,15.82,15.82,0,0,1-7.87,1.79c-5.4,0-9.79-2-9.79-4.42a2.33,2.33,0,0,1,.21-.92,15.82,15.82,0,0,1,7.85-1.79C106.86,127.16,111.25,129.15,111.25,131.59Z" transform="translate(0 -33.57)"/><path class="cls-6" d="M106.46,126.64a.86.86,0,0,1,0,.28c-.3,1.58-3.23,2.82-6.81,2.82-3.79,0-6.85-1.39-6.85-3.1,0-.74.58-1.43,1.55-2a11.2,11.2,0,0,1,5.3-1.15C103.39,123.54,106.46,124.93,106.46,126.64Z" transform="translate(0 -33.57)"/><path class="cls-5" d="M106.46,126.64a.86.86,0,0,1,0,.28,11.12,11.12,0,0,1-5.29,1.15c-3.78,0-6.85-1.39-6.85-3.1a1.27,1.27,0,0,1,0-.28,11.2,11.2,0,0,1,5.3-1.15C103.39,123.54,106.46,124.93,106.46,126.64Z" transform="translate(0 -33.57)"/><path class="cls-6" d="M106.46,109.54a.55.55,0,0,1,0,.18c-.19,1.63-3.18,2.92-6.83,2.92h0a13.18,13.18,0,0,1-3.53-.46h0c-2-.53-3.29-1.52-3.29-2.64,0-1,.94-1.79,2.41-2.34v0a11.39,11.39,0,0,1,1.24-.38h0a14.36,14.36,0,0,1,3.19-.35,13.82,13.82,0,0,1,3.42.41h0C105.08,107.39,106.46,108.39,106.46,109.54Z" transform="translate(0 -33.57)"/><path class="cls-5" d="M103.52,108.2a2.88,2.88,0,0,1-1.53,2.26,7.45,7.45,0,0,1-1,.55,14.47,14.47,0,0,1-5,1.17h0a14.58,14.58,0,0,1-1.49.07c-5,0-9-1.82-9-4a1.88,1.88,0,0,1,.11-.62,15.42,15.42,0,0,1,6.47-1.26,18.24,18.24,0,0,1,3.22.27c.35.07.7.13,1,.21h0a14.36,14.36,0,0,1,3.19-.35,13.82,13.82,0,0,1,3.42.41h0A2.17,2.17,0,0,1,103.52,108.2Z" transform="translate(0 -33.57)"/><path class="cls-5" d="M106.46,109.54a.55.55,0,0,1,0,.18,12.56,12.56,0,0,1-4.44.74h0c-.29,0-.58,0-.86,0-3.37-.18-6-1.49-6-3.06a.5.5,0,0,1,0-.17v0a1.36,1.36,0,0,1,.21-.59c.35.07.7.13,1,.21h0a14.36,14.36,0,0,1,3.19-.35,13.82,13.82,0,0,1,3.42.41h0C105.08,107.39,106.46,108.39,106.46,109.54Z" transform="translate(0 -33.57)"/><path class="cls-7" d="M161.63,131.8c0,1.24.66,2.24,1.47,2.24h4.31c.82,0,1.48-1,1.48-2.24h0c0-1.24-.66-2.24-1.48-2.24H163.1c-.81,0-1.47,1-1.47,2.24Z" transform="translate(0 -33.57)"/><path class="cls-7" d="M156,151.06h-.1V138.76h7.2c2.18,0,4-2.69,4-6a8.65,8.65,0,0,0-.26-2.14v-6.44h2.38c1.06,0,1.93-1.32,1.93-2.94s-.87-2.94-1.93-2.94h-2.38v-2.67c0-2.66-1.41-4.81-3.16-4.81a1.9,1.9,0,0,0-.58.09c-1.46.41-2.58,2.37-2.58,4.72v11.1h-4.9a3.22,3.22,0,0,0-2.45,1.32v-5.85a6.21,6.21,0,0,0-.29-1.87H153c1.33,0,2.41-1.64,2.41-3.67a5.34,5.34,0,0,0,0-.69,4.1,4.1,0,0,0,0-.62V106c0-1.62-.87-3-1.93-3a1.33,1.33,0,0,0-.71.2,3.21,3.21,0,0,0-1.23,2.75V113h-1.46c-1.33,0-2.41,1.64-2.41,3.67a5.35,5.35,0,0,0,.13,1.16h-3.49v-9c0-2.12-1.12-3.83-2.51-3.83a1.65,1.65,0,0,0-.66.13c-1.06.44-1.86,1.93-1.86,3.7v1.84h-4.18c-.88,0-1.59,1.08-1.59,2.42a2.69,2.69,0,0,0,.9,2.17,1.11,1.11,0,0,0,.69.24h4.18v7.38a4.08,4.08,0,0,0,1.66,3.6,1.72,1.72,0,0,0,.86.22l.2,0,.22,0h5.17v1.59c-3.11,1.08-5.43,5.31-5.43,10.37v16.81c0,3.21.94,4,2.42,4.15,0,.54,0,1.08,0,1.63-.08,5.22-1.21,9.53,1.24,10.52a3,3,0,0,0,1.11.21l9.29.35Z" transform="translate(0 -33.57)"/><path class="cls-7" d="M137.3,141.7c0,1.33.71,2.41,1.59,2.41h4.46c.87,0,1.58-1.08,1.58-2.41h0c0-1.34-.71-2.42-1.58-2.42h-4.46c-.88,0-1.59,1.08-1.59,2.42Z" transform="translate(0 -33.57)"/><path class="cls-8" d="M144.93,160c0,4,2.16,7.33,4.82,7.33h0c2.66,0,4.82-3.28,4.82-7.33v-17.2c0-4-2.16-7.33-4.82-7.33h0c-2.66,0-4.82,3.28-4.82,7.33Z" transform="translate(0 -33.57)"/><path class="cls-8" d="M163.82,129.61c0,1.21.65,2.19,1.44,2.19h0c.79,0,1.44-1,1.44-2.19V118.14c0-1.21-.65-2.18-1.44-2.18h0c-.79,0-1.44,1-1.44,2.18Z" transform="translate(0 -33.57)"/><path class="cls-8" d="M141.75,122.21c0,1,.54,1.85,1.21,1.85h0c.67,0,1.21-.83,1.21-1.85V107c0-1-.54-1.84-1.21-1.84h0c-.67,0-1.21.83-1.21,1.84Z" transform="translate(0 -33.57)"/><path class="cls-8" d="M134.18,114.63c0,.6.32,1.09.71,1.09h3.9c.4,0,.72-.49.72-1.09h0c0-.6-.32-1.09-.72-1.09h-3.9c-.39,0-.71.49-.71,1.09Z" transform="translate(0 -33.57)"/><path class="cls-8" d="M152.86,115.62c0,.68.36,1.24.82,1.24h0c.45,0,.81-.56.81-1.24V111.3c0-.69-.36-1.25-.81-1.25h0c-.46,0-.82.56-.82,1.25Z" transform="translate(0 -33.57)"/><path class="cls-6" d="M160.47,115.28a6.24,6.24,0,0,0,1.05,3.4c1.89,2.93,6.15,5,11.12,5,6.71,0,12.16-3.74,12.16-8.37,0-2.71-1.88-5.13-4.79-6.66a16,16,0,0,0-7.37-1.7C165.92,106.92,160.47,110.67,160.47,115.28Z" transform="translate(0 -33.57)"/><path class="cls-5" d="M160.47,115.28a6.24,6.24,0,0,0,1.05,3.4,16,16,0,0,0,7.37,1.71c6.72,0,12.16-3.75,12.16-8.37a6.23,6.23,0,0,0-1-3.4,16,16,0,0,0-7.37-1.7C165.92,106.92,160.47,110.67,160.47,115.28Z" transform="translate(0 -33.57)"/><path class="cls-6" d="M132.49,103.09a1.09,1.09,0,0,0,0,.18c.13,3,3.76,5.47,8.21,5.47s8.21-2.53,8.21-5.65a4.15,4.15,0,0,0-.63-2.16c-1.23-2.05-4.17-3.49-7.58-3.49C136.17,97.44,132.49,100,132.49,103.09Z" transform="translate(0 -33.57)"/><path class="cls-5" d="M132.49,103.09a1.09,1.09,0,0,0,0,.18c1.23,2,4.16,3.48,7.58,3.48,4.54,0,8.22-2.53,8.22-5.66a.92.92,0,0,0,0-.16c-1.23-2.05-4.17-3.49-7.58-3.49C136.17,97.44,132.49,100,132.49,103.09Z" transform="translate(0 -33.57)"/><path class="cls-6" d="M162.38,106.75a3.86,3.86,0,0,0,.18,1.17c.79,2.47,4,4.34,7.82,4.34,4.42,0,8-2.47,8-5.51a4.45,4.45,0,0,0-1.48-3.19,9.51,9.51,0,0,0-6.52-2.31C166,101.25,162.38,103.72,162.38,106.75Z" transform="translate(0 -33.57)"/><path class="cls-5" d="M162.38,106.75a3.86,3.86,0,0,0,.18,1.17,9.49,9.49,0,0,0,6.53,2.32c4.42,0,8-2.46,8-5.5a3.93,3.93,0,0,0-.18-1.18,9.51,9.51,0,0,0-6.52-2.31C166,101.25,162.38,103.72,162.38,106.75Z" transform="translate(0 -33.57)"/><path class="cls-6" d="M141.43,105.81a5.12,5.12,0,0,0,.36,1.89c1.21,3.11,5.34,5.41,10.25,5.41,5.86,0,10.61-3.27,10.61-7.3a5.82,5.82,0,0,0-1.77-4A12.4,12.4,0,0,0,152,98.51C146.18,98.51,141.43,101.78,141.43,105.81Z" transform="translate(0 -33.57)"/><path class="cls-5" d="M141.43,105.81a5.12,5.12,0,0,0,.36,1.89,12.43,12.43,0,0,0,8.84,3.26c5.86,0,10.61-3.26,10.61-7.29a5.3,5.3,0,0,0-.36-1.9A12.4,12.4,0,0,0,152,98.51C146.18,98.51,141.43,101.78,141.43,105.81Z" transform="translate(0 -33.57)"/><path class="cls-6" d="M156.06,107.67a2.45,2.45,0,0,0,0,.27c.19,2.4,3.09,4.32,6.64,4.32s6.66-2.06,6.66-4.59a3.46,3.46,0,0,0-.78-2.14,7.43,7.43,0,0,0-5.88-2.44C159,103.09,156.06,105.15,156.06,107.67Z" transform="translate(0 -33.57)"/><path class="cls-5" d="M156.06,107.67a2.45,2.45,0,0,0,0,.27,7.39,7.39,0,0,0,5.88,2.45c3.67,0,6.66-2.06,6.66-4.58a2.64,2.64,0,0,0,0-.28,7.43,7.43,0,0,0-5.88-2.44C159,103.09,156.06,105.15,156.06,107.67Z" transform="translate(0 -33.57)"/><path class="cls-6" d="M157.69,134a3.4,3.4,0,0,0,.23,1.23h0c.77,1.93,3.35,3.35,6.42,3.35,3.67,0,6.65-2.05,6.65-4.58a3.36,3.36,0,0,0-.45-1.66,5.19,5.19,0,0,0-2-1.88h0a7.22,7.22,0,0,0-1-.46,9.31,9.31,0,0,0-1.33-.39l-.4-.07a9.45,9.45,0,0,0-1.52-.12C160.67,129.46,157.69,131.51,157.69,134Z" transform="translate(0 -33.57)"/><path class="cls-6" d="M126.37,112.26a3,3,0,0,0,.15.88s0,0,0,0c.57,1.62,2.69,2.82,5.22,2.82,3,0,5.39-1.66,5.39-3.7a3,3,0,0,0-1.07-2.22h0a6.42,6.42,0,0,0-4.31-1.49C128.78,108.55,126.37,110.21,126.37,112.26Z" transform="translate(0 -33.57)"/><path class="cls-5" d="M126.37,112.26a3,3,0,0,0,.15.88s0,0,0,0a6.45,6.45,0,0,0,4.31,1.49c3,0,5.38-1.66,5.38-3.71a2.9,2.9,0,0,0-.15-.88h0a6.42,6.42,0,0,0-4.31-1.49C128.78,108.55,126.37,110.21,126.37,112.26Z" transform="translate(0 -33.57)"/><path class="cls-6" d="M143.73,97a.86.86,0,0,0,0,.16c.11,2,2.48,3.54,5.37,3.54s5.38-1.65,5.38-3.7a2.86,2.86,0,0,0-.82-2,6.2,6.2,0,0,0-4.56-1.75C146.14,93.25,143.73,94.91,143.73,97Z" transform="translate(0 -33.57)"/><path class="cls-5" d="M143.73,97a.86.86,0,0,0,0,.16,6.27,6.27,0,0,0,4.56,1.73c3,0,5.38-1.66,5.38-3.7a.61.61,0,0,0,0-.14,6.2,6.2,0,0,0-4.56-1.75C146.14,93.25,143.73,94.91,143.73,97Z" transform="translate(0 -33.57)"/><path class="cls-6" d="M136.39,124.41v.06a3.07,3.07,0,0,0,.06.53,3.29,3.29,0,0,0,.86,1.49,6.26,6.26,0,0,0,4.46,1.63c3,0,5.38-1.66,5.38-3.71a3.2,3.2,0,0,0-1.5-2.55,6.71,6.71,0,0,0-3.88-1.15,7.5,7.5,0,0,0-1.93.25,6.4,6.4,0,0,0-.62.2h0C137.53,121.78,136.39,123,136.39,124.41Z" transform="translate(0 -33.57)"/><path class="cls-6" d="M134.7,147.66a2.42,2.42,0,0,0,.05.47c.33,1.82,2.59,3.23,5.33,3.23,3,0,5.39-1.66,5.39-3.7a3.15,3.15,0,0,0-1.34-2.44,6.65,6.65,0,0,0-4-1.27C137.11,144,134.7,145.61,134.7,147.66Z" transform="translate(0 -33.57)"/><path class="cls-5" d="M134.7,147.66a2.42,2.42,0,0,0,.05.47,6.62,6.62,0,0,0,4,1.27c3,0,5.38-1.66,5.38-3.7a2.52,2.52,0,0,0,0-.48,6.65,6.65,0,0,0-4-1.27C137.11,144,134.7,145.61,134.7,147.66Z" transform="translate(0 -33.57)"/><path class="cls-6" d="M166.27,129.56v.09a.41.41,0,0,0,0,.11,3.13,3.13,0,0,0,2.5,2.4,5.48,5.48,0,0,0,1.6.22h.17c2.2-.07,3.94-1.3,3.94-2.82a2.92,2.92,0,0,0-2.2-2.51,5.59,5.59,0,0,0-1.91-.33,4.47,4.47,0,0,0-3.72,1.64A2,2,0,0,0,166.27,129.56Z" transform="translate(0 -33.57)"/><path class="cls-5" d="M166.66,128.36a5,5,0,0,1,1.71,1.71c.07.15.15.29.2.43h0a3.4,3.4,0,0,1,.23,1.23,3.11,3.11,0,0,1,0,.43c-.31,2.32-3.16,4.15-6.63,4.15a8.64,8.64,0,0,1-4.22-1h0a3.4,3.4,0,0,1-.23-1.23c0-2.53,3-4.58,6.66-4.58a9.45,9.45,0,0,1,1.52.12Z" transform="translate(0 -33.57)"/><path class="cls-5" d="M166.66,128.36a4.47,4.47,0,0,1,3.72-1.64,5.59,5.59,0,0,1,1.91.33,1.34,1.34,0,0,1,0,.2c0,1.52-1.74,2.76-3.93,2.82h-.18a3.73,3.73,0,0,1-.59,0,5.42,5.42,0,0,1-1.32-.28c-.14-.06-.28-.11-.41-.18Z" transform="translate(0 -33.57)"/><path class="cls-6" d="M128.38,100.08c0,1.57,1.84,2.84,4.11,2.84a4.31,4.31,0,0,0,3.87-1.88,2,2,0,0,0,.24-1,2.14,2.14,0,0,0-.47-1.31,1.25,1.25,0,0,1-.09-.12,4.67,4.67,0,0,0-3.55-1.4,5.48,5.48,0,0,0-1.85.31,4.29,4.29,0,0,0-1,.52,2.79,2.79,0,0,0-1,1.17A2,2,0,0,0,128.38,100.08Z" transform="translate(0 -33.57)"/><path class="cls-6" d="M129.36,97a2.89,2.89,0,0,0,.23,1.13,4.9,4.9,0,0,0,3,2.55,8.13,8.13,0,0,0,2.77.46,7.68,7.68,0,0,0,1,0c2.87-.32,5-2,5-4.09a3,3,0,0,0-.46-1.58c-.9-1.5-3-2.57-5.56-2.57s-4.82,1.14-5.66,2.72a3.28,3.28,0,0,0-.29.77A2.91,2.91,0,0,0,129.36,97Z" transform="translate(0 -33.57)"/><path class="cls-5" d="M128.56,99.25a4.7,4.7,0,0,0,3.55,1.4,4.35,4.35,0,0,0,.51,0A4.06,4.06,0,0,0,136,98.78a.54.54,0,0,0,.07-.13,1.92,1.92,0,0,0,.18-.82c0-1.57-1.84-2.83-4.11-2.83a5.41,5.41,0,0,0-2.38.52,3.28,3.28,0,0,0-.29.77,2.84,2.84,0,0,0,.15,1.79A2.79,2.79,0,0,0,128.56,99.25Z" transform="translate(0 -33.57)"/><path class="cls-5" d="M129.44,96.29a4.36,4.36,0,0,0,1.2,1.27A7.55,7.55,0,0,0,135,98.84a6.16,6.16,0,0,0,1-.06h.16c2.48-.32,4.41-1.68,4.82-3.4-.9-1.5-3-2.57-5.56-2.57s-4.82,1.14-5.66,2.72A3.28,3.28,0,0,0,129.44,96.29Z" transform="translate(0 -33.57)"/><path class="cls-6" d="M160.4,101.25a.49.49,0,0,0,0,.12c.08,1.51,1.88,2.71,4.1,2.71s4.11-1.26,4.11-2.83a2.22,2.22,0,0,0-.71-1.58h0a4.82,4.82,0,0,0-3.4-1.24C162.23,98.43,160.4,99.68,160.4,101.25Z" transform="translate(0 -33.57)"/><path class="cls-5" d="M160.4,101.25a.49.49,0,0,0,0,.12,4.82,4.82,0,0,0,3.4,1.24c2.27,0,4.11-1.27,4.11-2.83a.37.37,0,0,0,0-.11h0a4.82,4.82,0,0,0-3.4-1.24C162.23,98.43,160.4,99.68,160.4,101.25Z" transform="translate(0 -33.57)"/><path class="cls-6" d="M130.32,143.8a2.82,2.82,0,0,0,.12.83c.56,1.84,2.92,3.21,5.75,3.21,3.24,0,5.87-1.8,5.87-4a3.31,3.31,0,0,0-1.15-2.41,7.08,7.08,0,0,0-4.72-1.63C133,139.76,130.32,141.57,130.32,143.8Z" transform="translate(0 -33.57)"/><path class="cls-5" d="M130.32,143.8a2.82,2.82,0,0,0,.12.83,7,7,0,0,0,4.72,1.64c3.24,0,5.87-1.81,5.87-4a3.41,3.41,0,0,0-.12-.84,7.08,7.08,0,0,0-4.72-1.63C133,139.76,130.32,141.57,130.32,143.8Z" transform="translate(0 -33.57)"/><path class="cls-6" d="M133.19,139.28a1.14,1.14,0,0,0,0,.26c.18,1.44,1.94,2.58,4.09,2.58s4.11-1.27,4.11-2.84a2.31,2.31,0,0,0-.93-1.78,4.92,4.92,0,0,0-3.18-1.05C135,136.45,133.19,137.71,133.19,139.28Z" transform="translate(0 -33.57)"/><path class="cls-5" d="M133.19,139.28a1.14,1.14,0,0,0,0,.26,4.93,4.93,0,0,0,3.18,1c2.27,0,4.11-1.26,4.11-2.83a2.11,2.11,0,0,0,0-.25,4.92,4.92,0,0,0-3.18-1.05C135,136.45,133.19,137.71,133.19,139.28Z" transform="translate(0 -33.57)"/><path class="cls-6" d="M133.19,123.65a.91.91,0,0,0,0,.17c.12,1.49,1.91,2.67,4.1,2.67h0a5.49,5.49,0,0,0,2.12-.42h0a2.81,2.81,0,0,0,2-2.42,2.55,2.55,0,0,0-1.45-2.14h0a5,5,0,0,0-.74-.34h0a5.55,5.55,0,0,0-1.91-.33,5.76,5.76,0,0,0-2.05.37h0A2.84,2.84,0,0,0,133.19,123.65Z" transform="translate(0 -33.57)"/><path class="cls-5" d="M135,122.43a3,3,0,0,0,.92,2.07,4.63,4.63,0,0,0,.58.5,6.51,6.51,0,0,0,3,1.07h0a6.44,6.44,0,0,0,.89.06c3,0,5.39-1.66,5.39-3.7a2.69,2.69,0,0,0-.07-.57,6.71,6.71,0,0,0-3.88-1.15,7.5,7.5,0,0,0-1.93.25,6.4,6.4,0,0,0-.62.2h0a5.55,5.55,0,0,0-1.91-.33,5.76,5.76,0,0,0-2.05.37h0A2.75,2.75,0,0,0,135,122.43Z" transform="translate(0 -33.57)"/><path class="cls-5" d="M133.19,123.65a.91.91,0,0,0,0,.17,5.3,5.3,0,0,0,2.66.68h0a4.41,4.41,0,0,0,.52,0c2-.17,3.58-1.36,3.58-2.8a.86.86,0,0,0,0-.16h0a1.69,1.69,0,0,0-.12-.54,6.4,6.4,0,0,0-.62.2h0a5.55,5.55,0,0,0-1.91-.33,5.76,5.76,0,0,0-2.05.37h0A2.84,2.84,0,0,0,133.19,123.65Z" transform="translate(0 -33.57)"/><path class="cls-6" d="M332.57,175.87c0,3.69-3.81,6.69-8.5,6.69H148.9c-4.69,0-8.5-3-8.5-6.69h0c0-3.69,3.81-6.69,8.5-6.69H324.07c4.69,0,8.5,3,8.5,6.69Z" transform="translate(0 -33.57)"/><path class="cls-9" d="M279.23,128.31a29.08,29.08,0,1,1-29.08-29.08A29.09,29.09,0,0,1,279.23,128.31Z" transform="translate(0 -33.57)"/><polygon class="cls-10" points="309.71 136.99 296.64 135.76 289.88 135.35 265.06 142.85 261.82 138.22 219.38 146.44 218.08 143.17 216.09 138.22 173.27 140.28 189.71 123.85 192.47 126.31 195.37 123.9 211.3 110.64 236.28 89.84 237.96 95.64 243.11 89.84 244.2 90.77 249.95 95.67 267.93 105.77 268.67 107.69 270.81 113.27 296.4 131.24 309.71 136.99"/><polygon class="cls-11" points="296.64 135.76 289.88 135.35 265.06 142.85 261.82 138.22 219.38 146.44 218.08 143.17 216.09 138.22 173.27 140.28 189.71 123.85 192.47 126.31 195.37 123.9 199.53 131.01 229.67 115.51 231.82 122.35 233.62 128.14 235.96 123.2 241.29 111.94 242.64 109.08 250.37 126.08 252.87 109.08 269.98 127.73 277.76 124.31 296.64 135.76"/><polygon class="cls-12" points="268.67 107.69 251.63 104.92 249.94 109.08 242.57 102.66 239.88 100.32 235.34 111.3 229.95 105.98 211.3 110.64 236.28 89.84 237.96 95.64 243.11 89.84 244.2 90.77 249.95 95.67 267.93 105.77 268.67 107.69"/><path class="cls-13" d="M244.2,124.34l-4.32,9.55-4.54,11a23.18,23.18,0,0,1-5.35,5.21l-1.5,5.88-5.9,19.71-6.5-3.87-42.82,2,16.43-16.43,2.77,2.47,2.9-2.42,15.93-13.26,25-20.79,1.68,5.8,5.15-5.8Z" transform="translate(0 -33.57)"/><rect class="cls-14" x="64.79" y="116.58" width="80.55" height="30.96"/><path class="cls-15" d="M145.35,150.33v5.26c-7,5.59-25.14,11.08-46.79,13.6a168.64,168.64,0,0,1-33.26.87V150.33Z" transform="translate(0 -33.57)"/><rect class="cls-14" x="73.16" y="76.17" width="66.57" height="26.2"/><path class="cls-15" d="M139.74,109.75v4.37c-5.81,4.65-20.9,9.22-38.91,11.31a140.14,140.14,0,0,1-27.67.72v-16.4Z" transform="translate(0 -33.57)"/><rect class="cls-16" x="50.35" y="119.09" width="4.88" height="28.44"/><rect class="cls-16" x="153.83" y="119.09" width="4.87" height="28.44"/><path class="cls-17" d="M140,137.9H73s-22.38,15.57-37.36,8c1.19,3.32-.19,11.68,70.83,10.7,71,1,69.64-7.38,70.83-10.7C162.35,153.47,140,137.9,140,137.9Z" transform="translate(0 -33.57)"/><polygon class="cls-18" points="118.42 68.23 94.58 68.23 106.5 56.3 118.42 68.23"/><polygon class="cls-19" points="113.41 68.23 99.59 68.23 106.5 61.31 113.41 68.23"/><rect class="cls-20" x="42.63" y="147.54" width="121.12" height="6.19"/><rect class="cls-21" x="97.61" y="126.36" width="17.77" height="21.18"/><rect class="cls-21" x="75.09" y="126.36" width="11.11" height="14.66"/><rect class="cls-21" x="125.27" y="126.36" width="11.11" height="14.66"/><rect class="cls-21" x="82.23" y="86.13" width="8.8" height="11.62"/><rect class="cls-21" x="95.93" y="86.13" width="8.8" height="11.62"/><rect class="cls-21" x="121.98" y="86.13" width="8.8" height="11.62"/><rect class="cls-21" x="108.8" y="86.13" width="8.8" height="11.62"/><path class="cls-16" d="M73,133.91s-22.38,15.56-37.36,8c1,2.7.24,8.74,38.27,10.37,20.94-3.17,25.33-13.48,26.23-18.35Z" transform="translate(0 -33.57)"/><path class="cls-16" d="M140,133.91H113.91c.89,4.85,5.26,15.1,26,18.31,37.17-1.68,36.46-7.65,37.42-10.33C162.35,149.47,140,133.91,140,133.91Z" transform="translate(0 -33.57)"/><path class="cls-18" d="M113.91,133.91H100.17c-.9,4.87-5.29,15.18-26.23,18.35,8.67.37,19.37.51,32.56.33,13.63.18,24.58,0,33.41-.37C119.17,149,114.8,138.76,113.91,133.91Z" transform="translate(0 -33.57)"/><path class="cls-17" d="M126.29,104.16H86.71s-13.23,9.2-22.09,4.72c.71,2-.12,6.91,41.88,6.33,42,.58,41.18-4.37,41.88-6.33C139.52,113.36,126.29,104.16,126.29,104.16Z" transform="translate(0 -33.57)"/><path class="cls-16" d="M86.71,101.8s-13.23,9.2-22.09,4.72c.57,1.6.14,5.17,22.63,6.13,12.38-1.87,15-8,15.51-10.85Z" transform="translate(0 -33.57)"/><path class="cls-16" d="M126.29,101.8H110.88c.53,2.87,3.11,8.93,15.38,10.83,22-1,21.55-4.53,22.12-6.11C139.52,111,126.29,101.8,126.29,101.8Z" transform="translate(0 -33.57)"/><path class="cls-18" d="M110.88,101.8h-8.12c-.53,2.88-3.13,9-15.51,10.85,5.13.22,11.45.3,19.25.19,8.06.12,14.54,0,19.76-.21C114,110.73,111.41,104.67,110.88,101.8Z" transform="translate(0 -33.57)"/><rect class="cls-22" x="105.81" y="126.36" width="1.38" height="21.18"/><rect class="cls-16" x="315.26" y="78.17" width="5.88" height="60.88"/><path class="cls-18" d="M317.85,172.63h3.3V133.81c-1.12-.06-2.22-.16-3.3-.28Z" transform="translate(0 -33.57)"/><path class="cls-23" d="M315.26,111.74v21.44c.86.14,1.71.25,2.59.35V111.74Z" transform="translate(0 -33.57)"/><path class="cls-24" d="M317.85,111.74v21.79c1.08.12,2.18.22,3.3.28V111.74Z" transform="translate(0 -33.57)"/><path class="cls-16" d="M361.08,122.79v49.84h2.6V120.44A33,33,0,0,1,361.08,122.79Z" transform="translate(0 -33.57)"/><path class="cls-18" d="M363.68,172.63H367V116.55a29,29,0,0,1-3.29,3.89Z" transform="translate(0 -33.57)"/><path class="cls-23" d="M363.68,111.74h-2.6v11.05a33,33,0,0,0,2.6-2.35Z" transform="translate(0 -33.57)"/><path class="cls-24" d="M363.68,111.74v8.7a29,29,0,0,0,3.29-3.89v-4.81Z" transform="translate(0 -33.57)"/><path class="cls-25" d="M342,89.42v2c0,.35-.08.7-.13,1.06s-.09.62-.14.93c-2.2,14.36-9.29,21.73-12.34,24.3-3.14-.21-5.87-.49-8.25-.81-1.19-.16-2.28-.33-3.3-.51s-1.79-.33-2.59-.51l-1.64-.39c.57-.13,1.1-.26,1.64-.41.37-.08.74-.19,1.1-.29l.41-.11.85-.26.23-.07.67-.22c.62-.2,1.21-.42,1.79-.64l.84-.32h0l1-.43.27-.12c.39-.17.78-.34,1.15-.52l.19-.1c.45-.22.91-.44,1.34-.68l.08,0c.76-.4,1.49-.82,2.18-1.26l.66-.43c.33-.21.66-.42,1-.66s.77-.54,1.13-.83c.73-.57,1.42-1.14,2.07-1.73.29-.24.56-.5.83-.77a1.14,1.14,0,0,0,.11-.11c.26-.24.5-.5.74-.75s.66-.7,1-1.06.52-.6.76-.89a30,30,0,0,0,2-2.73c.21-.31.39-.61.56-.9a30.71,30.71,0,0,0,2.16-4.28c.22-.54.41-1.07.58-1.57s.33-1,.47-1.44a4.77,4.77,0,0,0,.13-.47,1.33,1.33,0,0,0,.05-.19c.06-.21.11-.41.16-.59s.1-.43.14-.63S342,89.62,342,89.42Z" transform="translate(0 -33.57)"/><path class="cls-26" d="M342,91.47v26.68h-.27c-4.68,0-8.78-.14-12.34-.39,3.05-2.57,10.14-9.94,12.34-24.3.05-.31.09-.61.14-.93S342,91.82,342,91.47Z" transform="translate(0 -33.57)"/><path class="cls-26" d="M341.74,87v3.62l-.16.63a1.33,1.33,0,0,1-.05.19s0,0,0,0c0,.15-.07.31-.12.47-.14.46-.29.94-.47,1.44s-.36,1-.58,1.57a30.71,30.71,0,0,1-2.16,4.28c-.17.3-.36.59-.56.9a30,30,0,0,1-2,2.73c-.24.29-.5.6-.76.89s-.63.71-1,1.06-.48.51-.74.75a1.14,1.14,0,0,1-.11.11l-.83.77c-.65.59-1.34,1.16-2.07,1.73-.36.28-.74.56-1.13.83s-.65.45-1,.66l-.66.43c-.7.44-1.42.85-2.18,1.26l-.08,0c-.45.24-.89.46-1.34.68l-.19.1-1.15.52-.27.12-1,.43h0l-.84.32c-.57.22-1.18.43-1.79.64l-.67.21h0l-.23.07-.85.26-.41.11c-.36.1-.73.21-1.1.29-.54.15-1.07.28-1.64.41-7.51-1.94-8.53-4.24-8.53-4.24s24.65,1.64,35.34-21.19C340.9,89.12,341.34,88.09,341.74,87Z" transform="translate(0 -33.57)"/><path class="cls-26" d="M370.13,115.54q-1.32.34-2.91.66l-.25,0c-1,.2-2.1.38-3.29.57-.82.12-1.68.23-2.6.34-2,.24-4.23.45-6.72.61-3.05-2.57-10.15-9.94-12.35-24.3-.05-.31-.08-.61-.13-.93s-.1-.71-.14-1.06v-2c0,.2.09.41.14.61s.08.38.13.58h0c.06.25.12.49.2.76a26.54,26.54,0,0,0,1,3c.1.28.22.57.34.86a8.45,8.45,0,0,0,.39.88c.14.31.28.61.43.92a30.92,30.92,0,0,0,2.24,3.79l.68,1c.25.33.49.64.76,1,.13.16.27.32.4.49.3.36.6.71.93,1.06s.54.58.83.86a31.35,31.35,0,0,0,3.4,3l.95.7.16.11c.33.23.66.46,1,.68s1,.61,1.48.92.88.5,1.33.75l.09,0c.44.24.88.46,1.33.68s.76.36,1.14.52c.83.38,1.7.74,2.6,1.07h0c.51.18,1,.37,1.56.54s1.13.36,1.73.54l.81.23.21,0h0Z" transform="translate(0 -33.57)"/><path class="cls-25" d="M354.36,117.76c-3.57.25-7.65.38-12.35.39h-.27V91.47c0,.35.09.7.14,1.06s.08.62.13.93C344.21,107.82,351.31,115.19,354.36,117.76Z" transform="translate(0 -33.57)"/><path class="cls-27" d="M378.67,111.3s-1,2.3-8.54,4.24l-1.78-.43a2.42,2.42,0,0,0-.36-.1.64.64,0,0,0-.17-.05c-.3-.07-.58-.16-.85-.24l-.78-.24c-.59-.18-1.17-.36-1.74-.57l-.77-.28a.1.1,0,0,1-.08,0c-.37-.13-.74-.27-1.09-.42a2.62,2.62,0,0,1-.39-.15l-1-.46a36.9,36.9,0,0,1-4.65-2.45c-.24-.15-.49-.3-.72-.46-.84-.55-1.64-1.12-2.39-1.71-.28-.22-.55-.43-.82-.66s-.66-.56-1-.84l-.62-.57-.71-.71c-.63-.63-1.22-1.27-1.76-1.92-.13-.17-.27-.33-.4-.49-.27-.33-.51-.64-.76-1l-.68-1A30.92,30.92,0,0,1,344.36,97c-.15-.31-.29-.61-.43-.92a29,29,0,0,1-1.72-4.72c-.08-.27-.14-.51-.2-.76V87c.33.87.67,1.71,1,2.52,6.56,14.59,18.75,19.46,27,21A37,37,0,0,0,378.67,111.3Z" transform="translate(0 -33.57)"/><rect class="cls-14" x="311.05" y="139.06" width="58.1" height="6.98"/><rect class="cls-28" x="304.68" y="146.04" width="70.02" height="6.98"/><path class="cls-25" d="M340.66,158.67v1H353v-1Zm-13.51,0v1h12.39v-1Zm-6.52,0v12.39h41V158.67ZM360.56,170H321.67v-10.3h38.89Zm-33.41-11.34v1h12.39v-1Zm13.51,0v1H353v-1Z" transform="translate(0 -33.57)"/><path class="cls-25" d="M320.63,158.67v5.41H326v-5.41ZM325,163h-3.31v-3.32H325Z" transform="translate(0 -33.57)"/><path class="cls-25" d="M320.63,165.66v5.4H326v-5.4ZM325,170h-3.31V166.7H325Z" transform="translate(0 -33.57)"/><path class="cls-25" d="M327.15,159.71v1.57h1.05v-1.57Zm0-1v5.41h5.42v-5.41Zm4.37,4.36H328.2v-3.32h3.32Zm-4.37-3.32v1.57h1.05v-1.57Z" transform="translate(0 -33.57)"/><path class="cls-25" d="M327.15,165.66v5.4h5.42v-5.4ZM328.2,170V166.7h3.32V170Z" transform="translate(0 -33.57)"/><path class="cls-25" d="M323,161.28v4.38h1v-3.33h4.12v-1.05Zm0,0v7.17h7.17v-7.17Zm6.12,6.11h-5.08v-5.06h5.08ZM323,161.28v4.38h1v-3.33h4.12v-1.05Z" transform="translate(0 -33.57)"/><path class="cls-25" d="M338.5,159.71v1.57h1v-1.57Zm-4.37-1v5.41h5.41v-5.41ZM338.5,163h-3.31v-3.32h3.31Z" transform="translate(0 -33.57)"/><path class="cls-25" d="M334.13,165.66v5.4h5.41v-5.4ZM338.5,170h-3.31V166.7h3.31Z" transform="translate(0 -33.57)"/><path class="cls-25" d="M340.66,159.71v1.57h1v-1.57Zm0-1v5.41h5.41v-5.41ZM345,163H341.7v-3.32H345Zm-4.37-3.32v1.57h1v-1.57Z" transform="translate(0 -33.57)"/><path class="cls-25" d="M340.66,165.66v5.4h5.41v-5.4Zm1,4.35V166.7H345V170Z" transform="translate(0 -33.57)"/><path class="cls-25" d="M338.5,161.28v1.05h3.2v-1.05Zm-2,0v7.17h7.17v-7.17Zm6.12,6.11H337.6v-5.06h5.06Zm-4.16-6.11v1.05h3.2v-1.05Z" transform="translate(0 -33.57)"/><path class="cls-25" d="M351.92,159.71v1.57h1v-1.57Zm-4.37-1v5.41H353v-5.41Zm4.37,4.36H348.6v-3.32h3.32Z" transform="translate(0 -33.57)"/><path class="cls-25" d="M347.55,165.66v5.4H353v-5.4Zm4.37,4.35H348.6V166.7h3.32Z" transform="translate(0 -33.57)"/><path class="cls-25" d="M354.08,158.67v5.41h5.41v-5.41Zm4.37,4.36h-3.32v-3.32h3.32Z" transform="translate(0 -33.57)"/><path class="cls-25" d="M354.08,165.66v5.4h5.41v-5.4Zm1.05,4.35V166.7h3.32V170Z" transform="translate(0 -33.57)"/><path class="cls-25" d="M351.92,161.28v1.05h2.16v-1.05Zm-1.95,0v7.17h7.16v-7.17Zm6.12,6.11H351v-5.06h5.08Zm-4.17-6.11v1.05h2.16v-1.05Z" transform="translate(0 -33.57)"/><polygon class="cls-25" points="361.6 123.27 361.6 139.06 360.56 139.06 360.56 124.31 321.67 124.31 321.67 139.06 320.63 139.06 320.63 123.27 361.6 123.27"/><path class="cls-16" d="M343.05,85.44v4.72a1.3,1.3,0,0,1-.84,1.22l-.2.06a2.23,2.23,0,0,1-.27,0,.53.53,0,0,1-.21,0s0,0,0,0a1.31,1.31,0,0,1-1.09-1.28V85.44a1.31,1.31,0,1,1,2.62,0Z" transform="translate(0 -33.57)"/><path class="cls-28" d="M368.94,172.63c-2.08,3.92-19.66,5.76-41,5.76-6,0-11.7,0-16.85-.12v-5.64Z" transform="translate(0 -33.57)"/><path class="cls-20" d="M374.7,179.61c-2.08,3.93-19.66,5.76-41,5.76-5.57,0-22.46,0-29-.11v-5.65Z" transform="translate(0 -33.57)"/><path class="cls-29" d="M362.45,133.9c-.72,2.06-.47,4,.81,4.91s3.19.44,4.88-.94c.95,2,2.51,3.17,4,2.9s2.58-2,2.78-4.12c2.06.72,4,.47,4.91-.81s.44-3.2-.94-4.88c2-1,3.17-2.52,2.9-4s-1.95-2.58-4.12-2.78c.72-2.07.46-4-.81-4.91s-3.2-.45-4.88.94c-.95-2-2.51-3.17-4-2.9s-2.58,2-2.79,4.12c-2.06-.72-4-.46-4.9.8s-.44,3.2.94,4.89c-2,.94-3.18,2.51-2.91,4S360.28,133.69,362.45,133.9Z" transform="translate(0 -33.57)"/><path class="cls-30" d="M365.53,132.55c-.45,1.25-.3,2.45.48,3s2,.27,3-.58c.58,1.2,1.54,1.94,2.47,1.77s1.57-1.19,1.7-2.51c1.25.44,2.46.28,3-.49s.27-2-.58-3c1.2-.58,1.94-1.54,1.78-2.47s-1.2-1.57-2.52-1.69c.44-1.27.29-2.46-.49-3s-1.95-.26-3,.59c-.58-1.21-1.53-2-2.47-1.78s-1.57,1.19-1.69,2.52c-1.26-.44-2.46-.29-3,.49s-.27,1.95.58,3c-1.2.58-1.94,1.53-1.78,2.46S364.2,132.42,365.53,132.55Z" transform="translate(0 -33.57)"/><path class="cls-31" d="M368.65,130.54a.69.69,0,1,0,1.14.79c.19.39.5.63.8.58a.83.83,0,0,0,.56-.82.84.84,0,0,0,1-.16.83.83,0,0,0-.19-1c.4-.19.64-.5.58-.81s-.38-.51-.82-.56a.69.69,0,1,0-1.14-.78c-.18-.4-.5-.64-.8-.59s-.52.39-.56.83a.85.85,0,0,0-1,.16.82.82,0,0,0,.19,1c-.39.2-.64.51-.58.81S368.22,130.5,368.65,130.54Z" transform="translate(0 -33.57)"/><path class="cls-29" d="M418,143.14c-1,2.77-.62,5.41,1.09,6.61s4.3.59,6.57-1.27c1.28,2.64,3.38,4.27,5.44,3.91s3.47-2.63,3.75-5.55c2.77,1,5.41.63,6.6-1.09s.6-4.31-1.26-6.58c2.64-1.27,4.27-3.38,3.9-5.43s-2.62-3.47-5.54-3.75c1-2.78.62-5.42-1.09-6.61s-4.31-.6-6.58,1.27c-1.27-2.64-3.38-4.27-5.43-3.9s-3.47,2.63-3.75,5.55c-2.78-1-5.42-.63-6.61,1.08s-.6,4.3,1.27,6.57c-2.65,1.27-4.28,3.39-3.91,5.44S415.06,142.86,418,143.14Z" transform="translate(0 -33.57)"/><path class="cls-30" d="M422.12,141.31c-.6,1.69-.39,3.31.65,4s2.64.36,4-.78c.77,1.62,2.07,2.61,3.32,2.39s2.12-1.61,2.28-3.38c1.7.59,3.31.38,4-.67s.37-2.63-.78-4c1.61-.79,2.61-2.08,2.39-3.33s-1.61-2.11-3.39-2.28c.59-1.7.39-3.31-.66-4s-2.63-.36-4,.78c-.78-1.62-2.07-2.62-3.32-2.39s-2.12,1.6-2.29,3.39c-1.69-.59-3.31-.39-4,.66s-.37,2.62.78,4c-1.62.78-2.61,2.07-2.39,3.32S420.33,141.14,422.12,141.31Z" transform="translate(0 -33.57)"/><path class="cls-31" d="M426.33,138.61a.93.93,0,1,0,1.53,1.06c.26.54.67.86,1.09.78s.7-.52.75-1.11a1.1,1.1,0,0,0,1.32-.21,1.16,1.16,0,0,0-.26-1.32c.53-.25.86-.67.78-1.08s-.52-.69-1.11-.75a.93.93,0,1,0-1.53-1.06c-.25-.54-.67-.86-1.08-.79s-.7.52-.75,1.11a1.13,1.13,0,0,0-1.32.22,1.12,1.12,0,0,0,.25,1.31c-.53.26-.85.68-.78,1.09S425.75,138.55,426.33,138.61Z" transform="translate(0 -33.57)"/><path class="cls-29" d="M364.39,154.67c-.5,1.45-.32,2.83.57,3.45s2.25.31,3.43-.66c.67,1.38,1.77,2.23,2.84,2s1.81-1.37,2-2.9c1.45.51,2.83.33,3.45-.56s.31-2.25-.66-3.44c1.38-.66,2.23-1.77,2-2.84s-1.37-1.81-2.9-1.95c.5-1.45.33-2.83-.57-3.45s-2.25-.32-3.43.66c-.66-1.38-1.77-2.23-2.84-2s-1.81,1.37-1.95,2.9c-1.46-.51-2.84-.33-3.46.56s-.31,2.25.67,3.44c-1.38.66-2.24,1.76-2.05,2.84S362.87,154.53,364.39,154.67Z" transform="translate(0 -33.57)"/><path class="cls-30" d="M366.56,153.72a1.76,1.76,0,0,0,.34,2.1,1.79,1.79,0,0,0,2.09-.4c.41.84,1.08,1.36,1.74,1.24s1.1-.84,1.19-1.76a1.8,1.8,0,0,0,2.1-.35,1.76,1.76,0,0,0-.4-2.09c.84-.41,1.36-1.09,1.25-1.74s-.84-1.1-1.77-1.19a1.49,1.49,0,1,0-2.44-1.7c-.41-.85-1.08-1.37-1.74-1.25s-1.1.84-1.19,1.77a1.49,1.49,0,1,0-1.7,2.44c-.84.41-1.36,1.08-1.25,1.73S365.62,153.63,366.56,153.72Z" transform="translate(0 -33.57)"/><path class="cls-31" d="M368.76,152.31a.57.57,0,0,0,.11.69.58.58,0,0,0,.68-.14c.13.28.35.45.57.41s.36-.27.39-.58a.59.59,0,0,0,.69-.11.61.61,0,0,0-.13-.69c.27-.13.45-.35.41-.56a.6.6,0,0,0-.58-.4c.09-.29.06-.56-.12-.68a.56.56,0,0,0-.68.13c-.13-.28-.36-.45-.57-.41s-.36.27-.39.58a.6.6,0,0,0-.69.11.61.61,0,0,0,.13.69c-.27.13-.44.35-.4.57S368.45,152.28,368.76,152.31Z" transform="translate(0 -33.57)"/><path class="cls-7" d="M352.85,150.37a1.88,1.88,0,0,0,2.36,1.23L372.89,146a1.87,1.87,0,0,0,1.22-2.36l-.64-2a1.88,1.88,0,0,0-2.36-1.22L353.42,146a1.89,1.89,0,0,0-1.22,2.36Z" transform="translate(0 -33.57)"/><path class="cls-7" d="M380.72,128.11l23.53,13.75a1.89,1.89,0,0,0,2.58-.68l1.65-2.83a1.88,1.88,0,0,0-.67-2.57l-1.12-.65L384.27,122a1.88,1.88,0,0,0-2.57.67l-1,1.7-.66,1.15A1.85,1.85,0,0,0,380.72,128.11Z" transform="translate(0 -33.57)"/><path class="cls-32" d="M380.71,124.4l22.41,13.09a1.88,1.88,0,0,0,2.57-.68l1-1.68L384.27,122a1.88,1.88,0,0,0-2.57.67Z" transform="translate(0 -33.57)"/><path class="cls-7" d="M408.39,120.7l19.6,4.62a1.39,1.39,0,0,0,1.67-1l.56-2.36a1.38,1.38,0,0,0-1-1.67l-.94-.22-18.66-4.4a1.4,1.4,0,0,0-1.68,1l-.33,1.41-.22,1A1.38,1.38,0,0,0,408.39,120.7Z" transform="translate(0 -33.57)"/><path class="cls-32" d="M407.58,118.08l18.67,4.4a1.4,1.4,0,0,0,1.67-1l.33-1.41-18.66-4.4a1.4,1.4,0,0,0-1.68,1Z" transform="translate(0 -33.57)"/><path class="cls-7" d="M355.6,137.07,370,143.48v.92a1.88,1.88,0,0,0,1.91,1.85l34.06-.56a1.86,1.86,0,0,0,.49-.08,1.82,1.82,0,0,0,.76-.32l37.67-26.9a1.86,1.86,0,0,0,.43-2.61l-1.18-1.66-.32-.44-2.46-3.45a1.87,1.87,0,0,0-2.62-.44L401,136.69a1.83,1.83,0,0,0-.55.63l-28.75.47-.09,0L358,131.71a1.87,1.87,0,0,0-2.48.95l-.32.72-.54,1.21a1.5,1.5,0,0,0-.14.5A1.86,1.86,0,0,0,355.6,137.07Z" transform="translate(0 -33.57)"/><path class="cls-32" d="M368.42,140.2a1.88,1.88,0,0,0,1.9,1.85l34.07-.56a1.33,1.33,0,0,0,.49-.09,1.8,1.8,0,0,0,.76-.31l37.67-26.9a1.76,1.76,0,0,0,.47-.51l-2.46-3.45a1.87,1.87,0,0,0-2.62-.44L401,136.69a1.83,1.83,0,0,0-.55.63l-28.75.47-.09,0L358,131.71a1.87,1.87,0,0,0-2.48.95l-.32.72,13.22,5.89Z" transform="translate(0 -33.57)"/><path class="cls-33" d="M387.92,149.4a1.16,1.16,0,0,0,1.54.62l10.65-4.54a1.17,1.17,0,0,0,.62-1.54l-.51-1.21a1.19,1.19,0,0,0-1.55-.62L388,146.65a1.19,1.19,0,0,0-.62,1.54Z" transform="translate(0 -33.57)"/><path class="cls-34" d="M371.69,126.44c-.76,2.18-.49,4.26.85,5.2s3.4.47,5.19-1c1,2.09,2.67,3.37,4.28,3.08s2.74-2.07,3-4.37c2.19.76,4.27.5,5.21-.86s.47-3.39-1-5.18c2.08-1,3.37-2.67,3.08-4.29s-2.07-2.73-4.37-3c.76-2.19.49-4.27-.86-5.21s-3.39-.47-5.18,1c-1-2.09-2.67-3.37-4.29-3.08s-2.74,2.07-3,4.37c-2.18-.77-4.27-.5-5.2.85s-.48,3.39,1,5.18c-2.08,1-3.37,2.67-3.08,4.29S369.38,126.21,371.69,126.44Z" transform="translate(0 -33.57)"/><path class="cls-29" d="M375,125c-.47,1.34-.31,2.61.52,3.18s2.07.29,3.17-.61c.6,1.27,1.62,2.05,2.61,1.88s1.67-1.27,1.8-2.67c1.34.47,2.61.31,3.18-.52s.29-2.08-.61-3.16c1.27-.62,2.06-1.64,1.88-2.62s-1.26-1.67-2.67-1.8c.47-1.34.31-2.61-.52-3.18s-2.07-.29-3.17.61c-.6-1.27-1.62-2.06-2.61-1.88s-1.67,1.26-1.8,2.67c-1.34-.47-2.61-.3-3.18.52s-.29,2.07.61,3.16c-1.27.62-2.06,1.63-1.88,2.62S373.54,124.86,375,125Z" transform="translate(0 -33.57)"/><path class="cls-35" d="M378.27,122.86a.74.74,0,1,0,1.21.84c.2.42.53.68.85.62s.55-.41.6-.88a.88.88,0,0,0,1-.16.93.93,0,0,0-.2-1c.41-.2.67-.53.61-.86s-.41-.54-.87-.59a.9.9,0,0,0-.17-1,.91.91,0,0,0-1,.2.9.9,0,0,0-.86-.62c-.32.06-.54.42-.59.88a.89.89,0,0,0-1,.17.91.91,0,0,0,.2,1c-.42.2-.67.53-.61.85S377.81,122.82,378.27,122.86Z" transform="translate(0 -33.57)"/><path class="cls-34" d="M350.46,134.42c-.53,1.55-.35,3,.61,3.7s2.41.33,3.68-.71c.71,1.48,1.89,2.39,3,2.18s1.94-1.47,2.09-3.1c1.56.54,3,.35,3.7-.61s.33-2.41-.71-3.68c1.48-.71,2.39-1.89,2.18-3s-1.47-1.95-3.1-2.1c.54-1.55.35-3-.61-3.69s-2.4-.34-3.67.71c-.71-1.48-1.89-2.39-3-2.18s-1.94,1.46-2.1,3.1c-1.55-.55-3-.36-3.69.6s-.33,2.41.71,3.68c-1.48.71-2.39,1.89-2.19,3S348.83,134.27,350.46,134.42Z" transform="translate(0 -33.57)"/><path class="cls-29" d="M352.78,133.4a1.59,1.59,0,1,0,2.61,1.82c.43.9,1.15,1.46,1.85,1.33s1.19-.9,1.28-1.89a1.93,1.93,0,0,0,2.26-.37,1.91,1.91,0,0,0-.44-2.24c.91-.44,1.46-1.16,1.34-1.86s-.9-1.18-1.9-1.28a1.9,1.9,0,0,0-.36-2.25,1.94,1.94,0,0,0-2.25.43c-.43-.9-1.15-1.46-1.85-1.33s-1.19.89-1.28,1.89a2,2,0,0,0-2.26.37,1.91,1.91,0,0,0,.44,2.24c-.91.44-1.46,1.16-1.34,1.86S351.78,133.3,352.78,133.4Z" transform="translate(0 -33.57)"/><path class="cls-35" d="M355.14,131.89a.62.62,0,0,0,.12.74.63.63,0,0,0,.73-.14c.14.29.38.47.6.43a.63.63,0,0,0,.43-.62.62.62,0,0,0,.73-.12.61.61,0,0,0-.14-.73c.3-.15.48-.38.44-.61s-.29-.39-.62-.42a.65.65,0,0,0-.12-.74.66.66,0,0,0-.74.14c-.14-.29-.38-.47-.6-.43s-.39.29-.42.62a.52.52,0,1,0-.6.85c-.3.15-.48.38-.43.61S354.81,131.86,355.14,131.89Z" transform="translate(0 -33.57)"/><path class="cls-34" d="M417.8,138.16c-.54,1.55-.35,3,.61,3.69s2.4.34,3.67-.71c.72,1.48,1.9,2.39,3,2.19s1.94-1.47,2.1-3.1c1.55.53,3,.35,3.69-.61s.33-2.41-.71-3.68c1.48-.71,2.39-1.89,2.19-3s-1.47-1.94-3.1-2.09c.53-1.55.35-3-.61-3.7s-2.41-.33-3.68.72c-.71-1.48-1.89-2.39-3-2.19s-1.94,1.47-2.09,3.1c-1.56-.54-3-.35-3.7.61s-.33,2.4.71,3.67c-1.48.71-2.39,1.9-2.18,3S416.16,138,417.8,138.16Z" transform="translate(0 -33.57)"/><path class="cls-29" d="M420.11,137.14a1.6,1.6,0,1,0,2.62,1.82c.43.9,1.15,1.45,1.85,1.33s1.18-.9,1.28-1.89a1.92,1.92,0,0,0,2.25-.38,1.89,1.89,0,0,0-.43-2.23c.9-.44,1.46-1.16,1.33-1.86s-.89-1.18-1.89-1.28a1.59,1.59,0,1,0-2.61-1.82c-.44-.91-1.16-1.46-1.86-1.34s-1.18.9-1.28,1.9a1.59,1.59,0,1,0-1.81,2.61c-.91.44-1.47,1.15-1.34,1.85S419.11,137,420.11,137.14Z" transform="translate(0 -33.57)"/><path class="cls-35" d="M422.47,135.63a.64.64,0,0,0,.12.74.63.63,0,0,0,.73-.15c.14.3.38.48.61.44s.39-.29.42-.62a.63.63,0,0,0,.74-.12.66.66,0,0,0-.14-.74c.29-.14.47-.37.43-.6s-.29-.39-.62-.43a.61.61,0,0,0-.12-.73.62.62,0,0,0-.73.14c-.14-.3-.38-.48-.61-.44s-.39.3-.42.62c-.31-.1-.61-.07-.73.13s-.08.47.13.73a.63.63,0,0,0-.43.61C421.89,135.44,422.14,135.6,422.47,135.63Z" transform="translate(0 -33.57)"/><path class="cls-29" d="M405.4,157.67c-.69,2-.44,3.87.78,4.72s3.07.43,4.68-.9c.91,1.88,2.42,3,3.88,2.79s2.48-1.88,2.68-4c2,.68,3.87.45,4.72-.78s.42-3.07-.91-4.69c1.89-.91,3-2.42,2.79-3.88s-1.87-2.48-4-2.68c.69-2,.45-3.86-.77-4.71s-3.08-.43-4.7.91c-.9-1.89-2.41-3.05-3.88-2.79s-2.47,1.87-2.67,4c-2-.69-3.87-.45-4.72.77s-.42,3.07.91,4.69c-1.89.91-3.05,2.42-2.79,3.88S403.31,157.48,405.4,157.67Z" transform="translate(0 -33.57)"/><path class="cls-30" d="M408.35,156.38c-.42,1.2-.28,2.35.47,2.87s1.88.26,2.87-.56c.55,1.15,1.47,1.86,2.36,1.7s1.52-1.14,1.63-2.41c1.21.42,2.37.27,2.88-.47s.27-1.88-.55-2.86c1.15-.56,1.86-1.48,1.7-2.37s-1.14-1.51-2.42-1.63c.43-1.21.28-2.36-.47-2.89s-1.87-.25-2.86.56c-.55-1.15-1.47-1.86-2.37-1.7s-1.51,1.14-1.63,2.42c-1.21-.42-2.36-.28-2.88.46s-.26,1.88.56,2.87c-1.16.56-1.87,1.47-1.71,2.37S407.08,156.25,408.35,156.38Z" transform="translate(0 -33.57)"/><path class="cls-31" d="M411.36,154.44a.8.8,0,0,0,.16.95.79.79,0,0,0,.93-.19c.18.38.48.61.77.56s.5-.37.54-.79a.8.8,0,0,0,.94-.15.81.81,0,0,0-.18-.94c.38-.18.61-.48.56-.78s-.37-.49-.79-.53a.82.82,0,0,0-.16-.94.79.79,0,0,0-.93.18c-.18-.38-.49-.61-.78-.56s-.5.37-.54.79a.66.66,0,1,0-.76,1.09c-.37.19-.6.49-.55.78S410.94,154.41,411.36,154.44Z" transform="translate(0 -33.57)"/><path class="cls-34" d="M382.62,155.49c-.9,2.6-.59,5.07,1,6.19s4,.56,6.15-1.19c1.19,2.48,3.17,4,5.09,3.66s3.25-2.46,3.51-5.2c2.6.91,5.07.6,6.19-1s.55-4-1.19-6.16c2.48-1.19,4-3.17,3.66-5.09s-2.46-3.25-5.2-3.51c.9-2.6.59-5.07-1-6.18s-4-.56-6.16,1.19c-1.19-2.47-3.17-4-5.09-3.66s-3.25,2.46-3.51,5.2c-2.6-.91-5.07-.59-6.18,1s-.56,4,1.18,6.15c-2.48,1.19-4,3.17-3.66,5.09S379.88,155.23,382.62,155.49Z" transform="translate(0 -33.57)"/><path class="cls-29" d="M386.49,153.78c-.56,1.58-.36,3.09.62,3.77s2.46.35,3.76-.72c.72,1.5,1.93,2.44,3.1,2.23s2-1.51,2.14-3.17c1.59.55,3.1.36,3.78-.62s.34-2.46-.73-3.75c1.51-.73,2.44-1.94,2.24-3.11s-1.51-2-3.18-2.14c.56-1.59.37-3.1-.61-3.78s-2.47-.33-3.76.73c-.72-1.52-1.94-2.45-3.11-2.24s-2,1.5-2.14,3.18c-1.58-.55-3.1-.36-3.78.61s-.34,2.46.74,3.76c-1.52.73-2.45,1.93-2.24,3.11S384.82,153.62,386.49,153.78Z" transform="translate(0 -33.57)"/><path class="cls-35" d="M390.44,151.25a1,1,0,0,0,.2,1.24,1.06,1.06,0,0,0,1.23-.24c.23.5.63.8,1,.73s.66-.49.71-1a1,1,0,0,0,1.23-.19,1.08,1.08,0,0,0-.23-1.24c.49-.24.8-.63.73-1s-.49-.64-1-.7a.87.87,0,1,0-1.43-1c-.24-.49-.64-.8-1-.73s-.65.49-.7,1a.87.87,0,1,0-1,1.43c-.5.24-.8.64-.73,1S389.89,151.2,390.44,151.25Z" transform="translate(0 -33.57)"/><path class="cls-34" d="M347,156.81c-.76,2.18-.49,4.27.86,5.2s3.39.48,5.18-1c1,2.08,2.67,3.37,4.29,3.07s2.73-2.06,2.95-4.37c2.19.76,4.27.5,5.21-.85s.47-3.4-1-5.19c2.09-1,3.37-2.67,3.08-4.28s-2.07-2.74-4.37-3c.76-2.19.49-4.27-.86-5.21s-3.39-.47-5.18,1c-1-2.09-2.67-3.37-4.29-3.08s-2.73,2.07-2.95,4.37c-2.19-.76-4.27-.49-5.21.85s-.47,3.4,1,5.19c-2.09,1-3.37,2.66-3.08,4.28S344.72,156.59,347,156.81Z" transform="translate(0 -33.57)"/><path class="cls-29" d="M350.29,155.37c-.48,1.33-.31,2.6.51,3.17s2.08.29,3.17-.61c.61,1.27,1.63,2.06,2.61,1.88s1.67-1.27,1.81-2.67c1.33.47,2.6.31,3.18-.52s.28-2.07-.62-3.16c1.27-.62,2.06-1.63,1.88-2.62s-1.26-1.67-2.67-1.8c.47-1.34.31-2.61-.52-3.18s-2.07-.28-3.16.61c-.61-1.27-1.63-2.06-2.62-1.88s-1.67,1.26-1.8,2.67c-1.33-.46-2.61-.3-3.18.52s-.29,2.07.62,3.17c-1.28.61-2.06,1.62-1.89,2.61S348.88,155.23,350.29,155.37Z" transform="translate(0 -33.57)"/><path class="cls-35" d="M353.6,153.24a.91.91,0,0,0,.17,1,.88.88,0,0,0,1-.21c.2.42.53.68.86.62a1.33,1.33,0,0,1,1.63-1,.91.91,0,0,0-.2-1c.42-.2.67-.53.62-.86s-.42-.54-.88-.59a.89.89,0,0,0-.17-1,.91.91,0,0,0-1,.2c-.19-.42-.53-.67-.85-.61s-.55.41-.6.87a.73.73,0,1,0-.83,1.21c-.42.2-.68.53-.62.85A.89.89,0,0,0,353.6,153.24Z" transform="translate(0 -33.57)"/><path class="cls-34" d="M399.06,122.13c-.76,2.19-.49,4.28.86,5.21s3.39.47,5.18-1c1,2.09,2.67,3.37,4.29,3.08s2.74-2.07,2.95-4.37c2.19.76,4.27.5,5.21-.86s.47-3.39-1-5.18c2.09-1,3.37-2.67,3.08-4.29s-2.07-2.73-4.37-3c.76-2.19.49-4.27-.86-5.21s-3.39-.47-5.18,1c-1-2.08-2.67-3.36-4.28-3.07s-2.74,2.07-3,4.37c-2.19-.77-4.27-.5-5.21.85s-.47,3.39,1,5.18c-2.09,1-3.37,2.67-3.08,4.29S396.76,121.91,399.06,122.13Z" transform="translate(0 -33.57)"/><path class="cls-29" d="M402.33,120.69c-.48,1.33-.31,2.61.52,3.18s2.07.29,3.16-.61c.61,1.27,1.63,2,2.61,1.88s1.68-1.27,1.81-2.67c1.33.47,2.61.3,3.17-.52s.29-2.08-.61-3.16c1.28-.62,2.06-1.64,1.89-2.62s-1.27-1.67-2.68-1.8c.47-1.34.31-2.61-.52-3.19s-2.07-.28-3.16.62c-.61-1.27-1.63-2.06-2.61-1.88s-1.68,1.26-1.81,2.67c-1.33-.46-2.61-.3-3.18.52s-.29,2.07.62,3.16c-1.28.62-2.06,1.63-1.89,2.62S400.92,120.56,402.33,120.69Z" transform="translate(0 -33.57)"/><path class="cls-35" d="M405.65,118.56a.89.89,0,0,0,.17,1c.27.19.67.09,1-.21.2.42.53.68.86.62s.55-.41.59-.88a.87.87,0,0,0,1-.16.91.91,0,0,0-.2-1c.42-.2.67-.53.61-.86s-.41-.54-.87-.59a.73.73,0,1,0-1.2-.84c-.2-.42-.54-.67-.86-.61s-.55.41-.59.87a.74.74,0,1,0-.84,1.21c-.42.2-.68.53-.62.85S405.18,118.52,405.65,118.56Z" transform="translate(0 -33.57)"/><path class="cls-6" d="M423,203.17a5.47,5.47,0,0,1-5.47,5.47H178.74a5.47,5.47,0,0,1-5.47-5.47h0a5.47,5.47,0,0,1,5.47-5.47H417.55a5.47,5.47,0,0,1,5.47,5.47Z" transform="translate(0 -33.57)"/><path class="cls-29" d="M409.74,167.85c.06,2.18,1,3.92,2.5,4.3s3.14-.71,4.23-2.61c1.58,1.51,3.48,2.08,4.8,1.29s1.73-2.74,1.15-4.84c2.18-.06,3.93-1,4.31-2.49s-.72-3.15-2.61-4.24c1.5-1.57,2.08-3.47,1.29-4.8s-2.74-1.72-4.84-1.15c-.06-2.18-1-3.92-2.49-4.3s-3.15.71-4.24,2.61c-1.58-1.5-3.47-2.08-4.8-1.28s-1.72,2.73-1.15,4.84c-2.18,0-3.93,1-4.31,2.48s.72,3.15,2.61,4.24c-1.5,1.57-2.08,3.47-1.29,4.8S407.64,168.42,409.74,167.85Z" transform="translate(0 -33.57)"/><path class="cls-30" d="M412.14,165.49c0,1.33.6,2.4,1.51,2.63s1.93-.44,2.59-1.6c1,.92,2.12,1.27,2.93.79s1.05-1.67.7-2.95c1.33,0,2.4-.61,2.63-1.52s-.44-1.93-1.59-2.58c.91-1,1.27-2.13.78-2.94s-1.67-1-2.95-.69c0-1.34-.6-2.41-1.52-2.64s-1.92.44-2.58,1.6c-1-.92-2.12-1.28-2.94-.79s-1.05,1.67-.7,2.95c-1.32,0-2.4.61-2.62,1.52s.43,1.92,1.59,2.58c-.91,1-1.27,2.13-.79,2.94S410.85,165.84,412.14,165.49Z" transform="translate(0 -33.57)"/><path class="cls-31" d="M414.36,162.5a.84.84,0,0,0,.5.87c.29.08.62-.15.84-.52a.83.83,0,0,0,1,.25.84.84,0,0,0,.23-1c.44,0,.79-.19.86-.49a.86.86,0,0,0-.52-.85.81.81,0,0,0,.25-1,.84.84,0,0,0-1-.23c0-.43-.2-.78-.5-.86a.84.84,0,0,0-.84.52.87.87,0,0,0-1-.26.84.84,0,0,0-.23,1c-.43,0-.78.2-.85.5s.13.63.52.84a.85.85,0,0,0-.26,1A.84.84,0,0,0,414.36,162.5Z" transform="translate(0 -33.57)"/><path class="cls-29" d="M465,156.85c.08,2.93,1.34,5.28,3.36,5.8s4.24-1,5.7-3.52c2.13,2,4.67,2.8,6.46,1.74s2.33-3.69,1.55-6.52c2.94-.08,5.29-1.33,5.8-3.35s-1-4.24-3.51-5.71c2-2.12,2.8-4.67,1.73-6.46s-3.69-2.32-6.52-1.55c-.08-2.93-1.33-5.28-3.35-5.79s-4.24,1-5.7,3.51c-2.12-2-4.68-2.8-6.47-1.73s-2.31,3.68-1.54,6.52c-2.94.07-5.29,1.32-5.8,3.34s1,4.24,3.51,5.71c-2,2.12-2.8,4.67-1.73,6.46S462.12,157.62,465,156.85Z" transform="translate(0 -33.57)"/><path class="cls-30" d="M468.18,153.67c0,1.79.8,3.23,2,3.54s2.59-.59,3.48-2.14c1.29,1.23,2.85,1.7,3.95,1.05s1.41-2.25.94-4c1.79-.05,3.23-.81,3.54-2.05s-.59-2.59-2.15-3.47c1.23-1.3,1.71-2.87,1.06-4s-2.25-1.4-4-.93c0-1.8-.8-3.23-2-3.55s-2.59.6-3.48,2.15c-1.3-1.24-2.86-1.71-4-1.06s-1.41,2.25-.94,4c-1.79.05-3.23.81-3.54,2s.58,2.59,2.15,3.48c-1.24,1.3-1.71,2.86-1.07,3.95S466.45,154.14,468.18,153.67Z" transform="translate(0 -33.57)"/><path class="cls-31" d="M471.16,149.65a1.13,1.13,0,0,0,.68,1.17c.4.1.84-.2,1.13-.71.43.41.93.57,1.29.35a1.11,1.11,0,0,0,.31-1.3c.59,0,1.06-.26,1.16-.67a1.14,1.14,0,0,0-.7-1.14.93.93,0,1,0-1-1.6c0-.59-.27-1.06-.67-1.16s-.84.19-1.14.7a.93.93,0,1,0-1.6,1c-.58,0-1.05.26-1.15.67s.18.84.69,1.13a1.15,1.15,0,0,0-.34,1.3A1.11,1.11,0,0,0,471.16,149.65Z" transform="translate(0 -33.57)"/><path class="cls-29" d="M418.91,186.58c0,1.54.69,2.77,1.75,3s2.21-.5,3-1.83c1.11,1.06,2.44,1.46,3.37.9s1.21-1.92.81-3.4c1.53,0,2.76-.69,3-1.75s-.51-2.21-1.84-3c1.06-1.11,1.47-2.44.91-3.37s-1.93-1.21-3.41-.81c0-1.53-.69-2.76-1.75-3s-2.21.51-3,1.84c-1.11-1.06-2.44-1.46-3.38-.9s-1.21,1.92-.8,3.4c-1.54,0-2.77.69-3,1.74s.5,2.22,1.83,3c-1.06,1.11-1.46,2.45-.9,3.38S417.43,187,418.91,186.58Z" transform="translate(0 -33.57)"/><path class="cls-30" d="M420.6,184.93c0,.93.41,1.69,1.06,1.84s1.35-.3,1.81-1.11a1.49,1.49,0,1,0,2.56-1.53c.93,0,1.69-.42,1.84-1.07s-.3-1.35-1.12-1.81a165,165,0,0,1-2.59-4.41c-.64-.16-1.35.32-1.81,1.13a1.49,1.49,0,1,0-2.55,1.52c-.94,0-1.69.43-1.85,1.07s.3,1.35,1.12,1.81a1.81,1.81,0,0,0-.56,2.07A1.84,1.84,0,0,0,420.6,184.93Z" transform="translate(0 -33.57)"/><path class="cls-31" d="M422.15,182.83a.6.6,0,0,0,.35.61c.21.05.44-.1.59-.37a.49.49,0,1,0,.84-.5.61.61,0,0,0,.61-.34c0-.22-.11-.45-.37-.61a.58.58,0,0,0,.18-.67.6.6,0,0,0-.68-.16.61.61,0,0,0-.35-.61c-.21-.05-.44.11-.59.37a.6.6,0,0,0-.68-.18c-.19.11-.24.38-.16.68-.31,0-.55.14-.6.35s.09.44.36.59a.6.6,0,0,0-.18.68C421.58,182.86,421.85,182.91,422.15,182.83Z" transform="translate(0 -33.57)"/><path class="cls-7" d="M406.59,186.65a1.89,1.89,0,0,0,2.64.31l14.55-11.52a1.89,1.89,0,0,0,.31-2.64l-1.32-1.66a1.87,1.87,0,0,0-2.63-.31l-14.56,11.52a1.89,1.89,0,0,0-.31,2.64Z" transform="translate(0 -33.57)"/><path class="cls-7" d="M424.79,156l26.87,4.53a1.87,1.87,0,0,0,2.17-1.54l.54-3.23a1.88,1.88,0,0,0-1.54-2.17l-1.27-.21L426,149a1.89,1.89,0,0,0-2.17,1.54l-.32,1.94-.22,1.31A1.86,1.86,0,0,0,424.79,156Z" transform="translate(0 -33.57)"/><path class="cls-32" d="M423.47,152.5l25.59,4.32a1.89,1.89,0,0,0,2.17-1.54l.33-1.93L426,149a1.89,1.89,0,0,0-2.17,1.54Z" transform="translate(0 -33.57)"/><path class="cls-7" d="M448.05,139.25l20-2.61a1.4,1.4,0,0,0,1.2-1.56l-.32-2.4a1.38,1.38,0,0,0-1.56-1.2l-.95.12-19,2.49a1.37,1.37,0,0,0-1.2,1.55l.19,1.45.13,1A1.38,1.38,0,0,0,448.05,139.25Z" transform="translate(0 -33.57)"/><path class="cls-32" d="M446.37,137.09l19-2.49a1.39,1.39,0,0,0,1.2-1.56l-.19-1.44-19,2.49a1.37,1.37,0,0,0-1.2,1.55Z" transform="translate(0 -33.57)"/><path class="cls-7" d="M404.45,173.23l15.7.92.34.86a1.87,1.87,0,0,0,2.43,1.05l31.67-12.56a2.05,2.05,0,0,0,.43-.26,1.75,1.75,0,0,0,.59-.56l25.73-38.48a1.86,1.86,0,0,0-.53-2.6l-1.68-1.13-.46-.3-3.52-2.36a1.89,1.89,0,0,0-2.61.51l-25.72,38.49a1.82,1.82,0,0,0-.29.78L419.8,168.2a.18.18,0,0,0-.07.05l-14.93-.88a1.88,1.88,0,0,0-2,1.77l0,.78-.08,1.32a1.57,1.57,0,0,0,.05.53A1.87,1.87,0,0,0,404.45,173.23Z" transform="translate(0 -33.57)"/><path class="cls-32" d="M417.56,171.63a1.87,1.87,0,0,0,2.43,1.05l31.67-12.57a1.67,1.67,0,0,0,.43-.25,1.86,1.86,0,0,0,.59-.56l25.73-38.49a1.63,1.63,0,0,0,.26-.64l-3.52-2.36a1.89,1.89,0,0,0-2.61.51l-25.72,38.49a1.82,1.82,0,0,0-.29.78L419.8,168.2a.18.18,0,0,0-.07.05l-14.93-.88a1.88,1.88,0,0,0-2,1.77l0,.78,14.45.84Z" transform="translate(0 -33.57)"/><path class="cls-33" d="M439.05,173.34a1.17,1.17,0,0,0,1.66,0l8.36-8a1.18,1.18,0,0,0,0-1.66l-.91-.95a1.17,1.17,0,0,0-1.66,0l-8.36,8a1.18,1.18,0,0,0,0,1.66Z" transform="translate(0 -33.57)"/><path class="cls-34" d="M415.75,157.59c.06,2.32,1.05,4.17,2.64,4.57s3.34-.76,4.49-2.76c1.68,1.59,3.69,2.2,5.1,1.36s1.83-2.9,1.22-5.14c2.32-.06,4.17-1,4.57-2.64s-.76-3.34-2.77-4.49c1.6-1.68,2.21-3.69,1.37-5.1s-2.9-1.83-5.14-1.22c-.06-2.31-1.05-4.17-2.64-4.57s-3.34.76-4.49,2.77c-1.68-1.59-3.69-2.2-5.1-1.36s-1.83,2.9-1.22,5.14c-2.32,0-4.17,1-4.57,2.63s.76,3.34,2.76,4.5c-1.59,1.67-2.2,3.68-1.36,5.1S413.51,158.2,415.75,157.59Z" transform="translate(0 -33.57)"/><path class="cls-29" d="M418.29,155.09c0,1.41.63,2.55,1.61,2.79s2-.46,2.74-1.69c1,1,2.25,1.35,3.11.83s1.12-1.77.74-3.13c1.42,0,2.56-.64,2.79-1.61s-.46-2.05-1.69-2.74c1-1,1.35-2.26.84-3.12s-1.78-1.11-3.14-.74c0-1.42-.63-2.55-1.61-2.79s-2,.47-2.74,1.69c-1-1-2.25-1.35-3.12-.83s-1.11,1.77-.73,3.13c-1.42,0-2.55.64-2.8,1.61s.46,2,1.7,2.75c-1,1-1.35,2.25-.84,3.11S416.92,155.46,418.29,155.09Z" transform="translate(0 -33.57)"/><path class="cls-35" d="M420.64,151.93a.89.89,0,0,0,.53.91c.32.08.67-.15.9-.56a.86.86,0,0,0,1,.28.9.9,0,0,0,.25-1c.46,0,.83-.2.91-.52s-.15-.67-.55-.9a.9.9,0,0,0,.27-1,.91.91,0,0,0-1-.24.89.89,0,0,0-.52-.91c-.32-.08-.67.16-.9.55a.88.88,0,0,0-1-.27.87.87,0,0,0-.24,1c-.47,0-.83.21-.91.53s.14.66.55.89a.91.91,0,0,0-.28,1A.89.89,0,0,0,420.64,151.93Z" transform="translate(0 -33.57)"/><path class="cls-34" d="M398.72,172.57c0,1.64.74,3,1.87,3.24s2.37-.54,3.19-2c1.19,1.13,2.62,1.56,3.62,1s1.29-2.06.86-3.65c1.64,0,3-.74,3.24-1.87s-.54-2.37-2-3.19c1.13-1.19,1.56-2.61,1-3.62s-2.07-1.29-3.65-.86c0-1.64-.74-3-1.87-3.24s-2.37.54-3.19,2c-1.18-1.13-2.61-1.57-3.61-1s-1.3,2.06-.87,3.64c-1.64,0-3,.74-3.24,1.87s.54,2.37,2,3.19c-1.13,1.19-1.56,2.62-1,3.62S397.13,173,398.72,172.57Z" transform="translate(0 -33.57)"/><path class="cls-29" d="M400.52,170.8c0,1,.45,1.8,1.14,2s1.45-.33,1.95-1.2a1.59,1.59,0,1,0,2.73-1.63c1,0,1.81-.45,2-1.14s-.33-1.45-1.2-1.94a1.59,1.59,0,1,0-1.63-2.74c0-1-.45-1.8-1.15-2s-1.44.33-1.94,1.2a1.59,1.59,0,1,0-2.73,1.63c-1,0-1.81.45-2,1.15s.32,1.44,1.2,1.94a1.59,1.59,0,1,0,1.63,2.74Z" transform="translate(0 -33.57)"/><path class="cls-35" d="M402.19,168.55c0,.33.15.59.38.65s.47-.11.63-.4a.62.62,0,0,0,.72.2.64.64,0,0,0,.18-.73c.32,0,.59-.15.64-.37s-.11-.48-.39-.64a.64.64,0,0,0,.2-.72.65.65,0,0,0-.74-.18c0-.32-.14-.59-.37-.64s-.47.1-.63.39a.63.63,0,0,0-.73-.19.61.61,0,0,0-.17.72c-.33,0-.59.15-.64.38s.1.47.38.63a.64.64,0,0,0-.19.72A.61.61,0,0,0,402.19,168.55Z" transform="translate(0 -33.57)"/><path class="cls-34" d="M463,152.25c.05,1.64.75,3,1.88,3.24s2.37-.53,3.19-2c1.18,1.13,2.61,1.57,3.61,1s1.3-2.06.86-3.64c1.64-.05,3-.74,3.25-1.88s-.54-2.37-2-3.19c1.13-1.18,1.57-2.61,1-3.61s-2.06-1.3-3.64-.87c-.05-1.64-.75-2.95-1.87-3.24s-2.38.54-3.19,2c-1.19-1.13-2.62-1.57-3.62-1s-1.29,2.06-.86,3.64c-1.65,0-3,.75-3.24,1.88s.54,2.36,2,3.18c-1.13,1.19-1.57,2.62-1,3.62S461.44,152.69,463,152.25Z" transform="translate(0 -33.57)"/><path class="cls-29" d="M464.83,150.48c0,1,.45,1.8,1.14,2s1.44-.32,1.94-1.19a1.59,1.59,0,1,0,2.74-1.63c1,0,1.8-.46,2-1.15s-.32-1.45-1.2-1.94a1.59,1.59,0,1,0-1.63-2.73c0-1-.45-1.81-1.14-2s-1.44.33-1.94,1.2a1.59,1.59,0,1,0-2.74,1.63c-1,0-1.81.45-2,1.14s.33,1.45,1.21,1.94a1.91,1.91,0,0,0-.6,2.21A1.94,1.94,0,0,0,464.83,150.48Z" transform="translate(0 -33.57)"/><path class="cls-35" d="M466.49,148.23c0,.33.15.59.38.65s.47-.1.63-.39a.52.52,0,1,0,.9-.54.62.62,0,0,0,.65-.37c.05-.23-.11-.47-.39-.64a.63.63,0,0,0,.19-.72.64.64,0,0,0-.73-.18.63.63,0,0,0-.38-.64c-.22-.06-.47.11-.63.39a.62.62,0,0,0-.72-.19.64.64,0,0,0-.18.73c-.32,0-.59.15-.64.37s.1.47.39.64a.52.52,0,1,0,.53.89Z" transform="translate(0 -33.57)"/><path class="cls-29" d="M458.33,174.89c.05,2.1.95,3.78,2.39,4.14s3-.69,4.07-2.5c1.51,1.44,3.34,2,4.61,1.23s1.66-2.62,1.1-4.65c2.1-.05,3.78-.94,4.14-2.39s-.69-3-2.5-4.07c1.44-1.52,2-3.34,1.23-4.61s-2.63-1.66-4.65-1.11c-.06-2.09-1-3.77-2.39-4.13s-3,.69-4.07,2.51c-1.51-1.44-3.33-2-4.61-1.24s-1.65,2.63-1.1,4.65c-2.1.05-3.78.95-4.14,2.39s.69,3,2.5,4.07c-1.44,1.52-2,3.34-1.23,4.61S456.31,175.45,458.33,174.89Z" transform="translate(0 -33.57)"/><path class="cls-30" d="M460.63,172.63c0,1.28.57,2.31,1.45,2.52s1.85-.41,2.49-1.53c.92.88,2,1.22,2.81.76s1-1.61.68-2.84c1.28,0,2.3-.58,2.52-1.46s-.42-1.85-1.53-2.48c.88-.93,1.22-2,.75-2.82s-1.6-1-2.84-.67a2.44,2.44,0,0,0-1.45-2.53c-.88-.22-1.84.43-2.48,1.54-.93-.89-2-1.23-2.82-.76s-1,1.61-.67,2.84c-1.28,0-2.31.58-2.53,1.46s.42,1.84,1.53,2.48c-.88.93-1.22,2-.75,2.82S459.39,173,460.63,172.63Z" transform="translate(0 -33.57)"/><path class="cls-31" d="M462.76,169.76c0,.42.19.76.48.83s.6-.13.81-.5a.66.66,0,1,0,1.14-.68c.42,0,.76-.19.83-.48s-.14-.6-.5-.81a.8.8,0,0,0,.24-.92.81.81,0,0,0-.93-.23.8.8,0,0,0-.48-.82c-.28-.07-.6.14-.81.5a.66.66,0,1,0-1.14.68c-.42,0-.75.19-.82.48s.13.61.5.81a.81.81,0,0,0-.25.92A.78.78,0,0,0,462.76,169.76Z" transform="translate(0 -33.57)"/><path class="cls-34" d="M436.24,180.91c.08,2.74,1.25,5,3.14,5.43s4-.91,5.34-3.29c2,1.89,4.38,2.62,6.06,1.62s2.17-3.45,1.44-6.1c2.75-.07,5-1.24,5.43-3.14s-.91-4-3.29-5.34c1.9-2,2.62-4.38,1.62-6.05s-3.45-2.17-6.09-1.45c-.08-2.75-1.25-5-3.14-5.42s-4,.9-5.34,3.29c-2-1.89-4.38-2.62-6.06-1.62s-2.16,3.45-1.44,6.1c-2.75.06-5,1.24-5.43,3.13s.9,4,3.29,5.34c-1.9,2-2.62,4.38-1.62,6.05S433.59,181.63,436.24,180.91Z" transform="translate(0 -33.57)"/><path class="cls-29" d="M439.27,177.94c0,1.67.75,3,1.9,3.31s2.43-.55,3.26-2c1.21,1.15,2.67,1.6,3.7,1s1.32-2.11.88-3.72c1.68,0,3-.76,3.31-1.92s-.55-2.42-2-3.25c1.16-1.22,1.6-2.68,1-3.7s-2.11-1.32-3.73-.88c0-1.68-.75-3-1.91-3.31s-2.42.55-3.26,2c-1.21-1.17-2.68-1.61-3.7-1s-1.32,2.11-.87,3.73c-1.68.05-3,.76-3.32,1.91s.55,2.42,2,3.26c-1.15,1.22-1.6,2.67-1,3.69S437.64,178.38,439.27,177.94Z" transform="translate(0 -33.57)"/><path class="cls-35" d="M442.06,174.17a1.06,1.06,0,0,0,.63,1.1c.38.09.79-.19,1.06-.67a.87.87,0,1,0,1.5-.89,1.07,1.07,0,0,0,1.09-.62,1.09,1.09,0,0,0-.66-1.08,1,1,0,0,0,.32-1.2c-.2-.34-.68-.43-1.22-.29,0-.55-.25-1-.63-1.09a1.56,1.56,0,0,1-2.27.33,1.06,1.06,0,0,0-.29,1.23c-.55,0-1,.24-1.08.62s.17.8.65,1.07a.87.87,0,1,0,.9,1.49Z" transform="translate(0 -33.57)"/><path class="cls-34" d="M403.41,194.73c.07,2.31,1.06,4.16,2.65,4.56s3.34-.75,4.49-2.76c1.68,1.59,3.69,2.21,5.1,1.36s1.83-2.9,1.22-5.13c2.31-.06,4.17-1,4.57-2.64s-.76-3.35-2.77-4.5c1.59-1.68,2.21-3.69,1.36-5.1s-2.9-1.83-5.13-1.22c-.06-2.31-1-4.16-2.65-4.57s-3.34.76-4.49,2.78c-1.67-1.6-3.68-2.21-5.1-1.37s-1.82,2.91-1.21,5.14c-2.32.06-4.17,1-4.58,2.64s.76,3.34,2.77,4.49c-1.59,1.68-2.21,3.69-1.36,5.1S401.18,195.34,403.41,194.73Z" transform="translate(0 -33.57)"/><path class="cls-29" d="M406,192.22c0,1.42.63,2.55,1.6,2.79s2.05-.46,2.75-1.69c1,1,2.25,1.35,3.11.83s1.11-1.77.74-3.13c1.42,0,2.55-.64,2.79-1.61s-.46-2-1.69-2.74c1-1,1.35-2.25.83-3.12s-1.77-1.11-3.13-.73c0-1.42-.63-2.55-1.61-2.8s-2,.47-2.75,1.7c-1-1-2.25-1.35-3.11-.84s-1.11,1.77-.74,3.14c-1.41,0-2.55.64-2.79,1.61s.46,2,1.7,2.74c-1,1-1.36,2.25-.84,3.11S404.59,192.59,406,192.22Z" transform="translate(0 -33.57)"/><path class="cls-35" d="M408.31,189.06a.9.9,0,0,0,.53.92,1.32,1.32,0,0,1,1.91-.29.9.9,0,0,0,.25-1c.46,0,.83-.2.91-.52s-.16-.67-.55-.9a.88.88,0,0,0,.27-1,.9.9,0,0,0-1-.24c0-.47-.21-.84-.52-.92s-.67.16-.9.56a.74.74,0,1,0-1.27.75c-.46,0-.83.21-.91.53a.88.88,0,0,0,.55.89.92.92,0,0,0-.27,1A.88.88,0,0,0,408.31,189.06Z" transform="translate(0 -33.57)"/><path class="cls-34" d="M439.83,143.89c.06,2.32,1.05,4.17,2.64,4.57s3.34-.76,4.5-2.77c1.67,1.6,3.69,2.21,5.1,1.37s1.83-2.91,1.22-5.14c2.31-.06,4.17-1,4.56-2.64s-.76-3.34-2.76-4.5c1.59-1.67,2.21-3.68,1.36-5.09s-2.9-1.83-5.13-1.22c-.07-2.32-1.06-4.17-2.65-4.57s-3.34.76-4.49,2.77c-1.67-1.6-3.69-2.21-5.1-1.36s-1.83,2.9-1.22,5.13c-2.31.06-4.17,1.05-4.57,2.64s.76,3.34,2.77,4.5c-1.6,1.67-2.21,3.68-1.37,5.09S437.6,144.5,439.83,143.89Z" transform="translate(0 -33.57)"/><path class="cls-29" d="M442.38,141.39c0,1.41.63,2.55,1.6,2.78s2-.46,2.75-1.68c1,1,2.25,1.34,3.11.83s1.11-1.77.74-3.13c1.41,0,2.55-.64,2.79-1.62s-.47-2-1.69-2.73c1-1,1.35-2.26.83-3.12s-1.77-1.11-3.14-.74c0-1.42-.63-2.55-1.61-2.79s-2,.47-2.74,1.69c-1-1-2.25-1.35-3.11-.84s-1.11,1.78-.74,3.14c-1.41,0-2.55.64-2.79,1.61s.46,2,1.69,2.74c-1,1-1.35,2.25-.84,3.11S441,141.76,442.38,141.39Z" transform="translate(0 -33.57)"/><path class="cls-35" d="M444.73,138.22a.9.9,0,0,0,.53.92c.31.08.66-.15.89-.56a.88.88,0,0,0,1,.27.87.87,0,0,0,.24-1c.47,0,.84-.21.92-.53a.91.91,0,0,0-.56-.9.88.88,0,0,0,.28-1,.9.9,0,0,0-1-.24c0-.46-.21-.83-.53-.91s-.66.15-.9.55a.73.73,0,1,0-1.26.75c-.46,0-.83.22-.91.53s.15.67.55.9a.88.88,0,0,0-.27,1A.9.9,0,0,0,444.73,138.22Z" transform="translate(0 -33.57)"/><path class="cls-29" d="M430.61,82.55c-1.88,1.09-3,2.74-2.6,4.24s2.13,2.43,4.31,2.49c-.57,2.1-.18,4,1.14,4.84s3.23.21,4.81-1.29c1.09,1.89,2.73,3,4.24,2.6s2.43-2.13,2.49-4.31c2.1.58,4,.19,4.84-1.14s.21-3.23-1.3-4.81c1.9-1.09,3-2.73,2.61-4.23s-2.13-2.44-4.31-2.49c.57-2.1.18-4-1.15-4.84s-3.22-.21-4.81,1.29c-1.08-1.9-2.73-3-4.23-2.61s-2.43,2.13-2.49,4.31c-2.1-.57-4-.18-4.84,1.15S429.11,81,430.61,82.55Z" transform="translate(0 -33.57)"/><path class="cls-30" d="M433.83,83.54c-1.16.66-1.83,1.67-1.59,2.58s1.29,1.49,2.62,1.52c-.34,1.28-.1,2.47.71,3s2,.13,2.93-.78c.66,1.15,1.67,1.82,2.58,1.59s1.49-1.3,1.52-2.63c1.28.35,2.47.11,3-.71s.12-2-.8-2.92c1.17-.67,1.83-1.67,1.6-2.59s-1.3-1.48-2.63-1.52c.35-1.28.11-2.47-.7-3s-2-.13-2.93.79c-.67-1.16-1.68-1.83-2.59-1.59S436,78.57,436,79.91c-1.29-.35-2.48-.12-3,.69S432.91,82.57,433.83,83.54Z" transform="translate(0 -33.57)"/><path class="cls-31" d="M437.51,84.07a.7.7,0,1,0,.33,1.35.83.83,0,0,0,.24,1,.82.82,0,0,0,.95-.25c.22.38.55.6.85.52s.48-.43.5-.86a.84.84,0,0,0,1-.23.87.87,0,0,0-.26-1,.84.84,0,0,0,.52-.84c-.08-.3-.43-.48-.86-.5a.82.82,0,0,0-.23-1,.81.81,0,0,0-1,.25.86.86,0,0,0-.85-.52.83.83,0,0,0-.49.86.84.84,0,0,0-1,.24A.81.81,0,0,0,437.51,84.07Z" transform="translate(0 -33.57)"/><path class="cls-29" d="M466.52,125.91c-2.54,1.46-4,3.68-3.51,5.71s2.87,3.27,5.8,3.34c-.77,2.84-.24,5.45,1.55,6.52s4.34.29,6.47-1.74c1.46,2.55,3.68,4,5.7,3.51s3.28-2.86,3.35-5.8c2.83.77,5.45.24,6.52-1.55s.28-4.34-1.74-6.47c2.54-1.46,4-3.68,3.51-5.7s-2.87-3.27-5.81-3.35c.77-2.82.24-5.44-1.55-6.51s-4.33-.29-6.46,1.74c-1.46-2.55-3.68-4-5.7-3.52s-3.27,2.87-3.35,5.81c-2.83-.78-5.45-.25-6.52,1.54S464.5,123.78,466.52,125.91Z" transform="translate(0 -33.57)"/><path class="cls-30" d="M470.85,127.24c-1.56.89-2.46,2.24-2.15,3.47s1.75,2,3.54,2c-.47,1.72-.14,3.32.95,4s2.65.18,3.94-1.06c.9,1.56,2.25,2.46,3.49,2.15s2-1.75,2-3.54c1.73.46,3.33.14,4-.95s.17-2.65-1.06-3.94c1.56-.9,2.46-2.24,2.15-3.49s-1.76-2-3.55-2c.48-1.73.16-3.32-.94-4s-2.65-.17-4,1.07c-.89-1.55-2.25-2.46-3.48-2.15s-2,1.75-2,3.55c-1.74-.47-3.33-.15-4,.94S469.61,125.94,470.85,127.24Z" transform="translate(0 -33.57)"/><path class="cls-31" d="M475.8,128a.93.93,0,1,0,.45,1.8.94.94,0,1,0,1.61,1c.29.51.73.81,1.13.7s.66-.58.68-1.16a.93.93,0,1,0,.95-1.6c.51-.3.8-.74.7-1.14s-.57-.65-1.16-.67a1.11,1.11,0,0,0-.31-1.3c-.36-.22-.86-.06-1.29.35a1.13,1.13,0,0,0-1.14-.7c-.4.1-.65.56-.67,1.15a.93.93,0,1,0-.95,1.61Z" transform="translate(0 -33.57)"/><path class="cls-29" d="M418.48,99.52c-1.33.76-2.1,1.92-1.83,3s1.49,1.71,3,1.75c-.41,1.48-.13,2.84.8,3.4s2.27.15,3.38-.91c.77,1.33,1.92,2.1,3,1.83s1.71-1.49,1.75-3c1.48.41,2.84.13,3.4-.8s.15-2.27-.91-3.38c1.33-.77,2.1-1.93,1.83-3s-1.49-1.71-3-1.75c.41-1.47.13-2.84-.81-3.4s-2.26-.15-3.37.91c-.76-1.33-1.93-2.1-3-1.83s-1.71,1.49-1.75,3c-1.48-.4-2.84-.12-3.4.81S417.42,98.41,418.48,99.52Z" transform="translate(0 -33.57)"/><path class="cls-30" d="M420.74,100.22c-.82.46-1.29,1.17-1.12,1.81s.91,1,1.85,1.07a1.48,1.48,0,1,0,2.55,1.52c.47.81,1.17,1.28,1.82,1.11s1-.91,1.06-1.84a1.49,1.49,0,1,0,1.52-2.56c.82-.46,1.29-1.17,1.13-1.82s-.92-1-1.85-1.06a1.49,1.49,0,1,0-2.56-1.52c-.47-.81-1.17-1.28-1.81-1.12s-1.05.91-1.07,1.85a1.8,1.8,0,0,0-2.08.49A1.82,1.82,0,0,0,420.74,100.22Z" transform="translate(0 -33.57)"/><path class="cls-31" d="M423.32,100.59c-.27.15-.42.38-.36.6s.29.33.6.34c-.08.3,0,.57.16.68a.6.6,0,0,0,.68-.18c.15.27.38.42.59.37a.6.6,0,0,0,.35-.61c.3.08.57,0,.68-.16a.6.6,0,0,0-.18-.68c.26-.15.42-.38.37-.59a.6.6,0,0,0-.61-.35.57.57,0,0,0-.16-.68.58.58,0,0,0-.67.18c-.16-.26-.39-.42-.6-.36s-.34.29-.35.6a.49.49,0,1,0-.5.84Z" transform="translate(0 -33.57)"/><path class="cls-7" d="M412.57,88.71a1.88,1.88,0,0,0,1,2.47l17.05,7.33a1.88,1.88,0,0,0,2.47-1l.84-2a1.87,1.87,0,0,0-1-2.46l-17.06-7.34a1.88,1.88,0,0,0-2.47,1Z" transform="translate(0 -33.57)"/><path class="cls-7" d="M448.21,90.15,457,116a1.89,1.89,0,0,0,2.39,1.18l3.1-1.06a1.89,1.89,0,0,0,1.18-2.39l-.42-1.22-8.36-24.58a1.88,1.88,0,0,0-2.38-1.18l-1.86.64-1.25.43A1.87,1.87,0,0,0,448.21,90.15Z" transform="translate(0 -33.57)"/><path class="cls-32" d="M450.64,87.34,459,111.91a1.87,1.87,0,0,0,2.38,1.17l1.86-.62-8.36-24.58a1.88,1.88,0,0,0-2.38-1.18Z" transform="translate(0 -33.57)"/><path class="cls-7" d="M474,102.67,485.76,119a1.38,1.38,0,0,0,1.94.32l2-1.42A1.39,1.39,0,0,0,490,116l-.56-.78L478.2,99.63a1.4,1.4,0,0,0-1.94-.32l-1.18.86-.79.57A1.37,1.37,0,0,0,474,102.67Z" transform="translate(0 -33.57)"/><path class="cls-32" d="M475.08,100.17l11.22,15.55a1.4,1.4,0,0,0,1.94.31l1.18-.85L478.2,99.63a1.4,1.4,0,0,0-1.94-.32Z" transform="translate(0 -33.57)"/><path class="cls-7" d="M423.36,80.46,430,94.7l-.6.71a1.88,1.88,0,0,0,.23,2.64L455.75,120a2.08,2.08,0,0,0,.42.26,1.93,1.93,0,0,0,.78.25L503,124.82a1.87,1.87,0,0,0,2-1.7l.2-2,.05-.54.39-4.22a1.87,1.87,0,0,0-1.69-2l-46.08-4.35a1.77,1.77,0,0,0-.83.11l-22-18.48-.07,0L428.69,78a1.88,1.88,0,0,0-2.5-.9l-.71.34-1.21.55a1.62,1.62,0,0,0-.43.29A1.88,1.88,0,0,0,423.36,80.46Z" transform="translate(0 -33.57)"/><path class="cls-32" d="M431,91.22a1.88,1.88,0,0,0,.23,2.65l26.1,21.89a1.76,1.76,0,0,0,.43.26,1.9,1.9,0,0,0,.77.26l46.09,4.35a1.84,1.84,0,0,0,.7-.07l.39-4.22a1.87,1.87,0,0,0-1.69-2l-46.08-4.35a1.77,1.77,0,0,0-.83.11l-22-18.48-.07,0L428.69,78a1.88,1.88,0,0,0-2.5-.9l-.71.34,6.12,13.1Z" transform="translate(0 -33.57)"/><path class="cls-33" d="M439.7,111a1.18,1.18,0,0,0,.76,1.48l11,3.54a1.17,1.17,0,0,0,1.47-.76l.41-1.25a1.17,1.17,0,0,0-.76-1.47l-11-3.55a1.17,1.17,0,0,0-1.47.75Z" transform="translate(0 -33.57)"/><path class="cls-34" d="M442.49,83c-2,1.16-3.17,2.91-2.77,4.5S442,90,444.29,90.1c-.6,2.23-.19,4.29,1.23,5.14s3.42.22,5.09-1.37c1.16,2,2.9,3.17,4.5,2.76s2.58-2.25,2.64-4.57c2.23.61,4.29.19,5.14-1.22s.22-3.42-1.37-5.1c2-1.15,3.17-2.9,2.76-4.49s-2.25-2.58-4.57-2.64c.6-2.23.19-4.29-1.22-5.13s-3.43-.23-5.1,1.37c-1.15-2-2.9-3.18-4.49-2.77s-2.58,2.25-2.65,4.56c-2.23-.6-4.29-.19-5.13,1.23S440.89,81.29,442.49,83Z" transform="translate(0 -33.57)"/><path class="cls-29" d="M445.9,84c-1.23.7-1.94,1.77-1.69,2.74s1.37,1.58,2.79,1.62c-.37,1.35-.12,2.61.75,3.13s2.09.13,3.1-.84c.71,1.23,1.78,1.94,2.75,1.69s1.58-1.38,1.6-2.79c1.37.37,2.63.11,3.14-.75s.14-2.08-.84-3.11c1.24-.7,1.94-1.76,1.7-2.74s-1.38-1.57-2.8-1.61c.38-1.36.12-2.62-.74-3.14s-2.09-.13-3.11.85c-.71-1.23-1.77-1.94-2.74-1.7s-1.58,1.38-1.61,2.8c-1.36-.37-2.62-.12-3.14.74S444.92,83,445.9,84Z" transform="translate(0 -33.57)"/><path class="cls-35" d="M449.8,84.58c-.4.23-.63.58-.55.9s.45.51.91.52a.74.74,0,1,0,1.27.75c.22.41.57.64.89.56s.51-.45.53-.91a.74.74,0,1,0,.75-1.27c.4-.23.64-.58.55-.89a.88.88,0,0,0-.91-.53.88.88,0,0,0-.24-1,.87.87,0,0,0-1,.28c-.23-.41-.58-.64-.9-.56a.88.88,0,0,0-.52.92c-.46-.12-.87,0-1,.24A.88.88,0,0,0,449.8,84.58Z" transform="translate(0 -33.57)"/><path class="cls-34" d="M421.22,75.09c-1.42.82-2.25,2.06-2,3.19s1.6,1.83,3.24,1.87c-.43,1.59-.13,3,.87,3.65s2.42.16,3.61-1c.82,1.43,2.06,2.26,3.19,2s1.83-1.6,1.88-3.25c1.58.44,3,.14,3.64-.86s.16-2.43-1-3.61c1.42-.82,2.24-2.07,2-3.19s-1.61-1.83-3.25-1.87c.43-1.58.14-3.05-.87-3.65s-2.42-.15-3.61,1c-.81-1.43-2.06-2.26-3.18-2s-1.83,1.6-1.88,3.24c-1.58-.43-3-.13-3.64.87S420.09,73.9,421.22,75.09Z" transform="translate(0 -33.57)"/><path class="cls-29" d="M423.64,75.84c-.87.49-1.38,1.25-1.2,1.94s1,1.12,2,1.15a1.59,1.59,0,1,0,2.73,1.62c.5.87,1.26,1.38,2,1.2s1.12-1,1.14-2A1.59,1.59,0,1,0,431.87,77c.87-.5,1.38-1.26,1.2-2s-1-1.11-2-1.14a1.59,1.59,0,1,0-2.73-1.63c-.51-.87-1.26-1.37-1.95-1.2a1.92,1.92,0,0,0-1.14,2,1.59,1.59,0,1,0-1.63,2.74Z" transform="translate(0 -33.57)"/><path class="cls-35" d="M426.41,76.24c-.29.16-.45.41-.39.64s.31.36.64.37a.64.64,0,0,0,.18.73.63.63,0,0,0,.72-.2c.16.29.41.46.63.4a.64.64,0,0,0,.38-.65.63.63,0,0,0,.73-.17.64.64,0,0,0-.2-.73c.29-.17.45-.41.39-.63s-.31-.37-.64-.38a.52.52,0,1,0-.9-.53c-.16-.29-.41-.45-.63-.39s-.37.31-.38.64c-.32-.08-.61,0-.72.18S426.18,76,426.41,76.24Z" transform="translate(0 -33.57)"/><path class="cls-34" d="M469.65,122c-1.43.82-2.25,2.06-2,3.19s1.6,1.83,3.24,1.87c-.43,1.58-.14,3,.86,3.64s2.43.17,3.62-1c.82,1.42,2.06,2.25,3.19,2s1.83-1.6,1.87-3.24c1.58.43,3,.14,3.64-.87s.16-2.42-1-3.61c1.42-.82,2.25-2.06,2-3.19s-1.6-1.83-3.24-1.87c.43-1.58.13-3-.87-3.64s-2.42-.16-3.61,1c-.82-1.43-2.06-2.25-3.19-2s-1.83,1.6-1.87,3.24c-1.59-.43-3.05-.14-3.64.86S468.51,120.84,469.65,122Z" transform="translate(0 -33.57)"/><path class="cls-29" d="M472.06,122.77c-.87.5-1.37,1.26-1.19,1.94s1,1.12,2,1.15a1.59,1.59,0,1,0,2.73,1.63c.5.87,1.26,1.37,1.95,1.19s1.12-1,1.13-2a1.59,1.59,0,1,0,1.63-2.74c.88-.5,1.38-1.25,1.21-1.94a1.92,1.92,0,0,0-2-1.14,1.59,1.59,0,1,0-2.74-1.63c-.5-.87-1.26-1.38-1.95-1.21s-1.11,1-1.13,2a1.59,1.59,0,1,0-1.64,2.73Z" transform="translate(0 -33.57)"/><path class="cls-35" d="M474.83,123.17a.65.65,0,0,0-.39.65.92.92,0,0,1,.82,1.09.61.61,0,0,0,.72-.19c.17.29.42.45.64.39s.37-.32.38-.65a.52.52,0,1,0,.53-.89c.28-.17.45-.42.39-.64s-.32-.36-.65-.37a.63.63,0,0,0-.17-.73.61.61,0,0,0-.72.19c-.17-.28-.41-.45-.64-.39a.93.93,0,0,1-1.1.82A.63.63,0,0,0,474.83,123.17Z" transform="translate(0 -33.57)"/><path class="cls-29" d="M447.49,128.65c-1.81,1-2.87,2.63-2.5,4.07s2,2.34,4.14,2.39c-.56,2-.18,3.89,1.1,4.65s3.1.21,4.61-1.24c1.05,1.82,2.63,2.87,4.07,2.5s2.34-2,2.4-4.13c2,.55,3.88.17,4.65-1.11s.2-3.1-1.24-4.61c1.81-1,2.86-2.63,2.5-4.07s-2-2.34-4.14-2.39c.55-2,.17-3.88-1.11-4.65s-3.09-.2-4.61,1.24c-1-1.82-2.63-2.87-4.07-2.5s-2.33,2-2.39,4.13c-2-.55-3.89-.17-4.65,1.11S446.05,127.13,447.49,128.65Z" transform="translate(0 -33.57)"/><path class="cls-30" d="M450.58,129.6c-1.11.63-1.76,1.6-1.53,2.48s1.24,1.43,2.53,1.46c-.34,1.23-.11,2.37.67,2.83s1.89.13,2.81-.75c.64,1.11,1.61,1.75,2.49,1.53s1.43-1.25,1.45-2.53c1.24.34,2.38.1,2.84-.67s.12-1.89-.76-2.82c1.12-.63,1.76-1.6,1.54-2.48s-1.25-1.42-2.53-1.46c.34-1.23.11-2.37-.67-2.84a2.47,2.47,0,0,0-2.82.76c-.64-1.11-1.61-1.75-2.48-1.53s-1.43,1.25-1.46,2.53c-1.24-.34-2.37-.11-2.84.67S449.69,128.67,450.58,129.6Z" transform="translate(0 -33.57)"/><path class="cls-31" d="M454.11,130.11a.82.82,0,0,0-.5.82c.07.29.41.46.83.47a.66.66,0,1,0,1.14.68c.21.37.52.58.81.51a1.21,1.21,0,0,1,1.41-1.05.82.82,0,0,0-.25-.93c.36-.21.58-.52.5-.81a.8.8,0,0,0-.82-.47.83.83,0,0,0-.22-.94.82.82,0,0,0-.93.25c-.21-.36-.52-.57-.81-.5a1.21,1.21,0,0,1-1.41,1.05A.8.8,0,0,0,454.11,130.11Z" transform="translate(0 -33.57)"/><path class="cls-34" d="M431.71,112.08c-2.38,1.37-3.76,3.45-3.28,5.34s2.68,3.06,5.42,3.13c-.72,2.66-.22,5.1,1.46,6.1s4.06.27,6.05-1.62c1.37,2.38,3.44,3.77,5.34,3.28s3.06-2.68,3.14-5.43c2.65.72,5.09.23,6.09-1.45s.27-4.06-1.62-6.05c2.38-1.38,3.76-3.45,3.28-5.34s-2.68-3.07-5.43-3.13c.72-2.65.23-5.1-1.45-6.1s-4.07-.27-6.06,1.63c-1.36-2.4-3.44-3.77-5.33-3.29s-3.06,2.68-3.14,5.42c-2.65-.72-5.09-.22-6.1,1.45S429.81,110.09,431.71,112.08Z" transform="translate(0 -33.57)"/><path class="cls-29" d="M435.76,113.32c-1.46.83-2.3,2.1-2,3.26s1.64,1.87,3.32,1.91c-.44,1.61-.14,3.11.88,3.72s2.49.16,3.7-1c.83,1.46,2.1,2.3,3.26,2s1.87-1.63,1.9-3.31c1.63.44,3.12.14,3.73-.88s.16-2.48-1-3.7c1.47-.84,2.31-2.09,2-3.26s-1.64-1.86-3.32-1.91c.45-1.62.15-3.11-.88-3.72s-2.48-.17-3.69,1c-.84-1.45-2.11-2.3-3.26-2s-1.87,1.64-1.91,3.32c-1.62-.44-3.11-.14-3.72.88S434.6,112.11,435.76,113.32Z" transform="translate(0 -33.57)"/><path class="cls-35" d="M440.4,114a1.07,1.07,0,0,0-.66,1.08c.09.38.53.61,1.09.62a.87.87,0,1,0,1.49.89c.28.48.69.76,1.07.66s.61-.54.63-1.09a1,1,0,0,0,1.21-.28,1.07,1.07,0,0,0-.32-1.22,1.06,1.06,0,0,0,.66-1.07c-.1-.37-.54-.6-1.09-.62a69.93,69.93,0,0,1-2.56-1.55,1.57,1.57,0,0,1-1.85,1.37A1.05,1.05,0,0,0,440.4,114Z" transform="translate(0 -33.57)"/><path class="cls-34" d="M404,89.75c-2,1.16-3.16,2.91-2.76,4.5s2.26,2.58,4.57,2.64c-.61,2.23-.19,4.29,1.22,5.13s3.42.23,5.1-1.37c1.15,2,2.9,3.18,4.49,2.77s2.59-2.26,2.65-4.57c2.23.6,4.29.19,5.13-1.22s.23-3.43-1.37-5.1c2-1.15,3.17-2.9,2.77-4.5s-2.26-2.58-4.58-2.63c.61-2.23.19-4.29-1.22-5.14s-3.42-.22-5.1,1.37c-1.15-2-2.9-3.17-4.49-2.77s-2.58,2.26-2.64,4.57c-2.23-.61-4.29-.19-5.13,1.23S402.36,88.08,404,89.75Z" transform="translate(0 -33.57)"/><path class="cls-29" d="M407.37,90.8c-1.23.7-1.95,1.77-1.69,2.74s1.37,1.58,2.79,1.61c-.38,1.36-.12,2.62.74,3.13s2.09.14,3.11-.83c.7,1.23,1.77,1.94,2.75,1.69s1.57-1.38,1.6-2.79c1.36.36,2.63.11,3.14-.75s.13-2.09-.84-3.11c1.23-.7,1.94-1.77,1.69-2.74s-1.38-1.57-2.79-1.61c.38-1.36.12-2.62-.74-3.14s-2.09-.14-3.12.84c-.7-1.22-1.77-1.94-2.74-1.69s-1.57,1.37-1.6,2.8c-1.37-.38-2.63-.13-3.14.73S406.39,89.78,407.37,90.8Z" transform="translate(0 -33.57)"/><path class="cls-35" d="M411.27,91.37a.89.89,0,0,0-.56.9c.08.32.45.51.92.52a.73.73,0,1,0,1.26.75c.23.41.58.64.9.56s.51-.46.53-.91a.74.74,0,1,0,.75-1.27c.4-.23.63-.58.55-.9s-.45-.51-.91-.53a.74.74,0,1,0-1.27-.75c-.23-.4-.57-.63-.89-.55a.88.88,0,0,0-.53.91.74.74,0,1,0-.75,1.27Z" transform="translate(0 -33.57)"/><path class="cls-34" d="M466,97.65c-2,1.15-3.17,2.9-2.77,4.49s2.26,2.58,4.57,2.65c-.61,2.23-.19,4.29,1.22,5.13s3.43.23,5.1-1.37c1.16,2,2.9,3.18,4.5,2.77s2.58-2.26,2.64-4.57c2.23.6,4.29.19,5.13-1.22s.23-3.43-1.36-5.1c2-1.16,3.17-2.91,2.76-4.5s-2.26-2.58-4.57-2.64c.61-2.23.19-4.29-1.22-5.13s-3.43-.23-5.1,1.37c-1.15-2-2.9-3.17-4.5-2.77s-2.58,2.25-2.64,4.57c-2.23-.61-4.29-.2-5.13,1.22S464.39,96,466,97.65Z" transform="translate(0 -33.57)"/><path class="cls-29" d="M469.4,98.7c-1.23.69-1.94,1.76-1.69,2.74s1.38,1.57,2.79,1.61c-.37,1.36-.12,2.62.74,3.13s2.1.14,3.11-.84c.71,1.23,1.78,2,2.75,1.69s1.58-1.37,1.6-2.78c1.37.37,2.63.11,3.14-.75s.14-2.09-.84-3.11c1.23-.7,1.94-1.77,1.7-2.75s-1.38-1.57-2.8-1.6c.38-1.37.12-2.63-.74-3.14s-2.09-.14-3.11.84c-.71-1.23-1.77-1.94-2.74-1.7s-1.58,1.38-1.61,2.8c-1.37-.37-2.62-.12-3.14.74S468.43,97.67,469.4,98.7Z" transform="translate(0 -33.57)"/><path class="cls-35" d="M473.3,99.26a.74.74,0,1,0,.36,1.43.87.87,0,0,0,.25,1,.88.88,0,0,0,1-.27c.23.41.57.64.89.56a.92.92,0,0,0,.53-.92.73.73,0,1,0,.75-1.26c.4-.24.63-.59.55-.9s-.45-.51-.91-.53a.86.86,0,0,0-.24-1,.88.88,0,0,0-1,.27c-.23-.4-.58-.63-.9-.55a.89.89,0,0,0-.53.91.73.73,0,1,0-.75,1.26Z" transform="translate(0 -33.57)"/></g></g></g></g></svg>