<svg xmlns="http://www.w3.org/2000/svg" viewBox="0 0 48.24 67.27"><defs><style>.cls-1{fill:#5f9653;}.cls-2{fill:#64a74a;}.cls-3{fill:#fbcb43;}.cls-4{fill:#4b873e;}.cls-5{fill:#ffe167;}.cls-6{fill:#95a5a6;}.cls-7{fill:#a5b5b6;}.cls-8{fill:#303030;}.cls-9{fill:#404040;}.cls-10{fill:#d5e5e6;}</style></defs><title>Asset 17</title><g id="Layer_2" data-name="Layer 2"><g id="illustrations"><path class="cls-1" d="M47.32,21.23,17.52,51a2.73,2.73,0,0,1-4.65-1.92,2.76,2.76,0,0,1,.8-1.92l29.8-29.8a2.73,2.73,0,0,1,3.85,0,3,3,0,0,1,.46.62,2.65,2.65,0,0,1,.33,1.3A2.76,2.76,0,0,1,47.32,21.23Z"/><path class="cls-2" d="M47.32,21.23,17.52,51a2.73,2.73,0,0,1-3.23.47,2.7,2.7,0,0,1,.46-3.23l29.8-29.8A2.72,2.72,0,0,1,47.78,18a2.65,2.65,0,0,1,.33,1.3A2.76,2.76,0,0,1,47.32,21.23Z"/><path class="cls-3" d="M45.35,23.15a2.69,2.69,0,0,1-3.8,0h0a2.7,2.7,0,0,1,0-3.81l2-2a2.7,2.7,0,0,1,3.81,0h0a2.7,2.7,0,0,1,0,3.81Z"/><path class="cls-4" d="M36.71,31.83l-1.08,1.08a3.45,3.45,0,0,1-3.84-3.85L32.88,28a2.79,2.79,0,0,0,3.83,3.86Z"/><path class="cls-4" d="M40.68,27.86,39.6,28.94a3.46,3.46,0,0,1-3.84-3.84L36.86,24a2.79,2.79,0,0,0,3.82,3.87Z"/><path class="cls-4" d="M32.74,35.8l-1.08,1.08A3.46,3.46,0,0,1,27.81,33l1.1-1.1a2.79,2.79,0,0,0,3.83,3.86Z"/><path class="cls-5" d="M45.21,22.31a2,2,0,0,1-2.82,0h0a2,2,0,0,1,0-2.82L43.84,18a2,2,0,0,1,2.82,0h0a2,2,0,0,1,0,2.82Z"/><path class="cls-1" d="M47.56,28.62,21.87,54.3a2.35,2.35,0,0,1-2.78.41,2.57,2.57,0,0,1-.54-.41,2.31,2.31,0,0,1-.68-1.65A2.37,2.37,0,0,1,18.55,51L44.24,25.3a2.36,2.36,0,0,1,3.32,0,2.9,2.9,0,0,1,.4.54,2.37,2.37,0,0,1-.4,2.78Z"/><path class="cls-2" d="M47.56,28.62,21.87,54.3a2.35,2.35,0,0,1-2.78.41,2.29,2.29,0,0,1-.29-1.13,2.34,2.34,0,0,1,.69-1.66L45.17,26.24a2.33,2.33,0,0,1,2.79-.4,2.37,2.37,0,0,1-.4,2.78Z"/><path class="cls-3" d="M45.86,30.28a2.32,2.32,0,0,1-3.27,0h0a2.31,2.31,0,0,1,0-3.28l1.69-1.69a2.31,2.31,0,0,1,3.28,0h0a2.32,2.32,0,0,1,0,3.27Z"/><path class="cls-4" d="M38.41,37.76l-.93.93a3,3,0,0,1-3.31-3.32l.94-.94a2.4,2.4,0,0,0,3.3,3.33Z"/><path class="cls-4" d="M41.84,34.34l-.93.93a3,3,0,0,1-2.47-.86A3,3,0,0,1,37.59,32l.95-.95a2.41,2.41,0,0,0,3.3,3.34Z"/><path class="cls-4" d="M35,41.18l-.93.94a3,3,0,0,1-3.32-3.32l1-.95A2.4,2.4,0,0,0,35,41.18Z"/><path class="cls-5" d="M45.74,29.55a1.72,1.72,0,0,1-2.43,0h0a1.71,1.71,0,0,1,0-2.42l1.25-1.26a1.72,1.72,0,0,1,2.43,0h0a1.72,1.72,0,0,1,0,2.43Z"/><path class="cls-2" d="M32.41,23.62a26.27,26.27,0,0,1-4.21,9,26.27,26.27,0,0,1,.39-9.92,26.14,26.14,0,0,1,4.2-9A26.19,26.19,0,0,1,32.41,23.62Z"/><path class="cls-6" d="M27.47,40.56a41.44,41.44,0,0,1-3.42,17.25h0c-.2.44-.41.87-.63,1.28a2,2,0,0,1-.81,1.12c-.37.69-2.11,1.28-4.56,1.61a19.36,19.36,0,0,1-2.4.23c-.29,0-.59,0-.89,0h-.94l-1.1,0v0a21.45,21.45,0,0,1-4.31-.45,7.34,7.34,0,0,1-3.16-1.14,2.38,2.38,0,0,1-1.19-1.4C1.56,54.45,0,47.87,0,40.56A46.33,46.33,0,0,1,1.49,28.67,25.26,25.26,0,0,1,6.58,18.36a2.73,2.73,0,0,1,.23-.25A2.39,2.39,0,0,1,7,17.88a5.56,5.56,0,0,0,1.19-3V13.76A5.41,5.41,0,0,0,6.59,10.3l-.17-.12a3.37,3.37,0,0,1-.36-.3A10.13,10.13,0,0,1,2.49,2.15V.46h0A.55.55,0,0,1,3.07,0H24.43A.55.55,0,0,1,25,.46h0V2.15a10.16,10.16,0,0,1-3.56,7.73c-.12.11-.25.21-.37.3l-.17.12a5.45,5.45,0,0,0-1.62,3.46v1.15a5.48,5.48,0,0,0,1.18,3,2.39,2.39,0,0,1,.22.23,1.79,1.79,0,0,1,.23.25A25.14,25.14,0,0,1,26,28.67c.21.76.39,1.53.55,2.33A47.39,47.39,0,0,1,27.47,40.56Z"/><path class="cls-7" d="M27.47,40.56a41.44,41.44,0,0,1-3.42,17.25h0l-.44.06a22,22,0,0,1-2.4.22l-.9,0v0l-.94,0-1.1,0v0A23.19,23.19,0,0,1,14,57.69a7.6,7.6,0,0,1-3.15-1.06,2.3,2.3,0,0,1-1.2-1.31C7.12,51,5.55,44.81,5.55,38a41.6,41.6,0,0,1,.86-8.56c1.08-5.2,3.12-9.51,5.72-12.22a2.61,2.61,0,0,1,.23-.24l.22-.21a2.45,2.45,0,0,0,.31-.41A4.9,4.9,0,0,0,13.77,14V12.88a4.94,4.94,0,0,0-1.62-3.23L12,9.53a3.37,3.37,0,0,1-.37-.29A9.23,9.23,0,0,1,8.05,2V.43h0A.51.51,0,0,1,8.63,0h15.8A.55.55,0,0,1,25,.46h0V2.15a10.16,10.16,0,0,1-3.56,7.73c-.12.11-.25.21-.37.3l-.17.12a5.45,5.45,0,0,0-1.62,3.46v1.15a5.48,5.48,0,0,0,1.18,3,2.39,2.39,0,0,1,.22.23,1.79,1.79,0,0,1,.23.25A25.14,25.14,0,0,1,26,28.67c.21.76.39,1.53.55,2.33A47.39,47.39,0,0,1,27.47,40.56Z"/><path class="cls-8" d="M26,28.67a65.29,65.29,0,0,1-12.24,1.12,68.59,68.59,0,0,1-7.26-.38H6.41c-1.69-.19-3.33-.44-4.92-.74A25.26,25.26,0,0,1,6.58,18.36a2.73,2.73,0,0,1,.23-.25A2.39,2.39,0,0,1,7,17.88a5.56,5.56,0,0,0,1.19-3V13.76A5.41,5.41,0,0,0,6.59,10.3l-.17-.12a3.37,3.37,0,0,1-.36-.3A10.13,10.13,0,0,1,2.49,2.15V.46h0A.55.55,0,0,1,3.07,0H24.43A.55.55,0,0,1,25,.46h0V2.15a10.16,10.16,0,0,1-3.56,7.73c-.12.11-.25.21-.37.3l-.17.12a5.45,5.45,0,0,0-1.62,3.46v1.15a5.48,5.48,0,0,0,1.18,3,2.39,2.39,0,0,1,.22.23,1.79,1.79,0,0,1,.23.25A25.14,25.14,0,0,1,26,28.67Z"/><path class="cls-9" d="M26,28.67a65.29,65.29,0,0,1-12.24,1.12,68.59,68.59,0,0,1-7.26-.38,26.6,26.6,0,0,1,4.86-10l.23-.27a2.5,2.5,0,0,1,.22-.24,5.76,5.76,0,0,0,1.1-2.57,3.75,3.75,0,0,0,.09-.57V14.55a5.84,5.84,0,0,0-1.63-3.65l-.17-.13c-.12-.1-.25-.21-.37-.33A11,11,0,0,1,7.25,2.28V.48h0A.56.56,0,0,1,7.83,0h16.6A.55.55,0,0,1,25,.46h0V2.15a10.16,10.16,0,0,1-3.56,7.73c-.12.11-.25.21-.37.3l-.17.12a5.45,5.45,0,0,0-1.62,3.46v1.15a5.48,5.48,0,0,0,1.18,3,2.39,2.39,0,0,1,.22.23,1.79,1.79,0,0,1,.23.25A25.14,25.14,0,0,1,26,28.67Z"/><path class="cls-6" d="M47.33,47.24v11a9,9,0,0,1-9,9H33.11a9,9,0,0,1-9-9v-11Z"/><path class="cls-7" d="M47.33,47.24v11a9,9,0,0,1-2.57,6.3,8.93,8.93,0,0,1-1.8.18H37.75a9,9,0,0,1-9-9V47.24Z"/><path class="cls-9" d="M47.33,47.24v6a39.13,39.13,0,0,1-11.22,1.52,43.52,43.52,0,0,1-7.37-.61,31.39,31.39,0,0,1-4.64-1.17v-5.7h.06c.24-.49,1.27-.93,2.86-1.28a43,43,0,0,1,8.69-.76c6,0,11,.89,11.56,2Z"/><path d="M47.33,47.47c0,.51-.87,1-2.34,1.35a39.62,39.62,0,0,1-9.28.92,48.6,48.6,0,0,1-7-.46c-.54-.07-1-.17-1.52-.26-1.93-.41-3.12-1-3.12-1.55a.49.49,0,0,1,.06-.23c.24-.49,1.27-.93,2.86-1.28a43,43,0,0,1,8.69-.76c6,0,11,.89,11.56,2A.49.49,0,0,1,47.33,47.47Z"/><path class="cls-10" d="M45,48.82a39.62,39.62,0,0,1-9.28.92A44.23,44.23,0,0,1,27.22,49c.94-.9,4.61-1.55,9-1.55C40.3,47.47,43.77,48,45,48.82Z"/><path class="cls-1" d="M24.16,47.24a.49.49,0,0,0-.06.23v-.23Z"/><path class="cls-8" d="M28.74,49.28v4.83a31.39,31.39,0,0,1-4.64-1.17V47.47c0,.59,1.19,1.14,3.12,1.55C27.69,49.11,28.2,49.21,28.74,49.28Z"/></g></g></svg>