<svg xmlns="http://www.w3.org/2000/svg" viewBox="0 0 115.33 106.84"><defs><style>.cls-1{fill:#ad7c5e;}.cls-2{fill:#eae6db;}.cls-3{fill:#7d4c2e;}.cls-4{fill:#cd9c7d;}.cls-5{fill:#ba2f28;}.cls-6{fill:#d3362d;}</style></defs><title>Asset 13</title><g id="Layer_2" data-name="Layer 2"><g id="illustrations"><path class="cls-1" d="M68.11,5.05a1.43,1.43,0,0,1-1.85.82h0A1.43,1.43,0,0,1,65.44,4L66.65.91A1.43,1.43,0,0,1,68.5.1h0A1.42,1.42,0,0,1,69.31,2Z"/><path class="cls-2" d="M115.25,50.36c-1.65,4.25-28.77-2.31-60.57-14.65S-1.57,9.92.08,5.67,28.85,8,60.65,20.32,116.9,46.11,115.25,50.36Z"/><path class="cls-1" d="M31.72,102.21a2.64,2.64,0,0,1-3.43,1.51h0a2.66,2.66,0,0,1-1.52-3.43L58.26,19.15a2.65,2.65,0,0,1,3.43-1.51h0a2.65,2.65,0,0,1,1.52,3.42Z"/><path class="cls-3" d="M44,71.34A3,3,0,0,1,40.2,73h0a3,3,0,0,1-1.68-3.81l4.23-10.9a2.94,2.94,0,0,1,3.81-1.68h0a3,3,0,0,1,1.68,3.82Z"/><path class="cls-3" d="M31.21,104.84a3.12,3.12,0,0,1-4.05,1.78h0a3.11,3.11,0,0,1-1.78-4L29.86,91a3.13,3.13,0,0,1,4-1.78h0a3.11,3.11,0,0,1,1.78,4Z"/><path class="cls-4" d="M50.94,45.34a1,1,0,0,1-.46-.37L26.86,8.16a1,1,0,1,1,1.6-1l23.63,36.8a1,1,0,0,1-.29,1.32A1,1,0,0,1,50.94,45.34Z"/><path class="cls-4" d="M50.94,45.34a.92.92,0,0,1-.56-.61l-9.6-31.36a1,1,0,1,1,1.82-.56l9.6,31.36a1,1,0,0,1-.64,1.19A.94.94,0,0,1,50.94,45.34Z"/><path class="cls-4" d="M50.94,45.34a.94.94,0,0,1-.6-1l2.13-26.81a1,1,0,1,1,1.9.15L52.24,44.53a1,1,0,0,1-1,.87Z"/><path class="cls-4" d="M51.21,45.44a.92.92,0,0,1-.57-.64.94.94,0,0,1,.67-1.16L93.58,32.4a1,1,0,0,1,.49,1.84L51.8,45.48A1,1,0,0,1,51.21,45.44Z"/><path class="cls-4" d="M51.21,45.44a.95.95,0,0,1-.14-1.71L79.31,27.06a.94.94,0,0,1,1.3.33,1,1,0,0,1-.33,1.31L52,45.38A1,1,0,0,1,51.21,45.44Z"/><path class="cls-4" d="M51.21,45.44a1.41,1.41,0,0,1-.24-.13A1,1,0,0,1,50.8,44L67.31,22.74a1,1,0,0,1,1.51,1.17L52.31,45.14A1,1,0,0,1,51.21,45.44Z"/><path class="cls-4" d="M50.94,45.34h0a1,1,0,0,1-.54-1.23l9.32-24A1,1,0,0,1,61,19.54h0a1,1,0,0,1,.55,1.24l-9.33,24A1,1,0,0,1,50.94,45.34Z"/><path class="cls-5" d="M44.35,14.35c5.22,1.79,10.68,3.78,16.3,6L66.81,4.45Z"/><path class="cls-6" d="M3.4,4.39c6.58-.3,22.06,3.47,41,10l22.46-9.9S17,2.12,3.4,4.39Z"/><path class="cls-5" d="M66.81,4.45l9.9,22.45C95,34.85,109,42.51,113.65,47.17,105.16,36.34,66.81,4.45,66.81,4.45Z"/><path class="cls-6" d="M60.65,20.31c5.63,2.18,11,4.4,16.06,6.59L66.81,4.45Z"/><path class="cls-6" d="M54,45.81a1.25,1.25,0,0,1-1.61.7l-3.34-1.3a1.23,1.23,0,0,1-.71-1.6h0A1.23,1.23,0,0,1,50,42.9l3.35,1.3A1.24,1.24,0,0,1,54,45.81Z"/></g></g></svg>