<svg xmlns="http://www.w3.org/2000/svg" viewBox="0 0 58.25 74.77"><defs><style>.cls-1{fill:#eca402;}.cls-2{fill:#e49306;}.cls-3{fill:#f5b400;}.cls-4{fill:#fbcb43;}.cls-5{fill:#d6741d;}.cls-6{fill:#404040;}.cls-7{fill:#d3362d;}.cls-8{fill:#ffe167;}.cls-9{fill:#fcf6a8;}</style></defs><title>Asset 10</title><g id="Layer_2" data-name="Layer 2"><g id="illustrations"><path class="cls-1" d="M48.88,54c0,.57,0,1.14-.08,1.7a18.16,18.16,0,0,1-1.21,5.06c-3.22,8.17-12.13,14-22.61,14-13.2,0-23.9-9.32-23.9-20.81S11.78,33.15,25,33.15,48.88,42.47,48.88,54Z"/><path class="cls-2" d="M48.88,65.06v3.79c0,.16,0,.32,0,.48A5.92,5.92,0,0,1,43,74.77H7.75a5.92,5.92,0,0,1-5.92-5.92V65.06a5.92,5.92,0,0,1,5.92-5.92H43A5.92,5.92,0,0,1,48.88,65.06Z"/><path class="cls-1" d="M48.88,65.06v3.79c0,.16,0,.32,0,.48a5.92,5.92,0,0,1-4.47,2H9.17a5.92,5.92,0,0,1-5.92-5.92V61.66c0-.16,0-.32,0-.47a5.93,5.93,0,0,1,4.48-2H43A5.92,5.92,0,0,1,48.88,65.06Z"/><path class="cls-3" d="M58.25,40.16a4.9,4.9,0,0,1-4.9,4.9h0a4.9,4.9,0,0,1-4.91-4.9V19.79a4.9,4.9,0,0,1,4.91-4.9h0a4.9,4.9,0,0,1,4.9,4.9Z"/><path class="cls-1" d="M57.93,40.16A4.9,4.9,0,0,1,53,45.06H32.66a4.9,4.9,0,0,1-4.91-4.9,4.87,4.87,0,0,1,1.44-3.47,4.88,4.88,0,0,1,3.47-1.44H53a4.92,4.92,0,0,1,4.85,4.13A5.12,5.12,0,0,1,57.93,40.16Z"/><path class="cls-3" d="M57.87,39.38a4.89,4.89,0,0,1-4.55,3.06H33a4.9,4.9,0,0,1-4.84-4.13,5,5,0,0,1,1.08-1.62,4.88,4.88,0,0,1,3.47-1.44H53A4.92,4.92,0,0,1,57.87,39.38Z"/><path class="cls-4" d="M38.27,36.93v17.4a5.91,5.91,0,0,1-5.92,5.92H18.86A5.92,5.92,0,0,1,13,54.33V36.93a6.08,6.08,0,0,1,0-.61,26.66,26.66,0,0,0,12.3,2.83A26.26,26.26,0,0,0,38.2,36,6,6,0,0,1,38.27,36.93Z"/><path class="cls-3" d="M12.78,33.29a5,5,0,0,1,2.75,6.57L9.71,54.09a5.06,5.06,0,0,1-6.58,2.75h0A5,5,0,0,1,.38,50.27L6.21,36a5,5,0,0,1,6.57-2.75Z"/><path class="cls-1" d="M20.93,9.9c.45,5.74-2.1,10.62-5.7,10.91s-6.89-4.14-7.34-9.88S10,.3,13.58,0,20.47,4.15,20.93,9.9Z"/><path class="cls-5" d="M19.46,10c.35,4.45-1.62,8.24-4.41,8.46s-5.34-3.21-5.69-7.66S11,2.57,13.77,2.35,19.11,5.56,19.46,10Z"/><path class="cls-1" d="M29.11,9.9c-.45,5.74,2.09,10.62,5.7,10.91s6.89-4.14,7.34-9.88S40.06.3,36.46,0,29.57,4.15,29.11,9.9Z"/><path class="cls-5" d="M30.58,10c-.35,4.45,1.62,8.24,4.41,8.46s5.34-3.21,5.69-7.66-1.62-8.24-4.41-8.46S30.93,5.56,30.58,10Z"/><path class="cls-2" d="M44,24.45a15.4,15.4,0,0,1-1.19,5.94c-2.68,6.5-9.65,11.12-17.82,11.12-10.5,0-19-7.63-19-17.06a15.78,15.78,0,0,1,3.54-9.9A19.68,19.68,0,0,1,24.94,7.39C35.44,7.39,44,15,44,24.45Z"/><path class="cls-1" d="M44,24.45a15.4,15.4,0,0,1-1.19,5.94,19.7,19.7,0,0,1-15.48,7.15c-10.49,0-19-7.64-19-17.06a15.53,15.53,0,0,1,1.18-5.93A19.68,19.68,0,0,1,24.94,7.39C35.44,7.39,44,15,44,24.45Z"/><path class="cls-6" d="M21.92,23.22a.79.79,0,0,1-.79-.79,3.45,3.45,0,0,0-3.7-3.11,3.45,3.45,0,0,0-3.69,3.11.79.79,0,0,1-1.58,0c0-2.58,2.37-4.68,5.27-4.68s5.28,2.1,5.28,4.68A.79.79,0,0,1,21.92,23.22Z"/><path class="cls-6" d="M37,23.22a.79.79,0,0,1-.79-.79,3.45,3.45,0,0,0-3.7-3.11,3.45,3.45,0,0,0-3.7,3.11.79.79,0,1,1-1.57,0c0-2.58,2.36-4.68,5.27-4.68s5.28,2.1,5.28,4.68A.8.8,0,0,1,37,23.22Z"/><path class="cls-7" d="M29.92,26.08c0,.9-1.89,3.6-4.22,3.6s-4.23-2.7-4.23-3.6,1.89-1.63,4.23-1.63S29.92,25.18,29.92,26.08Z"/><path class="cls-7" d="M43.52,38a22,22,0,0,1-5.25,3.27,31.88,31.88,0,0,1-13,2.63A32.21,32.21,0,0,1,13,41.54a22.56,22.56,0,0,1-5.74-3.4,2.37,2.37,0,0,1,3-3.65A16.64,16.64,0,0,0,13,36.32a26.66,26.66,0,0,0,12.3,2.83A26.26,26.26,0,0,0,38.2,36a16.53,16.53,0,0,0,2.26-1.59A2.36,2.36,0,1,1,43.52,38Z"/><path class="cls-7" d="M7.18,72.56a.9.9,0,0,1-.9.9h0a.9.9,0,0,1-.91-.9v-4.7A.91.91,0,0,1,6.28,67h0a.9.9,0,0,1,.9.91Z"/><path class="cls-7" d="M10.48,72.56a.9.9,0,0,1-.9.9h0a.9.9,0,0,1-.9-.9v-4.7a.9.9,0,0,1,.9-.91h0a.9.9,0,0,1,.9.91Z"/><path class="cls-7" d="M13.79,72.56a.9.9,0,0,1-.91.9h0a.9.9,0,0,1-.9-.9v-4.7a.9.9,0,0,1,.9-.91h0a.91.91,0,0,1,.91.91Z"/><path class="cls-7" d="M39.33,72.56a.9.9,0,0,1-.9.9h0a.9.9,0,0,1-.9-.9v-4.7a.9.9,0,0,1,.9-.91h0a.9.9,0,0,1,.9.91Z"/><path class="cls-7" d="M42.63,72.56a.9.9,0,0,1-.9.9h0a.9.9,0,0,1-.9-.9v-4.7a.9.9,0,0,1,.9-.91h0a.9.9,0,0,1,.9.91Z"/><path class="cls-7" d="M45.94,72.56a.9.9,0,0,1-.91.9h0a.9.9,0,0,1-.9-.9v-4.7A.9.9,0,0,1,45,67h0a.91.91,0,0,1,.91.91Z"/><path class="cls-7" d="M51,20.69a.57.57,0,0,1-.57.57h0a.58.58,0,0,1-.58-.57v-3a.58.58,0,0,1,.58-.58h0a.57.57,0,0,1,.57.58Z"/><path class="cls-7" d="M53.1,20.69a.58.58,0,0,1-.58.57h0a.58.58,0,0,1-.58-.57v-3a.58.58,0,0,1,.58-.58h0a.58.58,0,0,1,.58.58Z"/><path class="cls-7" d="M55.16,20.69a.58.58,0,0,1-.58.57h0a.58.58,0,0,1-.58-.57v-3a.58.58,0,0,1,.58-.58h0a.58.58,0,0,1,.58.58Z"/><path class="cls-7" d="M57.22,20.69a.58.58,0,0,1-.58.57h0a.58.58,0,0,1-.58-.57v-3a.58.58,0,0,1,.58-.58h0a.58.58,0,0,1,.58.58Z"/><path class="cls-2" d="M48.8,55.66a18.16,18.16,0,0,1-1.21,5.06,25.22,25.22,0,0,1-19,8.18c-10.87,0-20-6.31-22.94-15H8.17c4.08,6.41,11.92,10.75,20.92,10.75A25.05,25.05,0,0,0,48.8,55.66Z"/><path class="cls-8" d="M30.84,54c5,5.77,5.83,13.23,1.86,16.66s-11.23,1.55-16.22-4.22-5.83-13.23-1.86-16.66S25.85,48.27,30.84,54Z"/><path class="cls-9" d="M30,54.85c4.36,5,5.09,11.55,1.62,14.55s-9.81,1.35-14.17-3.69-5.09-11.56-1.62-14.56S25.6,49.81,30,54.85Z"/><path class="cls-3" d="M25.67,52.08a5,5,0,0,1-5,5H5.26a5,5,0,0,1-5-5h0a5,5,0,0,1,5-5H20.63a5,5,0,0,1,5,5Z"/><path class="cls-7" d="M22.76,54.59a.58.58,0,0,1,.58.58h0a.58.58,0,0,1-.58.58h-3a.58.58,0,0,1-.58-.58h0a.58.58,0,0,1,.58-.58Z"/><path class="cls-7" d="M22.76,52.53a.58.58,0,0,1,.58.58h0a.57.57,0,0,1-.58.57h-3a.57.57,0,0,1-.58-.57h0a.58.58,0,0,1,.58-.58Z"/><path class="cls-7" d="M22.76,50.47a.58.58,0,0,1,.58.58h0a.57.57,0,0,1-.58.57h-3a.57.57,0,0,1-.58-.57h0a.58.58,0,0,1,.58-.58Z"/><path class="cls-7" d="M22.76,48.41a.58.58,0,0,1,.58.57h0a.58.58,0,0,1-.58.58h-3a.58.58,0,0,1-.58-.58h0a.58.58,0,0,1,.58-.57Z"/></g></g></svg>