<svg xmlns="http://www.w3.org/2000/svg" viewBox="0 0 82.99 61.78"><defs><style>.cls-1{isolation:isolate;}.cls-2{fill:#fff;}.cls-3{fill:#dc4437;}.cls-4{fill:#feccbd;}.cls-5{fill:#d3362d;}.cls-6{fill:#606060;}.cls-7{fill:#fd7d70;}.cls-8{fill:#f55d51;}.cls-9{fill:#eae6db;}.cls-10{mix-blend-mode:multiply;}.cls-11{fill:#fdac9e;}.cls-12{fill:#fd8c7f;}</style></defs><title>Asset 11</title><g class="cls-1"><g id="Layer_2" data-name="Layer 2"><g id="illustrations"><path class="cls-2" d="M42.14,4a.64.64,0,0,1-.64.64h0A.64.64,0,0,1,40.86,4V.64A.64.64,0,0,1,41.5,0h0a.64.64,0,0,1,.64.64Z"/><path class="cls-2" d="M68.45,15.46a.65.65,0,0,1-.91,0h0a.65.65,0,0,1,0-.91l2.4-2.4a.63.63,0,0,1,.9,0h0a.66.66,0,0,1,0,.91Z"/><path class="cls-2" d="M57.11,7.47a.65.65,0,0,1-.84.34h0A.64.64,0,0,1,55.92,7l1.31-3.12a.65.65,0,0,1,.84-.35h0a.64.64,0,0,1,.34.84Z"/><path class="cls-2" d="M76.4,27.85a.63.63,0,0,1-.83-.35h0a.63.63,0,0,1,.35-.83l3.13-1.29a.65.65,0,0,1,.84.35h0a.65.65,0,0,1-.35.84Z"/><path class="cls-2" d="M79,41.55a.63.63,0,0,1-.64-.63h0a.64.64,0,0,1,.63-.65l3.38-.05a.63.63,0,0,1,.65.63h0a.64.64,0,0,1-.62.65Z"/><path class="cls-2" d="M7.37,26.56a.64.64,0,0,1,.33.84h0a.64.64,0,0,1-.84.33L3.75,26.38a.64.64,0,0,1-.34-.84h0a.64.64,0,0,1,.84-.33Z"/><path class="cls-2" d="M28.3,6.43a.64.64,0,0,1-.36.83h0a.64.64,0,0,1-.83-.36L25.86,3.75a.64.64,0,0,1,.36-.83h0a.64.64,0,0,1,.83.36Z"/><path class="cls-2" d="M15.65,14.42a.63.63,0,0,1,0,.9h0a.64.64,0,0,1-.91,0L12.33,13a.63.63,0,0,1,0-.9h0a.64.64,0,0,1,.91,0Z"/><path class="cls-2" d="M4,40.25a.64.64,0,0,1,.64.64h0a.64.64,0,0,1-.64.64H.64A.64.64,0,0,1,0,40.88H0a.64.64,0,0,1,.64-.64Z"/><path class="cls-2" d="M30.74,31.5l.38-.38L13.64,13.64A39.3,39.3,0,0,0,5.2,26.49L28,35.9A14.63,14.63,0,0,1,30.74,31.5Z"/><polygon class="cls-3" points="41.5 41.5 41.5 41.5 41.5 41.5 41.5 41.5"/><path class="cls-4" d="M28,35.9,5.2,26.49h0a39.08,39.08,0,0,0-2.86,14.7c0,.1,0,.21,0,.31H26.83a14.78,14.78,0,0,1,1-5.34Z"/><polygon class="cls-5" points="41.5 41.5 41.5 41.5 41.5 41.5 41.5 41.5"/><path class="cls-4" d="M35.5,28.05c.22-.1.45-.18.66-.26l-9-23.1a39.37,39.37,0,0,0-13.54,9L31.12,31.12A14.93,14.93,0,0,1,35.5,28.05Z"/><polygon class="cls-3" points="41.5 41.5 41.5 41.5 41.5 41.5 41.5 41.5"/><path class="cls-2" d="M40.74,26.76l.76,0V1.94A38.91,38.91,0,0,0,27.18,4.69l9,23.1A14.91,14.91,0,0,1,40.74,26.76Z"/><path class="cls-4" d="M41.6,26.74a14.88,14.88,0,0,1,5.11.9c.22.08.43.18.65.28L57.17,5.15A39.06,39.06,0,0,0,41.6,1.94h-.1v24.8Z"/><path class="cls-2" d="M51.6,30.64c.14.12.25.25.38.38L69.46,13.54A39.3,39.3,0,0,0,57.17,5.15L47.36,27.92A14.43,14.43,0,0,1,51.6,30.64Z"/><path class="cls-2" d="M78,26.47l-22.11,9.1-.66.27a14.63,14.63,0,0,1,1.14,5.66H80.86c0-.1,0-.21,0-.31A39.11,39.11,0,0,0,78,26.47Z"/><path class="cls-4" d="M55.13,35.57c0,.09.07.18.1.27L78,26.47a39.34,39.34,0,0,0-8.54-12.93L52,31A14.72,14.72,0,0,1,55.13,35.57Z"/><polygon class="cls-6" points="55.23 35.84 55.23 35.84 48.38 38.67 55.23 35.84"/><path class="cls-7" d="M30.74,31.5A14.63,14.63,0,0,0,28,35.9l.64.26L41.5,41.5,31.12,31.12Z"/><path class="cls-8" d="M41.5,41.5H26.83a14.78,14.78,0,0,1,1-5.34c0-.09.08-.17.12-.27l.64.27,10.92,4.52Z"/><polygon class="cls-6" points="41.5 41.5 28.59 36.16 27.95 35.9 27.95 35.9 41.5 41.5 41.5 41.5 41.5 41.5"/><path class="cls-8" d="M36.16,27.79c-.21.08-.44.16-.66.26a14.93,14.93,0,0,0-4.38,3.07L41.5,41.5h0Z"/><rect class="cls-6" x="41.5" y="41.5" transform="translate(-15.96 29.53) rotate(-33.23)"/><path class="cls-7" d="M41.5,41.5V26.74l-.76,0a14.91,14.91,0,0,0-4.58,1L41.5,41.5Z"/><rect class="cls-6" x="41.5" y="41.5"/><path class="cls-8" d="M41.5,41.5l5.86-13.58c-.22-.1-.43-.2-.65-.28a14.88,14.88,0,0,0-5.11-.9h-.1V41.5Z"/><path class="cls-7" d="M52,31l-8.61,8.62L41.51,41.5h0l1.11-2.58,4.75-11a14.51,14.51,0,0,1,4.24,2.72C51.73,30.75,51.85,30.89,52,31Z"/><path class="cls-7" d="M56.37,41.5H41.51l2.18-.91,4.69-1.92,6.85-2.82A14.5,14.5,0,0,1,56.37,41.5Z"/><polygon class="cls-6" points="41.5 41.5 41.5 41.5 41.5 41.5 41.5 41.5"/><path class="cls-8" d="M55.23,35.84l-6.85,2.83-4.69,1.92-2.18.91,1.86-1.86L52,31a14.56,14.56,0,0,1,3.15,4.55C55.17,35.66,55.2,35.75,55.23,35.84Z"/><path class="cls-5" d="M54.78,56.74a.75.75,0,0,1-.57-.25L39.69,41.25A.79.79,0,0,1,40.57,40L64.05,50a.78.78,0,0,1,.42,1,.79.79,0,0,1-1,.42l-20-8.51L55.35,55.41a.8.8,0,0,1,0,1.11A.76.76,0,0,1,54.78,56.74Z"/><path class="cls-5" d="M64.15,48.46l3.31,1.79a1.9,1.9,0,0,1,.52.4A2.22,2.22,0,0,1,67,54.34a2.26,2.26,0,0,1-1.7-.17L62,52.37a2.19,2.19,0,0,1-.89-3,2.21,2.21,0,0,1,1.32-1.07A2.18,2.18,0,0,1,64.15,48.46Z"/><path class="cls-8" d="M64.15,48.46l3.31,1.79a1.9,1.9,0,0,1,.52.4,2,2,0,0,1-.22.6,2.23,2.23,0,0,1-1.32,1.08,2.26,2.26,0,0,1-1.7-.18l-3.31-1.79a2.28,2.28,0,0,1-.52-.39,2.25,2.25,0,0,1,.23-.61,2.21,2.21,0,0,1,1.32-1.07A2.18,2.18,0,0,1,64.15,48.46Z"/><path class="cls-9" d="M43.7,40.76v.74H39.51v-.82a2.17,2.17,0,0,1,.25-.92,2.13,2.13,0,0,1,.76-.79,2.05,2.05,0,0,1,1-.3h.1a2.16,2.16,0,0,1,1,.25,2.41,2.41,0,0,1,.48.36,1.93,1.93,0,0,1,.28.36,2,2,0,0,1,.32,1A1,1,0,0,1,43.7,40.76Z"/><g class="cls-10"><path class="cls-11" d="M19.27,36.45a2.28,2.28,0,0,1-.43,2.66,2.28,2.28,0,0,1-2.65-.51c-.51,1.06-1.36,1.72-2.18,1.57s-1.39-1.06-1.51-2.23a2.25,2.25,0,0,1-2.65-.44,2.26,2.26,0,0,1,.51-2.64c-1.06-.51-1.72-1.36-1.57-2.18s1.05-1.4,2.23-1.51a2.25,2.25,0,0,1,.44-2.65A2.26,2.26,0,0,1,14.1,29c.51-1.06,1.36-1.72,2.18-1.57s1.39,1.06,1.51,2.23a2.27,2.27,0,0,1,2.65.43,2.26,2.26,0,0,1-.51,2.64c1.06.51,1.72,1.36,1.57,2.19S20.45,36.34,19.27,36.45Z"/><path class="cls-12" d="M17.61,35.72a1.36,1.36,0,0,1-.27,1.62A1.4,1.4,0,0,1,15.73,37c-.31.64-.83,1-1.33.95s-.85-.64-.92-1.35a1.39,1.39,0,0,1-1.62-.27,1.38,1.38,0,0,1,.31-1.61c-.64-.32-1.05-.84-1-1.34s.65-.85,1.37-.91a1.39,1.39,0,0,1,.26-1.63,1.38,1.38,0,0,1,1.61.32c.31-.65.83-1.05,1.34-1s.85.64.92,1.36a1.38,1.38,0,0,1,1.61.26A1.38,1.38,0,0,1,18,33.47c.65.31,1,.82,1,1.33S18.33,35.65,17.61,35.72Z"/><path class="cls-9" d="M15.92,34.63a.46.46,0,0,1-.09.54.47.47,0,0,1-.53-.11c-.1.22-.27.35-.43.32s-.28-.21-.31-.45a.44.44,0,0,1-.52-.08.46.46,0,0,1,.1-.54c-.22-.1-.35-.27-.32-.43s.21-.28.45-.3a.44.44,0,0,1,.09-.53c.13-.1.34,0,.52.1a.46.46,0,0,1,.44-.31c.17,0,.28.2.3.44a.46.46,0,0,1,.53.09.45.45,0,0,1-.1.52c.21.11.34.28.31.44S16.15,34.61,15.92,34.63Z"/></g><g class="cls-10"><path class="cls-11" d="M46.67,16.82a2.25,2.25,0,0,1-.44,2.65A2.26,2.26,0,0,1,43.59,19c-.51,1.07-1.36,1.72-2.18,1.57S40,19.48,39.9,18.3a2.26,2.26,0,0,1-2.65-.43,2.28,2.28,0,0,1,.51-2.65C36.69,14.71,36,13.86,36.19,13s1.05-1.39,2.22-1.5a2.28,2.28,0,0,1,.44-2.66,2.26,2.26,0,0,1,2.64.51c.51-1.06,1.36-1.71,2.19-1.57s1.39,1.06,1.5,2.23a2.28,2.28,0,0,1,2.66.43,2.28,2.28,0,0,1-.51,2.65c1.06.51,1.71,1.36,1.57,2.18S47.84,16.7,46.67,16.82Z"/><path class="cls-12" d="M45,16.08a1.37,1.37,0,0,1-.26,1.62,1.36,1.36,0,0,1-1.61-.31c-.31.65-.83,1.05-1.33,1S41,17.7,40.88,17a1.39,1.39,0,0,1-1.62-.27,1.36,1.36,0,0,1,.31-1.61c-.65-.31-1-.83-1-1.33s.65-.85,1.36-.92a1.38,1.38,0,0,1,.27-1.62,1.38,1.38,0,0,1,1.61.31c.31-.65.83-1.05,1.33-1s.85.64.92,1.36a1.39,1.39,0,0,1,1.62.27,1.36,1.36,0,0,1-.31,1.61c.65.31,1.05.83,1,1.33S45.72,16,45,16.08Z"/><path class="cls-9" d="M43.31,15a.45.45,0,0,1-.09.53c-.13.1-.34.05-.52-.11-.1.22-.27.35-.44.32s-.28-.21-.3-.45a.45.45,0,0,1-.53-.08.48.48,0,0,1,.1-.53c-.21-.1-.34-.27-.31-.44s.21-.28.45-.3a.46.46,0,0,1,.08-.53.48.48,0,0,1,.53.1c.1-.21.27-.34.44-.31s.27.21.3.45a.37.37,0,1,1,.43.61c.21.1.34.27.31.44S43.55,15,43.31,15Z"/></g><g class="cls-10"><path class="cls-11" d="M72.76,36.45a2.28,2.28,0,0,1-.44,2.66,2.26,2.26,0,0,1-2.64-.51c-.51,1.06-1.36,1.72-2.18,1.57S66.1,39.11,66,37.94a2.26,2.26,0,0,1-2.66-.44,2.29,2.29,0,0,1,.51-2.64c-1.06-.51-1.71-1.36-1.57-2.18s1.06-1.4,2.23-1.51a2.27,2.27,0,0,1,.44-2.65,2.26,2.26,0,0,1,2.64.51c.51-1.06,1.36-1.72,2.19-1.57s1.39,1.06,1.5,2.23a2.28,2.28,0,0,1,2.66.43,2.29,2.29,0,0,1-.51,2.64c1.06.51,1.71,1.36,1.57,2.19S73.93,36.34,72.76,36.45Z"/><path class="cls-12" d="M71.09,35.72a1.37,1.37,0,0,1-.26,1.62A1.39,1.39,0,0,1,69.22,37c-.31.64-.83,1-1.34.95S67,37.34,67,36.63a1.39,1.39,0,0,1-1.62-.27,1.36,1.36,0,0,1,.31-1.61c-.65-.32-1-.84-1-1.34s.64-.85,1.36-.91a1.15,1.15,0,1,1,1.88-1.31c.31-.65.83-1.05,1.33-1s.85.64.92,1.36a1.39,1.39,0,0,1,1.62.26,1.39,1.39,0,0,1-.31,1.62c.64.31,1,.82,1,1.33S71.81,35.65,71.09,35.72Z"/><path class="cls-9" d="M69.4,34.63a.37.37,0,1,1-.61.43c-.1.22-.27.35-.44.32s-.28-.21-.3-.45a.46.46,0,0,1-.53-.08.46.46,0,0,1,.1-.54c-.21-.1-.34-.27-.31-.43s.21-.28.44-.3a.47.47,0,0,1,.09-.53.45.45,0,0,1,.53.1c.1-.21.27-.34.43-.31s.28.2.31.44c.22-.07.43-.05.52.09a.42.42,0,0,1-.1.52c.22.11.34.28.32.44S69.64,34.61,69.4,34.63Z"/></g><g class="cls-10"><path class="cls-11" d="M27.16,28c.53,1.53.34,3-.6,3.63s-2.36.33-3.6-.7c-.7,1.46-1.86,2.35-3,2.15s-1.91-1.44-2.06-3c-1.52.53-3,.35-3.62-.59S14,27,15,25.79c-1.45-.69-2.35-1.85-2.14-3s1.44-1.9,3-2.06c-.53-1.52-.34-3,.6-3.62s2.36-.33,3.61.69c.7-1.44,1.86-2.34,3-2.14s1.91,1.44,2.06,3.05c1.52-.54,3-.35,3.63.59s.33,2.36-.7,3.61c1.46.7,2.35,1.86,2.15,3S28.77,27.82,27.16,28Z"/><path class="cls-12" d="M24.89,27a1.88,1.88,0,0,1-.36,2.21,1.9,1.9,0,0,1-2.21-.42c-.42.88-1.13,1.43-1.82,1.3s-1.16-.88-1.25-1.85A1.89,1.89,0,0,1,17,27.84a1.88,1.88,0,0,1,.43-2.2c-.89-.43-1.43-1.14-1.31-1.82S17,22.66,18,22.56a1.86,1.86,0,0,1,.36-2.21,1.89,1.89,0,0,1,2.2.42c.43-.88,1.14-1.43,1.83-1.31s1.16.88,1.25,1.86a1.89,1.89,0,0,1,2.22.37,1.88,1.88,0,0,1-.43,2.2c.89.43,1.43,1.13,1.31,1.82S25.87,26.87,24.89,27Z"/><path class="cls-9" d="M22.58,25.48a.63.63,0,0,1-.12.73.61.61,0,0,1-.72-.14c-.14.29-.37.47-.6.43s-.38-.29-.41-.61a.6.6,0,0,1-.72-.12c-.14-.18-.07-.47.13-.72-.29-.14-.47-.37-.43-.6a.63.63,0,0,1,.61-.41.63.63,0,0,1,.12-.72.61.61,0,0,1,.72.14c.14-.29.38-.47.6-.43s.38.29.41.61c.31-.11.6-.07.72.12a.59.59,0,0,1-.13.71c.29.15.46.38.43.6A.61.61,0,0,1,22.58,25.48Z"/></g><g class="cls-10"><path class="cls-11" d="M60.21,21.69c.53,1.52.34,3-.6,3.63s-2.36.33-3.6-.7c-.7,1.45-1.86,2.35-3,2.15s-1.9-1.44-2.06-3.05c-1.52.53-3,.35-3.63-.59s-.32-2.37.7-3.62c-1.45-.69-2.35-1.85-2.15-3s1.45-1.91,3-2.06c-.53-1.52-.34-3,.6-3.63s2.36-.32,3.61.7c.7-1.45,1.86-2.34,3-2.14s1.91,1.44,2.06,3c1.53-.54,3-.35,3.63.59s.32,2.36-.7,3.61c1.45.7,2.35,1.86,2.15,3S61.81,21.54,60.21,21.69Z"/><path class="cls-12" d="M57.94,20.69a1.88,1.88,0,0,1-.36,2.21,1.89,1.89,0,0,1-2.21-.43c-.42.89-1.13,1.43-1.82,1.31s-1.16-.88-1.25-1.85a1.91,1.91,0,0,1-2.22-.37,1.88,1.88,0,0,1,.43-2.2c-.89-.43-1.43-1.14-1.31-1.82s.88-1.16,1.86-1.26a1.88,1.88,0,0,1,.36-2.22,1.91,1.91,0,0,1,2.2.43c.43-.89,1.14-1.43,1.83-1.31s1.16.88,1.25,1.86a1.91,1.91,0,0,1,2.22.36,1.89,1.89,0,0,1-.43,2.21c.88.43,1.43,1.13,1.31,1.82S58.92,20.59,57.94,20.69Z"/><path class="cls-9" d="M55.63,19.2a.65.65,0,0,1-.12.73.61.61,0,0,1-.72-.14c-.14.29-.37.47-.6.43s-.38-.29-.41-.61a.61.61,0,0,1-.73-.12.63.63,0,0,1,.14-.72c-.29-.14-.47-.37-.43-.6s.29-.38.61-.41a.63.63,0,0,1,.12-.72.61.61,0,0,1,.72.14c.14-.3.38-.47.6-.43s.38.28.41.61a.63.63,0,0,1,.73.11.62.62,0,0,1-.14.72c.29.15.46.38.42.6S56,19.17,55.63,19.2Z"/></g><path class="cls-5" d="M56.29,55.27l2.5,2.82a2.27,2.27,0,0,1,.35.54,2.23,2.23,0,0,1-.54,2.6,2.26,2.26,0,0,1-1.62.55A2.19,2.19,0,0,1,55.46,61L53,58.21a2.23,2.23,0,0,1-.23-2.64,2,2,0,0,1,.42-.49,2.24,2.24,0,0,1,1.61-.56A2.19,2.19,0,0,1,56.29,55.27Z"/><path class="cls-8" d="M56.29,55.27l2.5,2.82a2.27,2.27,0,0,1,.35.54,2.43,2.43,0,0,1-.41.5,2.24,2.24,0,0,1-1.62.55,2.21,2.21,0,0,1-1.53-.74l-2.49-2.82a2.17,2.17,0,0,1-.36-.55,2,2,0,0,1,.42-.49,2.24,2.24,0,0,1,1.61-.56A2.19,2.19,0,0,1,56.29,55.27Z"/></g></g></g></svg>