<svg xmlns="http://www.w3.org/2000/svg" viewBox="0 0 76.68 18.44"><defs><style>.cls-1{fill:#dc4437;}.cls-2{fill:#fff;}</style></defs><title>Asset 6</title><g id="Layer_2" data-name="Layer 2"><g id="illustrations"><rect class="cls-1" width="76.68" height="18.44"/><path class="cls-2" d="M22.92,9.43h-.34v3.35H21.5V5.67h1.78a1.28,1.28,0,0,1,.83.23,1,1,0,0,1,.36.62,5,5,0,0,1,.09,1.05,2.81,2.81,0,0,1-.14,1,.77.77,0,0,1-.51.45.64.64,0,0,1,.51.5,6.62,6.62,0,0,1,.15,1.79,11.16,11.16,0,0,0,0,1.47H23.53c0-.06,0-.9,0-2.55a1.21,1.21,0,0,0-.11-.62A.56.56,0,0,0,22.92,9.43Zm-.34-.85H23a.41.41,0,0,0,.3-.09.53.53,0,0,0,.14-.32,4,4,0,0,0,0-.69V7.43a1.75,1.75,0,0,0-.1-.75c-.06-.12-.21-.18-.44-.18h-.37Z"/><path class="cls-2" d="M25.65,12.77V5.67H28V6.6h-1.3V8.67H28v.91H26.72v2.26h1.35v.93Z"/><path class="cls-2" d="M28.69,12.77l1-7.1h1.43l1.07,7.1h-1L31,11.5H29.88l-.15,1.27Zm2.22-2.13-.47-3.57h0L30,10.64Z"/><path class="cls-2" d="M33,12.77V5.67h1.59a1.34,1.34,0,0,1,1.13.46A2.22,2.22,0,0,1,36.1,7.5v3.2a2.83,2.83,0,0,1-.35,1.57,1.35,1.35,0,0,1-1.17.5Zm1.08-.84h.35a.5.5,0,0,0,.44-.19A1.35,1.35,0,0,0,35,11V7.52a1.64,1.64,0,0,0-.14-.78.48.48,0,0,0-.46-.24H34.1Z"/><path class="cls-2" d="M38.71,12.77V5.67h1.34l1,5.19L42,5.67h1.35v7.1h-1V10.12l0-2.42-1,5h-.86l-1-5,0,2.42v2.65Z"/><path class="cls-2" d="M47.18,12.34a1.38,1.38,0,0,1-1.19.51,1.36,1.36,0,0,1-1.19-.52,2.53,2.53,0,0,1-.38-1.55V7.54c0-1.3.52-1.95,1.58-1.95a1.37,1.37,0,0,1,1.19.49,2.48,2.48,0,0,1,.36,1.46v3.24A2.72,2.72,0,0,1,47.18,12.34Zm-1.58-.67a.37.37,0,0,0,.39.24.36.36,0,0,0,.38-.25,2.84,2.84,0,0,0,.09-.86V7.49a2.27,2.27,0,0,0-.09-.74A.37.37,0,0,0,46,6.52a.41.41,0,0,0-.39.23,1.91,1.91,0,0,0-.11.74V10.8A2.55,2.55,0,0,0,45.6,11.67Z"/><path class="cls-2" d="M50,9.43h-.34v3.35H48.61V5.67h1.78a1.28,1.28,0,0,1,.83.23,1,1,0,0,1,.36.62,5,5,0,0,1,.09,1.05,2.81,2.81,0,0,1-.14,1A.77.77,0,0,1,51,9a.64.64,0,0,1,.51.5,6.62,6.62,0,0,1,.15,1.79,11.16,11.16,0,0,0,0,1.47H50.64c0-.06,0-.9,0-2.55a1.21,1.21,0,0,0-.11-.62A.56.56,0,0,0,50,9.43Zm-.34-.85h.43a.46.46,0,0,0,.31-.09.6.6,0,0,0,.13-.32,4,4,0,0,0,0-.69V7.43a1.75,1.75,0,0,0-.1-.75c-.06-.12-.21-.18-.44-.18h-.37Z"/><path class="cls-2" d="M52.75,12.77V5.67h2.38V6.6h-1.3V8.67h1.24v.91H53.83v2.26h1.35v.93Z"/></g></g></svg>