<svg xmlns="http://www.w3.org/2000/svg" viewBox="0 0 69.89 55.91"><defs><style>.cls-1{fill:#f5f5f5;}.cls-2{fill:#e3ddcf;}.cls-3{fill:#f8f7f3;}.cls-4{fill:#dcd5c3;}.cls-5{fill:#eae6db;}</style></defs><title>Asset 9</title><g id="Layer_2" data-name="Layer 2"><g id="illustrations"><polygon class="cls-1" points="34.03 27.91 69.89 17.02 56.91 37.28 42.35 41.19 34.03 27.91"/><polygon class="cls-1" points="28.71 31.2 8.4 0 23.14 34.71 28.71 31.2"/><polygon class="cls-2" points="46.51 51.59 45.35 42.19 34.03 27.91 23.14 34.38 46.51 51.59"/><polygon class="cls-2" points="57.66 30.07 46.51 52.04 46.51 44.55 55.84 27.82 56.14 27.21 57.66 30.07"/><polygon class="cls-3" points="59.1 26.88 62.53 40.58 56.1 27.21 59.1 26.88"/><polygon class="cls-4" points="56.1 27.21 57.66 27.21 62.53 40.58 56.1 27.21"/><polygon class="cls-5" points="56.14 27.21 46.51 51.5 36.03 43.85 56.14 27.21"/><polygon class="cls-1" points="16.14 36.19 0 55.91 40.19 49.01 44.85 43.35 25.13 33.86 16.14 36.19"/></g></g></svg>