<svg xmlns="http://www.w3.org/2000/svg" viewBox="0 0 53.82 82.83"><defs><style>.cls-1{fill:#505050;}.cls-2{fill:#ba2f28;}.cls-3{fill:#dc4437;}.cls-4{fill:#eca402;}.cls-5{fill:#ef893a;}</style></defs><title>Asset 8</title><g id="Layer_2" data-name="Layer 2"><g id="illustrations"><path class="cls-1" d="M26.91,16l-.61-.79A14.74,14.74,0,0,1,23.43,7c0-6.29,2.43-7,3.48-7s3.48.68,3.48,7a14.74,14.74,0,0,1-2.87,8.22Zm0-14.43C26,1.55,25,3.23,25,7a12.88,12.88,0,0,0,1.93,6.35A12.88,12.88,0,0,0,28.84,7C28.84,3.23,27.87,1.55,26.91,1.55Z"/><rect class="cls-2" x="23.91" y="66.69" width="6.54" height="16.13"/><rect class="cls-3" x="26.06" y="66.69" width="4.39" height="16.13"/><rect class="cls-2" x="16.33" y="65.27" width="4.45" height="10.97"/><rect class="cls-3" x="17.79" y="65.27" width="2.99" height="10.97"/><rect class="cls-2" x="32.67" y="65.27" width="4.45" height="10.97"/><rect class="cls-3" x="34.13" y="65.27" width="2.99" height="10.97"/><path class="cls-2" d="M53.82,41.39a20.62,20.62,0,0,1-7.7,15.72,29.62,29.62,0,0,1-19.21,6.74C12,63.85,0,53.8,0,41.39,0,33.16,5.31,26,13.21,22.06a30.88,30.88,0,0,1,13.7-3.13C41.77,18.93,53.82,29,53.82,41.39Z"/><path class="cls-3" d="M53.82,41.39a20.62,20.62,0,0,1-7.7,15.72,30.81,30.81,0,0,1-13.69,3.13c-14.86,0-26.92-10.06-26.92-22.46a20.65,20.65,0,0,1,7.7-15.72,30.88,30.88,0,0,1,13.7-3.13C41.77,18.93,53.82,29,53.82,41.39Z"/><path class="cls-4" d="M23.36,63.77a24.42,24.42,0,0,1-1.57-44.22l.68,1.4a22.87,22.87,0,0,0,1.46,41.38Z"/><path class="cls-4" d="M30.46,63.77l-.57-1.44A22.87,22.87,0,0,0,31.35,21l.68-1.4a24.42,24.42,0,0,1-1.57,44.22Z"/><rect class="cls-5" x="14.54" y="14.72" width="24.75" height="6.71"/><rect class="cls-5" x="14.54" y="61.28" width="24.75" height="6.71"/><rect class="cls-4" x="17.81" y="61.28" width="21.48" height="6.71"/><rect class="cls-4" x="17.81" y="14.72" width="21.48" height="6.71"/><rect class="cls-4" x="26.14" y="18.07" width="1.55" height="45.14"/></g></g></svg>