<svg xmlns="http://www.w3.org/2000/svg" viewBox="0 0 175.49 138.09"><defs><style>.cls-1{font-size:8.5px;fill:#2c3349;font-family:Lato-Bold, Lato Bold;font-weight:700;}.cls-2{letter-spacing:-0.04em;}.cls-3{letter-spacing:-0.02em;}.cls-4{letter-spacing:-0.04em;}.cls-5{letter-spacing:-0.03em;}.cls-6{font-size:60.5px;font-family:OpenSans-Semibold, OpenSans Semibold;font-weight:600;}.cls-26,.cls-6{fill:#c45858;}.cls-7{letter-spacing:-0.08em;}.cls-8{font-size:6px;fill:#585e6b;font-family:Lato-Light, Lato Light;font-weight:300;}.cls-9{letter-spacing:-0.01em;}.cls-10{letter-spacing:-0.01em;}.cls-11{letter-spacing:0.17em;}.cls-12{letter-spacing:0.17em;}.cls-13{letter-spacing:0em;}.cls-14{letter-spacing:0em;}.cls-15{letter-spacing:0.17em;}.cls-16{letter-spacing:-0.01em;}.cls-17{letter-spacing:0.01em;}.cls-18{letter-spacing:-0.01em;}.cls-19{letter-spacing:0.11em;}.cls-20{letter-spacing:0em;}.cls-21{letter-spacing:0.11em;}.cls-22{letter-spacing:0.11em;}.cls-23{letter-spacing:-0.01em;}.cls-24{letter-spacing:-0.01em;}.cls-25{letter-spacing:-0.01em;}.cls-27{font-size:6.04px;fill:#fff;font-family:Lato-Medium, Lato Medium;font-weight:500;}.cls-28{letter-spacing:0em;}.cls-29{letter-spacing:0em;}.cls-30{letter-spacing:0.01em;}.cls-31{letter-spacing:0em;}.cls-32{letter-spacing:-0.01em;}</style></defs><title>Asset 3</title><g id="Layer_2" data-name="Layer 2"><g id="OBJECTS"><text class="cls-1" transform="translate(62.61 7.11)">WE<tspan class="cls-2" x="11.37" y="0">L</tspan><tspan class="cls-3" x="15.05" y="0">C</tspan><tspan x="19.8" y="0">OME</tspan><tspan class="cls-4" x="36.66" y="0"> </tspan><tspan class="cls-5" x="38.11" y="0">T</tspan><tspan x="42.11" y="0">O</tspan></text><text class="cls-6" transform="translate(6.84 61.17)">JA<tspan class="cls-7" x="59.41" y="0">P</tspan><tspan x="86.51" y="0">AN</tspan></text><text class="cls-8" transform="translate(0 90.64)"><tspan class="cls-9">L</tspan><tspan x="2.75" y="0">o</tspan><tspan class="cls-10" x="6.04" y="0">r</tspan><tspan x="7.94" y="0">em</tspan><tspan class="cls-11" x="15.95" y="0"> </tspan><tspan x="18.26" y="0">ipsum</tspan><tspan class="cls-12" x="33.76" y="0"> </tspan><tspan x="36.07" y="0">dolor</tspan><tspan class="cls-11" x="49.42" y="0"> </tspan><tspan x="51.73" y="0">sit</tspan><tspan class="cls-11" x="57.49" y="0"> </tspan><tspan x="59.8" y="0">ame</tspan><tspan class="cls-13" x="70.7" y="0">t</tspan><tspan class="cls-14" x="72.67" y="0">,</tspan><tspan class="cls-15" x="73.91" y="0"> </tspan><tspan class="cls-16" x="76.22" y="0">c</tspan><tspan x="78.87" y="0">onse</tspan><tspan class="cls-17" x="90.88" y="0">c</tspan><tspan class="cls-16" x="93.64" y="0">t</tspan><tspan x="95.59" y="0">etuer</tspan><tspan class="cls-11" x="108.86" y="0"> </tspan><tspan x="111.17" y="0">adipiscing</tspan><tspan class="cls-11" x="136.81" y="0"> </tspan><tspan x="139.12" y="0">eli</tspan><tspan class="cls-13" x="144.95" y="0">t</tspan><tspan x="146.92" y="0">,</tspan><tspan class="cls-12" x="148.16" y="0"> </tspan><tspan x="150.46" y="0">sed</tspan><tspan class="cls-11" x="159.23" y="0"> </tspan><tspan x="161.54" y="0">diam </tspan><tspan x="0" y="7.2">nonum</tspan><tspan class="cls-18" x="18.26" y="7.2">m</tspan><tspan x="23.19" y="7.2">y</tspan><tspan class="cls-19" x="26.02" y="7.2"> </tspan><tspan x="27.93" y="7.2">nibh</tspan><tspan class="cls-19" x="39.41" y="7.2"> </tspan><tspan x="41.33" y="7.2">euismod</tspan><tspan class="cls-19" x="63.1" y="7.2"> </tspan><tspan x="65.02" y="7.2">tincidu</tspan><tspan class="cls-20" x="82.52" y="7.2">n</tspan><tspan x="85.83" y="7.2">t</tspan><tspan class="cls-19" x="87.81" y="7.2"> </tspan><tspan x="89.73" y="7.2">ut</tspan><tspan class="cls-21" x="95.02" y="7.2"> </tspan><tspan x="96.94" y="7.2">lao</tspan><tspan class="cls-10" x="104.55" y="7.2">r</tspan><tspan x="106.45" y="7.2">eet</tspan><tspan class="cls-22" x="114.45" y="7.2"> </tspan><tspan x="116.36" y="7.2">dolo</tspan><tspan class="cls-23" x="127.75" y="7.2">r</tspan><tspan x="129.65" y="7.2">e</tspan><tspan class="cls-19" x="132.66" y="7.2"> </tspan><tspan x="134.58" y="7.2">ma</tspan><tspan class="cls-24" x="142.47" y="7.2">g</tspan><tspan x="145.79" y="7.2">na</tspan><tspan class="cls-19" x="152.01" y="7.2"> </tspan><tspan x="153.93" y="7.2">aliquam </tspan><tspan class="cls-9" x="0" y="14.4">L</tspan><tspan x="2.75" y="14.4">o</tspan><tspan class="cls-10" x="6.04" y="14.4">r</tspan><tspan x="7.94" y="14.4">em ipsum dolor sit ame</tspan><tspan class="cls-13" x="66.56" y="14.4">t</tspan><tspan class="cls-14" x="68.53" y="14.4">, </tspan><tspan class="cls-16" x="71.04" y="14.4">c</tspan><tspan x="73.7" y="14.4">onse</tspan><tspan class="cls-17" x="85.7" y="14.4">c</tspan><tspan class="cls-16" x="88.47" y="14.4">t</tspan><tspan x="90.42" y="14.4">etuer adipisc </tspan><tspan class="cls-24" x="123.79" y="14.4">c</tspan><tspan x="126.44" y="14.4">olem anaie e</tspan><tspan class="cls-10" x="158.23" y="14.4">r</tspan><tspan x="160.14" y="14.4">o</tspan><tspan class="cls-25" x="163.43" y="14.4">s</tspan><tspan x="165.74" y="14.4">.</tspan></text><path class="cls-26" d="M38.73,138.09H8.49A8.51,8.51,0,0,1,0,129.6H0a8.51,8.51,0,0,1,8.49-8.49H38.73a8.51,8.51,0,0,1,8.49,8.49h0A8.51,8.51,0,0,1,38.73,138.09Z"/><text class="cls-27" transform="translate(10.15 131.65)"><tspan class="cls-28">R</tspan><tspan class="cls-29" x="3.27" y="0">ead </tspan><tspan class="cls-30" x="13.89" y="0">M</tspan><tspan class="cls-31" x="18.79" y="0">o</tspan><tspan class="cls-32" x="22.1" y="0">r</tspan><tspan x="24.01" y="0">e</tspan></text></g></g></svg>