<svg xmlns="http://www.w3.org/2000/svg" viewBox="0 0 620.45 375.53"><defs><style>.cls-1{fill:#fff;}.cls-2{opacity:0.4;}.cls-3{fill:#b6e2f9;}</style></defs><title>Asset 7</title><g id="Layer_2" data-name="Layer 2"><g id="OBJECTS"><rect class="cls-1" width="620.45" height="375.53"/><g class="cls-2"><polygon class="cls-3" points="620.45 65.97 620.45 0 114.17 0 620.45 65.97"/><polygon class="cls-3" points="0 19 0 33.06 142.18 375.53 206.4 375.53 0 19"/><polygon class="cls-3" points="84.58 375.53 0 59.68 0 139.22 30.94 375.53 84.58 375.53"/><polygon class="cls-3" points="45.8 0 23.01 0 620.45 247.67 620.45 153.52 45.8 0"/><polygon class="cls-3" points="620.45 352.58 10.96 0 2.99 0 491.7 375.53 620.45 375.53 620.45 352.58"/><polygon class="cls-3" points="0 2.95 0 9.78 281.18 375.53 372.65 375.53 0 2.95"/></g></g></g></svg>