<svg xmlns="http://www.w3.org/2000/svg" viewBox="0 0 562.81 14.74"><defs><style>.cls-1,.cls-4{font-size:7px;font-family:Lato-Medium, Lato Medium;font-weight:500;}.cls-1,.cls-4,.cls-7{fill:#2c3349;}.cls-2{letter-spacing:-0.04em;}.cls-3{letter-spacing:0em;}.cls-4{letter-spacing:-0.08em;}.cls-5{letter-spacing:-0.02em;}.cls-6{fill:#c45858;}.cls-7{font-size:9px;font-family:Lato-Heavy, Lato Heavy;font-weight:800;}.cls-8{letter-spacing:-0.04em;}</style></defs><title>Asset 6</title><g id="Layer_2" data-name="Layer 2"><g id="OBJECTS"><text class="cls-1" transform="translate(344.16 10.05)">HOME</text><text class="cls-1" transform="translate(415.31 10.05)">ABOUT US</text><text class="cls-1" transform="translate(493.94 10.05)">B<tspan class="cls-2" x="3.79" y="0">L</tspan><tspan class="cls-3" x="6.82" y="0">OG</tspan></text><text class="cls-4" transform="translate(550.95 10.05)">F<tspan class="cls-5" x="2.86" y="0">A</tspan><tspan class="cls-3" x="7.04" y="0">Q</tspan></text><path class="cls-6" d="M366.53,14.74h-26a.84.84,0,0,1-.84-.83h0a.84.84,0,0,1,.84-.83h26a.83.83,0,0,1,.83.83h0A.83.83,0,0,1,366.53,14.74Z"/><text class="cls-7" transform="translate(21.03 10.05)"><tspan class="cls-8">L</tspan><tspan x="3.9" y="0">OGOSITE</tspan></text><path class="cls-6" d="M7.1,14.2a7.1,7.1,0,1,1,7.1-7.1A7.11,7.11,0,0,1,7.1,14.2Zm0-13A5.87,5.87,0,1,0,13,7.1,5.87,5.87,0,0,0,7.1,1.24Z"/><rect class="cls-6" x="6.48" y="0.62" width="1.24" height="12.97"/><path class="cls-6" d="M3.76,13.21A16.84,16.84,0,0,1,3.74,1l1.16.43a15.87,15.87,0,0,0,0,11.23Z"/><path class="cls-6" d="M10.46,13.21l-1.13-.52a15.87,15.87,0,0,0,0-11.23L10.47,1A16.81,16.81,0,0,1,10.46,13.21Z"/></g></g></svg>