<svg xmlns="http://www.w3.org/2000/svg" xmlns:xlink="http://www.w3.org/1999/xlink" viewBox="0 0 620.45 91.53"><defs><style>.cls-1{isolation:isolate;}.cls-2{fill:#81b2d3;}.cls-3{fill:#a0daf9;}.cls-4{fill:#b6e2f9;}.cls-5{opacity:0.2;mix-blend-mode:multiply;fill:url(#Degradado_sin_nombre_42);}.cls-6{fill:#75a3c9;}.cls-7{fill:#e8d39e;}</style><linearGradient id="Degradado_sin_nombre_42" x1="310.22" y1="91.53" x2="310.22" y2="5.14" gradientUnits="userSpaceOnUse"><stop offset="0" stop-color="#fff" stop-opacity="0"/><stop offset="1" stop-color="#593e6b"/></linearGradient></defs><title>Asset 4</title><g class="cls-1"><g id="Layer_2" data-name="Layer 2"><g id="OBJECTS"><rect class="cls-2" y="7" width="620.45" height="84.08"/><path class="cls-3" d="M320.29,62.79c-115.51,0-158-13.28-103.81-23.76,42.77-8.27,166.28-25.23-10.35-32H0V91.08H361.77C427.06,91.08,486.4,62.79,320.29,62.79Z"/><path class="cls-4" d="M134.27,62.79C18.76,62.79-23.76,49.51,30.46,39,73.23,30.76,196.74,13.8,20.11,7H0V91.08H175.75C241,91.08,300.38,62.79,134.27,62.79Z"/><path class="cls-5" d="M620.43,25.38V90.64C596.82,95.93,552.77,76,552.77,76c-53,22.56-123-20.33-150.79-40-12.32,1.19-26.45.17-40.05-1.8-6,1.37-12.79,2.8-20.18,4.17-17.37,3.22-52.23-2.71-85.11-9.78-9.25,1.46-18.6,3-26.83,4.39-30.22,5.19-75.26-11.79-126.22-11.79H0V5.14H620.45V25.38Z"/><path class="cls-6" d="M582.24,22.21H427.15A1.24,1.24,0,0,1,425.92,21h0a1.24,1.24,0,0,1,1.23-1.24H582.24A1.25,1.25,0,0,1,583.48,21h0A1.24,1.24,0,0,1,582.24,22.21Z"/><path class="cls-6" d="M503.54,75.3H442.82a1.24,1.24,0,0,1-1.23-1.23h0a1.24,1.24,0,0,1,1.23-1.23h60.72a1.23,1.23,0,0,1,1.23,1.23h0A1.23,1.23,0,0,1,503.54,75.3Z"/><path class="cls-6" d="M295.69,50.15H235a1.23,1.23,0,0,1-1.23-1.23h0A1.23,1.23,0,0,1,235,47.69h60.71a1.23,1.23,0,0,1,1.23,1.23h0A1.23,1.23,0,0,1,295.69,50.15Z"/><path class="cls-6" d="M604.43,39.14H543.72a1.24,1.24,0,0,1-1.23-1.23h0a1.24,1.24,0,0,1,1.23-1.24h60.71a1.24,1.24,0,0,1,1.23,1.24h0A1.24,1.24,0,0,1,604.43,39.14Z"/><path class="cls-6" d="M380.36,22.21H319.64A1.24,1.24,0,0,1,318.41,21h0a1.24,1.24,0,0,1,1.23-1.24h60.72A1.24,1.24,0,0,1,381.59,21h0A1.24,1.24,0,0,1,380.36,22.21Z"/><path class="cls-6" d="M606.06,75.3H545.34a1.24,1.24,0,0,1-1.23-1.23h0a1.24,1.24,0,0,1,1.23-1.23h60.72a1.24,1.24,0,0,1,1.23,1.23h0A1.24,1.24,0,0,1,606.06,75.3Z"/><path class="cls-6" d="M471.25,37.91H316.16a1.24,1.24,0,0,1-1.23-1.24h0a1.24,1.24,0,0,1,1.23-1.23H471.25a1.24,1.24,0,0,1,1.24,1.23h0A1.25,1.25,0,0,1,471.25,37.91Z"/><path class="cls-6" d="M616.83,51.39H498.76a1.24,1.24,0,0,1-1.23-1.24h0a1.24,1.24,0,0,1,1.23-1.23H616.83a1.24,1.24,0,0,1,1.23,1.23h0A1.24,1.24,0,0,1,616.83,51.39Z"/><polygon class="cls-7" points="620.45 7.02 620.45 0 211.88 7.02 620.45 7.02"/></g></g></g></svg>