<svg xmlns="http://www.w3.org/2000/svg" viewBox="0 0 296.75 256.42"><defs><style>.cls-1{fill:#c45858;}.cls-2{fill:#8c5868;}.cls-3{fill:#f29b7b;}.cls-4{fill:#77515f;}.cls-5{fill:#3a3e49;}.cls-6{fill:#d2f1ff;}.cls-7{fill:#ffd599;}</style></defs><title>Asset 2</title><g id="Layer_2" data-name="Layer 2"><g id="OBJECTS"><rect class="cls-1" x="26.06" y="50.93" width="244.64" height="18.08"/><rect class="cls-1" x="127.96" y="28.53" width="40.84" height="26.3"/><rect class="cls-2" x="127.96" y="28.53" width="40.84" height="7.22"/><polygon class="cls-3" points="26.06 50.93 270.7 50.93 26.06 55.25 26.06 50.93"/><polygon class="cls-2" points="75.81 50.93 99.93 50.93 99.93 44.33 75.81 50.93"/><polygon class="cls-1" points="51.69 50.93 75.81 50.93 51.69 44.33 51.69 50.93"/><rect class="cls-2" x="26.06" y="63.37" width="244.64" height="5.64"/><rect class="cls-4" x="26.06" y="66.74" width="244.64" height="2.27"/><polygon class="cls-2" points="220.42 50.93 244.54 50.93 244.54 44.33 220.42 50.93"/><polygon class="cls-1" points="196.3 50.93 220.42 50.93 196.3 44.33 196.3 50.93"/><rect class="cls-1" x="-35.3" y="111.35" width="222.58" height="25.31" transform="translate(199.99 48.02) rotate(90)"/><rect class="cls-3" x="-46.47" y="122.52" width="222.58" height="2.98" transform="translate(188.83 59.19) rotate(90)"/><rect class="cls-2" x="-30.62" y="119.15" width="222.58" height="9.71" transform="translate(204.68 43.34) rotate(90)"/><rect class="cls-1" x="59.22" y="170.58" width="84.23" height="12.77" transform="translate(278.3 75.63) rotate(90)"/><rect class="cls-3" x="53.58" y="176.21" width="84.23" height="1.5" transform="translate(272.66 81.27) rotate(90)"/><rect class="cls-2" x="62.37" y="173.73" width="84.23" height="6.47" transform="translate(281.44 72.49) rotate(90)"/><rect class="cls-5" x="92.51" y="132.11" width="17.64" height="6.55"/><rect class="cls-1" x="-16.04" y="182.6" width="126.53" height="16.36" transform="translate(238.01 143.55) rotate(90)"/><rect class="cls-3" x="-23.25" y="189.82" width="126.53" height="1.93" transform="translate(230.8 150.77) rotate(90)"/><rect class="cls-2" x="-12" y="186.64" width="126.53" height="8.29" transform="translate(242.05 139.52) rotate(90)"/><rect class="cls-5" x="35.56" y="123.43" width="22.78" height="8.46"/><path class="cls-6" d="M56.75,256.42H37.49a2.38,2.38,0,0,1-2.37-2.37h0a2.37,2.37,0,0,1,2.37-2.37H56.75a2.38,2.38,0,0,1,2.37,2.37h0A2.38,2.38,0,0,1,56.75,256.42Z"/><path class="cls-6" d="M108.88,221.45H93.6a2.38,2.38,0,0,1-2.37-2.37h0a2.38,2.38,0,0,1,2.37-2.37h15.28a2.38,2.38,0,0,1,2.37,2.37h0A2.38,2.38,0,0,1,108.88,221.45Z"/><path class="cls-6" d="M90.84,237.67H60.78a2.38,2.38,0,0,1-2.37-2.37h0a2.38,2.38,0,0,1,2.37-2.37H90.84a2.38,2.38,0,0,1,2.37,2.37h0A2.38,2.38,0,0,1,90.84,237.67Z"/><polygon class="cls-2" points="51.26 151.17 104.48 150.5 104.48 159.73 51.26 166.59 51.26 151.17"/><polygon class="cls-2" points="51.26 209.03 104.48 184.94 104.48 194.16 51.26 224.45 51.26 209.03"/><polygon class="cls-1" points="101.42 150.53 51.26 151 51.26 153.94 101.42 150.53"/><polygon class="cls-1" points="101.33 186.1 51.26 208.65 51.26 211.59 101.33 186.1"/><rect class="cls-1" x="108.29" y="111.35" width="222.58" height="25.31" transform="translate(343.59 -95.57) rotate(90)"/><rect class="cls-3" x="97.13" y="122.52" width="222.58" height="2.98" transform="translate(332.42 -84.41) rotate(90)"/><rect class="cls-2" x="112.97" y="119.15" width="222.58" height="9.71" transform="translate(348.27 -100.25) rotate(90)"/><rect class="cls-1" x="151.89" y="170.58" width="84.23" height="12.77" transform="translate(370.97 -17.04) rotate(90)"/><rect class="cls-3" x="146.26" y="176.21" width="84.23" height="1.5" transform="translate(365.34 -11.41) rotate(90)"/><rect class="cls-2" x="155.04" y="173.73" width="84.23" height="6.47" transform="translate(374.12 -20.19) rotate(90)"/><rect class="cls-5" x="185.18" y="132.11" width="17.64" height="6.55" transform="translate(388.01 270.78) rotate(180)"/><rect class="cls-1" x="184.84" y="182.6" width="126.53" height="16.36" transform="translate(438.89 -57.32) rotate(90)"/><rect class="cls-3" x="177.62" y="189.82" width="126.53" height="1.93" transform="translate(431.67 -50.1) rotate(90)"/><rect class="cls-2" x="188.88" y="186.64" width="126.53" height="8.29" transform="translate(442.92 -61.36) rotate(90)"/><rect class="cls-5" x="237" y="123.43" width="22.78" height="8.46" transform="translate(496.77 255.32) rotate(180)"/><path class="cls-6" d="M238.59,256.42h19.26a2.38,2.38,0,0,0,2.37-2.37h0a2.38,2.38,0,0,0-2.37-2.37H238.59a2.37,2.37,0,0,0-2.37,2.37h0A2.38,2.38,0,0,0,238.59,256.42Z"/><path class="cls-6" d="M186.45,221.45h15.28a2.38,2.38,0,0,0,2.37-2.37h0a2.38,2.38,0,0,0-2.37-2.37H186.45a2.38,2.38,0,0,0-2.37,2.37h0A2.38,2.38,0,0,0,186.45,221.45Z"/><path class="cls-6" d="M234.43,237.67H204.38A2.38,2.38,0,0,1,202,235.3h0a2.37,2.37,0,0,1,2.37-2.37h30.05a2.37,2.37,0,0,1,2.37,2.37h0A2.38,2.38,0,0,1,234.43,237.67Z"/><polygon class="cls-1" points="244.07 151.17 190.85 150.5 190.85 159.73 244.07 166.59 244.07 151.17"/><polygon class="cls-1" points="244.07 209.03 190.85 184.94 190.85 194.16 244.07 224.45 244.07 209.03"/><polygon class="cls-3" points="193.92 150.53 244.07 151 244.07 153.94 193.92 150.53"/><polygon class="cls-3" points="194 186.1 244.07 208.65 244.07 211.59 194 186.1"/><path class="cls-1" d="M147.5,15.22C62.8,15.22,12.06,9.8,12.06,9.8L22.71,31.27H272.3L283,9.8S232.2,15.22,147.5,15.22Z"/><path class="cls-2" d="M147.5,20c73.8,0,121.82-4.11,133-5.17l2.5-5S232.2,15.22,147.5,15.22,12.06,9.8,12.06,9.8l2.49,5C25.69,15.88,73.7,20,147.5,20Z"/><path class="cls-5" d="M208,6.33H88.76C54.87,6.33,0,0,0,0L9.44,9.8s36.41,5.41,138.94,5.41S287.32,9.8,287.32,9.8L296.75,0S241.88,6.33,208,6.33Z"/><polygon class="cls-3" points="12.06 9.8 22.71 31.27 203.85 31.27 27.37 28.53 12.06 9.8"/><rect class="cls-3" x="203.77" y="27.81" width="32.9" height="6.09"/><rect class="cls-4" x="203.77" y="32.59" width="32.9" height="1.31"/><rect class="cls-3" x="134.5" y="39.85" width="26" height="40.23"/><polygon class="cls-7" points="134.5 39.85 134.5 80.08 160.5 80.08 136.28 78.29 134.5 39.85"/><rect class="cls-3" x="59.36" y="27.81" width="32.9" height="6.09"/><rect class="cls-4" x="59.36" y="32.59" width="32.9" height="1.31"/></g></g></svg>