<svg xmlns="http://www.w3.org/2000/svg" viewBox="0 0 620.45 116.2"><defs><style>.cls-1,.cls-3,.cls-4{fill:#b6e2f9;}.cls-1,.cls-2{opacity:0.5;}.cls-4{opacity:0.72;}.cls-5{fill:#376b77;}.cls-6{fill:#4c8993;}.cls-7{fill:#2b896a;}.cls-8{fill:#399976;}.cls-9{fill:#40a876;}.cls-10{fill:#2eaf71;}</style></defs><title>Asset 5</title><g id="Layer_2" data-name="Layer 2"><g id="OBJECTS"><path class="cls-1" d="M505,70.43c-8.33-6.93-104.43-19.6-111.32-23.08s-12.22,4.2-34.52,4.92-88-13.13-95.86-14.87,8.92,4.35,33.13,14.36,10.24-.09,32.81,6.5,5.37,7.28-6.65,8.91S412,91,412,91l118-2.62S513.27,77.36,505,70.43Z"/><path class="cls-1" d="M273.24,71.59S189.39,43.06,192.06,43.4,222,53.07,225.87,53s-3.44-4.86,5.78-2.6,81.44,23.16,77.22,25-19-1.78-14.89,0,16.56,8.33,7.89,6.22S249.09,70.18,253,69.74,280.17,76.44,273.24,71.59Z"/><g class="cls-2"><path class="cls-3" d="M154.08,101H0V54.07s26.86,2.4,30.27,4.8,4,5.8,17,7.7,28,5,27.77,5.68S71.91,73,60.81,72s-14.89-2.27-17.29-1.64l-2.4.63s7.32,1.77-7.7.89-15.78.63-13,2.14,36.1,7.45,41.27,8.46,5.43,3.79,8.21,3.91l2.77.13s6.31-1.26,3.41-3-4.67-3.28-.51-3S114.5,87.64,113.09,89s-14.8-.63-19-1-5.3,1.26-3.41,2.27S119,96.6,123.16,96s1.89-3.66,8-1.76,11.48,2,10,3-6.44,1.38,2.27,1.64S154.08,101,154.08,101Z"/><path class="cls-4" d="M0,47.45s34.34,10.6,34.24,9.08-5.39-2.08-7-3.59,2.68-3.25,7.32-.13,3.28,5.62,13.88,9.4S100.79,74,106.37,75.75s31.14,5.2,27.55,4.45S114,75.37,110.25,73.38s1-1.61.1-2.74-12-3.6-26.6-9.18S67.94,57.2,68.32,54.73s-10.64-6-12.06-6.84S44.56,39.49,44,40.44s1.2,3.41-3.25,2.65-6.78-.86-8.11-2.75,2.46-1.41-8.42-3.4S0,27.57,0,27.57Z"/><path class="cls-3" d="M131,88.15c3.22,2.18,29.25,9.46,33.23,10.13s6.15,1.54.31-1-13.63-3.48-15.05-4.42.47-.76-.57-1.89-10.28-4.74-12.68-5.53-3,1.33-3.35,1.33a6.07,6.07,0,0,1-3.06-.44C127.57,85.59,126.46,86.25,131,88.15Z"/></g><path class="cls-5" d="M0,94.26H103.59c51,0,96-22.84,126.22-15.87s75.52,15.87,75.52,15.87S364.92,68.34,404,74.63,620.45,88.7,620.45,88.7v27.22H0Z"/><path class="cls-6" d="M103.59,94.26H0v1.61c16.9.35,118,2.39,131.59-.06,14.89-2.66,74.44-20.35,94.33-15.5s79.41,14,79.41,14S260,85.37,229.81,78.39,154.55,94.26,103.59,94.26Z"/><path class="cls-7" d="M0,107.87s164.35,5.63,200.93-5.93S313.24,64.31,341.75,71.42a358.49,358.49,0,0,1,48.06,15.41s95.29-104.7,163-66c0,0,44.05-26.76,67.66-19.65v115H0Z"/><path class="cls-8" d="M512.92,100c44.46-.78,8.56-68.67,22.15-86.35C469.65-1.15,389.81,86.55,389.81,86.55S461.81,100.92,512.92,100Z"/><path class="cls-9" d="M200.93,101.94C164.35,113.5,0,107.87,0,107.87v1.39c11,.28,64.79,1.57,117.51,1.57,59.12,0,74.67-1,99-9.55S308.87,70.2,333.56,73.93s56.25,12.9,56.25,12.9a358.49,358.49,0,0,0-48.06-15.41C313.24,64.31,237.51,90.39,200.93,101.94Z"/><path class="cls-10" d="M362.61,115.92S430.11,83.59,484,86.55s90.87-77,136.4-77v106.4Z"/><path class="cls-8" d="M620.43,115.92V37c-38.26,2.53-54,33.41-54,33.41-12.15-8.14-19,5.76-19,5.76-8-2.37-13.33,13.63-13.33,13.63-3.26-2.37-6.82,1.19-6.82,1.19-14.81-10.08-53.92,11.7-53.92,11.7-8.42-2.32-24.05,6.55-44.41,13.22Z"/><path class="cls-10" d="M453,74.06a1.45,1.45,0,0,0-.53-.61,1.18,1.18,0,0,0-.47-.17,2.54,2.54,0,0,0-.58,0c-.08,0,0-.07-.26,0s-.33,0-.38,0,0,.11,0-.07,0,0,0-.17-.2-.35-.32-.46l-.36-.15c-.64-.31-.67-.28-.92-.41s.46.18-.69-.48a8.68,8.68,0,0,0-1.65-.9c-.13,0-.05,0-.25,0a1.42,1.42,0,0,0-.38.18,5.25,5.25,0,0,1-1-.07c-.05-.08,0,.1-.21-.13a19.1,19.1,0,0,0-1.67-1.25,2.75,2.75,0,0,0-.56-.35c-.33-.16-.39-.23-1-.51s-.66-.38-1.14-.54-.49-.33-.9-.33a4.27,4.27,0,0,0-1,0c-.18.08-.28.05-.33.13v0l0,.06c-.16.23.27.12-.36.33s-.44.28-.63.2a9.27,9.27,0,0,0-1.81.79c-.43.25-.56.25-.61.36a1,1,0,0,0-.05.4c0,.13.15.31.18.38l.07.23v.18c0,.1.08.1,0,.26l-.11.15-.2,0-.43-.08c-.28,0-.48-.1-.74,0l-.25.16c-.13.07-.64.48-.64.48s-.2.13-.2.23,0,.25,0,.33-.15-.15-.08.28l.08.43,0,.13a1.24,1.24,0,0,1-.23.15l-.1,0a.5.5,0,0,1-.18.05c-.07,0-.15.18-.35-.05s-.08-.2-.2-.23l-.39-.05-.53.08a1.27,1.27,0,0,0-.38.2c-.21.15-.18,0-.21.15s-.05.49-.05.49a.2.2,0,0,1-.17.15l-.54.08-.46.17-.35.16s0,0-.1.12-.21,0-.29.23a1,1,0,0,0,0,.5,1.32,1.32,0,0,0,.39.89,1.25,1.25,0,0,0,.61.28,2.67,2.67,0,0,0,.4,0,.4.4,0,0,0,.27-.12c.07,0,.16-.18.24-.23s.15-.14.27-.14a.55.55,0,0,1,.24.07.15.15,0,0,0,0,.12s.07.08,0,.18-.1.19-.08.24.12.12.12.16.1.11.1.11a.93.93,0,0,0,.22.1l.28.11h.14a.45.45,0,0,1,.24,0c.08,0,.3,0,.34.11s.12.23.12.29a.63.63,0,0,0,.08.29,1.48,1.48,0,0,0,.41.29c.05,0,0-.05.29,0l.42.08c.05,0,.15.16.25,0a1.21,1.21,0,0,1,.26-.28c.08-.07.17-.1.2-.24s-.12-.46,0-.53a1.38,1.38,0,0,1,.31-.12c.08,0,.12,0,.17,0s.13,0,.18.07a.46.46,0,0,0,.16.15.72.72,0,0,0,.13.24.89.89,0,0,0,.24.17c.07,0-.09.16.42.17s.39.21.61.09a1.34,1.34,0,0,1,.32-.14s-.47-.15.09,0,.53.09.71.16.63,0,.69.07,0,.23.19.11h0a2.6,2.6,0,0,0,.6.27c.27.07.2.09.37.16a3.91,3.91,0,0,1,.61.29.81.81,0,0,1,.25.27c.06.08.26.12.38.17s.27.08.32.11.46.17.56.21a2,2,0,0,1,.37.2c.14.09.07.12.12.36s.1.34,0,.42-.05.25,0,.41a2.9,2.9,0,0,0-.41.13c-.15.11-.44,0-.45.26a1.94,1.94,0,0,0,.25.76s.35,0,0,.31a3.83,3.83,0,0,1-.66.45l-.26.31a1.78,1.78,0,0,1-.2.32c-.05,0,.3.24,0,.39s-.41.21-.41.41v.44l.31.52v.32a1.35,1.35,0,0,0,.4.32.85.85,0,0,1,.36.23,5.14,5.14,0,0,0,.56.45s.1-.21.41,0,.61,0,.71.32l.25.73.31.48c.2.46.2.66.35.77s.84.44.84.44v.21a.45.45,0,0,0,0,.33c.08.19.18.45.33.5s4.12.23,4.12.23c0-.19.63-.73.22-.81s-1-.63-1.18-.64a10.85,10.85,0,0,1-1.38-.49c-.15-.08,0,0-.35-.28s-.61-.57-.61-.57-.92-1.25-1.07-1.38-.41.18-.51-.29.15-.45-.25-.55-.21.31-.67,0-.71-.07-.86-.32a2.29,2.29,0,0,0-.46-.52c-.1-.09-.91.12-.35-.39s.25-.31.56-.51l.3-.2s.15-.05.15-.46-.2-.56-.15-.71l.05-.16.51-.25a5.83,5.83,0,0,0,.71-.41,2.69,2.69,0,0,0,.31-.25,7,7,0,0,0,.61-.61l.61-.92a.86.86,0,0,0,0-.45,2.77,2.77,0,0,0-.13-.45l.15-.06c.06,0,.13,0,.2,0s.21-.1.3-.16.12-.12.2-.14a1.12,1.12,0,0,0,.29-.12,2.07,2.07,0,0,0,.34-.27,1,1,0,0,0,.26-.37c0-.15,0-.23.1-.3s.1-.13.16-.2h0a4.14,4.14,0,0,0,.47.22A8.7,8.7,0,0,0,448,77.5c.1,0,.4,0,.45-.1a.59.59,0,0,1,.23-.34c.18-.12.38,0,.44-.21s-.06-.5.12-.4a5.76,5.76,0,0,0,.74.4c.08,0,.53.29.74.21s.51.08.61,0,.4-.22.56-.35.28,0,.38-.26,0-.35.13-.5a1.48,1.48,0,0,1,.37-.55c.13-.06.23-.42.27-.6A1.43,1.43,0,0,0,453,74.06Zm-9.21,5.5a3.75,3.75,0,0,1-.62.61c-.25.2.16-.1-.25.2l-.15.11s-.07-.11-.07-.11l-.08,0a2.54,2.54,0,0,1-.34-.17c-.11-.07,0,0-.12-.14l-.09-.1a.79.79,0,0,0,0-.31.93.93,0,0,0-.15-.25c-.1-.12-.22,0-.36-.11s-.23,0-.42,0-.42-.14-.47-.14a2.27,2.27,0,0,1-.51-.17,1.38,1.38,0,0,1-.46-.39,2.27,2.27,0,0,0-.37-.41,1.78,1.78,0,0,0-.26-.1c-.13,0-.13,0-.25,0a.89.89,0,0,1-.26-.09.23.23,0,0,0,.12-.08,4.68,4.68,0,0,1,.27-.44,4,4,0,0,0,.38-.36c.1-.15.39-.32.5-.45a1,1,0,0,1,.45-.38c.27-.11.67-.3.79-.32s.29,0,.46,0,.27-.24.46,0a4.46,4.46,0,0,0,.29.37s0,.25.2.18l.25-.06.22-.07c.06,0,.14-.22.24-.15a.34.34,0,0,1,.15.18c0,.07.06,0,.09.1a.55.55,0,0,0,.19.4l.14.08-.08.13a.66.66,0,0,0-.2.56,4.26,4.26,0,0,0,0,1.17,2.13,2.13,0,0,1,.26.61C443.79,79.56,444.14,79.15,443.79,79.56Zm2.31-2.28c0,.06-.09.18-.12.22s0,.07-.13.13l-.28.16c-.06,0-.22.42-.36.47l-.21.08c-.07,0-.09.06-.12.06h-.15a.45.45,0,0,1-.16,0s.18.08-.07,0a1.06,1.06,0,0,1-.2-.1l.2-.73,0-.64.11,0H445a.82.82,0,0,0,.2-.23.63.63,0,0,1,.12-.23c.05-.07.18-.11.2-.17a1,1,0,0,0,0-.34.86.86,0,0,1,0-.24s-.06-.08.13,0,.25,0,.29.19a1.52,1.52,0,0,1,0,.37c0,.17,0,.49,0,.49s-.1-.06,0,.18a.8.8,0,0,0,.22.34Z"/><path class="cls-10" d="M450.27,72.44l.11.1C450.44,72.55,450.27,72.44,450.27,72.44Z"/></g></g></svg>