<svg xmlns="http://www.w3.org/2000/svg" viewBox="0 0 553.43 314.75"><defs><style>.cls-1{fill:#fff9ff;}.cls-2{font-size:12px;font-family:MyriadPro-Regular, Myriad Pro;}.cls-3{letter-spacing:-0.01em;}.cls-4{letter-spacing:-0.01em;}.cls-5{letter-spacing:0em;}</style></defs><title>DESIGNED BY FREEPIK</title><g id="Layer_2" data-name="Layer 2"><g id="DESIGNED_BY_FREEPIK" data-name="DESIGNED BY FREEPIK"><path class="cls-1" d="M492.41,301.91a7,7,0,0,0-1.11,1.45l-.47-.24a.6.6,0,1,0-.52.73l.19-.05.45.23a7.56,7.56,0,0,0-.54,1.75l.75.13a6.63,6.63,0,0,1,1.79-3.48Z"/><path class="cls-1" d="M497.89,299.6l-.51,0-.07-.63a.71.71,0,0,0,.27-.64.72.72,0,1,0-1.43.17.71.71,0,0,0,.41.56l.07.62a8,8,0,0,0-2.06.65l.33.68a7,7,0,0,1,3-.67,6.64,6.64,0,0,1,1.48.16l.16-.74A7.56,7.56,0,0,0,497.89,299.6Z"/><path class="cls-1" d="M504.5,302.15a.6.6,0,0,0,.52-.67.6.6,0,0,0-1.2.08l-.42.36a7.36,7.36,0,0,0-1.41-1.13l-.4.64a6.7,6.7,0,0,1,2.56,2.92l.69-.31a7.2,7.2,0,0,0-.94-1.55l.4-.35A.45.45,0,0,0,504.5,302.15Z"/><path class="cls-1" d="M497.35,309.81c-.39,0-.78,0-1.16,0a16,16,0,0,1-2.48-.18,8,8,0,0,1-1.27-.3A6.19,6.19,0,0,0,503.78,308a9.83,9.83,0,0,1-2.46,1.12A16.69,16.69,0,0,1,497.35,309.81Z"/><path class="cls-1" d="M497.89,301.12a6,6,0,0,0-6.08,5.94,5.86,5.86,0,0,0,.14,1.26c.67.49,2.71.89,5.35.73A11.48,11.48,0,0,0,504,306.9a5.87,5.87,0,0,0-.05-.59A6,6,0,0,0,497.89,301.12Zm-2.16,6.51a1.85,1.85,0,1,1,1.85-1.85A1.85,1.85,0,0,1,495.73,307.63Zm4.74-.9a1.36,1.36,0,1,1,1.36-1.36A1.36,1.36,0,0,1,500.47,306.73Z"/><path class="cls-1" d="M513.9,303a2.82,2.82,0,0,0-1.39-.24c-.55.07-.84.34-.84,1v.86h2.23v1.72h-2.23v5.45h-1.93v-5.45H508.4v-1.72h1.34v-.89a2.46,2.46,0,0,1,2.57-2.78,3.91,3.91,0,0,1,1.59.31Z"/><path class="cls-1" d="M518.6,306.32a3.27,3.27,0,0,0-.53-.05,1.44,1.44,0,0,0-1.51,1.62v3.9h-1.93v-7.17h1.87v.79a2.26,2.26,0,0,1,2-1,1.8,1.8,0,0,1,1.1.34Z"/><path class="cls-1" d="M526.27,308.2a6,6,0,0,1,0,.65h-5.09a1.75,1.75,0,0,0,1.85,1.49,2.94,2.94,0,0,0,1.81-.69l1.13,1.24a4.33,4.33,0,0,1-3,1.09,3.78,3.78,0,0,1-.1-7.55A3.47,3.47,0,0,1,526.27,308.2Zm-5.12-.67h3.18a1.6,1.6,0,0,0-3.18,0Z"/><path class="cls-1" d="M533.92,308.2a6,6,0,0,1,0,.65H528.8a1.73,1.73,0,0,0,1.84,1.49,2.92,2.92,0,0,0,1.81-.69l1.14,1.24a4.35,4.35,0,0,1-3.06,1.09,3.78,3.78,0,0,1-.1-7.55A3.47,3.47,0,0,1,533.92,308.2Zm-5.11-.67H532a1.59,1.59,0,0,0-3.17,0Z"/><path class="cls-1" d="M542.27,308.2a3.56,3.56,0,0,1-3.48,3.78,2.65,2.65,0,0,1-2.11-.93v3.7h-1.92V304.62h1.89v.79a2.6,2.6,0,0,1,2.14-1A3.56,3.56,0,0,1,542.27,308.2Zm-5.68,0a1.85,1.85,0,1,0,1.84-2A1.84,1.84,0,0,0,536.59,308.2Z"/><path class="cls-1" d="M545.37,302.28a1.24,1.24,0,0,1-2.47,0,1.24,1.24,0,1,1,2.47,0Zm-.26,9.51h-1.93v-7.17h1.93Z"/><path class="cls-1" d="M548.33,307.18l2.7-2.56h2.37L549.92,308l3.51,3.79h-2.38l-2.72-2.9v2.9H546.4V301.14h1.93Z"/><path class="cls-1" d="M416.71,311.73v-1.06a3,3,0,0,1-2.38,1.23c-1.85,0-3.15-1.4-3.15-3.7s1.29-3.72,3.15-3.72a3,3,0,0,1,2.38,1.24V302h1.1v9.77Zm0-1.92V306.6a2.65,2.65,0,0,0-2.12-1.14c-1.42,0-2.27,1.17-2.27,2.74s.85,2.72,2.27,2.72A2.6,2.6,0,0,0,416.71,309.81Z"/><path class="cls-1" d="M419.23,308.18a3.54,3.54,0,0,1,3.49-3.7c2.14,0,3.4,1.67,3.4,3.79v.28h-5.73a2.5,2.5,0,0,0,2.55,2.45,3.11,3.11,0,0,0,2.18-.9l.53.72a3.85,3.85,0,0,1-2.81,1.08A3.51,3.51,0,0,1,419.23,308.18Zm3.47-2.79a2.36,2.36,0,0,0-2.31,2.35H425A2.28,2.28,0,0,0,422.7,305.39Z"/><path class="cls-1" d="M426.91,310.79l.57-.79a3.21,3.21,0,0,0,2.33,1c1.08,0,1.67-.51,1.67-1.21,0-1.72-4.38-.66-4.38-3.29,0-1.09.95-2,2.63-2a3.59,3.59,0,0,1,2.63,1l-.52.77a2.73,2.73,0,0,0-2.11-.9c-1,0-1.56.48-1.56,1.11,0,1.56,4.38.53,4.38,3.29,0,1.18-.95,2.13-2.79,2.13A3.77,3.77,0,0,1,426.91,310.79Z"/><path class="cls-1" d="M433.78,302.91a.74.74,0,0,1,.73-.75.76.76,0,0,1,.75.75.74.74,0,0,1-.75.73A.73.73,0,0,1,433.78,302.91Zm.19,8.82v-7.08h1.1v7.08Z"/><path class="cls-1" d="M436.88,313.54l.56-.82a2.69,2.69,0,0,0,2.3,1,2,2,0,0,0,2.27-2.12v-1a3,3,0,0,1-2.37,1.26c-1.85,0-3.15-1.38-3.15-3.67s1.29-3.67,3.15-3.67a2.94,2.94,0,0,1,2.37,1.24v-1.07h1.1v6.87c0,2.35-1.64,3.08-3.37,3.08A3.6,3.6,0,0,1,436.88,313.54Zm5.13-3.85V306.6a2.62,2.62,0,0,0-2.11-1.14c-1.42,0-2.27,1.13-2.27,2.69s.85,2.7,2.27,2.7A2.61,2.61,0,0,0,442,309.69Z"/><path class="cls-1" d="M449.71,311.73V307.1c0-1.25-.63-1.64-1.58-1.64a2.73,2.73,0,0,0-2.09,1.1v5.17h-1.1v-7.08H446v1a3.49,3.49,0,0,1,2.52-1.2,2,2,0,0,1,2.25,2.28v5Z"/><path class="cls-1" d="M452.23,308.18a3.54,3.54,0,0,1,3.49-3.7c2.14,0,3.4,1.67,3.4,3.79v.28h-5.73a2.5,2.5,0,0,0,2.55,2.45,3.08,3.08,0,0,0,2.18-.9l.53.72a3.85,3.85,0,0,1-2.81,1.08A3.51,3.51,0,0,1,452.23,308.18Zm3.48-2.79a2.36,2.36,0,0,0-2.32,2.35H458A2.28,2.28,0,0,0,455.71,305.39Z"/><path class="cls-1" d="M465.65,311.73v-1.06a3,3,0,0,1-2.39,1.23c-1.84,0-3.15-1.4-3.15-3.7s1.29-3.72,3.15-3.72a3,3,0,0,1,2.39,1.24V302h1.1v9.77Zm0-1.92V306.6a2.65,2.65,0,0,0-2.12-1.14c-1.42,0-2.27,1.17-2.27,2.74s.85,2.72,2.27,2.72A2.6,2.6,0,0,0,465.65,309.81Z"/><path class="cls-1" d="M472,311.73V302h1.1v3.76a3,3,0,0,1,2.39-1.24c1.84,0,3.15,1.46,3.15,3.72s-1.31,3.7-3.15,3.7a3,3,0,0,1-2.39-1.23v1.06Zm3.21-.81c1.44,0,2.29-1.15,2.29-2.72s-.85-2.74-2.29-2.74a2.65,2.65,0,0,0-2.11,1.14v3.21A2.59,2.59,0,0,0,475.2,310.92Z"/><path class="cls-1" d="M479.83,313.5a1.73,1.73,0,0,0,.6.12,1,1,0,0,0,1.05-.75l.47-1.07-3-7.15h1.19l2.36,5.8,2.34-5.8h1.2l-3.54,8.51a2.1,2.1,0,0,1-2.08,1.44,3.52,3.52,0,0,1-.81-.1Z"/><text class="cls-2" transform="translate(0 10.04)"><tspan class="cls-3">L</tspan><tspan x="5.5" y="0">o</tspan><tspan class="cls-4" x="12.08" y="0">r</tspan><tspan class="cls-5" x="15.89" y="0">em ipsum</tspan></text></g></g></svg>