<svg xmlns="http://www.w3.org/2000/svg" viewBox="0 0 33.86 80"><defs><style>.cls-1{fill:#bc753d;}.cls-2{fill:#e8c18a;}.cls-3{fill:#fff;}.cls-4{fill:#7d461f;}.cls-5{fill:#ffb67f;}.cls-6{fill:#e35bb9;}.cls-7{fill:#c9419f;}.cls-8{fill:#2c231d;}.cls-9{opacity:0.2;}.cls-10{fill:#f0f0f0;}.cls-11{fill:#ccc;}.cls-12{fill:#f084ce;}.cls-13{fill:#f09ad5;}.cls-14{fill:#ffb3e7;}.cls-15{fill:#d645a9;}.cls-16{fill:#fdbc1b;}.cls-17{fill:#ffd500;}</style></defs><title>Asset 15</title><g id="Layer_2" data-name="Layer 2"><g id="Icons"><path class="cls-1" d="M20.72,79.49a2.44,2.44,0,0,1-2.54.26A27.29,27.29,0,0,1,15.75,78a.94.94,0,0,1-.25-1.12.8.8,0,0,0,.25.31,27.29,27.29,0,0,0,2.43,1.77,2.46,2.46,0,0,0,2.54-.26,1.07,1.07,0,0,0,.37-.52A1.21,1.21,0,0,1,20.72,79.49Z"/><path class="cls-2" d="M21.09,78.16a1.07,1.07,0,0,1-.37.52,2.46,2.46,0,0,1-2.54.26,27.29,27.29,0,0,1-2.43-1.77.8.8,0,0,1-.25-.31h0c.36-.93,1.71-.95,2.22-.95a11.73,11.73,0,0,1,3,1.77A1.09,1.09,0,0,1,21.09,78.16Z"/><path class="cls-3" d="M16.38,77.26a7.57,7.57,0,0,0,2.46,1.55c.52.16.82-.13.63-.35.37.09,1-.29.79-.78a3.66,3.66,0,0,0-1.93-1.4C17.67,76.11,15.85,76.42,16.38,77.26Z"/><path class="cls-4" d="M19.47,78.63h-.06a2.92,2.92,0,0,0-1.5-.25,2.65,2.65,0,0,1-.91-.05.16.16,0,0,1-.12-.2.16.16,0,0,1,.2-.12,2.26,2.26,0,0,0,.81,0,3.12,3.12,0,0,1,1.4.18,3.1,3.1,0,0,1,0-.72,1.26,1.26,0,0,0,0-.65.16.16,0,0,1,.08-.22.17.17,0,0,1,.22.08,1.43,1.43,0,0,1,0,.82,3.39,3.39,0,0,0,0,.91.15.15,0,0,1-.07.15A.13.13,0,0,1,19.47,78.63Z"/><path class="cls-1" d="M10.46,79.49a2.44,2.44,0,0,0,2.54.26A27.5,27.5,0,0,0,15.44,78a.93.93,0,0,0,.24-1.12.87.87,0,0,1-.24.31A27.5,27.5,0,0,1,13,78.94a2.46,2.46,0,0,1-2.54-.26,1.07,1.07,0,0,1-.37-.52A1.21,1.21,0,0,0,10.46,79.49Z"/><path class="cls-2" d="M10.09,78.16a1.07,1.07,0,0,0,.37.52,2.46,2.46,0,0,0,2.54.26,27.5,27.5,0,0,0,2.44-1.77.87.87,0,0,0,.24-.31h0c-.37-.93-1.72-.95-2.23-.95a11.73,11.73,0,0,0-3,1.77A1.09,1.09,0,0,0,10.09,78.16Z"/><path class="cls-3" d="M14.81,77.26a7.68,7.68,0,0,1-2.46,1.55c-.53.16-.82-.13-.64-.35-.36.09-1-.29-.78-.78a3.62,3.62,0,0,1,1.93-1.4C13.51,76.11,15.34,76.42,14.81,77.26Z"/><path class="cls-4" d="M11.71,78.63a.17.17,0,0,1-.16-.19,3.8,3.8,0,0,0,0-.91,1.43,1.43,0,0,1,.06-.82.16.16,0,0,1,.22-.08.17.17,0,0,1,.08.22,1.16,1.16,0,0,0,0,.65,4.84,4.84,0,0,1,0,.72A3.11,3.11,0,0,1,13.3,78a2.21,2.21,0,0,0,.8,0,.17.17,0,0,1,.21.12.17.17,0,0,1-.12.2,2.71,2.71,0,0,1-.92.05,3,3,0,0,0-1.5.25Z"/><path class="cls-5" d="M4.66,45.49A12.66,12.66,0,0,0,2.84,48a10.34,10.34,0,0,1-1.12,2.93c-.41.5-.73.13-.48-.16s.55-1.09.07-1.11S.93,52.43.49,52.41c-.79,0-.7-3,.82-4.87a7.1,7.1,0,0,0,1.53-2.29c.05-.14.14-.34.25-.57l.27-.54A5.67,5.67,0,0,0,5.09,45C5,45.16,4.8,45.32,4.66,45.49Z"/><path class="cls-6" d="M8.77,16.28c-1.45,1.4-2.13,13.35-2.44,16.31A24.53,24.53,0,0,1,3,41.7,41.13,41.13,0,0,0,.79,45.91c2.05,2.08,4.3,2.74,5.13,2.37.41.74-.67,11.24-.25,14.47s3,3.31,3.55,2.89S11.71,34.8,11.71,34.8l-.37-13.07Z"/><path class="cls-7" d="M28.78,23.47c1.32.74,1.41,3.14,1.41,5.46s.06,10.75-.45,12.77C28.12,38.85,28.16,25.12,28.78,23.47Z"/><path class="cls-5" d="M33.85,19.54c.2.39-2.41,1.42-2.21,1.85s.82-.16,1-.51.64-.2.35.38a11.11,11.11,0,0,1-2.26,2.19,11.86,11.86,0,0,0-1.57,2.66c-.1.19-.9,1.47-1,1.66-.31-.39-.14-2-.76-2.32l.38-.46c.17-.2.31-.36.42-.47a6.83,6.83,0,0,0,1.5-2.3C30.85,20.07,33.5,18.83,33.85,19.54Z"/><path class="cls-6" d="M22.41,16.28c.91.66,3.64,7.64,3.6,10a12.89,12.89,0,0,0,2.77-2.85c0,3.64.58,12.61.87,16.37s.08,14.1,0,16.54-.36,7.24-1.16,9c-1.09,2.37-5.1,4.09-6,.75s-1.13-31.92-.93-33.49.22-13.27.63-14.27A4.44,4.44,0,0,0,22.41,16.28Z"/><path d="M12.09,2.75c-.39-1,1-2.32,1.5-2.47.93-.3,3.32-.53,4.39.27A2.7,2.7,0,0,1,18.79,3C17.39,2.7,12.38,3.47,12.09,2.75Z"/><path class="cls-8" d="M15.51,1.08c.69-.48,1.71-.15,2.9.84a4.43,4.43,0,0,1,1.68,3,10.87,10.87,0,0,1-.43,3.65c-.17.53-.53,1.54-.9,1.72.32-.61-5.57-.13-6.47-.07a5.94,5.94,0,0,1-1.81-3.7A4.79,4.79,0,0,1,12,2.44C13.41,1.11,14.71.71,15.51,1.08Z"/><path class="cls-5" d="M19.65,15.14a6.13,6.13,0,0,1-2.91,3.4l-.24.07-.5.08h0a6.21,6.21,0,0,1-.75,0h-.12a3.74,3.74,0,0,1-1.07-.17,6.09,6.09,0,0,1-2.91-3.4l1.07-.43.14-.05.11-.05L13,14.4a.51.51,0,0,0,.18-.2,6,6,0,0,0,.48-1.48l.06-.27c.06-.28.11-.51.13-.62H17l.05.23,0,.19a.07.07,0,0,1,0,.05l0,.13v0a2.61,2.61,0,0,0,.06.27c.16.71.41,1.57.66,1.68h0l.61.25.14.05Z"/><path class="cls-9" d="M17.14,12.72a3.17,3.17,0,0,1-3.48,0c.1-.4.16-.76.19-.89H17C17,12,17,12.32,17.14,12.72Z"/><path class="cls-5" d="M19.05,4.48C19,3.21,16.87,1.79,15.4,1.79s-3.6,1.42-3.65,2.69-.14,4.77.41,6.22a3.72,3.72,0,0,0,3.24,2.23,3.72,3.72,0,0,0,3.24-2.23C19.19,9.25,19.1,5.74,19.05,4.48Z"/><path class="cls-8" d="M15.72,2a2.87,2.87,0,0,0,1,3C19.1,6.68,19,8.3,19,9a8.14,8.14,0,0,0,.1-4.86C18.41,1.92,16.23,1.32,15.72,2Z"/><path class="cls-8" d="M16.21,1.74c.6.65-1.26,2.64-2.32,3.46A4.94,4.94,0,0,0,11.77,9c-.37-.85-.95-4.48.52-5.94S15.29.73,16.21,1.74Z"/><path class="cls-10" d="M16.08,18.62l-.08.07h0a6.34,6.34,0,0,0-.52.51l-.29-.4-.06-.09L15,18.55a38.63,38.63,0,0,1-2.55-3.94L13,14.4a.51.51,0,0,0,.18-.2c.14.28,1.48,2.39,2.31,3.61l.17.26A5.41,5.41,0,0,0,16.08,18.62Z"/><path class="cls-11" d="M16.08,18.62a7.1,7.1,0,0,0-.6.58L15,18.55l.47-.74A9.42,9.42,0,0,0,16.08,18.62Z"/><path class="cls-10" d="M18.6,14.69a31.57,31.57,0,0,1-2.1,3.92l-.88,1.45a3.9,3.9,0,0,0-.54-1.1l.11-.16.06-.09.41-.64c.8-1.28,2.08-3.41,2.17-3.66.13.06.38.13.66.24Z"/><path class="cls-12" d="M22.59,40.46A94.14,94.14,0,0,1,22,29.67c0-3.06,1-12.07.45-13.39a9.81,9.81,0,0,0-3.83-1.57l-3,5.12-3-5.12a9.89,9.89,0,0,0-3.83,1.57c-.58,1.32.46,10.33.46,13.39a91.75,91.75,0,0,1-.64,10.79c-.36,2.15-.13,20,0,23.45s.88,11.41,1,12.57c2.81.91,9.84.78,12,0,.12-1.16.86-9.14,1-12.57S23,42.61,22.59,40.46Z"/><path class="cls-6" d="M17.14,22.09l-.3.51c-.5.87-1,1.72-1.4,2.48-.5-.9-1.09-1.93-1.69-3-1.67-2.93-3.45-5.78-3.8-6.51.4-.15,1.53-.71,2.2-.91h0l.39-.11h0l.06,0,2.77,4.7Z"/><path class="cls-13" d="M15.44,19.23l1.7,2.86-.3.51-1.7-2.86-3-5.07h0l.39-.11h0l.06,0Z"/><path class="cls-9" d="M17.14,22.09l-.3.51c-.5.87-1,1.72-1.4,2.48-.5-.9-1.09-1.93-1.69-3l1.39-2.35.3-.51Z"/><path class="cls-6" d="M18.49,14.65s2.13.6,2.71.82c-.58,1.21-5.15,9-6.56,11.68a15.06,15.06,0,0,1-2.4-1.94Z"/><path class="cls-13" d="M19,14.8l-.51-.15L12.24,25.21l.38.36Z"/><path class="cls-14" d="M22.34,33.19a38.61,38.61,0,0,1-13.56,0v-9a38.61,38.61,0,0,1,13.56,0Z"/><rect class="cls-3" x="8.78" y="28.25" width="13.56" height="1.16"/><rect class="cls-15" x="8.78" y="28.58" width="13.56" height="0.5"/><path class="cls-15" d="M5.92,48.28a4.62,4.62,0,0,0,.72-1.58A16.41,16.41,0,0,0,7.06,45c.23-1.15.42-2.3.59-3.46S8,39.2,8.09,38c.06-.58.12-1.16.17-1.75s.11-1.17.14-1.76a27.89,27.89,0,0,1-.06,3.54c-.08,1.17-.21,2.34-.37,3.51a34.41,34.41,0,0,1-.66,3.48c-.15.57-.31,1.14-.51,1.7a8.41,8.41,0,0,1-.37.81A2.42,2.42,0,0,1,5.92,48.28Z"/><path class="cls-14" d="M21,4.51a1.24,1.24,0,0,1-.27-.12A1.16,1.16,0,0,1,21,4.18a1.73,1.73,0,0,0-2,.53A1.71,1.71,0,0,0,21,4.51Z"/><polygon class="cls-15" points="19.05 4.63 20.17 4.49 19.07 4.75 19.05 4.63"/><path class="cls-14" d="M19.25,2.55a1.2,1.2,0,0,1-.2.22,1.24,1.24,0,0,1-.12-.27,1.71,1.71,0,0,0-.13,2.1A1.71,1.71,0,0,0,19.25,2.55Z"/><polygon class="cls-15" points="18.76 4.45 18.98 3.34 18.88 4.47 18.76 4.45"/><path class="cls-14" d="M16.84,3.61a1.16,1.16,0,0,1,.15.26,1.1,1.1,0,0,1-.29,0,1.71,1.71,0,0,0,1.95.77A1.72,1.72,0,0,0,16.84,3.61Z"/><polygon class="cls-15" points="18.5 4.67 17.51 4.12 18.55 4.57 18.5 4.67"/><path class="cls-14" d="M17.11,6.23a1.33,1.33,0,0,1,.29-.06,1,1,0,0,1,0,.29,1.73,1.73,0,0,0,1.33-1.62A1.74,1.74,0,0,0,17.11,6.23Z"/><polygon class="cls-15" points="18.63 4.98 17.8 5.76 18.54 4.9 18.63 4.98"/><path class="cls-14" d="M19.69,6.79a1,1,0,0,1,0-.3,1.86,1.86,0,0,1,.26.14,1.72,1.72,0,0,0-1.13-1.76A1.7,1.7,0,0,0,19.69,6.79Z"/><polygon class="cls-15" points="18.96 4.96 19.45 5.99 18.86 5.01 18.96 4.96"/><path class="cls-16" d="M18.83,5a.28.28,0,1,1-.1-.56.28.28,0,1,1,.1.56Z"/><path class="cls-14" d="M20.65,3.45a1,1,0,0,1-.29,0,1.43,1.43,0,0,1,.08-.28A1.71,1.71,0,0,0,19,4.67,1.71,1.71,0,0,0,20.65,3.45Z"/><polygon class="cls-15" points="19.02 4.54 19.92 3.85 19.09 4.63 19.02 4.54"/><path class="cls-14" d="M18.15,2.63a1.09,1.09,0,0,1-.06.29,1.73,1.73,0,0,1-.25-.16,1.72,1.72,0,0,0,.94,1.87A1.72,1.72,0,0,0,18.15,2.63Z"/><polygon class="cls-15" points="18.68 4.53 18.31 3.45 18.78 4.48 18.68 4.53"/><path class="cls-14" d="M16.6,4.76a.92.92,0,0,1,.25.15,1,1,0,0,1-.23.18,1.7,1.7,0,0,0,2.07-.32A1.7,1.7,0,0,0,16.6,4.76Z"/><polygon class="cls-15" points="18.56 4.84 17.43 4.86 18.55 4.73 18.56 4.84"/><path class="cls-14" d="M18.14,6.89a1.66,1.66,0,0,1,.22-.2,1.52,1.52,0,0,1,.1.28A1.7,1.7,0,0,0,18.8,4.9,1.73,1.73,0,0,0,18.14,6.89Z"/><polygon class="cls-15" points="18.82 5.05 18.5 6.13 18.71 5.02 18.82 5.05"/><path class="cls-14" d="M20.65,6.09a1.22,1.22,0,0,1-.13-.27,1.24,1.24,0,0,1,.3,0,1.72,1.72,0,0,0-1.86-1A1.72,1.72,0,0,0,20.65,6.09Z"/><polygon class="cls-15" points="19.11 4.86 20.04 5.51 19.05 4.96 19.11 4.86"/><path class="cls-16" d="M19,5a.29.29,0,0,1-.4,0,.28.28,0,0,1,.43-.36A.28.28,0,0,1,19,5Z"/><path class="cls-15" d="M14.85,61.57c-.44,0-.57.54-.57.54s-.13-.59-.57-.54-1,.9-1,1.32a4.46,4.46,0,0,0,1.53,2.85,4.46,4.46,0,0,0,1.53-2.85C15.81,62.47,15.29,61.62,14.85,61.57Z"/><path class="cls-15" d="M10.49,63.91c-.19.4.34.71.34.71s-.61-.06-.69.37.56,1.19,1,1.32a4.41,4.41,0,0,0,3.18-.57A4.36,4.36,0,0,0,12,63.41,1.67,1.67,0,0,0,10.49,63.91Z"/><path class="cls-15" d="M11.37,68.78c.32.3.78-.11.78-.11s-.25.56.14.78,1.31-.17,1.55-.51a4.43,4.43,0,0,0,.44-3.2,4.42,4.42,0,0,0-2.91,1.41A1.64,1.64,0,0,0,11.37,68.78Z"/><path class="cls-15" d="M16.27,69.45c.39-.22.14-.78.14-.78s.46.41.78.11a1.64,1.64,0,0,0,0-1.63,4.39,4.39,0,0,0-2.91-1.41,4.43,4.43,0,0,0,.44,3.2C15,69.28,15.89,69.67,16.27,69.45Z"/><path class="cls-15" d="M18.43,65c-.09-.43-.7-.37-.7-.37s.53-.31.34-.71-1.15-.63-1.55-.5a4.4,4.4,0,0,0-2.24,2.33,4.41,4.41,0,0,0,3.18.57C17.86,66.18,18.51,65.43,18.43,65Z"/><path class="cls-17" d="M14.9,65.74a.62.62,0,1,1-.62-.62A.62.62,0,0,1,14.9,65.74Z"/><rect class="cls-17" x="14.23" y="63.65" width="0.11" height="2.09"/><path class="cls-17" d="M14.48,63.65a.2.2,0,0,1-.2.2.19.19,0,0,1-.19-.2.18.18,0,0,1,.19-.19A.19.19,0,0,1,14.48,63.65Z"/><rect class="cls-17" x="13.71" y="63.79" width="0.1" height="2.09" transform="translate(-30.56 15.55) rotate(-29.99)"/><path class="cls-17" d="M13.41,63.83a.2.2,0,0,1-.07.27.19.19,0,0,1-.27-.07.2.2,0,0,1,.07-.27A.21.21,0,0,1,13.41,63.83Z"/><polygon class="cls-17" points="14.26 65.78 12.45 64.74 12.5 64.65 14.31 65.69 14.26 65.78"/><path class="cls-17" d="M12.57,64.53a.18.18,0,0,1,.07.26.2.2,0,0,1-.27.08.21.21,0,0,1-.07-.27A.19.19,0,0,1,12.57,64.53Z"/><rect class="cls-17" x="12.19" y="65.69" width="2.09" height="0.1"/><path class="cls-17" d="M12.19,65.54a.2.2,0,1,1-.19.2A.2.2,0,0,1,12.19,65.54Z"/><polygon class="cls-17" points="12.5 66.83 12.45 66.74 14.26 65.69 14.31 65.78 12.5 66.83"/><path class="cls-17" d="M12.37,66.61a.2.2,0,0,1,.27.08.18.18,0,0,1-.07.26.19.19,0,0,1-.27-.07A.21.21,0,0,1,12.37,66.61Z"/><rect class="cls-17" x="12.72" y="66.59" width="2.09" height="0.1" transform="matrix(0.49, -0.87, 0.87, 0.49, -51.03, 45.83)"/><path class="cls-17" d="M13.07,67.45a.19.19,0,0,1,.27-.07.2.2,0,0,1,.07.27.21.21,0,0,1-.27.07A.2.2,0,0,1,13.07,67.45Z"/><rect class="cls-17" x="14.23" y="65.74" width="0.11" height="2.09"/><path class="cls-17" d="M14.09,67.83a.19.19,0,0,1,.19-.2.2.2,0,0,1,.2.2.19.19,0,0,1-.2.19A.18.18,0,0,1,14.09,67.83Z"/><polygon class="cls-17" points="15.28 67.57 14.24 65.77 14.32 65.71 15.37 67.52 15.28 67.57"/><path class="cls-17" d="M15.16,67.65a.19.19,0,0,1,.07-.27.2.2,0,0,1,.27.07.2.2,0,0,1-.08.27A.19.19,0,0,1,15.16,67.65Z"/><polygon class="cls-17" points="16.06 66.83 14.26 65.78 14.31 65.69 16.11 66.74 16.06 66.83"/><path class="cls-17" d="M16,67a.18.18,0,0,1-.07-.26.2.2,0,0,1,.27-.08.21.21,0,0,1,.07.27A.19.19,0,0,1,16,67Z"/><rect class="cls-17" x="14.28" y="65.69" width="2.09" height="0.1"/><path class="cls-17" d="M16.37,65.94a.2.2,0,0,1,0-.4.2.2,0,0,1,0,.4Z"/><polygon class="cls-17" points="14.31 65.78 14.26 65.69 16.06 64.65 16.11 64.74 14.31 65.78"/><path class="cls-17" d="M16.19,64.87a.2.2,0,0,1-.27-.08.18.18,0,0,1,.07-.26.19.19,0,0,1,.27.07A.21.21,0,0,1,16.19,64.87Z"/><polygon class="cls-17" points="14.32 65.77 14.24 65.71 15.28 63.91 15.37 63.96 14.32 65.77"/><path class="cls-17" d="M15.49,64a.19.19,0,1,1-.33-.2.19.19,0,0,1,.26-.07A.19.19,0,0,1,15.49,64Z"/><path class="cls-15" d="M18.36,69.51c-.23,0-.3.29-.3.29s-.06-.31-.3-.29-.5.48-.5.7a2.34,2.34,0,0,0,.8,1.48,2.29,2.29,0,0,0,.8-1.48C18.86,70,18.59,69.54,18.36,69.51Z"/><path class="cls-15" d="M16.08,70.74c-.1.21.18.37.18.37s-.32,0-.36.19.29.63.5.7a2.31,2.31,0,0,0,1.66-.31,2.36,2.36,0,0,0-1.17-1.22A.9.9,0,0,0,16.08,70.74Z"/><path class="cls-15" d="M16.54,73.28c.17.16.41,0,.41,0s-.13.29.07.4.69-.08.81-.26a2.29,2.29,0,0,0,.23-1.68,2.36,2.36,0,0,0-1.52.74A.86.86,0,0,0,16.54,73.28Z"/><path class="cls-15" d="M19.1,73.63c.21-.11.08-.4.08-.4s.24.21.41,0,.12-.67,0-.85a2.41,2.41,0,0,0-1.53-.74,2.39,2.39,0,0,0,.23,1.68C18.42,73.55,18.9,73.75,19.1,73.63Z"/><path class="cls-15" d="M20.23,71.3c-.05-.22-.36-.19-.36-.19s.27-.16.17-.37-.6-.33-.81-.27a2.36,2.36,0,0,0-1.17,1.22,2.34,2.34,0,0,0,1.67.31C19.93,71.93,20.27,71.53,20.23,71.3Z"/><path class="cls-17" d="M18.39,71.69a.33.33,0,0,1-.33.33.32.32,0,0,1-.32-.33.32.32,0,0,1,.32-.32A.32.32,0,0,1,18.39,71.69Z"/><rect class="cls-17" x="18.04" y="70.6" width="0.05" height="1.09"/><path class="cls-17" d="M18.17,70.6a.11.11,0,0,1-.11.11.11.11,0,0,1-.1-.11.11.11,0,0,1,.1-.1A.11.11,0,0,1,18.17,70.6Z"/><polygon class="cls-17" points="18.04 71.71 17.49 70.76 17.54 70.74 18.09 71.68 18.04 71.71"/><path class="cls-17" d="M17.6,70.7a.1.1,0,0,1,0,.14.1.1,0,0,1-.1-.18A.09.09,0,0,1,17.6,70.7Z"/><polygon class="cls-17" points="18.05 71.72 17.11 71.17 17.13 71.13 18.07 71.67 18.05 71.72"/><path class="cls-17" d="M17.17,71.06a.1.1,0,1,1-.14,0A.1.1,0,0,1,17.17,71.06Z"/><rect class="cls-17" x="16.97" y="71.67" width="1.09" height="0.05"/><path class="cls-17" d="M17,71.59a.1.1,0,0,1,.1.1.1.1,0,0,1-.1.11.11.11,0,0,1-.1-.11A.11.11,0,0,1,17,71.59Z"/><polygon class="cls-17" points="17.13 72.26 17.11 72.22 18.05 71.67 18.07 71.72 17.13 72.26"/><path class="cls-17" d="M17.07,72.15a.1.1,0,1,1,0,.14A.1.1,0,0,1,17.07,72.15Z"/><polygon class="cls-17" points="17.54 72.65 17.49 72.63 18.04 71.68 18.09 71.71 17.54 72.65"/><path class="cls-17" d="M17.43,72.59a.1.1,0,0,1,.14,0,.1.1,0,0,1,0,.14.09.09,0,0,1-.13,0A.1.1,0,0,1,17.43,72.59Z"/><rect class="cls-17" x="18.04" y="71.69" width="0.05" height="1.09"/><path class="cls-17" d="M18,72.79a.11.11,0,0,1,.1-.11.11.11,0,0,1,.11.11.11.11,0,0,1-.11.1A.11.11,0,0,1,18,72.79Z"/><polygon class="cls-17" points="18.59 72.65 18.04 71.71 18.09 71.68 18.63 72.63 18.59 72.65"/><path class="cls-17" d="M18.52,72.69a.1.1,0,0,1,.18-.1.11.11,0,0,1,0,.14A.1.1,0,0,1,18.52,72.69Z"/><polygon class="cls-17" points="18.99 72.26 18.05 71.72 18.07 71.67 19.02 72.22 18.99 72.26"/><path class="cls-17" d="M19,72.33a.1.1,0,0,1,.1-.18.11.11,0,0,1,0,.14A.1.1,0,0,1,19,72.33Z"/><rect class="cls-17" x="18.06" y="71.67" width="1.09" height="0.05"/><path class="cls-17" d="M19.15,71.8a.11.11,0,0,1-.1-.11.11.11,0,0,1,.1-.1.11.11,0,0,1,.11.1A.11.11,0,0,1,19.15,71.8Z"/><polygon class="cls-17" points="18.07 71.72 18.05 71.67 18.99 71.13 19.02 71.17 18.07 71.72"/><path class="cls-17" d="M19.06,71.24a.1.1,0,1,1,0-.14A.11.11,0,0,1,19.06,71.24Z"/><polygon class="cls-17" points="18.09 71.71 18.04 71.68 18.59 70.74 18.63 70.76 18.09 71.71"/><path class="cls-17" d="M18.7,70.8a.1.1,0,1,1,0-.14A.11.11,0,0,1,18.7,70.8Z"/><path class="cls-15" d="M20.26,65.18c-.18,0-.24.22-.24.22s-.05-.24-.23-.22-.39.37-.39.54A1.86,1.86,0,0,0,20,66.88a1.78,1.78,0,0,0,.63-1.16C20.65,65.55,20.44,65.2,20.26,65.18Z"/><path class="cls-15" d="M18.48,66.13c-.07.16.14.29.14.29s-.25,0-.28.15.23.49.39.54A1.77,1.77,0,0,0,20,66.88a1.79,1.79,0,0,0-.91-1A.7.7,0,0,0,18.48,66.13Z"/><path class="cls-15" d="M18.84,68.11c.13.13.32,0,.32,0s-.1.23.05.32.54-.07.64-.21a1.79,1.79,0,0,0,.17-1.3,1.78,1.78,0,0,0-1.18.57A.67.67,0,0,0,18.84,68.11Z"/><path class="cls-15" d="M20.84,68.39c.15-.09.05-.32.05-.32s.19.17.32,0a.67.67,0,0,0,0-.66A1.81,1.81,0,0,0,20,66.88a1.84,1.84,0,0,0,.18,1.3C20.3,68.32,20.68,68.48,20.84,68.39Z"/><path class="cls-15" d="M21.71,66.57c0-.18-.28-.15-.28-.15s.21-.13.14-.29a.7.7,0,0,0-.63-.21,1.84,1.84,0,0,0-.92,1,1.8,1.8,0,0,0,1.3.23C21.48,67.06,21.75,66.75,21.71,66.57Z"/><path class="cls-17" d="M20.28,66.88a.26.26,0,0,1-.51,0,.26.26,0,1,1,.51,0Z"/><rect class="cls-17" x="20" y="66.03" width="0.04" height="0.85"/><path class="cls-17" d="M20.1,66a.08.08,0,0,1-.08.08.09.09,0,0,1-.08-.08A.08.08,0,0,1,20,66,.07.07,0,0,1,20.1,66Z"/><polygon class="cls-17" points="20.01 66.89 19.58 66.15 19.62 66.13 20.04 66.86 20.01 66.89"/><path class="cls-17" d="M19.67,66.1a.08.08,0,1,1-.11,0A.08.08,0,0,1,19.67,66.1Z"/><rect class="cls-17" x="19.64" y="66.24" width="0.04" height="0.85" transform="translate(-47.93 50.44) rotate(-60.08)"/><path class="cls-17" d="M19.33,66.38a.08.08,0,1,1-.11,0A.08.08,0,0,1,19.33,66.38Z"/><rect class="cls-17" x="19.18" y="66.85" width="0.85" height="0.04"/><path class="cls-17" d="M19.18,66.8a.08.08,0,0,1,.08.08.09.09,0,0,1-.08.08.09.09,0,0,1-.09-.08A.08.08,0,0,1,19.18,66.8Z"/><rect class="cls-17" x="19.23" y="67.07" width="0.85" height="0.04" transform="translate(-30.98 18.89) rotate(-30.08)"/><path class="cls-17" d="M19.25,67.23a.08.08,0,1,1,0,.11A.08.08,0,0,1,19.25,67.23Z"/><polygon class="cls-17" points="19.62 67.62 19.58 67.6 20.01 66.86 20.04 66.89 19.62 67.62"/><path class="cls-17" d="M19.53,67.57a.08.08,0,0,1,.11,0,.08.08,0,0,1,0,.11.08.08,0,0,1-.14-.08Z"/><rect class="cls-17" x="20" y="66.88" width="0.04" height="0.85"/><path class="cls-17" d="M19.94,67.73a.08.08,0,0,1,.08-.08.07.07,0,0,1,.08.08.08.08,0,0,1-.08.08A.09.09,0,0,1,19.94,67.73Z"/><polygon class="cls-17" points="20.43 67.62 20.01 66.89 20.04 66.86 20.47 67.6 20.43 67.62"/><path class="cls-17" d="M20.38,67.65a.08.08,0,0,1,0-.11.08.08,0,1,1,0,.11Z"/><polygon class="cls-17" points="20.75 67.32 20.02 66.89 20.03 66.86 20.77 67.28 20.75 67.32"/><path class="cls-17" d="M20.72,67.37a.08.08,0,1,1,.11,0A.08.08,0,0,1,20.72,67.37Z"/><rect class="cls-17" x="20.02" y="66.85" width="0.85" height="0.04"/><path class="cls-17" d="M20.87,67a.08.08,0,0,1-.07-.08.07.07,0,0,1,.07-.08.07.07,0,0,1,.08.08A.08.08,0,0,1,20.87,67Z"/><polygon class="cls-17" points="20.03 66.89 20.02 66.86 20.75 66.43 20.77 66.47 20.03 66.89"/><path class="cls-17" d="M20.8,66.52a.08.08,0,1,1,0-.11A.08.08,0,0,1,20.8,66.52Z"/><polygon class="cls-17" points="20.04 66.89 20.01 66.86 20.43 66.13 20.47 66.15 20.04 66.89"/><path class="cls-17" d="M20.52,66.18a.08.08,0,1,1,0-.11A.08.08,0,0,1,20.52,66.18Z"/><path class="cls-15" d="M20.3,55.19c-.18,0-.23.23-.23.23s-.06-.25-.24-.23-.39.37-.39.54a1.76,1.76,0,0,0,.63,1.16,1.84,1.84,0,0,0,.62-1.16C20.69,55.56,20.48,55.21,20.3,55.19Z"/><path class="cls-15" d="M18.52,56.15c-.08.16.14.29.14.29s-.25,0-.28.15.23.48.39.54a1.86,1.86,0,0,0,1.3-.24,1.85,1.85,0,0,0-.92-1A.67.67,0,0,0,18.52,56.15Z"/><path class="cls-15" d="M18.88,58.13c.13.12.32,0,.32,0s-.1.22.05.31.54-.07.64-.2a1.86,1.86,0,0,0,.18-1.31,1.81,1.81,0,0,0-1.19.57A.69.69,0,0,0,18.88,58.13Z"/><path class="cls-15" d="M20.88,58.4c.15-.09.05-.31.05-.31s.19.16.32,0a.69.69,0,0,0,0-.67,1.81,1.81,0,0,0-1.18-.57,1.81,1.81,0,0,0,.17,1.31C20.34,58.33,20.72,58.49,20.88,58.4Z"/><path class="cls-15" d="M21.75,56.59c0-.18-.28-.15-.28-.15s.21-.13.14-.29a.67.67,0,0,0-.63-.21,1.8,1.8,0,0,0-.91,1,1.83,1.83,0,0,0,1.29.24C21.52,57.07,21.79,56.76,21.75,56.59Z"/><path class="cls-17" d="M20.32,56.89a.26.26,0,1,1-.51,0,.26.26,0,0,1,.51,0Z"/><rect class="cls-17" x="20.04" y="56.04" width="0.04" height="0.85"/><path class="cls-17" d="M20.14,56a.07.07,0,0,1-.07.08A.07.07,0,0,1,20,56a.08.08,0,0,1,.08-.08A.08.08,0,0,1,20.14,56Z"/><polygon class="cls-17" points="20.05 56.9 19.62 56.17 19.66 56.15 20.08 56.88 20.05 56.9"/><path class="cls-17" d="M19.71,56.12a.09.09,0,0,1,0,.11.09.09,0,0,1-.11,0,.08.08,0,0,1,0-.11A.07.07,0,0,1,19.71,56.12Z"/><rect class="cls-17" x="19.68" y="56.25" width="0.04" height="0.85" transform="translate(-39.24 45.42) rotate(-60.02)"/><path class="cls-17" d="M19.37,56.4a.08.08,0,0,1-.08.14.09.09,0,0,1,0-.11A.08.08,0,0,1,19.37,56.4Z"/><rect class="cls-17" x="19.21" y="56.87" width="0.85" height="0.04"/><circle class="cls-17" cx="19.21" cy="56.89" r="0.08"/><polygon class="cls-17" points="19.34 57.34 19.32 57.3 20.05 56.87 20.07 56.91 19.34 57.34"/><path class="cls-17" d="M19.29,57.25a.08.08,0,0,1,.11,0,.08.08,0,0,1,0,.11.08.08,0,1,1-.08-.14Z"/><polygon class="cls-17" points="19.66 57.64 19.62 57.62 20.05 56.88 20.08 56.9 19.66 57.64"/><path class="cls-17" d="M19.57,57.59a.08.08,0,1,1,0,.11A.08.08,0,0,1,19.57,57.59Z"/><rect class="cls-17" x="20.04" y="56.89" width="0.04" height="0.85"/><path class="cls-17" d="M20,57.74a.08.08,0,0,1,.08-.08.08.08,0,0,1,.07.08.07.07,0,0,1-.07.08A.07.07,0,0,1,20,57.74Z"/><polygon class="cls-17" points="20.47 57.64 20.05 56.9 20.08 56.88 20.51 57.62 20.47 57.64"/><path class="cls-17" d="M20.42,57.67a.08.08,0,1,1,.14-.08.08.08,0,0,1,0,.11A.08.08,0,0,1,20.42,57.67Z"/><polygon class="cls-17" points="20.79 57.34 20.05 56.91 20.07 56.87 20.81 57.3 20.79 57.34"/><path class="cls-17" d="M20.76,57.39a.08.08,0,0,1,0-.11.08.08,0,1,1,0,.11Z"/><rect class="cls-17" x="20.07" y="56.87" width="0.85" height="0.04"/><circle class="cls-17" cx="20.92" cy="56.89" r="0.08"/><rect class="cls-17" x="20.01" y="56.66" width="0.85" height="0.04" transform="translate(-26.12 18.44) rotate(-30.78)"/><path class="cls-17" d="M20.84,56.54a.08.08,0,1,1,0-.11A.09.09,0,0,1,20.84,56.54Z"/><polygon class="cls-17" points="20.08 56.9 20.05 56.88 20.47 56.15 20.51 56.17 20.08 56.9"/><path class="cls-17" d="M20.56,56.2a.09.09,0,0,1-.11,0,.09.09,0,0,1,0-.11.07.07,0,0,1,.11,0A.08.08,0,0,1,20.56,56.2Z"/><path class="cls-15" d="M14,70.65c-.15,0-.19.18-.19.18s0-.2-.19-.18-.33.31-.33.45a1.51,1.51,0,0,0,.52,1,1.51,1.51,0,0,0,.52-1C14.28,71,14.1,70.66,14,70.65Z"/><path class="cls-15" d="M12.47,71.44c-.07.14.11.25.11.25s-.2,0-.23.12.19.41.33.45a1.49,1.49,0,0,0,1.08-.19,1.53,1.53,0,0,0-.76-.8C12.86,71.23,12.53,71.31,12.47,71.44Z"/><path class="cls-15" d="M12.77,73.1c.11.11.26,0,.26,0s-.08.19.05.26.45-.06.53-.17a1.55,1.55,0,0,0,.15-1.09,1.48,1.48,0,0,0-1,.48A.54.54,0,0,0,12.77,73.1Z"/><path class="cls-15" d="M14.44,73.33c.13-.07.05-.26.05-.26s.15.14.26,0a.57.57,0,0,0,0-.55,1.48,1.48,0,0,0-1-.48,1.5,1.5,0,0,0,.15,1.09C14,73.27,14.31,73.41,14.44,73.33Z"/><path class="cls-15" d="M15.17,71.81c0-.14-.24-.12-.24-.12s.18-.11.12-.25-.39-.21-.53-.17a1.49,1.49,0,0,0-.76.8,1.49,1.49,0,0,0,1.08.19C15,72.22,15.2,72,15.17,71.81Z"/><path class="cls-17" d="M14,72.07a.21.21,0,0,1-.42,0,.21.21,0,0,1,.42,0Z"/><rect class="cls-17" x="13.74" y="71.36" width="0.04" height="0.71"/><path class="cls-17" d="M13.83,71.36a.07.07,0,0,1-.14,0,.07.07,0,0,1,.14,0Z"/><polygon class="cls-17" points="13.74 72.08 13.39 71.46 13.42 71.44 13.78 72.06 13.74 72.08"/><path class="cls-17" d="M13.46,71.42a.07.07,0,0,1,0,.09.08.08,0,0,1-.1,0,.09.09,0,0,1,0-.1A.08.08,0,0,1,13.46,71.42Z"/><polygon class="cls-17" points="13.75 72.08 13.13 71.73 13.15 71.7 13.77 72.05 13.75 72.08"/><path class="cls-17" d="M13.18,71.65a.08.08,0,0,1,0,.1.07.07,0,1,1-.11-.07S13.14,71.64,13.18,71.65Z"/><rect class="cls-17" x="13.05" y="72.05" width="0.71" height="0.04"/><path class="cls-17" d="M13.05,72s.06,0,.06.07a.06.06,0,0,1-.06.06.07.07,0,0,1-.07-.06A.07.07,0,0,1,13.05,72Z"/><polygon class="cls-17" points="13.15 72.44 13.13 72.41 13.75 72.05 13.77 72.08 13.15 72.44"/><path class="cls-17" d="M13.11,72.37a.07.07,0,0,1,.07.11s-.08,0-.09,0S13.08,72.38,13.11,72.37Z"/><polygon class="cls-17" points="13.42 72.69 13.39 72.67 13.74 72.06 13.78 72.08 13.42 72.69"/><path class="cls-17" d="M13.34,72.65a.08.08,0,0,1,.1,0s0,.05,0,.09a.07.07,0,0,1-.09,0A.08.08,0,0,1,13.34,72.65Z"/><rect class="cls-17" x="13.74" y="72.07" width="0.04" height="0.71"/><path class="cls-17" d="M13.69,72.78a.07.07,0,1,1,.07.07A.07.07,0,0,1,13.69,72.78Z"/><polygon class="cls-17" points="14.1 72.69 13.74 72.08 13.78 72.06 14.13 72.67 14.1 72.69"/><path class="cls-17" d="M14.06,72.72s0-.08,0-.09a.07.07,0,0,1,.07.11A.06.06,0,0,1,14.06,72.72Z"/><polygon class="cls-17" points="14.37 72.44 13.75 72.08 13.77 72.05 14.38 72.41 14.37 72.44"/><path class="cls-17" d="M14.34,72.48a.07.07,0,1,1,.07-.11s0,0,0,.09A.07.07,0,0,1,14.34,72.48Z"/><rect class="cls-17" x="13.76" y="72.05" width="0.71" height="0.04"/><path class="cls-17" d="M14.47,72.13a.07.07,0,0,1-.07-.06.07.07,0,0,1,.14,0A.07.07,0,0,1,14.47,72.13Z"/><polygon class="cls-17" points="13.77 72.08 13.75 72.05 14.37 71.7 14.38 71.73 13.77 72.08"/><path class="cls-17" d="M14.41,71.77a.07.07,0,0,1-.09,0,.08.08,0,0,1,0-.1.08.08,0,0,1,.09,0A.07.07,0,0,1,14.41,71.77Z"/><polygon class="cls-17" points="13.78 72.08 13.74 72.06 14.1 71.44 14.13 71.46 13.78 72.08"/><path class="cls-17" d="M14.17,71.49a.07.07,0,0,1-.11-.07.08.08,0,0,1,.09,0A.08.08,0,0,1,14.17,71.49Z"/><path class="cls-15" d="M20.3,61.19c-.15,0-.2.19-.2.19s0-.21-.19-.19-.33.31-.33.45a1.54,1.54,0,0,0,.52,1,1.49,1.49,0,0,0,.52-1C20.62,61.5,20.45,61.21,20.3,61.19Z"/><path class="cls-15" d="M18.81,62c-.06.14.12.24.12.24s-.21,0-.24.13.2.4.33.45a1.49,1.49,0,0,0,1.08-.2,1.5,1.5,0,0,0-.76-.79A.56.56,0,0,0,18.81,62Z"/><path class="cls-15" d="M19.11,63.65c.11.1.27,0,.27,0s-.09.19.05.27a.57.57,0,0,0,.52-.17,1.48,1.48,0,0,0,.15-1.1,1.55,1.55,0,0,0-1,.48C19,63.21,19,63.55,19.11,63.65Z"/><path class="cls-15" d="M20.78,63.88c.13-.08,0-.27,0-.27s.16.14.27,0,.08-.44,0-.56a1.58,1.58,0,0,0-1-.48,1.58,1.58,0,0,0,.15,1.1C20.34,63.82,20.65,64,20.78,63.88Z"/><path class="cls-15" d="M21.52,62.36c0-.15-.24-.13-.24-.13s.18-.1.12-.24a.56.56,0,0,0-.53-.17,1.55,1.55,0,0,0-.77.79,1.52,1.52,0,0,0,1.09.2C21.32,62.76,21.55,62.51,21.52,62.36Z"/><path class="cls-17" d="M20.32,62.61a.22.22,0,1,1-.43,0,.22.22,0,0,1,.43,0Z"/><rect class="cls-17" x="20.09" y="61.9" width="0.04" height="0.71"/><path class="cls-17" d="M20.17,61.9a.07.07,0,0,1-.07.07A.07.07,0,0,1,20,61.9a.06.06,0,0,1,.06-.06A.07.07,0,0,1,20.17,61.9Z"/><polygon class="cls-17" points="20.09 62.62 19.73 62.01 19.76 61.99 20.12 62.6 20.09 62.62"/><path class="cls-17" d="M19.81,62a.08.08,0,0,1,0,.1.08.08,0,0,1-.09,0,.06.06,0,0,1,0-.09A.07.07,0,0,1,19.81,62Z"/><polygon class="cls-17" points="20.09 62.63 19.48 62.27 19.5 62.24 20.11 62.6 20.09 62.63"/><path class="cls-17" d="M19.52,62.2a.08.08,0,0,1,0,.09.08.08,0,0,1-.1,0,.07.07,0,0,1,0-.09A.06.06,0,0,1,19.52,62.2Z"/><rect class="cls-17" x="19.39" y="62.6" width="0.71" height="0.04"/><path class="cls-17" d="M19.39,62.55a.07.07,0,0,1,.07.06.07.07,0,0,1-.07.07.07.07,0,0,1-.06-.07A.06.06,0,0,1,19.39,62.55Z"/><polygon class="cls-17" points="19.5 62.98 19.48 62.95 20.09 62.6 20.11 62.63 19.5 62.98"/><path class="cls-17" d="M19.45,62.91a.07.07,0,0,1,.1,0,.08.08,0,0,1,0,.09.07.07,0,0,1-.09,0A.07.07,0,0,1,19.45,62.91Z"/><polygon class="cls-17" points="19.76 63.24 19.73 63.22 20.09 62.6 20.12 62.62 19.76 63.24"/><path class="cls-17" d="M19.69,63.2a.07.07,0,0,1,.12.06.07.07,0,1,1-.12-.06Z"/><rect class="cls-17" x="20.09" y="62.61" width="0.04" height="0.71"/><path class="cls-17" d="M20,63.33a.07.07,0,0,1,.06-.07.07.07,0,0,1,.07.07.07.07,0,0,1-.07.06A.06.06,0,0,1,20,63.33Z"/><polygon class="cls-17" points="20.45 63.24 20.09 62.62 20.12 62.6 20.48 63.22 20.45 63.24"/><path class="cls-17" d="M20.4,63.26a.06.06,0,0,1,0-.09.07.07,0,1,1,.06.12A.06.06,0,0,1,20.4,63.26Z"/><polygon class="cls-17" points="20.71 62.98 20.09 62.63 20.11 62.6 20.73 62.95 20.71 62.98"/><path class="cls-17" d="M20.69,63a.07.07,0,0,1,0-.09.07.07,0,0,1,.12.06A.07.07,0,0,1,20.69,63Z"/><rect class="cls-17" x="20.1" y="62.6" width="0.71" height="0.04"/><circle class="cls-17" cx="20.82" cy="62.61" r="0.07"/><polygon class="cls-17" points="20.11 62.63 20.09 62.6 20.71 62.24 20.73 62.27 20.11 62.63"/><path class="cls-17" d="M20.75,62.32a.07.07,0,0,1-.06-.12.07.07,0,0,1,.06.12Z"/><polygon class="cls-17" points="20.12 62.62 20.09 62.6 20.45 61.99 20.48 62.01 20.12 62.62"/><path class="cls-17" d="M20.52,62a.08.08,0,0,1-.09,0,.07.07,0,0,1,0-.1.07.07,0,0,1,.09,0A.07.07,0,0,1,20.52,62Z"/><path class="cls-15" d="M17.17,59.13c-.16,0-.2.19-.2.19s0-.21-.19-.19-.33.31-.33.45a1.49,1.49,0,0,0,.52,1,1.49,1.49,0,0,0,.52-1C17.49,59.44,17.32,59.15,17.17,59.13Z"/><path class="cls-15" d="M15.68,59.93c-.06.13.12.24.12.24s-.21,0-.24.13.19.4.33.45a1.5,1.5,0,0,0,1.08-.2,1.47,1.47,0,0,0-.76-.79C16.07,59.71,15.74,59.79,15.68,59.93Z"/><path class="cls-15" d="M16,61.59c.11.1.27,0,.27,0s-.09.19,0,.26a.53.53,0,0,0,.53-.17A1.5,1.5,0,0,0,17,60.55,1.52,1.52,0,0,0,16,61,.59.59,0,0,0,16,61.59Z"/><path class="cls-15" d="M17.65,61.81c.13-.07.05-.26.05-.26s.15.14.26,0A.54.54,0,0,0,18,61a1.52,1.52,0,0,0-1-.48,1.55,1.55,0,0,0,.15,1.09C17.2,61.76,17.52,61.89,17.65,61.81Z"/><path class="cls-15" d="M18.38,60.3c0-.15-.23-.13-.23-.13s.18-.11.11-.24-.39-.22-.53-.17a1.5,1.5,0,0,0-.76.79,1.52,1.52,0,0,0,1.09.2C18.19,60.7,18.41,60.44,18.38,60.3Z"/><path class="cls-17" d="M17.18,60.55a.21.21,0,1,1-.21-.21A.21.21,0,0,1,17.18,60.55Z"/><rect class="cls-17" x="16.95" y="59.84" width="0.04" height="0.71"/><path class="cls-17" d="M17,59.84a.07.07,0,1,1-.07-.07A.07.07,0,0,1,17,59.84Z"/><polygon class="cls-17" points="16.96 60.56 16.6 59.94 16.63 59.93 16.99 60.54 16.96 60.56"/><path class="cls-17" d="M16.67,59.9a.07.07,0,1,1-.09,0A.06.06,0,0,1,16.67,59.9Z"/><rect class="cls-17" x="16.65" y="60.02" width="0.03" height="0.71" transform="translate(-43.95 44.6) rotate(-59.98)"/><path class="cls-17" d="M16.39,60.14a.07.07,0,1,1-.09,0A.07.07,0,0,1,16.39,60.14Z"/><rect class="cls-17" x="16.26" y="60.53" width="0.71" height="0.04"/><path class="cls-17" d="M16.26,60.48a.07.07,0,1,1-.07.07A.07.07,0,0,1,16.26,60.48Z"/><rect class="cls-17" x="16.31" y="60.71" width="0.71" height="0.03" transform="translate(-28.89 17.25) rotate(-30.99)"/><path class="cls-17" d="M16.32,60.85a.07.07,0,0,1,.09,0s0,.08,0,.09a.07.07,0,1,1-.07-.11Z"/><polygon class="cls-17" points="16.63 61.17 16.6 61.16 16.96 60.54 16.99 60.56 16.63 61.17"/><path class="cls-17" d="M16.56,61.13a.07.07,0,0,1,.11.07.06.06,0,0,1-.09,0S16.54,61.17,16.56,61.13Z"/><rect class="cls-17" x="16.95" y="60.55" width="0.04" height="0.71"/><path class="cls-17" d="M16.9,61.26s0-.06.07-.06.07,0,.07.06a.07.07,0,1,1-.14,0Z"/><polygon class="cls-17" points="17.31 61.17 16.96 60.56 16.99 60.54 17.34 61.16 17.31 61.17"/><path class="cls-17" d="M17.27,61.2a.07.07,0,0,1,0-.09s.08,0,.09,0,0,.08,0,.09A.07.07,0,0,1,17.27,61.2Z"/><rect class="cls-17" x="17.26" y="60.37" width="0.04" height="0.71" transform="translate(-43.95 45.3) rotate(-59.98)"/><path class="cls-17" d="M17.55,61s0-.05,0-.09a.07.07,0,0,1,.09,0,.08.08,0,0,1,0,.09A.08.08,0,0,1,17.55,61Z"/><rect class="cls-17" x="16.97" y="60.53" width="0.71" height="0.04"/><path class="cls-17" d="M17.68,60.62a.07.07,0,0,1,0-.14.07.07,0,1,1,0,.14Z"/><rect class="cls-17" x="16.92" y="60.35" width="0.71" height="0.04" transform="translate(-27.88 16.73) rotate(-30.01)"/><path class="cls-17" d="M17.62,60.25a.07.07,0,1,1-.07-.11.08.08,0,0,1,.1,0A.08.08,0,0,1,17.62,60.25Z"/><polygon class="cls-17" points="16.99 60.56 16.96 60.54 17.31 59.93 17.34 59.94 16.99 60.56"/><path class="cls-17" d="M17.38,60s-.05,0-.09,0a.07.07,0,1,1,.09,0Z"/></g></g></svg>