<svg xmlns="http://www.w3.org/2000/svg" viewBox="0 0 70 64.48"><defs><style>.cls-1{fill:#3d3d3d;}.cls-2{fill:#ab2420;}.cls-3{opacity:0.2;}.cls-4{fill:#eb2928;}.cls-5{fill:#fff;opacity:0.3;}</style></defs><title>Asset 14</title><g id="Layer_2" data-name="Layer 2"><g id="Icons"><path class="cls-1" d="M67.05,4.81H3C2,3.3,1,1.7,0,0A372,372,0,0,0,70,0C69,1.7,68,3.3,67.05,4.81Z"/><path d="M69.27,1.22c.24-.41.49-.8.73-1.22A372,372,0,0,1,0,0C.24.42.49.81.73,1.22A371.86,371.86,0,0,0,69.27,1.22Z"/><polygon class="cls-2" points="64.89 4.82 64.62 5.19 62.59 7.89 7.42 7.89 5.39 5.19 5.11 4.82 64.89 4.82"/><polygon class="cls-3" points="64.89 4.82 64.62 5.19 5.39 5.19 5.11 4.82 64.89 4.82"/><rect class="cls-4" x="48.98" y="7.88" width="6.04" height="56.59"/><polygon points="55.89 64.48 48.11 64.48 48.11 55.11 48.99 54.08 55.01 54.08 55.89 55.11 55.89 64.48"/><rect class="cls-5" x="49.88" y="7.88" width="2.55" height="56.59"/><rect class="cls-3" x="48.99" y="17.78" width="6.03" height="0.59"/><rect class="cls-2" x="48.71" y="7.89" width="6.58" height="1.23"/><rect class="cls-4" x="14.99" y="7.88" width="6.04" height="56.59"/><polygon points="14.12 64.48 21.89 64.48 21.89 55.11 21.02 54.08 14.99 54.08 14.12 55.11 14.12 64.48"/><rect class="cls-5" x="15.82" y="7.88" width="2.55" height="56.59"/><rect class="cls-3" x="14.99" y="17.78" width="6.03" height="0.59"/><rect class="cls-2" x="14.71" y="7.89" width="6.58" height="1.23"/><rect class="cls-2" x="8.98" y="13.72" width="50.93" height="4.06"/><rect class="cls-4" x="31.41" y="7.88" width="6.07" height="5.85"/><polygon class="cls-4" points="22.96 13.72 22.96 12.34 21.03 13.03 21.03 13.72 22.96 13.72"/><polygon class="cls-4" points="56.95 13.72 56.95 12.34 55.02 13.03 55.02 13.72 56.95 13.72"/><polygon class="cls-4" points="13.05 13.72 13.05 12.34 14.99 13.03 14.99 13.72 13.05 13.72"/><polygon class="cls-4" points="47.05 13.72 47.05 12.34 48.98 13.03 48.98 13.72 47.05 13.72"/></g></g></svg>