<svg xmlns="http://www.w3.org/2000/svg" viewBox="0 0 43.69 70"><defs><style>.cls-1{fill:#f0e3d3;}.cls-2{fill:#666;}.cls-3{fill:#3d3d3d;}.cls-4{fill:#b89e80;}.cls-5{opacity:0.2;}.cls-6{fill:#fff;}.cls-6,.cls-9{opacity:0.3;}.cls-7{fill:#303030;}.cls-8,.cls-9{fill:#4d4d4d;}</style></defs><title>Asset 12</title><g id="Layer_2" data-name="Layer 2"><g id="Icons"><path class="cls-1" d="M27.64,42.17c0,.74,0,1.62,0,2.6v.59c0,.41,0,.83,0,1.27v.18q0,1.21,0,2.52v.3a2.81,2.81,0,0,1,0,.29c0,.42,0,.85,0,1.27,0,.9,0,1.81-.05,2.71,0,.63,0,1.26,0,1.86-.13,4.77-.33,8.85-.66,9.29a10.23,10.23,0,0,1-4.22,2.27,28.12,28.12,0,0,1-8.78,1.3,29.22,29.22,0,0,1-7.51-.92,19.48,19.48,0,0,1-3-1.06A7.2,7.2,0,0,1,.82,65.05c-.33-.44-.53-4.52-.66-9.29,0-.6,0-1.23,0-1.86,0-.9,0-1.81,0-2.71,0-.42,0-.85,0-1.27a2.81,2.81,0,0,1,0-.29v-.3q0-1.41,0-2.7c0-.55,0-1.07,0-1.57v-.29c0-1,0-1.86,0-2.6A33.75,33.75,0,0,1,2,31.63c.2-.59.41-1.15.61-1.68.49-1.29,1-2.38,1.29-3.16C5.13,24,9.14,18.25,9.09,14.38c0-1.56-2.44-3.26-3.59-5C4,7.17,3.57,4.87,3.57,1.16h20.5c0,3.71-.44,6-1.93,8.24-1.15,1.72-3.57,3.42-3.59,5-.05,3.87,4,9.66,5.15,12.41.34.78.8,1.87,1.29,3.16.2.53.4,1.09.61,1.68A33.75,33.75,0,0,1,27.64,42.17Z"/><path class="cls-2" d="M25.6,31.63a17.75,17.75,0,0,1-2.37.59,53.84,53.84,0,0,1-9.41.74,53.84,53.84,0,0,1-9.41-.74A17.75,17.75,0,0,1,2,31.63c.2-.59.41-1.15.61-1.68.49-1.29,1-2.38,1.29-3.16C5.13,24,9.14,18.25,9.09,14.38c0-1.56-2.44-3.26-3.59-5C4,7.17,3.57,4.87,3.57,1.16h20.5c0,3.71-.44,6-1.93,8.24-1.15,1.72-3.57,3.42-3.59,5-.05,3.87,4,9.66,5.15,12.41.34.78.8,1.87,1.29,3.16C25.19,30.48,25.39,31,25.6,31.63Z"/><path class="cls-3" d="M25.6,31.63a17.75,17.75,0,0,1-2.37.59,53.84,53.84,0,0,1-9.41.74,53.84,53.84,0,0,1-9.41-.74A17.75,17.75,0,0,1,2,31.63c.2-.59.41-1.15.61-1.68,1.73.58,5.5,1.22,11.17,1.22S23.26,30.53,25,30C25.19,30.48,25.39,31,25.6,31.63Z"/><path class="cls-4" d="M27.63,44.77c0,.58,0,1.21,0,1.86-.6.16-1.3.32-2.08.47A67.71,67.71,0,0,1,13.82,48,67.71,67.71,0,0,1,2.1,47.1C1.32,47,.62,46.79,0,46.63c0-.65,0-1.28,0-1.86,2.29.71,6.89,1.45,13.81,1.45S25.34,45.48,27.63,44.77Z"/><path class="cls-4" d="M27.59,49.33v.3a2.81,2.81,0,0,1,0,.29c0,.42,0,.85,0,1.27-.6.16-1.27.31-2,.46-1.59.29-3.44.52-5.46.68s-4.08.23-6.26.23c-2,0-3.9-.07-5.71-.19a54.68,54.68,0,0,1-5.88-.7l-.13,0c-.76-.15-1.43-.3-2-.46,0-.42,0-.85,0-1.27a2.81,2.81,0,0,1,0-.29v-.3a20.75,20.75,0,0,0,2.16.53,49,49,0,0,0,5.89.72c1.68.12,3.59.19,5.72.19,2.35,0,4.44-.08,6.26-.22A37.67,37.67,0,0,0,27.59,49.33Z"/><path class="cls-4" d="M27.52,53.9c0,.63,0,1.26,0,1.86-.57.16-1.22.3-1.94.44a54.06,54.06,0,0,1-5.39.68c-2,.15-4.13.23-6.33.23-2,0-3.85-.06-5.64-.18a51.86,51.86,0,0,1-5.86-.7l-.22,0c-.72-.14-1.37-.28-1.94-.44,0-.6,0-1.23,0-1.86a21.7,21.7,0,0,0,2.16.52,49.09,49.09,0,0,0,5.87.72c1.68.12,3.57.19,5.67.19,2.37,0,4.47-.09,6.3-.23A36.9,36.9,0,0,0,27.52,53.9Z"/><path class="cls-5" d="M.12,53.9v.6c2.33.7,6.89,1.42,13.69,1.42s11.36-.72,13.69-1.42c0-.2,0-.4,0-.6-2.32.71-6.89,1.43-13.7,1.43S2.44,54.61.12,53.9Z"/><path class="cls-5" d="M13.82,46.82c6.91,0,11.51-.75,13.81-1.46v-.59c-2.29.71-6.89,1.45-13.81,1.45S2.3,45.48,0,44.77v.59C2.3,46.07,6.91,46.82,13.82,46.82Z"/><path class="cls-5" d="M27.59,49.33v.59h0a36.23,36.23,0,0,1-7.5,1.22c-1.82.14-3.91.23-6.26.23-2.12,0-4-.07-5.72-.19a48.75,48.75,0,0,1-5.88-.73,20.75,20.75,0,0,1-2.16-.53h0v-.59a20.75,20.75,0,0,0,2.16.53,49,49,0,0,0,5.89.72c1.68.12,3.59.19,5.72.19,2.35,0,4.44-.08,6.26-.22A37.67,37.67,0,0,0,27.59,49.33Z"/><path class="cls-6" d="M13.78,14.38c0,3.87-2.49,9.66-3.24,12.41-.22.78-.51,1.87-.82,3.16-.12.53-.25,1.09-.38,1.68A51.72,51.72,0,0,0,8.06,42.17v2.6c0,.58,0,1.21,0,1.86,0,.86,0,1.76,0,2.7,0,.61,0,1.23,0,1.86l0,2.71c0,.63,0,1.26,0,1.86,0,2.6.15,7.88.27,12.21a7.3,7.3,0,0,0-2.12-.27,19.48,19.48,0,0,1-3-1.06,95.05,95.05,0,0,1-1-10.88c0-.6,0-1.23,0-1.86l0-2.71c0-.63,0-1.25,0-1.86q0-1.41,0-2.7c0-.65,0-1.28,0-1.86v-2.6A39.14,39.14,0,0,1,3.89,31.63q.25-.89.51-1.68c.41-1.29.8-2.38,1.08-3.16,1-2.75,4.39-8.54,4.35-12.41,0-1.56-2.06-3.26-3-5C5.55,7.17,5.17,4.87,5.17,1.16H10.3c0,3.71.28,6,1.22,8.24C12.24,11.12,13.77,12.82,13.78,14.38Z"/><path class="cls-7" d="M24.05,1.16c0,.63-4.58,1.15-10.23,1.15S3.58,1.79,3.58,1.16,8.17,0,13.82,0,24.05.52,24.05,1.16Z"/><path class="cls-8" d="M13.82,0C8.17,0,3.58.52,3.58,1.16c0,.22.59.44,1.59.62a41.29,41.29,0,0,0,5.14.46c1.1,0,2.28.07,3.51.07,5.65,0,10.23-.52,10.23-1.15S19.47,0,13.82,0Zm0,1.72c-1.28,0-2.45,0-3.51-.07a40.08,40.08,0,0,1-5.14-.48h-.1A53.2,53.2,0,0,1,13.82.59a53.2,53.2,0,0,1,8.75.57A53.53,53.53,0,0,1,13.82,1.72Z"/><path class="cls-9" d="M27.62,46.81q0,1.21,0,2.52v.59h0c0,.42,0,.85,0,1.27,0,.9,0,1.81-.05,2.71,0,.63,0,1.26,0,1.86-.13,4.77-.33,8.85-.66,9.29a10.23,10.23,0,0,1-4.22,2.27,7.54,7.54,0,0,1-2.06-3.38,23.17,23.17,0,0,1-.28-3.28c-.05-1.13-.08-2.43-.11-3.78,0-.4,0-.79,0-1.19V55.1q0-1,0-1.92c0-.29,0-.57,0-.85V50.55c0-.62,0-1.18,0-1.66v-.46h0c0-.27.42-.52,1.16-.75a27.56,27.56,0,0,1,5.36-.8Z"/><path class="cls-1" d="M32.54,49.64H21.4c0,3.49.05,13.19.44,14.64a7.33,7.33,0,0,0,3.87,4.53,20.22,20.22,0,0,0,13.67,0,7.35,7.35,0,0,0,3.86-4.53c.39-1.45.45-11.15.45-14.64Z"/><path class="cls-2" d="M43.69,49.64c0,1.06,0,2.69,0,4.49,0,.61,0,1.23,0,1.86-.49.14-1,.27-1.69.39a53.93,53.93,0,0,1-9.41.73,54,54,0,0,1-9.41-.73c-.63-.12-1.19-.25-1.69-.39,0-.63,0-1.25,0-1.86,0-1.8,0-3.43,0-4.49H43.69Z"/><path class="cls-3" d="M43.66,54.13c0,.61,0,1.23,0,1.86-.49.14-1,.27-1.69.39a53.93,53.93,0,0,1-9.41.73,54,54,0,0,1-9.41-.73c-.63-.12-1.19-.25-1.69-.39,0-.63,0-1.25,0-1.86a40.05,40.05,0,0,0,11.12,1.2A40,40,0,0,0,43.66,54.13Z"/><path class="cls-6" d="M30.54,68.81A7.25,7.25,0,0,1,28,64.28c-.26-1.45-.29-11.15-.29-14.64H23.12c0,3.49.05,13.19.39,14.64a7.16,7.16,0,0,0,3.34,4.53A15.79,15.79,0,0,0,32.75,70q.66,0,1.29-.06A9.83,9.83,0,0,1,30.54,68.81Z"/><path class="cls-7" d="M43.68,49.64c0,.91-5,1.64-11.14,1.64S21.4,50.55,21.4,49.64,26.39,48,32.54,48,43.68,48.74,43.68,49.64Z"/><path class="cls-8" d="M32.54,48.75a40.4,40.4,0,0,1,9.84.89,39.68,39.68,0,0,1-9.84.9,39.68,39.68,0,0,1-9.84-.9,40.4,40.4,0,0,1,9.84-.89Zm0-.74c-6.15,0-11.14.73-11.14,1.63s5,1.64,11.14,1.64,11.14-.73,11.14-1.64S38.7,48,32.54,48Z"/></g></g></svg>