<svg xmlns="http://www.w3.org/2000/svg" viewBox="0 0 37.24 80"><defs><style>.cls-1{fill:#fdbc1b;}.cls-2{fill:#c92322;}.cls-3{opacity:0.2;}.cls-4{fill:#fff;opacity:0.3;}.cls-5{fill:#eb2928;}.cls-6{fill:#b31f1e;}</style></defs><title>Asset 6</title><g id="Layer_2" data-name="Layer 2"><g id="Icons"><path class="cls-1" d="M18.62,73.68a.42.42,0,0,1-.42-.42V65.7a.42.42,0,0,1,.84,0v7.56A.42.42,0,0,1,18.62,73.68Z"/><polygon class="cls-1" points="21.32 80 15.92 80 16.66 74.1 16.76 73.26 20.48 73.26 20.58 74.1 21.32 80"/><path class="cls-1" d="M20.08,69.48A1.46,1.46,0,1,1,18.62,68,1.46,1.46,0,0,1,20.08,69.48Z"/><path class="cls-1" d="M18.62,11.94a.83.83,0,0,1-.84-.84c0-1.5,0-2.53,0-3.25A4.13,4.13,0,0,1,14.17,4a4.24,4.24,0,0,1,4.45-4,4.24,4.24,0,0,1,4.45,4,.85.85,0,0,1-1.69,0,2.56,2.56,0,0,0-2.76-2.28A2.56,2.56,0,0,0,15.86,4a2.56,2.56,0,0,0,2.76,2.27v.84h.84v4A.84.84,0,0,1,18.62,11.94Z"/><rect class="cls-2" x="10.42" y="11.1" width="16.4" height="2.79"/><rect class="cls-3" x="10.42" y="13.17" width="16.4" height="0.72"/><rect class="cls-4" x="12.11" y="11.1" width="3.66" height="2.79"/><rect class="cls-2" x="10.42" y="62.92" width="16.4" height="2.79"/><rect class="cls-3" x="10.42" y="62.92" width="16.4" height="0.72"/><rect class="cls-4" x="12.11" y="62.92" width="3.66" height="2.79"/><path class="cls-5" d="M27.94,13.89H9.3c-4.9,0-8.88,4.4-8.88,9.84V53.08c0,5.43,4,9.84,8.88,9.84H27.94c4.91,0,8.88-4.41,8.88-9.84V23.73C36.82,18.29,32.85,13.89,27.94,13.89Z"/><path class="cls-6" d="M13.66,13.89a3.45,3.45,0,0,0-2.49,1.86,10.61,10.61,0,0,0-1.16,3,17.91,17.91,0,0,0-.45,3.18c-.06,1.07,0,2.14,0,3.26.14,4.41.17,8.82.19,13.23s0,8.83-.18,13.24c0,1.11-.09,2.18,0,3.25A17.25,17.25,0,0,0,10,58.08a10.92,10.92,0,0,0,1.16,3,3.5,3.5,0,0,0,2.49,1.86A2.78,2.78,0,0,1,12,62.48a5.1,5.1,0,0,1-1.25-1.16,10.42,10.42,0,0,1-1.57-3A17.93,17.93,0,0,1,8.47,55a32,32,0,0,1-.2-3.35c-.13-4.41-.17-8.83-.18-13.24s.05-8.82.18-13.23a32.18,32.18,0,0,1,.2-3.36,17.83,17.83,0,0,1,.75-3.31,10.73,10.73,0,0,1,1.57-3,5.15,5.15,0,0,1,1.26-1.16A2.72,2.72,0,0,1,13.66,13.89Z"/><path class="cls-6" d="M23.58,62.92a3.48,3.48,0,0,0,2.49-1.86,10.61,10.61,0,0,0,1.16-3,18.16,18.16,0,0,0,.45-3.19c.06-1.06,0-2.14,0-3.25-.14-4.41-.18-8.83-.19-13.24s.05-8.82.18-13.23c0-1.12.09-2.19,0-3.26a17,17,0,0,0-.44-3.18,10.92,10.92,0,0,0-1.16-3,3.45,3.45,0,0,0-2.49-1.86,2.72,2.72,0,0,1,1.61.43,5.15,5.15,0,0,1,1.26,1.16,10.47,10.47,0,0,1,1.57,3,17.83,17.83,0,0,1,.75,3.31,32.18,32.18,0,0,1,.2,3.36c.13,4.41.17,8.82.18,13.23s0,8.83-.18,13.24c0,1.09,0,2.22-.2,3.35A17.93,17.93,0,0,1,28,58.31a10.67,10.67,0,0,1-1.57,3,5,5,0,0,1-1.26,1.16A2.73,2.73,0,0,1,23.58,62.92Z"/><path class="cls-2" d="M32.28,15.56H5a.42.42,0,1,1,0-.84H32.28a.42.42,0,0,1,0,.84Z"/><path class="cls-2" d="M35.19,18.47H2.05a.42.42,0,0,1-.42-.42.42.42,0,0,1,.42-.42H35.19a.42.42,0,0,1,.42.42A.42.42,0,0,1,35.19,18.47Z"/><path class="cls-2" d="M36.82,21.38H.42A.42.42,0,0,1,0,21a.42.42,0,0,1,.42-.42h36.4a.42.42,0,0,1,.42.42A.42.42,0,0,1,36.82,21.38Z"/><path class="cls-2" d="M36.82,24.29H.42a.43.43,0,0,1,0-.85h36.4a.43.43,0,0,1,0,.85Z"/><path class="cls-2" d="M36.82,27.19H.42a.42.42,0,0,1,0-.84h36.4a.42.42,0,1,1,0,.84Z"/><path class="cls-2" d="M36.82,30.1H.42a.42.42,0,0,1,0-.84h36.4a.42.42,0,0,1,0,.84Z"/><path class="cls-2" d="M36.82,33H.42A.42.42,0,0,1,0,32.59a.42.42,0,0,1,.42-.42h36.4a.42.42,0,0,1,.42.42A.42.42,0,0,1,36.82,33Z"/><path class="cls-2" d="M36.82,35.92H.42a.43.43,0,0,1,0-.85h36.4a.43.43,0,0,1,0,.85Z"/><path class="cls-2" d="M36.82,38.82H.42A.42.42,0,0,1,0,38.4.42.42,0,0,1,.42,38h36.4a.42.42,0,0,1,.42.42A.42.42,0,0,1,36.82,38.82Z"/><path class="cls-2" d="M36.82,41.73H.42a.42.42,0,1,1,0-.84h36.4a.42.42,0,0,1,0,.84Z"/><path class="cls-2" d="M36.82,44.64H.42a.42.42,0,0,1,0-.84h36.4a.42.42,0,0,1,0,.84Z"/><path class="cls-2" d="M36.82,47.55H.42A.42.42,0,0,1,0,47.13a.42.42,0,0,1,.42-.42h36.4a.42.42,0,0,1,.42.42A.42.42,0,0,1,36.82,47.55Z"/><path class="cls-2" d="M36.82,50.46H.42a.43.43,0,0,1,0-.85h36.4a.43.43,0,0,1,0,.85Z"/><path class="cls-2" d="M36.82,53.36H.42a.42.42,0,1,1,0-.84h36.4a.42.42,0,1,1,0,.84Z"/><path class="cls-2" d="M36.82,56.27H.42a.42.42,0,0,1,0-.84h36.4a.42.42,0,0,1,0,.84Z"/><path class="cls-2" d="M35.19,59.18H2.05a.43.43,0,0,1,0-.85H35.19a.43.43,0,0,1,0,.85Z"/><path class="cls-2" d="M32.29,62.08H5a.42.42,0,1,1,0-.84H32.29a.42.42,0,1,1,0,.84Z"/><polygon class="cls-2" points="20.58 74.1 16.66 74.1 16.76 73.26 20.48 73.26 20.58 74.1"/></g></g></svg>