<svg xmlns="http://www.w3.org/2000/svg" viewBox="0 0 61.01 80"><defs><style>.cls-1{fill:#d9533f;}.cls-2{fill:#ed6a56;}.cls-3{fill:#d1503d;}.cls-4{fill:#de5540;}</style></defs><title>Asset 9</title><g id="Layer_2" data-name="Layer 2"><g id="Icons"><polygon class="cls-1" points="21.64 58.01 18.18 74.98 8.31 76.71 21.64 58.01"/><polygon class="cls-1" points="37.92 23.55 14.89 5.02 24.41 46.06 42.67 57.3 37.92 23.55"/><polygon class="cls-2" points="61.01 42.42 61.01 51.43 53.33 46.93 61.01 42.42"/><polygon class="cls-2" points="61.01 42.42 48.14 38.96 32.73 42.42 49.52 62.68 61.01 42.42"/><polygon class="cls-2" points="49.52 62.68 44.68 20.78 23.03 0 25.28 43.64 49.52 62.68"/><polygon class="cls-2" points="49.52 62.68 14.89 69.43 25.28 43.64 49.52 62.68"/><polygon class="cls-2" points="25.28 43.64 12.99 77.75 0 80 25.28 43.64"/><polygon class="cls-1" points="61.01 42.42 57.17 49.18 58.12 49.73 61.01 42.42"/><polygon class="cls-1" points="49.52 62.68 48.14 38.96 46.81 39.26 49.52 62.68"/><polygon class="cls-3" points="16.07 69.2 17.66 68.89 25.28 43.64 16.07 69.2"/><polygon class="cls-3" points="23.65 12.07 25.28 43.64 21.64 10.46 23.65 12.07"/><path class="cls-4" d="M49.52,62.68c-2.08-1.5-4.13-3-6.17-4.61s-4.07-3.15-6.1-4.72-4-3.18-6-4.8l-3-2.44c-1-.82-2-1.64-3-2.47,1,.75,2.07,1.52,3.11,2.28l3.07,2.33c2,1.55,4.06,3.14,6.09,4.72s4,3.18,6,4.8S47.57,61,49.52,62.68Z"/></g></g></svg>