<svg xmlns="http://www.w3.org/2000/svg" viewBox="0 0 80 61.12"><defs><style>.cls-1{fill:#ae6e12;}.cls-2{fill:#723813;}.cls-3{fill:#bdbdbd;}.cls-4{fill:#dedede;}.cls-5{fill:#e9e9e9;}.cls-6{fill:#ccc;}.cls-7{fill:#f0f0f0;}.cls-8{fill:#aeaeae;}.cls-9{fill:#ededed;}.cls-10{fill:#c92322;}.cls-11{fill:#fdbc1b;}.cls-12{opacity:0.2;}.cls-13{fill:#ebb26f;}.cls-14{fill:#cd8339;}.cls-15{fill:#fff;opacity:0.3;}</style></defs><title>Asset 5</title><g id="Layer_2" data-name="Layer 2"><g id="Icons"><rect class="cls-1" x="18.43" y="28.91" width="42.67" height="24.19"/><rect class="cls-2" x="18.43" y="51.37" width="42.67" height="1.74"/><rect class="cls-2" x="18.43" y="38.25" width="42.67" height="0.37"/><rect class="cls-1" x="24.82" y="11.35" width="30.11" height="12.13"/><rect class="cls-3" x="12.57" y="53.09" width="54.44" height="8.02"/><polygon class="cls-4" points="47.17 53.09 48 53.09 51.13 59.09 50.2 59.09 47.17 53.09"/><rect class="cls-5" x="50.2" y="59.08" width="0.93" height="2.03"/><polygon class="cls-6" points="50.2 61.12 50.2 59.09 47.17 53.09 47.17 55.67 50.2 61.12"/><polygon class="cls-4" points="32.42 53.09 31.59 53.09 28.46 59.09 29.39 59.09 32.42 53.09"/><rect class="cls-5" x="28.46" y="59.08" width="0.92" height="2.03"/><polygon class="cls-6" points="29.39 61.12 29.39 59.09 32.42 53.09 32.42 55.67 29.39 61.12"/><rect class="cls-7" x="31.76" y="55.28" width="16.05" height="1.19"/><polygon class="cls-8" points="48.92 57.45 30.64 57.45 31.76 56.47 47.81 56.47 48.92 57.45"/><polygon class="cls-8" points="50.2 59.62 29.36 59.62 30.64 58.66 48.92 58.66 50.2 59.62"/><rect class="cls-7" x="30.64" y="57.45" width="18.28" height="1.21"/><polygon class="cls-8" points="47.15 54.28 32.41 54.28 31.76 55.28 47.81 55.28 47.15 54.28"/><rect class="cls-9" x="29.36" y="59.62" width="20.84" height="1.48"/><rect class="cls-10" x="34.72" y="40.95" width="10.3" height="12.16"/><rect class="cls-11" x="35.35" y="41.71" width="4.03" height="8.02"/><rect class="cls-11" x="40.36" y="41.71" width="4.03" height="8.02"/><rect class="cls-11" x="35.35" y="50.4" width="4.03" height="1.94"/><rect class="cls-11" x="40.36" y="50.4" width="4.03" height="1.94"/><rect class="cls-12" x="39.74" y="40.95" width="0.26" height="12.16"/><rect class="cls-13" x="23.95" y="18.01" width="31.85" height="0.85"/><polygon class="cls-2" points="59.32 24.62 20.43 24.62 19.88 23.34 59.87 23.34 59.32 24.62"/><polygon class="cls-2" points="59.32 27.41 20.43 27.41 19.88 26.13 59.87 26.13 59.32 27.41"/><rect class="cls-2" x="26.19" y="19.81" width="7.16" height="3.11"/><rect class="cls-14" x="26.09" y="19.81" width="0.19" height="3.11"/><rect class="cls-14" x="26.99" y="19.81" width="0.19" height="3.11"/><rect class="cls-14" x="27.88" y="19.81" width="0.19" height="3.11"/><rect class="cls-14" x="28.78" y="19.81" width="0.19" height="3.11"/><rect class="cls-14" x="29.67" y="19.81" width="0.19" height="3.11"/><rect class="cls-14" x="30.57" y="19.81" width="0.19" height="3.11"/><rect class="cls-14" x="31.46" y="19.81" width="0.19" height="3.11"/><rect class="cls-14" x="32.36" y="19.81" width="0.19" height="3.11"/><rect class="cls-14" x="33.25" y="19.81" width="0.19" height="3.11"/><rect class="cls-2" x="36.29" y="19.81" width="7.16" height="3.11"/><rect class="cls-14" x="36.19" y="19.81" width="0.19" height="3.11"/><rect class="cls-14" x="37.09" y="19.81" width="0.19" height="3.11"/><rect class="cls-14" x="37.98" y="19.81" width="0.19" height="3.11"/><rect class="cls-14" x="38.88" y="19.81" width="0.19" height="3.11"/><rect class="cls-14" x="39.77" y="19.81" width="0.19" height="3.11"/><rect class="cls-14" x="40.67" y="19.81" width="0.19" height="3.11"/><rect class="cls-14" x="41.57" y="19.81" width="0.19" height="3.11"/><rect class="cls-14" x="42.46" y="19.81" width="0.19" height="3.11"/><rect class="cls-14" x="43.36" y="19.81" width="0.19" height="3.11"/><rect class="cls-2" x="46.39" y="19.81" width="7.16" height="3.11"/><rect class="cls-14" x="46.29" y="19.81" width="0.19" height="3.11"/><rect class="cls-14" x="47.19" y="19.81" width="0.19" height="3.11"/><rect class="cls-14" x="48.09" y="19.81" width="0.19" height="3.11"/><rect class="cls-14" x="48.98" y="19.81" width="0.19" height="3.11"/><rect class="cls-14" x="49.88" y="19.81" width="0.19" height="3.11"/><rect class="cls-14" x="50.77" y="19.81" width="0.19" height="3.11"/><rect class="cls-14" x="51.67" y="19.81" width="0.19" height="3.11"/><rect class="cls-14" x="52.56" y="19.81" width="0.19" height="3.11"/><rect class="cls-14" x="53.46" y="19.81" width="0.19" height="3.11"/><rect class="cls-1" x="21.04" y="24.62" width="37.66" height="1.51"/><rect class="cls-10" x="21.16" y="20.41" width="1.21" height="2.93"/><rect class="cls-10" x="30.21" y="20.41" width="1.21" height="2.93"/><rect class="cls-10" x="39.26" y="20.41" width="1.21" height="2.93"/><rect class="cls-10" x="48.32" y="20.41" width="1.21" height="2.93"/><rect class="cls-10" x="57.37" y="20.41" width="1.21" height="2.93"/><rect class="cls-10" x="22.38" y="20.91" width="34.99" height="0.46"/><rect class="cls-10" x="22.38" y="22.15" width="34.99" height="0.46"/><rect class="cls-2" x="49.94" y="40.27" width="8.1" height="7.23"/><rect class="cls-14" x="49.81" y="40.27" width="0.27" height="7.23"/><rect class="cls-14" x="50.82" y="40.27" width="0.28" height="7.23"/><rect class="cls-14" x="51.83" y="40.27" width="0.27" height="7.23"/><rect class="cls-14" x="52.84" y="40.27" width="0.27" height="7.23"/><rect class="cls-14" x="53.86" y="40.27" width="0.28" height="7.23"/><rect class="cls-14" x="54.87" y="40.27" width="0.27" height="7.23"/><rect class="cls-14" x="55.88" y="40.27" width="0.27" height="7.23"/><rect class="cls-14" x="56.89" y="40.27" width="0.27" height="7.23"/><rect class="cls-14" x="57.91" y="40.27" width="0.27" height="7.23"/><rect class="cls-2" x="21.49" y="40.27" width="8.1" height="7.23"/><rect class="cls-14" x="21.35" y="40.27" width="0.27" height="7.23"/><rect class="cls-14" x="22.37" y="40.27" width="0.27" height="7.23"/><rect class="cls-14" x="23.38" y="40.27" width="0.28" height="7.23"/><rect class="cls-14" x="24.39" y="40.27" width="0.27" height="7.23"/><rect class="cls-14" x="25.4" y="40.27" width="0.27" height="7.23"/><rect class="cls-14" x="26.41" y="40.27" width="0.27" height="7.23"/><rect class="cls-14" x="27.43" y="40.27" width="0.27" height="7.23"/><rect class="cls-14" x="28.44" y="40.27" width="0.27" height="7.23"/><rect class="cls-14" x="29.45" y="40.27" width="0.27" height="7.23"/><rect class="cls-1" x="22.58" y="2.7" width="34.67" height="2.01"/><path class="cls-13" d="M57,1.35H22.76A5.7,5.7,0,0,1,20.1,0V1.79a7,7,0,0,0,2.8.91h34a7,7,0,0,0,2.79-.91V0A5.7,5.7,0,0,1,57,1.35Z"/><path class="cls-13" d="M69.47,10.82a9.92,9.92,0,0,1-2,1.32h0l-.42.21c-.51.25-1.07.49-1.66.71h0l-.49.18c-.7.25-1.46.49-2.26.71h0l-.47.13h0c-.83.22-1.71.42-2.63.61l-.4.08h0c-.87.17-1.77.33-2.71.47l-.33,0h0c-.86.13-1.75.25-2.66.36l-.29,0c-.84.1-1.71.18-2.59.26l-.3,0c-.81.07-1.64.13-2.47.18l-.29,0c-.79.05-1.6.09-2.41.12h-.27q-1.17,0-2.34.06h-.28l-2.26,0h-.28l-2.27,0h-.27q-1.19,0-2.34-.06h-.28q-1.22,0-2.4-.12l-.29,0C31,16.09,30.17,16,29.36,16l-.31,0c-.88-.08-1.74-.16-2.58-.26l-.29,0q-1.37-.17-2.67-.36h0l-.34,0c-.93-.14-1.83-.3-2.7-.47h0l-.39-.08c-.92-.19-1.8-.39-2.63-.61L17,14h0c-.8-.22-1.55-.46-2.26-.71l-.48-.18a17.25,17.25,0,0,1-1.66-.71l-.42-.21a10.32,10.32,0,0,1-2-1.32c1.65.12,5.28.35,8-2C19.77,7.46,20,4.71,20,4.71H59.64s.23,2.75,1.83,4.12C64.19,11.17,67.83,10.94,69.47,10.82Z"/><path class="cls-10" d="M69.47,10.82c-.09,0-1.87,1.27-2,1.32h0l-.42.21c-.51.25-1.07.49-1.66.71h0l-.49.18c-.7.25-1.46.49-2.26.71h0l-.47.13h0c-.83.22-1.71.42-2.63.61l-.4.08h0c-.87.17-1.77.33-2.71.47l-.33,0h0c-.86.13-1.75.25-2.66.36l-.29,0c-.84.1-1.71.18-2.59.26l-.3,0c-.81.07-1.64.13-2.47.18l-.29,0c-.79.05-1.6.09-2.41.12h-.27q-1.17,0-2.34.06h-.28l-2.26,0h-.28l-2.27,0h-.27q-1.19,0-2.34-.06h-.28q-1.22,0-2.4-.12l-.29,0C31,16.09,30.17,16,29.36,16l-.31,0c-.88-.08-1.74-.16-2.58-.26l-.29,0q-1.37-.17-2.67-.36h0l-.34,0c-.93-.14-1.83-.3-2.7-.47h0l-.39-.08c-.92-.19-1.8-.39-2.63-.61L17,14h0c-.8-.22-1.55-.46-2.26-.71l-.48-.18a17.25,17.25,0,0,1-1.66-.71l-.42-.21c-.1-.05-1.89-1.26-2-1.32a6.29,6.29,0,0,0,2,2.42l.42.21c.51.25,1.06.48,1.66.71l.48.18c.71.25,1.46.49,2.26.71h0l.47.12c.83.22,1.71.43,2.63.62l.39.08h0c.87.17,1.77.33,2.7.47l.34.05h0q1.3.2,2.67.36l.29,0,2.58.26.31,0c.81.07,1.64.13,2.47.18l.29,0c.79,0,1.59.09,2.4.12h.28q1.16,0,2.34.06h.27l2.27,0H40l2.26,0h.28q1.17,0,2.34-.06h.27c.81,0,1.62-.08,2.41-.12l.29,0c.83,0,1.66-.11,2.47-.18l.3,0,2.59-.26.29,0c.91-.11,1.8-.23,2.66-.36h0l.33-.05c.94-.14,1.84-.3,2.71-.47h0l.4-.08c.92-.19,1.8-.4,2.63-.61h0l.47-.13h0c.8-.22,1.56-.46,2.26-.71l.49-.18h0c.59-.23,1.15-.46,1.66-.71l.42-.21h0A9.09,9.09,0,0,0,69.47,10.82Z"/><path class="cls-14" d="M67.5,12.14l-.42.21a14.86,14.86,0,0,1-6.31-2.52,7,7,0,0,1-3.07-5.1l.12,0H58a6.73,6.73,0,0,0,3,4.9A14.64,14.64,0,0,0,67.5,12.14Z"/><path class="cls-14" d="M65.42,13.06l-.49.18a15,15,0,0,1-5.11-2.47c-1.66-1.23-3.68-3.27-3.92-6l.12,0h.15c.24,2.67,2.21,4.64,3.81,5.83A13.65,13.65,0,0,0,65.42,13.06Z"/><path class="cls-14" d="M62.67,14l-.47.13h0a12.33,12.33,0,0,1-2.73-1.59c-1.18-.87-5-4-5.38-7.76l.13,0h.15c.26,2.89,2.89,5.8,5.27,7.56A10.52,10.52,0,0,0,62.67,14Z"/><path class="cls-14" d="M59.57,14.69l-.4.08h0l-.37-.26c-2.52-1.87-6.22-6.5-6.51-9.78l.13,0h.15c.29,3.21,3.91,7.74,6.39,9.58C59.2,14.46,59.4,14.59,59.57,14.69Z"/><path class="cls-14" d="M56.46,15.24l-.33,0h0c-2.07-2.15-5.38-7.7-5.63-10.56l.12,0h.16C51,7.76,54.56,13.34,56.46,15.24Z"/><path class="cls-14" d="M53.46,15.65l-.29,0C51.48,13,48.9,7.08,48.69,4.73l.12,0H49C49.18,7.09,51.81,13.08,53.46,15.65Z"/><path class="cls-14" d="M50.58,15.94l-.3,0A64.46,64.46,0,0,1,46.89,4.73l.12,0h.16C47.34,6.67,49.3,12.83,50.58,15.94Z"/><path class="cls-14" d="M47.81,16.14l-.29,0c-1-3.8-2.33-10.28-2.43-11.43l.12,0h.15C45.49,6.17,46.84,12.51,47.81,16.14Z"/><path class="cls-14" d="M45.11,16.28h-.27C44.15,12,43.33,5.17,43.29,4.73l.12,0h.15C43.66,5.91,44.48,12.24,45.11,16.28Z"/><path class="cls-14" d="M42.5,16.35h-.28c-.14-2-.33-5-.6-9.38-.07-1.23-.12-2.12-.14-2.25l.12,0h.16c0,.18.06,1,.14,2.25C42,9.24,42.28,13.26,42.5,16.35Z"/><rect class="cls-14" x="39.68" y="4.71" width="0.27" height="11.67"/><path class="cls-14" d="M21.94,4.73a7,7,0,0,1-3.08,5.1,14.83,14.83,0,0,1-6.3,2.52l-.42-.21A14.69,14.69,0,0,0,18.7,9.61a6.76,6.76,0,0,0,3-4.9h.16Z"/><path class="cls-14" d="M23.74,4.73c-.24,2.77-2.26,4.81-3.92,6a15.08,15.08,0,0,1-5.12,2.47l-.48-.18a13.65,13.65,0,0,0,5.44-2.52c1.6-1.19,3.57-3.16,3.8-5.83h.16Z"/><path class="cls-14" d="M25.54,4.73c-.33,3.75-4.2,6.89-5.38,7.76a12.07,12.07,0,0,1-2.72,1.59L17,14a10.79,10.79,0,0,0,3-1.68c2.38-1.76,5-4.67,5.27-7.56h.15Z"/><path class="cls-14" d="M27.34,4.73c-.28,3.28-4,7.91-6.5,9.78l-.37.26h0l-.39-.08c.17-.1.37-.23.61-.4,2.47-1.84,6.1-6.37,6.39-9.58h.15Z"/><path class="cls-14" d="M29.14,4.73c-.24,2.86-3.56,8.41-5.63,10.56h0l-.34,0c1.91-1.9,5.42-7.48,5.7-10.53H29Z"/><path class="cls-14" d="M31,4.73c-.21,2.35-2.79,8.25-4.48,11l-.29,0c1.64-2.57,4.28-8.56,4.49-10.94h.16Z"/><path class="cls-14" d="M32.75,4.73A64.46,64.46,0,0,1,29.36,16l-.31,0c1.29-3.11,3.25-9.27,3.42-11.23h.16Z"/><path class="cls-14" d="M34.55,4.73c-.1,1.15-1.41,7.63-2.43,11.43l-.29,0c1-3.63,2.31-10,2.44-11.43h.16Z"/><path class="cls-14" d="M36.35,4.73c0,.44-.86,7.22-1.55,11.56h-.28c.63-4,1.45-10.37,1.56-11.57h.15Z"/><path class="cls-14" d="M38.15,4.73c0,.13-.06,1-.14,2.25-.26,4.36-.46,7.34-.6,9.38h-.27c.21-3.09.46-7.11.6-9.39.07-1.24.12-2.07.14-2.25H38Z"/><rect class="cls-11" x="39.2" y="2.7" width="1.3" height="1.3"/><rect class="cls-11" x="50.11" y="2.7" width="1.31" height="1.3"/><rect class="cls-11" x="28.28" y="2.7" width="1.3" height="1.3"/><rect class="cls-11" x="22.52" y="2.7" width="1.3" height="2"/><rect class="cls-11" x="55.91" y="2.7" width="1.3" height="2"/><rect class="cls-10" x="17.34" y="39.49" width="2.22" height="13.61"/><rect class="cls-11" x="17.34" y="50.06" width="2.22" height="3.05"/><rect class="cls-15" x="17.59" y="39.49" width="0.84" height="13.61"/><rect class="cls-10" x="31.56" y="39.49" width="2.22" height="13.61"/><rect class="cls-11" x="31.56" y="50.06" width="2.22" height="3.05"/><rect class="cls-15" x="31.81" y="39.49" width="0.84" height="13.61"/><rect class="cls-10" x="45.78" y="39.49" width="2.22" height="13.61"/><rect class="cls-11" x="45.78" y="50.06" width="2.22" height="3.05"/><rect class="cls-15" x="46.03" y="39.49" width="0.84" height="13.61"/><rect class="cls-10" x="59.99" y="39.49" width="2.22" height="13.61"/><rect class="cls-11" x="59.99" y="50.06" width="2.22" height="3.05"/><rect class="cls-15" x="60.25" y="39.49" width="0.84" height="13.61"/><rect class="cls-11" x="18.01" y="36.07" width="0.84" height="6.84"/><rect class="cls-11" x="32.23" y="36.07" width="0.84" height="6.84"/><rect class="cls-11" x="46.47" y="36.07" width="0.84" height="6.84"/><rect class="cls-11" x="60.7" y="36.07" width="0.84" height="6.84"/><path class="cls-13" d="M80,31.66a9.48,9.48,0,0,1-1.15.57l-.47.2h0c-.54.21-1.13.41-1.76.61h0l-.53.16q-1,.3-2.22.57h0l-.56.13h0c-.81.18-1.66.35-2.54.51l-.56.1c-.9.16-1.81.31-2.75.45h0l-.51.08h0l-2.84.39-.47,0-2.86.34-.42,0-2.84.29-.37,0-2.77.24-.34,0-2.71.2-.3,0-2.63.18h-.29c-.9.06-1.75.11-2.54.14l-.28,0-2.46.11h-.27c-1.06,0-1.87.06-2.37.06h-.28c-.52,0-1.38,0-2.5-.07h-.28L34.62,37h-.28l-2.53-.15h-.3l-2.62-.18-.3,0-2.71-.2-.33,0-2.78-.24-.36,0-2.84-.28-.42,0-2.85-.34-.47-.06c-1-.12-1.91-.25-2.84-.39L12.47,35h0c-.94-.15-1.85-.3-2.74-.46h0l-.56-.1h0c-.88-.16-1.72-.33-2.53-.51h0l-.57-.13c-.78-.18-1.52-.37-2.21-.57L3.33,33h0c-.64-.19-1.22-.4-1.76-.61l-.46-.19h0A11.45,11.45,0,0,1,0,31.66c2.78-.42,9-1.29,14-2.3l.09,0a25.33,25.33,0,0,0,6.5-1.89h0l.06,0H59.32l.31.18h0a26,26,0,0,0,5.6,1.62h0C70.35,30.29,77.08,31.22,80,31.66Z"/><path class="cls-10" d="M78.38,32.43h0c-.54.21-1.13.41-1.76.61h0l-.53.16q-1,.3-2.22.57h0l-.56.13h0c-.81.18-1.66.35-2.54.51l-.56.1c-.9.16-1.81.31-2.75.45h0l-.51.08h0l-2.84.39-.47,0-2.86.34-.42,0-2.84.29-.37,0-2.77.24-.34,0-2.71.2-.3,0-2.63.18h-.29c-.9.06-1.75.11-2.54.14l-.28,0-2.46.11h-.27c-1.06,0-1.87.06-2.37.06h-.28c-.52,0-1.38,0-2.5-.07h-.28L34.62,37h-.28l-2.53-.15h-.3l-2.62-.18-.3,0-2.71-.2-.33,0-2.78-.24-.36,0-2.84-.28-.42,0-2.85-.34-.47-.06c-1-.12-1.91-.25-2.84-.39L12.47,35h0c-.94-.15-1.85-.3-2.74-.46h0l-.56-.1h0c-.88-.16-1.72-.33-2.53-.51h0l-.57-.13c-.78-.18-1.52-.37-2.21-.57L3.33,33h0c-.64-.19-1.22-.4-1.76-.61L0,31.66a28.3,28.3,0,0,0,3.33,2.19h0l.53.15c.69.2,1.43.39,2.21.58l.57.13h0l2.53.51h0l.56.1h0c.89.16,1.8.31,2.74.45h0l.52.08,2.84.38.47.06c.94.12,1.9.24,2.85.34l.42,0c.95.11,1.9.2,2.84.29l.36,0,2.78.24.33,0,2.71.21.3,0,2.62.17.3,0,2.53.14h.28l2.46.12h.28c1.12,0,2,.06,2.5.06h.28c.5,0,1.31,0,2.37-.06h.27l2.46-.11h.28l2.54-.14.29,0L51,37.5l.3,0L54,37.27l.34,0L57.1,37l.37,0c.94-.09,1.89-.18,2.84-.29l.42,0c1-.1,1.91-.21,2.86-.33l.47-.06c1-.12,1.91-.25,2.84-.39h0l.51-.07h0l2.75-.46.56-.1c.88-.16,1.73-.33,2.54-.51h0l.56-.13h0Q75,34.32,76.08,34l.53-.16h0A29,29,0,0,0,80,31.66Z"/><path class="cls-14" d="M40.14,27.41V37.2h-.28V27.41h.28Z"/><path class="cls-14" d="M42.78,37.13h-.27c-.12-1-.25-2.1-.37-3.19-.3-2.62-.64-5.54-.8-6.54h.27c.12.71.33,2.41.8,6.51C42.54,35,42.67,36.13,42.78,37.13Z"/><path class="cls-14" d="M45.52,37l-.28,0c-.27-1.08-.57-2.31-.87-3.53-.56-2.32-1.25-5.13-1.57-6.08h.29c.26.8.71,2.58,1.55,6C44.94,34.66,45.24,35.92,45.52,37Z"/><path class="cls-14" d="M48.35,36.85h-.29c-.46-1.14-1-2.51-1.52-3.86-.83-2.13-1.83-4.7-2.28-5.59h.3c.42.83,1.12,2.61,2.23,5.49C47.34,34.28,47.88,35.69,48.35,36.85Z"/><path class="cls-14" d="M51.28,36.65l-.3,0c-.7-1.19-1.54-2.71-2.37-4.21-1.1-2-2.33-4.24-2.91-5.05H46c.55.83,1.5,2.53,2.81,4.91C49.71,33.87,50.57,35.45,51.28,36.65Z"/><path class="cls-14" d="M54.33,36.42l-.34,0c-1-1.24-2.23-2.93-3.45-4.59-1.35-1.83-2.73-3.71-3.4-4.45h.37c.71.83,1.91,2.46,3.25,4.28C52,33.35,53.31,35.16,54.33,36.42Z"/><path class="cls-14" d="M57.47,36.15l-.37,0c-1.36-1.3-3.22-3.26-4.92-5.06-1.48-1.56-2.89-3.05-3.61-3.71H49c.76.73,2,2.05,3.4,3.51C54.16,32.8,56.11,34.86,57.47,36.15Z"/><path class="cls-14" d="M60.73,35.82l-.42,0c-1.86-1.37-4.69-3.76-7.08-5.77C51.87,29,50.67,27.93,50,27.41h.46c.69.55,1.73,1.43,2.95,2.46C55.78,31.88,58.86,34.47,60.73,35.82Z"/><path class="cls-14" d="M64.06,35.43l-.47,0c-3-1.71-8.67-5.65-11.33-7.48-.33-.24-.62-.43-.85-.59h.49l.51.35C55.18,29.67,61.23,33.84,64.06,35.43Z"/><path class="cls-14" d="M67.42,35l-.51.08h0c-3.62-1.65-11.65-6.13-14.08-7.63h.54C56.28,29.16,64.26,33.58,67.42,35Z"/><path class="cls-14" d="M70.74,34.41l-.56.1a169.51,169.51,0,0,1-16-7.1h.58C58.11,29.16,67.41,33.27,70.74,34.41Z"/><path class="cls-14" d="M73.85,33.77l-.56.13h0C69,32.64,58.59,29,55.63,27.41h.63A178.46,178.46,0,0,0,73.85,33.77Z"/><path class="cls-14" d="M76.61,33l-.53.16C71.26,32,60.16,29,57,27.41h.67C61.52,29.05,72.32,32,76.61,33Z"/><path class="cls-14" d="M78.85,32.23l-.47.2h0c-5.4-1.08-16.7-3.49-20-5h.72l.49.18h0c1.37.5,3.36,1.06,5.6,1.62h0C69.8,30.37,75.35,31.54,78.85,32.23Z"/><path class="cls-14" d="M38.52,27.41c-.16,1-.49,3.92-.8,6.54-.12,1.09-.25,2.19-.36,3.18h-.28c.12-1,.25-2.1.37-3.2.47-4.1.68-5.8.8-6.51Z"/><path class="cls-14" d="M37.06,27.41c-.32.95-1,3.76-1.57,6.08-.29,1.22-.59,2.45-.87,3.52h-.28c.28-1.09.58-2.34.89-3.58.83-3.43,1.28-5.21,1.54-6Z"/><path class="cls-14" d="M35.6,27.41c-.45.89-1.45,3.46-2.28,5.59-.52,1.35-1,2.71-1.51,3.85h-.3c.47-1.15,1-2.56,1.56-3.94,1.12-2.88,1.82-4.66,2.23-5.49Z"/><path class="cls-14" d="M34.16,27.41c-.58.81-1.81,3-2.91,5.05-.82,1.49-1.66,3-2.36,4.2l-.3,0c.7-1.2,1.57-2.77,2.42-4.32,1.31-2.38,2.26-4.08,2.82-4.91Z"/><path class="cls-14" d="M32.72,27.41c-.67.74-2,2.62-3.39,4.45-1.22,1.65-2.47,3.34-3.45,4.58l-.33,0c1-1.27,2.34-3.06,3.56-4.72,1.33-1.82,2.53-3.45,3.24-4.28Z"/><path class="cls-14" d="M31.29,27.41c-.71.66-2.13,2.15-3.61,3.71-1.69,1.79-3.55,3.75-4.91,5.05l-.36,0c1.36-1.28,3.3-3.33,5.08-5.21,1.39-1.46,2.63-2.78,3.4-3.51Z"/><path class="cls-14" d="M29.87,27.41c-.67.52-1.88,1.54-3.23,2.68-2.38,2-5.21,4.39-7.07,5.76l-.42,0c1.87-1.36,4.94-3.94,7.32-5.94,1.21-1,2.25-1.91,3-2.46Z"/><path class="cls-14" d="M28.45,27.41c-.23.16-.52.35-.85.59-2.65,1.82-8.33,5.74-11.3,7.47l-.47-.06c2.85-1.6,8.87-5.75,11.62-7.65l.51-.35Z"/><path class="cls-14" d="M27.05,27.41C24.62,28.91,16.63,33.36,13,35L12.47,35c3.19-1.4,11.12-5.79,14-7.54Z"/><path class="cls-14" d="M25.64,27.41A170.65,170.65,0,0,1,9.73,34.49h0l-.56-.1c3.36-1.16,12.6-5.24,15.88-7Z"/><path class="cls-14" d="M24.23,27.41c-2.94,1.53-13.29,5.19-17.59,6.47h0l-.57-.13A174.34,174.34,0,0,0,23.6,27.41Z"/><path class="cls-14" d="M22.83,27.41c-3.12,1.53-14.11,4.58-19,5.77L3.33,33c4.34-1,15-4,18.83-5.61Z"/><path class="cls-14" d="M21.44,27.41c-3.23,1.52-14.43,3.91-19.87,5l-.46-.19c3.36-.67,8.54-1.77,12.92-2.86l.09,0a65.48,65.48,0,0,0,6.5-1.89h0l.1,0Z"/><rect class="cls-2" x="19.56" y="49.74" width="11.96" height="0.66"/><rect class="cls-2" x="48.01" y="49.74" width="11.96" height="0.66"/></g></g></svg>