<svg xmlns="http://www.w3.org/2000/svg" viewBox="0 0 32.72 80"><defs><style>.cls-1{fill:#666;}.cls-2{fill:#aeaeae;}.cls-3{fill:#f0f0f0;}.cls-4{fill:#ffb67f;}.cls-5{opacity:0.2;}.cls-6{fill:#ec8940;}.cls-7{fill:#c0c4c7;}.cls-8{fill:#ccc;}.cls-9{fill:#689cd5;}.cls-10{fill:#a1a1a1;}.cls-11{fill:#3d3d3d;}.cls-12{fill:#2c231d;}</style></defs><title>Asset 11</title><g id="Layer_2" data-name="Layer 2"><g id="Icons"><path class="cls-1" d="M17,74.48c-.51.53-.3,1.65.78,2.86a7.88,7.88,0,0,0,2.93,2.35,2.37,2.37,0,0,0,2.28,0c.46-.22,2-.48,1.13-1.88-.71-1.12-1.77-3.36-3.47-3.92A3.51,3.51,0,0,0,17,74.48Z"/><path class="cls-2" d="M17.27,74.1c-.51.53-.42,1.3.65,2.51a13.48,13.48,0,0,0,2.86,2.67,2.81,2.81,0,0,0,2.54-.06c.45-.22,1.7-.61.81-2-.71-1.13-1.77-3.36-3.47-3.93A3,3,0,0,0,17.27,74.1Z"/><path class="cls-3" d="M17.43,73.91a3.75,3.75,0,0,0,1.32,2.59,19.71,19.71,0,0,0,2.13,2.31c.62.38,1.37,0,1.26-.37.54.13,1.81,0,1.91-.6s-.46-1-.91-1.61a6.12,6.12,0,0,1-1.27-2.45,2.27,2.27,0,0,0-2.26-1.59A2,2,0,0,0,17.43,73.91Z"/><path class="cls-1" d="M22.14,78.76a.32.32,0,0,1-.27-.15c-1.42-2.12-2.78-2.89-4.28-2.42a.32.32,0,1,1-.19-.61c1.57-.5,3,.12,4.44,1.9.08-1,.34-1.91,1-2.2a.32.32,0,0,1,.42.17.32.32,0,0,1-.17.42c-.45.19-.7,1.16-.67,2.56a.3.3,0,0,1-.22.31Z"/><path class="cls-1" d="M15.7,74.48c.51.53.3,1.65-.78,2.86A7.86,7.86,0,0,1,12,79.69a2.39,2.39,0,0,1-2.29,0c-.45-.22-2-.48-1.13-1.88.72-1.12,1.77-3.36,3.47-3.92A3.5,3.5,0,0,1,15.7,74.48Z"/><path class="cls-2" d="M15.44,74.1c.51.53.43,1.3-.65,2.51a13.24,13.24,0,0,1-2.86,2.67,2.78,2.78,0,0,1-2.53-.06c-.46-.22-1.71-.61-.82-2,.72-1.13,1.77-3.36,3.47-3.93A3,3,0,0,1,15.44,74.1Z"/><path class="cls-3" d="M15.28,73.91A3.71,3.71,0,0,1,14,76.5a19.7,19.7,0,0,1-2.12,2.31c-.62.38-1.38,0-1.27-.37-.54.13-1.8,0-1.91-.6s.46-1,.92-1.61a6.23,6.23,0,0,0,1.26-2.45,2.27,2.27,0,0,1,2.26-1.59A2,2,0,0,1,15.28,73.91Z"/><path class="cls-1" d="M10.57,78.76l-.1,0a.32.32,0,0,1-.22-.31c0-1.4-.22-2.37-.66-2.56a.31.31,0,0,1-.18-.42.32.32,0,0,1,.42-.17c.7.29,1,1.23,1,2.2,1.41-1.78,2.87-2.4,4.45-1.9a.32.32,0,0,1,.21.4.33.33,0,0,1-.41.21c-1.49-.47-2.86.3-4.28,2.42A.31.31,0,0,1,10.57,78.76Z"/><path class="cls-4" d="M22.73,15.18V17l-6.18,9.47L10.11,17V15l.68-.24a31.56,31.56,0,0,0,2.86-1.72c.17-.09.32-.78.41-1.37,0-.11,0-.21,0-.31a.13.13,0,0,1,0-.06l.07-.53h4.34s0,.22.07.53a.13.13,0,0,0,0,.06c0,.1,0,.2,0,.31a7.74,7.74,0,0,0,.2.94h0s0,.1,0,.14a.56.56,0,0,0,.16.28l.12.07a28.83,28.83,0,0,0,2.74,1.65C22.15,14.86,22.23,15,22.73,15.18Z"/><path class="cls-5" d="M18.6,11.31a8.47,8.47,0,0,1-1,1,2.3,2.3,0,0,1-1.25.38,2.25,2.25,0,0,1-1.25-.38,7.74,7.74,0,0,1-1-1l.07-.53h4.34S18.55,11,18.6,11.31Z"/><path class="cls-4" d="M19.55,3.26c-.32-1.25-2.45-1.4-3.19-1.4s-2.88.15-3.19,1.4.06,5.73.13,6.38,1.47,2,1.81,2.21a2.24,2.24,0,0,0,1.25.37,2.29,2.29,0,0,0,1.25-.37c.33-.23,1.74-1.56,1.81-2.21S19.87,4.52,19.55,3.26Z"/><path class="cls-4" d="M19.56,6.56c0-.3.28-.82.52-.55s.15,1.26.05,1.61-.54,1.11-.71,1.09c0-.36.06-1,.09-1.3S19.54,6.81,19.56,6.56Z"/><path class="cls-6" d="M19.74,7a1.1,1.1,0,0,1,0-.54.16.16,0,0,1,.1-.14.16.16,0,0,1,.1,0l.06.06a.74.74,0,0,1,.08.28,1,1,0,0,1,0,.29,1.15,1.15,0,0,1-.12.25,1.77,1.77,0,0,0-.21.49,1.26,1.26,0,0,1,0-.27,1.89,1.89,0,0,1,.11-.25A2.5,2.5,0,0,0,20,7a.71.71,0,0,0,0-.25.67.67,0,0,0-.07-.24s0,0-.06,0,0,0-.06.08a1.09,1.09,0,0,0-.05.26A1.11,1.11,0,0,0,19.74,7Z"/><path class="cls-4" d="M13.15,6.48c0-.29-.28-.82-.52-.54s-.15,1.26-.05,1.6.54,1.12.71,1.1c0-.36-.06-1-.09-1.3S13.16,6.73,13.15,6.48Z"/><path class="cls-6" d="M13,6.94a1.22,1.22,0,0,0,0-.27.92.92,0,0,0-.06-.25s0-.08-.05-.08,0,0-.06,0a.56.56,0,0,0-.07.23.74.74,0,0,0,0,.26,2.34,2.34,0,0,0,.09.24,1.17,1.17,0,0,1,.1.26,1.28,1.28,0,0,1,.05.27,2,2,0,0,0-.21-.49,1.23,1.23,0,0,1-.12-.26.88.88,0,0,1,0-.28.69.69,0,0,1,.08-.28l.06-.06a.12.12,0,0,1,.1,0,.15.15,0,0,1,.1.13A1.14,1.14,0,0,1,13,6.94Z"/><path d="M13.22,7.27a6.58,6.58,0,0,1-1-3.6A3.59,3.59,0,0,1,13.49,1a4.66,4.66,0,0,1,2.79-1c1,0,2.39.5,2.69,1.06a2.77,2.77,0,0,1,1.51,1.76,8.75,8.75,0,0,1-.14,3,4.31,4.31,0,0,1-.87,1.49,17,17,0,0,0-.28-3.48,2.87,2.87,0,0,1-1.36.74c.28-.38.73-1.15.63-1.33-.33.18-1.21.85-1.69,1.06a7.77,7.77,0,0,1-1.7.41,2,2,0,0,0,.69-1c-.5.23-2.08,1.23-2.44,1.41C13.19,5.66,13.37,6.67,13.22,7.27Z"/><polygon class="cls-7" points="22.19 38.56 10.52 38.56 10.52 15.41 12.77 16.72 16.36 23.59 20.15 16.72 22.19 15.41 22.19 38.56"/><polygon class="cls-3" points="18.85 12.63 18.85 12.62 18.85 12.62 18.85 12.63"/><path class="cls-3" d="M17,21.09l-.37,1.37s-.16-.29-.4-.77c-.16-.3-.34-.68-.55-1.12a26.71,26.71,0,0,1-1.88-5.16,7.11,7.11,0,0,1-.23-2.29l.12-.07c.06,0,.11-.13.16-.28a4.09,4.09,0,0,0,.42,1.61c.41,1.31,1.31,3.44,2,4.95.21.5.4.93.54,1.24Z"/><path class="cls-8" d="M16.73,20.57c-.2.44-.39.82-.54,1.12-.16-.3-.34-.68-.55-1.12l.55-1.24C16.4,19.83,16.59,20.26,16.73,20.57Z"/><path class="cls-3" d="M19,15.41a32.42,32.42,0,0,1-2.82,7.05l-.38-1.37s2.05-4.52,2.73-6.71a4.09,4.09,0,0,0,.42-1.61.56.56,0,0,0,.16.28l.12.07A6.83,6.83,0,0,1,19,15.41Z"/><path class="cls-9" d="M17.9,25.62c-.49,1.27-1,2.57-1.54,3.82-.06-.13-.11-.25-.16-.39-.47-1.13-.94-2.28-1.38-3.42-.06-.14-.11-.27-.16-.41-1.38-3.54-2.47-6.81-2.47-8.21,0-3.72.4-3.52,1.61-4.21.08,2.36,1.49,6.38,2.4,8.69.05.14.1.28.16.41s.15.39.23.56c.21.51.62,1.52,1.14,2.76C17.79,25.35,17.84,25.49,17.9,25.62Z"/><path class="cls-5" d="M17.73,25.22c-.49,1.27-1,2.57-1.53,3.83-.53-1.26-1-2.56-1.54-3.83.52-1.24.93-2.25,1.14-2.76.12-.27.25-.6.4-1,.14.37.27.7.39,1C16.8,23,17.21,24,17.73,25.22Z"/><path class="cls-9" d="M20.53,17c0,1.45-1.19,4.91-2.63,8.61-.49,1.27-1,2.57-1.54,3.82-1.85,4.46-3.62,8.33-3.62,8.33a2.45,2.45,0,0,1-2.27-2.51c.81-1.23,2.9-6.16,4.35-9.63.59-1.43,1.07-2.6,1.31-3.17.07-.17.14-.36.23-.56.89-2.21,2.47-6.59,2.55-9.1C20.13,13.49,20.53,13.29,20.53,17Z"/><rect class="cls-3" x="16.9" y="30.74" width="5.56" height="0.32" transform="translate(-16.09 22.96) rotate(-45)"/><rect class="cls-3" x="12.88" y="28.12" width="0.32" height="5.56" transform="translate(-18.03 18.27) rotate(-45)"/><path class="cls-7" d="M23.2,36.8c-1.56,0-6.52.39-6.52.39s-5-.39-6.53-.39c-.44,1.87-3.46,33.8-3.4,35.86a8.41,8.41,0,0,0,2.79,2.52V74l2.23,1.29v-1L15,75.88v-1h3.35v1l3.24-1.58v1L23.82,74v1.17a8.41,8.41,0,0,0,2.79-2.52C26.66,70.6,23.65,38.67,23.2,36.8Z"/><path class="cls-10" d="M18.35,74.83c-.13-2.79-.23-5.59-.32-8.38l-.23-8.37-.16-8.38-.05-4.19,0-4.19.18,4.18.14,4.19.23,8.38.16,8.38C18.32,69.24,18.35,72,18.35,74.83Z"/><path class="cls-10" d="M21.59,74.3c-.28-2.71-.51-5.42-.74-8.13L20.2,58l-.58-8.15-.26-4.08-.23-4.07.39,4.06.35,4.07L20.52,58l.58,8.15C21.27,68.86,21.45,71.58,21.59,74.3Z"/><path class="cls-10" d="M23.82,74c-.32-2.57-.59-5.14-.86-7.71l-.78-7.71-.7-7.73L21.15,47l-.29-3.87L21.31,47l.41,3.85.78,7.71.7,7.73C23.42,68.85,23.64,71.43,23.82,74Z"/><path class="cls-10" d="M15,74.83c0-2.8,0-5.59.08-8.38l.15-8.38.23-8.38.15-4.19.17-4.18v4.19l-.06,4.19-.15,8.38-.24,8.37C15.23,69.24,15.13,72,15,74.83Z"/><path class="cls-10" d="M11.77,74.3c.14-2.72.31-5.44.49-8.15L12.83,58l.65-8.14.36-4.07.38-4.06L14,45.8l-.27,4.08L13.16,58l-.66,8.14C12.27,68.88,12,71.59,11.77,74.3Z"/><path class="cls-10" d="M9.54,74c.18-2.58.39-5.16.61-7.73l.7-7.73.78-7.71L12,47l.45-3.86L12.2,47l-.32,3.86-.7,7.73L10.4,66.3C10.13,68.87,9.85,71.44,9.54,74Z"/><path class="cls-9" d="M22.93,35.37a41.65,41.65,0,0,1-6.25.72,41.77,41.77,0,0,1-6.26-.72l-.54,2.85a43.39,43.39,0,0,0,6.8.78,43.53,43.53,0,0,0,6.8-.78Z"/><path class="cls-4" d="M26.15,46.41A1.35,1.35,0,0,0,26,47.64a5.83,5.83,0,0,1,.42,1.81c0,.29.24.69.49.28A2.57,2.57,0,0,0,27,48.1c-.11-.32.36-.7.51-.18s.3,1.63-.11,2.1-.59,1,.21.6a4.14,4.14,0,0,0,1.46-1.47,2.88,2.88,0,0,0,.19-2.8,8.62,8.62,0,0,0-1-1.58l-2.19.76Z"/><path class="cls-11" d="M18.91,12.8s3.56,1.95,4.36,2.29A6.92,6.92,0,0,1,25.94,19c.48,1.78,6.3,22.23,6.78,23.48-.72,1.64-6.78,5.42-8,5.31a18.66,18.66,0,0,1,0,4.25c-.41.64-5.58,2.63-6.54,2.65,1-4.83,1.94-20.43,2.1-25.87C20.41,24.47,21.7,14.24,18.91,12.8Z"/><path class="cls-1" d="M21.18,53.77a14.52,14.52,0,0,1-3,.89c1-4.82,1.93-20.42,2.1-25.87.12-4.31,1.39-14.53-1.38-16l2.84,1.3C23.55,20.7,22.59,44.85,21.18,53.77Z"/><path class="cls-12" d="M23.57,15.27a5.21,5.21,0,0,1,.87,1.86,10.84,10.84,0,0,1,.25,2.05c0,1.38-.08,2.74-.14,4.11s-.18,2.73-.27,4.09-.21,2.72-.23,4.09q-.18,4.1-.15,8.18c0,1.37.06,2.73.16,4.09a16.18,16.18,0,0,0,.67,4,9.09,9.09,0,0,1-.58-2c-.14-.68-.24-1.36-.33-2-.15-1.37-.23-2.74-.29-4.11-.1-2.73-.05-5.47,0-8.21,0-1.37.16-2.74.27-4.1s.21-2.73.34-4.09.24-2.72.27-4.08a9.72,9.72,0,0,0-.14-2A5.41,5.41,0,0,0,23.57,15.27Z"/><path class="cls-4" d="M6.58,46.42a1.39,1.39,0,0,1,.14,1.22,5.57,5.57,0,0,0-.43,1.81c0,.29-.24.69-.49.28a2.64,2.64,0,0,1-.1-1.63c.11-.32-.36-.7-.5-.18s-.31,1.64.1,2.1.59,1-.21.6a4.14,4.14,0,0,1-1.46-1.47,2.87,2.87,0,0,1-.19-2.8,8.08,8.08,0,0,1,1-1.58l2.18.77Z"/><path class="cls-11" d="M13.81,12.8s-3.55,2-4.36,2.29A6.92,6.92,0,0,0,6.78,19C6.3,20.76.48,41.21,0,42.46c.73,1.64,6.78,5.42,8,5.31A17.57,17.57,0,0,0,8,52c.4.64,5.57,2.63,6.54,2.65-1-4.83-1.94-20.43-2.1-25.87C12.31,24.47,11,14.24,13.81,12.8Z"/><path class="cls-1" d="M11.54,53.77a14.74,14.74,0,0,0,3,.89c-1-4.82-1.94-20.42-2.1-25.87-.13-4.31-1.4-14.53,1.37-16L11,14.1C9.17,20.7,10.13,44.85,11.54,53.77Z"/><path class="cls-12" d="M9.15,15.27a5.41,5.41,0,0,0-.74,1.89,9.72,9.72,0,0,0-.14,2c0,1.36.16,2.72.27,4.08s.23,2.73.34,4.09.24,2.73.28,4.1c.08,2.74.14,5.48,0,8.21,0,1.37-.14,2.74-.29,4.11-.09.68-.19,1.36-.32,2a10.36,10.36,0,0,1-.58,2,16.64,16.64,0,0,0,.66-4c.11-1.36.15-2.72.16-4.08,0-2.73,0-5.46-.15-8.19,0-1.37-.14-2.72-.23-4.09s-.2-2.72-.27-4.09S8,20.56,8,19.18a10.07,10.07,0,0,1,.24-2.05A5.21,5.21,0,0,1,9.15,15.27Z"/><path class="cls-3" d="M16.87,37a.16.16,0,0,1-.16-.14l-.25-2.18a.16.16,0,0,1,.14-.18.16.16,0,0,1,.18.14L17,36.78a.16.16,0,0,1-.14.18Z"/><path class="cls-3" d="M15.84,37.35h0a.15.15,0,0,1-.14-.17l.26-2.56a.16.16,0,0,1,.17-.15.17.17,0,0,1,.15.18L16,37.2A.17.17,0,0,1,15.84,37.35Z"/><path class="cls-1" d="M16.87,37a.16.16,0,0,1-.16-.14l-.08-.71a.16.16,0,0,1,.32,0l.08.71a.16.16,0,0,1-.14.18Z"/><path class="cls-1" d="M15.84,37.35h0a.15.15,0,0,1-.14-.17l.09-.91a.16.16,0,0,1,.18-.14.16.16,0,0,1,.14.17L16,37.2A.17.17,0,0,1,15.84,37.35Z"/><path class="cls-3" d="M18.48,33.16A2.13,2.13,0,1,1,16.36,31,2.12,2.12,0,0,1,18.48,33.16Z"/></g></g></svg>