<svg xmlns="http://www.w3.org/2000/svg" viewBox="0 0 53.2 80"><defs><style>.cls-1{fill:#e9e9e9;}.cls-2{fill:#bdbdbd;}.cls-3{fill:#aeaeae;}.cls-4{fill:#3d3d3d;}.cls-5{fill:#e02726;}.cls-6{fill:#c92322;}.cls-7{fill:#fdbc1b;}.cls-8{fill:#fff;opacity:0.3;}</style></defs><title>Asset 10</title><g id="Layer_2" data-name="Layer 2"><g id="Icons"><path class="cls-1" d="M50.66,63.12v0a12.93,12.93,0,0,1-7.25,11.62c-3.48,1.82-11.34,1.9-16.25,1.8L25,76.51l-1.71,0a98.33,98.33,0,0,1-11.13,0h-.07A18.65,18.65,0,0,1,5.4,74.91a7.76,7.76,0,0,1-3-3A20.61,20.61,0,0,1,.09,60.65c.43-2.71,2.58-11,3.25-13.64.26-1,.49-2.58.74-4.21a27.21,27.21,0,0,1,1.43-6.27c0-.1.09-.19.13-.27H23.25L39.91,36l.11.19c.78,1.3,1.81,3.19,2.87,5.19,1.9,3.61,3.92,7.58,4.8,9.06a19.44,19.44,0,0,1,1.68,4.2s0,0,0,0a35.25,35.25,0,0,1,1,4.53h0c.05.37.1.73.14,1.07A19.45,19.45,0,0,1,50.66,63.12Z"/><path class="cls-2" d="M28.43,76.42l-2.21,0c-.78,0-1.36,0-1.7,0a100.85,100.85,0,0,1-11.13,0h-.07a18.38,18.38,0,0,1-6.65-1.56,7.66,7.66,0,0,1-3-3A20.64,20.64,0,0,1,1.36,60.51c.43-2.72,2.57-11,3.25-13.64.26-1,.49-2.59.73-4.21a27.84,27.84,0,0,1,1.43-6.28l.06-.12H5.64c0,.08-.09.17-.13.27A27.21,27.21,0,0,0,4.08,42.8C3.83,44.43,3.6,46,3.34,47,2.67,49.66.52,57.94.09,60.65A20.61,20.61,0,0,0,2.43,71.92a7.76,7.76,0,0,0,3,3,18.65,18.65,0,0,0,6.65,1.55h.07a98.33,98.33,0,0,0,11.13,0l1.71,0,2.2.06a80,80,0,0,0,11-.41A85.63,85.63,0,0,1,28.43,76.42Z"/><path class="cls-1" d="M47.69,50.47A15.31,15.31,0,0,0,53,39.81c0-3.74-.61-14-.47-15.47s2.65-5.77-2.85-8.22c-2.71-1.2-5.7-1.71-6.79.74s-3.28,14.92-3,19.17S43.41,46.47,47.69,50.47Z"/><path class="cls-2" d="M52.51,24.34c.13-1.5-1.17,11.73-1.16,15.47,0,3.5-2.13,7.63-4.43,9.9.25.26.51.52.77.76A15.31,15.31,0,0,0,53,39.81C53,36.07,52.37,25.83,52.51,24.34Z"/><path class="cls-3" d="M52.5,24c0,1-2.43,1.83-5.42,1.83S41.31,25,41.31,24s2.78-1.83,5.77-1.83S52.5,23,52.5,24Z"/><path class="cls-4" d="M45.57,22.64h0a.4.4,0,0,1-.36-.44l.35-3.34A.41.41,0,0,1,46,18.5a.41.41,0,0,1,.36.45L46,22.28A.4.4,0,0,1,45.57,22.64Z"/><path class="cls-4" d="M48.17,22.57h-.06a.4.4,0,0,1-.35-.45l.41-3.26A.41.41,0,1,1,49,19l-.41,3.26A.41.41,0,0,1,48.17,22.57Z"/><path class="cls-4" d="M50.67,23H50.6a.4.4,0,0,1-.33-.48l.55-3a.41.41,0,0,1,.47-.33.42.42,0,0,1,.33.48l-.55,3A.41.41,0,0,1,50.67,23Z"/><path class="cls-1" d="M27.75,5.36C28.75,3.77,32.21.44,34,.1s3.4,0,4.69,3.53S40.56,11.85,41.28,14,29.54,11.71,27.75,5.36Z"/><path class="cls-1" d="M44.39,23.05C45,33.75,35.9,43,24,43.72S1.94,36.33,1.3,25.62,9.79,5.67,21.69,5,43.75,12.35,44.39,23.05Z"/><path class="cls-2" d="M24,42.09C12.1,42.8,1.94,34.7,1.3,24a2.62,2.62,0,0,1,0-.28,17.4,17.4,0,0,0,0,1.91C1.94,36.33,12.1,44.43,24,43.72s20.86-9.8,20.4-20.39C43.92,33.21,35.19,41.42,24,42.09Z"/><path class="cls-5" d="M42.89,41.41a26.49,26.49,0,0,1-18.5,8.86A26.25,26.25,0,0,1,4.08,42.8a27.21,27.21,0,0,1,1.43-6.27A23.11,23.11,0,0,0,24,43.72a23.36,23.36,0,0,0,16-7.5C40.8,37.52,41.83,39.41,42.89,41.41Z"/><path class="cls-6" d="M5.51,37.34A23.07,23.07,0,0,0,24,44.53,23.39,23.39,0,0,0,40,37c.72,1.18.78.48,0-.82a23.36,23.36,0,0,1-16,7.5A23.11,23.11,0,0,1,5.51,36.53C4.86,37.9,4.92,38.58,5.51,37.34Z"/><path class="cls-5" d="M30,5.26c-.28,1.81,5.77,4.75,7.47,4s-.07-8.08-2-8.35S30.18,4,30,5.26Z"/><path class="cls-1" d="M12.74,7.29C11.31,6.06,6.5,3.53,4.65,3.76s-3.24,1-3.42,4.77.71,8.39.68,10.67S12.94,13.88,12.74,7.29Z"/><path class="cls-2" d="M41.28,14C40.56,11.85,40,7.16,38.73,3.63,37.61.57,36.29-.09,34.76,0c1.3.09,2.44.93,3.43,3.62C39.48,7.16,40,11.85,40.73,14,40.84,14.34,41.42,14.46,41.28,14Z"/><path class="cls-2" d="M12.74,7.29C11.31,6.06,6.5,3.53,4.65,3.76A3.33,3.33,0,0,0,2.19,5,3.84,3.84,0,0,1,4.11,4.3C6,4.08,10.77,6.61,12.2,7.83,12.28,10.61,12.83,10.29,12.74,7.29Z"/><path class="cls-5" d="M10.31,8.2c.81,1.65-4.09,6.26-5.93,6.06S2,6.53,3.76,5.7,9.73,7,10.31,8.2Z"/><path class="cls-6" d="M35.47.92a1.91,1.91,0,0,0-.67,0c1.84.6,3.48,7.59,1.83,8.32a1.59,1.59,0,0,1-.33.09,2.37,2.37,0,0,0,1.14-.09C39.14,8.52,37.37,1.19,35.47.92Z"/><path class="cls-6" d="M10.31,8.2C9.73,7,5.49,4.88,3.76,5.7a1.17,1.17,0,0,0-.44.42C5.22,5.7,9,7.65,9.49,8.75S8,12.26,6.11,13.69C8.24,12.43,10.93,9.45,10.31,8.2Z"/><path class="cls-2" d="M50.66,63.12v0a12.93,12.93,0,0,1-7.25,11.62c-3.48,1.82-11.34,1.9-16.25,1.8L25,76.51A8.29,8.29,0,0,1,24.14,72a3.92,3.92,0,0,1,1.36-1.8,6,6,0,0,1,3-1.24c2-3.25,8.1-12,12.31-15.56,3.65-3.08,7-3.08,8.12.1.1.28.28.64.48,1.17,0,0,0,0,0,0a18.53,18.53,0,0,1,1,4.53h0C50.52,60.32,50.62,61.6,50.66,63.12Z"/><path class="cls-2" d="M27.16,76.57,25,76.51l-1.71,0a98.33,98.33,0,0,1-11.13,0l-.06,0s0,0,0,0c-.64-1.93-1.44-4.46-2.26-7-1.66-5.27-3.37-10.78-3.85-12C3.09,50.4,14.14,45.15,17.41,54c1.14,3,6.63,10.8,9.19,15.67.89,1.7.46,3.56.69,4A3.72,3.72,0,0,1,27.16,76.57Z"/><path class="cls-1" d="M17.41,53.73c1.53,3.91,7.06,16.55,7.93,18.32s1.1,4.56.42,5.57a6.81,6.81,0,0,1-6,2.3c-2.71-.46-5.36-.94-6-4.06s-.68-3.87-1.43-5S6.87,59.24,5.94,57.06C3.09,50.35,14.14,45.36,17.41,53.73Z"/><path class="cls-4" d="M26.2,20h-.1a.41.41,0,0,1-.29-.5,5.36,5.36,0,0,1,4.28-3.7,5.55,5.55,0,0,1,5.65,2.45.41.41,0,0,1-.1.57.41.41,0,0,1-.57-.1,4.75,4.75,0,0,0-4.83-2.12,4.62,4.62,0,0,0-3.65,3.11A.4.4,0,0,1,26.2,20Z"/><path class="cls-4" d="M31.33,12.87a.42.42,0,0,1-.41-.41V9.39A.41.41,0,0,1,31.33,9a.41.41,0,0,1,.41.41v3.07A.41.41,0,0,1,31.33,12.87Z"/><path class="cls-4" d="M34,13.34a.46.46,0,0,1-.2-.05.42.42,0,0,1-.15-.56l1.36-2.38a.41.41,0,1,1,.71.41L34.4,13.13A.41.41,0,0,1,34,13.34Z"/><path class="cls-4" d="M37.75,23.09A3.69,3.69,0,0,1,37,23a.42.42,0,0,1-.32-.49.41.41,0,0,1,.49-.31,5.71,5.71,0,0,0,4.42-1.37.41.41,0,0,1,.58-.05.42.42,0,0,1,0,.58A6.42,6.42,0,0,1,37.75,23.09Z"/><path class="cls-4" d="M38.44,25.91A5.07,5.07,0,0,1,37,25.74a.4.4,0,0,1-.27-.51.41.41,0,0,1,.51-.26c1,.32,4,.09,5.25-.94a.4.4,0,0,1,.57,0,.41.41,0,0,1,0,.58A7.85,7.85,0,0,1,38.44,25.91Z"/><path class="cls-4" d="M39.3,28.93a15.33,15.33,0,0,1-2.64-.29l-.17,0a.41.41,0,0,1,.14-.81l.17,0c1.15.2,3.54.63,4.89-.31a.41.41,0,0,1,.46.67A5,5,0,0,1,39.3,28.93Z"/><path class="cls-4" d="M8.52,21.85a.45.45,0,0,1-.16,0,.41.41,0,0,1-.21-.54,5.54,5.54,0,0,1,5-3.54,5.36,5.36,0,0,1,4.95,2.76.41.41,0,0,1-.73.36,4.61,4.61,0,0,0-4.2-2.31,4.76,4.76,0,0,0-4.3,3.06A.42.42,0,0,1,8.52,21.85Z"/><path class="cls-4" d="M11.29,15.11a.41.41,0,0,1-.4-.32l-.62-3a.41.41,0,0,1,.32-.48.4.4,0,0,1,.48.31l.62,3a.41.41,0,0,1-.32.48Z"/><path class="cls-4" d="M8.73,16.55a.44.44,0,0,1-.31-.14L6.61,14.36a.41.41,0,0,1,.61-.54L9,15.88a.41.41,0,0,1,0,.57A.39.39,0,0,1,8.73,16.55Z"/><path class="cls-4" d="M6.72,26.57a5.47,5.47,0,0,1-3.26-.91.4.4,0,0,1-.07-.57A.41.41,0,0,1,4,25a5.72,5.72,0,0,0,4.61.45.41.41,0,1,1,.33.74A6,6,0,0,1,6.72,26.57Z"/><path class="cls-4" d="M6,29.54A5.63,5.63,0,0,1,3.37,29a.41.41,0,1,1,.39-.71c1.4.76,4.39.38,5.33-.14a.41.41,0,1,1,.39.71A8.36,8.36,0,0,1,6,29.54Z"/><path class="cls-4" d="M6.47,32.61a3.93,3.93,0,0,1-1.56-.29.41.41,0,0,1,.32-.75c1.51.65,3.77-.25,4.85-.69l.16-.06a.41.41,0,0,1,.53.22.41.41,0,0,1-.23.53l-.16.07A11.11,11.11,0,0,1,6.47,32.61Z"/><path class="cls-5" d="M26.11,30.64A2.74,2.74,0,0,1,25,30.41a3.39,3.39,0,0,1-1.93-3.24.27.27,0,1,1,.54,0,2.86,2.86,0,0,0,1.6,2.74,2.41,2.41,0,0,0,2.65-.54.27.27,0,0,1,.37.39A3.06,3.06,0,0,1,26.11,30.64Z"/><path class="cls-5" d="M20.67,31.59a3.21,3.21,0,0,1-1.48-.37.27.27,0,0,1-.11-.36.27.27,0,0,1,.37-.12,2.39,2.39,0,0,0,2.68-.21,2.87,2.87,0,0,0,.78-3.08.27.27,0,0,1,.19-.33.27.27,0,0,1,.34.18,3.41,3.41,0,0,1-1,3.65A2.82,2.82,0,0,1,20.67,31.59Z"/><path class="cls-5" d="M20.9,26l1,.9a1.44,1.44,0,0,0,2.4-.56l.54-1.27c.45-1.06-.1-1.71-1.22-1.45l-2.3.53C20.24,24.45,20,25.27,20.9,26Z"/><path class="cls-2" d="M25.9,74.71a5.75,5.75,0,0,0-2.28-1.81,5,5,0,0,0-2.71-.3,7.59,7.59,0,0,0-2.65,1,16.57,16.57,0,0,0-2.44,1.77,7.09,7.09,0,0,1,2-2.47,6.22,6.22,0,0,1,3-1.35,4.83,4.83,0,0,1,3.26.63A4.17,4.17,0,0,1,25.9,74.71Z"/><path class="cls-2" d="M13.74,74.48a3.08,3.08,0,0,1-1.62,2l-.06,0s0,0,0,0A18.65,18.65,0,0,1,5.4,74.91a7.76,7.76,0,0,1-3-3c.77-3.47,4.56-3.26,7.36-2.5a16.18,16.18,0,0,1,2.4.86A3.61,3.61,0,0,1,13.74,74.48Z"/><path class="cls-1" d="M12.32,70.84c-2-.94-8-2.8-9,1.52-.64,3,2.76,4.61,4.07,4.88s5.71.15,6.34-2.53A3.32,3.32,0,0,0,12.32,70.84Z"/><path class="cls-7" d="M27.91,50.47A3.46,3.46,0,1,1,24.46,47,3.46,3.46,0,0,1,27.91,50.47Z"/><path class="cls-8" d="M25.16,49.5a1.68,1.68,0,1,1-1.67-1.67A1.68,1.68,0,0,1,25.16,49.5Z"/><path class="cls-1" d="M49,53.4c-1.11-3.06-4.6-3.87-8.19,0S31.4,66.9,29.5,70a3.47,3.47,0,0,0-3.13,2.72c-.47,1.49-.13,5.43,2.92,6.69a5.87,5.87,0,0,0,6.94-1.74c3.72-.27,7-2.5,8.7-3.82S50.8,69.75,50.67,63,49.31,54.34,49,53.4Z"/><path class="cls-2" d="M49,53.4a3.65,3.65,0,0,0-3-2.58,3.92,3.92,0,0,1,1.89,2.26c.35.94,1.58,2.91,1.71,9.63s-4.07,9.51-5.74,10.84-5,3.55-8.7,3.82a5.88,5.88,0,0,1-5.73,2.11,5.86,5.86,0,0,0,6.81-1.79c3.72-.27,7-2.5,8.7-3.82S50.8,69.75,50.67,63,49.31,54.34,49,53.4Z"/><path class="cls-2" d="M29.5,70a4.44,4.44,0,0,1,2.44-.53,5,5,0,0,1,2.47.79,4.85,4.85,0,0,1,1.73,2,4.57,4.57,0,0,1,.42,2.48,10.76,10.76,0,0,0-1.16-2,6,6,0,0,0-1.58-1.48,6.88,6.88,0,0,0-2-.86A10.08,10.08,0,0,0,29.5,70Z"/><path class="cls-7" d="M24.45,47.56a.54.54,0,0,1-.54-.53l-.06-2.44a.55.55,0,0,1,.53-.56.55.55,0,0,1,.56.53L25,47a.55.55,0,0,1-.53.56Z"/></g></g></svg>