<svg xmlns="http://www.w3.org/2000/svg" viewBox="0 0 80 57.35"><defs><style>.cls-1{fill:#faedc6;}.cls-10,.cls-2{fill:#fff;}.cls-11,.cls-2{opacity:0.3;}.cls-3{fill:#e0d3ad;}.cls-4{fill:#f87d18;}.cls-5{fill:#ffb001;}.cls-6{fill:#3d3d3d;}.cls-7,.cls-9{opacity:0.2;}.cls-8{fill:#575757;}</style></defs><title>Asset 4</title><g id="Layer_2" data-name="Layer 2"><g id="Icons"><path class="cls-1" d="M33.88,12V48.31c0,1.25-4.61,2.27-10.41,2.33-.21,0-.42,0-.63,0-.77,0-1.51,0-2.21,0-.5,0-1-.06-1.46-.11-4.29-.31-7.38-1.18-7.38-2.2V12Z"/><path class="cls-1" d="M33.89,12c0,1.3-4.95,2.35-11,2.35s-11-1-11-2.35,4.94-2.35,11.05-2.35S33.89,10.72,33.89,12Z"/><path class="cls-2" d="M20.63,12v38.6c-.5,0-1-.06-1.46-.11-3.25-.31-5.6-1.18-5.6-2.2V12Z"/><path class="cls-3" d="M22.84,13.16A29.45,29.45,0,0,1,13.56,12a29.77,29.77,0,0,1,9.28-1.14A29.69,29.69,0,0,1,32.11,12,29.38,29.38,0,0,1,22.84,13.16Z"/><path class="cls-4" d="M22.65,10.5,22,10.29a3.87,3.87,0,0,1-2.61-2.5c-1-3.9,2.87-3.95,3.75-7.79C23.37,2,25,2.9,25,5.15,25,8.4,24,9.23,22.65,10.5Z"/><path class="cls-5" d="M23.42,7.86a13,13,0,0,0-.77,2.64c-.46-.34-2-1.73-1.44-3S22.52,5.88,22.8,5A4,4,0,0,1,23.42,7.86Z"/><path class="cls-6" d="M22.23,11.65l.36-3.42L23,11.65a.37.37,0,0,1-.73.07Z"/><path class="cls-7" d="M23.47,32.57V50.64c-.21,0-.42,0-.63,0-.77,0-1.51,0-2.21,0-.5,0-1-.06-1.46-.11-4.29-.31-7.38-1.18-7.38-2.2V24.08a4.39,4.39,0,0,0,.49-1.23c.17,1.19,1,1.86,1.29,2.86a3.29,3.29,0,0,1,.19,1.12,8.21,8.21,0,0,1-.19,1.76,3.88,3.88,0,0,1-.85,1.63c.29,0,.57,0,.85,0a32.91,32.91,0,0,1,7.06.76C22.39,31.4,23.47,32,23.47,32.57Z"/><path class="cls-1" d="M22.12,34V55c0,1-3.09,1.91-7.41,2.22h0c-.89.07-1.84.11-2.84.11-.25,0-.51,0-.78,0-.76,0-1.48,0-2.2,0s-1.44-.09-2.12-.15a5.83,5.83,0,0,1-.7-.09C2.46,56.7,0,55.91,0,55V34Z"/><path class="cls-1" d="M22.11,34c0,1.3-4.95,2.35-11,2.35S0,35.27,0,34s5-2.36,11.06-2.36S22.11,32.67,22.11,34Z"/><path class="cls-2" d="M8.87,34H1.79V55c0,1.17,3.06,2.14,7.08,2.32Z"/><path class="cls-3" d="M11.06,35.11A29.63,29.63,0,0,1,1.79,34a29.32,29.32,0,0,1,9.27-1.14A29.32,29.32,0,0,1,20.33,34,29.63,29.63,0,0,1,11.06,35.11Z"/><path class="cls-4" d="M10.58,32.39l-.53-.16A3,3,0,0,1,8,30.3c-.77-3,2.23-3.07,2.91-6,.21,1.58,1.51,2.24,1.49,4A4.62,4.62,0,0,1,10.58,32.39Z"/><path class="cls-5" d="M11.17,30.34a11.16,11.16,0,0,0-.59,2.05C10.23,32.12,9,31.05,9.46,30s1-1.22,1.24-1.93A3.06,3.06,0,0,1,11.17,30.34Z"/><path class="cls-6" d="M10.45,33.59l.36-3.42.37,3.42a.37.37,0,0,1-.33.4.36.36,0,0,1-.4-.32Z"/><path class="cls-8" d="M80,49.48c0,3.74-6.67,6.18-16.36,7.26a114.83,114.83,0,0,1-12.21.61c-2.88,0-5.63-.1-8.23-.28s-4.89-.42-7.05-.74a44.09,44.09,0,0,1-7-1.61,15.92,15.92,0,0,1-3.66-1.6,7,7,0,0,1-1.34-1,3.58,3.58,0,0,1-1.26-2.62c0-2.35,2.64-4.81,7.05-6.78.69-.31,1.45-.63,2.24-.9.55-.22,1.12-.41,1.73-.6l1.27-.38a11.56,11.56,0,0,1,1.19-.32c.59-.17,1.18-.31,1.8-.44.42-.09.85-.19,1.27-.26a2.33,2.33,0,0,1,.38-.08,1.09,1.09,0,0,1,.25,0c.53-.11,1.06-.19,1.61-.28s1-.15,1.53-.21a1.86,1.86,0,0,1,.33,0c.79-.11,1.57-.19,2.37-.26s1.76-.12,2.65-.17,1.92-.06,2.92-.06a63.15,63.15,0,0,1,11.28,1,47.42,47.42,0,0,1,8,2.15c.78.27,1.55.59,2.24.9C77.36,44.67,80,47.13,80,49.48Z"/><g class="cls-9"><path class="cls-10" d="M59,43.39c.3,2.06-5.86,4-13.63,5.31s-14.19,1.41-14.47-.64,5.66-5.47,13.44-6.75S58.73,41.37,59,43.39Z"/></g><path class="cls-11" d="M73,42.7c-2.17,1.49-5.77,2.56-10.26,3.2a67.34,67.34,0,0,1-8.36.72c-1,0-1.93,0-2.92,0-6.79,0-12.91-.69-17.23-2a15.65,15.65,0,0,1-4.31-1.93c.69-.31,1.45-.63,2.24-.9a56.34,56.34,0,0,1,19.3-3.14,63.15,63.15,0,0,1,11.28,1,47.42,47.42,0,0,1,8,2.15C71.51,42.07,72.28,42.39,73,42.7Z"/><path class="cls-8" d="M75.24,37.05c0,2-1.67,3.54-4.51,4.75a33.87,33.87,0,0,1-8,2c-1.25.22-2.58.36-4,.47-2.31.19-4.76.29-7.32.29a70.63,70.63,0,0,1-14.31-1.29,27.11,27.11,0,0,1-5-1.45c-2.84-1.21-4.51-2.8-4.51-4.75,0-2.49,2.75-5.12,7.17-7.09.53-.23,1.11-.46,1.7-.69a43.31,43.31,0,0,1,14.94-2.52,43.31,43.31,0,0,1,14.31,2.3c.21.07.4.13.61.22h0c.59.23,1.17.46,1.7.69C72.49,31.93,75.24,34.56,75.24,37.05Z"/><g class="cls-9"><path class="cls-10" d="M57.74,31.26c.25,1.95-4.88,3.81-11.35,5.05s-11.81,1.34-12-.61,4.71-5.21,11.19-6.43S57.51,29.33,57.74,31.26Z"/></g><path class="cls-7" d="M68.07,30c-.87,1.19-2.78,2.1-5.36,2.76a41.86,41.86,0,0,1-7.43,1c-1.23.08-2.52.13-3.85.13-5.57,0-10.48-.64-13.61-1.87a6.64,6.64,0,0,1-3-2c.53-.23,1.11-.46,1.7-.69a43.31,43.31,0,0,1,14.94-2.52,43.31,43.31,0,0,1,14.31,2.3c.21.07.4.13.61.22h0C67,29.5,67.54,29.73,68.07,30Z"/><path class="cls-8" d="M68.57,26.34c0,1.15-.8,2.12-2.2,2.93h0a14.06,14.06,0,0,1-3.13,1.18,32.58,32.58,0,0,1-5.48,1,59.55,59.55,0,0,1-6.31.32,51.34,51.34,0,0,1-10.84-1,16.08,16.08,0,0,1-4.1-1.43c-1.42-.81-2.22-1.78-2.22-2.93,0-2,2.49-4.14,6.39-5.6.63-.24,1.29-.45,2-.64a31.94,31.94,0,0,1,8.78-1.18,30.55,30.55,0,0,1,10.45,1.69,23.66,23.66,0,0,1,2.4,1,14.46,14.46,0,0,1,1.48.86C67.54,23.7,68.57,25.05,68.57,26.34Z"/><g class="cls-9"><path class="cls-10" d="M56,22.17c.17,1.4-3.52,2.74-8.18,3.63s-8.52,1-8.68-.43,3.39-3.76,8.05-4.63S55.81,20.78,56,22.17Z"/></g><path class="cls-7" d="M64.28,21.65C62.2,23.06,57.91,23.78,53,23.8c-5.92,0-10.9-1.05-12.29-3.06a31.31,31.31,0,0,1,10.77-1.82A28.69,28.69,0,0,1,64.28,21.65Z"/><path class="cls-8" d="M65.62,17.43c0,2.8-5.66,4.25-12.67,4.26s-12.67-1.46-12.67-4.26S45.94,11.57,53,11.58,65.62,14.65,65.62,17.43Z"/><g class="cls-9"><path class="cls-10" d="M56.32,14.14c.12,1.11-2.6,2.16-6,2.87s-6.28.76-6.41-.35,2.51-3,6-3.65S56.19,13,56.32,14.14Z"/></g></g></g></svg>