<svg xmlns="http://www.w3.org/2000/svg" viewBox="0 0 70 67.49"><defs><style>.cls-1{fill:#835d47;}.cls-2{fill:#edc491;}.cls-3{fill:#ffe2be;}.cls-4{opacity:0.2;}.cls-5{fill:#1266ba;}.cls-6{fill:#689cd5;}.cls-7{fill:#3280d1;}</style></defs><title>Asset 13</title><g id="Layer_2" data-name="Layer 2"><g id="Icons"><path class="cls-1" d="M31.24,7.5v55a5,5,0,0,1-1.15,3.19,4.78,4.78,0,0,1-1.19,1,5,5,0,0,1-2.38.75H6.16a6,6,0,0,1-3.53-1C1.47,65.5,0,63.59,0,62L1.25,7.5A4.93,4.93,0,0,1,2.38,4.35,4.38,4.38,0,0,1,3,3.69,4.81,4.81,0,0,1,5.4,2.58C5.67,2.53,6.35,0,6.64,0H26.75a4.9,4.9,0,0,1,4.08,2.29C31.33,3.08,31.24,6.5,31.24,7.5Z"/><path class="cls-2" d="M30,5V60a5,5,0,0,1-1.16,3.19,4.78,4.78,0,0,1-1.19,1.05,4.92,4.92,0,0,1-2.38.75H4.91a4.61,4.61,0,0,1-.91-.1H4a5,5,0,0,1-1.4-.51A5.75,5.75,0,0,1,2,64a5,5,0,0,1-2-4V5A4.93,4.93,0,0,1,1.13,1.85a4.38,4.38,0,0,1,.63-.66A4.89,4.89,0,0,1,4.15.08,4.71,4.71,0,0,1,5,0H25.11a5,5,0,0,1,3.11,1.17,5.29,5.29,0,0,1,1,1.12A5.12,5.12,0,0,1,30,5Z"/><path class="cls-3" d="M4.77,64.45a4.75,4.75,0,0,1,.14.54,4.61,4.61,0,0,1-.91-.1H4c0-.08,0-.14-.05-.21a22.63,22.63,0,0,1-.65-2.9,23.37,23.37,0,0,1,0-4.34c0-.48,0-.95.06-1.41.1-3.19,0-6.45-.1-9.59S3,40.12,3.1,37c0-1.31.09-2.61.14-3.91a107,107,0,0,0-.12-15.19A74.58,74.58,0,0,1,2.9,7.21c0-.35,0-.72.05-1.1a15.69,15.69,0,0,1,.45-4A11.15,11.15,0,0,1,3.84.89C4,.61,4.06.35,4.15.08A4.71,4.71,0,0,1,5,0h.09a10.79,10.79,0,0,1-.44,1.21c-.14.36-.29.73-.41,1.13a15.53,15.53,0,0,0-.42,3.8c0,.38,0,.76,0,1.11A72.92,72.92,0,0,0,4,17.79a110.11,110.11,0,0,1,.11,15.3C4.06,34.39,4,35.68,4,37c-.08,3.13,0,6.33.12,9.43s.2,6.42.1,9.63c0,.48,0,1-.07,1.44a22.38,22.38,0,0,0,0,4.17A21.64,21.64,0,0,0,4.77,64.45Z"/><path class="cls-3" d="M8,65H7.36a5.34,5.34,0,0,1-.2-1.25A12.34,12.34,0,0,0,6.52,60c-.58-2-.32-4.58-.08-6.82.07-.75.16-1.46.2-2.14l.15-2.3c.17-2.46.35-5,.4-7.52s.08-5.2.1-8.69A35.91,35.91,0,0,0,6.52,26c-.28-1.6-.57-3.26-.7-4.87a48,48,0,0,1,.34-12A30.83,30.83,0,0,0,6.64,0h.62a30.56,30.56,0,0,1-.49,9.31,48.14,48.14,0,0,0-.33,11.8c.12,1.59.42,3.22.7,4.81a38,38,0,0,1,.77,6.59c0,3.47,0,6.16-.1,8.68s-.22,5.09-.4,7.56L7.26,51c0,.68-.12,1.41-.2,2.16-.24,2.19-.5,4.68.06,6.6a13,13,0,0,1,.67,3.93A5.19,5.19,0,0,0,8,65Z"/><path class="cls-3" d="M11.21,65H10a51.19,51.19,0,0,1-.53-10c0-2.34.05-4.76-.15-7.07-.17-2-.15-4.09-.12-6.1,0-.74,0-1.48,0-2.2a32.2,32.2,0,0,1,.29-3.71,24.12,24.12,0,0,0,.24-4.47c-.07-.93-.2-1.86-.34-2.75A27.54,27.54,0,0,1,9,24.57c0-2.76-.2-5.4-.42-7.85A61.84,61.84,0,0,1,8.79,6.35C9,4.26,9.14,2.11,9.15,0H10.4c0,2.15-.19,4.34-.36,6.45a59.49,59.49,0,0,0-.25,10.16c.22,2.47.42,5.15.42,8a26.42,26.42,0,0,0,.38,3.89c.13.91.27,1.86.35,2.85a26.11,26.11,0,0,1-.25,4.7,32.24,32.24,0,0,0-.28,3.56c0,.74,0,1.47,0,2.21a59.12,59.12,0,0,0,.12,6c.2,2.38.18,4.83.15,7.2A50.13,50.13,0,0,0,11.21,65Z"/><path class="cls-3" d="M14,60.8A24.4,24.4,0,0,0,14,65h-.87a26.1,26.1,0,0,1,0-4.24,26,26,0,0,0,0-4c-.24-2.7-.34-5.56-.31-9.31a27.62,27.62,0,0,1,.26-3.2,17.28,17.28,0,0,0,.13-4.76c-.16-1.1-.28-2.21-.41-3.31-.17-1.44-.35-2.93-.6-4.36a84,84,0,0,1-.75-14.53c0-1,0-1.92,0-2.88s0-1.64,0-2.45a54.33,54.33,0,0,1,.79-12h.9a51.28,51.28,0,0,0-.81,12c0,.81,0,1.62,0,2.45s0,1.92,0,2.88A82,82,0,0,0,13,31.71c.26,1.46.43,3,.59,4.41.13,1.09.27,2.19.43,3.29a18.75,18.75,0,0,1-.14,5,29,29,0,0,0-.26,3.1c0,3.73.08,6.56.31,9.23A27.76,27.76,0,0,1,14,60.8Z"/><path class="cls-3" d="M16.51,65h-.63c-.21-3.44-.12-6.86,0-10.2.15-5.17.3-10.54-.77-15.81a55.61,55.61,0,0,1-.73-11.22A66.14,66.14,0,0,0,13.89,18a53.69,53.69,0,0,1-.55-10.42c.06-2.07.17-5.34,1.06-7.59h.69C14.12,2.12,14,5.51,14,7.61a55,55,0,0,0,.54,10.3A65.15,65.15,0,0,1,15,27.77a54.28,54.28,0,0,0,.71,11.09c1.08,5.35.93,10.73.78,15.94C16.38,58.14,16.3,61.56,16.51,65Z"/><path class="cls-3" d="M20.1,62.43c0,.47-.1,1-.19,1.66,0,.29-.09.59-.13.9H18.52l.15-1.06c.08-.59.15-1.13.18-1.59a35.1,35.1,0,0,0-.08-4.58l0-.44c-.14-2.33-.2-4.72-.28-7,0-1.18-.07-2.37-.11-3.55-.05-1.38,0-2.81,0-4.18A39,39,0,0,0,18,34.76a27.53,27.53,0,0,1-.2-5.75c0-.75.06-1.5.06-2.21,0-2.67-.13-5.37-.26-8s-.26-5.36-.26-8v-.3c0-3.15,0-7.25,1.06-10.47H19.7c-1.14,3.06-1.14,7.27-1.14,10.47v.3c0,2.67.12,5.38.26,8s.26,5.35.26,8c0,.72,0,1.48-.06,2.26a26.59,26.59,0,0,0,.19,5.46,41.13,41.13,0,0,1,.4,8.07c0,1.35-.05,2.77,0,4.11,0,1.19.07,2.38.11,3.57.08,2.3.14,4.66.28,7l0,.44A37.14,37.14,0,0,1,20.1,62.43Z"/><path class="cls-3" d="M23.07,48c-.09,2-.29,4-.49,5.94a61.41,61.41,0,0,0-.42,11H21.3a60.28,60.28,0,0,1,.42-11.1c.19-1.94.39-4,.48-5.9a114.28,114.28,0,0,0-.62-15c-.13-1.71-.28-3.41-.4-5.11a162.32,162.32,0,0,1,.1-18.2c.13-3.16.27-6.42.3-9.66h.88c0,3.25-.18,6.52-.31,9.7a160.42,160.42,0,0,0-.09,18.09c.11,1.71.25,3.4.4,5.1A117.59,117.59,0,0,1,23.07,48Z"/><path class="cls-3" d="M25.27,65h-.62c0-7.64-.27-15.36-.5-22.85q-.18-5.25-.3-10.5c-.15-5.82-.13-11.78.07-17.73,0-1.24.15-2.49.26-3.69s.23-2.57.27-3.86c0-.77,0-1.59-.06-2.37a25.25,25.25,0,0,1,.08-4h.64A21.74,21.74,0,0,0,25,4c0,.8.08,1.63.05,2.43,0,1.3-.15,2.61-.27,3.88s-.22,2.44-.26,3.67c-.19,5.93-.22,11.88-.07,17.68.09,3.5.19,7,.3,10.51C25,49.62,25.25,57.34,25.27,65Z"/><path class="cls-3" d="M28.84,43.13c-.15,1.79-.3,3.62-.31,5.42,0,2.94.16,6.07.31,9,.06.83,0,1.79,0,2.81s0,1.88,0,2.82a4.78,4.78,0,0,1-1.19,1.05c-.09-1.28-.07-2.63,0-3.89,0-1,0-1.94,0-2.71-.16-3-.33-6.1-.33-9.08,0-1.86.17-3.72.31-5.52s.32-3.71.32-5.56c0-1.48,0-2.95-.06-4.41-.05-2.18-.1-4.43,0-6.65a56.65,56.65,0,0,0-.59-12.14,29.28,29.28,0,0,1,1-13.1,5.29,5.29,0,0,1,1,1.12,27.39,27.39,0,0,0-.74,11.77,58.47,58.47,0,0,1,.6,12.39c-.06,2.18,0,4.42,0,6.57,0,1.49.06,3,.06,4.45C29.16,39.38,29,41.29,28.84,43.13Z"/><path class="cls-3" d="M2.6,63.6c0,.25,0,.51,0,.78A5.75,5.75,0,0,1,2,64c0-.12,0-.25,0-.37a15.66,15.66,0,0,0,0-1.94c-.06-.95-.17-1.87-.28-2.77a28,28,0,0,1-.33-4.53c.08-2.73.1-5.5.11-8.17,0-2.4,0-4.88.09-7.35a82.18,82.18,0,0,0-.29-9.76,41.13,41.13,0,0,1,0-4.71,33.9,33.9,0,0,0-.09-5.24A81,81,0,0,1,1,6c.06-1.37.12-2.75.16-4.14a4.38,4.38,0,0,1,.63-.66c0,1.61-.1,3.23-.16,4.82a81,81,0,0,0,.17,13,33.89,33.89,0,0,1,.09,5.33A37.79,37.79,0,0,0,1.9,29a85.61,85.61,0,0,1,.29,9.84c-.06,2.46-.08,4.93-.09,7.32,0,2.67,0,5.45-.11,8.2a28.67,28.67,0,0,0,.32,4.42c.11.91.23,1.85.29,2.8A19,19,0,0,1,2.6,63.6Z"/><path class="cls-4" d="M25.25,17.46c-1.78-3.6-6.36-11.35-9-11.35s-7.2,7.75-9,11.35C4.77,22.57,2.89,34.93,3.79,39c.07,1.52-.08,4.74,1.8,4.74V37.61a38.19,38.19,0,0,0-.2-5.23l0-.06c1.47-2,7-11.17,8.49-15.13s2.37-6.49,2.37-6.49.89,2.53,2.36,6.49,7,13.15,8.49,15.13l0,.06c-.3,2.22-2.81,5.23-2.81,5.23s.33,4.08.33,6.15c1.88,0,4-3.22,4.08-4.74C29.66,34.93,27.78,22.57,25.25,17.46Z"/><path class="cls-5" d="M27.46,39c-.07,1.52-1.23,4.74-3.11,4.74V37.61s1.8-4.48,1.55-6.55C27,32.14,27.55,37,27.46,39Z"/><path class="cls-6" d="M15,6.11V10.7s.9,2.53,2.37,6.49,7,13.15,8.48,15.13,1.55,4.4,1.64,6.7c.89-4.09-1-16.45-3.51-21.56C22.16,13.86,17.58,6.11,15,6.11Z"/><path class="cls-5" d="M2.48,39c.07,1.52,1.23,4.74,3.11,4.74V37.61S3.79,33.13,4,31.06C3,32.14,2.39,37,2.48,39Z"/><path class="cls-6" d="M15,6.11V10.7s-.9,2.53-2.37,6.49-7,13.15-8.48,15.13S2.57,36.72,2.48,39c-.89-4.09,1-16.45,3.51-21.56C7.78,13.86,12.36,6.11,15,6.11Z"/><path class="cls-7" d="M16.66,5.21v5.46a1.89,1.89,0,0,1-1.75,2V3.2A1.89,1.89,0,0,1,16.66,5.21Z"/><path class="cls-5" d="M14.91,3.2v9.48a1.89,1.89,0,0,1-1.74-2V5.21A1.89,1.89,0,0,1,14.91,3.2Z"/><rect class="cls-4" x="24.03" y="37.61" width="0.65" height="6.15"/><rect class="cls-4" x="5.26" y="37.61" width="0.65" height="6.15"/><path class="cls-1" d="M70,7.5v55a5,5,0,0,1-1.15,3.19,4.78,4.78,0,0,1-1.19,1,5,5,0,0,1-2.38.75H44.91a6,6,0,0,1-3.53-1c-1.16-.94-2.63-2.85-2.63-4.48L40,7.5a5.05,5.05,0,0,1,1.76-3.81,4.81,4.81,0,0,1,2.39-1.11c.27-.05,1-2.58,1.24-2.58h20.1a5,5,0,0,1,3.12,1.17,5,5,0,0,1,1,1.12C70.08,3.08,70,6.5,70,7.5Z"/><path class="cls-2" d="M68.75,5V60a5,5,0,0,1-1.16,3.19,4.65,4.65,0,0,1-1.2,1.05A4.84,4.84,0,0,1,64,65H43.66a4.61,4.61,0,0,1-.91-.1h0a5,5,0,0,1-1.4-.51,5.75,5.75,0,0,1-.63-.42,5,5,0,0,1-2-4V5a4.93,4.93,0,0,1,1.13-3.15,4.38,4.38,0,0,1,.63-.66A4.89,4.89,0,0,1,42.9.08,4.71,4.71,0,0,1,43.75,0H63.86A5,5,0,0,1,67,1.17a5.29,5.29,0,0,1,1,1.12A5.12,5.12,0,0,1,68.75,5Z"/><path class="cls-3" d="M43.52,64.45c0,.18.1.35.14.54a4.61,4.61,0,0,1-.91-.1h0c0-.08,0-.14-.05-.21a22.63,22.63,0,0,1-.65-2.9,23.37,23.37,0,0,1,0-4.34c0-.48,0-.95.06-1.41.1-3.19,0-6.45-.1-9.59s-.2-6.32-.11-9.47c0-1.31.09-2.61.14-3.91a107,107,0,0,0-.12-15.19,74.58,74.58,0,0,1-.22-10.66c0-.35,0-.72.05-1.1a15.69,15.69,0,0,1,.45-4,11.15,11.15,0,0,1,.44-1.2c.11-.28.22-.54.31-.81A4.71,4.71,0,0,1,43.75,0h.09a10.79,10.79,0,0,1-.44,1.21c-.14.36-.29.73-.41,1.13a15.53,15.53,0,0,0-.42,3.8c0,.38,0,.76,0,1.11a72.92,72.92,0,0,0,.23,10.54,110.11,110.11,0,0,1,.11,15.3c0,1.3-.1,2.59-.14,3.9-.08,3.13,0,6.33.12,9.43s.2,6.42.1,9.63c0,.48,0,1-.07,1.44a22.38,22.38,0,0,0,0,4.17A21.64,21.64,0,0,0,43.52,64.45Z"/><path class="cls-3" d="M46.75,65h-.64a5.34,5.34,0,0,1-.2-1.25A12.34,12.34,0,0,0,45.27,60c-.58-2-.32-4.58-.08-6.82.07-.75.16-1.46.2-2.14l.15-2.3c.17-2.46.35-5,.4-7.52S46,36,46,32.49A35.91,35.91,0,0,0,45.27,26c-.28-1.6-.57-3.26-.7-4.87a48,48,0,0,1,.34-12A30.83,30.83,0,0,0,45.39,0H46a30.56,30.56,0,0,1-.49,9.31,48.14,48.14,0,0,0-.33,11.8c.12,1.59.42,3.22.7,4.81a38,38,0,0,1,.77,6.59c0,3.47,0,6.16-.1,8.68s-.22,5.09-.4,7.56L46,51c0,.68-.12,1.41-.2,2.16-.24,2.19-.5,4.68.06,6.6a13,13,0,0,1,.67,3.93A5.19,5.19,0,0,0,46.75,65Z"/><path class="cls-3" d="M50,65H48.7a51.19,51.19,0,0,1-.53-10c0-2.34,0-4.76-.15-7.07-.17-2-.15-4.09-.12-6.1,0-.74,0-1.48,0-2.2a32.2,32.2,0,0,1,.29-3.71,24.12,24.12,0,0,0,.24-4.47c-.07-.93-.2-1.86-.34-2.75a27.54,27.54,0,0,1-.39-4.07c0-2.76-.2-5.4-.42-7.85a61.84,61.84,0,0,1,.25-10.37c.17-2.09.34-4.24.36-6.35h1.25c0,2.15-.19,4.34-.36,6.45a59.49,59.49,0,0,0-.25,10.16c.22,2.47.42,5.15.42,8a26.42,26.42,0,0,0,.38,3.89c.13.91.27,1.86.35,2.85a25.22,25.22,0,0,1-.26,4.7,34.87,34.87,0,0,0-.27,3.56c0,.74,0,1.47,0,2.21a59.12,59.12,0,0,0,.12,6c.2,2.38.18,4.83.15,7.2A50.13,50.13,0,0,0,50,65Z"/><path class="cls-3" d="M52.7,60.8a24.4,24.4,0,0,0,0,4.19h-.88a27.28,27.28,0,0,1,0-4.24,26,26,0,0,0,0-4c-.24-2.7-.34-5.56-.31-9.31a27.62,27.62,0,0,1,.26-3.2,17.28,17.28,0,0,0,.13-4.76c-.16-1.1-.28-2.21-.41-3.31-.17-1.44-.35-2.93-.6-4.36a84,84,0,0,1-.75-14.53c0-1,0-1.92,0-2.88s0-1.64,0-2.45A54.33,54.33,0,0,1,51,0h.9a51.28,51.28,0,0,0-.81,12c0,.81,0,1.62,0,2.45s0,1.92,0,2.88a82,82,0,0,0,.74,14.38c.26,1.46.43,3,.59,4.41.13,1.09.27,2.19.43,3.29a18.75,18.75,0,0,1-.14,5,29,29,0,0,0-.26,3.1c0,3.73.07,6.56.31,9.23A27.76,27.76,0,0,1,52.7,60.8Z"/><path class="cls-3" d="M55.26,65h-.63c-.21-3.44-.12-6.86,0-10.2.15-5.17.3-10.54-.77-15.81a55.61,55.61,0,0,1-.73-11.22A64.8,64.8,0,0,0,52.63,18a54.54,54.54,0,0,1-.54-10.42c.06-2.07.17-5.34,1.06-7.59h.69c-1,2.12-1.07,5.51-1.13,7.61a55,55,0,0,0,.54,10.3,65.14,65.14,0,0,1,.48,9.86,55,55,0,0,0,.72,11.09c1.08,5.35.93,10.73.78,15.94C55.13,58.14,55.05,61.56,55.26,65Z"/><path class="cls-3" d="M58.85,62.43c0,.47-.1,1-.19,1.66,0,.29-.09.59-.13.9H57.27l.15-1.06c.08-.59.15-1.13.18-1.59a35.1,35.1,0,0,0-.08-4.58l0-.44c-.14-2.33-.2-4.72-.28-7,0-1.18-.07-2.37-.11-3.55,0-1.38,0-2.81,0-4.18a39,39,0,0,0-.39-7.81,27.53,27.53,0,0,1-.2-5.75c0-.75.06-1.5.06-2.21,0-2.67-.13-5.37-.26-8s-.26-5.36-.26-8v-.3c0-3.15,0-7.25,1.06-10.47h1.33c-1.14,3.06-1.14,7.27-1.14,10.47v.3c0,2.67.12,5.38.26,8s.26,5.35.26,8c0,.72,0,1.48-.06,2.26A26.59,26.59,0,0,0,58,34.52a41.13,41.13,0,0,1,.4,8.07c0,1.35,0,2.77,0,4.11,0,1.19.07,2.38.11,3.57.08,2.3.14,4.66.28,7l0,.44A37.14,37.14,0,0,1,58.85,62.43Z"/><path class="cls-3" d="M61.82,48c-.09,2-.29,4-.49,5.94a61.41,61.41,0,0,0-.42,11h-.86a60.28,60.28,0,0,1,.42-11.1c.19-1.94.39-4,.48-5.9a114.28,114.28,0,0,0-.62-15c-.13-1.71-.28-3.41-.4-5.11A162.32,162.32,0,0,1,60,9.66c.13-3.16.27-6.42.3-9.66h.88c0,3.25-.18,6.52-.31,9.7a160.42,160.42,0,0,0-.09,18.09c.11,1.71.25,3.4.4,5.1A117.59,117.59,0,0,1,61.82,48Z"/><path class="cls-3" d="M64,65h-.63c0-7.64-.26-15.36-.49-22.85q-.18-5.25-.3-10.5c-.15-5.82-.13-11.78.07-17.73,0-1.24.15-2.49.26-3.69s.23-2.57.27-3.86c0-.77,0-1.59-.06-2.37a25.25,25.25,0,0,1,.08-4h.64a21.74,21.74,0,0,0-.09,4c0,.8.07,1.63,0,2.43,0,1.3-.15,2.61-.28,3.88s-.21,2.44-.25,3.67c-.19,5.93-.22,11.88-.07,17.68.09,3.5.19,7,.3,10.51C63.76,49.62,64,57.34,64,65Z"/><path class="cls-3" d="M67.59,43.13c-.15,1.79-.3,3.62-.31,5.42,0,2.94.16,6.07.31,9,.06.83,0,1.79,0,2.81s0,1.88,0,2.82a4.65,4.65,0,0,1-1.2,1.05c-.08-1.28-.06-2.63,0-3.89,0-1,0-1.94,0-2.71-.16-3-.33-6.1-.33-9.08,0-1.86.17-3.72.32-5.52s.31-3.71.31-5.56c0-1.48,0-2.95-.07-4.41,0-2.18-.09-4.43,0-6.65A56.65,56.65,0,0,0,66,14.27a29.28,29.28,0,0,1,1-13.1,5.29,5.29,0,0,1,1,1.12,27.39,27.39,0,0,0-.74,11.77,58.47,58.47,0,0,1,.6,12.39c-.06,2.18,0,4.42,0,6.57,0,1.49.07,3,.07,4.45C67.91,39.38,67.76,41.29,67.59,43.13Z"/><path class="cls-3" d="M41.35,63.6c0,.25,0,.51,0,.78a5.75,5.75,0,0,1-.63-.42c0-.12,0-.25,0-.37a15.66,15.66,0,0,0,0-1.94c-.06-.95-.17-1.87-.28-2.77a28,28,0,0,1-.33-4.53c.08-2.73.1-5.5.11-8.17,0-2.4,0-4.88.09-7.35A82.18,82.18,0,0,0,40,29.07a41.13,41.13,0,0,1,0-4.71,33.9,33.9,0,0,0-.09-5.24A81,81,0,0,1,39.72,6c.06-1.37.12-2.75.16-4.14a4.38,4.38,0,0,1,.63-.66c0,1.61-.1,3.23-.16,4.82a81,81,0,0,0,.17,13,33.89,33.89,0,0,1,.09,5.33,37.79,37.79,0,0,0,0,4.64,85.61,85.61,0,0,1,.29,9.84c-.06,2.46-.08,4.93-.09,7.32,0,2.67,0,5.45-.11,8.2a28.67,28.67,0,0,0,.32,4.42c.11.91.23,1.85.29,2.8A19,19,0,0,1,41.35,63.6Z"/><path class="cls-4" d="M64,17.46c-1.78-3.6-6.36-11.35-9-11.35s-7.2,7.75-9,11.35C43.52,22.57,41.64,34.93,42.54,39c.07,1.52-.08,4.74,1.79,4.74V37.61a37.45,37.45,0,0,0-.19-5.23l0-.06c1.47-2,7-11.17,8.49-15.13S55,10.7,55,10.7s.89,2.53,2.36,6.49,7,13.15,8.49,15.13l0,.06c-.3,2.22-2.81,5.23-2.81,5.23s.33,4.08.33,6.15c1.88,0,4-3.22,4.08-4.74C68.41,34.93,66.53,22.57,64,17.46Z"/><path class="cls-5" d="M66.2,39c-.06,1.52-1.22,4.74-3.1,4.74V37.61s1.8-4.48,1.55-6.55C65.71,32.14,66.3,37,66.2,39Z"/><path class="cls-6" d="M53.72,6.11V10.7s.9,2.53,2.37,6.49,7,13.15,8.48,15.13,1.55,4.4,1.63,6.7c.9-4.09-1-16.45-3.5-21.56C60.91,13.86,56.33,6.11,53.72,6.11Z"/><path class="cls-5" d="M41.23,39c.07,1.52,1.23,4.74,3.1,4.74V37.61s-1.79-4.48-1.55-6.55C41.72,32.14,41.14,37,41.23,39Z"/><path class="cls-6" d="M53.72,6.11V10.7s-.9,2.53-2.37,6.49-7,13.15-8.48,15.13-1.56,4.4-1.64,6.7c-.89-4.09,1-16.45,3.51-21.56C46.53,13.86,51.11,6.11,53.72,6.11Z"/><path class="cls-7" d="M55.41,5.21v5.46a1.89,1.89,0,0,1-1.75,2V3.2A1.89,1.89,0,0,1,55.41,5.21Z"/><path class="cls-5" d="M53.66,3.2v9.48a1.89,1.89,0,0,1-1.74-2V5.21A1.89,1.89,0,0,1,53.66,3.2Z"/><rect class="cls-4" x="62.78" y="37.61" width="0.65" height="6.15"/><rect class="cls-4" x="44.01" y="37.61" width="0.65" height="6.15"/></g></g></svg>