<svg xmlns="http://www.w3.org/2000/svg" viewBox="0 0 80 36.26"><defs><style>.cls-1{fill:#c69c6c;}.cls-2{fill:#8c643d;}.cls-13,.cls-18,.cls-3{opacity:0.2;}.cls-4{fill:#7a4d1d;}.cls-5{fill:#a67c52;}.cls-6{fill:#ededed;}.cls-7{fill:#dedede;}.cls-8{fill:#ccc;}.cls-9{fill:#de7516;}.cls-10{fill:#f18c31;}.cls-11{fill:#f5c58a;}.cls-12,.cls-27,.cls-28{fill:#eb6821;}.cls-12{opacity:0.4;}.cls-13,.cls-33{fill:#fff;}.cls-14{fill:#d62d34;}.cls-15{fill:#ff6755;}.cls-16{fill:#fdbdb3;}.cls-17{fill:#ffab9f;}.cls-18{fill:#b63a35;}.cls-19,.cls-33{opacity:0.3;}.cls-20{fill:#1f2e27;}.cls-21{fill:#171f1c;}.cls-22{fill:#373c3b;}.cls-23{fill:#444e46;}.cls-24{fill:#fc6400;}.cls-25{fill:#e65d04;}.cls-26{fill:#f8ceaa;}.cls-27{opacity:0.7;}.cls-29{fill:#c96a14;}.cls-30{fill:#fbfa9f;}.cls-31{fill:#486f0e;}.cls-32{fill:#e3945c;}.cls-34{fill:#e39355;}.cls-35{fill:#ffc895;}.cls-36{fill:#441f10;}.cls-37{fill:#9e462b;opacity:0.5;}.cls-38{fill:#e6052d;}</style></defs><title>Asset 3</title><g id="Layer_2" data-name="Layer 2"><g id="Icons"><polygon class="cls-1" points="76.44 19.76 3.56 19.76 0 15.77 80 15.77 76.44 19.76"/><rect class="cls-2" x="67.52" y="19.76" width="6.07" height="1.93"/><rect class="cls-3" x="67.52" y="19.76" width="6.07" height="0.59"/><polygon class="cls-4" points="65.3 19.76 67.52 19.76 67.52 21.69 65.3 19.76"/><rect class="cls-2" x="6.41" y="19.76" width="6.07" height="1.93"/><rect class="cls-3" x="6.41" y="19.76" width="6.07" height="0.59"/><polygon class="cls-4" points="14.7 19.76 12.48 19.76 12.48 21.69 14.7 19.76"/><polygon class="cls-5" points="7.11 11.02 72.89 11.02 80 15.77 0 15.77 7.11 11.02"/><path class="cls-6" d="M60.71,7.32a.65.65,0,0,1,.32.59.48.48,0,0,1-.09.25,1,1,0,0,1-.5.29c.32.39.13.93-.54.9a.61.61,0,0,1-.83.73.88.88,0,0,1-1.28.83A1.07,1.07,0,0,1,56.38,12a.17.17,0,0,1,0,.07,1,1,0,0,1-.38.56,1,1,0,0,1-.92-.12.76.76,0,0,1-.91.19.86.86,0,0,1-.37.57A.73.73,0,0,1,53,13.1a.61.61,0,0,1-1,0c-.07.13-.45.26-.61.3a1,1,0,0,1-.9-.19,1.11,1.11,0,0,1-1.6-.65.63.63,0,0,1-1.17-.42.66.66,0,0,1-1.14-.34,1.28,1.28,0,0,1-.51.29c-.26,0-.39-.24-.44-.49,0,0,0-.06,0-.08-.16.14-.51,0-.66-.12l0,0a.43.43,0,0,1-.15-.15c-.06-.1,0-.22,0-.32,0-.26-.35-.26-.51-.46a.77.77,0,0,1-.1-.71,1,1,0,0,1,.17-.32.5.5,0,0,1-.13-.12,1.06,1.06,0,0,1-.25-.66c0-.12,0-.26,0-.39a2.63,2.63,0,0,1,.06-.39.43.43,0,0,1,0-.12.84.84,0,0,1,.15-.47s.89-.84.93-.74,0-.06,0-.1a.32.32,0,0,1,0-.14A1.07,1.07,0,0,1,45,6a3.26,3.26,0,0,1,.71-1.21c.64-.68,1.57,0,2.27.19,0-.21.15-.36.23-.53a2.18,2.18,0,0,1,.6-.68,5.53,5.53,0,0,1,.86-.5l.06,0A1.9,1.9,0,0,1,51.05,3c.38,0,.81.18,1.19.18a1,1,0,0,1,.74-1,2.54,2.54,0,0,1,1.54.51h0l.14.08c.19.11.67.6.92.57a.34.34,0,0,0,.11-.07c.07-.07.14-.18.2-.23a1.68,1.68,0,0,1,1-.25A4.58,4.58,0,0,1,58,3a.25.25,0,0,1,.14,0,2.33,2.33,0,0,1,.7.47,1.57,1.57,0,0,0,.24.21c.17.15.38.28.55.42l.1.08.19.17a1.51,1.51,0,0,1,.21.23c.17.21.07.24.13.47s.26.27.43.39a.23.23,0,0,1,.09.08c.52.51.25,1.17-.08,1.71h0Z"/><path class="cls-7" d="M60.71,7.32a.65.65,0,0,1,.32.59.48.48,0,0,1-.09.25,1,1,0,0,1-.5.29c.32.39.13.93-.54.9a.61.61,0,0,1-.83.73.88.88,0,0,1-1.28.83A1.07,1.07,0,0,1,56.38,12a.17.17,0,0,1,0,.07,1,1,0,0,1-.38.56,1,1,0,0,1-.92-.12.76.76,0,0,1-.91.19.86.86,0,0,1-.37.57A.73.73,0,0,1,53,13.1a.61.61,0,0,1-1,0c-.07.13-.45.26-.61.3a1,1,0,0,1-.9-.19,1.11,1.11,0,0,1-1.6-.65.63.63,0,0,1-1.17-.42.66.66,0,0,1-1.14-.34,1.28,1.28,0,0,1-.51.29c-.26,0-.39-.24-.44-.49,0,0,0-.06,0-.08-.16.14-.51,0-.66-.12l0,0a.43.43,0,0,1-.15-.15c-.06-.1,0-.22,0-.32,0-.26-.35-.26-.51-.46a.77.77,0,0,1-.1-.71,1,1,0,0,1,.17-.32.5.5,0,0,1-.13-.12,1.06,1.06,0,0,1-.25-.66c0-.12,0-.26,0-.39a2.63,2.63,0,0,1,.06-.39.43.43,0,0,1,0-.12.69.69,0,0,0,.15.14,1.23,1.23,0,0,0-.19.38.75.75,0,0,0,.12.65c.14.17.37.2.48.36a.62.62,0,0,1,0,.1c0,.1-.07.22,0,.32a.06.06,0,0,0,0,.05.33.33,0,0,0,.16.13c.16.1.5.26.67.13,0,.25.16.59.45.56a1.05,1.05,0,0,0,.5-.29.75.75,0,0,0,.33.47h0a.4.4,0,0,0,.21.07.64.64,0,0,0,.59-.2.64.64,0,0,0,1.18.43,1.11,1.11,0,0,0,1.6.64,1.11,1.11,0,0,0,.9.21c.15-.05.53-.19.6-.32a.62.62,0,0,0,1.05,0,.7.7,0,0,0,.81.15.63.63,0,0,0,.29-.34h0a.58.58,0,0,0,.08-.22.71.71,0,0,0,.68,0A.46.46,0,0,0,54.9,11s0,0,.06,0L55,11a1,1,0,0,0,.8,0,1,1,0,0,0,.39-.63A1.06,1.06,0,0,0,57.47,10a.27.27,0,0,0,.06-.12,1.35,1.35,0,0,0,.1-.46.73.73,0,0,0,.6.07.14.14,0,0,0,.09,0,.94.94,0,0,0,.54-.53l0-.05a.51.51,0,0,0,0-.29.61.61,0,0,0,.83-.73.87.87,0,0,0,.34,0,.55.55,0,0,0,.26-.2.31.31,0,0,0,.07-.2A.42.42,0,0,0,60.35,7a.22.22,0,0,0-.08-.13l0,0a.73.73,0,0,0,.32-.15.56.56,0,0,0-.1-1c.05-.1.11-.18.16-.27a.23.23,0,0,1,.09.08c.52.51.25,1.17-.08,1.71h0Z"/><path class="cls-8" d="M55.06,10.82a.8.8,0,0,1-.09.39.59.59,0,0,1-.3.28.76.76,0,0,1-.42,0,1,1,0,0,1-.35-.16,1.47,1.47,0,0,0,.7,0,.49.49,0,0,0,.26-.19A1.45,1.45,0,0,0,55.06,10.82Z"/><path class="cls-8" d="M53.85,10.44a.76.76,0,0,1-.08.39.57.57,0,0,1-.31.28.64.64,0,0,1-.41,0,1,1,0,0,1-.36-.16,1.67,1.67,0,0,0,.71,0,.63.63,0,0,0,.26-.2A1.93,1.93,0,0,0,53.85,10.44Z"/><path class="cls-8" d="M51,10.72a.88.88,0,0,1-.08.39.61.61,0,0,1-.31.28.65.65,0,0,1-.41,0,1,1,0,0,1-.36-.16,1.67,1.67,0,0,0,.71,0,.7.7,0,0,0,.26-.2A1.93,1.93,0,0,0,51,10.72Z"/><path class="cls-8" d="M51.29,9.8a.69.69,0,0,1-.08.39.59.59,0,0,1-.3.28.84.84,0,0,1-.41,0,1,1,0,0,1-.36-.16,1.48,1.48,0,0,0,.7,0,.56.56,0,0,0,.26-.2A2.32,2.32,0,0,0,51.29,9.8Z"/><path class="cls-8" d="M53.76,8.48a.69.69,0,0,1-.08.39.57.57,0,0,1-.31.28.72.72,0,0,1-.41,0A1,1,0,0,1,52.61,9a1.48,1.48,0,0,0,.7,0,.61.61,0,0,0,.26-.19A3.37,3.37,0,0,0,53.76,8.48Z"/><path class="cls-8" d="M55.45,8.93a.8.8,0,0,1-.09.39.59.59,0,0,1-.3.28.73.73,0,0,1-.41,0,1,1,0,0,1-.36-.16,1.62,1.62,0,0,0,.7,0,.57.57,0,0,0,.26-.2A2,2,0,0,0,55.45,8.93Z"/><path class="cls-8" d="M55.89,8.28a.88.88,0,0,1-.08.39.64.64,0,0,1-.72.31,1,1,0,0,1-.36-.16,1.67,1.67,0,0,0,.71,0,.6.6,0,0,0,.25-.2A1.45,1.45,0,0,0,55.89,8.28Z"/><path class="cls-8" d="M56.89,8.4a.84.84,0,0,1-.08.38.67.67,0,0,1-.31.29.72.72,0,0,1-.41,0,1,1,0,0,1-.36-.16,1.53,1.53,0,0,0,.71,0,.7.7,0,0,0,.26-.2A2.32,2.32,0,0,0,56.89,8.4Z"/><path class="cls-8" d="M56.07,6.63A.74.74,0,0,1,56,7a.63.63,0,0,1-.31.29.72.72,0,0,1-.41,0,1,1,0,0,1-.36-.16,1.52,1.52,0,0,0,.71,0,.63.63,0,0,0,.26-.2A1.93,1.93,0,0,0,56.07,6.63Z"/><path class="cls-8" d="M58.93,7.63a.8.8,0,0,1-.09.39.55.55,0,0,1-.3.28.73.73,0,0,1-.41,0,1.07,1.07,0,0,1-.36-.16,1.52,1.52,0,0,0,.71,0A.67.67,0,0,0,58.74,8,3.37,3.37,0,0,0,58.93,7.63Z"/><path class="cls-8" d="M58.33,9.28a.73.73,0,0,1-.08.38.63.63,0,0,1-.31.29.72.72,0,0,1-.41,0,1,1,0,0,1-.36-.16,1.52,1.52,0,0,0,.71,0,.63.63,0,0,0,.26-.2A2.32,2.32,0,0,0,58.33,9.28Z"/><path class="cls-8" d="M59.9,8.28a.73.73,0,0,1-.08.38.59.59,0,0,1-.31.29.72.72,0,0,1-.41,0,.83.83,0,0,1-.36-.16,1.52,1.52,0,0,0,.71,0,.7.7,0,0,0,.26-.2A2.32,2.32,0,0,0,59.9,8.28Z"/><path class="cls-9" d="M61.63,8.59a6.93,6.93,0,0,0-.69-.43A1.19,1.19,0,0,1,60.69,8c-.09,0-.17-.08-.26-.12l-.35-.15A16.2,16.2,0,0,0,57.88,7l-.44-.13s0,0-.06,0a12,12,0,0,0-3.31-.49l-.25,0a4.64,4.64,0,0,0-.54.13,8.63,8.63,0,0,0-1.42.65c-.47.27-.94.57-1.41.89s-.93.66-1.36,1l-1,.74c-.52.42-.94.79-1.25,1.05l-.41.36a1.88,1.88,0,0,1-.92.44,1.77,1.77,0,0,1-.94,0,.69.69,0,0,1-.38-.22A8.23,8.23,0,0,0,42.41,10c-.16-.09-.32-.18-.49-.26l-.42-.2c-.56-.25-.56-.52-.32-.83v0c.26-.33.77-.7,1.15-1.13a7.48,7.48,0,0,0,.57-.84c.06-.1.12-.18.18-.27l.17-.25s0,0,0,0a3.16,3.16,0,0,0,.2-.27c.33-.45.71-1,1.14-1.46l.47-.52.31-.32c.23-.25.47-.48.73-.72h0a3.18,3.18,0,0,1,.36-.3A9.88,9.88,0,0,1,49,1l.63-.25A8.12,8.12,0,0,1,51.8.32a5.93,5.93,0,0,1,.85,0h0a1.62,1.62,0,0,1,.31,0H53a10.68,10.68,0,0,1,1.78.27,7.59,7.59,0,0,1,1.85.69c.1.06.22.11.33.19s.34.2.51.3l0,0a8.27,8.27,0,0,1,.88.64c.13.1.27.22.39.33h0A13.18,13.18,0,0,1,60,4l.08.1a18.09,18.09,0,0,1,2,2.76,5.84,5.84,0,0,1,.45,1.32.15.15,0,0,1,0,.07C62.64,8.81,62.49,9.21,61.63,8.59Z"/><path class="cls-10" d="M62.56,8.26c0,.36-.22.52-.9,0A4.56,4.56,0,0,0,61,7.91a1.51,1.51,0,0,0-.31-.16,1.58,1.58,0,0,0-.26-.13.34.34,0,0,0-.12-.06c-.08,0-.18-.07-.27-.12l-.45-.18c-.55-.21-1.13-.41-1.71-.58a2.14,2.14,0,0,0-.34-.09h0a.14.14,0,0,0-.09,0A14.05,14.05,0,0,0,56,6.23a4.3,4.3,0,0,0-.45-.08A7.47,7.47,0,0,0,54.11,6a.73.73,0,0,0-.25,0l-.2,0a2.68,2.68,0,0,0-.35.1c-.21.07-.43.16-.68.27l-.56.28-.18.1c-.46.26-.93.57-1.41.89s-.92.65-1.35,1l-.58.45-.39.31-.29.24c-.48.39-.87.73-1.13,1a.15.15,0,0,0-.06,0v0s0,0,0,0a.9.9,0,0,0-.17.14,2.24,2.24,0,0,1-1.66.5l-.22-.06a.73.73,0,0,1-.35-.22,4.76,4.76,0,0,0-1-.81,1.2,1.2,0,0,0-.27-.19c-.18-.13-.38-.25-.57-.37h0a1.28,1.28,0,0,0-.25-.14L42,9.47l0,0a2.2,2.2,0,0,0-.39-.17c-.36-.16-.44-.34-.35-.55v0c.17-.37.79-.83,1.18-1.43.16-.24.37-.56.63-.93,0,0,.07-.11.12-.17l.18-.26c.37-.52.82-1.1,1.32-1.69.16-.2.33-.39.5-.58.32-.36.68-.71,1.05-1A10,10,0,0,1,49.05.7,8.23,8.23,0,0,1,51.82,0a10.13,10.13,0,0,1,3,.27A8.84,8.84,0,0,1,56.69,1a10.18,10.18,0,0,1,1.75,1.15A13.2,13.2,0,0,1,60.2,3.87s0,0,0,0l.3.35A15.18,15.18,0,0,1,62,6.51a5.29,5.29,0,0,1,.55,1.68A.15.15,0,0,1,62.56,8.26Z"/><path class="cls-11" d="M60.72,7.74l-.26-.12a.28.28,0,0,0,0-.09,5.76,5.76,0,0,0-.26-1.07,6.3,6.3,0,0,0-1.06-1.92c-.48-.61-.93-1.24-1.37-1.87S57,1.57,56.69,1a10.18,10.18,0,0,1,1.75,1.15.41.41,0,0,0,.05.09c.36.66.74,1.32,1.15,1.95a5.64,5.64,0,0,1,.56,1.06,7.31,7.31,0,0,1,.36,1.12,5.68,5.68,0,0,1,.16,1.16Z"/><path class="cls-11" d="M57.92,6.68l-.45-.12c-.3-.37-.58-.75-.87-1.12L54.55,2.78l-.25-.32A3.58,3.58,0,0,0,54,2.17a3.86,3.86,0,0,0-.58-.49,4.62,4.62,0,0,0-1.4-.61A8.87,8.87,0,0,0,50.49.81L49.05.69A8.47,8.47,0,0,1,51.83,0l.51.16A5.58,5.58,0,0,1,53.93,1a4.43,4.43,0,0,1,.66.64,3.38,3.38,0,0,1,.27.36l.24.35L56.93,5.2c.3.47.61.93.93,1.39Z"/><path class="cls-11" d="M53.86,6.07a5,5,0,0,0-.55.14c-.41-.2-.82-.42-1.22-.64s-.86-.48-1.28-.74l-.64-.38-.31-.19-.16-.09-.14-.08a5.17,5.17,0,0,0-2.62-.57,11.14,11.14,0,0,0-1.41.1l-.41,0c.33-.35.68-.71,1-1h0a6.77,6.77,0,0,1,.78,0,6.92,6.92,0,0,1,1.56.18A5.44,5.44,0,0,1,50,3.37l.17.12.15.1.3.21.6.43,1.2.85,1.2.83Z"/><path class="cls-11" d="M51.89,6.86c-.46.26-.93.57-1.41.89l-1-.2c-.37-.08-.74-.15-1.1-.24l-.15,0-.61-.15L47,6.94c-.65-.19-1.3-.37-2-.5l-.39-.08h0c-.43-.07-.85-.13-1.29-.16h-.16l.18-.26h.18c.34,0,.68,0,1,0h.12A3,3,0,0,1,45,6a12.15,12.15,0,0,1,1.23.16l.86.15.6.11.61.1c.3,0,.61.08.92.1l.31,0C50.34,6.75,51.12,6.81,51.89,6.86Z"/><path class="cls-11" d="M49.13,8.73l-1,.75c-.29,0-.58,0-.88,0l-1,.11-.54.07a4.65,4.65,0,0,1-.57,0L43,9.74h-.56L42,9.47l1-.06,2.13-.18a3.43,3.43,0,0,0,.49-.09L46.13,9l1.06-.22a9.61,9.61,0,0,1,1.11-.14,3.19,3.19,0,0,1,.61,0Z"/><path class="cls-12" d="M62.56,8.26c0,.36-.22.52-.9,0A4.56,4.56,0,0,0,61,7.91a1.51,1.51,0,0,0-.31-.16,1.58,1.58,0,0,0-.26-.13.34.34,0,0,0-.12-.06c-.08,0-.18-.07-.27-.12l-.45-.18c-.55-.21-1.13-.41-1.71-.58a2.14,2.14,0,0,0-.34-.09h0a.14.14,0,0,0-.09,0A14.05,14.05,0,0,0,56,6.23a4.3,4.3,0,0,0-.45-.08A7.47,7.47,0,0,0,54.11,6a.73.73,0,0,0-.25,0l-.2,0a2.68,2.68,0,0,0-.35.1c-.21.07-.43.16-.68.27l-.56.28-.18.1c-.46.26-.93.57-1.41.89s-.92.65-1.35,1l-.58.45-.39.31-.29.24c-.48.39-.87.73-1.13,1a.15.15,0,0,0-.06,0v0s0,0,0,0a.9.9,0,0,0-.17.14,2.24,2.24,0,0,1-1.66.5l-.22-.06a.73.73,0,0,1-.35-.22,4.76,4.76,0,0,0-1-.81,1.2,1.2,0,0,0-.27-.19c-.18-.13-.38-.25-.57-.37h0a1.28,1.28,0,0,0-.25-.14L42,9.47l0,0a2.2,2.2,0,0,0-.39-.17c-.36-.16-.44-.34-.35-.55v0c.17-.37.79-.83,1.18-1.43.16-.24.37-.56.63-.93q0,.21-.09.39c-.17.7-.24,1.18.26,1.4a2.15,2.15,0,0,0,.69.12h0a5.75,5.75,0,0,0,.72,0,8.43,8.43,0,0,0,3.24-.65c.14-.09.31-.18.48-.31l.92-.68A10.41,10.41,0,0,1,51.6,5.29a4.82,4.82,0,0,1,.79-.22,4.44,4.44,0,0,1,1.22-.13c1.11,0,2,.1,2.73.16h0c.2,0,.38,0,.54.05a6.29,6.29,0,0,0,1.82,0l.21-.06a2.34,2.34,0,0,0,.45-.19,1.58,1.58,0,0,0,.47-.36l.09-.09a1.23,1.23,0,0,0,.19-.31.78.78,0,0,0,.09-.21l.3.35A15.18,15.18,0,0,1,62,6.51a5.29,5.29,0,0,1,.55,1.68A.15.15,0,0,1,62.56,8.26Z"/><path class="cls-13" d="M56.35,1C54.4,0,51,.22,49.06,1a19.31,19.31,0,0,0-3.81,2.78c-1.39,1.76-1,2.85.73,2.43a9.89,9.89,0,0,0,3.51-2c2.42-1.68,8.29.28,9-.09C59.56,3.61,58.11,2,56.35,1Z"/><path class="cls-3" d="M61.63,8.59a6.93,6.93,0,0,0-.69-.43,1,1,0,0,1-.5.29c.32.39.13.93-.54.9a.61.61,0,0,1-.83.73.88.88,0,0,1-1.28.83A1.07,1.07,0,0,1,56.38,12a.17.17,0,0,1,0,.07c-.16-.11-.33-.21-.51-.31a4.74,4.74,0,0,0-.5-.26c-.15-.08-.29-.14-.43-.2h0l-.12-.07a.35.35,0,0,1-.12-.07c-.31-.22-.28-.45-.09-.71S55.4,9.58,55.81,9h0l0,0,.3-.45a1,1,0,0,0,.08-.11c.08-.12.15-.23.25-.36l.13-.18.18-.25c.18-.23.37-.5.59-.76,0-.08.12-.16.18-.24h0c0-.08.11-.13.15-.19.3-.37.63-.75,1-1.12l.23-.22.34-.35a6,6,0,0,1,.46-.42s0,0,0,0l0,0A2.88,2.88,0,0,1,60,4a.7.7,0,0,1,.16-.14l.31.38A15.18,15.18,0,0,1,62,6.51a5.29,5.29,0,0,1,.55,1.68.15.15,0,0,1,0,.07C62.64,8.81,62.49,9.21,61.63,8.59Z"/><path class="cls-6" d="M59.31,8.3c0-.09-.87.69-.92.75a1.07,1.07,0,0,0-.18.58,2,2,0,0,0,0,.77,1,1,0,0,0,.37.79.84.84,0,0,0-.07,1c.17.2.47.2.52.46,0,.09-.08.21,0,.33s.14.13.21.17.49.26.66.12c0,.26.16.6.45.57a1.36,1.36,0,0,0,.51-.29.66.66,0,0,0,1.14.34.63.63,0,0,0,1.16.43,1.13,1.13,0,0,0,1.61.65,1,1,0,0,0,.89.19c.16,0,.54-.18.61-.32a.61.61,0,0,0,1,0,.77.77,0,0,0,.83.14.94.94,0,0,0,.36-.58c.26.22.83,0,.92-.18a1,1,0,0,0,.92.12,1.05,1.05,0,0,0,.39-.64,1.07,1.07,0,0,0,1.41-1.06.88.88,0,0,0,1.28-.83.61.61,0,0,0,.83-.74c.66,0,.85-.51.53-.89.75-.19.75-.81.27-1.14.34-.54.61-1.22.09-1.73-.17-.16-.47-.26-.53-.46s0-.26-.12-.47a5.74,5.74,0,0,0-1.06-.9,4.16,4.16,0,0,0-.93-.69,4.06,4.06,0,0,0-1.24-.19,1.6,1.6,0,0,0-1,.24c-.08.08-.2.27-.31.29s-.73-.45-.91-.56A3,3,0,0,0,67.27,4a1,1,0,0,0-.75,1c-.37,0-.8-.14-1.18-.18A2,2,0,0,0,64,5a2.87,2.87,0,0,0-1.45,1.18c-.08.17-.26.33-.24.52-.7-.21-1.63-.87-2.26-.19C59.71,6.91,59.14,7.78,59.31,8.3Z"/><path class="cls-7" d="M75,9.07c.34-.54.61-1.22.09-1.73L75,7.26a2.54,2.54,0,0,1-.16.28c.48.32.49.94-.27,1.13.32.38.14.94-.52.89a.62.62,0,0,1-.84.74.88.88,0,0,1-1.28.83,1.07,1.07,0,0,1-1.41,1.06,1,1,0,0,1-.39.64,1,1,0,0,1-.92-.12c-.08.17-.66.4-.91.18a.88.88,0,0,1-.37.58.77.77,0,0,1-.83-.14.61.61,0,0,1-1,0c-.08.13-.46.26-.61.31a1,1,0,0,1-.89-.19A1.13,1.13,0,0,1,63,12.81a.63.63,0,0,1-1.17-.43A.66.66,0,0,1,60.64,12a1.36,1.36,0,0,1-.51.29c-.29,0-.42-.31-.45-.57-.16.14-.51,0-.66-.12s-.18-.1-.21-.17,0-.23,0-.33c0-.26-.35-.26-.52-.46a.84.84,0,0,1,.08-1,.46.46,0,0,1-.16-.15.51.51,0,0,0,0,.13,2,2,0,0,0,0,.77,1,1,0,0,0,.37.79.84.84,0,0,0-.07,1c.17.2.47.2.52.46,0,.09-.08.21,0,.33s.14.13.21.17.49.26.66.12c0,.26.16.6.45.57a1.36,1.36,0,0,0,.51-.29.66.66,0,0,0,1.14.34.63.63,0,0,0,1.16.43,1.13,1.13,0,0,0,1.61.65,1,1,0,0,0,.89.19c.16,0,.54-.18.61-.32a.61.61,0,0,0,1,0,.77.77,0,0,0,.83.14.94.94,0,0,0,.36-.58c.26.22.83,0,.92-.18a1,1,0,0,0,.92.12,1.05,1.05,0,0,0,.39-.64,1.07,1.07,0,0,0,1.41-1.06.88.88,0,0,0,1.28-.83.61.61,0,0,0,.83-.74c.66,0,.85-.51.53-.89C75.48,10,75.48,9.4,75,9.07Z"/><path class="cls-8" d="M69.35,12.58a.78.78,0,0,1-.08.39.61.61,0,0,1-.31.28.72.72,0,0,1-.41,0,1.17,1.17,0,0,1-.36-.16,1.52,1.52,0,0,0,.71,0,.58.58,0,0,0,.26-.19A2.46,2.46,0,0,0,69.35,12.58Z"/><path class="cls-8" d="M68.15,12.2a.77.77,0,0,1-.09.39.59.59,0,0,1-.3.28.76.76,0,0,1-.42,0,.86.86,0,0,1-.35-.16,1.62,1.62,0,0,0,.7,0,.63.63,0,0,0,.26-.2A2,2,0,0,0,68.15,12.2Z"/><path class="cls-8" d="M65.24,12.48a.78.78,0,0,1-.08.39.57.57,0,0,1-.31.28.72.72,0,0,1-.41,0,1.17,1.17,0,0,1-.36-.16,1.67,1.67,0,0,0,.71,0,.63.63,0,0,0,.26-.2A1.93,1.93,0,0,0,65.24,12.48Z"/><path class="cls-8" d="M65.59,11.56a.84.84,0,0,1-.08.38.67.67,0,0,1-.31.29.72.72,0,0,1-.41,0,.83.83,0,0,1-.36-.16,1.41,1.41,0,0,0,.71,0,.61.61,0,0,0,.26-.2A2.32,2.32,0,0,0,65.59,11.56Z"/><path class="cls-8" d="M68.06,10.24a.84.84,0,0,1-.08.38.62.62,0,0,1-.31.29.72.72,0,0,1-.41,0,1,1,0,0,1-.36-.15,1.52,1.52,0,0,0,.71,0,.61.61,0,0,0,.26-.2A2.32,2.32,0,0,0,68.06,10.24Z"/><path class="cls-8" d="M69.74,10.69a.78.78,0,0,1-.08.39.57.57,0,0,1-.31.28.72.72,0,0,1-.41,0,1.17,1.17,0,0,1-.36-.16,1.51,1.51,0,0,0,.71,0,.67.67,0,0,0,.26-.19A2.46,2.46,0,0,0,69.74,10.69Z"/><path class="cls-8" d="M70.18,10a.76.76,0,0,1-.08.39.57.57,0,0,1-.31.28.64.64,0,0,1-.41,0,1,1,0,0,1-.36-.16,1.67,1.67,0,0,0,.71,0,.63.63,0,0,0,.26-.2A1.93,1.93,0,0,0,70.18,10Z"/><path class="cls-8" d="M71.18,10.15a.76.76,0,0,1-.08.39.57.57,0,0,1-.31.28.64.64,0,0,1-.41,0,.86.86,0,0,1-.35-.16,1.48,1.48,0,0,0,.7,0,.63.63,0,0,0,.26-.2A1.93,1.93,0,0,0,71.18,10.15Z"/><path class="cls-8" d="M70.37,8.39a.75.75,0,0,1-.09.39.57.57,0,0,1-.31.28.64.64,0,0,1-.41,0,.86.86,0,0,1-.35-.16,1.48,1.48,0,0,0,.7,0,.57.57,0,0,0,.26-.2A2,2,0,0,0,70.37,8.39Z"/><path class="cls-8" d="M73.22,9.39a.73.73,0,0,1-.08.38.59.59,0,0,1-.31.29.72.72,0,0,1-.41,0,1,1,0,0,1-.36-.15,1.51,1.51,0,0,0,.71,0A.63.63,0,0,0,73,9.7,2.32,2.32,0,0,0,73.22,9.39Z"/><path class="cls-8" d="M72.63,11a.77.77,0,0,1-.09.39.65.65,0,0,1-.3.29.72.72,0,0,1-.41,0,.85.85,0,0,1-.36-.16,1.67,1.67,0,0,0,.71,0,.6.6,0,0,0,.25-.2A2,2,0,0,0,72.63,11Z"/><path class="cls-8" d="M74.19,10a.64.64,0,0,1-.08.38.63.63,0,0,1-.31.29.72.72,0,0,1-.41,0,.86.86,0,0,1-.35-.16,1.48,1.48,0,0,0,.7,0,.63.63,0,0,0,.26-.2A2.32,2.32,0,0,0,74.19,10Z"/><path class="cls-14" d="M75.92,10.35A6.68,6.68,0,0,0,75,9.8a2.1,2.1,0,0,0-.26-.13,19.24,19.24,0,0,0-2.54-.94l-.45-.12a12.17,12.17,0,0,0-3.36-.51,1.07,1.07,0,0,0-.25,0,3,3,0,0,0-.54.13,7.94,7.94,0,0,0-1.42.65h0c-.47.26-1,.56-1.42.88s-.92.65-1.35,1l-1,.76c-.82.66-1.45,1.21-1.67,1.4-.68.6-1.85.66-2.22.22a9.05,9.05,0,0,0-1.84-1.38l-.48-.26h0l-.43-.2c-1.14-.52.08-1.15.84-2a12.52,12.52,0,0,0,.75-1.1L57.56,8A24.42,24.42,0,0,1,59.38,5.7c.33-.36.68-.71,1-1h0a10.46,10.46,0,0,1,2.88-1.91,8.47,8.47,0,0,1,2.78-.67,10.21,10.21,0,0,1,3,.28A8.4,8.4,0,0,1,71,3,10.8,10.8,0,0,1,72.7,4.18a16.83,16.83,0,0,1,3.69,4.45C76.58,9,77.6,11.55,75.92,10.35Z"/><path class="cls-15" d="M76,10.05A8.89,8.89,0,0,0,75,9.5l-.26-.12a17.93,17.93,0,0,0-2.54-.94l-.44-.12a12.28,12.28,0,0,0-3.37-.51l-.25,0a4.32,4.32,0,0,0-.54.14,7.94,7.94,0,0,0-1.42.65h0c-.47.26-.94.56-1.42.89s-.92.65-1.35,1-.66.51-1,.75c-.83.67-1.45,1.22-1.67,1.41-.69.59-1.86.66-2.23.22a9.22,9.22,0,0,0-1.83-1.38l-.49-.26h0a4.14,4.14,0,0,0-.43-.2c-1-.41.22-1,.84-2,.19-.28.44-.66.75-1.1l.18-.26A23.11,23.11,0,0,1,59.42,5.4a14.58,14.58,0,0,1,1-1h0a10.25,10.25,0,0,1,2.88-1.91,8.47,8.47,0,0,1,2.78-.67,10.15,10.15,0,0,1,3,.27A8.42,8.42,0,0,1,71,2.74a10.18,10.18,0,0,1,1.75,1.15A15.29,15.29,0,0,1,76.3,8.28C76.49,8.6,77.63,11.25,76,10.05Z"/><path class="cls-16" d="M75,9.5l-.26-.12V9.29a5.79,5.79,0,0,0-.27-1.07,6.45,6.45,0,0,0-1-1.93c-.49-.6-.94-1.23-1.37-1.86S71.32,3.33,71,2.74a10.18,10.18,0,0,1,1.75,1.15l0,.09c.37.66.75,1.32,1.16,1.95A5.83,5.83,0,0,1,74.49,7a7.8,7.8,0,0,1,.36,1.13A5.68,5.68,0,0,1,75,9.27Z"/><path class="cls-16" d="M72.21,8.44l-.44-.12c-.3-.37-.59-.75-.88-1.12l-2-2.66-.26-.32a3.47,3.47,0,0,0-.25-.29,3.94,3.94,0,0,0-.59-.49,4.62,4.62,0,0,0-1.4-.61,8.87,8.87,0,0,0-1.57-.26l-1.44-.12a8.47,8.47,0,0,1,2.78-.67l.51.16a5.64,5.64,0,0,1,1.6.86,4.37,4.37,0,0,1,.65.64c.1.11.19.23.28.35l.23.36L71.22,7c.31.47.61.93.93,1.39Z"/><path class="cls-16" d="M68.15,7.83a4.32,4.32,0,0,0-.54.14c-.42-.2-.82-.42-1.23-.64s-.86-.48-1.28-.74l-.63-.38L64.15,6,64,5.93l-.15-.08a5.15,5.15,0,0,0-2.62-.57,13.69,13.69,0,0,0-1.41.09,2.69,2.69,0,0,1-.4,0,14.58,14.58,0,0,1,1-1h0a6.77,6.77,0,0,1,.78,0,6.31,6.31,0,0,1,1.55.18,5.32,5.32,0,0,1,1.48.61l.17.11.15.11.3.21.6.43,1.2.85c.4.27.8.56,1.21.83Z"/><path class="cls-16" d="M66.19,8.62c-.47.26-.94.56-1.42.89l-1-.2L62.49,9l-.62-.15-.6-.18c-.79-.23-1.6-.44-2.41-.59a11.71,11.71,0,0,0-1.45-.17l.18-.26c.44,0,.88,0,1.32,0a23.33,23.33,0,0,1,2.51.36l.61.11.6.1,1.23.14C64.63,8.51,65.41,8.57,66.19,8.62Z"/><path class="cls-17" d="M63.42,10.49c-.34.26-.66.51-1,.75-.29,0-.59,0-.89,0l-1,.12-.53.07a4.84,4.84,0,0,1-.57,0l-2.14,0h-.55l-.49-.26,1-.07L59.41,11a3.43,3.43,0,0,0,.49-.09l.52-.11c.35-.08.7-.16,1.06-.22a9.9,9.9,0,0,1,1.11-.14,3.16,3.16,0,0,1,.61,0Z"/><path class="cls-18" d="M76,10.05A16.59,16.59,0,0,0,68.4,7.81c-2.24.11-6.92,4.25-7.6,4.84s-1.86.66-2.23.22A9.53,9.53,0,0,0,55.82,11c-1-.41.22-1,.84-2,.17-.24.38-.56.63-.93-.2.9-.41,1.54.17,1.79a8.48,8.48,0,0,0,4.69-.52c1.1-.6,3.06-2.76,5.75-2.68s4.07.41,5.1.17a1.91,1.91,0,0,0,1.51-1.22A16.93,16.93,0,0,1,76.3,8.28C76.49,8.6,77.63,11.25,76,10.05Z"/><path class="cls-13" d="M70.65,2.77c-2-1.06-5.35-.79-7.3,0a19.92,19.92,0,0,0-3.81,2.78c-1.39,1.76-.95,2.85.73,2.43a9.72,9.72,0,0,0,3.51-2c2.43-1.68,8.29.28,9-.09C73.86,5.37,72.41,3.72,70.65,2.77Z"/><path class="cls-19" d="M44.62,4.23v7.4a.69.69,0,0,1-.38-.22A8.23,8.23,0,0,0,42.41,10c-.16-.09-.32-.18-.49-.26l-.42-.2c-.56-.25-.56-.52-.32-.83v0c.17-.37.79-.83,1.18-1.43.16-.24.37-.56.63-.93,0,0,.07-.11.12-.17l.18-.26C43.67,5.4,44.12,4.82,44.62,4.23Z"/><path class="cls-20" d="M44,3.7v9.07a1.24,1.24,0,0,1-.11.48,1.21,1.21,0,0,1-.19.29.88.88,0,0,1-.31.27c-.29.16-.59.3-.89.43a11.73,11.73,0,0,1-2.64.77,11.41,11.41,0,0,1-4.24-.11A11.5,11.5,0,0,1,33.05,14c-.14-.06-.26-.13-.39-.2a1.28,1.28,0,0,1-.61-1V3.7a11.62,11.62,0,0,0,2.32,1.08,10.36,10.36,0,0,0,1.29.36,11.3,11.3,0,0,0,4.22.09h0a11.19,11.19,0,0,0,2.62-.76L43,4.25A10,10,0,0,0,44,3.7Z"/><path class="cls-21" d="M38.57,10.19c0,.3-.81.58-1.06.75a5.63,5.63,0,0,1-.76.42c-.31.16-.48.2-.54.52a1.71,1.71,0,0,0,.14.74c.23.66.49,1.11-.15,1.58-.29.2-.51.31-.56.68v0A11.5,11.5,0,0,1,33.05,14a.41.41,0,0,0,.14-.62c0-.07-.18-.19-.23-.26l-.19-.26a1.18,1.18,0,0,1-.26-.45,1.27,1.27,0,0,1,.29-1.33,1.78,1.78,0,0,0,.41-.59,2.55,2.55,0,0,1,.3-.81c.24-.26.6-.15.69-.54.25-1.05-1.12-1.41-1.52-2.24a1.54,1.54,0,0,1-.07-1.24c.32-.58,1.23-.36,1.78-.43a2.26,2.26,0,0,0,0-.46,10.36,10.36,0,0,0,1.29.36,3.48,3.48,0,0,0,.49.59,5.13,5.13,0,0,1,1.11,1c-.33.59-1.91-.51-2.18.11-.14.32.18.94.33,1.23s.36.75.57,1.11.16.3.41.35a5.41,5.41,0,0,0,.9,0A1.21,1.21,0,0,1,38.57,10.19Z"/><path class="cls-22" d="M43.91,13.25a1.21,1.21,0,0,1-.19.29A10.66,10.66,0,0,0,42.45,13a5.94,5.94,0,0,1-1.57-.73,1.15,1.15,0,0,1-.37-.74c0-.65.44-.92.76-1.37a2.12,2.12,0,0,0,.4-.64c.08-.24.26-.86.12-1.11s-.85,0-1.17-.1c-.53-.1-.64-1-.7-1.42a10,10,0,0,1,0-1.64,11.19,11.19,0,0,0,3.1-1,5.92,5.92,0,0,1,0,1.19,8.21,8.21,0,0,1-.34,1.14,2.3,2.3,0,0,0,.26,1.75,2,2,0,0,1,.19,2c-.1.24-.19.48-.31.73s-.14.54-.26.82a14.54,14.54,0,0,1,1.07,1A2,2,0,0,1,43.91,13.25Z"/><path class="cls-13" d="M42.52,4.47v9.77a11.73,11.73,0,0,1-2.64.77V5.23h0A11.19,11.19,0,0,0,42.52,4.47Z"/><path class="cls-23" d="M44,3.72c0,1.3-2.68,2.35-6,2.35s-6-1.05-6-2.35,2.68-2.34,6-2.34S44,2.43,44,3.72Z"/><path class="cls-20" d="M38,5.72c-3.33,0-5.64-1-5.64-2s2.31-2,5.64-2,5.63,1,5.63,2S41.36,5.72,38,5.72Z"/><path class="cls-6" d="M38,5.59c-.14,0-.4-.22-.4-.22s-.28.21-.41.2-.38-.24-.38-.24a1.14,1.14,0,0,1-.41.18c-.14,0-.37-.27-.37-.27a1.07,1.07,0,0,1-.43.16c-.13,0-.34-.29-.34-.29a1.12,1.12,0,0,1-.44.12c-.13,0-.32-.32-.32-.32a1.13,1.13,0,0,1-.45.08c-.13,0-.28-.35-.28-.35a1.07,1.07,0,0,1-.46,0c-.12-.07-.21-.4-.21-.4s-.37,0-.44-.11,0-.43,0-.43-.14-.3,0-.42.44-.12.44-.12.09-.32.22-.39.45,0,.45,0,.15-.3.28-.35.45.08.45.08.19-.29.32-.32a1.07,1.07,0,0,1,.44.12s.21-.27.34-.29a1.09,1.09,0,0,1,.43.15s.23-.25.37-.26.41.17.41.17.25-.23.38-.24a1.18,1.18,0,0,1,.41.2s.26-.22.4-.22.39.22.39.22a1.11,1.11,0,0,1,.4-.2c.14,0,.39.24.39.24s.28-.19.41-.17.37.26.37.26a1.09,1.09,0,0,1,.43-.15c.13,0,.34.29.34.29a1.07,1.07,0,0,1,.44-.12c.13,0,.32.32.32.32s.33-.13.45-.08.28.35.28.35a1.07,1.07,0,0,1,.46,0c.12.07.21.39.21.39s.37,0,.44.12,0,.42,0,.42.14.31,0,.43-.44.11-.44.11-.09.33-.22.4-.45,0-.45,0-.15.3-.29.35a1.11,1.11,0,0,1-.44-.08s-.19.28-.32.32a1.07,1.07,0,0,1-.44-.12s-.21.26-.34.29A1.07,1.07,0,0,1,40,5.24s-.23.25-.37.27a1.06,1.06,0,0,1-.41-.18s-.25.24-.38.24-.41-.2-.41-.2S38.17,5.59,38,5.59Z"/><path class="cls-7" d="M43.37,3.3c-.07-.09-.44-.12-.44-.12s-.09-.32-.21-.39a1.07,1.07,0,0,0-.46,0s-.15-.3-.28-.35-.45.08-.45.08-.19-.28-.32-.32a.4.4,0,0,0-.15,0,1,1,0,0,1,.27.34,1.06,1.06,0,0,1,.45,0c.13.07.22.39.22.39s.36,0,.44.12,0,.42,0,.42.15.3,0,.43S42,4,42,4s-.09.32-.22.39a1.06,1.06,0,0,1-.45,0s-.16.3-.29.35a1.07,1.07,0,0,1-.44-.08s-.19.28-.33.31-.43-.12-.43-.12-.22.27-.35.29A1.09,1.09,0,0,1,39.06,5s-.23.25-.36.27a1.12,1.12,0,0,1-.42-.18s-.24.23-.38.24-.4-.2-.4-.2-.27.22-.4.22-.39-.22-.39-.22-.28.21-.41.2-.38-.24-.38-.24a1.12,1.12,0,0,1-.42.18l-.07,0a.64.64,0,0,0,.21.15,1.07,1.07,0,0,0,.43-.16s.23.25.37.27a1.14,1.14,0,0,0,.41-.18s.25.24.38.24.41-.2.41-.2.26.22.4.22.39-.22.39-.22.28.21.41.2.38-.24.38-.24a1.06,1.06,0,0,0,.41.18c.14,0,.37-.27.37-.27a1.07,1.07,0,0,0,.43.16c.13,0,.34-.29.34-.29a1.07,1.07,0,0,0,.44.12c.13,0,.32-.32.32-.32A1.11,1.11,0,0,0,42,5c.14,0,.29-.35.29-.35s.35.08.45,0,.22-.4.22-.4.37,0,.44-.11,0-.43,0-.43S43.47,3.42,43.37,3.3Z"/><path class="cls-8" d="M38,4.35a.66.66,0,0,1,0,.34.51.51,0,0,1-.24.28.68.68,0,0,1-.68,0,1.41,1.41,0,0,0,.6-.09A.86.86,0,0,0,38,4.35Z"/><path class="cls-8" d="M39.53,4.58a.66.66,0,0,1,0,.34.55.55,0,0,1-.24.28.71.71,0,0,1-.68,0,1.45,1.45,0,0,0,.61-.09A.93.93,0,0,0,39.53,4.58Z"/><path class="cls-8" d="M39.85,4a.66.66,0,0,1,0,.34.55.55,0,0,1-.24.28.71.71,0,0,1-.68,0,1.38,1.38,0,0,0,.6-.09A.89.89,0,0,0,39.85,4Z"/><path class="cls-8" d="M40.72,4a.57.57,0,0,1,0,.34.53.53,0,0,1-.23.28.71.71,0,0,1-.68,0,1.43,1.43,0,0,0,.6-.09A.88.88,0,0,0,40.72,4Z"/><path class="cls-8" d="M35.92,4.6a.73.73,0,0,1-.27.22.5.5,0,0,1-.36,0,.7.7,0,0,1-.44-.52,1.51,1.51,0,0,0,.49.37A.88.88,0,0,0,35.92,4.6Z"/><path class="cls-8" d="M42.41,3.12a.71.71,0,0,1,0,.35.52.52,0,0,1-.24.27.71.71,0,0,1-.68,0,1.37,1.37,0,0,0,.6-.1A.86.86,0,0,0,42.41,3.12Z"/><path class="cls-9" d="M40.39,3.86a5.24,5.24,0,0,0-.63-1.32c-.23-.28-2.3,0-3.31.25l.2-.07-.72,0V3l.5,1.69,4.09-.47,0-.22Z"/><path class="cls-10" d="M40.53,4,40.2,4h0l-.26,0-1.39.16h0l-.29,0h0l-1.46.17-.35,0v0l-.29-1,0-.18-.15-.53a3.64,3.64,0,0,1,1-.28l.24-.05c.53-.09,1.13-.17,1.62-.21H39c.39,0,.68,0,.76.12l.1.13.09.17c.14.27.29.63.4.91,0,.07.05.13.07.19S40.53,4,40.53,4Z"/><path class="cls-11" d="M37.17,2.42a3.23,3.23,0,0,1-1,1l0-.18a3,3,0,0,0,.84-.81Z"/><path class="cls-11" d="M39,2.2a10.76,10.76,0,0,1-2.23,2.2l-.35,0v0a9.92,9.92,0,0,0,2.36-2.21Z"/><path class="cls-11" d="M40,2.62A17.88,17.88,0,0,1,38.54,4.2h0l-.29,0a16.32,16.32,0,0,0,1.63-1.78Z"/><path class="cls-11" d="M40.44,3.72,40.2,4h0l-.26,0c.15-.16.3-.33.44-.51C40.39,3.6,40.42,3.66,40.44,3.72Z"/><polygon class="cls-11" points="40.2 4.01 40.18 4.22 39.92 4.26 39.93 4.04 40.2 4.01"/><polygon class="cls-11" points="38.54 4.2 38.52 4.42 38.24 4.45 38.25 4.23 38.54 4.2"/><polygon class="cls-11" points="36.79 4.4 36.81 4.62 36.42 4.66 36.42 4.6 36.43 4.42 36.79 4.4"/><polygon class="cls-11" points="36.14 3.46 36.08 3.52 36.04 3.36 36.09 3.28 36.14 3.46"/><path class="cls-20" d="M18.2,3.7v9.07a1.24,1.24,0,0,1-.11.48,1.19,1.19,0,0,1-.18.29,1,1,0,0,1-.32.27,9.13,9.13,0,0,1-.89.43,11.73,11.73,0,0,1-2.64.77,11.41,11.41,0,0,1-4.24-.11A11.5,11.5,0,0,1,7.23,14l-.39-.2a1.28,1.28,0,0,1-.61-1V3.7A11.62,11.62,0,0,0,8.55,4.78a10,10,0,0,0,1.3.36,11.25,11.25,0,0,0,4.21.09h0a11.06,11.06,0,0,0,2.62-.76c.17-.07.33-.14.48-.22A10,10,0,0,0,18.2,3.7Z"/><path class="cls-21" d="M12.75,10.19c-.05.3-.81.58-1.06.75a5.08,5.08,0,0,1-.76.42c-.31.16-.48.2-.53.52a1.57,1.57,0,0,0,.13.74c.23.66.5,1.11-.15,1.58-.28.2-.51.31-.56.68v0A11.5,11.5,0,0,1,7.23,14a.41.41,0,0,0,.14-.62,2.68,2.68,0,0,0-.23-.26L7,12.87a1.18,1.18,0,0,1-.26-.45A1.27,1.27,0,0,1,7,11.09a1.65,1.65,0,0,0,.41-.59,2.55,2.55,0,0,1,.3-.81c.24-.26.6-.15.69-.54C8.64,8.1,7.26,7.74,6.86,6.91a1.54,1.54,0,0,1-.07-1.24c.32-.58,1.24-.36,1.78-.43a1.72,1.72,0,0,0,0-.46,10,10,0,0,0,1.3.36,3,3,0,0,0,.48.59,5.13,5.13,0,0,1,1.11,1c-.33.59-1.9-.51-2.18.11-.13.32.18.94.33,1.23s.36.75.57,1.11.16.3.41.35a5.41,5.41,0,0,0,.9,0A1.21,1.21,0,0,1,12.75,10.19Z"/><path class="cls-22" d="M18.09,13.25a1.19,1.19,0,0,1-.18.29A12.3,12.3,0,0,0,16.64,13a6,6,0,0,1-1.58-.73,1.15,1.15,0,0,1-.37-.74c0-.65.45-.92.76-1.37a2.38,2.38,0,0,0,.41-.64c.07-.24.25-.86.11-1.11s-.85,0-1.16-.1c-.53-.1-.65-1-.71-1.42a10,10,0,0,1,0-1.64,11.25,11.25,0,0,0,3.11-1,6.76,6.76,0,0,1,0,1.19,8.21,8.21,0,0,1-.34,1.14,2.34,2.34,0,0,0,.26,1.75,2,2,0,0,1,.19,2c-.1.24-.19.48-.31.73s-.14.54-.26.82a14.54,14.54,0,0,1,1.07,1A2,2,0,0,1,18.09,13.25Z"/><path class="cls-13" d="M16.7,4.47v9.77a11.73,11.73,0,0,1-2.64.77V5.23h0A11.06,11.06,0,0,0,16.7,4.47Z"/><path class="cls-23" d="M18.2,3.72c0,1.3-2.68,2.35-6,2.35s-6-1.05-6-2.35,2.68-2.34,6-2.34S18.2,2.43,18.2,3.72Z"/><path class="cls-20" d="M12.22,5.72c-3.33,0-5.64-1-5.64-2s2.31-2,5.64-2,5.63,1,5.63,2S15.54,5.72,12.22,5.72Z"/><path class="cls-6" d="M12.22,5.59c-.14,0-.4-.22-.4-.22s-.27.21-.4.2S11,5.33,11,5.33a1.06,1.06,0,0,1-.41.18c-.14,0-.37-.27-.37-.27s-.3.18-.42.16-.35-.29-.35-.29A1.12,1.12,0,0,1,9,5.23c-.13,0-.32-.32-.32-.32A1.13,1.13,0,0,1,8.27,5c-.13,0-.28-.35-.28-.35s-.35.08-.45,0-.22-.4-.22-.4-.37,0-.44-.11,0-.43,0-.43-.14-.3,0-.42.44-.12.44-.12.09-.32.22-.39.45,0,.45,0,.15-.3.29-.35.44.08.44.08.19-.29.32-.32a1.07,1.07,0,0,1,.44.12s.21-.27.35-.29a1.1,1.1,0,0,1,.42.15s.23-.25.37-.26.41.17.41.17.25-.23.38-.24a1.18,1.18,0,0,1,.41.2s.26-.22.4-.22.39.22.39.22a1.18,1.18,0,0,1,.41-.2c.13,0,.38.24.38.24s.29-.19.41-.17.37.26.37.26a1.09,1.09,0,0,1,.43-.15c.13,0,.34.29.34.29a1.12,1.12,0,0,1,.44-.12c.13,0,.32.32.32.32s.33-.13.45-.08.28.35.28.35a1.07,1.07,0,0,1,.46,0c.12.07.21.39.21.39s.37,0,.44.12,0,.42,0,.42.14.31,0,.43-.44.11-.44.11-.09.33-.22.4-.45,0-.45,0-.15.3-.28.35a1.13,1.13,0,0,1-.45-.08s-.19.28-.32.32A1.07,1.07,0,0,1,15,5.11s-.21.26-.34.29a1.07,1.07,0,0,1-.43-.16s-.23.25-.37.27a1.14,1.14,0,0,1-.41-.18s-.25.24-.38.24-.41-.2-.41-.2S12.35,5.59,12.22,5.59Z"/><path class="cls-7" d="M17.55,3.3c-.07-.09-.44-.12-.44-.12s-.09-.32-.21-.39a1.07,1.07,0,0,0-.46,0s-.15-.3-.28-.35-.45.08-.45.08-.19-.28-.32-.32a.4.4,0,0,0-.15,0,1,1,0,0,1,.27.34,1.06,1.06,0,0,1,.45,0c.13.07.22.39.22.39s.37,0,.44.12,0,.42,0,.42.14.3,0,.43-.44.11-.44.11-.09.32-.22.39a1.06,1.06,0,0,1-.45,0s-.16.3-.29.35a1.07,1.07,0,0,1-.44-.08s-.19.28-.32.31S14,4.87,14,4.87s-.21.27-.35.29A1,1,0,0,1,13.25,5s-.23.25-.37.27a1.06,1.06,0,0,1-.41-.18s-.25.23-.39.24-.4-.2-.4-.2-.26.22-.4.22-.39-.22-.39-.22-.28.21-.41.2-.38-.24-.38-.24a1.12,1.12,0,0,1-.42.18l-.07,0a.58.58,0,0,0,.22.15c.12,0,.42-.16.42-.16s.23.25.37.27A1.06,1.06,0,0,0,11,5.33s.25.24.39.24.4-.2.4-.2.26.22.4.22.39-.22.39-.22.28.21.41.2.38-.24.38-.24a1.14,1.14,0,0,0,.41.18c.14,0,.37-.27.37-.27a1.07,1.07,0,0,0,.43.16c.13,0,.34-.29.34-.29a1.07,1.07,0,0,0,.44.12c.13,0,.32-.32.32-.32a1.13,1.13,0,0,0,.45.08c.13,0,.28-.35.28-.35s.35.08.45,0,.22-.4.22-.4.37,0,.44-.11,0-.43,0-.43S17.65,3.42,17.55,3.3Z"/><path class="cls-8" d="M12.22,4.35a.66.66,0,0,1,0,.34A.51.51,0,0,1,12,5a.68.68,0,0,1-.68,0,1.38,1.38,0,0,0,.6-.09A.86.86,0,0,0,12.22,4.35Z"/><path class="cls-8" d="M13.71,4.58a.57.57,0,0,1,0,.34.5.5,0,0,1-.24.28.71.71,0,0,1-.68,0,1.45,1.45,0,0,0,.61-.09A.93.93,0,0,0,13.71,4.58Z"/><path class="cls-8" d="M14,4a.66.66,0,0,1,0,.34.55.55,0,0,1-.24.28.71.71,0,0,1-.68,0,1.45,1.45,0,0,0,.61-.09A.93.93,0,0,0,14,4Z"/><path class="cls-8" d="M14.91,4a.79.79,0,0,1,0,.34.55.55,0,0,1-.24.28.71.71,0,0,1-.68,0,1.41,1.41,0,0,0,.6-.09A.94.94,0,0,0,14.91,4Z"/><path class="cls-8" d="M10.1,4.6a.66.66,0,0,1-.27.22.5.5,0,0,1-.36,0A.67.67,0,0,1,9,4.31a1.48,1.48,0,0,0,.48.37A.88.88,0,0,0,10.1,4.6Z"/><path class="cls-8" d="M16.59,3.12a.71.71,0,0,1,0,.35.48.48,0,0,1-.24.27.71.71,0,0,1-.68,0,1.45,1.45,0,0,0,.61-.1A.89.89,0,0,0,16.59,3.12Z"/><path class="cls-24" d="M11.07,2.86a.58.58,0,1,1-.58-.58A.58.58,0,0,1,11.07,2.86Z"/><path class="cls-25" d="M10.66,2.31a.55.55,0,0,1,.24.46.58.58,0,0,1-.57.58.47.47,0,0,1-.17,0,.55.55,0,0,0,.33.11.58.58,0,0,0,.58-.57A.57.57,0,0,0,10.66,2.31Z"/><path class="cls-26" d="M10.51,2.68a.2.2,0,0,1-.2.19.19.19,0,0,1-.19-.19.19.19,0,0,1,.19-.2A.2.2,0,0,1,10.51,2.68Z"/><path class="cls-24" d="M12,2.86a.58.58,0,1,1-.57-.58A.58.58,0,0,1,12,2.86Z"/><path class="cls-25" d="M11.58,2.31a.56.56,0,0,1,.23.46.57.57,0,0,1-.57.58.47.47,0,0,1-.17,0,.57.57,0,1,0,.51-1Z"/><path class="cls-26" d="M11.42,2.68a.2.2,0,0,1-.19.19.2.2,0,1,1,.19-.19Z"/><path class="cls-24" d="M13,2.86a.58.58,0,1,1-.57-.58A.58.58,0,0,1,13,2.86Z"/><path class="cls-25" d="M12.55,2.31a.55.55,0,0,1,.24.46.57.57,0,0,1-.57.58.47.47,0,0,1-.17,0,.55.55,0,0,0,.34.11A.58.58,0,0,0,13,2.86.57.57,0,0,0,12.55,2.31Z"/><path class="cls-26" d="M12.4,2.68a.2.2,0,0,1-.2.19A.19.19,0,0,1,12,2.68a.19.19,0,0,1,.19-.2A.2.2,0,0,1,12.4,2.68Z"/><path class="cls-24" d="M13.91,2.78a.57.57,0,0,1-.57.57.58.58,0,1,1,0-1.15A.57.57,0,0,1,13.91,2.78Z"/><path class="cls-25" d="M13.5,2.23a.55.55,0,0,1,.24.46.57.57,0,0,1-.57.58.51.51,0,0,1-.17,0,.57.57,0,1,0,.5-1Z"/><path class="cls-26" d="M13.35,2.59a.2.2,0,1,1-.19-.19A.2.2,0,0,1,13.35,2.59Z"/><path class="cls-24" d="M14.87,3a.58.58,0,1,1-.57-.57A.58.58,0,0,1,14.87,3Z"/><path class="cls-25" d="M14.47,2.4a.6.6,0,0,1,.23.47.56.56,0,0,1-.57.57l-.17,0A.57.57,0,0,0,14.87,3,.59.59,0,0,0,14.47,2.4Z"/><path class="cls-26" d="M14.31,2.77a.2.2,0,1,1-.19-.2A.2.2,0,0,1,14.31,2.77Z"/><path class="cls-24" d="M10.26,3.43a.58.58,0,1,1-1.15,0,.58.58,0,0,1,1.15,0Z"/><path class="cls-25" d="M9.85,2.88a.58.58,0,0,1,.24.47.57.57,0,0,1-.57.57l-.17,0A.55.55,0,0,0,9.69,4a.58.58,0,0,0,.16-1.13Z"/><path class="cls-26" d="M9.7,3.25a.2.2,0,1,1-.2-.2A.2.2,0,0,1,9.7,3.25Z"/><path class="cls-24" d="M11.25,3.7a.58.58,0,1,1-.57-.58A.58.58,0,0,1,11.25,3.7Z"/><path class="cls-25" d="M10.84,3.15a.55.55,0,0,1,.24.46.57.57,0,0,1-.57.58.47.47,0,0,1-.17,0,.55.55,0,0,0,.34.11.58.58,0,0,0,.57-.57A.57.57,0,0,0,10.84,3.15Z"/><path class="cls-26" d="M10.69,3.51a.2.2,0,1,1-.39,0,.2.2,0,0,1,.19-.19A.2.2,0,0,1,10.69,3.51Z"/><path class="cls-24" d="M12.32,3.72a.58.58,0,1,1-.58-.57A.58.58,0,0,1,12.32,3.72Z"/><path class="cls-25" d="M11.91,3.17a.58.58,0,0,1,.24.47.57.57,0,0,1-.57.57l-.17,0a.55.55,0,0,0,.33.11.58.58,0,0,0,.58-.58A.59.59,0,0,0,11.91,3.17Z"/><path class="cls-26" d="M11.76,3.54a.2.2,0,0,1-.2.2.2.2,0,0,1,0-.4A.2.2,0,0,1,11.76,3.54Z"/><path class="cls-24" d="M13.34,3.72a.58.58,0,1,1-.58-.57A.58.58,0,0,1,13.34,3.72Z"/><path class="cls-25" d="M12.93,3.17a.58.58,0,0,1,.24.47.57.57,0,0,1-.58.57l-.16,0a.55.55,0,0,0,.33.11.58.58,0,0,0,.58-.58A.59.59,0,0,0,12.93,3.17Z"/><path class="cls-26" d="M12.78,3.54a.2.2,0,0,1-.2.2.2.2,0,0,1,0-.4A.2.2,0,0,1,12.78,3.54Z"/><path class="cls-24" d="M14.3,3.7a.58.58,0,1,1-.58-.58A.58.58,0,0,1,14.3,3.7Z"/><path class="cls-25" d="M13.89,3.15a.55.55,0,0,1,.24.46.58.58,0,0,1-.57.58.47.47,0,0,1-.17,0,.55.55,0,0,0,.33.11.58.58,0,0,0,.58-.57A.57.57,0,0,0,13.89,3.15Z"/><path class="cls-26" d="M13.74,3.51a.2.2,0,1,1-.39,0,.2.2,0,0,1,.19-.19A.2.2,0,0,1,13.74,3.51Z"/><path class="cls-24" d="M15.21,3.5a.58.58,0,1,1-1.15,0,.58.58,0,0,1,1.15,0Z"/><path class="cls-25" d="M14.8,3a.61.61,0,0,1,.24.47.58.58,0,0,1-.57.57L14.3,4a.55.55,0,0,0,.33.11A.58.58,0,0,0,14.8,3Z"/><path class="cls-26" d="M14.65,3.32a.2.2,0,0,1-.2.2.2.2,0,0,1,0-.4A.2.2,0,0,1,14.65,3.32Z"/><path class="cls-10" d="M31.11,3.7v9.07a1.24,1.24,0,0,1-.11.48,1.21,1.21,0,0,1-.19.29.88.88,0,0,1-.31.27l-.17.09-.32.16-.4.18c-.24.1-.48.2-.73.28l-.36.12A12,12,0,0,1,27,15l-.18,0-.37.05A11.42,11.42,0,0,1,23.17,15l-.35-.07-.09,0a8.48,8.48,0,0,1-1-.27l-.34-.11a8.43,8.43,0,0,1-1.08-.44L20.14,14,20,13.93l-.22-.12a1.28,1.28,0,0,1-.61-1V3.7a11.75,11.75,0,0,0,1.66.84l.32.12.34.12a10.36,10.36,0,0,0,1.29.36h.09c.22,0,.44.09.67.12a10.62,10.62,0,0,0,1.87.11c.23,0,.45,0,.68,0s.61-.07.91-.12h0A11.15,11.15,0,0,0,29.3,4.6l.31-.13h0l.47-.22A10,10,0,0,0,31.11,3.7Z"/><path class="cls-27" d="M24,15.1a11,11,0,0,1-1.28-.2A11.5,11.5,0,0,1,20.14,14a3.55,3.55,0,0,1-.39-.2,1.28,1.28,0,0,1-.61-1V3.7a11.62,11.62,0,0,0,2.32,1.08,10.36,10.36,0,0,0,1.29.36,12.57,12.57,0,0,0,1.93.24c0,1.18-2,2.26-2.34,3.63C21.83,11.43,23.22,13.14,24,15.1Z"/><path class="cls-11" d="M26.79,15l-.37.05a5.68,5.68,0,0,1-.31-1c-.2-.82-.38-1.52-1.27-1.58-1.09-.06-1.4,1.27-1.65,2.34,0,0,0,.07,0,.11l-.35-.07,0-.12c.25-1.07.62-2.69,2-2.61,1.15.07,1.39,1,1.59,1.84A3.79,3.79,0,0,0,26.79,15Z"/><path class="cls-11" d="M28.88,14.52l-.36.12a6.51,6.51,0,0,1-1-2.08c-.39-1.08-.75-2.1-1.7-2.4a2.17,2.17,0,0,0-1.81.11c-1.32.73-1.92,2.94-2.28,4.36l-.34-.11c.38-1.48,1-3.76,2.45-4.56a2.55,2.55,0,0,1,2.09-.13c1.11.35,1.52,1.5,1.92,2.61A5.82,5.82,0,0,0,28.88,14.52Z"/><path class="cls-11" d="M30.33,13.9l-.32.16a6.65,6.65,0,0,1-.76-1.93l-.14-.5c-.48-1.52-1.17-3-2.92-3.66-1.52-.55-2.55.17-3.63,1.42l-.19.22a9.37,9.37,0,0,0-1.29,1.73,4.57,4.57,0,0,0-.34,1.25,4.38,4.38,0,0,1-.45,1.49L20.14,14,20,13.93a4.09,4.09,0,0,0,.42-1.4,5.09,5.09,0,0,1,.37-1.35A9.19,9.19,0,0,1,22.1,9.39l.2-.23c1-1.17,2.2-2.17,4-1.52s2.64,2.27,3.14,3.88c0,.15.1.33.15.51A6.15,6.15,0,0,0,30.33,13.9Z"/><path class="cls-11" d="M23.51,5.27a3.67,3.67,0,0,0-2.33,2.36c-.1.24-.2.58-.32,1a11.15,11.15,0,0,1-1.72,3.75v-.56a12.9,12.9,0,0,0,1.38-3.3c.13-.39.23-.74.33-1a4.36,4.36,0,0,1,2-2.35C23.06,5.2,23.28,5.24,23.51,5.27Z"/><path class="cls-11" d="M31.11,9.32V10a4,4,0,0,0-1-1.3,4.91,4.91,0,0,0-.93-.51,5.47,5.47,0,0,1-1.12-.64c-.35-.29-.66-.59-1-.88a5.79,5.79,0,0,0-1.72-1.3c.23,0,.45,0,.68,0a7.64,7.64,0,0,1,1.28,1.08c.3.28.61.58.95.85a5,5,0,0,0,1.05.6,5.38,5.38,0,0,1,1,.55A3.17,3.17,0,0,1,31.11,9.32Z"/><path class="cls-11" d="M21.12,4.66c-.19.44-.34.91-.5,1.39A6.4,6.4,0,0,1,19.14,8.9V8.39a7,7,0,0,0,1.15-2.45,11.72,11.72,0,0,1,.51-1.4Z"/><path class="cls-11" d="M31.11,6.67v.48a5.63,5.63,0,0,1-1.48-1.8,3.91,3.91,0,0,1-.22-.51L29.3,4.6l.31-.13h0c0,.07.07.15.11.24l.21.49A4.94,4.94,0,0,0,31.11,6.67Z"/><path class="cls-28" d="M31.11,3.72c0,1.3-2.68,2.35-6,2.35s-6-1.05-6-2.35,2.68-2.34,6-2.34S31.11,2.43,31.11,3.72Z"/><path class="cls-13" d="M29.61,4.47v9.77A11.21,11.21,0,0,1,27,15V5.23h0A11.06,11.06,0,0,0,29.61,4.47Z"/><path class="cls-29" d="M25.12,5.72c-3.32,0-5.63-1-5.63-2s2.31-2,5.63-2,5.64,1,5.64,2S28.45,5.72,25.12,5.72Z"/><path class="cls-6" d="M25.12,5.59c-.13,0-.39-.22-.39-.22s-.27.21-.4.2-.39-.24-.39-.24a1.06,1.06,0,0,1-.41.18c-.14,0-.37-.27-.37-.27a1.07,1.07,0,0,1-.43.16c-.13,0-.34-.29-.34-.29a1.07,1.07,0,0,1-.44.12c-.13,0-.32-.32-.32-.32a1.13,1.13,0,0,1-.45.08c-.13,0-.28-.35-.28-.35a1.07,1.07,0,0,1-.46,0c-.12-.07-.21-.4-.21-.4s-.37,0-.44-.11,0-.43,0-.43-.14-.3,0-.42.44-.12.44-.12.09-.32.22-.39.45,0,.45,0,.15-.3.29-.35.44.07.44.07.19-.28.32-.31a1.07,1.07,0,0,1,.44.12s.21-.27.34-.29a1.09,1.09,0,0,1,.43.15s.23-.25.37-.26.41.17.41.17.25-.23.38-.24.41.2.41.2.26-.22.39-.22.4.22.4.22.28-.21.41-.2.38.24.38.24.28-.19.41-.17.37.26.37.26a1.09,1.09,0,0,1,.43-.15c.13,0,.34.29.34.29a1.12,1.12,0,0,1,.44-.12c.13,0,.32.32.32.32s.33-.13.45-.08.28.35.28.35a1.07,1.07,0,0,1,.46,0c.12.07.21.39.21.39s.37,0,.44.12,0,.42,0,.42.14.31,0,.43-.44.11-.44.11-.09.33-.22.4-.45,0-.45,0-.15.3-.28.35a1.13,1.13,0,0,1-.45-.08s-.19.28-.32.32a1.07,1.07,0,0,1-.44-.12s-.21.26-.34.29a1.07,1.07,0,0,1-.43-.16s-.23.25-.37.27a1.06,1.06,0,0,1-.41-.18s-.25.24-.38.24-.41-.2-.41-.2S25.26,5.59,25.12,5.59Z"/><path class="cls-7" d="M30.46,3.3c-.07-.09-.44-.12-.44-.12s-.09-.32-.21-.39a1.07,1.07,0,0,0-.46,0s-.15-.3-.28-.35-.45.08-.45.08-.19-.29-.32-.32a.4.4,0,0,0-.15,0,1,1,0,0,1,.27.34,1.06,1.06,0,0,1,.45,0c.13.07.22.39.22.39s.37,0,.44.12,0,.42,0,.42.14.3,0,.43-.44.11-.44.11-.09.32-.22.39a1.06,1.06,0,0,1-.45,0s-.16.3-.29.35a1.07,1.07,0,0,1-.44-.08S27.5,5,27.36,5s-.43-.12-.43-.12-.21.27-.35.29A1.1,1.1,0,0,1,26.16,5s-.24.25-.37.27a1.12,1.12,0,0,1-.42-.18s-.24.23-.38.24-.4-.2-.4-.2-.26.22-.4.22-.39-.22-.39-.22-.28.21-.41.2S23,5.1,23,5.1a1.12,1.12,0,0,1-.42.18l-.07,0a.64.64,0,0,0,.21.15,1.07,1.07,0,0,0,.43-.16s.23.25.37.27a1.06,1.06,0,0,0,.41-.18s.25.24.39.24.4-.2.4-.2.26.22.39.22.4-.22.4-.22.28.21.41.2.38-.24.38-.24a1.06,1.06,0,0,0,.41.18c.14,0,.37-.27.37-.27a1.07,1.07,0,0,0,.43.16c.13,0,.34-.29.34-.29a1.07,1.07,0,0,0,.44.12c.13,0,.32-.32.32-.32a1.13,1.13,0,0,0,.45.08c.13,0,.28-.35.28-.35s.35.08.45,0,.22-.4.22-.4.37,0,.44-.11,0-.43,0-.43S30.56,3.42,30.46,3.3Z"/><path class="cls-8" d="M25.13,4.35a.66.66,0,0,1,0,.34.51.51,0,0,1-.24.28.68.68,0,0,1-.68,0,1.38,1.38,0,0,0,.6-.09A.86.86,0,0,0,25.13,4.35Z"/><path class="cls-8" d="M26.62,4.58a.57.57,0,0,1,0,.34.5.5,0,0,1-.24.28.71.71,0,0,1-.68,0,1.45,1.45,0,0,0,.61-.09A.88.88,0,0,0,26.62,4.58Z"/><path class="cls-8" d="M26.94,4a.57.57,0,0,1,0,.34.5.5,0,0,1-.24.28.71.71,0,0,1-.68,0,1.55,1.55,0,0,0,.6-.09A.89.89,0,0,0,26.94,4Z"/><path class="cls-8" d="M27.81,4a.66.66,0,0,1,0,.34.55.55,0,0,1-.24.28.71.71,0,0,1-.68,0,1.58,1.58,0,0,0,.6-.09A.83.83,0,0,0,27.81,4Z"/><path class="cls-8" d="M23,4.6a.73.73,0,0,1-.27.22.58.58,0,0,1-.37,0,.7.7,0,0,1-.43-.52,1.62,1.62,0,0,0,.49.37A.88.88,0,0,0,23,4.6Z"/><path class="cls-8" d="M29.5,3.12a.71.71,0,0,1,0,.35.52.52,0,0,1-.24.27.71.71,0,0,1-.68,0,1.63,1.63,0,0,0,.61-.1A.89.89,0,0,0,29.5,3.12Z"/><polygon class="cls-30" points="25.39 3.42 25.39 2.48 22.42 2.95 23.64 3.88 25.39 3.42"/><path class="cls-31" d="M22.42,3V4a4.7,4.7,0,0,0,3,.38v-1A6,6,0,0,1,22.42,3Z"/><polygon class="cls-30" points="27.7 3.32 27.7 2.64 25.56 2.98 26.44 3.65 27.7 3.32"/><path class="cls-31" d="M25.56,3v.77A3.36,3.36,0,0,0,27.7,4V3.32A4.28,4.28,0,0,1,25.56,3Z"/><path class="cls-32" d="M79.84,29.69c0,3.6-4.55,5.83-4.55,6.14a15.93,15.93,0,0,1-3.25.43c-.3,0-.75,0-1.22-.09s-.74-.09-1.06-.15a9.44,9.44,0,0,1-1-.19c0-.31-4.55-2.54-4.55-6.14H79.84Z"/><path class="cls-33" d="M70.82,36.17c-.36,0-.74-.09-1.06-.15,0-.31-4.42-2.6-4.46-6.33v-.06a5.46,5.46,0,0,1,.83.06c.52.09.54.25.54.25C66.67,33.71,70.74,35.91,70.82,36.17Z"/><path class="cls-34" d="M79.63,29.63a.62.62,0,0,1-.11.33c-.61.89-3.73,1.58-7.48,1.58s-6.88-.69-7.49-1.58a.62.62,0,0,1-.11-.33c0-1.05,3.4-1.9,7.6-1.9S79.63,28.58,79.63,29.63Z"/><path class="cls-35" d="M72,27.88c4.1,0,7.43.82,7.57,1.84a.29.29,0,0,0,0-.09c0-1.05-3.4-1.9-7.59-1.9s-7.6.85-7.6,1.9a.29.29,0,0,0,0,.09C64.6,28.7,67.93,27.88,72,27.88Z"/><path class="cls-35" d="M78.36,28.58c.8.3,1.27.66,1.27,1.05,0,1.05-3.4,1.91-7.59,1.91s-7.6-.86-7.6-1.91c0-.39.47-.75,1.27-1.05-.93.32-1.48.72-1.48,1.15,0,1.08,3.49,2,7.81,2s7.8-.88,7.8-2C79.84,29.3,79.29,28.9,78.36,28.58Z"/><path class="cls-36" d="M79.27,30.21c-.94.74-3.6,1.28-6.79,1.32h-.89c-3.19,0-5.85-.58-6.79-1.32,1-.62,3.83-1.07,7.24-1.07S78.32,29.59,79.27,30.21Z"/><path class="cls-37" d="M66.8,30.21A9,9,0,0,1,68,29.9a12.73,12.73,0,0,1,1.26-.21,21.92,21.92,0,0,1,2.58-.17,20.19,20.19,0,0,1,2.58.15,12.31,12.31,0,0,1,2.43.54,18.18,18.18,0,0,0-2.47-.41c-.84-.08-1.69-.11-2.54-.11s-1.7,0-2.55.13l-.63.07L68,30C67.61,30,67.2,30.12,66.8,30.21Z"/><path class="cls-37" d="M71.36,30.24a1.63,1.63,0,0,0-.31,0h-.32l-.63,0-.62.07-.3.05-.27.07-.11,0a.12.12,0,0,0,0,0h0a0,0,0,0,0,0,0s0,0,.08,0l.27.06.3.05c.4.06.82.1,1.23.12s.84,0,1.26,0,.84,0,1.26,0a23,23,0,0,0,2.5-.25,14,14,0,0,1-2.47.41,20.19,20.19,0,0,1-2.58,0c-.21,0-.43,0-.64-.06l-.64-.08L69,30.8a1.92,1.92,0,0,1-.32-.09l-.08,0,0,0h0a.18.18,0,0,1,0-.07.11.11,0,0,1,0-.08.18.18,0,0,1,0-.07l.08,0a.52.52,0,0,1,.16-.06,3.73,3.73,0,0,1,.64-.11l.65,0h.64l.32,0,.16,0Z"/><path class="cls-5" d="M59.38,34.53v.8L18.87,36l-8,.13-8.11.12-1.41,0a1.21,1.21,0,0,1-1.22-1,.82.82,0,0,1,0-.21v-.22A1.23,1.23,0,0,1,1.4,33.6l1.41,0,8.11.12,8,.13Z"/><path class="cls-38" d="M18.87,33.88V36l-8,.13-8.11.12-1.41,0a1.21,1.21,0,0,1-1.22-1,.82.82,0,0,1,0-.21v-.22A1.23,1.23,0,0,1,1.4,33.6l1.41,0,8.11.12Z"/><path class="cls-33" d="M19,34.11,11.06,34,3,33.9l-1.4,0a1.13,1.13,0,0,0-1.24,1v.18s0,.1,0,.15c0-.37.58-.65,1.23-.65l1.4,0,8.09.07,7.93.07,40.39.2v-.28Z"/><path class="cls-5" d="M59.38,30.65v.8l-40.51.67-8,.12-8.11.12-1.41,0a1.21,1.21,0,0,1-1.22-1,.71.71,0,0,1,0-.21V31A1.23,1.23,0,0,1,1.4,29.72l1.41,0,8.11.12,8,.12Z"/><path class="cls-38" d="M18.87,30v2.12l-8,.12-8.11.12-1.41,0a1.21,1.21,0,0,1-1.22-1,.71.71,0,0,1,0-.21V31A1.23,1.23,0,0,1,1.4,29.72l1.41,0,8.11.12Z"/><path class="cls-33" d="M19,30.23l-7.93-.1L3,30l-1.4,0A1.14,1.14,0,0,0,.33,31v.17s0,.1,0,.15c0-.36.58-.65,1.23-.64l1.4,0,8.09.07,7.93.07,40.39.19v-.28Z"/></g></g></svg>