<svg xmlns="http://www.w3.org/2000/svg" viewBox="0 0 80 37.26"><defs><style>.cls-1{fill:#689cd5;}.cls-2{fill:#e6f2ff;}.cls-3{fill:#498cd1;opacity:0.5;}.cls-4{fill:#d6ebff;opacity:0.3;}.cls-5{fill:#2974c2;}</style></defs><title>Asset 2</title><g id="Layer_2" data-name="Layer 2"><g id="Icons"><path class="cls-1" d="M80,37.26H0l.09-.07c.7-.53,1.58-1.3,2.58-2.22s1.87-1.76,2.9-2.77c5.63-5.53,12.88-13.37,15.61-16.27C25,11.86,36.07,2,36.67,1.59s2.92-.68,4-.79S42.06-.1,42.36,0s1.49,1.24,1.87,1.47S57.87,16,62,19.76c4.76,4.33,12.36,11.81,16.14,15.58Z"/><path class="cls-2" d="M62.37,20.14c-.15.15-.67,1.67-.35,2a41.42,41.42,0,0,0-5.52-3.07.63.63,0,0,0-.66.37A2.13,2.13,0,0,0,56,20.51l-.82,1.78-4.23-2s-2.13-1.71-2.62-1.46a4.17,4.17,0,0,0,.17,1.1s-.63-.51-.93-.81a3.57,3.57,0,0,0-3-1,14.63,14.63,0,0,0-3.89.75A22,22,0,0,0,36,21.12c-.58.39-3.2,1.95-3.2,1.95s2-3.66,1.88-4.2c-.35-1.35-3.43,2-3.43,2s1.45-3.29.19-3A14,14,0,0,0,29.17,20a13.73,13.73,0,0,0,.43-2.24c-.92.49-4.12,4.41-4.12,4.41s0-2.18-.52-2.54-3,1.26-3,1.42c-.05-.66.6-1.32.47-1.76a25.29,25.29,0,0,0-2.72,2.12,3,3,0,0,0,.38-1A13.43,13.43,0,0,0,17.9,22a4.68,4.68,0,0,0,.42-1.07c-.06-.2-.17-.06-.29-.07a6.83,6.83,0,0,0-.94.47s-.08-.69-.42-.6l4.51-4.81C25,11.86,36.07,2,36.67,1.59s2.92-.68,4-.79S42.06-.1,42.36,0s1.49,1.24,1.87,1.47S57.87,16,62,19.76Z"/><path class="cls-3" d="M44.85,9.59c-.2-.29-1.43-1.09-1.29-1.68-.24,1,.87,1.88,1.2,2.58A8.53,8.53,0,0,1,45.29,12c.19.68,0,1.07.46,1.41.64.46,1.91,4.85,2,5a3.46,3.46,0,0,1,.72-1.58c.84-.47,2.75.82,3.5,1.2-.32,0-4.55-4.67-4.92-5A31.78,31.78,0,0,1,44.85,9.59Z"/><path class="cls-3" d="M47.23,10.35c.55.7,1.26,1,1.75,1.81s.64,1.59,1.06,2.25c1.07-1.07,1.74,1.22,2.48,2,.44.45,2.27,2.18,2.74,2.76,0-.3-.12-.71,0-.94.4-.66,2.29.69,3.13.91-.8-.63-6.91-5.51-8.59-7.45C49,10.76,46.67,9.63,47.23,10.35Z"/><path class="cls-3" d="M44.22,3.35C44,3,43.28,1.77,43.05,1.76a5.52,5.52,0,0,0,1,1.88c.51.49,1.29,1.49,1.82,1.94.91.79,1,1.76,2,2.47.64.49,1.14.76,1.54,1.07a10.43,10.43,0,0,1,1.1.89c-.2-.27-.34-.68-.53-1a1.83,1.83,0,0,0-.6-.52,4.82,4.82,0,0,1-1.13-.83c-.23-.25-1.37-1.75-1.56-2a4.9,4.9,0,0,0-1.38-1.25A4.72,4.72,0,0,1,44.22,3.35Z"/><path class="cls-3" d="M21.75,18c-.6.17-1,.93-1.57,1.14-.16.06-1.08.46-.83-.16.09-.21.45-.46.59-.62l.71-.81c.15-.18,1.29-1.34,1.25-1.58a5.39,5.39,0,0,1-.11,1C21.76,17.36,21.75,17.67,21.75,18Z"/><path class="cls-3" d="M36.58,19.41a12.43,12.43,0,0,1-2.36,1.82,11.48,11.48,0,0,1,.66-1.42c.32-.47.68-.86,1-1.31a18.92,18.92,0,0,1,1.57-2.28,15,15,0,0,1-.4,1.83A2.36,2.36,0,0,1,36.58,19.41Z"/><path class="cls-3" d="M27.58,17.46a13.67,13.67,0,0,0-.34-1.85c-.71.14-.81,1.77-1,2.58s-.34,1.93-.52,2.87c.33-.62.59-1.38.91-2C26.92,18.54,27.17,17.68,27.58,17.46Z"/><path class="cls-3" d="M24.47,18.27a1.41,1.41,0,0,0,.24-.62c0-.07,0-.81,0-.8a3.12,3.12,0,0,0-1.36,1.36,5,5,0,0,0-.68,1.6c.48.13.81-.54,1.18-.9A7.31,7.31,0,0,0,24.47,18.27Z"/><path class="cls-3" d="M35.12,27.56c-.25.77.52.92.83.94a9,9,0,0,1,3.79.68c2.34,1.29,3.1,5.06,4.24,8.08H0C4.64,33.76,17.36,20,21.18,15.93S36.07,2,36.67,1.59A6.24,6.24,0,0,1,38.88,1s0,0,0,.06c.12.58.15,1.15.3,1.72C39.49,4,42.24,8.06,43,9.27c.22.39,1.67,1.9,1.25,2.45s-1.26.08-1.64,0a30.16,30.16,0,0,0-3.52-1c-.08.4.65,1.32.82,1.7s.21.68.34,1a2.75,2.75,0,0,1,.28.63c-.58,0-1.15-1.56-1.52-2.1s-.9-1.38-1.45-1.43c-.28,0-.69-.08-.93.13-.43.39,0,.69.27.92a6,6,0,0,1,1.49,2.2,4.79,4.79,0,0,1,.31,2.89c-.09.72-.19,2.33.35,2.76.28.22.6.26.9.54s5.2,6.69,5.47,7.31c-.35-.14-.66-.43-1-.58a29.4,29.4,0,0,0-6-.08,20,20,0,0,1-2.26.43C35.84,27.09,35.26,27.1,35.12,27.56Z"/><path class="cls-4" d="M79.91,37.26H.09v-.07c.7-.53,1.58-1.3,2.58-2.22s1.87-1.76,2.9-2.77c4.51,1.12,10,2,12,1.87,3-.21,8.89-4.46,13.68-3.61,2.87.51,7,1.95,10.92,3l2,.51a24.21,24.21,0,0,0,5.22.74h0a20.46,20.46,0,0,0,4.23-.62h0c5.3-1.22,12-3.85,14.46-3.76,2.07.07,6.51,3,9.34,5h0C78.87,36.45,79.91,37.26,79.91,37.26Z"/><path class="cls-5" d="M80,37.26H0l.09-.07c.7-.53,1.58-1.3,2.58-2.22a6.3,6.3,0,0,0,1.76.52c.67,0,1.51-1.36,1.51-1.36l2.4-1,.93,1.11v1.07l1.18.33,1.09-1.31,1.43.38.68.81,3.16-.08,1-1.28,1.52.21.29.9.72,0,.51-.52.54.23.81-.53.83-.08.63.65a.47.47,0,0,1,.52-.27c.38.07,1.3,1.18,1.63,1.18a5.67,5.67,0,0,0,1.34-.49s.51.57.93.61,1-.65,1-.65l1.73,0L32.42,35l.44-.49h.91l.8-.25.5.29.55,1,1.06-.12.69-.69.47.36,1.71,0,1,.45,1.27-1.15v-.5l.27-.4.2-.3h1.13l.68.81.19.22.77.21,1.31,1.93L47.7,35l.63.33,1-.63h0l.2-.13-.21-.51,1.23-.91.62.7,1.14-.33,1.25.56h0l.39.18.42,1.07h1.14l.8-.33a6.29,6.29,0,0,1,1.68.09,2.79,2.79,0,0,1,.89.49l1.94-.91,1.21.38a1,1,0,0,0,.93.53,8,8,0,0,0,2-.91,1.26,1.26,0,0,0,1.22.66,3.37,3.37,0,0,1,1.89.66,4.84,4.84,0,0,1,1.27-.53c.42-.05,2.19,0,2.19,0v-.41a5.84,5.84,0,0,0,2.19.37,2,2,0,0,0,1.09-.75s.76.75,1.26.75a.7.7,0,0,0,.68-.37,4.82,4.82,0,0,0,.63.3h0a1,1,0,0,0,.46.07l.26-.11Z"/></g></g></svg>