<svg xmlns="http://www.w3.org/2000/svg" viewBox="0 0 80.61 44.26"><defs><style>.cls-1,.cls-3{fill:#dedede;}.cls-2{fill:#b4935a;}.cls-3{opacity:0.8;}.cls-4{fill:#e6052d;}</style></defs><title>Asset 1</title><g id="Layer_2" data-name="Layer 2"><g id="Icons"><path class="cls-1" d="M80.38,32.41a40.23,40.23,0,0,0-2-6.57c-.15-.36-.3-.73-.46-1.09A40.32,40.32,0,0,0,74.7,18.7c-.21-.33-.43-.65-.65-1a41.63,41.63,0,0,0-4.36-5.3c-.27-.28-.55-.56-.83-.83a40.28,40.28,0,0,0-5.3-4.36l-1-.65a39.39,39.39,0,0,0-6-3.23c-.36-.17-.72-.32-1.09-.46a40.25,40.25,0,0,0-6.57-2L47.72.67A41.49,41.49,0,0,0,40.89,0H39.72a41.49,41.49,0,0,0-6.83.67L31.73.9a40.55,40.55,0,0,0-6.57,2l-1.08.45a39.44,39.44,0,0,0-6,3.24c-.33.21-.66.43-1,.66a41,41,0,0,0-5.3,4.35l-.83.83a41,41,0,0,0-4.36,5.31l-.65,1a39.39,39.39,0,0,0-3.23,6.05h0c-.16.36-.3.73-.45,1.09a40.25,40.25,0,0,0-2,6.57c-.08.38-.16.76-.23,1.15l25.35,5c.06-.39.14-.78.23-1.16a14.23,14.23,0,0,1,.52-1.72,11.37,11.37,0,0,1,.45-1.09,14.16,14.16,0,0,1,.85-1.58c.2-.33.42-.66.65-1a14.9,14.9,0,0,1,1.14-1.38c.27-.29.54-.57.83-.84a15.32,15.32,0,0,1,1.39-1.14c.32-.23.64-.45,1-.65A14.16,14.16,0,0,1,34,27.22c.36-.16.71-.32,1.08-.45a14.39,14.39,0,0,1,1.73-.52c.38-.09.76-.17,1.15-.23a17.22,17.22,0,0,1,1.79-.18h1.17a17.5,17.5,0,0,1,1.79.18c.38.06.77.14,1.15.23a13.71,13.71,0,0,1,1.72.52,10.4,10.4,0,0,1,1.09.45,12.59,12.59,0,0,1,1.58.85,11.09,11.09,0,0,1,1,.65,15.32,15.32,0,0,1,1.39,1.14c.29.27.57.55.83.84a13.69,13.69,0,0,1,1.14,1.38c.23.32.45.64.65,1a14.16,14.16,0,0,1,.85,1.58c.17.36.32.72.46,1.09A14.2,14.2,0,0,1,55,37.45a11.33,11.33,0,0,1,.23,1.16l25.35-5C80.54,33.17,80.46,32.79,80.38,32.41Z"/><path class="cls-2" d="M78.4,25.84h0L54.52,35.73,46,39.24h0l-3.71,1.54-.47.2-.3.12-.21.08-.14.07-.12,0-.1,0-.09,0-.07,0h0l-.06,0-.06,0-.11,0h0l-.11,0-.1,0h0l-.06,0h0l-.06,0-.08,0-.08,0-.09,0-.12,0h0l-.15.06-.21.08h0l-.29.11-.48.2-.7.29a.42.42,0,0,1-.15,0h-.08a.59.59,0,0,1-.33-.11h0a.61.61,0,0,1-.21-.26.53.53,0,0,1,0-.33.6.6,0,0,1,.35-.44l.69-.28.49-.2.29-.13.21-.08.15-.07.12,0,.1,0,.08,0,.07,0,.06,0h0l.07,0,.06,0,.06,0h0l.07,0h0l.12-.06h0l.07,0,.06,0,.07,0,.08,0,.1,0,.12-.05.15-.07.2-.08.31-.12.47-.2h0l1-.39,2.78-1.15h0l8.46-3.51,23.88-9.89C78.1,25.11,78.25,25.48,78.4,25.84Z"/><path class="cls-2" d="M74.7,18.7,53.21,33.06,45.6,38.15l-2.52,1.68-1.28.85-.25.17-.19.13-.13.09-.1.07-.09,0-.08.06-.07,0-.06,0,0,0-.05,0,0,0-.12.09,0,0-.11.07-.05,0-.06,0h0l-.07,0-.09.06-.1.07L39.9,42l-.18.13-.27.18-.43.28h0l-.63.41a.37.37,0,0,1-.14.07h0a.52.52,0,0,1-.18,0,.39.39,0,0,1-.24-.06.55.55,0,0,1-.25-.2.52.52,0,0,1-.1-.31.55.55,0,0,1,.14-.4.58.58,0,0,1,.12-.1l1.06-.71h0l.27-.18.18-.12.13-.09.11-.07.09-.06.07-.06.07,0,.05,0,.06,0,.05,0,.06,0,.1-.07,0,0h0l.11-.08h0l.06,0,.07,0,.07-.05.09-.06.11-.07.13-.09.18-.12.26-.17.45-.3.84-.56L45,37.17l7.61-5.09L74.05,17.72C74.27,18.05,74.49,18.37,74.7,18.7Z"/><path class="cls-2" d="M69.69,12.42,51.42,30.7l-8.6,8.6-.73.72-.59.6-.27.27-.09.09-.08.07-.06.07-.06.06,0,0,0,.06,0,0-.06,0,0,.06-.25.25-.07.06-.17.17L40.1,42l-.16.15-.22.23-.37.37-.53.53a.38.38,0,0,1-.13.09.51.51,0,0,1-.29.08h-.12a.53.53,0,0,1-.45-.45.59.59,0,0,1,.06-.41.34.34,0,0,1,.09-.12l1.13-1.13.16-.16.11-.11.09-.09.08-.08.06-.06.15-.15,0,0h0l.05,0,.09-.08.07-.08.1-.1.06-.06,1.08-1.08h0l.73-.72,2.13-2.12h0l6.48-6.48L68.86,11.59C69.14,11.86,69.42,12.14,69.69,12.42Z"/><path class="cls-2" d="M63.56,7.23,49.2,28.72l-5.09,7.63-1.67,2.5-.57.84-.29.44-.3.45-.08.12-.08.11-.06.09L41,41,41,41l0,.06,0,0,0,.06h0l0,0h0l-.08.11,0,0,0,.05-.05.06-.08.12,0,.07-.06.09-.06.11-.09.13-.13.19-.17.26-.29.43-.43.64a.48.48,0,0,1-.09.11.57.57,0,0,1-.39.14h0a.52.52,0,0,1-.31-.1.49.49,0,0,1-.2-.25.51.51,0,0,1,0-.42s0-.09.07-.14l.42-.63.28-.43.3-.45h0l.09-.13.07-.11.06-.09,0-.07,0-.07,0-.06,0-.05,0,0,0,0v0l.07-.1,0-.05,0,0,0,0,.09-.13.05-.07,0-.09.07-.11.1-.13.12-.18.18-.27.28-.43.56-.84,1.69-2.51h0l5.08-7.61L62.58,6.58Z"/><path class="cls-2" d="M56.53,3.35,46.64,27.22l-3.5,8.46L42,38.47l-.38.94-.2.48-.13.3-.14.35-.05.12,0,.1,0,.08,0,.07,0,.07,0,.06,0,.05,0,.07h0l0,.08,0,.06,0,0,0,.07,0,.06-.06.16-.05.1,0,.11-.07.16-.08.2-.12.3-.2.48-.29.69a.57.57,0,0,1-.08.13.61.61,0,0,1-.36.23h-.11a.59.59,0,0,1-.22-.05.61.61,0,0,1-.26-.21.58.58,0,0,1-.1-.41,1.13,1.13,0,0,1,0-.15l.29-.7.2-.48.12-.29h0l.14-.35h0l0-.13,0-.09,0-.08.06-.14h0l0,0h0l0-.06,0,0,0-.11,0-.05,0-.06,0-.07,0-.06h0l.07-.15,0-.1,0-.12.06-.15.08-.2.13-.31L40.5,39l.39-.94L42,35.25h0l3.51-8.47L55.44,2.89h0C55.81,3,56.17,3.18,56.53,3.35Z"/><path class="cls-2" d="M48.87.9l-5,25.35-1.79,9-.59,3-.2,1-.1.52-.06.3,0,.22-.06.29,0,.1,0,.08v.2l0,.08h0v0l0,.15v.23l0,.08,0,.19,0,.12,0,.16,0,.22-.07.31-.1.51-.15.74a.66.66,0,0,1,0,.15.6.6,0,0,1-.32.29.52.52,0,0,1-.21,0h-.12a.63.63,0,0,1-.28-.15.53.53,0,0,1-.18-.39.43.43,0,0,1,0-.16l.15-.73.1-.51.06-.31,0-.22.06-.29,0-.11,0-.08v-.08l0-.07V41h0l0-.05h0V40.9l0-.09v-.18l0-.08v-.07l0-.19,0-.13,0-.16,0-.22.07-.32.1-.51.2-1h0l.58-3,1.79-9,5-25.35Z"/><path class="cls-2" d="M40.89,0V43.68a.32.32,0,0,1,0,.14.57.57,0,0,1-.56.44.57.57,0,0,1-.32-.09.6.6,0,0,1-.25-.35.32.32,0,0,1,0-.14V0h1.17Z"/><path class="cls-2" d="M41.41,43.66a.53.53,0,0,1-.18.39.63.63,0,0,1-.28.15h-.12a.58.58,0,0,1-.52-.33.39.39,0,0,1-.06-.15L40.11,43l-.1-.52-.07-.31,0-.22,0-.16,0-.12,0-.19,0-.08v-.13l0-.06h0v-.06h0l0-.09V41l0-.06v-.07l0-.06v-.17l0-.1,0-.29h0l0-.22-.06-.31h0l-.1-.51-.2-1h0l-.59-3h0l-1.78-9L31.73.9,32.89.67l5,25.35,1.79,9L40.31,38l.19,1,.11.51.06.32,0,.21,0,.16,0,.13.05.19v.14h0l0,.07v.05h0v0l0,.15v0l0,.06v.14l0,.07,0,.08v.11l.06.29,0,.21.07.32.1.5.15.74A.43.43,0,0,1,41.41,43.66Z"/><path class="cls-2" d="M41.92,43.39a.53.53,0,0,1-.1.41h0a.64.64,0,0,1-.25.21.69.69,0,0,1-.24.05h-.1a.61.61,0,0,1-.36-.23.57.57,0,0,1-.08-.13L40.5,43l-.19-.47-.13-.3L40.1,42,40,41.86l0-.11,0-.1-.07-.16,0-.06h0v-.06h0l0-.06,0,0h0l0-.13,0,0,0-.05,0-.06,0-.07,0-.07,0-.08,0-.1,0-.12-.15-.35-.12-.3-.2-.48h0l-.39-.94-1.15-2.79h0L34,27.22,24.08,3.35h0l1.08-.45h0l9.89,23.88,3.51,8.45L39.72,38l.39.93.2.48.12.31.08.2.07.15,0,.12.05.1.06.15,0,.06h0l0,.07,0,.11h0l0,.07,0,.08,0,0,0,.08L41,41l0,.08,0,.07,0,.1.05.13h0l.14.35.13.29.2.49.28.69A.48.48,0,0,1,41.92,43.39Z"/><path class="cls-2" d="M42.34,43.45a.51.51,0,0,1-.21.25.5.5,0,0,1-.31.1h0a.57.57,0,0,1-.39-.14l-.1-.11-.42-.63-.29-.44-.17-.26L40.31,42l-.1-.13-.07-.11-.06-.09,0-.07L40,41.51l0-.06,0-.05,0,0-.05-.08,0-.06,0-.05,0-.06,0-.05,0-.07,0-.08-.06-.08-.07-.12-.1-.12-.3-.46-.28-.43-.57-.85h0l-1.68-2.5-5.08-7.61L17.05,7.24c.32-.23.65-.45,1-.66L32.39,28.07l5.09,7.61,1.67,2.51.57.85.29.42.17.28.13.18.09.13.07.11.05.09.06.07.09.13,0,0,0,0,0,.05.07.1,0,0,0,.06,0,.05,0,.06L41,41l.05.07.07.09.07.11.08.13h0l.3.45.28.43h0l.41.63a.61.61,0,0,1,.07.14A.55.55,0,0,1,42.34,43.45Z"/><path class="cls-2" d="M42.79,43a.63.63,0,0,1-.16.3.58.58,0,0,1-.29.15l-.13,0a.51.51,0,0,1-.29-.08l-.13-.09-1.56-1.57-.07-.06L40,41.52l-.05,0-.7-.71-.16-.15-.59-.6-27.6-27.6.83-.83L30,29.86l6.47,6.47,2.14,2.14.72.72.37.37.22.22.16.16.11.11.17.17.06.06.06.06.1.1,0,0,0,0,.08.08.05,0,0,0,0,.05,0,0,.12.12.08.08.09.09.11.11.16.16,1.13,1.13a.34.34,0,0,1,.09.12A.59.59,0,0,1,42.79,43Z"/><path class="cls-2" d="M43.14,42.49a.54.54,0,0,1-.1.31.6.6,0,0,1-.25.2.43.43,0,0,1-.24.06.58.58,0,0,1-.19,0,.46.46,0,0,1-.14-.07l-.62-.41-.44-.29-.27-.18L40.71,42l-.13-.09-.12-.07-.08-.06-.07,0-.07,0-.06,0-.1-.07-.06,0-.09-.06,0,0-.05,0,0,0-.06,0-.23-.15-.11-.07L39.25,41l-.19-.13-.26-.17-1.27-.85L35,38.14h0l-7.6-5.08L5.91,18.7l.65-1L28.05,32.08l7.62,5.09,2.5,1.67.85.57.43.29.27.18.18.12.14.09.1.07.09.06.08.05.06,0,.06,0h0l.1.08,0,0h0l.1.07,0,0,.05,0,0,0,.06,0,.06,0,.09.06.08.05.11.08.13.09.19.12.26.18h0l1.06.71a.52.52,0,0,1,.11.1A.6.6,0,0,1,43.14,42.49Z"/><path class="cls-2" d="M43.34,42.23a.59.59,0,0,1-.2.26.61.61,0,0,1-.35.11h-.07a.48.48,0,0,1-.15,0l-.7-.29-.47-.2-.31-.12-.2-.08-.15-.07-.12,0-.1,0-.07,0-.08,0-.06,0-.06,0h0l-.1,0L40,41.49H40l-.06,0-.06,0-.06,0-.07,0-.09,0-.09,0-.12,0-.15-.07-.2-.08-.3-.12-.47-.2-3.72-1.54h0L26.1,35.73,2.22,25.84h0c.15-.36.29-.73.45-1.09h0l23.87,9.89L35,38.14l2.8,1.16.94.39.48.2.29.12.21.08.15.07.12.05.1,0,.08,0,.07,0,.07,0,.06,0,.12.06h0l.08,0,.06,0,.06,0,.06,0,.06,0,.07,0,.08,0,.11,0,.12,0,.15.07.2.08.3.13.48.2.69.28a.63.63,0,0,1,.36.44A.62.62,0,0,1,43.34,42.23Z"/><path class="cls-2" d="M43.52,41.62a.53.53,0,0,1-.14.28.58.58,0,0,1-.39.19h-.15l-.75-.15-.5-.1-.32-.06-.22,0-.16,0-.13,0-.09,0-.1,0H40.5l-.08,0h-.05l-.06,0-.17,0-.06,0H40l-.07,0h-.07l-.09,0-.11,0-.12,0h0l-.15,0h0l-.21,0-.31-.06h0l-.52-.1L37.37,41l-12-2.38L0,33.56c.07-.39.15-.77.23-1.15l25.35,5,9,1.79h0l3,.59,1,.19.5.1.32.07.21,0h0l.16,0,.12,0,.11,0H40l.07,0h.13l.07,0,.18,0h.24l.08,0,.08,0,.1,0,.14,0,.15,0,.22,0,.3.06.52.1.74.15a.48.48,0,0,1,.18.06A.59.59,0,0,1,43.52,41.62Z"/><path class="cls-3" d="M80.38,32.41a40.23,40.23,0,0,0-2-6.57c-.15-.36-.3-.73-.46-1.09A40.32,40.32,0,0,0,74.7,18.7c-.21-.33-.43-.65-.65-1a41.63,41.63,0,0,0-4.36-5.3c-.27-.28-.55-.56-.83-.83a40.28,40.28,0,0,0-5.3-4.36l-1-.65a39.39,39.39,0,0,0-6-3.23c-.36-.17-.72-.32-1.09-.46a40.25,40.25,0,0,0-6.57-2L47.72.67A41.49,41.49,0,0,0,40.89,0H39.72a41.49,41.49,0,0,0-6.83.67L31.73.9a40.55,40.55,0,0,0-6.57,2l-1.08.45a39.44,39.44,0,0,0-6,3.24c-.33.21-.66.43-1,.66a41,41,0,0,0-5.3,4.35l-.83.83a41,41,0,0,0-4.36,5.31l-.65,1a39.39,39.39,0,0,0-3.23,6.05h0c-.16.36-.3.73-.45,1.09a40.25,40.25,0,0,0-2,6.57c-.08.38-.16.76-.23,1.15l25.35,5c.06-.39.14-.78.23-1.16a14.23,14.23,0,0,1,.52-1.72,11.37,11.37,0,0,1,.45-1.09,14.16,14.16,0,0,1,.85-1.58c.2-.33.42-.66.65-1a14.9,14.9,0,0,1,1.14-1.38c.27-.29.54-.57.83-.84a15.32,15.32,0,0,1,1.39-1.14c.32-.23.64-.45,1-.65A14.16,14.16,0,0,1,34,27.22c.36-.16.71-.32,1.08-.45a14.39,14.39,0,0,1,1.73-.52c.38-.09.76-.17,1.15-.23a17.22,17.22,0,0,1,1.79-.18h1.17a17.5,17.5,0,0,1,1.79.18c.38.06.77.14,1.15.23a13.71,13.71,0,0,1,1.72.52,10.4,10.4,0,0,1,1.09.45,12.59,12.59,0,0,1,1.58.85,11.09,11.09,0,0,1,1,.65,15.32,15.32,0,0,1,1.39,1.14c.29.27.57.55.83.84a13.69,13.69,0,0,1,1.14,1.38c.23.32.45.64.65,1a14.16,14.16,0,0,1,.85,1.58c.17.36.32.72.46,1.09A14.2,14.2,0,0,1,55,37.45a11.33,11.33,0,0,1,.23,1.16l25.35-5C80.54,33.17,80.46,32.79,80.38,32.41Z"/><circle class="cls-4" cx="40.31" cy="12.71" r="9.98" transform="translate(-0.11 0.35) rotate(-0.5)"/><path class="cls-2" d="M80.61,33.56l-25.35,5L43.24,41l-.91.19-.51.1h0l-.31.06-.21,0h0l-.15,0h0l-.14,0-.1,0-.09,0h-.07l-.08,0h-.12l-.06,0-.16,0-.06,0h-.07l-.07,0H40l-.09,0-.11,0-.12,0-.17,0-.21,0h0l-.32.06-.5.1-.74.15h-.16a.52.52,0,0,1-.38-.19.56.56,0,0,1-.16-.28.6.6,0,0,1,.29-.63.55.55,0,0,1,.18-.06l.75-.15.5-.1.31-.06.21,0,.17,0,.12,0,.11,0,.08,0,.08,0h.24l.19,0,.06,0h.13l.08,0h.09l.09,0,.13,0,.16,0,.22,0,.31-.06.51-.11,1-.19L46,39.25h0l9-1.79,25.35-5C80.46,32.79,80.54,33.17,80.61,33.56Z"/></g></g></svg>