<svg xmlns="http://www.w3.org/2000/svg" viewBox="0 0 73.48 80"><defs><style>.cls-1{fill:#c5845d;}.cls-2{fill:#9d663f;}.cls-3{fill:#8c4d12;}.cls-4{fill:#65360c;}.cls-5{opacity:0.2;}.cls-6{fill:#443c34;}.cls-7{fill:#97b311;}.cls-8{fill:#7b9600;}</style></defs><title>Asset 16</title><g id="Layer_2" data-name="Layer 2"><g id="Icons"><path class="cls-1" d="M36.29,39.64c1.79-.45,6.72-3.36,8.73-1.79s0,1.79,0,1.79S38.08,41.1,37.18,43,36.29,39.64,36.29,39.64Z"/><path class="cls-2" d="M45,38.63s-6.94,1.46-7.84,3.31c-.63,1.31-.82-.91-.87-2.3h0s0,5.15.89,3.31S45,39.64,45,39.64s1.49-.16.62-1.21A1.74,1.74,0,0,1,45,38.63Z"/><path class="cls-1" d="M37.07,26.52c1.81.13,7.09-.65,8.78.9s-.31,1.22-.31,1.22-7-.7-8.16.34S37.07,26.52,37.07,26.52Z"/><path class="cls-2" d="M45.71,28s-7-.7-8.16.34c-.84.74-.64-.82-.46-1.78h0s-.88,3.5.31,2.46,8.16-.34,8.16-.34,1.48.25.81-.67A2.76,2.76,0,0,1,45.71,28Z"/><polygon class="cls-3" points="57.56 65.89 57.16 67.63 54.87 77.76 4.7 77.76 2.41 67.63 2.02 65.89 57.56 65.89"/><rect class="cls-4" x="7.47" y="77.76" width="15.82" height="2.24"/><rect class="cls-5" x="7.47" y="77.76" width="15.82" height="0.95"/><rect class="cls-4" x="36.29" y="77.76" width="15.82" height="2.24"/><rect class="cls-5" x="36.29" y="77.76" width="15.82" height="0.95"/><rect class="cls-3" y="64.32" width="59.57" height="1.57"/><polygon class="cls-4" points="59.57 64.32 0 64.32 5.71 57.94 54.53 57.94 59.57 64.32"/><polygon class="cls-5" points="57.56 65.89 57.16 67.63 2.41 67.63 2.02 65.89 57.56 65.89"/><path class="cls-6" d="M58.38,64.32H1.14C3,63,7.41,61.94,8.67,61.64a63.88,63.88,0,0,1,9.51-2c4.48-.43,8.27.34,12.58.62,3.65.24,6.84-.71,10.54-.46C46.44,60.16,55.26,61.16,58.38,64.32Z"/><path class="cls-3" d="M54,59l3.45,4.37H2.25L6.16,59Zm.49-1H5.71L0,64.32H59.57l-5-6.38Z"/><path class="cls-1" d="M48.07,16.1c1.91-1.21,5.07-6.2,7-7.4,1.25-.79.16,3.47-1.57,5.24C50,17.5,45.91,20.86,42,24.25c-2.48,2.16-4.82,4-5.76,7.41a4,4,0,0,0-.14.79c-.45,4.36,4.07,11.28-.15,14-3.37,2.17-11.38-1-8.55,5.57a18.57,18.57,0,0,0,4.29,6.15c1.95,1.59,4.76,3.37,4.76,3.37l-.68.4a19.36,19.36,0,0,0-5.44-.72,3.87,3.87,0,0,0-.64.11,3.42,3.42,0,0,0-2.52,1.45h-1.4a2.28,2.28,0,0,0,.66-.36h0a.66.66,0,0,0,.22-.87c-.31-.56-1.81-.32-3.12,0-1.1.28-2.07.63-2.07.63l-.58-.26a5.49,5.49,0,0,0,3.31-4.1s0,0,0,0c-.11-2.11-1.72-3.93-1.93-6-.38-3.61.33-7.82,4.05-9,2.18-.67,5.11,1,6.81-1.19,1.17-1.51.33-4-.23-5.54-1.73-4.86,1.5-8.08,4.44-11.49A102.9,102.9,0,0,1,48.07,16.1Z"/><path class="cls-2" d="M26.49,62.41a.66.66,0,0,0,.22-.87c-.31-.56-1.81-.32-3.12,0,1.26-1.33,1.32-3.19,1.57-5.51.48,2.12,0,4.85.5,4.63.2-.07.32-1.71.67-2.45a9.25,9.25,0,0,0,.21,2.39C26.83,61.31,27.29,61.91,26.49,62.41Z"/><path class="cls-2" d="M27.44,52a18.57,18.57,0,0,0,4.29,6.15c1.95,1.59,4.76,3.37,4.76,3.37l-.68.4a19.36,19.36,0,0,0-5.44-.72L30.25,61a46.37,46.37,0,0,0-2.92-4.5s1.62,1.39,2.5,2c-.73-3.09-4.37-4.72-4.78-8-.57-4.63,3.19-3.54,6.13-4.31a11.91,11.91,0,0,0,4-1.67c-.22.34-.35.82-.56,1.15,0,0,.52.17.48.09,1.94-2.33,2.21-3.94,1.17-7-.66-1.93-1.13-4.55-.15-6.35-.45,4.36,4.07,11.28-.15,14C32.62,48.62,24.61,45.42,27.44,52Z"/><path class="cls-1" d="M23.3,45.29c2.12-2.58-2.65-4-4.68-5.13a7.17,7.17,0,0,1-2.29-4.52s2.71,2.42,3.8,3.44,2.58,2.53,3.54,2.13,1.69-4.53,1.69-4.53L28.65,35s-3.31,4.82-2.66,6.5c.52,1.36,3.46,1.32,3.46,1.32Z"/><path class="cls-2" d="M19.46,39.08c1.07,1,2.56,2.5,3.51,2.14a9.23,9.23,0,0,1-2.84-2.14c-1.09-1-3.8-3.44-3.8-3.44a4.1,4.1,0,0,0,.11.7C17.32,37.13,18.74,38.41,19.46,39.08Z"/><path class="cls-2" d="M26,41.46c-.65-1.68,2.66-6.5,2.66-6.5l-1,.54c-.83,1.3-2.81,4.62-2.3,6s3.46,1.32,3.46,1.32S26.51,42.82,26,41.46Z"/><path class="cls-1" d="M38.09,25.57c.72-3.26-4.18-2.38-6.49-2.46a7.17,7.17,0,0,1-4.1-3s3.52.92,5,1.34,3.45,1.09,4.12.3S36,17,36,17l2.15-3s-.76,5.79.57,7c1.08,1,3.68-.4,3.68-.4Z"/><path class="cls-2" d="M31.85,21.77c1.41.41,3.41,1.07,4.1.31a9.07,9.07,0,0,1-3.5-.62c-1.43-.42-5-1.34-5-1.34a6.26,6.26,0,0,0,.41.57C29.07,21,30.91,21.49,31.85,21.77Z"/><path class="cls-2" d="M38.75,20.94c-1.33-1.21-.57-7-.57-7l-.67.94c-.15,1.54-.42,5.4.64,6.36s3.68-.39,3.68-.39S39.83,21.91,38.75,20.94Z"/><path class="cls-7" d="M47.36,35.77c.11-1.33-3.09-.92-3.58.06-1.41-1.15-2.66,1.76-2.43,1.87-1.27-.59-2.61,3.92.53,3.4-.72,1.44,1.47,2,2.15.73.52,1.62,2.22,1,2.83-.16,1.17.56,3,1.31,3.87-.33.13,1.22,2.22,2.7,3.12,1.85,1.34,1.75,3.6.59,4.74-.76.91.79,2.75,1.59,3.67.43,1,.82,1.93-.7,1.72-1.68,1.65.06,1-3-.52-2.86a1.6,1.6,0,0,0-1.25-2.26c-1.3-.32-1.53.55-2.12,1.6.2-1.42-1.93-1.62-2.77-1.21.22-1.91-1.35-4.82-3.25-3.39,0-2.29-2.44-1.65-3-.07C49.56,32.48,47.51,34,47.36,35.77Z"/><path class="cls-8" d="M64,38.83c.21,1-.76,2.5-1.72,1.68-.92,1.15-2.76.35-3.67-.44-1.14,1.35-3.4,2.51-4.74.76-.9.85-3-.63-3.12-1.85-.9,1.64-2.7.89-3.87.33-.61,1.14-2.31,1.78-2.83.16-.68,1.31-2.87.71-2.15-.73a1.61,1.61,0,0,1-1.6-.41c-.6,1.1-.56,3.13,1.6,2.77-.72,1.44,1.47,2,2.15.73.52,1.62,2.22,1,2.83-.16,1.17.56,3,1.31,3.87-.33.13,1.22,2.22,2.7,3.12,1.85,1.34,1.75,3.6.59,4.74-.76.91.79,2.75,1.59,3.67.43,1,.82,1.93-.7,1.72-1.68,1.22,0,1.18-1.64.46-2.45A1.08,1.08,0,0,1,64,38.83Z"/><path class="cls-7" d="M29.68,26.43c.73-.77,1.75.63,1.92,1.15a3.11,3.11,0,0,1-.22,2.8c1.52-1,3.87,1.2,3.35,3,1.37-.81,3.29,2.8,1.08,3,1,1-.66,2.5-1.64,1.82a1.25,1.25,0,0,1-2.49.14c-1.05,1-3.69.54-4-1-.73,1-1.41-.12-1.62-.83-.49,1.09-2.26,1.86-2.89.52.47,1.49-2.18,1-2.81.4l0,0,0,0c.18.89-.31,2.94-1.57,2.13.23,2.16-1.93,1.69-2.64.26-.86.9-2.69.93-3-.52-1.75,1.4-3.94-.41-3.95-2.25-.91.71-4.1-.06-3.75-1.62-1.54.38-4.23-1.13-2.69-2.75a1.62,1.62,0,0,1,.6-3.17c0-2.38,3.89-2.33,4.83-.6a4.16,4.16,0,0,1,5.27-.59,1.88,1.88,0,0,1,2.11-2c.27-1.61,2.89-3.22,3.38-.94,1.13-.52,2.39-.64,3,.81,0-1.26.61-1.8,1.85-1.27-.54-1.87,2.52-2.32,2.39-.78,0,0,0,0,0,.07.5-1.7,2.87,0,2.77,1.29.75-.46,1.13.35.71,1C29.7,26.44,29.6,26.52,29.68,26.43Z"/><path class="cls-8" d="M34.17,34.94a1.25,1.25,0,0,1-2.49.14c-1.05,1-3.69.54-4-1-.73,1-1.41-.11-1.62-.83-.49,1.09-2.26,1.87-2.89.52.47,1.49-2.18,1-2.81.4.18.89-.31,2.94-1.57,2.13.23,2.16-1.93,1.69-2.64.25-.86.91-2.69.94-3-.51-1.75,1.4-3.94-.41-3.95-2.24-.91.7-4.1-.07-3.75-1.64-1.49.38-4.06-1-2.83-2.59a1.62,1.62,0,0,0,.14,3.1c-1.54,1.62,1.15,3.13,2.69,2.75C5.12,37,8.31,37.74,9.22,37c0,1.84,2.2,3.65,3.95,2.25.3,1.45,2.13,1.42,3,.52.71,1.43,2.87,1.9,2.64-.26,1.26.81,1.75-1.24,1.57-2.13.63.59,3.28,1.09,2.81-.4.63,1.34,2.4.57,2.89-.52.21.71.89,1.78,1.62.83.3,1.55,2.94,2,4,1a1.25,1.25,0,0,0,2.49-.14c1,.68,2.6-.85,1.64-1.82,1.48-.11,1.11-1.76.29-2.6C36.12,34.63,35,35.48,34.17,34.94Z"/><path class="cls-7" d="M51.62,21.26c-1.07-1.22-3.25.44-2.07,1.38-1.29-1-4.12.54-3.1,1.15-1.54-.92-4.13.95-2.33,2.09-1.95,0-2.47,2.7-.16,2.8-1.47,1.9,1.88,1.9,3,.89,1,.9,2.69,1.66,3.73.71a2,2,0,0,0,3.14.13c1.1,1.15,2.45.34,2.52-1.15,0,0-.07,0-.07,0,4.5,3,6.55-.78,6.48-2.74a2.62,2.62,0,0,0-2.61-3.44c.51-1.82-1.72-2.05-3.07-2.4-1.21-1.45-2.26-.5-2.87.64A1.33,1.33,0,0,0,51.62,21.26Z"/><path class="cls-7" d="M33.45,12.46c-.44-1.12-3.23-1.26-3.32.13-2.34-.37-2.76,1.2-2.54,3.17-1-.27-1.88,1-2,2-1.35-1.29-5,0-3.51,1.52-1.7.87,0,1.83.42,2.35.68.91.55,1.83,2,1.13.88.75,2.47.14,3-.75,1,.92,3.14,1.49,3.86-.06a2.28,2.28,0,0,0,3.21-2.43c1.23.23,2.9.77,3.47-.75a1.94,1.94,0,0,0,3-.06,1.48,1.48,0,0,0,1.77.15c.18-.09.06-.64.22-.79s.81,0,1-.36c.55-1.09-.24-3.49-1.72-2.72,1-1.85-2.28-2.49-2.6-1,.34-1.63-1.61-.37-2,.09.17-.18-1.15-1.49-1.36-1.59A5.13,5.13,0,0,0,33.45,12.46Z"/><path class="cls-8" d="M62.72,24.88c-.12,2-2.16,5.24-6.41,2.48-.12,1.43-1.44,2.19-2.51,1.06a2,2,0,0,1-3.14-.13c-1,.95-2.76.19-3.73-.71-1.09,1-4.44,1-3-.89a1.86,1.86,0,0,1-1.07-.34c-.79.78-.62,2.26,1.07,2.33-1.47,1.9,1.88,1.9,3,.89,1,.9,2.69,1.66,3.73.71a2,2,0,0,0,3.14.13c1.07,1.13,2.39.37,2.51-1.06,4.46,2.9,6.49-.83,6.42-2.78A2.25,2.25,0,0,0,62.72,24.88Z"/><path class="cls-8" d="M42.94,15.35c-.16.15,0,.7-.22.79A1.48,1.48,0,0,1,41,16a1.94,1.94,0,0,1-3,.05c-.57,1.52-2.24,1-3.47.76a2.28,2.28,0,0,1-3.21,2.43c-.72,1.54-2.85,1-3.86.06-.51.88-2.1,1.49-3,.75-1.43.7-1.3-.22-2-1.14-.14-.18-.45-.43-.71-.7a.88.88,0,0,0,.29,1c-1.7.87,0,1.83.42,2.35.68.91.55,1.83,2,1.13.88.75,2.47.14,3-.75,1,.92,3.14,1.49,3.86-.06a2.28,2.28,0,0,0,3.21-2.43c1.23.23,2.9.77,3.47-.75a1.94,1.94,0,0,0,3-.06,1.48,1.48,0,0,0,1.77.15c.18-.09.06-.64.22-.79s.81,0,1-.36a2.55,2.55,0,0,0-.38-2.48C43.33,15.23,43.08,15.22,42.94,15.35Z"/><path class="cls-7" d="M50.13,2.45c-2.43-.83-3,1.74-2.24,3.47-1-1.32-3.32-.43-3.54,2.28-2.52-.33-4.12,4-.94,3.93-.64,1.31,1.79,2.63,2.72.95,1.46.77,3.95,1,4.71-.78,0-.18,0-.18,0,0,.86,1.65,3.38,2.8,4.89,1.61a2.86,2.86,0,0,0,3.59,2.25c.48,1.67,2.24,2.18,3,.49,1.52.84,2.88-.15,3.15-1.84,1.51,1,4.82,1.35,5.36-.89,1.69.26,2.68-.66,2.3-2.27.78-.57.22-2.05-.51-2.05A2.64,2.64,0,0,0,68.13,8C68,6.15,65.8,6.3,64.26,6.86c.36-1.62-.32-2.61-2-2.41.37-2.16-1.67-2.79-2.94-1.61-1.1-.54-1.51-.1-2.66.11a7.68,7.68,0,0,1,0,.8c-.51-1.53-.28-.88-1.31-1.76C55.3.37,55,.46,53.58.65,52-.8,50,.34,50.13,2.45Z"/><path class="cls-8" d="M73,9.76a1.94,1.94,0,0,1-2.2.8c-.54,2.25-3.85,1.89-5.36.89-.27,1.69-1.63,2.68-3.15,1.84-.74,1.69-2.5,1.18-3-.49a2.86,2.86,0,0,1-3.59-2.25c-1.51,1.19-4,0-4.88-1.6-.77,1.81-3.26,1.54-4.71.77-.93,1.68-3.36.36-2.72-1a2.7,2.7,0,0,1-.73-.07c-1.35,1.07-1.65,3.49.73,3.43-.64,1.31,1.79,2.63,2.72.95,1.45.77,3.94,1,4.71-.77.86,1.64,3.37,2.79,4.88,1.6a2.86,2.86,0,0,0,3.59,2.25c.48,1.67,2.24,2.18,3,.49,1.52.84,2.88-.15,3.15-1.84,1.51,1,4.82,1.35,5.36-.89,1.69.26,2.68-.66,2.3-2.27A1.28,1.28,0,0,0,73,9.76Z"/></g></g></svg>