<svg xmlns="http://www.w3.org/2000/svg" viewBox="0 0 44.12 80"><defs><style>.cls-1{fill:#c92322;}.cls-2{fill:#ccc;}.cls-3{fill:#666;}.cls-4{fill:#eb2928;}.cls-5{opacity:0.2;}.cls-6{fill:#aeaeae;}.cls-7{fill:#e02726;}.cls-8{fill:#8d1e1b;}.cls-9{fill:#e9e9e9;}.cls-10{opacity:0.3;}</style></defs><title>Asset 7</title><g id="Layer_2" data-name="Layer 2"><g id="Icons"><rect class="cls-1" x="20.17" y="47.94" width="3.79" height="31.87"/><rect class="cls-2" x="16.61" y="43.1" width="10.91" height="2.67"/><rect class="cls-3" x="17.02" y="43.45" width="0.38" height="1.97"/><rect class="cls-3" x="18.1" y="43.45" width="0.38" height="1.97"/><rect class="cls-3" x="19.17" y="43.45" width="0.38" height="1.97"/><rect class="cls-3" x="20.25" y="43.45" width="0.38" height="1.97"/><rect class="cls-3" x="21.33" y="43.45" width="0.38" height="1.97"/><rect class="cls-3" x="22.41" y="43.45" width="0.38" height="1.97"/><rect class="cls-3" x="23.49" y="43.45" width="0.38" height="1.97"/><rect class="cls-3" x="24.57" y="43.45" width="0.38" height="1.97"/><rect class="cls-3" x="25.65" y="43.45" width="0.38" height="1.97"/><rect class="cls-3" x="26.73" y="43.45" width="0.38" height="1.97"/><rect class="cls-4" x="17.11" y="45.77" width="9.9" height="2.17"/><rect class="cls-5" x="17.11" y="45.77" width="9.9" height="0.3"/><path class="cls-5" d="M25.69,47.59v-1.4h.85S25.85,46.19,25.69,47.59Z"/><path class="cls-5" d="M24.3,47.59v-1.4h.85S24.46,46.19,24.3,47.59Z"/><path class="cls-5" d="M22.91,47.59v-1.4h.85S23.07,46.19,22.91,47.59Z"/><path class="cls-5" d="M18.44,47.59v-1.4h-.86S18.27,46.19,18.44,47.59Z"/><path class="cls-5" d="M19.83,47.59v-1.4H19S19.66,46.19,19.83,47.59Z"/><path class="cls-5" d="M21.22,47.59v-1.4h-.86S21.05,46.19,21.22,47.59Z"/><path class="cls-4" d="M22.25,43.1H18.44l.18-2.94h3.61Zm-3.41-.31h3l0-2.33H19Z"/><polygon class="cls-4" points="18.77 43.05 18.5 42.84 21.9 40.2 22.17 40.42 18.77 43.05"/><polygon class="cls-4" points="21.93 43.05 18.66 40.42 18.93 40.21 22.2 42.84 21.93 43.05"/><path class="cls-4" d="M25.69,43.1H21.87l0-2.94h3.61Zm-3.44-.31h3l-.18-2.33H22.23Z"/><polygon class="cls-4" points="22.2 43.05 21.93 42.84 25.14 40.21 25.41 40.42 22.2 43.05"/><polygon class="cls-4" points="25.36 43.05 21.91 40.42 22.17 40.2 25.62 42.84 25.36 43.05"/><path class="cls-4" d="M22.23,40.46H18.6l.17-2.82H22.2ZM19,40.16h2.85l0-2.21h-2.7Z"/><polygon class="cls-4" points="18.93 40.42 18.66 40.2 21.88 37.69 22.15 37.9 18.93 40.42"/><polygon class="cls-4" points="21.9 40.42 18.81 37.9 19.09 37.69 22.17 40.21 21.9 40.42"/><path class="cls-4" d="M25.48,40.46H21.85l0-2.82h3.43Zm-3.25-.3h2.84L24.9,38H22.21Z"/><polygon class="cls-4" points="22.18 40.42 21.9 40.21 24.94 37.69 25.21 37.9 22.18 40.42"/><polygon class="cls-4" points="25.14 40.42 21.88 37.9 22.15 37.69 25.41 40.2 25.14 40.42"/><path class="cls-4" d="M22.21,38H18.75l.16-2.64h3.27Zm-3.06-.31h2.67l0-2H19.28Z"/><polygon class="cls-4" points="19.08 37.9 18.82 37.69 21.86 35.35 22.13 35.56 19.08 37.9"/><polygon class="cls-4" points="21.88 37.9 18.96 35.56 19.23 35.35 22.15 37.69 21.88 37.9"/><path class="cls-4" d="M25.28,38H21.83l0-2.64h3.27Zm-3.08-.31h2.67l-.16-2H22.18Z"/><polygon class="cls-4" points="22.15 37.9 21.88 37.69 24.75 35.35 25.03 35.56 22.15 37.9"/><polygon class="cls-4" points="24.94 37.9 21.86 35.57 22.12 35.35 25.21 37.69 24.94 37.9"/><path class="cls-2" d="M22.18,35.61H18.89L19.06,33h3.1Zm-2.89-.3H21.8l0-2H19.42Z"/><polygon class="cls-2" points="19.23 35.56 18.96 35.35 21.84 33.01 22.11 33.23 19.23 35.56"/><polygon class="cls-2" points="21.85 35.56 19.1 33.22 19.38 33.02 22.13 35.35 21.85 35.56"/><path class="cls-2" d="M25.09,35.61H21.8l0-2.64h3.1Zm-2.91-.3h2.51l-.17-2H22.16Z"/><polygon class="cls-2" points="22.13 35.56 21.85 35.35 24.56 33.02 24.84 33.22 22.13 35.56"/><polygon class="cls-2" points="24.75 35.56 21.84 33.23 22.11 33.01 25.03 35.35 24.75 35.56"/><path class="cls-2" d="M22.16,33.27H19l.15-2.53h2.95ZM19.44,33h2.34l0-1.92h-2.2Z"/><polygon class="cls-2" points="19.38 33.23 19.1 33.01 21.81 30.79 22.09 31 19.38 33.23"/><polygon class="cls-2" points="21.83 33.22 19.23 31 19.51 30.79 22.11 33.02 21.83 33.22"/><path class="cls-2" d="M24.91,33.27H21.78l0-2.53H24.7ZM22.16,33H24.5l-.15-1.92H22.14Z"/><polygon class="cls-2" points="22.11 33.22 21.83 33.02 24.39 30.79 24.67 31 22.11 33.22"/><polygon class="cls-2" points="24.57 33.23 21.81 31 22.09 30.79 24.84 33.01 24.57 33.23"/><path class="cls-2" d="M22.14,31.05h-3l.16-2.53h2.79Zm-2.57-.31h2.19l0-1.92h-2Z"/><polygon class="cls-2" points="19.51 31 19.23 30.79 21.79 28.57 22.07 28.77 19.51 31"/><polygon class="cls-2" points="21.81 30.99 19.36 28.77 19.65 28.57 22.09 30.8 21.81 30.99"/><path class="cls-2" d="M24.73,31.05h-3l0-2.53h2.79Zm-2.59-.31h2.18l-.15-1.92H22.12Z"/><polygon class="cls-2" points="22.09 30.99 21.81 30.8 24.2 28.57 24.49 28.77 22.09 30.99"/><polygon class="cls-2" points="24.39 31 21.79 28.77 22.07 28.57 24.67 30.79 24.39 31"/><path class="cls-4" d="M22.12,28.82H19.31l.13-2.15H22.1Zm-2.41-.3h2l0-1.55H19.8Z"/><polygon class="cls-4" points="19.64 28.78 19.38 28.56 21.78 26.71 22.04 26.93 19.64 28.78"/><polygon class="cls-4" points="21.8 28.78 19.49 26.92 19.76 26.71 22.07 28.56 21.8 28.78"/><path class="cls-4" d="M24.55,28.82H21.74l0-2.15h2.66Zm-2.43-.3h2L24,27H22.1Z"/><polygon class="cls-4" points="22.07 28.77 21.79 28.57 24.07 26.71 24.34 26.92 22.07 28.77"/><polygon class="cls-4" points="24.22 28.78 21.78 26.93 22.04 26.71 24.48 28.56 24.22 28.78"/><path class="cls-4" d="M22.1,27H19.42l.14-2.16h2.52Zm-2.28-.3h1.9V25.12H19.92Z"/><polygon class="cls-4" points="19.76 26.92 19.49 26.71 21.76 24.86 22.03 25.07 19.76 26.92"/><polygon class="cls-4" points="21.77 26.92 19.6 25.07 19.88 24.86 22.05 26.71 21.77 26.92"/><path class="cls-4" d="M24.4,27H21.72l0-2.16h2.53Zm-2.3-.3H24l-.13-1.55H22.09Z"/><polygon class="cls-4" points="22.05 26.92 21.77 26.72 23.91 24.86 24.19 25.07 22.05 26.92"/><polygon class="cls-4" points="24.07 26.92 21.76 25.07 22.03 24.86 24.34 26.71 24.07 26.92"/><path class="cls-4" d="M22.09,25.12H19.54L19.67,23h2.4Zm-2.15-.31H21.7V23.26H20Z"/><polygon class="cls-4" points="19.88 25.07 19.6 24.86 21.74 23.01 22.02 23.21 19.88 25.07"/><polygon class="cls-4" points="21.75 25.07 19.71 23.21 19.99 23.01 22.04 24.86 21.75 25.07"/><path class="cls-4" d="M24.26,25.12H21.71l0-2.16h2.39Zm-2.18-.31h1.77l-.12-1.55H22.07Z"/><polygon class="cls-4" points="22.04 25.06 21.75 24.87 23.76 23.01 24.05 23.21 22.04 25.06"/><polygon class="cls-4" points="23.91 25.07 21.74 23.21 22.02 23.01 24.19 24.86 23.91 25.07"/><rect class="cls-2" x="19.2" y="19.86" width="5.71" height="3.25"/><rect class="cls-6" x="19.2" y="20.43" width="5.71" height="0.3"/><rect class="cls-6" x="19.2" y="21.03" width="5.71" height="0.3"/><rect class="cls-6" x="19.2" y="21.64" width="5.71" height="0.3"/><rect class="cls-6" x="19.2" y="22.24" width="5.71" height="0.3"/><rect class="cls-7" x="19.2" y="15.46" width="5.71" height="1.93"/><rect class="cls-8" x="19.2" y="15.8" width="5.71" height="0.18"/><rect class="cls-8" x="19.2" y="16.16" width="5.71" height="0.18"/><rect class="cls-8" x="19.2" y="16.52" width="5.71" height="0.18"/><rect class="cls-8" x="19.2" y="16.87" width="5.71" height="0.18"/><rect class="cls-9" x="19.76" y="17.39" width="4.61" height="2.47"/><rect class="cls-10" x="19.76" y="19.63" width="4.61" height="0.23"/><rect class="cls-10" x="19.76" y="17.39" width="4.61" height="0.23"/><rect class="cls-2" x="21.22" y="4.1" width="1.68" height="11.37"/><rect class="cls-7" x="21.22" y="9.78" width="1.68" height="5.68"/><rect class="cls-5" x="21.22" y="15.1" width="1.68" height="0.37"/><rect class="cls-8" x="20.91" y="3.56" width="2.3" height="0.53"/><rect class="cls-4" x="21.22" y="1.76" width="1.68" height="1.8"/><rect class="cls-8" x="21.79" width="0.54" height="1.76"/><path class="cls-4" d="M43.85,79.75a44.21,44.21,0,0,1-4.18-4.5l-.49-.6a53.58,53.58,0,0,1-3.31-4.71c-.13-.2-.25-.4-.37-.6-.71-1.16-1.37-2.33-2-3.48-.11-.2-.21-.4-.31-.6-.72-1.4-1.37-2.77-2-4.09,0-.11-.1-.22-.14-.33h0c-.05-.09-.08-.18-.12-.26-.62-1.44-1.15-2.81-1.62-4.09l-.21-.6c-.57-1.62-1-3.06-1.36-4.25l-.09-.3c-.56-2-.81-3.21-.82-3.26l0-.12H21.73V70h.18a18.47,18.47,0,0,1,4.8.62l.44.12a17,17,0,0,1,6.23,3.35q.3.26.6.54c.21.19.41.4.61.6a17.58,17.58,0,0,1,1.31,1.53h0a18,18,0,0,1,1.89,3.12l0,.09h6.26Zm-5.76,0c-.05-.12-.11-.23-.17-.35h0a19.09,19.09,0,0,0-1.75-2.77h0c-.33-.43-.66-.84-1-1.23l-.09-.1c-.1-.11-.2-.22-.31-.32a3.31,3.31,0,0,0-.27-.26,0,0,0,0,0,0,0l-.27-.26-.56-.5c-.32-.27-.64-.53-1-.78h0A17.18,17.18,0,0,0,27,70.4l-.43-.13c-.55-.13-1.12-.24-1.69-.33a20.57,20.57,0,0,0-2.62-.22h-.16V48.24h4.49c0,.1.06.25.11.46.1.45.27,1.11.5,2,.05.21.11.42.17.65l.09.3c0,.15.09.31.14.47.27.93.61,2,1,3.18.06.2.13.4.2.6l.22.6.06.16q.6,1.68,1.38,3.54a3.29,3.29,0,0,0,.17.39c.08.2.17.4.26.61l.05.11c.49,1.13,1,2.29,1.63,3.48.08.16.17.33.25.5a1.51,1.51,0,0,1,.09.18.41.41,0,0,1,.05.09l.18.33a.06.06,0,0,0,0,0c.55,1,1.14,2.09,1.78,3.15l.18.29.18.3c.06.1.12.2.19.3a.75.75,0,0,0,.07.12c.86,1.37,1.8,2.74,2.82,4.08.12.17.26.34.4.51a1,1,0,0,0,.13.17h0l.07.07a4.11,4.11,0,0,0,.27.35h0a44.54,44.54,0,0,0,3.53,3.9h0l.55.54Z"/><path class="cls-4" d="M27.71,51.32h-2L26.23,50l.13-.38.32-.88.2-.57L26.55,48l-.07.2-.37,1-.13.37-.4,1.1h0l-.12.34-.09.26H21.91a.19.19,0,0,0-.15.06.16.16,0,0,0,0,.09s0,0,0,.05l.34.77.57,1.3.21.45.8,1.83.13.3h0l0,0a.19.19,0,0,0,.17.1h0a.17.17,0,0,0,.16-.12l0,0v0l.09-.27L24.87,54l.14-.44.42-1.3h0l.13-.38.07-.21H27.8Zm-2.93,1.79-.14.44-.56,1.72h0l-.13.41-.25-.55L23,53.59l-.2-.45-.67-1.52h3.1Z"/><path class="cls-4" d="M29.37,56.47H21.91v-.6h7.25Z"/><path class="cls-4" d="M31.25,61.17H21.91v-.61H31c0,.08.07.17.12.26h0C31.15,61,31.21,61.06,31.25,61.17Z"/><path class="cls-4" d="M33.52,65.86H21.91v-.6h11.3C33.31,65.46,33.41,65.66,33.52,65.86Z"/><path class="cls-4" d="M35.87,69.94h-14v-.6H35.5C35.62,69.54,35.74,69.74,35.87,69.94Z"/><path class="cls-4" d="M39.67,75.25H34.59c-.2-.2-.4-.41-.61-.6h5.2Z"/><polygon class="cls-4" points="38.15 79.88 37.8 79.82 38.98 74.83 39.32 74.89 38.15 79.88"/><polygon class="cls-4" points="43.63 79.98 34.63 75.08 34.82 74.82 43.82 79.72 43.63 79.98"/><polygon class="cls-4" points="34.45 74.74 34.11 74.68 35.3 69.61 35.65 69.67 34.45 74.74"/><polygon class="cls-4" points="38.91 74.83 30.7 69.86 30.9 69.61 39.12 74.58 38.91 74.83"/><path class="cls-4" d="M27.56,60.76h0l-.14-.19-.1-.13-.26-.37h0l-1.32-1.8-.25-.34-1.07-1.45-.24-.33,0,0L24,55.87l0,0v0l-.14.29h0l-.14.3-.59,1.31-.18.4-.8,1.76-.34.75v0l0,0,0,0,.18.25.09.13.08.12,1.13,1.58.22.31h0l1.47,2.07.22.3-.25.3-1,1.25-.21.26-1.57,2,0,0-.17.22-.15.18.15.09.12.07h0l.18-.22.3-.38,1.38-1.74.2-.26L25.22,66l.07-.09,0,0,.2-.25h0v0l.12,0,.15-.35.75-1.81.13-.33.74-1.76h0l.08-.18v-.05l.12-.28Zm-1.14,2.09-.14.32-.85,2,0,.05,0,.08-.06-.08L25,64.78h0l-1.37-1.92-.22-.31-1-1.37-.3-.44.07-.17.9-2,.18-.4h0l.59-1.31L24,56.5l.2.28,1.13,1.52.25.34L27,60.56l.24.32-.12.29Z"/><polygon class="cls-4" points="26.64 69.71 26.33 69.58 28.75 65.35 29.06 65.49 26.64 69.71"/><polygon class="cls-4" points="30.91 69.71 30.6 69.57 32.99 65.49 33.31 65.63 30.91 69.71"/><polygon class="cls-4" points="35.3 69.64 28.9 65.79 29.1 65.55 35.5 69.39 35.3 69.64"/><polygon class="cls-4" points="30.46 69.63 25.23 65.78 25.46 65.55 30.69 69.4 30.46 69.63"/><polygon class="cls-4" points="26.11 69.74 21.92 65.66 22.18 65.46 26.38 69.54 26.11 69.74"/><polygon class="cls-4" points="22.21 65.4 21.9 65.27 24.35 60.8 24.66 60.93 22.21 65.4"/><polygon class="cls-4" points="22.07 56.1 21.74 56.01 23.48 51.42 23.81 51.52 22.07 56.1"/><polygon class="cls-4" points="22.07 51.36 21.75 51.23 23.35 48.13 23.67 48.26 22.07 51.36"/><path class="cls-4" d="M27,70.4l.17.36-.44-.12c-.05-.12-.11-.24-.16-.37Z"/><path class="cls-4" d="M29.23,56.21l-.1.26-.05.16-.57,1.55-.13.34-.75,2-.05.13,0,.06h0l0,0h0l-.29-.07h0v0l0-.12,0-.13.11-.31h0l.69-1.86.13-.34.53-1.44.1-.28-.24-.32-1.54-2-.26-.35-1-1.37h0l-.22-.29-.21-.28h0l-.13-.22L24.45,50l-.21-.37-.54-.92c0,.46,0,1.13.08,2h0c0,.19,0,.38,0,.59a.37.37,0,0,0,0,.11v.06s0,.09,0,.13,0,.37,0,.57c.06.92.14,2,.23,3.08h0c0,.2,0,.4.05.6s0,.16,0,.25,0,0,0,0,0,.21,0,.31,0,.21,0,.31c.11,1.14.24,2.32.41,3.51h0a1.22,1.22,0,0,0,0,.26c0,.07,0,.13,0,.19a2.51,2.51,0,0,1,0,.27.77.77,0,0,0,0,.15c0,.13,0,.28.06.42h0c.19,1.23.4,2.45.64,3.62a.17.17,0,0,0,0,.05c0,.11,0,.22.07.33h0c0,.09,0,.18.05.26a2.09,2.09,0,0,1,.05.21c.27,1.14.57,2.2.9,3.16a.36.36,0,0,1,0,.11l.12.31c0,.1.07.19.11.29h-.38l-.13-.33a1.52,1.52,0,0,0-.09-.25h0a30.46,30.46,0,0,1-1-3.39.16.16,0,0,0,0-.09c0-.2-.08-.4-.13-.6s-.07-.32-.09-.48h0c-.23-1.09-.42-2.21-.58-3.35,0-.09,0-.17,0-.25s0-.19,0-.28h0s0,0,0,0,0-.18,0-.28-.06-.44-.08-.65h0c-.13-1-.24-2.06-.34-3l0-.38,0-.3h0c0-.1,0-.2,0-.29,0-.25-.05-.5-.07-.74-.08-1-.14-2-.19-2.83h0c0-.24,0-.46,0-.68,0,0,0-.09,0-.13v-.17c0-.23,0-.44,0-.65,0-.74-.06-1.35-.08-1.79,0-.28,0-.5,0-.64v-.15a.16.16,0,0,1,.13-.15h0a.19.19,0,0,1,.16.08l.12.22.62,1,.21.37.6,1h0l.24.4.2.34,0,0h0l.14.19,1.12,1.47.27.35,1.39,1.83.45.6.16.21A.11.11,0,0,1,29.23,56.21Z"/><path class="cls-4" d="M31.11,60.83h0l-.13.33,0,.11-.66,1.66-.12.3-.79,2-.14.35h-.06l-.08,0-.06,0-.13,0,0-.08.07-.17,0-.06L29.88,63l.13-.31.6-1.54.11-.27-.33-.34-2-2-.27-.27-1.49-1.53h0l-.25-.24-.11.3h0l-.53,1.47-.14.38-.7,1.92-.09.23-.13,0h0l-.17,0,.05-.14v0l.09-.24h0l.72-2,.14-.38L26,56.47l.12-.32v0l.1-.26h0l.24.23,0,0h0l.34.34,1.41,1.44.27.27,1.95,2,.38.39.27.26Z"/><polygon class="cls-4" points="32.91 65.44 27.31 60.97 27.55 60.75 33.15 65.22 32.91 65.44"/><polygon class="cls-4" points="28.6 65.65 24.4 61.17 24.67 60.98 28.88 65.46 28.6 65.65"/><path class="cls-4" d="M36.17,76.58l-.25.21h0a17.58,17.58,0,0,0-1.31-1.53c-.2-.2-.4-.41-.61-.6s-.4-.37-.6-.54-.5-.65-.74-1h0a29.2,29.2,0,0,1-1.9-3.17c-.06-.13-.13-.25-.19-.38l-.12-.22c0-.08-.07-.14-.1-.21h0c-.52-1.06-1-2.16-1.41-3.27l0-.06-.1-.27h0s0-.08-.05-.13,0-.09-.05-.13h0c-.48-1.29-.9-2.6-1.27-3.89h0c0-.06,0-.13-.06-.18l-.12-.46v0a.56.56,0,0,0,0-.12c0-.17-.09-.33-.13-.5h0c-.3-1.13-.56-2.23-.79-3.27h0a1.7,1.7,0,0,0-.06-.31c0-.1,0-.2-.05-.3s0,0,0,0,0-.18-.05-.26c0-.25-.1-.48-.14-.72h0c-.2-1.07-.37-2-.51-2.93h0c0-.23-.06-.45-.09-.67l0-.22c0-.23-.07-.46-.09-.66h0c-.1-.79-.18-1.43-.22-1.87l-.38.87-.17.39-.55,1.28-.06.14,0,0v0h0a.18.18,0,0,1-.16.09h0a.17.17,0,0,1-.12,0l0,0h0l0,0h0v0l-.08-.15-.65-1.25-.19-.37-.46-.89-.34-.66.33-.12.1.21.57,1.08.19.38.5,1,.2.4.15-.34h0l.46-1,.17-.39.45-1L25,48a.18.18,0,0,1,.17-.09h0a.17.17,0,0,1,.15.14.26.26,0,0,0,0,.07.34.34,0,0,0,0,.09,5.3,5.3,0,0,0,.05.54h0c.05.45.12,1.11.22,1.93h0c0,.23.06.46.1.7h0l0,.19c0,.16.05.33.07.5h0c.14.94.32,2,.54,3.17l.12.57c0,.06,0,.12,0,.19h0a.43.43,0,0,1,0,0h0c0,.11.05.23.08.34a2.21,2.21,0,0,0,.05.25h0c.23,1.09.49,2.22.8,3.39h0a3.17,3.17,0,0,1,.12.44.65.65,0,0,1,0,.13.36.36,0,0,0,0,.11v0a2,2,0,0,1,.09.33.83.83,0,0,1,0,.15h0c.38,1.27.79,2.58,1.27,3.87a.14.14,0,0,1,0,.06c.05.11.09.22.13.33h0l.11.27a1.18,1.18,0,0,0,.07.2h0c.43,1.09.9,2.16,1.42,3.21a.11.11,0,0,1,0,.06,2.69,2.69,0,0,0,.16.29v0l.15.29c0,.09.1.17.14.25a27.17,27.17,0,0,0,2.37,3.7c.17.22.35.44.52.64l.11.12a.13.13,0,0,0,0,.06h0c.15.19.32.37.48.54a17.27,17.27,0,0,0,1.38,1.33Z"/><path class="cls-4" d="M26.29,56.25a.17.17,0,0,1-.16-.09l-2.65-4.62.32-.14,2.43,4.25,1.15-4.15L25,48.28l.3-.17,2.44,3.28a.13.13,0,0,1,0,.12l-1.28,4.62a.19.19,0,0,1-.15.12Z"/><polygon class="cls-4" points="24.34 60.92 21.89 56.32 22.21 56.2 24.66 60.8 24.34 60.92"/><path class="cls-4" d="M0,80H6.26l0-.09a18,18,0,0,1,1.9-3.12h0a17.58,17.58,0,0,1,1.31-1.53c.2-.2.41-.41.62-.6a7.7,7.7,0,0,1,.6-.54A17,17,0,0,1,17,70.76a3.74,3.74,0,0,1,.45-.12,18.41,18.41,0,0,1,4.8-.62h.17V47.94H17.25v.12s-.27,1.27-.83,3.26a2.63,2.63,0,0,0-.08.3c-.35,1.19-.8,2.63-1.37,4.25l-.21.6c-.46,1.28-1,2.65-1.62,4.09l-.11.26h0c0,.11-.09.22-.14.33-.58,1.32-1.23,2.69-1.95,4.09l-.31.6c-.62,1.15-1.27,2.32-2,3.48-.12.2-.24.4-.37.6a53.58,53.58,0,0,1-3.31,4.71c-.15.2-.32.4-.49.6a44.11,44.11,0,0,1-4.17,4.5Zm.8-.3.55-.54h0a44.54,44.54,0,0,0,3.53-3.9h0l.28-.35s0-.05.06-.07h0a1.77,1.77,0,0,0,.12-.17,5.93,5.93,0,0,0,.4-.51c1-1.34,2-2.71,2.82-4.08a.75.75,0,0,0,.07-.12c.07-.1.13-.2.19-.3s.13-.2.18-.3.12-.2.18-.29C9.83,68,10.42,66.94,11,65.9l0,0,.17-.33s0-.06.05-.09l.09-.18c.09-.17.17-.34.26-.5.59-1.19,1.13-2.35,1.63-3.48a1.17,1.17,0,0,1,.05-.11c.09-.21.17-.41.26-.61s.12-.26.17-.39c.52-1.24,1-2.42,1.38-3.54l.06-.16c.07-.21.15-.4.22-.6s.13-.4.19-.6c.41-1.18.75-2.25,1-3.18.05-.16.1-.32.14-.47s.06-.21.09-.3.12-.44.18-.65c.23-.86.4-1.52.49-2,0-.21.09-.36.11-.46H22V69.72h-.15a20.58,20.58,0,0,0-2.63.22c-.57.09-1.14.2-1.69.33l-.43.13a17.18,17.18,0,0,0-5.65,2.71h0c-.33.25-.66.51-1,.78l-.56.5-.27.26s0,0,0,0a2.23,2.23,0,0,0-.27.26c-.11.1-.21.21-.31.32l-.1.1q-.52.59-1,1.23H8a17.52,17.52,0,0,0-1.75,2.77h0c-.07.12-.12.23-.18.35Z"/><path class="cls-4" d="M16.33,51.62h2.16l.07.21.13.38h0l.42,1.3.14.44.62,1.91.09.27v0l0,0a.17.17,0,0,0,.16.12h0a.17.17,0,0,0,.16-.1l0,0h0l.12-.3L21.27,54l.2-.45.57-1.3.34-.77s0,0,0-.05a.29.29,0,0,0,0-.09.22.22,0,0,0-.15-.06H18.75l-.09-.26-.12-.34h0l-.4-1.1L18,49.25l-.37-1-.07-.2-.33.09.2.57.32.88.14.38.49,1.36h-2A2.63,2.63,0,0,0,16.33,51.62Zm2.53,0H22l-.67,1.52-.19.45-.68,1.54-.24.55L20,55.27h0l-.55-1.72-.15-.44Z"/><path class="cls-4" d="M14.75,56.47h7.47v-.6H15Z"/><path class="cls-4" d="M12.87,61.17h9.35v-.61H13.13l-.11.26h0C13,61,12.92,61.06,12.87,61.17Z"/><path class="cls-4" d="M10.61,65.86H22.22v-.6H10.92Z"/><path class="cls-4" d="M8.25,69.94h14v-.6H8.62C8.5,69.54,8.38,69.74,8.25,69.94Z"/><path class="cls-4" d="M4.45,75.25H9.53c.2-.2.41-.41.62-.6H4.94C4.79,74.85,4.62,75.05,4.45,75.25Z"/><polygon class="cls-4" points="5.97 79.88 6.32 79.82 5.15 74.83 4.8 74.89 5.97 79.88"/><polygon class="cls-4" points="0.49 79.98 9.49 75.08 9.31 74.82 0.3 79.72 0.49 79.98"/><polygon class="cls-4" points="9.67 74.74 10.02 74.68 8.82 69.61 8.48 69.67 9.67 74.74"/><polygon class="cls-4" points="5.21 74.83 13.42 69.86 13.22 69.61 5.01 74.58 5.21 74.83"/><path class="cls-4" d="M16.5,60.84l.12.28v.05l.08.18h0l.74,1.76.14.33.75,1.81.15.35.11,0v0h0l.2.25,0,0,.07.09L20,67.34l.2.26,1.38,1.74.31.38.17.22h0l.13-.07.15-.09-.15-.18L22,69.38l0,0-1.57-2-.2-.26-1-1.25-.24-.3.21-.3,1.47-2.07h0l.22-.31L22,61.29l.08-.12.1-.13.17-.25,0,0,0,0v0L22,59.94l-.79-1.76-.19-.4-.59-1.31-.13-.3h0l-.13-.29,0,0,0,0-.18.25v0l-.25.33-1.06,1.45-.25.34-1.33,1.8h0l-.26.37-.1.13-.14.19h0Zm.51.33-.12-.29.24-.32,1.41-1.92.24-.34,1.13-1.52.2-.28.16.35.6,1.31h0l.17.4.9,2,.08.17-.31.44-1,1.37-.23.31-1.36,1.92h0l-.35.48-.05.08,0-.08,0-.05-.84-2-.14-.32Z"/><polygon class="cls-4" points="17.48 69.71 17.8 69.58 15.38 65.35 15.06 65.49 17.48 69.71"/><polygon class="cls-4" points="13.21 69.71 13.53 69.57 11.13 65.49 10.81 65.63 13.21 69.71"/><polygon class="cls-4" points="8.83 69.64 15.22 65.79 15.02 65.55 8.63 69.39 8.83 69.64"/><polygon class="cls-4" points="13.66 69.63 18.89 65.78 18.66 65.55 13.43 69.4 13.66 69.63"/><polygon class="cls-4" points="18.01 69.74 22.2 65.66 21.94 65.46 17.74 69.54 18.01 69.74"/><polygon class="cls-4" points="21.91 65.4 22.23 65.27 19.78 60.8 19.46 60.93 21.91 65.4"/><polygon class="cls-4" points="22.05 56.1 22.38 56.01 20.65 51.42 20.31 51.52 22.05 56.1"/><polygon class="cls-4" points="22.05 51.36 22.38 51.23 20.77 48.13 20.45 48.26 22.05 51.36"/><path class="cls-4" d="M17.14,70.4c-.06.12-.1.24-.17.36a3.74,3.74,0,0,1,.45-.12l.15-.37Z"/><path class="cls-4" d="M14.89,56.21l.1.26.06.16.56,1.55.13.34.76,2,0,.13,0,.06h0v0h0l.29-.07h0v0l0-.12-.05-.13-.11-.31h0L16,58.25l-.13-.34-.53-1.44-.1-.28.24-.32,1.54-2,.27-.35,1.05-1.37h0l.21-.29.22-.28h0l.14-.22L19.67,50l.22-.37.53-.92c0,.46,0,1.13-.08,2h0c0,.19,0,.38,0,.59a.37.37,0,0,1,0,.11v.19q0,.27,0,.57c-.06.92-.14,2-.23,3.08h0c0,.2,0,.4-.05.6a2.29,2.29,0,0,1,0,.25s0,0,0,0,0,.21,0,.31l0,.31c-.11,1.14-.24,2.32-.4,3.51h0l0,.26,0,.19a2.48,2.48,0,0,0,0,.27l0,.15-.06.42h0c-.18,1.23-.39,2.45-.64,3.62a.43.43,0,0,0,0,.05c0,.11-.05.22-.07.33h0a1.38,1.38,0,0,0-.06.26,2.09,2.09,0,0,0-.05.21,30.84,30.84,0,0,1-.9,3.16.76.76,0,0,1,0,.11c0,.1-.07.21-.12.31s-.07.19-.11.29h.38l.13-.33.09-.25h0a32.83,32.83,0,0,0,1-3.39.37.37,0,0,1,0-.09c0-.2.09-.4.13-.6s.07-.32.1-.48h0c.22-1.09.41-2.21.57-3.35,0-.09,0-.17,0-.25s0-.19,0-.28h0s0,0,0,0,0-.18,0-.28.06-.44.09-.65h0c.12-1,.24-2.06.33-3,0-.13,0-.25,0-.38s0-.2,0-.3h0l0-.29.06-.74c.08-1,.14-2,.19-2.83h0c0-.24,0-.46.05-.68v-.16c0-.05,0-.1,0-.14,0-.23,0-.44,0-.65,0-.74.05-1.35.07-1.79,0-.28,0-.5,0-.64v-.15a.17.17,0,0,0-.13-.15h-.05a.18.18,0,0,0-.15.08l-.13.22-.61,1-.22.37-.59,1h0l-.25.4-.19.34,0,0h0l-.14.19-1.12,1.47-.26.35-1.4,1.83-.45.6-.16.21A.13.13,0,0,0,14.89,56.21Z"/><path class="cls-4" d="M13,60.83h0l.14.33,0,.11.65,1.66.12.3.79,2,.14.35H15l.09,0,.05,0,.13,0,0-.08-.07-.17,0-.06L14.24,63l-.12-.31-.61-1.54-.11-.27.34-.34,2-2,.27-.27,1.5-1.53h0l.24-.24.11.3h0l.54,1.47.14.38.69,1.92.09.23.13,0h0l.17,0-.05-.14v0l-.09-.24h0l-.73-2-.13-.38-.53-1.45L18,56.15v0l-.09-.26h0l-.23.23,0,0h0l-.34.34-1.42,1.44-.27.27-1.94,2-.39.39-.26.26Z"/><polygon class="cls-4" points="11.21 65.44 16.81 60.97 16.57 60.75 10.97 65.22 11.21 65.44"/><polygon class="cls-4" points="15.52 65.65 19.72 61.17 19.45 60.98 15.25 65.46 15.52 65.65"/><path class="cls-4" d="M8,76.58l.25.21h0a17.58,17.58,0,0,1,1.31-1.53c.2-.2.41-.41.62-.6a7.7,7.7,0,0,1,.6-.54c.25-.32.5-.65.73-1h0a29.2,29.2,0,0,0,1.9-3.17c.07-.13.14-.25.2-.38s.08-.15.11-.22l.1-.21h0c.52-1.06,1-2.16,1.41-3.27a.09.09,0,0,0,0-.06c0-.09.07-.18.1-.27h0l.06-.13a.29.29,0,0,1,0-.13h0c.47-1.29.9-2.6,1.26-3.89h0a1.89,1.89,0,0,0,.06-.18c0-.16.08-.31.13-.46v0s0-.08,0-.12.09-.33.13-.5h0c.3-1.13.56-2.23.79-3.27h0c0-.1,0-.21.06-.31l.06-.3a.06.06,0,0,0,0,0c0-.09,0-.18.05-.26.05-.25.1-.48.14-.72h0c.21-1.07.37-2,.51-2.93h0l.09-.67c0-.07,0-.15,0-.22,0-.23.06-.46.09-.66h0c.1-.79.17-1.43.21-1.87l.38.87.17.39.55,1.28.07.14v0l0,0h0a.19.19,0,0,0,.16.09h0a.17.17,0,0,0,.12,0l0,0h0l0,0h0v0l.08-.15.64-1.25.19-.37.46-.89.34-.66L22.05,48l-.1.21-.56,1.08-.19.38-.5,1-.21.4-.15-.34h0l-.45-1-.17-.39-.45-1L19.18,48a.19.19,0,0,0-.17-.09h0a.17.17,0,0,0-.16.14.26.26,0,0,1,0,.07v.09c0,.12,0,.29-.05.54h0c-.05.45-.12,1.11-.23,1.93h0c0,.23-.06.46-.1.7h0c0,.06,0,.12,0,.19s-.05.33-.07.5h0c-.15.94-.33,2-.55,3.17l-.12.57a1.62,1.62,0,0,1,0,.19h0v0h0c0,.11-.05.23-.08.34a2.21,2.21,0,0,0,0,.25h0q-.35,1.64-.81,3.39h0c0,.14-.09.29-.12.44l0,.13,0,.11s0,0,0,0l-.09.33s0,.1,0,.15h0c-.37,1.27-.79,2.58-1.27,3.87,0,0,0,0,0,.06s-.08.22-.13.33h0l-.1.27a1.19,1.19,0,0,1-.08.2h0c-.43,1.09-.9,2.16-1.42,3.21l0,.06-.15.29s0,0,0,0l-.15.29c0,.09-.09.17-.13.25a26.29,26.29,0,0,1-2.38,3.7c-.17.22-.35.44-.52.64l-.1.12-.06.06h0c-.15.19-.31.37-.47.54-.45.47-.91.92-1.39,1.33Z"/><path class="cls-4" d="M17.84,56.25a.16.16,0,0,0,.15-.09l2.65-4.62-.32-.14-2.43,4.25L16.74,51.5l2.41-3.22-.3-.17-2.44,3.28a.13.13,0,0,0,0,.12l1.27,4.62a.19.19,0,0,0,.15.12Z"/><polygon class="cls-4" points="19.78 60.92 22.23 56.32 21.91 56.2 19.46 60.8 19.78 60.92"/></g></g></svg>