<svg xmlns="http://www.w3.org/2000/svg" viewBox="0 0 75 67.69"><defs><style>.cls-1{fill:#a05a28;}.cls-10,.cls-2{fill:#fff;}.cls-2,.cls-9{opacity:0.2;}.cls-3{fill:#e8c18a;}.cls-4{fill:#3d3d3d;}.cls-5{fill:#666;}.cls-6{fill:#2c231d;}.cls-7{fill:#7d461f;}.cls-8{fill:#bc753d;}.cls-10{opacity:0.3;}</style></defs><title>Asset 8</title><g id="Layer_2" data-name="Layer 2"><g id="Icons"><path class="cls-1" d="M13.92,36.9c-2.28-.32-5.1-3.73-6.64-5.4H0c.6,1.08,2.62,3.43,3.22,4.78,2.27,5.07-.06,17.78,10.11,19.84,5.31,1.08,4.75-6.38,4.21-8.74C16.93,44.67,13.92,36.9,13.92,36.9Z"/><path class="cls-2" d="M6.51,36.67c-.48-1.46-2.09-4-2.57-5.17H.36C1,32.58,3,34.93,3.58,36.28c2,4.39.49,14.51,6.66,18.48C7.16,49.71,7.89,40.83,6.51,36.67Z"/><path class="cls-1" d="M7.4,31.5c0,.37-1.66.66-3.7.66S0,31.87,0,31.5s1.66-.65,3.7-.65S7.4,31.14,7.4,31.5Z"/><path class="cls-3" d="M3.7,30.85c-2,0-3.7.29-3.7.65a.19.19,0,0,0,.08.14,1.34,1.34,0,0,0,.49.21,12.73,12.73,0,0,0,3.13.31h.54a6.42,6.42,0,0,0,3.12-.55.13.13,0,0,0,0-.1C7.4,31.14,5.74,30.85,3.7,30.85Zm.37.95H3.7a12,12,0,0,1-3.06-.3,12.62,12.62,0,0,1,3.06-.29,12.68,12.68,0,0,1,3.06.29A10.81,10.81,0,0,1,4.07,31.8Z"/><path class="cls-4" d="M63.24,17.44A18.07,18.07,0,0,0,61,11a14.43,14.43,0,0,0-2.25-2.73,23.37,23.37,0,0,0-2.61-2.18,28.48,28.48,0,0,0-5.91-3.3A38.4,38.4,0,0,0,43.8.85,37.44,37.44,0,0,0,37.13,0h0a37.67,37.67,0,0,0-6.68.85A38.4,38.4,0,0,0,24,2.75a28.48,28.48,0,0,0-5.91,3.3,24.31,24.31,0,0,0-2.61,2.18A14.43,14.43,0,0,0,13.22,11,18.07,18.07,0,0,0,11,17.44a21.27,21.27,0,0,0-.24,3.38c0,.56,0,1.13.09,1.69s.13,1.12.22,1.65a48.75,48.75,0,0,0,1.45,6.39,14.12,14.12,0,0,0,.58,1.6c.06.14.13.28.21.43l.17.26a1.32,1.32,0,0,0,.34.33l0,0h0l.1.05.16.07.26.08.46.09.65.08c.43,0,.84.07,1.26.09l1.22,0h.2V32.29h-.3c-.75,0-1.52-.1-2.24-.21L15.15,32l-.32-.08-.07,0,0-.06a2.85,2.85,0,0,1-.12-.29,14.1,14.1,0,0,1-.45-1.43A47.75,47.75,0,0,1,13,23.89c-.06-.52-.11-1-.14-1.53,0-.12,0-.24,0-.36,0-.39,0-.77,0-1.16a18.75,18.75,0,0,1,.35-3,15.69,15.69,0,0,1,2.15-5.5,12.36,12.36,0,0,1,1.93-2.13,22.78,22.78,0,0,1,2.39-1.82,26,26,0,0,1,5.4-2.72,35.31,35.31,0,0,1,5.94-1.46A34.64,34.64,0,0,1,37.1,3.7h.39a35.6,35.6,0,0,1,5.68.52,35.31,35.31,0,0,1,5.94,1.46,26,26,0,0,1,5.4,2.72,22.78,22.78,0,0,1,2.39,1.82,12,12,0,0,1,1.93,2.13A15.5,15.5,0,0,1,61,17.84a17.68,17.68,0,0,1,.35,3c0,.4,0,.8,0,1.21v.1a1.48,1.48,0,0,0,0,.21c0,.49-.08,1-.14,1.53a46.12,46.12,0,0,1-1.11,6.19,14.1,14.1,0,0,1-.44,1.43l-.13.29,0,.06-.08,0-.32.08c-.24.05-.48.09-.74.12-.66.09-1.36.14-2,.18H56v1.43l1.42,0,1-.07.86-.1.46-.09.26-.08.16-.07.11-.05h0l.06,0a1.52,1.52,0,0,0,.34-.33l.16-.26c.09-.15.15-.29.22-.43a14,14,0,0,0,.57-1.6,47.19,47.19,0,0,0,1.45-6.39c.09-.53.17-1.08.22-1.65a16,16,0,0,0,.09-1.69A21.27,21.27,0,0,0,63.24,17.44ZM14.68,31.83h0Z"/><path class="cls-5" d="M11.5,18.57a17.6,17.6,0,0,1,2.2-6.36,13.74,13.74,0,0,1,2.2-2.67A23.41,23.41,0,0,1,18.46,7.4a27.82,27.82,0,0,1,5.79-3.24,37.78,37.78,0,0,1,6.3-1.86,38.09,38.09,0,0,1,6.55-.83h0a38,38,0,0,1,6.54.83A37.78,37.78,0,0,1,50,4.16,27.82,27.82,0,0,1,55.76,7.4a21.66,21.66,0,0,1,2.56,2.14,14.15,14.15,0,0,1,2.21,2.67,17.58,17.58,0,0,1,2.19,6.36A19.65,19.65,0,0,1,63,21.11c0-.1,0-.19,0-.29a20.48,20.48,0,0,0-.24-3.31,17.54,17.54,0,0,0-2.19-6.35,14.22,14.22,0,0,0-2.21-2.68,23.79,23.79,0,0,0-2.56-2.14A28.24,28.24,0,0,0,50,3.11a37.78,37.78,0,0,0-6.3-1.86A37,37,0,0,0,37.13.42h0a37.13,37.13,0,0,0-6.55.83,37.78,37.78,0,0,0-6.3,1.86,28.24,28.24,0,0,0-5.79,3.23A25.91,25.91,0,0,0,15.9,8.48a13.8,13.8,0,0,0-2.2,2.68,17.56,17.56,0,0,0-2.2,6.35,20.48,20.48,0,0,0-.24,3.31c0,.1,0,.19,0,.29A21.59,21.59,0,0,1,11.5,18.57Z"/><path class="cls-6" d="M61.33,22.05v.1a1.48,1.48,0,0,0,0,.21c0,.49-.08,1-.14,1.53a46.12,46.12,0,0,1-1.11,6.19,14.1,14.1,0,0,1-.44,1.43l-.13.29,0,.06-.08,0-.32.08c-.24.05-.48.09-.74.12-.66.09-1.36.14-2,.18H56v1.07l1-.07c.47,0,1-.08,1.4-.15l.6-.1.32-.08.08,0,0-.07.13-.29a13.36,13.36,0,0,0,.44-1.43A46,46,0,0,0,61.18,25c.06-.53.12-1,.14-1.54A12.71,12.71,0,0,0,61.33,22.05Z"/><path class="cls-6" d="M18.17,32.28h-.24c-.75,0-1.52-.1-2.24-.21L15.15,32l-.32-.08-.07,0,0-.06a2.85,2.85,0,0,1-.12-.29,14.1,14.1,0,0,1-.45-1.43A47.75,47.75,0,0,1,13,23.89c-.06-.52-.11-1-.14-1.53,0-.12,0-.24,0-.36,0,.48,0,.95,0,1.43S13,24.44,13,25a47.6,47.6,0,0,0,1.11,6.18,13.34,13.34,0,0,0,.45,1.43,2.85,2.85,0,0,0,.12.29l0,.07.07,0,.32.08.39.07c.52.08,1.07.14,1.62.18l1,.07V32.29Zm-3.49-.45Z"/><polygon class="cls-5" points="14.7 32.91 14.68 32.9 14.69 32.91 14.7 32.91 14.7 32.91"/><polygon class="cls-5" points="59.52 32.91 59.52 32.91 59.54 32.91 59.55 32.9 59.52 32.91"/><path class="cls-7" d="M58.47,34.78s.18-3-.47-3.28a18.33,18.33,0,0,0-3.74-.27l.57,3.55Z"/><path class="cls-7" d="M15.54,34.78s-.18-3,.48-3.28a18.24,18.24,0,0,1,3.73-.27l-.57,3.55Z"/><path class="cls-8" d="M65.27,48a5.72,5.72,0,0,1-.43,2c0,.15-.12.31-.18.47l-.08.18A13,13,0,0,1,64,51.88a21.27,21.27,0,0,1-1.72,2.62l-.59.75c-.34.41-.72.84-1.11,1.25a24.73,24.73,0,0,1-3.2,2.86c-.37.28-.76.55-1.16.81A21.3,21.3,0,0,1,54,61.47a20,20,0,0,1-3.72,1.42l-.47.12c-1.87.45-3.51.79-4.93,1.06H29.39C28,63.8,26.33,63.46,24.46,63a19.84,19.84,0,0,1-4.18-1.54,22.19,22.19,0,0,1-2.13-1.22c-.44-.29-.86-.58-1.27-.89a24.73,24.73,0,0,1-3.2-2.86c-.12-.12-.23-.25-.34-.37h0c-.23-.26-.46-.52-.67-.78s-.47-.57-.68-.85a20.74,20.74,0,0,1-1.73-2.63c-.21-.38-.39-.75-.56-1.11l-.13-.3c-.07-.16-.13-.32-.18-.47A6,6,0,0,1,9,48c0-3.25,1.63-6.53,3.65-9.38q.64-.91,1.32-1.74c.61-.76,1.23-1.47,1.83-2.13.35-.38.69-.75,1-1.09.12-.14.25-.27.38-.4l.77-.77h0l.23-.23.49-.47.16-.16L19,31.5H55.25l.15.15.17.16.49.47.23.23.78.78.38.4c.33.34.67.71,1,1.09a38.52,38.52,0,0,1,3.15,3.87A27.13,27.13,0,0,1,63.4,41.5,14.09,14.09,0,0,1,65.27,48Z"/><path class="cls-3" d="M64.84,50c0,.15-.12.31-.18.47l-.08.18A13,13,0,0,1,64,51.88a53.47,53.47,0,0,1-8.55,2.26c-1.95.36-4,.66-6.15.9-1.12.13-2.26.23-3.41.32-2.82.22-5.75.34-8.74.34a105.92,105.92,0,0,1-16-1.16c-1.3-.21-2.55-.43-3.76-.68q-2.71-.57-5.06-1.29c-.72-.22-1.42-.45-2.08-.7-.21-.38-.39-.75-.56-1.11l-.13-.3c-.07-.16-.13-.32-.18-.47.64.27,1.33.54,2.06.79a50.75,50.75,0,0,0,6.29,1.69c.82.17,1.67.33,2.54.47a101.62,101.62,0,0,0,16.84,1.33c2.83,0,5.61-.11,8.28-.31,1.55-.11,3.07-.26,4.54-.44,2.19-.26,4.28-.59,6.23-1A46.13,46.13,0,0,0,64.84,50Z"/><path class="cls-3" d="M62.24,54.5l-.59.75c-.34.41-.72.84-1.11,1.25a66.31,66.31,0,0,1-7.68,1.6c-1.78.28-3.64.5-5.57.68l-.27,0c-3.17.29-6.5.43-9.91.43a109.34,109.34,0,0,1-13-.75A76,76,0,0,1,15.59,57c-.66-.16-1.29-.32-1.91-.49-.12-.12-.23-.25-.34-.37h0c-.23-.26-.46-.52-.67-.78s-.47-.57-.68-.85c.65.21,1.33.42,2,.61s1.41.38,2.15.55c2,.48,4.25.88,6.59,1.2a106.14,106.14,0,0,0,14.36.94c3.28,0,6.49-.14,9.54-.4l1.4-.13q3.14-.32,6-.8A56.5,56.5,0,0,0,62.24,54.5Z"/><path class="cls-3" d="M57.34,59.36c-.37.28-.76.55-1.16.81A21.3,21.3,0,0,1,54,61.47c-1.44.24-3,.44-4.5.62l-1.26.14c-1.72.17-3.49.3-5.3.4s-3.82.14-5.78.14c-2.53,0-5-.08-7.43-.24-2.78-.18-5.45-.46-8-.84l-1.44-.22a22.19,22.19,0,0,1-2.13-1.22c-.44-.29-.86-.58-1.27-.89.55.12,1.11.24,1.69.35,2.55.49,5.31.88,8.22,1.16,3.29.31,6.76.47,10.32.47,2.71,0,5.36-.09,7.92-.28,1.17-.08,2.3-.18,3.42-.29l2.14-.25C53,60.21,55.25,59.82,57.34,59.36Z"/><path class="cls-9" d="M64.84,50c0,.15-.12.31-.18.47l-.08.18a45.45,45.45,0,0,1-8.7,2.52c-2,.39-4,.72-6.21,1-1.33.16-2.71.29-4.11.4-2.75.21-5.63.32-8.56.32a102.43,102.43,0,0,1-16.37-1.24c-1-.17-2-.35-3-.55a52.3,52.3,0,0,1-5.84-1.54c-.73-.24-1.43-.5-2.09-.77l-.13-.3c-.07-.16-.13-.32-.18-.47.64.27,1.33.54,2.06.79a50.75,50.75,0,0,0,6.29,1.69c.82.17,1.67.33,2.54.47a101.62,101.62,0,0,0,16.84,1.33c2.83,0,5.61-.11,8.28-.31,1.55-.11,3.07-.26,4.54-.44,2.19-.26,4.28-.59,6.23-1A46.13,46.13,0,0,0,64.84,50Z"/><path class="cls-9" d="M62.24,54.5l-.59.75a61.16,61.16,0,0,1-8,1.87c-1.89.31-3.88.57-6,.77L46.9,58c-3.16.29-6.49.44-9.9.44a107.68,107.68,0,0,1-13.71-.85,72.78,72.78,0,0,1-8-1.47l-.69-.17c-.68-.18-1.35-.36-2-.56-.24-.28-.47-.57-.68-.85.65.21,1.33.42,2,.61s1.41.38,2.15.55c2,.48,4.25.88,6.59,1.2a106.14,106.14,0,0,0,14.36.94c3.28,0,6.49-.14,9.54-.4l1.4-.13q3.14-.32,6-.8A56.5,56.5,0,0,0,62.24,54.5Z"/><path class="cls-9" d="M57.34,59.36c-.37.28-.76.55-1.16.81-2,.41-4.16.76-6.43,1l-.92.11c-1.47.16-3,.29-4.54.39-2.37.16-4.81.24-7.29.24-3.15,0-6.23-.13-9.17-.38s-5.56-.57-8.09-1l-1.59-.29c-.44-.29-.86-.58-1.27-.89.55.12,1.11.24,1.69.35,2.55.49,5.31.88,8.22,1.16,3.29.31,6.76.47,10.32.47,2.71,0,5.36-.09,7.92-.28,1.17-.08,2.3-.18,3.42-.29l2.14-.25C53,60.21,55.25,59.82,57.34,59.36Z"/><path class="cls-2" d="M27.67,61.47A16.59,16.59,0,0,1,26,60.25c-.35-.29-.68-.58-1-.89a22.54,22.54,0,0,1-2.52-2.86c-.28-.38-.55-.76-.81-1.15l-.53-.85a22.08,22.08,0,0,1-1.36-2.63c-.17-.38-.32-.75-.44-1.11,0-.1-.08-.2-.11-.3s-.1-.32-.14-.47a7.07,7.07,0,0,1-.34-2,19.91,19.91,0,0,1,2.88-9.38,49.52,49.52,0,0,1,5-7.15H20.07a50.53,50.53,0,0,0-5.93,7.15c-1.88,2.85-3.4,6.13-3.4,9.38a6.42,6.42,0,0,0,.4,2c0,.15.11.31.17.47l.12.3c.15.36.33.73.52,1.11a21.44,21.44,0,0,0,1.61,2.63c.2.28.41.57.63.85s.62.77,1,1.15a23.1,23.1,0,0,0,3,2.86c.38.31.77.6,1.18.89a19.81,19.81,0,0,0,2,1.22A17.9,17.9,0,0,0,25.18,63c1.74.45,3.27.79,4.59,1.06h5.1C33.74,63.8,32.45,63.46,31,63A13.86,13.86,0,0,1,27.67,61.47Z"/><path class="cls-2" d="M44.58,61.47a13.14,13.14,0,0,0,1.26-1.22c.26-.29.51-.58.76-.89a22.18,22.18,0,0,0,1.9-2.86c.21-.38.42-.76.61-1.15s.27-.57.4-.85a26.81,26.81,0,0,0,1-2.63q.18-.57.33-1.11c0-.1.05-.2.08-.3s.08-.32.11-.47a9.35,9.35,0,0,0,.25-2,24.77,24.77,0,0,0-2.17-9.38,52.31,52.31,0,0,0-3.79-7.15h5a50.45,50.45,0,0,1,4.47,7.15A21.64,21.64,0,0,1,57.34,48a8.07,8.07,0,0,1-.3,2c0,.15-.08.31-.13.47l-.09.3q-.16.54-.39,1.11a25.12,25.12,0,0,1-1.21,2.63c-.15.28-.31.57-.48.85s-.46.77-.72,1.15a21.85,21.85,0,0,1-2.24,2.86c-.29.31-.58.6-.89.89a15.68,15.68,0,0,1-1.5,1.22A11.57,11.57,0,0,1,46.46,63c-1.32.45-2.47.79-3.46,1.06H39.16C40,63.8,41,63.46,42.09,63A9.6,9.6,0,0,0,44.58,61.47Z"/><path class="cls-7" d="M56.29,32.52c0,1.58-8.59,2.87-19.18,2.87S17.93,34.1,17.93,32.52s8.59-2.88,19.18-2.88S56.29,30.93,56.29,32.52Z"/><rect class="cls-7" x="17.93" y="31.02" width="38.36" height="1.49"/><path class="cls-1" d="M56.29,31c0,1.59-8.59,2.88-19.18,2.88S17.93,32.61,17.93,31s8.59-2.87,19.18-2.87S56.29,29.44,56.29,31Z"/><path class="cls-1" d="M37.11,32.82c-9.91,0-17.63-.66-17.63-1.8s7.72-1.8,17.63-1.8,17.64.94,17.64,1.8C54.75,32.08,47,32.82,37.11,32.82Z"/><path class="cls-7" d="M48.92,29.55h0c-2.67-.25-6-.42-9.3-.47a.86.86,0,0,0-.16,0h-.17l-2.17,0-3,0h-.34c-2.46,0-5.53.14-8.22.36h0c-3.45.28-6.24.76-6.24,1.59a.39.39,0,0,0,.06.21.47.47,0,0,0,.13.15l.16.12s0,0,.05,0a1.24,1.24,0,0,0,.23.12,16.13,16.13,0,0,0,4.42.86c.44.05.91.09,1.38.12,4.13.33,9.13.37,11.38.37,2.61,0,5.94-.06,9-.24,1.17-.06,2.3-.15,3.34-.25l1.46-.16a13.85,13.85,0,0,0,3.41-.74l.2-.11a.91.91,0,0,0,.19-.13.62.62,0,0,0,.14-.14.39.39,0,0,0,.06-.21C54.92,30.39,52.47,29.89,48.92,29.55Zm5.47,1.68,0,0-.07,0a3.82,3.82,0,0,1-.61.21,21.18,21.18,0,0,1-3,.52c-1.28.16-2.88.3-4.78.4-.58,0-1.2.06-1.84.09q-3.06.14-7,.14c-2.82,0-5.24,0-7.32-.14-1.43,0-2.69-.13-3.79-.21a28.78,28.78,0,0,1-5.53-.8,2.55,2.55,0,0,1-.61-.24c-.14-.09-.2-.16-.2-.24s.38-.38,1.24-.59c1.83-.45,5.81-.89,12.7-1h.29l3.22,0,2.38,0h.3a81,81,0,0,1,13.45,1.09c.81.17,1.27.35,1.33.5S54.51,31.16,54.39,31.23Z"/><path class="cls-8" d="M37.11,32.29c-10.57,0-15.73-.73-16.91-1.27,0-1,6.34-2.2,16.91-2.2,9.14,0,16.76,1.19,16.76,2.24C52.33,31.63,46.76,32.29,37.11,32.29Z"/><path class="cls-8" d="M37.86,24.61H35.53c0,.87-1.46,4.86-2.59,5.94a11.47,11.47,0,0,0,3.75.68,10.23,10.23,0,0,0,3.76-.68C39.32,29.47,37.86,25.48,37.86,24.61Z"/><path class="cls-1" d="M35.53,24.61a5,5,0,0,1-.26,1.63,12.51,12.51,0,0,1-.54,1.56A13.62,13.62,0,0,1,34,29.28a4.6,4.6,0,0,1-1.05,1.27,8.14,8.14,0,0,0,.8-1.41c.23-.48.45-1,.66-1.48s.41-1,.61-1.51c.1-.25.2-.5.29-.76A5,5,0,0,0,35.53,24.61Z"/><path class="cls-1" d="M40.45,30.55a4.6,4.6,0,0,1-1.05-1.27,13.62,13.62,0,0,1-.74-1.48,14.43,14.43,0,0,1-.55-1.56,5.28,5.28,0,0,1-.25-1.63,5,5,0,0,0,.23.78c.09.26.19.51.29.76.2.51.4,1,.61,1.51s.43,1,.66,1.48A8.14,8.14,0,0,0,40.45,30.55Z"/><path class="cls-1" d="M40.18,24.7a3.49,3.49,0,1,1-3.49-3.49A3.49,3.49,0,0,1,40.18,24.7Z"/><path class="cls-10" d="M36.69,23.27a1.34,1.34,0,1,1-1.34-1.34A1.34,1.34,0,0,1,36.69,23.27Z"/><path class="cls-9" d="M65.27,48a5.72,5.72,0,0,1-.43,2c0,.15-.12.31-.18.47l-.08.18A13,13,0,0,1,64,51.88a21.27,21.27,0,0,1-1.72,2.62l-.59.75c-.34.41-.72.84-1.11,1.25a24.73,24.73,0,0,1-3.2,2.86c-.37.28-.76.55-1.16.81A21.3,21.3,0,0,1,54,61.47a20,20,0,0,1-3.72,1.42,8.46,8.46,0,0,1-.78-.8l-.35-.42-.27-.36c-.13-.17-.26-.36-.38-.54s-.38-.59-.56-.9-.41-.72-.6-1.09l-.1-.21,0-.09c-.07-.14-.14-.29-.2-.44a.59.59,0,0,1,0-.08c-.09-.18-.17-.37-.25-.56q-.28-.65-.54-1.32c-.09-.24-.18-.48-.26-.72l-.24-.68s0-.1,0-.14l-.09-.3a2.29,2.29,0,0,1-.08-.28c-.18-.54-.34-1.1-.48-1.65s-.25-1-.36-1.45c0-.15-.07-.3-.1-.45-.26-1.2-.45-2.34-.58-3.37a22.6,22.6,0,0,1-.2-2.72c0-1,2.66-1.85,6.66-2.38,1.69-.23,3.61-.39,5.68-.47,1.07,0,2.19-.07,3.33-.07,1.4,0,2.76,0,4.06.1A14.09,14.09,0,0,1,65.27,48Z"/><path class="cls-1" d="M67.36,66c0,.92-3,1.67-6.68,1.67S54,66.94,54,66s3-1.67,6.68-1.67S67.36,65.1,67.36,66Z"/><path class="cls-1" d="M67.36,64.55c0,.27-.24.51-.67.74a9.43,9.43,0,0,1-2.78.73,24.95,24.95,0,0,1-6.46,0,9.43,9.43,0,0,1-2.78-.73c-.43-.23-.67-.47-.67-.74,0-.92,3-1.67,6.68-1.67S67.36,63.63,67.36,64.55Z"/><rect class="cls-1" x="54" y="64.55" width="13.36" height="1.46"/><path class="cls-9" d="M67.36,64.55v.58c-.17.09-.34.16-.52.24h0a14.46,14.46,0,0,1-2.11.65,17.6,17.6,0,0,1-8.08,0,14.85,14.85,0,0,1-2.11-.65h0c-.19-.08-.36-.15-.53-.24v-.58c0-.92,3-1.67,6.68-1.67S67.36,63.63,67.36,64.55Z"/><path class="cls-8" d="M75,46.33a28.66,28.66,0,0,1-.71,5.57l-.09.4c-.1.44-.21.88-.33,1.33s-.33,1.18-.51,1.76c0,.14-.09.27-.13.4-.14.43-.3.86-.45,1.29-.24.61-.49,1.21-.76,1.79-.06.14-.13.27-.19.4-.21.44-.44.87-.68,1.27a10.72,10.72,0,0,1-2.83,3.33c-1.85,1.31-5.37,1.91-7.64,1.91s-5.79-.6-7.64-1.91a10.72,10.72,0,0,1-2.83-3.33c-.24-.4-.46-.83-.68-1.27-.06-.13-.13-.26-.19-.4-.27-.58-.52-1.18-.75-1.79-.17-.43-.32-.86-.46-1.29-.05-.14-.09-.27-.13-.4-.19-.58-.36-1.17-.51-1.76s-.23-.89-.33-1.33l-.09-.41a28.58,28.58,0,0,1-.71-5.56H75Z"/><path class="cls-3" d="M60.68,53.69c-7.53,0-12.32-1-13.61-1.8l.09.41c.1.44.21.88.33,1.33,4.14,1.51,12.72,1.53,13.19,1.53s9.05,0,13.19-1.53c.12-.45.23-.89.33-1.33l.09-.4C73,52.65,68.2,53.69,60.68,53.69Zm0,3.1c-6.28,0-10.65-.72-12.68-1.4,0,.13.08.26.13.4.14.43.29.86.46,1.29,4.39,1.16,11.65,1.18,12.09,1.18s7.71,0,12.1-1.18c.15-.43.31-.86.45-1.29,0-.13.09-.26.13-.4C71.33,56.07,67,56.79,60.68,56.79Zm0,3.11a52.43,52.43,0,0,1-11.34-1c.06.14.13.27.19.4.22.44.44.87.68,1.27a67.91,67.91,0,0,0,10.47.82,67.91,67.91,0,0,0,10.47-.82c.24-.4.47-.83.68-1.27.06-.13.13-.26.19-.4A52.43,52.43,0,0,1,60.68,59.9Z"/><path class="cls-9" d="M72,58.87c-.06.14-.13.27-.19.4a53.36,53.36,0,0,1-11.15,1,53.36,53.36,0,0,1-11.15-1c-.06-.13-.13-.26-.19-.4a52.43,52.43,0,0,0,11.34,1A52.43,52.43,0,0,0,72,58.87Z"/><path class="cls-9" d="M74.29,51.9l-.09.4c-1.42.76-6.16,1.75-13.52,1.75s-12.1-1-13.52-1.75l-.09-.41c1.29.76,6.08,1.8,13.61,1.8S73,52.65,74.29,51.9Z"/><path class="cls-9" d="M73.36,55.39c0,.14-.09.27-.13.4-2.09.67-6.4,1.36-12.55,1.36s-10.47-.69-12.55-1.36c-.05-.14-.09-.27-.13-.4,2,.68,6.4,1.4,12.68,1.4S71.33,56.07,73.36,55.39Z"/><path class="cls-2" d="M58.44,63.87c-3.15-3.16-4.74-13.31-4.74-17.54h-6c0,4.23,2.06,14.38,6.14,17.54,1.7,1.31,4.94,1.91,7,1.91a15.24,15.24,0,0,0,1.7-.11A7.72,7.72,0,0,1,58.44,63.87Z"/><path class="cls-1" d="M75,46.33C75,47.8,68.48,49,60.68,49s-14.32-1.2-14.32-2.67,6.52-2.68,14.32-2.68S75,44.85,75,46.33Z"/><path class="cls-3" d="M60.68,44.73c7.11,0,11.51.93,12.9,1.6-1.39.66-5.79,1.6-12.9,1.6s-11.51-.94-12.9-1.6c1.39-.67,5.8-1.6,12.9-1.6Zm0-1.08c-7.8,0-14.32,1.2-14.32,2.68S52.88,49,60.68,49,75,47.8,75,46.33s-6.52-2.68-14.32-2.68Z"/></g></g></svg>