<svg xmlns="http://www.w3.org/2000/svg" viewBox="0 0 32.7 32.7"><defs><style>.cls-1{fill:#fff;}</style></defs><title>Asset 7</title><g id="Layer_2" data-name="Layer 2"><g id="Layer_1-2" data-name="Layer 1"><path class="cls-1" d="M11.36,11.71c0,1.56-.27,3.06-.29,4.63-.06,3.12.24,6.37.27,9.5,0,.49,0,1.15-.29,1.15a3.56,3.56,0,0,1-1.77-2.65s.21-4.91.29-8c0-1.56.07-3.12.09-4.69s0-3.12,0-4.69c0-.49.06-1.38.47-1.18a5.5,5.5,0,0,1,1.56,2.09C11.91,8.73,11.41,10.15,11.36,11.71Z"/><path class="cls-1" d="M5.24,14.06c.67-.22,1.31-.42,2-.65l1.94-.64q1-.33,2-.6a7.68,7.68,0,0,1,1.93-.42c.75,0,.91.53.73.88-.53,1-1.12.39-2.39.66a14,14,0,0,0-1.89.54,18.11,18.11,0,0,0-1.83.76A3,3,0,0,1,5.59,15c-.46-.06-1.93-.34-.55-.8C5.11,14.13,5.17,14.08,5.24,14.06Z"/><path class="cls-1" d="M11.14,14.11q-1.12,2-2.33,4l-1.19,2c-.2.32-.4.65-.57,1l-.12.23,0,.09s0,.06,0,0v-.2a.38.38,0,0,0,0-.1.88.88,0,0,0-.23-.44.81.81,0,0,0-.4-.23.76.76,0,0,0-.26,0,.84.84,0,0,0-.33.08h0l0,0h0l0,0,.21-.13c1.22-.88,2.47-1.85,3.72-2.77s2.52-1.84,3.81-2.72a.19.19,0,0,1,.24.28q-1.58,1.74-3.25,3.38C9.3,19.6,8.19,20.66,7,21.71l-.26.21L6.62,22l0,0-.1.06,0,0a.84.84,0,0,1-.37.09.6.6,0,0,1-.27,0,.89.89,0,0,1-.41-.24.62.62,0,0,1-.17-.24,1,1,0,0,1-.08-.23.45.45,0,0,1,0-.11v-.11a.44.44,0,0,1,0-.13V21a1.77,1.77,0,0,1,.08-.28l.07-.18.14-.3c.18-.38.35-.73.54-1.08.37-.7.76-1.39,1.15-2.06.79-1.35,1.62-2.67,2.51-4a.89.89,0,0,1,1.52.94Z"/><path class="cls-1" d="M15.89,9.82a4.83,4.83,0,0,1,.74.87l.29.41c0,.06.08.12.08.11h0l0,0s0-.05-.09-.07a.56.56,0,0,0-.23-.08.72.72,0,0,0-.42.06l-.15.1-.09.1a.49.49,0,0,0-.07.11l0,0a4.46,4.46,0,0,1,1.55-1.9,1.82,1.82,0,0,1,.69-.31,1,1,0,0,1,.43,0A1.18,1.18,0,0,1,19,9.3a1.58,1.58,0,0,0,.87.27,2.3,2.3,0,0,0,.89-.22,7.34,7.34,0,0,0,.94-.63,4,4,0,0,1,1.12-.48,4.58,4.58,0,0,1,1.74-.08,2.08,2.08,0,0,1,.95.56.92.92,0,0,1,.21.73c-.08.38-1.33.82-1.5.92l-.46.3a9.77,9.77,0,0,0-3.08,2.74,10,10,0,0,0-1,1.86c-.3.68-.58,1.38-.86,2.07s-.57,1.37-.78,2a1.63,1.63,0,0,0-.12.59s0,0,0,0a.45.45,0,0,0,.06.33.78.78,0,0,0,.35.32l.51.21c.34.14.69.28,1,.44a15.16,15.16,0,0,1,2,1.07,10.5,10.5,0,0,1,2,1.42,2.64,2.64,0,0,1,.92,3c-.26.45-.8.07-1-.29l-.06-.13a5.88,5.88,0,0,0-2.47-3.14,10.39,10.39,0,0,0-1.87-1l-1-.38-.53-.19a4.82,4.82,0,0,0-.66-.13,1.71,1.71,0,0,1-.8-.36,1.51,1.51,0,0,1-.48-1,3,3,0,0,1,.29-1.56,13.51,13.51,0,0,1,1.17-2c.4-.62.79-1.24,1.12-1.88a16.19,16.19,0,0,1,1.16-2,10.4,10.4,0,0,1,3.4-3.17l.48-.28c.15-.09.31-.18.37-.23s0,0,0,.15a.29.29,0,0,0,.05.22s-.05-.08-.15-.13a2.39,2.39,0,0,0-1.85-.1,3.21,3.21,0,0,0-.9.6,1.75,1.75,0,0,1-1.15.56,3,3,0,0,1-1.2-.41.24.24,0,0,0-.15,0,.19.19,0,0,0-.11,0,.89.89,0,0,0-.25.26A18.48,18.48,0,0,0,17.3,12v0a1.06,1.06,0,0,1-.1.17,1.33,1.33,0,0,1-.12.12.66.66,0,0,1-.17.12.8.8,0,0,1-.49.07.69.69,0,0,1-.29-.11.46.46,0,0,1-.14-.1l-.08-.08-.05-.07a1.69,1.69,0,0,1-.2-.36,2.86,2.86,0,0,1-.17-.6,3.22,3.22,0,0,1,0-1.2.26.26,0,0,1,.29-.21.34.34,0,0,1,.12.06Z"/><path class="cls-1" d="M23.17,15.89a11.34,11.34,0,0,1-.18,1.6A13.34,13.34,0,0,1,22.61,19a10.29,10.29,0,0,1-1.36,2.81A8.52,8.52,0,0,1,19,24a7.42,7.42,0,0,1-2.56,1.21,4.37,4.37,0,0,1-2-.54c-.75-.38.43-.43,1.4-.6h0a7.33,7.33,0,0,0,2.31-1.23,6.86,6.86,0,0,0,1.65-2,8.51,8.51,0,0,0,.91-2.42,10.83,10.83,0,0,0,.19-1.29A7.51,7.51,0,0,0,21,16v0c.07-1.14,0-2.13,1-1.62s1.14.85,1.18,1.47A.37.37,0,0,1,23.17,15.89Z"/><path class="cls-1" d="M13.22,18.16c1.23-.27,2.38-.49,3.57-.68s2.36-.33,3.56-.41a21.19,21.19,0,0,1,7.26.66h0a.83.83,0,0,1,.58,1,.82.82,0,0,1-1,.58l-.2-.08a9.86,9.86,0,0,0-3.15-1.16,15.13,15.13,0,0,0-3.43-.25,18.14,18.14,0,0,0-3.44.47,24.31,24.31,0,0,0-2.62.85,3.47,3.47,0,0,1-2.05-.31c-.59-.2.42-.46.77-.64A.58.58,0,0,1,13.22,18.16Z"/><path class="cls-1" d="M28.92,32.7H3.78A3.78,3.78,0,0,1,0,28.92V3.78A3.78,3.78,0,0,1,3.78,0H28.92A3.79,3.79,0,0,1,32.7,3.78V28.92A3.79,3.79,0,0,1,28.92,32.7ZM3.78,1A2.79,2.79,0,0,0,1,3.78V28.92a2.79,2.79,0,0,0,2.79,2.79H28.92a2.79,2.79,0,0,0,2.79-2.79V3.78A2.79,2.79,0,0,0,28.92,1Z"/></g></g></svg>