<svg xmlns="http://www.w3.org/2000/svg" viewBox="0 0 119.8 16.93"><defs><style>.cls-1{fill:#fff;}</style></defs><title>Asset 2</title><g id="Layer_2" data-name="Layer 2"><g id="Layer_1-2" data-name="Layer 1"><path class="cls-1" d="M.2,14l-.09,0L0,14v-.11l.06,0,.12,0L.2,14ZM10,15.89,9.94,16l-.16.06L9.71,16l-.12-.16-.14-.29-.21-.29-.31-.53-.22-.52-.09-.37-.15-.2-.26-.75L8,12.57l-.17-.39-.24-.39-.19-.17-.46-.49-.09-.29-.36-.25L6,10.5l-.49.07-.49.08-.36.15-.39.35-.37.19-.09.17-.28.21L3,12.07l-.11.13-.09.47V13l-.15.17v.37l-.06.39.06.64L2.54,15l-.13.46-.2.35L2,16.08l-.39.35-.37.06-.35.05-.11-.09H.56l-.15-.18-.1-.08V16L.2,15.82v-.44l.11-.27,0-.25.06-.15.13-.06v-.2l.2-.1.08-.2.13-.26.18-.08.17-.4L1.3,13l.11-.06,0-.29.09-.43v-.28l-.19-.41-.13-.37,0-.41,0-.29.06-.08,0-.15v-.09l.32-.39V9.61l.18-.21L1.82,9l.28-.41.07-.29,0-.23,0-.17.1-.54.09-.51.18-.66,0-.37.09-.17,0-.56,0-.5,0-.47.17-.39L3,3.45l.19-.15L3.23,3l.13-.19.07-.18-.07-.12.05-.29-.16-.34,0-.35-.13-.16.07-.27h.13L3.6.93l.12,0,.1-.17.34,0,.28.12.25.38.1.06L5,1.59l.2.39.09.37.19.42.24.33,0,.18.17.19L6,3.69l.2.28,0,.26.19.39,0,.17L6.48,5l.11.37.17.31.06.52.1.37.13.52v.19l.1.28.15.5.14.46,0,.37.1.26.29.19.34.11.41,0H9l.39.08.07.12.08.1-.08.07-.07.1-.16.18L9,10.1l-.08.11-.33.06-.37.17-.15.14v.25l.07.31.13.31.17.29.15.44.11.26.13.41.15.37.22.46.15.38.09.59.1.06.14.31.15.3v.18l.1.1Zm-9.45.95,0,.09-.15,0-.06-.16.1,0H.58Zm1-8.14,0,.1-.09.07L1.3,8.78V8.67l.11-.11.11,0,0,.06ZM6.08,9,6,8.8l-.21-.39,0-.37-.11-.17-.07-.22-.13-.21,0-.56-.27-.37.08-.16-.1-.26L5,5.33,4.84,5l0-.27L4.58,4.4l-.09-.17-.21-.45-.44.43.05.28-.16.24V5l0,.14-.08.43,0,.38v.12l-.11.15v.31l0,.6v.28l-.12.26.08.26-.12.33.18.25.5.23.52.19.43.24.24.17.43.08.28-.06.09-.06Zm-1,.05-.13,0L4.81,9l0-.08h.11l.06,0,0,.06Zm4.81.57,0,.08-.09,0H9.69V9.71l0-.08,0,0Zm.19,7s0,0-.11.05l-.06,0,0-.06.06-.06.11,0Z"/><path class="cls-1" d="M16.62,4.4l-.2.26h-.28l-.32-.11-.31-.15-.32-.23L15.13,4l-.39-.09-.23-.08-.43.06h-.37l-.38,0-.53.19-.38.22-.61.57-.13.3-.2.44,0,.49.17.42.17.25.55.39.32.27.37.23.28.26.34.26.7.41.35.31.25.28.25.17.06.24.35.56.15.35.08.39.16.41.13.39,0,.56-.09.43-.24.51-.13.4-.26.29-.13.26-.3.32-.28.22-.46.17-.61.11-.42.09L12.82,15l-.34,0-.3-.07-.24-.12h-.15l-.09-.11,0-.24.09-.13H12v.13l0,.08.15.1.3.12.69.05.22-.07.34,0,.46-.12.41-.18.51-.35.08-.25.21-.35.13-.38.16-.27,0-.33.11-.47-.09-.31-.08-.41L15.42,11l-.1-.39-.19-.37L15,9.84l-.25-.15-.2-.22-.3-.21L14,9l-.47-.21-.29-.29-.31-.06-.31-.26-.39-.28L12,7.71l-.4-.1-.37-.33L10.9,6.9l-.19-.39-.21-.42V5.27l.18-.46.22-.43L11.14,4l.27-.3.27-.24L12,3.21,12.4,3l.34-.12.49,0,.48-.05.48-.11.41-.21L15,2.37l.2-.16.42.06.23.23.14.39.17.21.21.22.14.34,0,.33Zm.08.48,0,.24-.28.06-.19,0L16,5l.21-.17.3,0Z"/><path class="cls-1" d="M24.83,13.66l-.19.15-.2.1h-.65L23.2,14l-.52.15-.37.13-.32.13-.26.2-.11.25,0,.25,0,.35,0,.12-.11.09h-.1l-.1-.09-.11-.2-.21,0-.28.1-.15.14-.2.17-.31.14L19.7,16h-.31l-.28-.11-.3-.2-.1-.25-.23-.18-.17-.22,0-.45.14-.39.27-.31.29-.23.41-.37.5-.2h.45l.25,0,.21-.18.13,0,.09-.18-.09-.47,0-.3-.08-.39,0-.52,0-.33.06-.35-.06-.41,0-.39v-.3l-.09-.67V6.61l-.12-.19.21-.28-.11-.81V4.23l-.08-.35.1-.39-.28,0-.32.07h-.26L19,3.73h-.24l-.22.11-.43.06h-.35l-.34-.12-.18-.14-.1-.23.06-.31.15-.19.31-.11.37.09.32.12h.26l.43.07h.58l.6,0h.45V2.85l.09-.23,0-.15,0-.18L20.61,2V1.61l.13-.2-.09-.36.23-.23.35-.08.31,0,.3,0,.07.35,0,.29.07.25,0,.31,0,.29-.18.29,0,.21.1.16.21,0h.41l.39.08h.57l.32,0h.32l.1.06v.11L24,3.28l-.49,0-.37,0h-.44l-.45.06-.32.07-.26.17v.34l0,.46-.08.45,0,.38-.08.27.12.35-.1.5V6.7l0,.61-.12.3.06.22V8.3l-.06.42.06.45,0,.58V11.2l-.06.46,0,.5.06.51.37.1.33,0,.37.09.41.18.32,0,.55.11.39.19.24,0,.28,0,.13.09Zm.45-.85-.14.11L25,12.7l.14-.15.16.1Z"/><path class="cls-1" d="M25.86,14l-.1,0-.1,0v-.11l.06,0,.11,0,0,.06Zm9.82,1.87L35.6,16l-.17.06L35.37,16l-.12-.16-.15-.29-.21-.29-.31-.53-.22-.52-.08-.37-.15-.2-.26-.75-.22-.27-.16-.39-.25-.39-.19-.17-.45-.49-.1-.29-.36-.25-.45-.09-.49.07-.5.08-.36.15-.39.35-.37.19-.08.17-.29.21-.6.35-.12.13-.08.47V13l-.15.17v.37l-.07.39.07.64-.07.43-.12.46-.2.35-.24.29-.39.35-.37.06-.35.05-.1-.09h-.2l-.15-.18L26,16.19V16l-.1-.15v-.44l.1-.27,0-.25.06-.15.13-.06v-.2l.2-.1.09-.2.12-.26.18-.08.17-.4L27,13l.1-.06,0-.29.08-.43v-.28l-.19-.41-.12-.37-.05-.41,0-.29.07-.08-.05-.15v-.09l.32-.39V9.61l.18-.21L27.47,9l.29-.41.06-.29,0-.23,0-.17.11-.54L28,6.88l.18-.66,0-.37.08-.17,0-.56,0-.5,0-.47.17-.39.16-.31.19-.15L28.88,3,29,2.82l.06-.18L29,2.52l0-.29-.16-.34L29,1.54l-.13-.16.06-.27H29l.23-.18.13,0,.09-.17.34,0,.29.12.24.38.11.06.17.33.2.39.08.37.19.42.25.33,0,.18.17.19.1.22.2.28,0,.26.19.39,0,.17.12.21.11.37.16.31.07.52.09.37.13.52v.19l.11.28.14.5.14.46,0,.37.11.26.29.19.33.11.42,0h.39l.39.08.06.12.09.1-.09.07-.06.1-.17.18-.22,0-.09.11-.32.06-.37.17-.15.14v.25l.06.31.14.31.17.29.15.44.1.26.14.41.15.37.22.46.15.38.08.59.11.06.14.31.14.3v.18l.11.1Zm-9.44.95,0,.09-.15,0L26,16.75l.11,0h.13Zm1-8.14,0,.1-.1.07L27,8.78V8.67l.1-.11.12,0,0,.06ZM31.73,9l-.09-.23-.22-.39,0-.37-.1-.17-.08-.22-.12-.21,0-.56-.28-.37.09-.16-.11-.26-.14-.76L30.49,5l0-.27-.24-.31-.08-.17-.22-.45-.43.43,0,.28-.16.24V5l0,.14-.09.43,0,.38v.12l-.1.15v.31l-.05.6v.28L29,7.65l.07.26-.12.33.18.25.5.23.52.19.44.24.24.17.42.08.29-.06.08-.06Zm-1,.05-.13,0L30.47,9l0-.08h.11l.06,0,0,.06Zm4.81.57,0,.08-.08,0h-.06V9.71l0-.08,0,0Zm.19,7s0,0-.1.05l-.06,0,0-.06.07-.06.1,0Z"/><path class="cls-1" d="M46.37,1.3l0,.31V2l-.13.23,0,.18-.08.3-.24.3-.19.29-.1.62v.39l-.11.54,0,.29-.11.47,0,.44-.2.39-.09.5,0,.49-.65,1.37-.22.17-.06.33-.19.3-.1.5-.1.3v.41l-.26.68-.18.31-.06.51,0,.4-.11.39,0,.33-.06.35,0,.19-.18.22-.19.44H42.6l-.22,0-.08-.31L41.88,14l-.14-.38-.1-.33-.23-.39v-.27l-.22-.25.2-.39-.23-.39L41.1,11l-.32-.69-.11-.61-.11-.47-.15-.77-.08-.25-.12-.37L40,7.42l-.3-.91L39.39,6l-.24.43-.08.17V7.81L39,8.39l.07.54-.12.63-.1.67-.17.33-.09.54-.09.64,0,1.24-.14.31.08.27-.23.31-.39.17-.5,0-.39-.23-.11-.39L36.59,13l-.1-.43v-.35l.28-.44.19-.19.17-.22.2-.45,0-.59.21-.49.07-.46L37.83,9l-.08-1-.11-.33-.07-.58.11-.59.15-.39L38,5.6l.33-.31L38.43,4l.31-.39.09-.44.3-.38.11-.11.15-.11,0-.26.13-.09h.19l.13.16.07.32.12.52.11.61.16,1.43.08.64.15.39.06.42,0,.39.16.58.07.66.27.43.16.65,0,.61.15.52.15.6.11.39.08.21h.18l.14-.21.25-.22.09-.45.16-.11,0-.21.14-.52-.06-.35.06-.43.19-.2.2-.32.17-.39L43.58,8l.21-.25v-.4l.2-.39.1-.27.15-.47.09-.39,0-.63-.15-.47L44,4.19l-.18-.37V3.38l0-.56L44,2.58V2.27l.17-.21.1-.68L44.4,1l.17.09.37-.14.21-.25.39-.16.27-.09L46,.61l.14.32.13,0ZM37.64,15.17l-.2.08-.17-.08.06-.22.24.05ZM42.49,3.1l-.26.16V3l.23,0Z"/><path class="cls-1" d="M62.56,11.27l0,.41-.1.26-.19.35-.11.34-.35.33-.16.48-.23.39-.24,0-.09-.08.18-.21,0-.14.09-.11.21-.18.33-.58.15-.39.24-.65,0-.85-.06-.49L62.05,10l0-.24-.15-.22v-.2L61.53,9l-.21-.36-.18-.13,0-.17-.32-.29-.51-.29-.93-.08-.77.1-.57.1L57.37,8l-1.3.43-.19.22-.31,0-.1.33,0,.35,0,.48,0,.58-.05.44.05.45h.25l.16-.28.15-.17.24.07.13.08,0,.26-.09.35-.2.32-.06.57.37.3.27.26.25.28.16.39.29.07.33.14.37.23.25,0,.35.13.46.1.47,0h.87l.33-.19v.17l-.1.14-.23.19L60.3,15l-.14,0L60,15h-.75l-.56-.07-.12-.14-.39-.05-.33-.26-.29-.08-.21-.15-.19.06-.37-.13-.54.11-.66.35-.82.27-.15.09-.6.3-.39.11-.31-.25-.39-.44-.11-.56.17-.47,0-.1.14-.1.1-.11.26-.39-.09-.37.09-.33L53.34,12l.11-.5.2-.22.35-.39v-.39l.06-.26L54,9.49l.08-.21,0-.5,0-.22,0-.75L54,6.92l-.12-.33-.06-.5-.15-.39-.11-.91-.09-.24,0-.34L53.58,4V2.56l.07-.67.15-.28.34-.31.42-.08.21-.13L55.36,1h.58L56.7,1l.57-.11.54-.09L58.09.7l.21.06.39,0h.89l.83.09.5,0,.43.29.29.56.14.49.11.52V3.3l-.11.58,0,.58-.45.75-.33.3L60.64,6l-.27.1-.27.28-.35.26-.21.11,0,.16.29.08.4,0,.37.11.31.31.3.16.22.44.41.54.24.47.23.31.09.33.12.52,0,.35,0,.34Zm-1-7.78-.06-.58,0-.2,0-.19L61.16,2l-.4-.35h-.18l-.13-.19H59.28l-.5.13-.71.17L57.35,2l-.7.27L56,2.69l-.26.13-.3.28-.15.39-.11.72,0,.41.11.69,0,.6.09.31v.5l.07.43.25.11.39,0,.46,0L57.48,7l.7-.06.39,0,.62-.29.31-.21.29-.18.29-.31.17-.06.2-.34.33-.24L61,5l.31-.19,0-.47.12-.27,0-.19Zm-6-3.33,0,.13-.26,0,.07-.15L55.49,0Z"/><path class="cls-1" d="M64.05,14l-.1,0-.1,0v-.11l.06,0,.12,0,0,.06Zm9.83,1.87-.09.11-.17.06L73.56,16l-.12-.16-.15-.29-.21-.29-.3-.53-.23-.52-.08-.37-.15-.2-.26-.75-.21-.27-.17-.39-.25-.39-.19-.17-.45-.49-.1-.29-.36-.25-.45-.09-.49.07-.5.08-.36.15-.39.35-.37.19-.08.17-.29.21-.6.35-.12.13-.08.47V13l-.15.17v.37l-.06.39.06.64-.06.43-.13.46-.2.35-.24.29-.39.35-.37.06-.35.05-.1-.09h-.2l-.15-.18-.11-.08V16l-.1-.15v-.44l.1-.27,0-.25.07-.15.12-.06v-.2l.2-.1.09-.2.13-.26.17-.08.17-.4.07-.43.1-.06,0-.29.09-.43v-.28l-.19-.41L65,11.14l0-.41,0-.29.07-.08,0-.15v-.09l.31-.39V9.61l.18-.21L65.67,9,66,8.62,66,8.33l0-.23,0-.17.11-.54.08-.51.19-.66,0-.37.08-.17,0-.56,0-.5,0-.47.17-.39.16-.31L67,3.3,67.07,3l.14-.19.06-.18-.06-.12,0-.29-.16-.34,0-.35L67,1.38l.06-.27h.14l.23-.18.13,0,.09-.17L68,.7l.29.12.24.38.11.06.17.33L69,2l.08.37.19.42.25.33,0,.18.17.19.1.22L70,4l0,.26.19.39,0,.17.12.21.11.37.17.31.06.52.1.37.12.52v.19l.11.28.15.5.13.46,0,.37.1.26.29.19.34.11.41,0h.39l.39.08.06.12.09.1-.09.07-.06.1-.17.18-.22,0-.08.11-.33.06-.37.17-.15.14v.25l.06.31.14.31.17.29.15.44.1.26.14.41.15.37.22.46.15.38.08.59.11.06.14.31.15.3v.18l.1.1Zm-9.45.95,0,.09-.15,0-.06-.16.1,0h.13Zm1-8.14,0,.1-.1.07-.12-.09V8.67l.1-.11.12,0,0,.06ZM69.92,9l-.09-.23-.21-.39L69.57,8l-.1-.17-.08-.22-.12-.21,0-.56L69,6.51l.09-.16L69,6.09l-.14-.76L68.69,5l0-.27-.24-.31-.08-.17-.21-.45-.44.43,0,.28-.16.24V5l0,.14-.08.43,0,.38v.12l-.1.15v.31l0,.6v.28l-.11.26.07.26-.11.33.18.25.49.23.52.19.44.24.24.17.42.08.29-.06.08-.06Zm-1,.05-.12,0L68.66,9l0-.08h.11l.06,0,0,.06Zm4.82.57,0,.08-.09,0h-.06V9.71l0-.08,0,0Zm.19,7s-.05,0-.11.05l-.06,0,0-.06.06-.06.11,0Z"/><path class="cls-1" d="M84.56,1.3l0,.31V2l-.13.23,0,.18-.08.3-.24.3-.19.29-.1.62v.39l-.1.54,0,.29-.11.47,0,.44-.2.39-.09.5,0,.49-.64,1.37-.23.17-.06.33-.19.3-.1.5-.1.3v.41l-.25.68-.19.31-.06.51,0,.4-.11.39,0,.33-.06.35,0,.19-.18.22-.19.44h-.17l-.22,0-.08-.31L80.08,14l-.15-.38-.1-.33-.23-.39v-.27l-.22-.25.2-.39-.22-.39L79.29,11,79,10.34l-.11-.61-.11-.47-.15-.77-.08-.25-.12-.37-.17-.45-.3-.91L77.58,6l-.23.43-.09.17V7.81l-.08.58.06.54-.12.63-.1.67-.17.33-.09.54-.09.64,0,1.24-.15.31.08.27-.23.31-.39.17-.5,0-.39-.23-.11-.39L74.79,13l-.11-.43v-.35l.28-.44.2-.19.16-.22.21-.45,0-.59.21-.49.07-.46L76,9l-.08-1-.11-.33-.07-.58.11-.59L76,6.09l.13-.49.33-.31L76.63,4l.3-.39L77,3.18l.3-.38.11-.11.15-.11,0-.26.13-.09H78l.13.16.07.32.12.52.11.61.16,1.43.08.64.15.39.06.42,0,.39.15.58.07.66.27.43.16.65,0,.61.15.52.16.6.1.39.09.21h.17l.14-.21.26-.22.08-.45.16-.11,0-.21L81,10l-.06-.35L81,9.26l.19-.2.21-.32.16-.39L81.77,8,82,7.71v-.4l.2-.39.11-.27.14-.47.09-.39,0-.63-.15-.47-.17-.5L82,3.82V3.38l0-.56.22-.24V2.27l.17-.21.1-.68.16-.4.17.09.37-.14.21-.25.4-.16L84,.43l.23.18.14.32.13,0ZM75.83,15.17l-.2.08-.17-.08.07-.22.23.05ZM80.68,3.1l-.26.16V3l.24,0Z"/><path class="cls-1" d="M94.88,1.3l0,.31V2l-.12.23,0,.18-.08.3-.25.3-.19.29-.09.62v.39l-.11.54,0,.29-.1.47L94,6l-.21.39-.08.5,0,.49L93,8.76l-.22.17-.06.33-.19.3-.1.5-.11.3v.41l-.25.68-.18.31-.06.51,0,.4-.1.39,0,.33-.06.35,0,.19-.18.22-.19.44h-.17l-.22,0-.09-.31L90.39,14l-.15-.38-.09-.33-.24-.39v-.27l-.22-.25.2-.39-.22-.39L89.61,11l-.32-.69-.12-.61-.1-.47-.15-.77-.09-.25-.11-.37-.17-.45-.31-.91L87.89,6l-.23.43-.08.17V7.81l-.09.58.06.54-.11.63-.11.67-.17.33-.08.54-.1.64,0,1.24-.15.31.09.27-.23.31-.4.17-.49,0-.39-.23-.11-.39L85.1,13l-.1-.43v-.35l.28-.44.19-.19.17-.22.2-.45,0-.59.21-.49.08-.46L86.34,9l-.09-1-.1-.33-.08-.58.12-.59.15-.39.12-.49.33-.31L86.94,4l.31-.39.08-.44.31-.38.1-.11.15-.11L88,2.32l.12-.09h.19l.14.16.06.32.13.52.11.61.15,1.43.09.64.15.39.06.42,0,.39.16.58.06.66.28.43.15.65,0,.61.14.52.16.6.11.39.08.21h.17l.14-.21.26-.22.09-.45.15-.11,0-.21L91.3,10l-.06-.35.06-.43.19-.2.2-.32.17-.39L92.08,8l.21-.25v-.4l.21-.39.1-.27.15-.47.08-.39,0-.63-.15-.47-.17-.5-.18-.37V3.38l0-.56.22-.24V2.27l.17-.21.11-.68.16-.4.17.09.37-.14.21-.25.39-.16.27-.09.23.18.14.32.12,0ZM86.15,15.17l-.2.08-.17-.08.06-.22.23.05ZM91,3.1l-.25.16V3L91,3Z"/><path class="cls-1" d="M104.57,3.21l0,.2-.15.06h-.15l-.31-.13-.27-.13h-.74l-.5.15-.56.11-.7.35-.48.08h-.3l-.3.13-.8,0H98.6l-.71.07-.61.11L97,4.34l-.2.32L96.67,5l-.06.54,0,.54L96.46,7l0,.2-.09.61.09.06.17,0,.27-.11.36-.32.32-.13h.7l.91,0,.58,0,.11.09.18.15h.54l.19.12.2,0,.41.14.44.06,0,.11-.08.08-.25.18h-.24l-.19,0-.72,0-.8.13-.74.08-.67.11-.67,0-.54.2-.52-.37L96.39,9l0,.41,0,.52.13.57.19.63.2.56.6.85.33.37.46.28.45.23.56.29.68.09.71.12.54.13.35,0,.3.09.83.13.17.15,0,.16-.07.19-.24,0-.52-.07-.54,0-.85,0-.58,0-.43-.15-.2,0-.3-.06-.59-.16-.39-.09-.3-.26-.33-.21-.28-.23-.3-.49-.33-.52-.06-.48.06-.32-.25-.48-.07-.52-.19-.27,0-.62L96,9.51l.06-.4L96,8.52l.12-.39-.16-.28L96,7.73l0-.31.12-.35L96,6.72l.17-.37-.07-.5V5.46l.15-.25,0-.38.08-.21,0-.39L96.07,4l-.39-.39,0-.21,0-.37.08-.48.15-.35L96.3,2l.35-.12.27-.11.45.13.5.25.64,0,.89,0,1.18,0h.69l.53.15.56,0,.41.07.38.11.28.09h.19l.42.23.35.22Zm-7,10.88,0,.15-.19,0V14l.15-.11Z"/><path class="cls-1" d="M114.38,16.58l-.06,0h-.16l-.17-.08-.22-.13-.56-.41-.39-.35-.41-.52-.32-.44-.27-.45-.32-.35-.46-.56-.52-.5-.47-.43-.37-.48-.54-.63-.39-.58-.42-.52-.39-.48-.45-.39L107,9h-.48l0,.31-.15.5-.12.78,0,.48-.12.41-.15,1.1,0,.64v.39l-.06.89v.21l.1.17.17.2.1.27-.06.16-.1.15-.19.08-.2,0-.15-.13-.11-.16-.26-.44,0-.53v-.64l0-1,.1-.41.06-.27v-.51l.06-.31.06-.32,0-.35.11-.45,0-.5.11-.54,0-.57.11-.36,0-.41v-.5l.06-.51,0-.54.21-1.12.08-.41V4.32l0-.59.15-.39.12-.37-.08-.37.08-.39-.17-.41.07-.34.17-.31.45,0,.46-.31.43-.06.61,0,.65,0,.72.06.35.15.29.12.31.23.35.33.21.39.22.41.19.54v.35l.19.41,0,.48.06.23-.06.48-.08.41-.06.48,0,.43-.08.37-.2.46-.3.37-.3.21-.33.26-.32.17-.31.2V8.7l.11.31.13.33.07.31.3.73.45.76.2.35.19.43.31.56.17.35.28.42.15.45.18.41.28.44.22.36.34.41.41.39.29.31.21.27.09.14Zm-4.3-12.12L109.93,4l.11-.46-.11-.19v-.8l-.22-.33-.43-.12L108.92,2l-.18.08-.15,0-.67.23-.13.2-.08.26-.09.35-.08.45V3.9L107.3,5l-.22.54L107,6l0,.52,0,.25,0,.35.23.18.31.09.29-.16.51-.13.68-.13.36-.24.39-.32.13-.33-.07-.2.07-.21V5.31l0-.37Zm-2.74,6.33,0,.16-.17,0,0-.11.17-.15Zm2.55-6.93-.18.11-.11-.15.11-.18.18.07Z"/><path class="cls-1" d="M119.72,4.4l-.2.26h-.28l-.33-.11-.3-.15-.32-.23-.07-.2-.39-.09-.22-.08-.43.06h-.37l-.38,0-.53.19-.38.22-.62.57-.12.3-.21.44.06.49.17.42.17.25.55.39.31.27.37.23.29.26.34.26.7.41.34.31.26.28.24.17.07.24.35.56.14.35.09.39.16.41.12.39,0,.56-.09.43-.24.51-.13.4-.26.29-.13.26-.31.32-.27.22-.46.17-.61.11-.42.09-.49-.09-.34,0-.31-.07-.23-.12h-.16l-.08-.11,0-.24.08-.13h.16v.13l0,.08.15.1.31.12.69.05.22-.07.34,0,.45-.12.42-.18.5-.35.09-.25.21-.35.13-.38.16-.27,0-.33.1-.47-.08-.31-.09-.41-.22-.32-.11-.39-.19-.37-.13-.35-.26-.15-.2-.22-.29-.21L117.07,9l-.47-.21-.29-.29L116,8.43l-.3-.26-.4-.28-.21-.18-.39-.1-.37-.33L114,6.9l-.19-.39-.2-.42V5.27l.18-.46.21-.43.25-.37.27-.3.27-.24.32-.26.4-.2.33-.12.5,0,.48-.05.47-.11.42-.21.43-.13.2-.16.41.06.24.23.13.39.17.21.21.22.14.34,0,.33Zm.08.48,0,.24-.29.06-.19,0-.22-.2.2-.17.31,0Z"/></g></g></svg>