<svg xmlns="http://www.w3.org/2000/svg" viewBox="0 0 78.09 61.15"><defs><style>.cls-1{fill:#3d2c25;}</style></defs><title>Asset 4</title><g id="Layer_2" data-name="Layer 2"><g id="Layer_1-2" data-name="Layer 1"><rect class="cls-1" x="36.27" y="12.97" width="5.07" height="6.94"/><rect class="cls-1" x="20.26" y="14.63" width="4.17" height="46.51"/><rect class="cls-1" x="53.66" y="14.63" width="4.17" height="46.51"/><rect class="cls-1" x="18.58" y="17.76" width="7.53" height="2.15"/><rect class="cls-1" x="51.98" y="17.76" width="7.53" height="2.15"/><rect class="cls-1" x="6.47" y="19.32" width="64.67" height="4.31"/><rect class="cls-1" x="18.58" y="12.97" width="7.53" height="2.15"/><rect class="cls-1" x="14.49" y="32.74" width="4.09" height="28.4"/><rect class="cls-1" x="13.34" y="29.96" width="6.06" height="2.78"/><rect class="cls-1" x="14.49" y="28.73" width="4.09" height="1.23"/><rect class="cls-1" x="51.98" y="12.97" width="7.53" height="2.15"/><rect class="cls-1" x="59.51" y="32.74" width="4.09" height="28.4"/><rect class="cls-1" x="58.69" y="29.96" width="6.06" height="2.78"/><rect class="cls-1" x="59.51" y="28.73" width="4.09" height="1.23"/><path class="cls-1" d="M39,4.75v9.17S7.25,15.55,4,7.37c0,0,2.66,2.26,19.69,2V8.53S3.31,9.33,0,0C0,0,.08,5.24,39,4.75Z"/><path class="cls-1" d="M39,4.75v9.17s31.8,1.63,35.08-6.55c0,0-2.66,2.26-19.69,2l0-.87S74.78,9.33,78.09,0C78.09,0,78,5.24,39,4.75Z"/></g></g></svg>