<svg xmlns="http://www.w3.org/2000/svg" viewBox="0 0 91.78 98.78"><defs><style>.cls-1{fill:#fff;}</style></defs><title>Asset 6</title><g id="Layer_2" data-name="Layer 2"><g id="Layer_1-2" data-name="Layer 1"><path class="cls-1" d="M91.78,67.59V59.45L86,59.3l5.78-.15V57.43l-4.55-.25c1.52-.1,3-.18,4.55-.26V53.2l-1.21,0,1.21,0v-.21l-6.42-.06-6.64-.12c-2.22-.07-4.43-.12-6.64-.21,2.21-.1,4.42-.14,6.64-.22l6.64-.12q3.21,0,6.42-.06V48.07c-2.11-.11-4.23-.22-6.34-.36,2.11-.13,4.23-.24,6.34-.35V44.75l-1,0,1,0V41L82.23,41c-5,0-10.11,0-15.17-.11l-7.58-.14c-2.53-.08-5.06-.13-7.59-.24,2.53-.11,5.06-.16,7.59-.25l7.58-.13c5.06-.08,10.12-.08,15.17-.12l9.55.06V29.65l-5.94-.11c-2.21-.07-4.42-.11-6.63-.21,2.21-.09,4.42-.14,6.63-.21L91.78,29V7.27A62.52,62.52,0,0,0,2.07,46.56h.14c5.84-.14-3.83-.18,2-.2s11.68.06,17.52.21,11.68.36,17.53.72q-8.78.54-17.53.73c-5.84.15-11.68.19-17.52.21s3.83-.06-2-.21H1.72c-.18.77-.36,1.54-.51,2.32h.15c3.91,0,7.82,0,11.73.13s7.82.25,11.73.49q-5.87.36-11.73.49c-3.91.1-7.82.12-11.73.14H1a63.29,63.29,0,0,0-1,11A62.24,62.24,0,0,0,11.57,98.78H91.78V96.57q-8.06-.28-16.1-.77,8.05-.51,16.1-.77V90.34C88.41,90.18,85,90,81.67,89.8c3.37-.21,6.74-.38,10.11-.53V87.43l-1.67-.1c.56,0,1.11-.08,1.67-.11V85.5l-3.62-.09c-8-.2-15.92-.5-23.88-1.08,8-.58,15.92-.88,23.88-1.08l3.62-.09V81.22l-6.72-.1c-4-.1-8-.17-11.94-.31,4-.14,8-.21,11.94-.31l6.72-.1V78.3q-9.94-.27-19.89-.89,9.94-.61,19.89-.88v-1.8c-2.78-.13-5.56-.27-8.34-.44q4.17-.26,8.34-.45v-2c-5.5,0-11,0-16.5-.11-8-.11-15.92-.23-23.88-.49,9.22-.3,17.19-.4,23.88-.49,5.5-.07,11-.09,16.5-.11V69q-7.16-.26-14.33-.7Q84.62,67.85,91.78,67.59ZM75.34,93.12c4.26.06,8.52.14,12.78.31-4.26.18-8.52.26-12.78.32s-8.52.06-12.78.1-8.52,0-12.78-.1l-6.39-.11c-2.13-.07-4.26-.11-6.39-.21,2.13-.09,4.26-.13,6.39-.2l6.39-.12c4.26-.06,8.52-.06,12.78-.09S71.08,93.05,75.34,93.12ZM52,78.05c6.51,0,13,0,19.52.15s13,.22,19.52.48c-6.5.27-13,.39-19.52.49s-13,.1-19.52.15-13,0-19.52-.15L22.69,79c-3.25-.11-6.5-.17-9.76-.32,3.26-.14,6.51-.2,9.76-.31l9.77-.18C39,78.09,45.47,78.1,52,78.05Z"/></g></g></svg>