<svg xmlns="http://www.w3.org/2000/svg" viewBox="0 0 202.96 84.48"><defs><style>.cls-1{fill:#fff;}</style></defs><title>Asset 22</title><g id="Layer_2" data-name="Layer 2"><g id="Layer_1-2" data-name="Layer 1"><path class="cls-1" d="M89.39,32.48c7.18-.23,14.36-.34,21.54-.44s14.36-.08,21.54-.13S146.83,32,154,32l10.77.16c3.59.1,7.18.15,10.77.28-3.59.13-7.18.19-10.77.28L154,32.92c-7.18.1-14.36.09-21.54.14s-14.36,0-21.54-.14S96.57,32.72,89.39,32.48Z"/><path class="cls-1" d="M97.35,34.51c7.18-.71,14.36-1.08,21.54-1.34,3.59-.15,7.18-.19,10.77-.28l10.77-.1,10.77.09c3.59.1,7.18.13,10.77.29,7.18.25,14.36.62,21.54,1.34-7.18.72-14.36,1.09-21.54,1.34-3.59.16-7.18.19-10.77.29l-10.77.09-10.77-.09c-3.59-.1-7.18-.13-10.77-.29C111.71,35.59,104.53,35.22,97.35,34.51Z"/><path class="cls-1" d="M81.67,40.59q10.77-.66,21.54-.89c7.18-.18,14.36-.23,21.54-.25s14.36.07,21.54.25,14.36.45,21.54.89q-10.77.67-21.54.9c-7.18.18-14.36.23-21.54.25s-14.36-.07-21.54-.26S88.85,41,81.67,40.59Z"/><path class="cls-1" d="M90.49,30.57q10.77-.67,21.54-.9c7.18-.18,14.36-.23,21.54-.25s14.36.07,21.54.25,14.36.45,21.54.9q-10.77.66-21.54.89c-7.18.18-14.36.23-21.54.25s-14.36-.07-21.54-.25S97.67,31,90.49,30.57Z"/><path class="cls-1" d="M58.17,43.3c8.32-.28,15.51-.36,21.54-.44,7.18-.1,14.36-.09,21.54-.14s14.36,0,21.54.14l10.77.16c3.59.09,7.18.15,10.77.28-3.59.13-7.18.18-10.77.28l-10.77.16c-7.18.09-14.36.09-21.54.13s-14.36,0-21.54-.13S65.35,43.53,58.17,43.3Z"/><path class="cls-1" d="M87.08,46q10.77-.66,21.54-.89c7.18-.18,14.36-.23,21.54-.26s14.36.07,21.54.26,14.36.45,21.54.89q-10.77.68-21.54.9c-7.18.18-14.36.23-21.54.25s-14.36-.07-21.54-.26S94.26,46.44,87.08,46Z"/><path class="cls-1" d="M163.92,51.88c-7.18.24-14.36.35-21.54.44s-14.36.09-21.54.14-14.36,0-21.54-.13l-10.77-.16c-3.59-.1-7.18-.16-10.77-.29,3.59-.13,7.18-.18,10.77-.28l10.77-.16c7.18-.09,14.36-.08,21.54-.13s14.36,0,21.54.14S156.74,51.65,163.92,51.88Z"/><path class="cls-1" d="M156,55.06c-7.18.52-14.37.79-21.54,1-3.59.12-7.19.15-10.78.21l-10.77.07-10.77-.06c-3.59-.07-7.18-.1-10.77-.21-7.18-.19-14.36-.46-21.54-1,7.18-.52,14.36-.8,21.54-1,3.59-.12,7.18-.14,10.77-.21l10.77-.06,10.77.07c3.59.06,7.19.09,10.78.2C141.59,54.27,148.78,54.54,156,55.06Z"/><path class="cls-1" d="M179.25,57.76c-7.18.52-14.36.79-21.54,1-3.59.11-7.18.14-10.77.21L136.17,59,125.4,59c-3.59-.07-7.18-.09-10.77-.21-7.18-.18-14.36-.46-21.54-1,7.18-.52,14.36-.79,21.54-1,3.59-.11,7.18-.14,10.77-.2l10.77-.07,10.77.07c3.59.07,7.18.09,10.77.21C164.89,57,172.07,57.24,179.25,57.76Z"/><path class="cls-1" d="M171.64,60q-10.77.66-21.54.89c-7.18.18-14.36.23-21.54.25s-14.36-.07-21.54-.25S92.66,60.44,85.48,60q10.77-.68,21.54-.9c7.18-.18,14.36-.23,21.54-.25s14.36.07,21.54.25S164.46,59.55,171.64,60Z"/><path class="cls-1" d="M47.23,21.64q-7.9.49-15.81.66c-5.27.13-10.54.17-15.81.18s3.47-.05-1.8-.18S5.27,22,0,21.64c5.27-.32,8.54-.54,13.81-.65s-3.47-.17,1.8-.19,10.54.05,15.81.19S42,21.32,47.23,21.64Z"/><path class="cls-1" d="M34.2,24.94c-3.53.22-7.05.37-10.58.44s-7.06.11-10.59.13-5,0-8.58-.13,4.94-.22,1.42-.44c3.52-.22-4.95-.36-1.42-.44s5.06-.11,8.58-.12,7.06,0,10.59.12S30.67,24.72,34.2,24.94Z"/><path class="cls-1" d="M162.82,48.82q-10.77.66-21.54.89c-7.18.19-14.36.23-21.54.26s-14.36-.07-21.54-.25-14.36-.45-21.54-.9q10.77-.66,21.54-.89c7.18-.19,14.36-.24,21.54-.26s14.36.08,21.54.26S155.64,48.38,162.82,48.82Z"/><path class="cls-1" d="M195.14,62.7c-7.18.23-14.36.35-21.54.44s-14.36.08-21.54.13-14.36,0-21.54-.13L119.75,63c-3.59-.1-7.18-.15-10.77-.28,3.59-.13,7.18-.19,10.77-.28l10.77-.16c7.18-.09,14.36-.09,21.54-.13s14.36,0,21.54.13S188,62.46,195.14,62.7Z"/><path class="cls-1" d="M93.91,50c-5.87.23-11.74.34-17.61.44s-11.74.08-17.61.13-11.74,0-17.6-.13l-8.81-.16c-2.94-.1-5.87-.15-8.8-.28,2.93-.13,5.86-.19,8.8-.28l8.81-.16c5.86-.1,11.73-.09,17.6-.14s11.74,0,17.61.14S88,49.73,93.91,50Z"/><path class="cls-1" d="M87.05,68.87c-3.84.15-7.68.22-11.53.28s-7.68.06-11.52.09-7.69,0-11.53-.08l-5.76-.11c-1.92-.06-3.85-.1-5.77-.18,1.92-.09,3.85-.13,5.77-.19l5.76-.1c3.84-.06,7.68-.06,11.53-.09s7.68,0,11.52.09S83.21,68.71,87.05,68.87Z"/><path class="cls-1" d="M91.29,63.27c-3.84.16-7.68.23-11.52.29s-7.69,0-11.53.09-7.69,0-11.53-.09L51,63.46c-1.92-.07-3.84-.1-5.77-.19,1.93-.08,3.85-.12,5.77-.18L56.71,63c3.84-.06,7.69,0,11.53-.08s7.68,0,11.53.08S87.45,63.12,91.29,63.27Z"/><path class="cls-1" d="M113.35,15.54c-4.56.18-9.12.27-13.68.34S90.55,16,86,16s-9.13,0-13.69-.1l-6.84-.12c-2.28-.08-4.56-.12-6.84-.22,2.28-.1,4.56-.14,6.84-.22l6.84-.12c4.56-.07,9.12-.07,13.69-.11s9.12,0,13.68.11S108.79,15.36,113.35,15.54Z"/><path class="cls-1" d="M124.72,26.37c-4,.16-8,.24-12,.3s-8,.06-12,.09-8,0-12-.09l-6-.11c-2-.06-4-.1-6-.19,2-.09,4-.12,6-.19l6-.11c4-.06,8-.06,12-.09s8,0,12,.09S120.73,26.21,124.72,26.37Z"/><path class="cls-1" d="M131.15,5.45c-4,.16-8,.24-12,.3s-8,.06-12,.09-8,0-12-.09l-6-.11c-2-.06-4-.1-6-.19,2-.09,4-.12,6-.19l6-.11c4-.06,8-.06,12-.09s8,0,12,.09S127.16,5.29,131.15,5.45Z"/><path class="cls-1" d="M82,84.25c-2.31.1-4.61.14-6.92.18s-4.62,0-6.93,0-4.62,0-6.93,0l-3.46-.07c-1.16,0-2.31-.06-3.46-.11,1.15,0,2.3-.07,3.46-.11l3.46-.06c2.31,0,4.62,0,6.93,0s4.62,0,6.93,0S79.68,84.16,82,84.25Z"/><path class="cls-1" d="M166.23,65.4q-10.77.67-21.54.89c-7.18.19-14.36.24-21.54.26s-14.36-.07-21.54-.25-14.36-.45-21.54-.9q10.77-.66,21.54-.89c7.18-.18,14.36-.23,21.54-.25s14.36.07,21.54.25S159.05,65,166.23,65.4Z"/><path class="cls-1" d="M193.36,10.81c-7.18.23-14.36.35-21.54.44s-14.36.08-21.54.13-14.36,0-21.54-.13L118,11.09c-3.59-.1-7.18-.15-10.77-.28,3.59-.13,7.18-.19,10.77-.28l10.77-.16c7.18-.09,14.36-.09,21.54-.13s14.36,0,21.54.13S186.18,10.57,193.36,10.81Z"/><path class="cls-1" d="M185.4,12.84c-7.18.71-14.36,1.08-21.54,1.33-3.59.16-7.18.2-10.77.29l-10.78.1-10.76-.09c-3.59-.1-7.19-.13-10.78-.29-7.17-.25-14.36-.63-21.54-1.34,7.18-.72,14.37-1.09,21.54-1.35,3.59-.16,7.19-.19,10.78-.28l10.76-.09,10.78.09c3.59.1,7.18.13,10.77.29C171,11.75,178.22,12.13,185.4,12.84Z"/><path class="cls-1" d="M203,15.54c-7.18.71-14.36,1.08-21.54,1.34-3.59.16-7.18.19-10.77.28l-10.78.1-10.77-.09c-3.58-.1-7.18-.13-10.77-.29-7.18-.25-14.36-.62-21.54-1.34,7.18-.72,14.36-1.09,21.54-1.34,3.59-.16,7.19-.19,10.77-.29l10.77-.09,10.78.1c3.59.09,7.18.12,10.77.28C188.6,14.46,195.78,14.83,203,15.54Z"/><path class="cls-1" d="M198.78,20.07q-10.77.66-21.54.89c-7.18.18-14.36.23-21.54.25s-14.36-.07-21.54-.25-14.36-.45-21.54-.89q10.77-.67,21.54-.9c7.18-.18,14.36-.23,21.54-.25s14.36.07,21.54.25S191.6,19.62,198.78,20.07Z"/><path class="cls-1" d="M192.26,7.75q-10.77.66-21.54.89c-7.18.18-14.36.23-21.54.25s-14.36-.07-21.54-.25-14.36-.45-21.54-.89q10.77-.68,21.54-.9c7.18-.18,14.36-.23,21.54-.25s14.36.07,21.54.25S185.08,7.3,192.26,7.75Z"/><path class="cls-1" d="M180.64,73.08c-7.18.23-14.36.34-21.54.43s-14.36.09-21.54.14-14.36,0-21.54-.13l-10.77-.16c-3.59-.1-7.19-.15-10.77-.28,3.58-.13,7.18-.19,10.77-.29L116,72.63c7.18-.09,14.36-.08,21.54-.13s14.36,0,21.54.14S173.46,72.84,180.64,73.08Z"/><path class="cls-1" d="M182,78.54c-7.18.72-14.36,1.09-21.54,1.34-3.59.16-7.18.19-10.77.29l-10.78.09-10.76-.09c-3.59-.09-7.19-.12-10.78-.28-7.17-.26-14.36-.63-21.54-1.35,7.18-.71,14.37-1.09,21.54-1.34,3.59-.16,7.19-.19,10.78-.29l10.76-.09,10.78.1c3.59.09,7.18.13,10.77.29C167.6,77.46,174.78,77.83,182,78.54Z"/><path class="cls-1" d="M179.53,70q-10.77.67-21.54.89c-7.18.19-14.36.24-21.54.26s-14.36-.07-21.54-.25-14.36-.45-21.54-.9q10.77-.66,21.54-.89c7.18-.18,14.36-.23,21.54-.25s14.36.07,21.54.25S172.35,69.57,179.53,70Z"/><path class="cls-1" d="M187.11,1.15q-10.77.66-21.54.89c-7.18.18-14.36.23-21.54.25S129.67,2.22,122.49,2,108.13,1.59,101,1.15q10.77-.67,21.54-.9C129.67.07,136.85,0,144,0s14.36.07,21.54.25S179.93.7,187.11,1.15Z"/><path class="cls-1" d="M179.86,19.33c-7.18.24-14.36.35-21.54.44s-14.36.08-21.54.13-14.36,0-21.54-.13l-10.77-.16c-3.59-.09-7.18-.15-10.77-.28,3.59-.13,7.18-.19,10.77-.28l10.77-.16c7.18-.09,14.36-.09,21.54-.13s14.36,0,21.54.13S172.68,19.09,179.86,19.33Z"/><path class="cls-1" d="M179.66,27c-7.18.23-14.36.34-21.54.43s-14.36.09-21.54.14-14.36,0-21.54-.13l-10.77-.16c-3.59-.1-7.18-.15-10.77-.28,3.59-.13,7.18-.19,10.77-.29L115,26.5c7.18-.09,14.36-.08,21.54-.13s14.36,0,21.54.14S172.48,26.71,179.66,27Z"/><path class="cls-1" d="M186.52,24.65c-7.18.24-14.36.35-21.54.44s-14.36.09-21.54.14-14.36-.05-21.54-.14l-10.77-.16c-3.59-.09-7.18-.15-10.77-.28,3.59-.13,7.18-.18,10.77-.28l10.77-.16c7.18-.09,14.36-.09,21.54-.13s14.36,0,21.54.13S179.34,24.42,186.52,24.65Z"/><path class="cls-1" d="M175,22q-10.77.67-21.54.89c-7.18.19-14.36.24-21.54.26s-14.36-.07-21.54-.25-14.36-.45-21.54-.9q10.77-.66,21.54-.89c7.18-.18,14.36-.23,21.54-.25s14.36.07,21.54.25S167.85,21.59,175,22Z"/></g></g></svg>