<svg xmlns="http://www.w3.org/2000/svg" viewBox="0 0 217.95 62.42"><defs><style>.cls-1{fill:#dbd5d3;}</style></defs><title>Asset 21</title><g id="Layer_2" data-name="Layer 2"><g id="Layer_1-2" data-name="Layer 1"><path class="cls-1" d="M196.39,31.31c-5.59-.19-11.17-.27-16.76-.35s-11.18-.06-16.76-.1-11.18,0-16.76.1l-8.38.13c-2.8.07-5.59.12-8.38.22,2.79.1,5.58.14,8.38.22l8.38.12c5.58.07,11.17.07,16.76.1s11.17,0,16.76-.1S190.8,31.49,196.39,31.31Z"/><path class="cls-1" d="M202.39,35.62q-8.38-.52-16.76-.7c-5.59-.14-11.17-.18-16.76-.19s-11.17.05-16.76.19-11.18.35-16.76.7c5.58.34,11.17.58,16.76.69s11.17.18,16.76.2,11.17-.06,16.76-.2S196.8,36,202.39,35.62Z"/><path class="cls-1" d="M195.53,29.81q-8.39-.51-16.76-.69c-5.59-.14-11.18-.18-16.76-.2s-11.18.06-16.76.2-11.18.35-16.76.69q8.37.53,16.76.7c5.58.14,11.17.18,16.76.2s11.17-.06,16.76-.2S189.94,30.16,195.53,29.81Z"/><path class="cls-1" d="M121.41,47.28q-6.18.44-12.35.58c-4.12.12-8.24.15-12.36.17s-8.23-.05-12.35-.16-8.23-.3-12.35-.59q6.18-.44,12.35-.58c4.12-.12,8.24-.16,12.35-.17s8.24,0,12.36.17S117.29,47,121.41,47.28Z"/><path class="cls-1" d="M75.3,14.33q-7.9.49-15.81.65c-5.27.14-10.54.17-15.81.19s3.47-.05-1.8-.18-8.54-.33-13.81-.66c5.27-.33,8.54-.55,13.81-.66s-3.46-.17,1.8-.18,10.54,0,15.81.19S70,14,75.3,14.33Z"/><path class="cls-1" d="M62.27,17.63c-3.52.22-7.05.36-10.58.44s-7.06.11-10.59.12-5.05,0-8.58-.12,4.94-.22,1.42-.44c3.52-.22-4.95-.37-1.42-.44s5.06-.11,8.58-.12,7.06,0,10.59.12S58.75,17.41,62.27,17.63Z"/><path class="cls-1" d="M134.89,49.05c-4.12.15-8.24.23-12.35.28s-8.24.06-12.36.09-8.23,0-12.35-.08l-6.18-.11c-2.06-.06-4.11-.1-6.17-.18,2.06-.09,4.11-.12,6.17-.19l6.18-.1c4.12-.06,8.24-.06,12.35-.09s8.24,0,12.36.09S130.77,48.89,134.89,49.05Z"/><path class="cls-1" d="M9.42,31.41Q20.19,31,31,30.89c7.18-.11,14.36-.14,21.54-.15s14.36,0,21.54.15,14.36.26,21.54.52q-10.77.39-21.54.53c-7.18.1-14.36.13-21.54.15S38.14,32,31,31.94,16.6,31.67,9.42,31.41Z"/><path class="cls-1" d="M36.87,29q6.57-.24,13.14-.32c4.38-.07,8.76-.09,13.14-.1s8.76,0,13.14.1,8.76.16,13.14.32q-6.57.24-13.14.32c-4.38.06-8.76.08-13.14.09s-8.76,0-13.14-.09S41.25,29.18,36.87,29Z"/><path class="cls-1" d="M87.27,35.75c-7.18.24-14.36.35-21.54.44s-14.36.09-21.54.14-14.36,0-21.55-.13L11.87,36c-3.58-.1-7.17-.16-10.76-.29,3.59-.13,7.18-.18,10.76-.28l10.77-.16c7.19-.09,14.37-.08,21.55-.13s14.35,0,21.54.14S80.09,35.52,87.27,35.75Z"/><path class="cls-1" d="M86.16,33q-10.77.52-21.54.7c-7.18.14-14.36.18-21.54.2s-14.36,0-21.54-.2S7.18,33.31,0,33q10.77-.54,21.54-.71c7.18-.14,14.36-.18,21.54-.2s14.36.06,21.54.2S79,32.61,86.16,33Z"/><path class="cls-1" d="M82.41,37.26c-5.87.24-11.74.35-17.61.44s-11.74.09-17.61.13-11.74,0-17.61-.13l-8.8-.16c-2.94-.09-5.87-.15-8.81-.28,2.94-.13,5.87-.18,8.81-.28l8.8-.16c5.87-.09,11.74-.09,17.61-.13s11.74,0,17.61.13S76.54,37,82.41,37.26Z"/><path class="cls-1" d="M40.83,62.13c-3,.12-6.09.18-9.13.22s-6.09,0-9.14.07-6.09,0-9.13-.07l-4.57-.08c-1.52-.05-3-.08-4.56-.14,1.52-.07,3-.1,4.56-.15l4.57-.08c3,0,6.09,0,9.13-.07s6.09,0,9.14.07S37.79,62,40.83,62.13Z"/><path class="cls-1" d="M50.19,59.69c-3,.12-6.09.18-9.13.23S35,60,31.92,60s-6.09,0-9.13-.07l-4.57-.08c-1.52-.05-3-.08-4.56-.15,1.52-.06,3-.09,4.56-.14l4.57-.09c3,0,6.09,0,9.13-.07s6.09,0,9.14.07S47.15,59.57,50.19,59.69Z"/><path class="cls-1" d="M129.72,8.17c-4.17.17-8.34.25-12.51.31s-8.34.06-12.51.1-8.33,0-12.5-.09l-6.26-.12c-2.08-.07-4.17-.11-6.25-.2,2.08-.09,4.17-.13,6.25-.2l6.26-.11c4.17-.07,8.33-.06,12.5-.1s8.34,0,12.51.1S125.55,8,129.72,8.17Z"/><path class="cls-1" d="M152.79,19.06c-4,.16-8,.24-12,.3s-8,.06-12,.09-8,0-12-.09l-6-.11c-2-.06-4-.1-6-.19,2-.09,4-.13,6-.19l6-.11c4-.06,8-.06,12-.09s8,0,12,.09S148.8,18.9,152.79,19.06Z"/><path class="cls-1" d="M177.43,52.1c-1,0-2,.06-3,.07s-2,0-2.95,0l-2.94,0-1.48,0-1.47,0,1.47-.05,1.48,0c1,0,2,0,2.94,0s2,0,2.95,0S176.44,52.06,177.43,52.1Z"/><path class="cls-1" d="M102.6,38.51c-1,0-2,.06-2.95.07s-2,0-3,0-2,0-2.94,0l-1.47,0-1.48-.05,1.48,0,1.47,0,2.94,0c1,0,2,0,3,0S101.62,38.47,102.6,38.51Z"/><path class="cls-1" d="M13.15,12.31c-1,0-2,.06-2.94.07s-2,0-3,0-2,0-2.95,0l-1.47,0-1.47,0,1.47-.05,1.47,0,3,0,3,0C11.19,12.25,12.17,12.27,13.15,12.31Z"/><path class="cls-1" d="M118.31,50.82q-6.18.42-12.35.58c-4.12.12-8.24.15-12.35.16s-8.24,0-12.36-.16S73,51.11,68.9,50.82q6.18-.45,12.35-.59c4.12-.12,8.24-.15,12.36-.16s8.23,0,12.35.16S114.19,50.53,118.31,50.82Z"/><path class="cls-1" d="M202.85,3.85c-6.56.21-13.13.31-19.69.4s-13.12.08-19.69.12-13.12,0-19.69-.12l-9.84-.15c-3.28-.08-6.56-.13-9.85-.25,3.29-.12,6.57-.17,9.85-.26l9.84-.15c6.57-.08,13.13-.07,19.69-.12s13.13,0,19.69.13S196.29,3.63,202.85,3.85Z"/><path class="cls-1" d="M195.57,5.7c-6.57.65-13.13,1-19.69,1.22-3.28.15-6.56.18-9.85.26l-9.84.09-9.84-.08c-3.29-.09-6.57-.12-9.85-.26-6.56-.23-13.12-.57-19.69-1.23,6.57-.65,13.13-1,19.69-1.23,3.28-.14,6.56-.17,9.85-.26l9.84-.08,9.84.09c3.29.08,6.57.11,9.85.26C182.44,4.71,189,5.05,195.57,5.7Z"/><path class="cls-1" d="M211.62,8.17c-6.57.65-13.13,1-19.69,1.22-3.28.15-6.56.18-9.85.27l-9.84.08-9.84-.08c-3.28-.09-6.57-.12-9.85-.26-6.56-.23-13.12-.57-19.69-1.23,6.57-.65,13.13-1,19.69-1.22,3.28-.15,6.57-.18,9.85-.27l9.84-.08,9.84.09c3.29.08,6.57.11,9.85.26C198.49,7.18,205.05,7.52,211.62,8.17Z"/><path class="cls-1" d="M207.8,12.31q-9.84.6-19.68.81c-6.57.17-13.13.22-19.69.24s-13.13-.07-19.69-.23-13.13-.41-19.69-.82q9.84-.62,19.69-.82c6.56-.17,13.12-.21,19.69-.23s13.12.07,19.69.23S201.24,11.9,207.8,12.31Z"/><path class="cls-1" d="M201.84,1.05q-9.84.6-19.69.81c-6.56.17-13.13.21-19.69.23S149.34,2,142.77,1.87s-13.12-.42-19.69-.82q9.86-.61,19.69-.82C149.34.06,155.9,0,162.46,0s13.13.06,19.69.23S195.28.64,201.84,1.05Z"/><path class="cls-1" d="M126.57,55.83c-4.12.16-8.24.23-12.35.29s-8.24.06-12.35.09-8.24,0-12.36-.09L83.34,56c-2.06-.07-4.12-.1-6.18-.19,2.06-.08,4.12-.12,6.18-.18l6.17-.11c4.12-.06,8.24,0,12.36-.08s8.23,0,12.35.09S122.45,55.68,126.57,55.83Z"/><path class="cls-1" d="M218,46.67c-3.06.3-6.11.46-9.17.57-1.52.07-3.05.08-4.58.12l-4.58,0-4.58,0c-1.53,0-3,0-4.58-.12-3.05-.1-6.11-.26-9.16-.57,3-.3,6.11-.46,9.16-.57C192,46,193.51,46,195,46l4.58,0,4.58,0c1.53,0,3.06.06,4.58.12C211.84,46.21,214.89,46.37,218,46.67Z"/><path class="cls-1" d="M190.51,11.64c-6.56.21-13.13.31-19.69.4s-13.13.08-19.69.12-13.12,0-19.69-.12l-9.84-.15c-3.28-.08-6.56-.14-9.85-.25,3.29-.12,6.57-.17,9.85-.26l9.84-.15c6.57-.08,13.13-.08,19.69-.12s13.13,0,19.69.12S184,11.42,190.51,11.64Z"/><path class="cls-1" d="M214.6,17.34c-7.19.24-14.36.35-21.54.44s-14.37.08-21.55.13-14.35,0-21.54-.13l-10.77-.16c-3.59-.09-7.18-.15-10.77-.28,3.59-.13,7.18-.19,10.77-.28L150,16.9c7.19-.09,14.36-.09,21.54-.13s14.36,0,21.55.13S207.41,17.1,214.6,17.34Z"/><path class="cls-1" d="M186.1,14.11q-9.85.6-19.69.81c-6.57.17-13.13.21-19.69.23s-13.13-.06-19.69-.23-13.12-.41-19.69-.81q9.85-.62,19.69-.82c6.56-.17,13.13-.21,19.69-.23s13.12.06,19.69.23S179.53,13.7,186.1,14.11Z"/></g></g></svg>