<svg xmlns="http://www.w3.org/2000/svg" viewBox="0 0 123.09 17.74"><defs><style>.cls-1{fill:#e94862;}</style></defs><title>Asset 19</title><g id="Layer_2" data-name="Layer 2"><g id="Layer_1-2" data-name="Layer 1"><path class="cls-1" d="M11.11,1.72l-.34,0-.32,0L10,1.66H9.44l-.55.06-.57.15-.58,0L7.09,2l-.53,0L6.16,2,6,2.36,6,2.79l0,.6L6,4l.14.55.11.63,0,.57.06.6v.77l.12.39V8.7L6.52,9l-.08.34,0,.47-.1.54.08.45-.14.26v.49l-.08.92-.17.24,0,.37-.14.39-.06.32-.25.49-.28.58-.26.5-.17.12-.26.41-.31.29-.39.35-.57.34-.73.23-.49.12H.88l-.43-.12-.21-.08L.12,16.8,0,16.47v-.38l.24-.23L.6,15.7l.28.07.3.15.49.08.3-.08.15-.1.3-.14.38-.21.4-.36.37-.28.24-.3L4,14.21l.39-.6.1-.56.29-.62.16-.49L5,11.43l.11-.56,0-.29.08-.39.15-.62.08-.5,0-.76v-1l-.1-.3.1-.22L5.3,6.47l0-.34-.08-.56L5,5.07l0-.49,0-.21.13-.1L5.05,4l0-.35V3.15L5,2.87,5,2.68l-.19-.26H4.49L4,2.49l-.29.11-.51.1-.33.15-.34,0L2,2.78,1.33,2.7H.94L.69,2.55l-.2-.18V2.12l0-.33.28-.12.37.1.29.13L2,2l.43,0,.45-.16h.31L4.3,1.42h.47l.4-.1.35,0,.25-.1H6l.27,0h.51l.49,0,.59,0,.89.13.56.06h.4l.45.11.32,0,.66.16ZM.94,17.5l0,.2-.21,0-.18-.11.12-.24H.83Z"/><path class="cls-1" d="M9.9,14.42l-.09,0-.11,0v-.11l.07,0,.11,0,0,.07Zm9.69,1.85-.08.1-.17.06-.06-.1-.11-.16L19,15.88l-.21-.28-.3-.53-.22-.51-.08-.37L18.06,14l-.26-.74L17.59,13l-.16-.39-.24-.38L17,12.06l-.45-.49-.09-.28L16.1,11,15.65,11l-.48.06-.49.08-.35.15-.39.34-.36.18-.09.18-.28.21-.6.34-.11.12-.08.47v.31l-.15.16v.37l-.06.38.06.63-.06.43-.13.45-.2.35-.23.28-.38.35-.37.06-.34,0-.11-.08h-.19l-.15-.18-.1-.08v-.21l-.11-.16v-.42l.11-.28,0-.24.07-.14.12-.07v-.19l.2-.11.08-.19.13-.26.18-.08.16-.39L11,13.4l.1-.07,0-.28.08-.43v-.27l-.19-.4-.12-.37,0-.41,0-.28.06-.08,0-.15v-.08l.31-.39v-.12l.18-.2.23-.37.28-.4.06-.29,0-.22,0-.17L12,7.89,12,7.38l.18-.65,0-.37.08-.16,0-.56,0-.49,0-.47.17-.38.15-.3.19-.15.06-.28L13,3.38l.06-.18L13,3.08l0-.28-.15-.34,0-.34L12.82,2l.06-.27H13l.23-.18.13,0,.09-.16.33-.05.28.13.25.36.1.07.17.32.19.39.09.36.19.42.24.32,0,.18.16.19.11.22.2.27,0,.26.18.38,0,.17.12.21.1.36.17.31.06.51.1.36.12.52v.18l.11.28.14.49L17,9l0,.37.1.26.29.19.33.1.41,0h.38L19,10l.06.12.08.1-.08.07-.06.1-.17.18-.22,0-.08.1-.32.07-.37.16-.15.14v.25l.07.3.13.3.17.3.15.42.1.26.14.41.14.37.22.45.15.37L19,15l.1.07.14.3.15.29v.18l.1.1Zm-9.31.94,0,.08-.15,0-.06-.16.1,0h.13Zm1-8,0,.11-.1.06L11,9.25v-.1l.1-.11.12,0,0,.07Zm4.47.33-.1-.22-.21-.39,0-.37-.1-.16-.08-.22-.12-.21,0-.55L14.8,7l.08-.16-.1-.25-.14-.75-.16-.34,0-.27-.25-.3-.08-.17-.21-.45-.43.43,0,.27-.16.24v.25l0,.13-.09.43,0,.38v.11l-.1.15V7l0,.6v.28L13,8.14,13,8.4l-.11.32.18.25.49.22.51.19.43.24.24.17.41.08.29-.06.08-.06Zm-1,.05-.13,0-.1-.08,0-.08h.11l.06,0,0,.06Zm4.75.56,0,.08-.09.05h-.06v-.07l0-.08,0,0ZM19.62,17a.25.25,0,0,1-.11,0l-.06,0,0-.06.06-.07.1,0Z"/><path class="cls-1" d="M28,5.15l0,.43-.06.53-.11.41-.13.29-.09.31-.16.34-.29.19L27,8l-.3.3-.31.13-.25.16L25,8.67l-.51-.13h-.32l-.4-.18-.06-.11V8l.08-.06h.27l.3.1.33.09.59,0,.51,0L26.16,8l.21-.3.13-.31L26.79,7l.08-.3.18-.28.09-.47,0-.81-.11-.4V4.3l-.16-.37-.33-.62-.08-.25L26.3,3l-.14-.36-.45-.22-.35-.13-.55-.06-.59,0-.59,0-.14.15.1.32-.15.47-.14.49-.16.55L23,4.73,23,5l0,.47-.08.43-.05.56-.11.43V7.4l-.12.51-.07.38-.06.45-.18.49-.06.47-.14.56-.09.55-.13.58-.17.6-.51,1,0,.37L21,13.7l-.12.36,0,.47-.05.32-.14.38.08.54L21,16l.06.28-.06.1-.19,0h-.1l-.1-.12-.14-.37,0-.49.06-.62.08-.56,0-.57v-.43l.16-.1.1-.26,0-.52-.09-.51.19-.34.2-.9.08-.53.11-.45-.11-.43,0-.38.13-.71,0-.72.12-.63,0-.57.13-.49L21.84,5V4.44L22,3.65l-.11-.49-.07-.51-.06-.32.11-.49.24-.23.44-.12.41.16h.29l.53-.26.51-.09.49.07.45-.13.51.11.57.21.43.3.38.4.33.62.14.2.05.34.17.29.11.41.06.39,0,.34Zm-6.69.07,0,.12-.19.11-.17-.21.17-.11Z"/><path class="cls-1" d="M29.09,14.42l-.1,0-.1,0v-.11l.06,0,.12,0,0,.07Zm9.69,1.85-.08.1-.17.06-.06-.1-.12-.16-.14-.29L38,15.6l-.3-.53-.22-.51-.09-.37L37.25,14,37,13.26,36.78,13l-.17-.39-.24-.38-.19-.17-.44-.49-.1-.28L35.29,11,34.84,11l-.48.06-.49.08-.36.15-.38.34-.37.18-.08.18-.28.21-.6.34-.11.12-.09.47v.31l-.14.16v.37l-.07.38.07.63-.07.43-.12.45-.2.35-.23.28-.39.35-.36.06-.34,0-.11-.08h-.2l-.14-.18-.11-.08v-.21l-.1-.16v-.42l.1-.28,0-.24.06-.14.13-.07v-.19l.2-.11.08-.19.13-.26.17-.08.17-.39.06-.42.11-.07,0-.28.08-.43v-.27l-.19-.4L30,11.58,30,11.17l0-.28.07-.08L30,10.66v-.08l.32-.39v-.12l.17-.2.23-.37L31,9.1,31,8.81l0-.22,0-.17.1-.53.09-.51.17-.65.05-.37.08-.16,0-.56,0-.49,0-.47.17-.38.15-.3L32,3.85l.06-.28.14-.19.06-.18-.06-.12,0-.28-.16-.34,0-.34L32,2l.06-.27h.14l.23-.18.12,0,.1-.16L33,1.28l.28.13.24.36.11.07.16.32.2.39.08.36.19.42.24.32,0,.18.17.19.1.22.2.27,0,.26.19.38,0,.17.12.21.1.36.17.31.06.51.09.36.13.52v.18l.1.28.15.49.13.45.05.37.1.26.28.19.34.1.4,0h.39l.39.08.06.12.08.1-.08.07-.06.1-.17.18-.22,0-.08.1-.33.07-.36.16-.15.14v.25l.06.3.14.3.17.3.14.42.11.26.13.41.15.37.22.45.14.37.09.58.1.07.14.3.14.29v.18l.11.1Zm-9.32.94,0,.08-.14,0-.07-.16.11,0h.12Zm.95-8,0,.11-.09.06-.13-.09v-.1L30.28,9l.11,0,0,.07Zm4.47.33-.09-.22-.21-.39,0-.37-.11-.16-.07-.22-.12-.21,0-.55L34,7l.08-.16L34,6.6l-.13-.75-.17-.34,0-.27-.24-.3-.08-.17-.21-.45-.43.43,0,.27-.15.24v.25l0,.13-.08.43,0,.38v.11l-.11.15V7l0,.6v.28l-.11.25.07.26-.12.32.18.25.49.22.51.19.43.24.24.17.42.08.28-.06.08-.06Zm-1,.05-.13,0-.1-.08,0-.08h.1l.06,0,0,.06Zm4.74.56,0,.08-.08.05h-.06v-.07l0-.08,0,0ZM38.8,17a.19.19,0,0,1-.1,0l-.07,0,0-.06.07-.07.1,0Z"/><path class="cls-1" d="M49.32,1.88l0,.3v.34l-.13.23,0,.18-.08.29-.24.31-.19.28-.09.61v.39l-.11.53,0,.28-.11.47,0,.43-.2.39-.08.49,0,.49-.64,1.34-.22.17-.06.32L47,10l-.09.49-.11.29v.41l-.25.66-.17.32-.07.5,0,.39-.1.39,0,.32-.07.35,0,.19-.18.21-.19.43H45.6l-.21,0-.09-.3-.4-.22L44.75,14l-.09-.32-.23-.39v-.26l-.22-.25.19-.38-.21-.39-.07-.57-.31-.69-.11-.6-.11-.47L43.44,9l-.08-.25-.11-.36-.17-.45-.3-.9-.35-.51-.23.43-.08.16v1.2L42,8.87l.06.53L42,10l-.1.65-.17.33-.08.53-.09.64,0,1.22-.14.3.08.27-.23.3-.38.17-.49,0-.39-.23-.11-.38-.15-.47L39.57,13V12.6l.29-.42L40,12l.17-.22.2-.45,0-.57.21-.49.07-.45.19-.35-.08-1-.11-.32-.07-.58L40.75,7l.15-.39L41,6.11l.33-.3.14-1.26.31-.39.08-.42.3-.38.11-.11.14-.11,0-.26.13-.08h.19l.13.15.07.32.12.51.1.6.16,1.41.08.64.15.38.06.41,0,.39.16.57.06.65.27.42.16.64,0,.61.14.51.16.59.1.39.09.21h.17l.13-.21.26-.22.08-.45.16-.1,0-.21.14-.51-.06-.35.06-.43L46,9.53l.2-.32.17-.38.21-.39.21-.24V7.8l.2-.38.11-.26.14-.47.08-.39,0-.61-.14-.47L47,4.73l-.18-.37V3.93l0-.55L47,3.14v-.3l.17-.21.1-.67.16-.4.16.09.37-.14.21-.25.38-.15L48.77,1,49,1.2l.13.31.13,0ZM40.71,15.56l-.2.08-.16-.08.06-.22.23.05ZM45.49,3.65l-.25.16V3.53l.23,0Z"/><path class="cls-1" d="M58.87,3.76l0,.19L58.7,4h-.15l-.3-.13L58,3.76h-.73l-.49.15L56.2,4l-.68.34-.47.08h-.31l-.29.13-.79,0H53l-.7.06-.6.12-.32.1-.2.33-.08.35L51,6.09l0,.54-.11.91,0,.19-.09.61.09.06.17,0,.26-.11.36-.32L52,7.8h.69l.9,0,.57,0,.1.08.18.15H55l.19.12.2,0,.41.14.42.06,0,.1-.07.09-.25.17h-.24l-.19,0-.71,0L54,8.83l-.73.08-.67.1-.65.05-.54.19-.51-.36-.07.57,0,.41,0,.51.13.56.19.62.19.55L52,13l.32.36.45.28.45.23.55.29.67.08.7.12.53.13.35,0,.3.09.81.13.17.14,0,.16-.07.19-.23,0-.52-.06-.53,0-.83,0-.58,0L54.07,15l-.2,0-.29-.06L53,14.78l-.39-.08-.29-.26L52,14.23,51.71,14l-.29-.49L51.09,13,51,12.54l.06-.32-.25-.47-.07-.51L50.58,11l0-.61L50.43,10l.07-.39L50.38,9l.12-.38-.16-.27.07-.12,0-.31.12-.35-.07-.34.17-.37-.06-.49V6l.14-.25,0-.37.09-.21,0-.38-.18-.22-.39-.39,0-.21,0-.36.08-.47.15-.34.39-.26.34-.11.26-.1.45.12.49.24.64,0,.87,0,1.16,0h.68l.53.15.54,0,.41.06.38.11.28.09H58l.4.23.35.22ZM52,14.49l0,.15-.19,0v-.18l.15-.1Z"/><path class="cls-1" d="M64.62,4.94l-.19.26h-.28l-.32-.12-.3-.14-.31-.23-.07-.2-.38-.09-.22-.08-.43.06h-.37l-.37,0-.52.19-.38.22-.6.55-.13.31-.2.42.06.49.16.41.17.25.54.39.31.26.37.23.28.26.34.25.68.41.35.3.25.28.24.17.06.24.35.55.14.34.09.38.15.41.13.38,0,.56-.09.42-.24.5-.12.4-.26.28-.13.26-.3.32-.27.22-.45.16-.6.11-.42.09-.48-.09-.34,0-.3-.07L60,15.13h-.15L59.77,15l0-.24.09-.12h.15v.12l.05.09.14.09.3.13.68,0,.22-.06.34,0,.44-.13.41-.18.5-.34.09-.25.2-.34.13-.37.16-.27,0-.32.1-.47-.08-.31-.09-.4-.21-.32L63.34,11l-.19-.37L63,10.3l-.25-.15-.2-.22-.29-.21L62,9.46l-.47-.21L61.26,9,61,8.91l-.3-.26-.39-.27-.21-.18-.38-.1-.37-.33L59,7.4,58.79,7l-.2-.41V5.79l.18-.45L59,4.91l.24-.36.27-.29L59.75,4l.33-.26.38-.19.33-.13.5,0,.46,0,.47-.11.41-.21.43-.13.2-.15.4.06.23.22.14.38.17.21.2.22.14.33,0,.33Zm.09.46,0,.24-.29.07-.18,0L64,5.49l.2-.17.3,0Z"/><path class="cls-1" d="M75.2,3.76l0,.19L75,4h-.15l-.3-.13-.27-.13h-.73l-.5.15L72.53,4l-.69.34-.47.08h-.3l-.29.13-.79,0h-.67l-.7.06L68,4.77l-.31.1-.2.33-.08.35-.06.54,0,.54-.11.91,0,.19-.09.61.09.06.17,0,.26-.11L68,7.93l.33-.13H69l.89,0,.58,0,.1.08.18.15h.53l.19.12.2,0,.4.14.43.06,0,.1-.07.09-.25.17H72l-.19,0-.71,0-.78.13-.73.08-.67.1-.66.05-.53.19-.51-.36-.07.57,0,.41,0,.51.13.56.18.62.2.55.6.84.32.36.45.28.45.23.55.29.67.08.7.12.53.13.34,0,.31.09.81.13.17.14,0,.16-.07.19-.24,0-.51-.06-.53,0-.83,0-.58,0L70.39,15l-.19,0-.3-.06-.58-.16-.39-.08-.29-.26-.32-.21L68,14l-.3-.49L67.42,13l-.06-.47.06-.32-.25-.47-.07-.51L66.91,11l0-.61L66.76,10l.07-.39L66.71,9l.12-.38-.16-.27.07-.12,0-.31.12-.35-.07-.34.17-.37-.06-.49V6L67,5.73l0-.37.08-.21,0-.38-.18-.22-.39-.39,0-.21,0-.36.08-.47.15-.34.38-.26.35-.11.26-.1.45.12.49.24.64,0,.87,0,1.16,0H72l.53.15.54,0,.41.06L73.8,3l.29.09h.18l.41.23.35.22ZM68.34,14.49l0,.15-.19,0v-.18l.14-.1Z"/><path class="cls-1" d="M86.93,4.94l-.2.26h-.27l-.32-.12-.31-.14-.31-.23-.06-.2-.39-.09-.22-.08-.42.06h-.37l-.37,0-.53.19-.37.22-.61.55-.12.31-.2.42,0,.49.17.41.17.25.54.39.31.26.37.23.28.26.33.25.69.41.35.3.25.28.24.17.06.24.34.55.15.34.08.38.16.41.12.38,0,.56-.08.42-.24.5-.12.4-.27.28-.12.26-.3.32-.27.22-.45.16-.61.11-.41.09-.49-.09-.33,0-.3-.07-.23-.12h-.16L82.08,15l0-.24.08-.12h.16v.12l0,.09.15.09.3.13.68,0,.22-.06.33,0,.45-.13.41-.18.5-.34.08-.25.21-.34.13-.37.15-.27,0-.32.11-.47-.09-.31-.08-.4-.22-.32-.1-.38-.19-.37-.14-.34-.25-.15-.2-.22-.29-.21-.26-.26-.47-.21L83.57,9l-.31-.06L83,8.65l-.39-.27-.21-.18L82,8.1l-.36-.33-.32-.37L81.1,7l-.2-.41V5.79l.18-.45.21-.43.24-.36.27-.29L82.06,4l.32-.26.39-.19.33-.13.49,0,.47,0,.47-.11.41-.21.43-.13.19-.15.41.06.23.22.14.38.16.21.21.22.14.33,0,.33ZM87,5.4l0,.24-.28.07-.19,0-.22-.2.2-.17.31,0Z"/><path class="cls-1" d="M98.53,3l-.2.09-.14,0L97.76,3l-.59-.07h-.69l-.84.05-.89.13-.81,0-.71.14-.57.11-.63.2-.47.12-.45.11L91,3.93l-.28.17-.37.2-.43.12-.57.09-.57,0-.52-.17-.3-.2L87.63,4l-.27-.24,0-.29,0-.34.19-.26.17-.17L88,2.57l.43-.22.41-.11.65-.06h.69l.9.06H92l1-.06.79,0,.35-.06.45,0L95,2.06l.53.1.49,0,.45,0,.85.11h.41l.69.34.1.19ZM90.42.71l-.14.17L90.11.71l.11-.22.2.06Zm2.62,4-.11.18-.08.43v.39l-.07.49v.43l0,.34-.08.29.08.24-.14.27,0,.37v.32l-.08.41,0,.47,0,.36,0,.43-.08.49,0,.47v.39l0,.49,0,.53,0,.51v.55l-.07.48,0,.45V15l0,.45,0,.45-.14.15,0-.11-.06-.2.06-.33,0-.41-.1-.24,0-.4L92,14.11,92,13.78V12.72l-.08-.35V12l0-.41v-.49l0-.41v-.42l0-.43V9.25l0-.58V7.75l0-.33.09-.33v-.4l0-.51-.17-.49-.11-.45-.16-.35-.05-.34V4.26L91.5,4l.26-.26.33,0,.27.1.3.25.23.28Z"/><path class="cls-1" d="M105.67.75l-.06.23-.11.26-.22.23-.27.22-.2.29-.18.16-.18.21-.19.38-.2.33-.14.38-.15.37-.2.43-.1.41-.11.48V6l0,.43-.17.44-.09.37-.29.37-.07.18-.23.18-.31.34-.2.43-.14.49-.1.21-.07.41-.1.43-.13.53-.07.53-.12.41-.09.49-.1.36-.18.47-.1.54-.09.6v.41l-.08.42.08.41,0,.19-.06.15,0,.44-.08.31-.09.14-.11.05h-.1l-.11-.11-.11-.39-.11-.49-.16-1.23.06-.5V13.5l0-.45.06-.27-.06-.36v-.35l-.21-.94,0-.49-.16-.34.07-.41-.11-.36-.06-.32-.17-.3L99,8.76l-.17-.22-.28-.14-.14-.26L98.32,8l.07-.18.14-.31.17-.3-.06-.23-.32-.33L98,6.2l-.28-.33-.41-.49-.47-.55-.34-.49-.21-.28L96,3.65l-.15-.32-.06-.21.06-.37.06-.38.24-.19,0-.12.15-.1.37,0,.42-.06.43.1.43.16.38.23.3.3.3.47,0,.41,0,.51.09.55.19.63.15.38.19.51.2.39.4.86.07.21.28.28.18-.07.33.07.12-.12.09-.27.2-.47.25-.51L102,6l0-.6,0-.27.14-.48.27-.35.12-.37.26-.28.19-.43.26-.38.25-.49.24-.29.29-.41.31-.28.81-.66.1,0,.18-.07.11.07Zm0-.65-.08.22-.22-.11.07-.13.21-.08Z"/><path class="cls-1" d="M105.73,7.59l0,.12-.17.09-.1-.15.12-.17Zm7.78,6.47,0,.3-.15.24-.09.18-.18.16h-.33l-.28.08-.31.11h-.37l-.42,0-.5.08h-.32l-.36.1-.3.18-.4.13-.39.24-.32.21h-.6l-.36-.07h-.43l-.34,0-.3-.06-.32-.11-.37.05-.24-.08-.1-.16,0-.24v-.27l0-.24.12-.23-.06-.24.06-.21.06-.26v-.33l.1-.39,0-.41,0-.34.07-.33,0-.36.08-.32,0-.38,0-.22V10l0-.36V9.17l.05-.34,0-.45,0-.28,0-.3,0-.3,0-.28V6.85l0-.33,0-.32,0-.2,0-.21,0-.28,0-.21L106.5,5l-.1-.23,0-.3V4.16l0-.31,0-.32V3.25l.11-.19-.16-.18,0-.21.14-.19V2.24l.08-.26V1.67l0-.28,0-.19.19-.24.22-.19L107,.69l.26,0,.27-.09.26,0,.24.16.23.13.28.18.19.29.08.3,0,.23-.08.28,0,.21-.25.22-.16.25-.06.41-.11.28-.06.28-.06.29-.1.3v.35l-.1.33-.08.61V6l-.11.28-.06.22-.12.19,0,.28-.06.33-.08.71v.35l-.11.29,0,.39-.09.36v.35L107,10l-.05.21v.33l-.08.27,0,.28-.06.32-.11.36,0,.26,0,.43-.07.32-.06.23v.16l0,.23,0,.28.07.12.2,0,.22-.11.37,0,.41,0H108l.3.12h.34l.23-.08.28,0,.39-.14.21-.08.32,0,.41.06.39-.06.44-.1.35-.17.27-.14.06-.18.31-.17.23-.12.3.07.22.15.12.23.22.22,0,.23.06.28ZM112,10.62l-.06.13-.13-.05-.1-.18.14-.18.15.1Z"/><path class="cls-1" d="M123.09,3.76l0,.19-.15.07h-.15l-.3-.13-.27-.13h-.74l-.49.15-.55.11-.69.34-.47.08H119l-.29.13-.79,0h-.67l-.7.06-.61.12-.31.1-.2.33-.08.35-.06.54,0,.54-.11.91,0,.19-.09.61.09.06.17,0,.26-.11.35-.32.33-.13h.69l.89,0,.58,0,.1.08.18.15h.53l.19.12.2,0,.4.14.43.06,0,.1-.07.09-.25.17h-.24l-.19,0-.71,0-.78.13-.73.08-.67.1-.66.05-.53.19-.51-.36-.07.57,0,.41,0,.51.13.56.18.62.2.55.6.84.32.36.45.28.45.23.55.29.67.08.7.12.53.13.34,0,.31.09.81.13.17.14-.05.16-.06.19-.24,0-.51-.06-.53,0-.83,0-.58,0-.43-.15-.2,0-.29-.06-.58-.16-.39-.08-.29-.26-.32-.21-.29-.22-.29-.49-.32-.51-.06-.47.06-.32-.25-.47-.07-.51L114.8,11l0-.61-.11-.39.06-.39L114.6,9l.11-.38-.15-.27.07-.12,0-.31.11-.35-.06-.34.17-.37-.06-.49V6l.14-.25,0-.37.08-.21,0-.38-.19-.22-.38-.39,0-.21,0-.36.08-.47.15-.34.38-.26.35-.11.26-.1.45.12.49.24.63,0,.88,0,1.16,0h.68l.53.15.54,0,.41.06.37.11.29.09h.18l.41.23.35.22Zm-6.86,10.73,0,.15-.19,0v-.18l.14-.1Z"/></g></g></svg>