<svg xmlns="http://www.w3.org/2000/svg" viewBox="0 0 626.46 198.36"><defs><style>.cls-1{fill:#f0f4ed;}.cls-2{fill:#d13434;}.cls-3{fill:#e8c478;}.cls-4{fill:#3e3f3a;}.cls-5,.cls-6{fill:none;stroke-miterlimit:10;}.cls-5{stroke:#3e3f3a;stroke-width:1.18px;}.cls-6{stroke:#e8c478;stroke-width:0.79px;}.cls-7{fill:#403c3d;}.cls-8{fill:#244b8e;}.cls-9{fill:#1e3f77;}.cls-10{fill:#2b63ad;}.cls-11{fill:#fff;}.cls-12{fill:#274a98;}.cls-13{fill:#cfecfe;}</style></defs><title>Asset 8</title><g id="Layer_2" data-name="Layer 2"><g id="OBJECTS"><ellipse class="cls-1" cx="190.23" cy="90.6" rx="36.18" ry="57.18" transform="translate(-10.33 26.01) rotate(-7.62)"/><path class="cls-2" d="M216.93,54.31c.79,5.95-11.59,19-28.71,21.26s-32.5-7-33.29-13,13.29-6.29,30.41-8.58S216.13,48.35,216.93,54.31Z"/><path class="cls-3" d="M195.74,84.89A6,6,0,1,1,189,79.76,6,6,0,0,1,195.74,84.89Z"/><path class="cls-4" d="M191.46,86.06a1.58,1.58,0,1,1-1.77-1.36A1.58,1.58,0,0,1,191.46,86.06Z"/><line class="cls-5" x1="189.9" y1="86.26" x2="190.61" y2="91.61"/><path class="cls-6" d="M190.71,78.47a1.84,1.84,0,0,1-3.65.49,1.84,1.84,0,0,1,3.65-.49Z"/><path class="cls-6" d="M188.67,74.7c.29,2.2.39,4,.22,4s-.55-1.74-.84-3.93-.4-4-.23-4S188.37,72.51,188.67,74.7Z"/><path class="cls-1" d="M156.43,101.85c-2.15.28-5.6-3.43-9.34-8.85-.68-1-1.37-2-2.07-3.14a180.42,180.42,0,0,1-9.1-16.33c-.57-1.14-1.11-2.26-1.63-3.35-1.32-2.83-2.45-5.44-3.27-7.59h0a24.86,24.86,0,0,1-1.44-4.79,9.56,9.56,0,0,1,0-3c.83-4.72,5.79-5.68,11.38-4.7a8.52,8.52,0,0,1,3.74,1.67l.13.09c4.21,3.26,6.77,10,10.57,14.39C166.71,79.26,163.11,101,156.43,101.85Z"/><path class="cls-1" d="M144.18,54.58c-2.73,6.79-10.78,8.26-16.64,8.13s-6.49-9.4-3.36-13.14c3.3-3.94,7-5.87,13-5.74S146,50.06,144.18,54.58Z"/><path class="cls-4" d="M128.81,52.08c1.17,1.68,1.95,3.31,2.86,4.84a21.6,21.6,0,0,0,1.42,2.19,13.54,13.54,0,0,0,1.9,2,4.52,4.52,0,0,1-3-.89A7.38,7.38,0,0,1,130,57.91a9.15,9.15,0,0,1-1.08-2.82A7.43,7.43,0,0,1,128.81,52.08Z"/><path class="cls-4" d="M140.61,59.74c-.28-1-.41-2-.69-2.84a13.33,13.33,0,0,0-.92-2.48,19.91,19.91,0,0,0-3.19-4.53,5.58,5.58,0,0,1,2.93,1.17,6.9,6.9,0,0,1,2.72,5.66,6.93,6.93,0,0,1-.23,1.58A6.8,6.8,0,0,1,140.61,59.74Z"/><path class="cls-4" d="M131,62.59a2,2,0,0,0,.91,0,2.07,2.07,0,0,0,.72-.38,4.52,4.52,0,0,0,.55-.61,4,4,0,0,0,.41-.7l.15-.38.55.07a7.19,7.19,0,0,0,4.32-.55A3.44,3.44,0,0,0,140,58.65a4.83,4.83,0,0,0,.54-1.92l.06-1,.9,0a3.24,3.24,0,0,0,2.66-.84,3.11,3.11,0,0,0,.59-1.43,8.52,8.52,0,0,0,.07-1.84,4.62,4.62,0,0,1,.77,1.82,3.5,3.5,0,0,1-.23,2.16,3.33,3.33,0,0,1-1.71,1.6,5.72,5.72,0,0,1-2.13.46l1-1a6.3,6.3,0,0,1-.21,1.49,6,6,0,0,1-.54,1.38,5.09,5.09,0,0,1-2.16,2.1,6.53,6.53,0,0,1-2.82.61,10.41,10.41,0,0,1-2.65-.41l.7-.31a4.72,4.72,0,0,1-.78.77,3.15,3.15,0,0,1-.94.54,2.15,2.15,0,0,1-1.09.13A1.83,1.83,0,0,1,131,62.59Z"/><path class="cls-3" d="M149.58,92.05a7.47,7.47,0,0,1-2.49,1c-.68-1-1.37-2-2.07-3.14a180.42,180.42,0,0,1-9.1-16.33c-.57-1.14-1.11-2.26-1.63-3.35A8.55,8.55,0,0,1,135.78,69c4.73-2.82,11.65,0,15.46,6.4S154.3,89.22,149.58,92.05Z"/><path class="cls-7" d="M147.79,89.06a5.89,5.89,0,0,1-2.77.8,180.42,180.42,0,0,1-9.1-16.33A5.62,5.62,0,0,1,137.58,72c3.49-2.09,8.62,0,11.43,4.73S151.28,87,147.79,89.06Z"/><path class="cls-1" d="M216.69,56.61s13.23,16.74,16.55,24.87S224,97.57,224,97.57L204.6,80.62Z"/><ellipse class="cls-3" cx="199.85" cy="115.63" rx="24.29" ry="18.46" transform="translate(45.12 287.01) rotate(-77.97)"/><path class="cls-4" d="M192.68,95.17a72.8,72.8,0,0,1,6.8,2.86q3.32,1.57,6.53,3.35t6.32,3.72a73,73,0,0,1,6.06,4.22,72.8,72.8,0,0,1-6.8-2.86q-3.32-1.58-6.53-3.35t-6.33-3.73A70.42,70.42,0,0,1,192.68,95.17Z"/><path class="cls-4" d="M190.58,100.27a72.8,72.8,0,0,1,6.8,2.86q3.31,1.58,6.53,3.35t6.33,3.72a70.42,70.42,0,0,1,6,4.21,70.15,70.15,0,0,1-6.8-2.85Q206.18,110,203,108.2c-2.14-1.18-4.25-2.41-6.32-3.72A72.89,72.89,0,0,1,190.58,100.27Z"/><path class="cls-4" d="M188.48,105.36a72.8,72.8,0,0,1,6.8,2.86c2.22,1.06,4.39,2.18,6.53,3.35s4.26,2.42,6.33,3.72a71.22,71.22,0,0,1,6.05,4.22,72.8,72.8,0,0,1-6.8-2.86c-2.21-1.05-4.38-2.17-6.53-3.35s-4.25-2.42-6.32-3.72A73,73,0,0,1,188.48,105.36Z"/><path class="cls-4" d="M186.39,110.46a72.8,72.8,0,0,1,6.8,2.86c2.21,1.05,4.38,2.17,6.53,3.35s4.25,2.42,6.32,3.72a73,73,0,0,1,6.06,4.22,71.88,71.88,0,0,1-6.81-2.86q-3.31-1.57-6.52-3.35t-6.33-3.73A68.89,68.89,0,0,1,186.39,110.46Z"/><path class="cls-4" d="M184.29,115.56a72.8,72.8,0,0,1,6.8,2.86c2.21,1,4.38,2.17,6.53,3.35s4.25,2.41,6.32,3.72A70.57,70.57,0,0,1,210,129.7a69.11,69.11,0,0,1-6.8-2.85c-2.22-1.06-4.39-2.18-6.53-3.36s-4.25-2.41-6.33-3.72A72.74,72.74,0,0,1,184.29,115.56Z"/><path class="cls-4" d="M182.19,120.65a72.8,72.8,0,0,1,6.8,2.86q3.31,1.59,6.53,3.35t6.33,3.72a72.86,72.86,0,0,1,6.05,4.22,72.8,72.8,0,0,1-6.8-2.86q-3.32-1.58-6.53-3.35t-6.32-3.72A73,73,0,0,1,182.19,120.65Z"/><path class="cls-1" d="M216.81,99.9c-7.25,1-12.52-5.27-15.31-10.42s4.95-10.29,9.75-9.43c5.05.91,8.58,3.2,11.4,8.41S221.64,99.24,216.81,99.9Z"/><path class="cls-4" d="M212.46,86a25.43,25.43,0,0,1-2.72,4.8c-.49.73-1,1.44-1.53,2.16l-1.64,2.24a5.94,5.94,0,0,1,.25-2.93,10.15,10.15,0,0,1,1.3-2.59A11.63,11.63,0,0,1,210,87.52,8.24,8.24,0,0,1,212.46,86Z"/><path class="cls-4" d="M210.55,99.36c.77-.76,1.51-1.33,2.14-2a13.32,13.32,0,0,0,1.69-2,20.14,20.14,0,0,0,2.35-5,5.47,5.47,0,0,1,.44,3.12,7,7,0,0,1-3.57,5.17,6.41,6.41,0,0,1-1.48.58A6.87,6.87,0,0,1,210.55,99.36Z"/><path class="cls-4" d="M201.56,84.71a11.6,11.6,0,0,0,1.06,6A8.2,8.2,0,0,0,204.4,93a7.37,7.37,0,0,0,2.4,1.52l.27.1.13.32a10.16,10.16,0,0,0,1.05,1.93,4,4,0,0,0,1.37,1.35,2.36,2.36,0,0,0,1.63.3,4.29,4.29,0,0,0,1.7-.68l.9-.64.53.91a4.56,4.56,0,0,0,2,2.13,2.8,2.8,0,0,0,2.59-.87,15.44,15.44,0,0,0,2.37-2.63c.71-1,1.39-2,2-3.07a18.81,18.81,0,0,1-1.31,3.51,13,13,0,0,1-2.13,3.21,5.85,5.85,0,0,1-1.67,1.27,3.39,3.39,0,0,1-2.36.26,4.52,4.52,0,0,1-2-1.2,8.29,8.29,0,0,1-1.24-1.65l1.42.27a6.17,6.17,0,0,1-1.24.73,4.87,4.87,0,0,1-1.38.39,4.32,4.32,0,0,1-2.9-.64,5.75,5.75,0,0,1-1.81-2.08,11.07,11.07,0,0,1-.88-2.38l.41.42a8.53,8.53,0,0,1-2.72-2A8.7,8.7,0,0,1,201.89,91,10.92,10.92,0,0,1,201.56,84.71Z"/><path class="cls-1" d="M167.56,24.33c2.27,8.36-1.2,16.58-7.76,18.36s-13.72-3.54-16-11.89-5.67-20.07,2-22S165.28,16,167.56,24.33Z"/><path class="cls-2" d="M163.83,24.66c1.6,5.86-.83,11.63-5.43,12.88s-9.62-2.48-11.22-8.34-5.23-13.9.13-15.26S162.24,18.8,163.83,24.66Z"/><path class="cls-1" d="M194.69,20.7c0,8.66,5.51,15.68,12.3,15.68s12.31-7,12.31-15.68S219.49-.14,211.61,0,194.69,12,194.69,20.7Z"/><path class="cls-2" d="M197.39,20.22c0,6.76,4.3,12.24,9.6,12.24S216.6,27,216.6,20.22s1.08-16.4-5.07-16.29S197.39,13.46,197.39,20.22Z"/><path class="cls-1" d="M218.46,37.76c2.12,15.87-11.68,30.81-30.84,33.37S151.23,62.9,149.11,47C147.63,36,153.88,25.38,164.28,19.1c0,0,0,0,0,0,.41-.24.82-.48,1.24-.71a41.56,41.56,0,0,1,29.57-3.95q.71.16,1.38.36h0C208.16,18.12,217,26.71,218.46,37.76Z"/><path class="cls-3" d="M196.92,16.74C197.87,23.87,191,28,182,29.16s-16.7-.94-17.65-8.07a11.09,11.09,0,0,1-.08-2s0,0,0,0c.41-.24.82-.48,1.24-.71a41.56,41.56,0,0,1,29.57-3.95c.46.11.93.23,1.38.36h0A10.63,10.63,0,0,1,196.92,16.74Z"/><path class="cls-7" d="M195.21,15c.64,4.83-5.47,9.64-13.66,10.73s-15.35-1.93-16-6.77a2.93,2.93,0,0,1,0-.59,41.56,41.56,0,0,1,29.57-3.95A3.73,3.73,0,0,1,195.21,15Z"/><path class="cls-4" d="M161.79,42.43a6.24,6.24,0,0,1,7.67-5,10.48,10.48,0,0,1,2.37.87l1,.66a6.34,6.34,0,0,1,1,.72,18,18,0,0,1,1.71,1.67,19.78,19.78,0,0,1,1.39,1.91c-.72-.36-1.37-.77-2-1.17S173.59,41.4,173,41s-1.31-.64-1.95-1c-.34-.11-.66-.23-1-.35a4.06,4.06,0,0,0-1-.27,6,6,0,0,0-3.86.29A9.59,9.59,0,0,0,161.79,42.43Z"/><path class="cls-4" d="M205,36.65a9.58,9.58,0,0,0-4-1.74,5.93,5.93,0,0,0-3.8.73,4,4,0,0,0-.88.53c-.29.19-.57.4-.87.59-.53.48-1.09.94-1.63,1.45s-1.08,1-1.58,1.61a23.28,23.28,0,0,1-1.64,1.66,20.44,20.44,0,0,1,.84-2.21,17.89,17.89,0,0,1,1.21-2.06,6.21,6.21,0,0,1,.76-1l.82-.91a10.49,10.49,0,0,1,2.06-1.46,6.24,6.24,0,0,1,8.7,2.76Z"/><path class="cls-2" d="M188.88,48.08c.14,1.07-1.55,3-3.9,3.28s-4.48-1.07-4.62-2.14,1.65-2.18,4-2.5S188.73,47,188.88,48.08Z"/><path class="cls-2" d="M173.33,59.29c1.37-.25,2.69-.49,4-.79A20,20,0,0,0,181,57.28,7,7,0,0,0,183.84,55,7.68,7.68,0,0,0,185,51.36a6.08,6.08,0,0,1,.36,2.09,5.35,5.35,0,0,1-.49,2.16,6.62,6.62,0,0,1-3.22,3,11.93,11.93,0,0,1-4.14,1A12.92,12.92,0,0,1,173.33,59.29Z"/><path class="cls-2" d="M198.3,56a12.64,12.64,0,0,1-3.92,1.43,11.7,11.7,0,0,1-4.26.1,6.58,6.58,0,0,1-3.9-2.06,5.35,5.35,0,0,1-1-2,5.85,5.85,0,0,1-.2-2.11,7.53,7.53,0,0,0,2.07,3.24A7,7,0,0,0,190.38,56a19,19,0,0,0,3.87.2C195.57,56.19,196.91,56.07,198.3,56Z"/><path class="cls-4" d="M205.77,42.36a8.58,8.58,0,0,1,1.94-2.55A10.76,10.76,0,0,1,210.35,38a8.57,8.57,0,0,1,3.17-.85,5,5,0,0,1,3.17.85,14.43,14.43,0,0,0-2.89.68,23.53,23.53,0,0,0-2.6,1.1C209.47,40.59,207.79,41.56,205.77,42.36Z"/><path class="cls-4" d="M207.47,44.62a7.15,7.15,0,0,1,2.51-1,10.71,10.71,0,0,1,2.65-.21,9.43,9.43,0,0,1,2.62.46,6.63,6.63,0,0,1,2.39,1.29,18.9,18.9,0,0,1-2.62.24c-.84,0-1.66,0-2.48,0s-1.65-.11-2.48-.21A15.9,15.9,0,0,1,207.47,44.62Z"/><path class="cls-4" d="M162.55,48.14c-2.15-.24-4-.74-5.92-1.06a24.27,24.27,0,0,0-2.79-.38,14.41,14.41,0,0,0-3,.1,5,5,0,0,1,2.83-1.65,8.47,8.47,0,0,1,3.29,0,10.51,10.51,0,0,1,3,1A8.26,8.26,0,0,1,162.55,48.14Z"/><path class="cls-4" d="M161.51,50.76A15.36,15.36,0,0,1,159.15,52c-.78.32-1.56.61-2.34.86s-1.58.47-2.39.67a17.85,17.85,0,0,1-2.59.46,6.9,6.9,0,0,1,2-1.88,10.2,10.2,0,0,1,2.41-1.13,10,10,0,0,1,2.6-.48A7.17,7.17,0,0,1,161.51,50.76Z"/><path class="cls-3" d="M445.25,117.86a6.5,6.5,0,1,1-4.35-8.09A6.5,6.5,0,0,1,445.25,117.86Z"/><rect class="cls-3" x="401.73" y="24.8" width="2.36" height="105.49" transform="translate(56.14 296.86) rotate(-43.21)"/><rect class="cls-3" x="412.92" y="16.76" width="2.36" height="105.49" transform="translate(16.32 203.97) rotate(-28.21)"/><rect class="cls-3" x="425.79" y="11.89" width="2.36" height="105.49" transform="translate(-3.48 99.25) rotate(-13.21)"/><rect class="cls-3" x="387.93" y="62.09" width="105.49" height="2.36" transform="translate(363.56 501.73) rotate(-88.2)"/><rect class="cls-3" x="401.52" y="64.32" width="105.49" height="2.36" transform="translate(260.33 481.47) rotate(-73.21)"/><rect class="cls-3" x="414.07" y="69.98" width="105.49" height="2.36" transform="translate(160.38 430.43) rotate(-58.21)"/><rect class="cls-3" x="424.7" y="78.65" width="105.65" height="2.36" transform="translate(74.79 348.55) rotate(-43.2)"/><rect class="cls-3" x="432.74" y="89.8" width="105.85" height="2.36" transform="translate(14.63 240.22) rotate(-28.19)"/><rect class="cls-3" x="437.62" y="102.69" width="106.11" height="2.36" transform="translate(-10.75 114.96) rotate(-13.22)"/><polygon class="cls-3" points="438.74 118.19 356.4 50.22 357.9 48.4 439.47 115.74 544.67 104.64 544.92 106.98 438.74 118.19"/><path class="cls-1" d="M544.79,105.81l-66.59,7a39.31,39.31,0,0,0-69.93-21.33l-51.12-42.2a106.29,106.29,0,0,1,187.64,56.5Z"/><circle class="cls-2" cx="459.63" cy="47.94" r="25.56" transform="translate(166.36 405.07) rotate(-56.56)"/><polygon class="cls-8" points="626.46 198.37 0 198.37 56.3 172.25 74.37 163.88 228.61 92.31 323.25 104.66 332.42 105.85 430.86 118.68 432.83 118.94 486.96 129.23 522.11 146.66 533.14 152.13 555.06 163 626.46 198.37"/><path class="cls-9" d="M626.46,198.36H393.59c-23.77-12.67-16-30.2-23.77-30.2-3.54,0-4.58-12.78,0-18l-16.13-16.39c20.61-7.84,49.24-13.38,77.17-15.08l2,.26L487,129.23l35.15,17.43,11,5.47L555.06,163Z"/><path class="cls-10" d="M369.82,168.16c-13.75,3.21-22.11-22.63-34.82-12.8-4.67,3.61-14.88-5.73-21.77-6.32-5.38-.46-14.79,7.54-19,4.67-6.33-4.33.29-13.8-6.23-8.37-2.16,1.78-24.29,15.35-26.87,16-4.44,1.14,7.53-15,3.82-16-17.24-4.7-13,16-31.1,17-11.24.61-14.4-6.5-16.76-13.42-2.45-7.15-9.91,9.52-18,11.41-5.72,1.32-12.14,7-18.63,5.33-5.82-1.48-6.45-5.82-13.58-6-16.54-.34-31.26,12.84-47.23,14.47,5.65-3.28,23.92-16.49,23.31-22.8-10.31-3.45-32.3,4.09-42.47,8.13-13.36,5.3-28.84,11.49-44.23,12.8l18.07-8.37L228.61,92.31,341.79,115s13.38,12.27,20.39,18.8C370,141.05,369.82,168.16,369.82,168.16Z"/><path class="cls-11" d="M487,129.23a173.88,173.88,0,0,1-19.64.05c-6.24-.29-14.86-3.22-20.81-1.23,2.7,1.29,7,2.4,7.48,5.71-5-.46-10-3.76-15.18-4.79-3.66-.74-8.91-.82-13-2.19a9.73,9.73,0,0,1,3.35,3.27c-11.14-2.54-24.08-11.46-35.57-10.56,2.19,1.32,6.1,3,7.56,5.25-3.43-1.23-7.5-.68-11.21-1.5-4.1-.91-8.09-2.72-12.15-3.32a17.08,17.08,0,0,1,4.89,5.7,45.14,45.14,0,0,1-12-2c-2.89-.78-5.76-1.68-8.64-2.37-9-2.18-14.75-5.84-20.23-6.29h0a12.38,12.38,0,0,0-8.1,2.17c-12.32,8-26.47,8.36-38.16,10.84-4.66,1-15.94,5.62-20.22,4.8,6.93-3.9,14.1-11.05,13-13.7-3.29-.5-14.79,9.56-20.14,10.17,1.21-2.35,2.82-5,3-7.56-11.8,4.18-13.51,14.71-17,15.71-3.07-6.69-8.19-15.84-13.19-16.95-8.12-1.8-7.22,3.91-31.59,10.84.74-2.53,12.15-10.18,18.05-13.85-12.64,6.62-27.55,13-33.7,11.73,1.09-2.49.34-2.84,1.82-4.66-3-1.81-20.54,7-29.8,7.07,7-5.63,12.33-7.82,16-11.73-10.64,3.28-16.82,7-26,7.1,8.5-5.3,45.11-26.95,59.95-34.63,18.06-9.32,33.51-14.09,52-22.52,5.59-2.53,36.53-14,40.08-14a45.81,45.81,0,0,1,6.3.44,49.39,49.39,0,0,1,12.32,3.47c9.45,4,16.41,9.87,21.1,12.23,12.91,6.46,24.31,13.8,38.26,18.49,7.34,2.48,13.53,7,20.84,9.6,8.94,3.2,17,7.54,25.78,11.28,5,2.16,9.43,4.89,14.67,6.53,5.89,1.85,11.83,2.92,17.79,4.48C471.76,124.07,481.37,124.79,487,129.23Z"/><path class="cls-12" d="M508.34,153.18c1.51,3.87,5.6,7.22,10,8.37-6.25,2.69-23.52-3-31-3.6-7.1-.59-29.66-7.59-35-4.07,2.12,4.79,8.57,8.81,12.71,11.73-5,4.79-17.82-3-23.95-4.17.44,14.61-34.54-4.28-41.38-8.48a42.44,42.44,0,0,0,.54,11.68c-8.56-2.41-14.11-14.09-22.77-15-2.83-.3-5.94,11.51-7.64,18.53-5.28-5-2.57-22.33-6.22-27.11-5.9-7.72-16.12-8-22.07-15.54-2.85-3.63,2.17-6.67.26-10.55l91,4L487,129.23l35.15,17.43,11,5.47L555.06,163C539.78,164.34,519.39,159.82,508.34,153.18Z"/><path class="cls-13" d="M487,129.23a173.88,173.88,0,0,1-19.64.05c-6.24-.29-14.86-3.22-20.81-1.23,2.7,1.29,7,2.4,7.48,5.71-5-.46-10-3.76-15.18-4.79-3.66-.74-8.91-.82-13-2.19a9.73,9.73,0,0,1,3.35,3.27c-11.14-2.54-24.08-11.46-35.57-10.56,2.19,1.32,6.1,3,7.56,5.25-3.43-1.23-7.5-.68-11.21-1.5-4.1-.91-8.09-2.72-12.15-3.32a17.08,17.08,0,0,1,4.89,5.7,45.14,45.14,0,0,1-12-2c-2.89-.78-5.76-1.68-8.64-2.37-9-2.18-14.75-5.84-20.23-6.29h0c-1.15-25.77-26.92-17.35-13.91-28.1,7.4-6.11-11.15-8.72-16.87-17.2-.66-1,4.64-12.36,3.1-13.47a49.39,49.39,0,0,1,12.32,3.47c9.45,4,16.41,9.87,21.1,12.23,12.91,6.46,24.31,13.8,38.26,18.49,7.34,2.48,13.53,7,20.84,9.6,8.94,3.2,17,7.54,25.78,11.28,5,2.16,9.43,4.89,14.67,6.53,5.89,1.85,11.83,2.92,17.79,4.48C471.76,124.07,481.37,124.79,487,129.23Z"/></g></g></svg>