<svg xmlns="http://www.w3.org/2000/svg" viewBox="0 0 632.91 365.41"><defs><style>.cls-1{font-size:28.27px;fill:#d13434;font-family:Gilroy-ExtraBold, Gilroy ExtraBold;font-weight:800;}.cls-2{letter-spacing:-0.04em;}.cls-3{letter-spacing:-0.02em;}.cls-4{letter-spacing:-0.04em;}.cls-5{letter-spacing:-0.03em;}.cls-6{letter-spacing:0em;}.cls-7{letter-spacing:-0.08em;}.cls-8{letter-spacing:0em;}.cls-9{fill:#244b8e;}.cls-10{font-size:14.13px;}.cls-10,.cls-22,.cls-26,.cls-33{fill:#fff;}.cls-10,.cls-22{font-family:Montserrat-Bold, Montserrat;font-weight:700;}.cls-11,.cls-26{font-size:9.42px;font-family:Montserrat-Regular, Montserrat;}.cls-11{fill:#1d262d;}.cls-12{letter-spacing:-0.01em;}.cls-13{letter-spacing:-0.01em;}.cls-14{letter-spacing:0em;}.cls-15{letter-spacing:0.01em;}.cls-16{letter-spacing:-0.01em;}.cls-17{letter-spacing:0.01em;}.cls-18{letter-spacing:-0.02em;}.cls-19{letter-spacing:0em;}.cls-20{letter-spacing:0.01em;}.cls-21{letter-spacing:-0.01em;}.cls-22{font-size:10.99px;}.cls-23{letter-spacing:-0.03em;}.cls-24{letter-spacing:0em;}.cls-25{letter-spacing:-0.01em;}.cls-27{letter-spacing:0.02em;}.cls-28{letter-spacing:-0.02em;}.cls-29{letter-spacing:0em;}.cls-30{letter-spacing:0.01em;}.cls-31{letter-spacing:-0.03em;}.cls-32{letter-spacing:-0.01em;}.cls-34{fill:#2d7bae;}</style></defs><title>Asset 7</title><g id="Layer_2" data-name="Layer 2"><g id="OBJECTS"><text class="cls-1" transform="translate(190.36 281.55)">WE<tspan class="cls-2" x="37.82" y="0">L</tspan><tspan class="cls-3" x="50.06" y="0">C</tspan><tspan x="65.87" y="0">OME</tspan><tspan class="cls-4" x="121.98" y="0"> </tspan><tspan class="cls-5" x="126.82" y="0">T</tspan><tspan class="cls-6" x="140.1" y="0">O JA</tspan><tspan class="cls-7" x="193.33" y="0">P</tspan><tspan class="cls-8" x="206" y="0">AN</tspan></text><rect class="cls-9" x="257.71" y="338.71" width="107.2" height="26.7"/><text class="cls-10" transform="translate(265.48 356.64)">READ MORE</text><text class="cls-11" transform="translate(212.43 300.08)"><tspan class="cls-12">L</tspan><tspan x="5.48" y="0">o</tspan><tspan class="cls-13" x="11.38" y="0">r</tspan><tspan x="15.04" y="0">em ipsum dolor sit a</tspan><tspan class="cls-14" x="111.52" y="0">m</tspan><tspan x="121.54" y="0">e</tspan><tspan class="cls-15" x="127.23" y="0">t</tspan><tspan x="131.15" y="0">, </tspan><tspan class="cls-16" x="135.62" y="0">c</tspan><tspan x="140.84" y="0">onse</tspan><tspan class="cls-17" x="163.42" y="0">c</tspan><tspan class="cls-18" x="168.78" y="0">t</tspan><tspan x="172.43" y="0">etuer </tspan><tspan class="cls-14" x="3.56" y="11.31">a</tspan><tspan x="9.14" y="11.31">dipisci</tspan><tspan class="cls-19" x="39.43" y="11.31">n</tspan><tspan x="45.83" y="11.31">g eli</tspan><tspan class="cls-20" x="65.52" y="11.31">t</tspan><tspan x="69.44" y="11.31">, sed diam </tspan><tspan class="cls-19" x="120.01" y="11.31">n</tspan><tspan x="126.41" y="11.31">onum</tspan><tspan class="cls-21" x="155.04" y="11.31">m</tspan><tspan x="164.94" y="11.31">y nibh </tspan><tspan x="55.13" y="22.62">euis</tspan><tspan class="cls-14" x="74.31" y="22.62">m</tspan><tspan x="84.33" y="22.62">od ti</tspan><tspan class="cls-19" x="105.45" y="22.62">n</tspan><tspan x="111.85" y="22.62">cidunt</tspan></text><text class="cls-22" transform="translate(0.15 9.34)"><tspan class="cls-23">Y</tspan><tspan class="cls-24" x="7.1" y="0">OUR</tspan><tspan class="cls-25" x="33.12" y="0">L</tspan><tspan x="39.63" y="0">OGO</tspan></text><text class="cls-26" transform="translate(238.86 9.3)">Ho<tspan class="cls-19" x="13.57" y="0">m</tspan><tspan x="23.59" y="0" xml:space="preserve">e          Se</tspan><tspan class="cls-27" x="65.45" y="0">r</tspan><tspan x="69.37" y="0">vi</tspan><tspan class="cls-16" x="77.01" y="0">c</tspan><tspan x="82.23" y="0" xml:space="preserve">es          About          </tspan><tspan class="cls-28" x="171.13" y="0">C</tspan><tspan class="cls-29" x="177.69" y="0">ont</tspan><tspan class="cls-19" x="193.8" y="0">a</tspan><tspan class="cls-30" x="199.38" y="0">c</tspan><tspan x="204.74" y="0" xml:space="preserve">t          </tspan><tspan class="cls-31" x="233.26" y="0">F</tspan><tspan class="cls-32" x="238.91" y="0">A</tspan><tspan x="245.57" y="0">Q</tspan></text><path class="cls-33" d="M632.42,2.66H623a.48.48,0,0,1-.49-.49h0a.48.48,0,0,1,.49-.49h9.44a.49.49,0,0,1,.49.49h0A.49.49,0,0,1,632.42,2.66Z"/><path class="cls-33" d="M632.42,6.32H623a.48.48,0,0,1-.49-.49h0a.48.48,0,0,1,.49-.49h9.44a.49.49,0,0,1,.49.49h0A.49.49,0,0,1,632.42,6.32Z"/><path class="cls-33" d="M632.42,10H623a.48.48,0,0,1-.49-.49h0A.48.48,0,0,1,623,9h9.44a.49.49,0,0,1,.49.49h0A.49.49,0,0,1,632.42,10Z"/><rect class="cls-33" x="516.92" y="0.5" width="93.69" height="10.67" rx="5.34"/><path class="cls-34" d="M606.23,9.25h0a.68.68,0,0,1-1,0l-2.94-2.94a.68.68,0,0,1,0-.95h0a.68.68,0,0,1,.95,0l2.94,2.94A.68.68,0,0,1,606.23,9.25Z"/><path class="cls-34" d="M603.9,3A2.75,2.75,0,1,1,600,3,2.76,2.76,0,0,1,603.9,3Z"/><circle class="cls-33" cx="601.95" cy="4.97" r="1.68"/></g></g></svg>