<svg xmlns="http://www.w3.org/2000/svg" viewBox="0 0 14.75 10.25"><defs><style>.cls-1{fill:#b20053;}</style></defs><title>Asset 45</title><g id="Layer_2" data-name="Layer 2"><g id="LANDSCAPE"><path class="cls-1" d="M1.58,3.17,0,4.17,1.25,5V6.5L.67,7.75l2.41-.08.34-1.34L4.58,9l-.66,1.25,1.75-.67L5.5,7.92s1.08.33,1.17.58a17.05,17.05,0,0,0,1.58,1.75l.67-2-2.42-1L8,5.58l2.42-.08.33,2.58,4-2.5L14,4.33l-.42-1.25-2.91.17.66,1.33L8.75,2.92l1.33-1.67L8.25,0S6.67.83,6.75,1.42a20.38,20.38,0,0,0,1,2.66l-2.17-2L3.42,1.75,3.75,3l1.17.92-2.59.5V2.83L.83,1.25l.42,1.92"/></g></g></svg>