<svg xmlns="http://www.w3.org/2000/svg" viewBox="0 0 218.47 104.72"><defs><style>.cls-1{fill:#f7e5ef;}.cls-2{fill:#e17794;}.cls-3{fill:#b20053;}</style></defs><title>Asset 47</title><g id="Layer_2" data-name="Layer 2"><g id="LANDSCAPE"><path class="cls-1" d="M115.17,63.78s-1.64-1.78-1.38-3.39a4.49,4.49,0,0,1,1.73-3l.85,1.09,1-.73a4.09,4.09,0,0,1,.48,3.56A4.4,4.4,0,0,1,115.17,63.78Z"/><path class="cls-1" d="M154.65,45.59s1.16-2.17,2.78-2.39a4.52,4.52,0,0,1,3.39.79c-.38.52-.8,1.13-.8,1.13l1,.76a4.08,4.08,0,0,1-3.27,1.48A4.2,4.2,0,0,1,154.65,45.59Z"/><path class="cls-2" d="M148.24,62s1.16-2.17,2.78-2.39a4.47,4.47,0,0,1,3.39.79c-.38.52-.8,1.13-.8,1.13l1,.75a4.07,4.07,0,0,1-3.27,1.49A4.2,4.2,0,0,1,148.24,62Z"/><path class="cls-1" d="M147.63,81.65s1.16-2.17,2.78-2.38a4.49,4.49,0,0,1,3.39.78c-.38.52-.8,1.13-.8,1.13l1,.76a4.08,4.08,0,0,1-3.27,1.48A4.17,4.17,0,0,1,147.63,81.65Z"/><path class="cls-2" d="M187.36,47.51s1.16-2.17,2.78-2.39a4.49,4.49,0,0,1,3.39.79c-.38.52-.8,1.13-.8,1.13l1,.76a4.08,4.08,0,0,1-3.27,1.48A4.2,4.2,0,0,1,187.36,47.51Z"/><path class="cls-2" d="M174.28,20.9s1.17-2.17,2.78-2.39a4.45,4.45,0,0,1,3.39.79c-.38.52-.8,1.12-.8,1.12l1,.76a4,4,0,0,1-3.27,1.49A4.2,4.2,0,0,1,174.28,20.9Z"/><path class="cls-1" d="M208.09,19A4.67,4.67,0,0,1,211,20.71a4.52,4.52,0,0,1,.61,3.43c-.63-.15-1.36-.29-1.36-.29l-.3,1.2a4,4,0,0,1-2.66-2.42C206.6,20.87,208.09,19,208.09,19Z"/><path class="cls-1" d="M188.92,29.06a4.64,4.64,0,0,1,3,1.73,4.48,4.48,0,0,1,.61,3.43l-1.35-.29-.31,1.21a4.07,4.07,0,0,1-2.65-2.42C187.44,31,188.92,29.06,188.92,29.06Z"/><path class="cls-3" d="M77.57,41.35s.3,2.63-.8,3.83a4.46,4.46,0,0,1-3.1,1.57c0-.64-.11-1.38-.11-1.38l-1.25.06a4.07,4.07,0,0,1,1.55-3.24A5.21,5.21,0,0,1,77.57,41.35Z"/><path class="cls-3" d="M93.16,55.48S93.58,52.87,95,52a4.53,4.53,0,0,1,3.42-.68c-.13.63-.27,1.36-.27,1.36l1.22.29A4.09,4.09,0,0,1,97,55.67,5.19,5.19,0,0,1,93.16,55.48Z"/><path class="cls-1" d="M218.44.05s.3,2.63-.8,3.84a4.52,4.52,0,0,1-3.11,1.57c0-.65-.11-1.38-.11-1.38l-1.24,0A4,4,0,0,1,214.73.9,5.18,5.18,0,0,1,218.44.05Z"/><path class="cls-2" d="M136.81,56.29s-2.31,1.35-3.7.5a4.84,4.84,0,0,1-2.37-2.67c.62-.16,1.45-.41,1.45-.41l-.42-1.22a4.44,4.44,0,0,1,3.71.88A3.66,3.66,0,0,1,136.81,56.29Z"/><path class="cls-1" d="M180.67,62.56s-2.32,1.35-3.71.5a4.87,4.87,0,0,1-2.37-2.66L176,60l-.42-1.22a4.48,4.48,0,0,1,3.71.88A3.65,3.65,0,0,1,180.67,62.56Z"/><path class="cls-3" d="M6.07,77.61s-2.31,1.36-3.7.51A4.84,4.84,0,0,1,0,75.45L1.45,75,1,73.82a4.46,4.46,0,0,1,3.71.87A3.67,3.67,0,0,1,6.07,77.61Z"/><path class="cls-3" d="M184,37.16s-2.32,1.36-3.71.51A4.92,4.92,0,0,1,178,35l1.46-.42L179,33.36a4.48,4.48,0,0,1,3.71.88A3.67,3.67,0,0,1,184,37.16Z"/><path class="cls-1" d="M153,103.94s-2.31,1.35-3.7.5a4.84,4.84,0,0,1-2.37-2.67c.62-.16,1.46-.41,1.46-.41l-.43-1.22a4.44,4.44,0,0,1,3.71.88A3.62,3.62,0,0,1,153,103.94Z"/><path class="cls-1" d="M121.65,74.85s-.42-2.65.88-3.63A4.85,4.85,0,0,1,125.88,70c-.07.64-.14,1.5-.14,1.5l1.28.05a4.46,4.46,0,0,1-2.17,3.14A3.68,3.68,0,0,1,121.65,74.85Z"/></g></g></svg>