<svg xmlns="http://www.w3.org/2000/svg" viewBox="0 0 18.96 13.11"><defs><style>.cls-1{fill:#b20053;}</style></defs><title>Asset 46</title><g id="Layer_2" data-name="Layer 2"><g id="LANDSCAPE"><path class="cls-1" d="M2.23,1.61,1.49,4.7,2.73,6.61V8.86L0,10.07l4.73,3,1.83-1a1.74,1.74,0,0,0,1.67-1.51,12.46,12.46,0,0,0,0-3.25s2.5-1.75,3.5,0,2,2.75,2.25,3.5,4.75-1.75,4.75-1.75.75-.5-.5-1S13.18,6,13.18,6l2.05-2.35s.84-.34-.08-1.29A25.8,25.8,0,0,1,13.25,0,10.72,10.72,0,0,1,12,2.61a9.84,9.84,0,0,1-2.75,2L8.18,2.76S8,.11,7.23,1.11,5.46,3.76,5.46,3.76,3.47,1,5,3.93,3.48,7.11,3.48,7.11Z"/></g></g></svg>