<svg xmlns="http://www.w3.org/2000/svg" viewBox="0 0 58.64 17.74"><defs><style>.cls-1{fill:#282828;}</style></defs><title>Asset 32</title><g id="Layer_2" data-name="Layer 2"><g id="LANDSCAPE"><path class="cls-1" d="M1.72,12.79a15.91,15.91,0,0,0,2.49-.24c1.21-.15,2.42-.3,3.64-.47,2.82-.38,5.66-.47,8.49-.73a16.82,16.82,0,0,1,4.37.06c1.17.21,2.39.62,3.55.78a13.88,13.88,0,0,1,3.17,1.05c-.71,2,.93,3.69,2.84,4a4.36,4.36,0,0,0,.51,0,1.36,1.36,0,0,0,.8.4.68.68,0,0,0,.2.07.33.33,0,0,0,.33,0h0a.61.61,0,0,0,.25-.08,1.36,1.36,0,0,0,.52-.89,2.29,2.29,0,0,0,.83.47c.09,0,.14-.1.06-.15a3,3,0,0,1-.52-.44l.25.15a2.3,2.3,0,0,0,1,.4c.09,0,.11-.14,0-.16a3.46,3.46,0,0,1-1.28-1.07v0a3,3,0,0,0,2,1,.06.06,0,0,0,0-.11,2.37,2.37,0,0,1-.85-.55,2,2,0,0,0,.29.17,3.25,3.25,0,0,0,.82.18.05.05,0,0,0,0-.1c-.15-.09-.29-.19-.43-.29a2.32,2.32,0,0,0,.9,0,.07.07,0,0,0,0-.13,4.47,4.47,0,0,1-2.11-1.57,6.82,6.82,0,0,1-.4-1c0-.21,0-.42,0-.61a5.88,5.88,0,0,0,.79-.31,46.46,46.46,0,0,0,4.12-2.49c1-.62,2-1.86,2.81-2.32A5.25,5.25,0,0,1,43.37,7a1.07,1.07,0,0,0,.72-.3c-.43.39.36-.08.5-.15,2.69-1.18,5.48-2.26,8.2-3.38,1-.41,2.44-.55,3.3-1.27.48-.4,2.54-1.11,2.42-1.75a.06.06,0,0,0,.11,0s0,0,0-.07A.08.08,0,0,0,58.5,0c-.34.47-1.25.72-1.75,1a17.37,17.37,0,0,1-2.19,1A16.25,16.25,0,0,1,50.67,3a31.77,31.77,0,0,0-4.62,1,15,15,0,0,0-3,1,8.58,8.58,0,0,0-3.62,1.48c-1.15.77-2.4,1.41-3.52,2.23a12.16,12.16,0,0,0-3.21,2.8,7.39,7.39,0,0,0-2.12.09,5.68,5.68,0,0,0-2.57.74c-1.09-.31-2.2-.75-3.22-1.15a22.45,22.45,0,0,0-4.16-1.27,15,15,0,0,0-4.33.16c-1.34.11-2.61.51-3.94.66a31.2,31.2,0,0,0-4.19.77c-1.49.38-3,.48-4.55.71-.86.14-3-.06-3.66.7H0A3.92,3.92,0,0,1,1.72,12.79Z"/></g></g></svg>