<svg xmlns="http://www.w3.org/2000/svg" viewBox="0 0 207.73 99.57"><defs><style>.cls-1{fill:#fff;}.cls-2{fill:#e17794;}.cls-3{fill:#b20053;}</style></defs><title>Asset 33</title><g id="Layer_2" data-name="Layer 2"><g id="LANDSCAPE"><path class="cls-1" d="M98.22,38.93s1.56,1.69,1.32,3.22A4.25,4.25,0,0,1,97.89,45l-.8-1-1,.69a3.87,3.87,0,0,1-.45-3.38A4.15,4.15,0,0,1,98.22,38.93Z"/><path class="cls-1" d="M60.69,56.23s-1.11,2.06-2.64,2.26a4.26,4.26,0,0,1-3.23-.74c.36-.5.76-1.08.76-1.08L54.64,56a3.88,3.88,0,0,1,3.11-1.41A4,4,0,0,1,60.69,56.23Z"/><path class="cls-2" d="M66.78,40.59s-1.1,2.06-2.64,2.27a4.27,4.27,0,0,1-3.22-.75L61.68,41l-1-.73a3.88,3.88,0,0,1,3.11-1.41A4,4,0,0,1,66.78,40.59Z"/><path class="cls-1" d="M67.36,21.94s-1.1,2.06-2.64,2.27a4.27,4.27,0,0,1-3.22-.75l.76-1.07-.94-.73a3.85,3.85,0,0,1,3.1-1.41A4,4,0,0,1,67.36,21.94Z"/><path class="cls-2" d="M29.58,54.4s-1.1,2.06-2.64,2.27a4.23,4.23,0,0,1-3.22-.75c.36-.49.76-1.07.76-1.07l-.94-.72a3.85,3.85,0,0,1,3.11-1.41A4,4,0,0,1,29.58,54.4Z"/><path class="cls-2" d="M42,79.71S40.91,81.77,39.38,82a4.26,4.26,0,0,1-3.23-.74c.36-.5.76-1.08.76-1.08L36,79.43A3.85,3.85,0,0,1,39.08,78,4,4,0,0,1,42,79.71Z"/><path class="cls-1" d="M9.88,81.53a4.47,4.47,0,0,1-2.81-1.65,4.3,4.3,0,0,1-.58-3.26l1.29.28.29-1.15a3.87,3.87,0,0,1,2.52,2.3C11.29,79.73,9.88,81.53,9.88,81.53Z"/><path class="cls-1" d="M28.1,72a4.42,4.42,0,0,1-2.8-1.66A4.25,4.25,0,0,1,24.71,67l1.29.27.29-1.14a3.82,3.82,0,0,1,2.52,2.3C29.51,70.14,28.1,72,28.1,72Z"/><path class="cls-3" d="M134,60.26s-.28-2.5.76-3.64a4.27,4.27,0,0,1,3-1.5c0,.61.1,1.31.1,1.31l1.19,0a3.87,3.87,0,0,1-1.48,3.08A5,5,0,0,1,134,60.26Z"/><path class="cls-3" d="M119.15,46.82s-.4,2.48-1.71,3.3a4.25,4.25,0,0,1-3.25.64c.12-.59.25-1.29.25-1.29l-1.15-.27a3.83,3.83,0,0,1,2.25-2.56A5,5,0,0,1,119.15,46.82Z"/><path class="cls-1" d="M0,99.52S-.25,97,.8,95.88a4.21,4.21,0,0,1,3-1.49c0,.61.1,1.31.1,1.31l1.19,0a3.85,3.85,0,0,1-1.48,3.07A4.94,4.94,0,0,1,0,99.52Z"/><path class="cls-2" d="M77.64,46.06s2.21-1.29,3.53-.49a4.64,4.64,0,0,1,2.25,2.54c-.59.16-1.38.4-1.38.4l.4,1.16a4.28,4.28,0,0,1-3.53-.84A3.48,3.48,0,0,1,77.64,46.06Z"/><path class="cls-1" d="M36,40.09s2.2-1.29,3.53-.48a4.68,4.68,0,0,1,2.25,2.54l-1.39.39.4,1.16a4.23,4.23,0,0,1-3.52-.83A3.5,3.5,0,0,1,36,40.09Z"/><path class="cls-3" d="M202,25.78s2.2-1.29,3.52-.49a4.6,4.6,0,0,1,2.25,2.54c-.59.16-1.38.4-1.38.4l.4,1.16a4.24,4.24,0,0,1-3.53-.84A3.45,3.45,0,0,1,202,25.78Z"/><path class="cls-3" d="M32.75,64.24S35,63,36.28,63.76a4.64,4.64,0,0,1,2.25,2.54l-1.38.39.4,1.16A4.26,4.26,0,0,1,34,67,3.5,3.5,0,0,1,32.75,64.24Z"/><path class="cls-1" d="M62.3.75S64.5-.54,65.82.27A4.59,4.59,0,0,1,68.07,2.8c-.59.16-1.38.4-1.38.4l.4,1.16a4.24,4.24,0,0,1-3.53-.84A3.45,3.45,0,0,1,62.3.75Z"/><path class="cls-1" d="M92.06,28.4s.4,2.52-.83,3.46A4.67,4.67,0,0,1,88,33c.07-.61.14-1.43.14-1.43L87,31.55a4.24,4.24,0,0,1,2.07-3A3.48,3.48,0,0,1,92.06,28.4Z"/></g></g></svg>