<svg xmlns="http://www.w3.org/2000/svg" viewBox="0 0 47.16 13.08"><defs><style>.cls-1{fill:#282828;}</style></defs><title>Asset 31</title><g id="Layer_2" data-name="Layer 2"><g id="LANDSCAPE"><path class="cls-1" d="M15.87,3.07c.66.31,1.06.92,1.67,1.28s.86.78,1.33,1.11c.64.47,1.26.93,1.9,1.42S22.15,8.36,23,9.21a3.31,3.31,0,0,0-.42.42,4.24,4.24,0,0,1-3,1.45c-.05,0-.05.07,0,.08a4.92,4.92,0,0,0,1.48,0,3.61,3.61,0,0,1-.69.46c-.07,0,0,.12,0,.1a4.25,4.25,0,0,0,1.48-.4,5.71,5.71,0,0,1-1.14.74s0,.08,0,.07A4,4,0,0,0,22,11.91a2.53,2.53,0,0,0,.67-.54v0a3.19,3.19,0,0,1-1.19,1s0,.06,0,.06A1.91,1.91,0,0,0,22.9,12a1.57,1.57,0,0,0,.92.93,3,3,0,0,0,2.36-.23,2.51,2.51,0,0,0,1.34-1.41,2.15,2.15,0,0,0,1.14-.83l.37-.1a1.44,1.44,0,0,0,.42-.24.79.79,0,0,0,.22-.06s0,0,0-.05a3.48,3.48,0,0,0-.77-.39l-.06,0a1.77,1.77,0,0,0-.66-1.19,20.9,20.9,0,0,1,2-1.54A13.36,13.36,0,0,1,32.94,5.2a30.42,30.42,0,0,0,3-1.21A12.24,12.24,0,0,1,43,3.38a9.9,9.9,0,0,1,2.71.78c.59.3.71,1.15,1.37,1.11a.09.09,0,0,0,.06-.15c-.54-.59-.56-1.33-1.35-1.73a23.35,23.35,0,0,0-2.46-1.21,13,13,0,0,0-6.85-.41c-2.45.42-4,2.09-6.06,3.29a36.26,36.26,0,0,0-3.16,2.38,6.81,6.81,0,0,0-.68.57A3.44,3.44,0,0,0,26,7.92a1.8,1.8,0,0,0-1.69,0,4.62,4.62,0,0,1-.4-.29c-.93-.78-1.68-1.74-2.66-2.5-1.95-1.52-3.83-3.76-6.41-4.07C13.68,1,12.51.93,11.31.85,9.77.76,8.24.35,6.67.24A25.22,25.22,0,0,0,.06.22a.08.08,0,0,0,0,.16c1.9.39,3.85.69,5.78,1,2.86.37,5.63,1,8.49,1.42A5.42,5.42,0,0,1,15.87,3.07Z"/></g></g></svg>