<svg xmlns="http://www.w3.org/2000/svg" viewBox="0 0 34.18 6.66"><defs><style>.cls-1{fill:#282828;}</style></defs><title>Asset 30</title><g id="Layer_2" data-name="Layer 2"><g id="LANDSCAPE"><path class="cls-1" d="M34.17,4c-.38-.88-1.8-1.33-2.6-1.77a19.48,19.48,0,0,0-4.1-2,12.68,12.68,0,0,0-5.06,0A17.6,17.6,0,0,0,20,.7a7.74,7.74,0,0,0-4.18.39c-.47,0-.92,0-1.26-.07-1-.1-1.81-.57-2.77-.63a3.25,3.25,0,0,0-2.32.89C8.59,2,6.54,3,5.24,3.76c-1.67,1-3.48,2-5.23,2.87,0,0,0,0,0,0C3.31,6,5.94,3.77,9,2.57l1.75-.69a5.25,5.25,0,0,1,3,0c.37.07.76.12,1.16.16a.38.38,0,0,0,0,.26c.31.62.9.63,1.41,1a3.7,3.7,0,0,0,1.41.9,2.88,2.88,0,0,0,2.3-.92,2.18,2.18,0,0,0,.65.08c.26,0,.66.17.91,0a.22.22,0,0,0,.07-.06l0,0h0a.11.11,0,0,0,0-.08c0-.35-.22-.56-.5-.78a4.17,4.17,0,0,1-.38-.34,1.44,1.44,0,0,0-.07-.74L22,1.23a14.84,14.84,0,0,1,4.74.35,35.12,35.12,0,0,1,7.44,2.47Z"/></g></g></svg>