<svg xmlns="http://www.w3.org/2000/svg" viewBox="0 0 220.84 105.85"><defs><style>.cls-1{fill:#fff;}.cls-2{fill:#e17794;}.cls-3{fill:#b20053;}</style></defs><title>Asset 43</title><g id="Layer_2" data-name="Layer 2"><g id="LANDSCAPE"><path class="cls-1" d="M116.42,64.47s-1.66-1.8-1.4-3.43a4.51,4.51,0,0,1,1.75-3c.39.52.86,1.1.86,1.1l1-.73a4.06,4.06,0,0,1,.48,3.59A4.44,4.44,0,0,1,116.42,64.47Z"/><path class="cls-1" d="M156.32,46.08s1.17-2.19,2.81-2.41a4.48,4.48,0,0,1,3.42.8c-.38.52-.8,1.14-.8,1.14l1,.76a4.12,4.12,0,0,1-3.31,1.5A4.2,4.2,0,0,1,156.32,46.08Z"/><path class="cls-2" d="M149.84,62.71s1.18-2.2,2.81-2.41a4.54,4.54,0,0,1,3.43.79l-.81,1.14,1,.77a4.11,4.11,0,0,1-3.3,1.5A4.26,4.26,0,0,1,149.84,62.71Z"/><path class="cls-1" d="M149.22,82.53s1.18-2.19,2.82-2.41a4.48,4.48,0,0,1,3.42.8c-.38.52-.81,1.14-.81,1.14l1,.77a4.06,4.06,0,0,1-3.3,1.49A4.23,4.23,0,0,1,149.22,82.53Z"/><path class="cls-2" d="M189.38,48s1.18-2.19,2.81-2.41a4.5,4.5,0,0,1,3.43.8c-.38.52-.81,1.14-.81,1.14l1,.76a4.09,4.09,0,0,1-3.3,1.5A4.23,4.23,0,0,1,189.38,48Z"/><path class="cls-2" d="M176.17,21.12s1.17-2.19,2.81-2.41a4.53,4.53,0,0,1,3.42.79l-.81,1.14,1,.77a4.09,4.09,0,0,1-3.3,1.5A4.23,4.23,0,0,1,176.17,21.12Z"/><path class="cls-1" d="M210.34,19.18a4.75,4.75,0,0,1,3,1.75,4.53,4.53,0,0,1,.61,3.47c-.63-.15-1.36-.3-1.36-.3l-.31,1.22a4.11,4.11,0,0,1-2.68-2.44C208.83,21.1,210.34,19.18,210.34,19.18Z"/><path class="cls-1" d="M191,29.37a4.74,4.74,0,0,1,3,1.76,4.5,4.5,0,0,1,.61,3.46c-.63-.15-1.37-.3-1.37-.3l-.31,1.22a4.08,4.08,0,0,1-2.67-2.44C189.46,31.29,191,29.37,191,29.37Z"/><path class="cls-3" d="M78.41,41.8s.3,2.65-.81,3.87a4.57,4.57,0,0,1-3.14,1.59c0-.65-.11-1.4-.11-1.4l-1.26.06a4.1,4.1,0,0,1,1.57-3.27A5.23,5.23,0,0,1,78.41,41.8Z"/><path class="cls-3" d="M94.17,56.08s.42-2.64,1.82-3.51a4.51,4.51,0,0,1,3.45-.68c-.13.63-.27,1.37-.27,1.37l1.23.29A4.1,4.1,0,0,1,98,56.27,5.22,5.22,0,0,1,94.17,56.08Z"/><path class="cls-1" d="M220.8.05s.3,2.66-.81,3.88a4.51,4.51,0,0,1-3.14,1.58c0-.65-.11-1.39-.11-1.39l-1.26.06A4.1,4.1,0,0,1,217.05.91,5.26,5.26,0,0,1,220.8.05Z"/><path class="cls-2" d="M138.29,56.89s-2.34,1.37-3.75.52a5,5,0,0,1-2.39-2.7l1.47-.42-.42-1.24a4.56,4.56,0,0,1,3.75.89A3.72,3.72,0,0,1,138.29,56.89Z"/><path class="cls-1" d="M182.62,63.23s-2.34,1.37-3.75.52a4.93,4.93,0,0,1-2.39-2.7c.63-.17,1.47-.42,1.47-.42l-.43-1.24a4.56,4.56,0,0,1,3.75.89A3.71,3.71,0,0,1,182.62,63.23Z"/><path class="cls-3" d="M6.14,78.45S3.8,79.82,2.39,79A4.93,4.93,0,0,1,0,76.27c.63-.17,1.47-.43,1.47-.43L1,74.61a4.51,4.51,0,0,1,3.75.89A3.71,3.71,0,0,1,6.14,78.45Z"/><path class="cls-3" d="M186,37.56s-2.34,1.37-3.75.51a4.9,4.9,0,0,1-2.39-2.7c.63-.17,1.47-.42,1.47-.42l-.43-1.23a4.51,4.51,0,0,1,3.75.89A3.71,3.71,0,0,1,186,37.56Z"/><path class="cls-1" d="M154.61,105.06s-2.34,1.37-3.75.51a4.91,4.91,0,0,1-2.39-2.69l1.47-.43-.43-1.23a4.51,4.51,0,0,1,3.75.89A3.71,3.71,0,0,1,154.61,105.06Z"/><path class="cls-1" d="M123,75.66s-.42-2.68.89-3.68a5,5,0,0,1,3.39-1.24c-.07.65-.14,1.52-.14,1.52l1.3.06a4.51,4.51,0,0,1-2.2,3.16A3.7,3.7,0,0,1,123,75.66Z"/></g></g></svg>