<svg xmlns="http://www.w3.org/2000/svg" viewBox="0 0 14.67 15.01"><defs><style>.cls-1{fill:#b20053;}</style></defs><title>Asset 42</title><g id="Layer_2" data-name="Layer 2"><g id="LANDSCAPE"><path class="cls-1" d="M2.5.33S.83,2.17,1.5,2.17s2,2,2,2l-.83.16L0,5.5V6.83l1.5.84V9l.83,1.67,2.08.47.09,2.53s-1,1.5.17,1.33S8.5,12.88,8.5,12.88L9.83,14,12,12.33l-1-1.5a8.74,8.74,0,0,1,2.17-2,4.36,4.36,0,0,0,1.5-1.16l-2.5-2.5L11,8S7.5,6,8.83,5.17A18.07,18.07,0,0,0,11.5,3L6.83.83,5.67,3.17,4.17,0Z"/></g></g></svg>