<svg xmlns="http://www.w3.org/2000/svg" viewBox="0 0 141.12 221.56"><defs><style>.cls-1{fill:#e17794;}</style></defs><title>Asset 48</title><g id="Layer_2" data-name="Layer 2"><g id="LANDSCAPE"><path class="cls-1" d="M34.53,65.31A1.8,1.8,0,0,0,36.46,64a3.06,3.06,0,0,0-.2-1.4c-.22-.73.71-.33,2.24.87s2.76,2.91,2.76,3.79a1.52,1.52,0,0,0,1.42,1.62H98.44a1.52,1.52,0,0,0,1.42-1.62c0-.88,1.25-2.57,2.76-3.77s2.46-1.62,2.24-.89a3.48,3.48,0,0,0-.22,1.4,1.85,1.85,0,0,0,2,1.36,2.61,2.61,0,0,0,1.71-.67,1.89,1.89,0,0,0,.67-1.55c0-1-.52-2.91-.52-4.47s-.13-2.77-.28-2.71l-.29.14a16.74,16.74,0,0,1-5.49.8A29,29,0,0,1,87.45,52.3a28.84,28.84,0,0,1-9.12-8.39c-2.84-4.13-2.89-8.21-2-8.17.55,0,1.06,0,1.58,0,5.48,0,6.7-1.62,6.83-1.8l.14-.22a.19.19,0,0,0-.09-.31l-.25-.12a29.19,29.19,0,0,1-5-2.84A20.3,20.3,0,0,1,75,26.4c0-.18-.55-4.38-1.24-9.35-.58-4.17-1.29-9.15-1.89-13.32-.71-5-1.89-5-2.6,0l-2,13.34c-.71,5-1.2,9.13-1.2,9.33a19.41,19.41,0,0,1-4.46,4.1,28.68,28.68,0,0,1-5.06,2.84l-.25.12a.19.19,0,0,0-.09.31l.14.22c.13.18,1.37,1.8,6.83,1.8.51,0,1.05,0,1.6,0,.87,0,.82,4-2,8.17a28.52,28.52,0,0,1-9.1,8.39,29,29,0,0,1-14.94,4.58,15.39,15.39,0,0,1-5.49-.83L33,55.94c-.15-.06-.28,1.16-.28,2.69s-.49,3.51-.52,4.46a1.93,1.93,0,0,0,.65,1.58,2.58,2.58,0,0,0,1.71.64Z"/><path class="cls-1" d="M3.56,108.47a3,3,0,0,0,1.93-1.15,2.4,2.4,0,0,0,.56-1.8A3.63,3.63,0,0,0,5.38,104c-.56-.74-1.18-1.36-1.15-1.56s1.9,1.47,4.68,3.15,5.42,2.53,5.42,3.16a1.21,1.21,0,0,0,1.31,1.11H117.71c5,0,9.08-.49,9.08-1.11s2.66-1.49,5.42-3.16,4.66-3.35,4.68-3.15a9.38,9.38,0,0,1-1.15,1.56,3.3,3.3,0,0,0-.67,1.53,2.32,2.32,0,0,0,.56,1.8,3,3,0,0,0,1.93,1.15c1.46,0,3.42-.64,3.53-2.46a2.7,2.7,0,0,0-.29-1.54,10,10,0,0,1-1.07-4.1c0-1.62-.24-3.07-.55-3.2s-1.33.29-2.31,1S131,100.23,126,99.28a29.89,29.89,0,0,1-9-3.29c-9.7-5.37-13.83-16.31-13.88-16.43l0-.13c0-.09-.45-.13-.91-.13a.85.85,0,0,1-.87-.85.8.8,0,0,0-.75-.84H40.5a.79.79,0,0,0-.75.82.85.85,0,0,1-.87.85,1.88,1.88,0,0,0-.91.13l0,.15c0,.12-4.18,11-13.88,16.43a30.49,30.49,0,0,1-9,3.29c-4.93.93-9.83-.45-10.83-1.13s-2-1.14-2.31-1-.56,1.57-.56,3.19a10,10,0,0,1-1.06,4.11A3,3,0,0,0,0,106c.13,1.88,2.31,2.53,3.55,2.44Z"/><path class="cls-1" d="M140.8,146.45a9.91,9.91,0,0,1-1.07-4.11c0-1.61-.24-3-.55-3.19a4.16,4.16,0,0,0-2.31,1c-1,.69-5.91,2.06-10.84,1.13a30.68,30.68,0,0,1-9-3.28c-9.7-5.4-13.83-16.32-13.88-16.43s0-.06,0-.14-.45-.15-.91-.15a.85.85,0,0,1-.87-.82.8.8,0,0,0-.75-.85H90.76c-16.45,0-49.5,0-49.5,0H40.5a.8.8,0,0,0-.75.84.85.85,0,0,1-.87.85,2,2,0,0,0-.91.13l0,.16c0,.09-4.18,11-13.88,16.4a30.6,30.6,0,0,1-9,3.31c-4.93.93-9.83-.46-10.83-1.15s-2-1.14-2.31-1-.56,1.58-.56,3.19a10.15,10.15,0,0,1-1.06,4.11A2.9,2.9,0,0,0,0,148c.13,1.89,2.31,2.53,3.55,2.44a3,3,0,0,0,1.93-1.15,2.37,2.37,0,0,0,.56-1.8A3.44,3.44,0,0,0,5.38,146c-.56-.76-1.18-1.38-1.15-1.58s1.9,1.48,4.68,3.15,5.42,2.53,5.42,3.16a1.21,1.21,0,0,0,1.31,1.11H19.1c1.18,0,2.13.62,2.13,1.35s1.95,1.35,4.35,1.35,4.26.49,4.18,1.11c-.05.36-.09.74-.16,1.12-.49,3.59-1.09,7.81-1.58,12.29s-1,9.3-1.44,14.1-1.55,9.61-1.64,14.12c0,.36,0,.73,0,1.09,0,.62-.8,1.11-1.84,1.11a1.86,1.86,0,0,0-1.89,1.82c0,1-1.69,1.82-3.75,1.82s-3.75,4.08-3.75,9.1v.24a9,9,0,0,0,8.81,9.11h95.68a8.86,8.86,0,0,0,8.57-9.11v-.24c0-5-1.58-9.1-3.51-9.1s-3.53-.82-3.53-1.82a1.85,1.85,0,0,0-1.88-1.82c-1.05,0-1.87-.49-1.82-1.11,0-.36,0-.73,0-1.09-.09-4.51-1.24-9.3-1.64-14.12s-.89-9.59-1.45-14.1-1.08-8.7-1.6-12.29c0-.38-.08-.76-.13-1.12-.09-.62,1.8-1.11,4.18-1.11s4.35-.62,4.35-1.35,1.55-1.35,3.5-1.35,3.51-.49,3.51-1.11,2.66-1.49,5.42-3.16,4.66-3.33,4.68-3.15a10.1,10.1,0,0,1-1.15,1.58,3.23,3.23,0,0,0-.67,1.51,2.27,2.27,0,0,0,.56,1.8,2.94,2.94,0,0,0,1.93,1.15c1.48,0,3.44-.65,3.55-2.44a2.84,2.84,0,0,0-.31-1.56ZM68.14,156.78c-.49,3.59-1.09,7.79-1.58,12.29s-1,9.28-1.44,14.1-1.55,9.59-1.67,14.1c0,.38,0,.73,0,1.11,0,.6-.8,1.09-1.84,1.09a1.86,1.86,0,0,0-1.89,1.83c0,1-3.8,1.81-8.48,1.81s-8.46-.8-8.46-1.81a1.86,1.86,0,0,0-1.89-1.83c-1,0-1.86-.49-1.84-1.09,0-.38,0-.73,0-1.11-.09-4.51-1.27-9.3-1.67-14.1s-.86-9.61-1.44-14.1-1.09-8.7-1.58-12.29c0-.4-.11-.76-.15-1.11-.07-.62,1.79-1.14,4.19-1.14s4.33-.6,4.33-1.35,3.8-1.33,8.46-1.33,8.48.6,8.48,1.33,1.93,1.35,4.33,1.35,4.26.52,4.17,1.14c0,.35-.09.71-.13,1.11Zm38.4,0c-.48,3.59-1.08,7.79-1.57,12.29s-1,9.28-1.44,14.1-1.56,9.59-1.67,14.1c0,.38,0,.73,0,1.11,0,.6-.8,1.09-1.85,1.09a1.85,1.85,0,0,0-1.88,1.83c0,1-3.76,1.81-8.4,1.81s-8.41-.8-8.41-1.81a1.86,1.86,0,0,0-1.89-1.83c-1,0-1.86-.49-1.84-1.09,0-.38,0-.73,0-1.11-.09-4.51-1.24-9.3-1.64-14.1s-.89-9.61-1.44-14.1-1.09-8.7-1.58-12.29c-.06-.4-.11-.76-.15-1.11-.09-.62,1.79-1.14,4.17-1.14s4.35-.6,4.35-1.35,3.75-1.33,8.39-1.33,8.42.6,8.42,1.33,1.93,1.35,4.33,1.35,4.26.52,4.17,1.14c0,.35-.09.71-.14,1.11Z"/></g></g></svg>