<svg xmlns="http://www.w3.org/2000/svg" viewBox="0 0 241.24 23.07"><defs><style>.cls-1{fill:#f7e5ef;}</style></defs><title>Asset 34</title><g id="Layer_2" data-name="Layer 2"><g id="LANDSCAPE"><path class="cls-1" d="M7.7,17.74v-.25a7,7,0,0,1-1,1,3.84,3.84,0,0,1-1.1.57,4.17,4.17,0,0,1-1.3.19,3.84,3.84,0,0,1-1.72-.39,4,4,0,0,1-1.37-1.12A5.09,5.09,0,0,1,.3,16,7.33,7.33,0,0,1,0,13.85a5.57,5.57,0,0,1,1.19-3.79A3.93,3.93,0,0,1,4.31,8.7a4.13,4.13,0,0,1,1.89.39,5.25,5.25,0,0,1,1.5,1.18V6.44A2,2,0,0,1,8,5.23a1.09,1.09,0,0,1,.91-.4,1.11,1.11,0,0,1,.9.37,1.63,1.63,0,0,1,.32,1.11V17.74a1.6,1.6,0,0,1-.34,1.12,1.16,1.16,0,0,1-.88.36,1.11,1.11,0,0,1-.88-.38A1.6,1.6,0,0,1,7.7,17.74Zm-5.1-3.8a4.37,4.37,0,0,0,.33,1.79,2.55,2.55,0,0,0,.9,1.12,2.2,2.2,0,0,0,1.24.37,2.36,2.36,0,0,0,1.25-.35,2.43,2.43,0,0,0,.9-1.1,4.3,4.3,0,0,0,.34-1.83,4.24,4.24,0,0,0-.34-1.79A2.75,2.75,0,0,0,6.31,11a2.22,2.22,0,0,0-2.53,0,2.68,2.68,0,0,0-.87,1.16A4.77,4.77,0,0,0,2.6,13.94Z"/><path class="cls-1" d="M19.14,14.59H14.07a3.38,3.38,0,0,0,.35,1.56,2.39,2.39,0,0,0,.92,1,2.45,2.45,0,0,0,1.27.35,3.24,3.24,0,0,0,.85-.11,2.84,2.84,0,0,0,.75-.35,5.65,5.65,0,0,0,.66-.49c.2-.18.47-.42.79-.73a.86.86,0,0,1,.57-.17.94.94,0,0,1,.64.22.77.77,0,0,1,.25.62,1.71,1.71,0,0,1-.27.82,3.29,3.29,0,0,1-.83.9,4.84,4.84,0,0,1-1.4.72,6,6,0,0,1-1.93.28A5.18,5.18,0,0,1,12.8,17.8a5.32,5.32,0,0,1-1.38-3.86,6.45,6.45,0,0,1,.34-2.14,4.85,4.85,0,0,1,1-1.68A4.35,4.35,0,0,1,14.37,9a5.81,5.81,0,0,1,2.13-.38,5.09,5.09,0,0,1,2.6.64A4.25,4.25,0,0,1,20.73,11,4.38,4.38,0,0,1,21.27,13c0,.66-.18,1.08-.56,1.27A3.51,3.51,0,0,1,19.14,14.59Zm-5.07-1.47h4.7a3.21,3.21,0,0,0-.72-2,2.15,2.15,0,0,0-1.64-.66,2.06,2.06,0,0,0-1.59.67A3.27,3.27,0,0,0,14.07,13.12Z"/><path class="cls-1" d="M31,15.83a3,3,0,0,1-2.06,3,7,7,0,0,1-2.49.39A6.12,6.12,0,0,1,24,18.8a3.43,3.43,0,0,1-1.47-1.07,2.15,2.15,0,0,1-.48-1.29,1,1,0,0,1,.31-.73,1,1,0,0,1,.77-.3.84.84,0,0,1,.62.2,2,2,0,0,1,.42.56,2.48,2.48,0,0,0,2.47,1.37,2.22,2.22,0,0,0,1.28-.34,1,1,0,0,0,.49-.8,1.08,1.08,0,0,0-.51-1,6.5,6.5,0,0,0-1.71-.6,14.45,14.45,0,0,1-2.18-.7,3.58,3.58,0,0,1-1.34-1,2.19,2.19,0,0,1-.5-1.48,2.6,2.6,0,0,1,.46-1.47A3.18,3.18,0,0,1,24,9.1a5.22,5.22,0,0,1,2.19-.42A7.14,7.14,0,0,1,28,8.89a4.62,4.62,0,0,1,1.34.56,2.94,2.94,0,0,1,.82.78,1.59,1.59,0,0,1,.28.84,1,1,0,0,1-.3.73,1.18,1.18,0,0,1-.85.28,1,1,0,0,1-.68-.23,4.33,4.33,0,0,1-.64-.68,2.49,2.49,0,0,0-.69-.61,2.24,2.24,0,0,0-1.09-.22,2.12,2.12,0,0,0-1.17.29.87.87,0,0,0-.46.75.8.8,0,0,0,.34.67,2.92,2.92,0,0,0,.92.43c.39.12.92.25,1.6.42a8.89,8.89,0,0,1,2,.7,3.34,3.34,0,0,1,1.16,1A2.14,2.14,0,0,1,31,15.83Z"/><path class="cls-1" d="M33.6,7.48a1.35,1.35,0,0,1-.93-.34,1.18,1.18,0,0,1-.38-.94,1.17,1.17,0,0,1,.39-.9,1.33,1.33,0,0,1,.92-.36,1.37,1.37,0,0,1,.89.32,1.16,1.16,0,0,1,.39.94,1.18,1.18,0,0,1-.38.94A1.32,1.32,0,0,1,33.6,7.48Zm1.28,2.67v7.5a1.67,1.67,0,0,1-.37,1.18,1.24,1.24,0,0,1-.94.39,1.15,1.15,0,0,1-.92-.4,1.74,1.74,0,0,1-.36-1.17V10.23a1.66,1.66,0,0,1,.36-1.16,1.17,1.17,0,0,1,.92-.39,1.24,1.24,0,0,1,.94.39A1.49,1.49,0,0,1,34.88,10.15Z"/><path class="cls-1" d="M46.24,10.58v7.53A7.71,7.71,0,0,1,46,20.34a3.51,3.51,0,0,1-.88,1.54,3.73,3.73,0,0,1-1.59.9,8.86,8.86,0,0,1-2.44.29,7.16,7.16,0,0,1-2.4-.37,4.2,4.2,0,0,1-1.62-1,1.77,1.77,0,0,1-.57-1.22,1,1,0,0,1,.32-.78,1.12,1.12,0,0,1,.78-.3,1.28,1.28,0,0,1,1,.51l.43.52a2.54,2.54,0,0,0,.49.44,1.83,1.83,0,0,0,.65.28,3.91,3.91,0,0,0,.88.09A3.63,3.63,0,0,0,42.57,21a1.62,1.62,0,0,0,.78-.79,3.17,3.17,0,0,0,.26-1.07c0-.39,0-1,.06-1.85a4.23,4.23,0,0,1-1.38,1.27,3.83,3.83,0,0,1-1.87.44,3.9,3.9,0,0,1-2.28-.67,4.27,4.27,0,0,1-1.49-1.86,6.83,6.83,0,0,1-.52-2.76,6.59,6.59,0,0,1,.31-2.11A4.57,4.57,0,0,1,37.35,10a3.91,3.91,0,0,1,1.36-1A4.25,4.25,0,0,1,40.4,8.7a4.11,4.11,0,0,1,1.91.42,4.74,4.74,0,0,1,1.5,1.33V10.1a1.54,1.54,0,0,1,.33-1A1.13,1.13,0,0,1,45,8.68a1,1,0,0,1,1,.49A3.15,3.15,0,0,1,46.24,10.58Zm-7.51,3.29a3.58,3.58,0,0,0,.69,2.38,2.23,2.23,0,0,0,1.78.81,2.33,2.33,0,0,0,1.22-.35,2.56,2.56,0,0,0,.93-1,3.68,3.68,0,0,0,.36-1.7A3.94,3.94,0,0,0,43,11.5a2.26,2.26,0,0,0-1.84-.88,2.14,2.14,0,0,0-1.78.85A3.75,3.75,0,0,0,38.73,13.87Z"/><path class="cls-1" d="M50.36,10.12v.31a4.58,4.58,0,0,1,1.5-1.32,3.87,3.87,0,0,1,1.86-.43,3.72,3.72,0,0,1,1.84.45,2.81,2.81,0,0,1,1.2,1.26,2.84,2.84,0,0,1,.34,1,10.82,10.82,0,0,1,.07,1.4v4.83a1.77,1.77,0,0,1-.35,1.18,1.21,1.21,0,0,1-.93.39,1.19,1.19,0,0,1-.94-.4,1.74,1.74,0,0,1-.36-1.17V13.33a4.25,4.25,0,0,0-.36-2,1.43,1.43,0,0,0-1.42-.68,2.07,2.07,0,0,0-1.26.41,2.41,2.41,0,0,0-.84,1.13,8.47,8.47,0,0,0-.19,2.17v3.25a1.7,1.7,0,0,1-.36,1.18,1.25,1.25,0,0,1-.95.39,1.18,1.18,0,0,1-.92-.4,1.74,1.74,0,0,1-.36-1.17v-7.5a1.64,1.64,0,0,1,.32-1.1,1.11,1.11,0,0,1,.89-.37,1.23,1.23,0,0,1,.61.16,1.13,1.13,0,0,1,.45.49A1.71,1.71,0,0,1,50.36,10.12Z"/><path class="cls-1" d="M66.14,14.59H61.07a3.38,3.38,0,0,0,.35,1.56,2.39,2.39,0,0,0,.92,1,2.45,2.45,0,0,0,1.27.35,3.18,3.18,0,0,0,.85-.11,2.84,2.84,0,0,0,.75-.35,5.65,5.65,0,0,0,.66-.49c.2-.18.47-.42.79-.73a.86.86,0,0,1,.57-.17,1,1,0,0,1,.65.22.8.8,0,0,1,.24.62,1.71,1.71,0,0,1-.27.82,3.29,3.29,0,0,1-.83.9,4.84,4.84,0,0,1-1.4.72,6,6,0,0,1-1.93.28A5.18,5.18,0,0,1,59.8,17.8a5.32,5.32,0,0,1-1.38-3.86,6.45,6.45,0,0,1,.34-2.14,4.72,4.72,0,0,1,1-1.68A4.24,4.24,0,0,1,61.37,9a5.81,5.81,0,0,1,2.13-.38,5.09,5.09,0,0,1,2.6.64A4.25,4.25,0,0,1,67.73,11,4.39,4.39,0,0,1,68.28,13c0,.66-.19,1.08-.57,1.27A3.49,3.49,0,0,1,66.14,14.59Zm-5.07-1.47h4.7a3.21,3.21,0,0,0-.72-2,2.15,2.15,0,0,0-1.64-.66,2.06,2.06,0,0,0-1.59.67A3.27,3.27,0,0,0,61.07,13.12Z"/><path class="cls-1" d="M76.71,17.74v-.25a7,7,0,0,1-1,1,4,4,0,0,1-1.1.57,4.17,4.17,0,0,1-1.3.19,3.88,3.88,0,0,1-1.73-.39,4.18,4.18,0,0,1-1.37-1.12A5.28,5.28,0,0,1,69.3,16a7.33,7.33,0,0,1-.3-2.14,5.57,5.57,0,0,1,1.19-3.79A4,4,0,0,1,73.32,8.7a4.19,4.19,0,0,1,1.89.39,5.25,5.25,0,0,1,1.5,1.18V6.44A1.92,1.92,0,0,1,77,5.23a1.07,1.07,0,0,1,.9-.4,1.11,1.11,0,0,1,.91.37,1.69,1.69,0,0,1,.32,1.11V17.74a1.65,1.65,0,0,1-.34,1.12,1.18,1.18,0,0,1-.89.36,1.14,1.14,0,0,1-.88-.38A1.59,1.59,0,0,1,76.71,17.74Zm-5.1-3.8a4.55,4.55,0,0,0,.32,1.79,2.55,2.55,0,0,0,.9,1.12,2.23,2.23,0,0,0,1.25.37,2.38,2.38,0,0,0,1.25-.35,2.57,2.57,0,0,0,.9-1.1,4.47,4.47,0,0,0,.33-1.83,4.4,4.4,0,0,0-.33-1.79A2.83,2.83,0,0,0,75.32,11a2.23,2.23,0,0,0-1.26-.39,2.16,2.16,0,0,0-1.27.4,2.53,2.53,0,0,0-.87,1.16A4.57,4.57,0,0,0,71.61,13.94Z"/><path class="cls-1" d="M87.3,6.31v4a5.73,5.73,0,0,1,1.5-1.16,3.93,3.93,0,0,1,1.88-.41,4.22,4.22,0,0,1,2.26.61,4,4,0,0,1,1.51,1.78A6.53,6.53,0,0,1,95,13.85a7.42,7.42,0,0,1-.3,2.16,5.06,5.06,0,0,1-.87,1.7,3.82,3.82,0,0,1-1.38,1.12,4.42,4.42,0,0,1-2.92.25,3.38,3.38,0,0,1-.9-.37,5.75,5.75,0,0,1-.63-.48c-.17-.17-.4-.41-.69-.74v.25A1.54,1.54,0,0,1,87,18.85a1.16,1.16,0,0,1-.89.37,1.11,1.11,0,0,1-.88-.37,1.63,1.63,0,0,1-.32-1.11V6.42a1.92,1.92,0,0,1,.31-1.19,1.06,1.06,0,0,1,.89-.4,1.14,1.14,0,0,1,.92.38A1.64,1.64,0,0,1,87.3,6.31Zm.13,7.7a3.52,3.52,0,0,0,.71,2.38,2.32,2.32,0,0,0,1.85.83,2.13,2.13,0,0,0,1.69-.85,3.72,3.72,0,0,0,.71-2.43,4.68,4.68,0,0,0-.3-1.77A2.51,2.51,0,0,0,91.26,11a2.13,2.13,0,0,0-1.27-.4,2.33,2.33,0,0,0-1.32.4,2.72,2.72,0,0,0-.91,1.17A4.59,4.59,0,0,0,87.43,14Z"/><path class="cls-1" d="M98.35,19.55l.24-.58-3.19-8a3,3,0,0,1-.3-1,1.23,1.23,0,0,1,.17-.62,1.38,1.38,0,0,1,.47-.46,1.29,1.29,0,0,1,.62-.17,1,1,0,0,1,.85.36,3.23,3.23,0,0,1,.5,1l2.2,6.38L102,10.51a10,10,0,0,1,.44-1.13,1.29,1.29,0,0,1,.43-.55,1.11,1.11,0,0,1,.63-.15,1,1,0,0,1,.56.16,1.06,1.06,0,0,1,.42.42,1.15,1.15,0,0,1,.15.56c0,.12-.07.29-.12.52s-.13.44-.21.67l-3.38,8.85a10.65,10.65,0,0,1-.86,1.83,2.72,2.72,0,0,1-1.11,1,4,4,0,0,1-1.85.36,4.63,4.63,0,0,1-1.71-.24.91.91,0,0,1-.57-.91.89.89,0,0,1,.27-.69,1.18,1.18,0,0,1,.8-.24,1.4,1.4,0,0,1,.41.06,1.84,1.84,0,0,0,.43.06,1.52,1.52,0,0,0,.7-.14,1.26,1.26,0,0,0,.46-.46A7.19,7.19,0,0,0,98.35,19.55Z"/><path class="cls-1" d="M138.74,8.91h.61V8.13a4.91,4.91,0,0,1,.31-1.94,2,2,0,0,1,1.05-1,5,5,0,0,1,2-.33q2.28,0,2.28,1.11a.88.88,0,0,1-.24.62.75.75,0,0,1-.56.25,3.51,3.51,0,0,1-.53,0,3.89,3.89,0,0,0-.62-.06.91.91,0,0,0-.91.42A3,3,0,0,0,142,8.29v.62h.63c1,0,1.48.29,1.48.89a.8.8,0,0,1-.39.81,2.86,2.86,0,0,1-1.09.17H142v6.87a1.66,1.66,0,0,1-.37,1.17,1.2,1.2,0,0,1-.94.4,1.19,1.19,0,0,1-.92-.4,1.66,1.66,0,0,1-.37-1.17V10.78h-.71a1.37,1.37,0,0,1-.89-.26.84.84,0,0,1-.32-.68c0-.63.44-.93,1.31-.93"/><path class="cls-1" d="M147.23,15.48v2.17a1.7,1.7,0,0,1-.38,1.18,1.24,1.24,0,0,1-.94.39,1.16,1.16,0,0,1-.92-.4,1.67,1.67,0,0,1-.36-1.17V10.43c0-1.17.42-1.75,1.26-1.75a1,1,0,0,1,.93.41,2.23,2.23,0,0,1,.32,1.2,4.4,4.4,0,0,1,1-1.2,1.94,1.94,0,0,1,1.31-.41,3.24,3.24,0,0,1,1.58.41,1.2,1.2,0,0,1,.77,1.08,1,1,0,0,1-.32.78,1,1,0,0,1-.71.31,3.07,3.07,0,0,1-.69-.18,3.48,3.48,0,0,0-1-.17,1.41,1.41,0,0,0-.94.3,1.92,1.92,0,0,0-.56.89,6.33,6.33,0,0,0-.27,1.4c-.05.54-.07,1.2-.07,2"/><path class="cls-1" d="M159.15,14.59h-5.08a3.52,3.52,0,0,0,.36,1.56,2.51,2.51,0,0,0,.92,1,2.44,2.44,0,0,0,1.27.34,2.87,2.87,0,0,0,.85-.11,2.59,2.59,0,0,0,.74-.34,4.87,4.87,0,0,0,.67-.5c.2-.17.46-.42.79-.72a.86.86,0,0,1,.57-.17,1,1,0,0,1,.65.22.8.8,0,0,1,.24.62,1.71,1.71,0,0,1-.27.82,3.44,3.44,0,0,1-.83.9,4.84,4.84,0,0,1-1.4.72,6,6,0,0,1-1.93.28,5.17,5.17,0,0,1-3.89-1.42,5.33,5.33,0,0,1-1.39-3.87,6.43,6.43,0,0,1,.35-2.13,4.53,4.53,0,0,1,1-1.69A4.35,4.35,0,0,1,154.38,9a5.72,5.72,0,0,1,2.12-.37,5,5,0,0,1,2.61.64A4.19,4.19,0,0,1,160.74,11a4.38,4.38,0,0,1,.54,2.07,1.31,1.31,0,0,1-.56,1.27,3.51,3.51,0,0,1-1.57.29m-5.08-1.48h4.7a3.06,3.06,0,0,0-.71-2,2.15,2.15,0,0,0-1.64-.66,2,2,0,0,0-1.59.67,3.27,3.27,0,0,0-.76,2"/><path class="cls-1" d="M169.93,14.59h-5.07a3.65,3.65,0,0,0,.35,1.56,2.53,2.53,0,0,0,.93,1,2.39,2.39,0,0,0,1.27.34,2.8,2.8,0,0,0,.84-.11,2.52,2.52,0,0,0,.75-.34,4.76,4.76,0,0,0,.66-.5c.2-.17.47-.42.79-.72a.9.9,0,0,1,.57-.17.93.93,0,0,1,.65.22.77.77,0,0,1,.24.62,1.61,1.61,0,0,1-.27.82,3.27,3.27,0,0,1-.83.9,4.72,4.72,0,0,1-1.4.72,6,6,0,0,1-1.93.28,5.18,5.18,0,0,1-3.89-1.42,5.33,5.33,0,0,1-1.39-3.87,6.43,6.43,0,0,1,.35-2.13,4.68,4.68,0,0,1,1-1.69A4.24,4.24,0,0,1,165.16,9a5.81,5.81,0,0,1,2.13-.37,5.05,5.05,0,0,1,2.61.64A4.16,4.16,0,0,1,171.52,11a4.39,4.39,0,0,1,.55,2.07,1.31,1.31,0,0,1-.56,1.27,3.56,3.56,0,0,1-1.58.29m-5.07-1.48h4.7a3.12,3.12,0,0,0-.71-2,2.19,2.19,0,0,0-1.65-.66,2.08,2.08,0,0,0-1.59.67,3.27,3.27,0,0,0-.75,2"/><path class="cls-1" d="M175.61,10.14v.31a5.14,5.14,0,0,1,1.53-1.33,3.69,3.69,0,0,1,1.78-.42,4.21,4.21,0,0,1,2.21.61,4.34,4.34,0,0,1,1.59,1.81,6.43,6.43,0,0,1,.58,2.81,7,7,0,0,1-.33,2.2,5,5,0,0,1-.93,1.68,4.16,4.16,0,0,1-1.39,1.05,4.22,4.22,0,0,1-1.73.36,3.72,3.72,0,0,1-1.87-.44,5.6,5.6,0,0,1-1.44-1.31v3.89c0,1.14-.41,1.71-1.24,1.71a1,1,0,0,1-1-.44,2.9,2.9,0,0,1-.24-1.29V10.15A1.67,1.67,0,0,1,173.48,9a1.15,1.15,0,0,1,.89-.36,1.14,1.14,0,0,1,.89.37,1.51,1.51,0,0,1,.35,1.09m5.09,3.76a4.46,4.46,0,0,0-.32-1.76,2.64,2.64,0,0,0-.86-1.13,2.12,2.12,0,0,0-1.24-.39,2.3,2.3,0,0,0-1.8.84,3.67,3.67,0,0,0-.74,2.49,3.6,3.6,0,0,0,.73,2.41,2.3,2.3,0,0,0,1.81.86,2.17,2.17,0,0,0,1.2-.37,2.54,2.54,0,0,0,.88-1.13,4.51,4.51,0,0,0,.34-1.82"/><path class="cls-1" d="M185.91,7.47a1.31,1.31,0,0,1-.92-.34,1.15,1.15,0,0,1-.39-.93,1.16,1.16,0,0,1,.4-.91,1.31,1.31,0,0,1,.91-.36,1.4,1.4,0,0,1,.9.32,1.18,1.18,0,0,1,.39,1,1.18,1.18,0,0,1-.38.93,1.3,1.3,0,0,1-.91.34m1.29,2.68v7.5a1.67,1.67,0,0,1-.37,1.17,1.22,1.22,0,0,1-.94.4,1.17,1.17,0,0,1-.93-.4,1.74,1.74,0,0,1-.36-1.17V10.22A1.63,1.63,0,0,1,185,9.07a1.16,1.16,0,0,1,.93-.39,1.21,1.21,0,0,1,.94.39,1.54,1.54,0,0,1,.37,1.08"/><path class="cls-1" d="M195.56,18l-2.29-3.77-1.41,1.33v2.07a1.59,1.59,0,0,1-.39,1.15,1.23,1.23,0,0,1-.91.4,1.16,1.16,0,0,1-.94-.4,1.72,1.72,0,0,1-.34-1.17V6.59a2.22,2.22,0,0,1,.33-1.32,1.11,1.11,0,0,1,.95-.45,1.2,1.2,0,0,1,.95.41,1.76,1.76,0,0,1,.35,1.2v6.3l2.92-3.07a7.22,7.22,0,0,1,.83-.78,1.19,1.19,0,0,1,.69-.2,1.12,1.12,0,0,1,.81.31,1,1,0,0,1,.32.77c0,.38-.35.89-1.05,1.52L195,12.54l2.66,4.19c.19.31.34.54.42.7a1,1,0,0,1,.13.46,1.34,1.34,0,0,1-.34,1,1.14,1.14,0,0,1-.88.35,1,1,0,0,1-.74-.25,7.39,7.39,0,0,1-.69-.93"/><path class="cls-1" d="M201.19,19.22a1.43,1.43,0,0,1-1-.38,1.32,1.32,0,0,1-.43-1.06,1.39,1.39,0,0,1,.41-1,1.35,1.35,0,0,1,1-.42,1.4,1.4,0,0,1,1,.42,1.47,1.47,0,0,1,0,2.06,1.44,1.44,0,0,1-1,.38"/><path class="cls-1" d="M214.09,16a2.31,2.31,0,0,1-.29,1,3.42,3.42,0,0,1-.89,1.05,4.48,4.48,0,0,1-1.49.8,6.41,6.41,0,0,1-2,.31,5,5,0,0,1-3.76-1.4,5.25,5.25,0,0,1-1.35-3.76,6.24,6.24,0,0,1,.62-2.83,4.51,4.51,0,0,1,1.78-1.89,5.53,5.53,0,0,1,2.8-.67,5.74,5.74,0,0,1,1.85.29,5.1,5.1,0,0,1,1.43.76,4.08,4.08,0,0,1,.89,1,2,2,0,0,1,.3,1,1,1,0,0,1-.34.79,1.22,1.22,0,0,1-.84.32.85.85,0,0,1-.54-.16,2.72,2.72,0,0,1-.48-.54,3.76,3.76,0,0,0-1-1.08,2.19,2.19,0,0,0-1.32-.37,2.24,2.24,0,0,0-1.85.9,3.89,3.89,0,0,0-.7,2.46,4.72,4.72,0,0,0,.18,1.34,3,3,0,0,0,.52,1,2.34,2.34,0,0,0,.82.65,2.64,2.64,0,0,0,2.41-.13,3.08,3.08,0,0,0,1-1.11,2.74,2.74,0,0,1,.51-.68,1,1,0,0,1,.68-.25,1,1,0,0,1,.78.36,1.16,1.16,0,0,1,.32.77"/><path class="cls-1" d="M225.28,14a6.16,6.16,0,0,1-.36,2.14,4.81,4.81,0,0,1-1,1.68,4.69,4.69,0,0,1-1.64,1.08,5.83,5.83,0,0,1-2.14.37,5.52,5.52,0,0,1-2.12-.38,4.61,4.61,0,0,1-1.62-1.08,4.78,4.78,0,0,1-1.05-1.68A6.26,6.26,0,0,1,215,14a6.52,6.52,0,0,1,.35-2.16,4.82,4.82,0,0,1,1-1.67A4.67,4.67,0,0,1,218,9.05a5.83,5.83,0,0,1,2.12-.37,5.63,5.63,0,0,1,2.14.38,4.64,4.64,0,0,1,1.65,1.08,4.86,4.86,0,0,1,1,1.67,6.36,6.36,0,0,1,.35,2.14m-2.6,0a3.92,3.92,0,0,0-.7-2.47,2.26,2.26,0,0,0-1.88-.88,2.37,2.37,0,0,0-1.34.39,2.53,2.53,0,0,0-.89,1.16,4.78,4.78,0,0,0-.31,1.8,4.64,4.64,0,0,0,.31,1.78,2.57,2.57,0,0,0,.88,1.16,2.32,2.32,0,0,0,1.35.41,2.25,2.25,0,0,0,1.88-.9,3.9,3.9,0,0,0,.7-2.45"/><path class="cls-1" d="M235.17,14.14v3.45a1.77,1.77,0,0,1-.37,1.23,1.25,1.25,0,0,1-1,.4,1.22,1.22,0,0,1-1-.4,1.82,1.82,0,0,1-.37-1.23V13.46a14.93,14.93,0,0,0-.06-1.53,1.75,1.75,0,0,0-.36-.88,1.17,1.17,0,0,0-.93-.35,1.65,1.65,0,0,0-1.68.88,6.11,6.11,0,0,0-.41,2.51v3.5a1.8,1.8,0,0,1-.36,1.22,1.34,1.34,0,0,1-1.93,0,1.75,1.75,0,0,1-.38-1.22V10.17a1.59,1.59,0,0,1,.34-1.11,1.12,1.12,0,0,1,.89-.38,1.23,1.23,0,0,1,.89.35,1.33,1.33,0,0,1,.35,1v.24a4.72,4.72,0,0,1,1.45-1.18A3.73,3.73,0,0,1,232,8.7a3.42,3.42,0,0,1,1.68.39,3.1,3.1,0,0,1,1.16,1.17,4.62,4.62,0,0,1,1.41-1.18,3.53,3.53,0,0,1,1.66-.38,3.82,3.82,0,0,1,1.84.42,2.58,2.58,0,0,1,1.14,1.19,5.55,5.55,0,0,1,.33,2.22v5.06a1.82,1.82,0,0,1-.36,1.23,1.27,1.27,0,0,1-1,.4,1.23,1.23,0,0,1-1-.41,1.75,1.75,0,0,1-.37-1.22V13.23a11.38,11.38,0,0,0-.07-1.34,1.56,1.56,0,0,0-.39-.85,1.26,1.26,0,0,0-.95-.34,1.77,1.77,0,0,0-1,.31,2,2,0,0,0-.72.81,6.48,6.48,0,0,0-.29,2.32"/><path class="cls-1" d="M114.47,13.32h0Z"/><path class="cls-1" d="M114.6,14.15h0c0-.23-.09-.47-.12-.7C114.51,13.69,114.55,13.92,114.6,14.15Z"/><path class="cls-1" d="M115.46,16.56l0,0Z"/><path class="cls-1" d="M115.38,16.4a.83.83,0,0,1-.07-.13A.83.83,0,0,0,115.38,16.4Z"/><path class="cls-1" d="M114.84,15.08a9,9,0,0,0,.46,1.16,10.36,10.36,0,0,1-.46-1.16Z"/><path class="cls-1" d="M124.5,3.39a7.33,7.33,0,0,1,1.3.11l.12-.76a8,8,0,0,0-2.71-.24l-.12-.41a1.06,1.06,0,1,0-.44,0l.13.46a11,11,0,0,0-2.93.86l.23.71a13,13,0,0,1,2.62-.62A17.5,17.5,0,0,1,124.5,3.39Z"/><path class="cls-1" d="M115.44,7.25h0l.12-.14-.32-.23-.48-.36a7.32,7.32,0,0,0-1.41,2.05.47.47,0,0,0-.09-.12.92.92,0,0,0-.75-.29h0a.6.6,0,0,1-.42-.15.64.64,0,0,0,.14-.41.67.67,0,1,0-.67.67l.17,0a1,1,0,0,0,.8.33.55.55,0,0,1,.44.16.71.71,0,0,1,.16.42h0a7.15,7.15,0,0,0-.31,2.67l1,0a8.06,8.06,0,0,1,.38-2.23A10,10,0,0,1,115.44,7.25Z"/><path class="cls-1" d="M133.7,4.27a.67.67,0,0,0-.66.67.5.5,0,0,0,0,.17,1,1,0,0,0-.34.81.53.53,0,0,1-.15.43.59.59,0,0,1-.3.14,8,8,0,0,0-1.75-1.77l-.76.81a12.17,12.17,0,0,1,1.73,2,14.67,14.67,0,0,1,1.13,2l1-.49a15.31,15.31,0,0,0-1.13-2.19,1,1,0,0,0,.33-.19.94.94,0,0,0,.29-.76.64.64,0,0,1,.15-.44.75.75,0,0,0,.41.14.67.67,0,0,0,0-1.34Z"/><path class="cls-1" d="M131.05,13.47a22.51,22.51,0,0,1-6.78,2,24.49,24.49,0,0,1-3.43.23,28.53,28.53,0,0,1-3.56-.22c-1.08-.14-1.92-.3-2.44-.42a10.36,10.36,0,0,0,.46,1.16s0,0,0,0a.83.83,0,0,0,.07.13l.06.13,0,0a7.4,7.4,0,0,0,1.08,1.55,5.77,5.77,0,0,0,2.92,1.83h0a12.08,12.08,0,0,0,3.29.42,14.33,14.33,0,0,0,5.68-1.17,9.15,9.15,0,0,0,3.25-2.67,7.4,7.4,0,0,0,1.05-2.29,6.09,6.09,0,0,0,.15-1.83A15,15,0,0,1,131.05,13.47Z"/><path class="cls-1" d="M115.89,7.58a10.7,10.7,0,0,0-1.14,2.25,8.45,8.45,0,0,0-.34,2.46h0a8.55,8.55,0,0,0,.06,1h0s0,.09,0,.13c0,.23.07.47.12.7a26.77,26.77,0,0,0,9.55.51,22.1,22.1,0,0,0,6.5-1.93,14.27,14.27,0,0,0,2.12-1.24A14.12,14.12,0,0,0,131,7.84c-2-2.86-4.17-3.6-5.28-3.78A6.92,6.92,0,0,0,124.5,4a16.85,16.85,0,0,0-1.74.12,11.59,11.59,0,0,0-2.53.59,9.74,9.74,0,0,0-3.53,2.05l0,0A7.21,7.21,0,0,0,115.89,7.58Zm12.27-.67a1.75,1.75,0,1,1-1.74,1.75A1.75,1.75,0,0,1,128.16,6.91Zm-8.24-.07a2.82,2.82,0,1,1-2.82,2.82A2.82,2.82,0,0,1,119.92,6.84Z"/></g></g></svg>