<svg xmlns="http://www.w3.org/2000/svg" viewBox="0 0 23.5 4.58"><defs><style>.cls-1{fill:#282828;}</style></defs><title>Asset 29</title><g id="Layer_2" data-name="Layer 2"><g id="LANDSCAPE"><path class="cls-1" d="M23.49,2.77c-.26-.6-1.24-.91-1.79-1.21A13.65,13.65,0,0,0,18.88.18a8.63,8.63,0,0,0-3.47,0,11.63,11.63,0,0,0-1.65.29,5.34,5.34,0,0,0-2.87.27c-.32,0-.64,0-.86-.05C9.37.63,8.78.31,8.12.27a2.28,2.28,0,0,0-1.6.61c-.61.49-2,1.16-2.91,1.71-1.15.7-2.4,1.38-3.6,2,0,0,0,0,0,0,2.27-.43,4.07-2,6.19-2.81l1.19-.48a3.75,3.75,0,0,1,2.1,0,6.43,6.43,0,0,0,.8.11.31.31,0,0,0,0,.19c.22.42.62.43,1,.71a2.56,2.56,0,0,0,1,.62,2,2,0,0,0,1.58-.64,1.53,1.53,0,0,0,.45.06c.18,0,.45.11.62,0l.06,0s0,0,0,0h0a.13.13,0,0,0,0-.06c0-.24-.16-.38-.35-.54l-.26-.23a.93.93,0,0,0,0-.51l.79-.11a10.22,10.22,0,0,1,3.26.23,24.93,24.93,0,0,1,5.11,1.7S23.5,2.78,23.49,2.77Z"/></g></g></svg>